<?xml version="1.0" encoding="utf-8"?>
<!-- Generator: Adobe Illustrator 18.1.1, SVG Export Plug-In . SVG Version: 6.00 Build 0)  -->
<svg version="1.1" id="Layer_1" xmlns="http://www.w3.org/2000/svg" xmlns:xlink="http://www.w3.org/1999/xlink" x="0px" y="0px"
	 viewBox="0 0 518.8 461.2" enable-background="new 0 0 518.8 461.2" xml:space="preserve">
<g opacity="5.000000e-02">
	<path d="M518.8,105.7v355.5H0V105.7h134.6V43.3c0-23.7,19.5-43.3,43.3-43.3h163.3c23.7,0,43.3,19.5,43.3,43.3v62.4H518.8z
		 M470.8,153.7H220.9v-48h115.3V48H182.5v105.7H48v259.4h422.8V153.7H470.8z"/>
</g>
<polygon opacity="5.000000e-02" points="343.3,258.8 284,258.8 284,198.2 234.8,198.2 234.8,258.8 175.5,258.8 175.5,306.7 
	234.8,306.7 234.8,367.2 284,367.2 284,306.7 343.3,306.7 "/>
</svg>
