<?xml version="1.0" encoding="utf-8"?>
<!-- Generator: Adobe Illustrator 18.1.0, SVG Export Plug-In . SVG Version: 6.00 Build 0)  -->
<!DOCTYPE svg PUBLIC "-//W3C//DTD SVG 1.1//EN" "http://www.w3.org/Graphics/SVG/1.1/DTD/svg11.dtd">
<svg version="1.1" id="Layer_1" xmlns="http://www.w3.org/2000/svg" xmlns:xlink="http://www.w3.org/1999/xlink" x="0px" y="0px"
	 viewBox="0 190.5 842 214.3" enable-background="new 0 190.5 842 214.3" xml:space="preserve">
<g opacity="0.2" enable-background="new    ">
	<path d="M444.4,391.5c-23.1,1.1-47.1,1.8-65.9,2c-34.9,0.5-36-0.6-38.5-3.2c-2-2.1-3.1-3.2-5.8-31.7c-1.4-15.5-3.1-36.2-4.4-56.8
		c-1.4-22-2.4-42.3-2.7-57.2c-0.7-29.2,0.7-31,2.9-33.4c2.5-2.9,4.6-5.2,64.2-8c24.1-1.2,51-1.9,72.1-2c39-0.2,40.7,1.3,43.1,3.5
		c2.5,2.1,3.6,3.2,6.2,33c1.4,16.2,3,37.5,4.2,58.6c4.5,80.5,1.4,84-1.1,86.8C516.1,385.9,513.9,388.4,444.4,391.5z"/>
</g>
<g>
	<g>
		<g>
			<path fill="#455A64" d="M498.2,210.4c3.5,3.1,13.2,154,8.3,159.6c-3.9,4.4-156.2,9.9-159.4,6.6c-3.5-3.6-13.9-155.6-9.4-160.7
				C342.1,211,493.7,206.4,498.2,210.4z"/>
		</g>
		<g>
			<path fill="#FFFFFF" d="M441.3,382.8c-21.9,1-44.8,1.7-62.7,1.9c-33.2,0.5-34.2-0.6-36.6-3.1c-2-2-3-3.1-5.5-30.1
				c-1.4-14.8-2.9-34.4-4.2-54.1c-1.3-21-2.3-40.3-2.6-54.4c-0.7-27.8,0.7-29.4,2.7-31.7c2.4-2.7,4.4-5,61.1-7.5
				c22.8-1.1,48.4-1.7,68.4-1.8c37-0.2,38.7,1.3,41.1,3.3s3.5,3,6,31.5c1.4,15.5,2.9,35.7,3.9,55.8c4.3,76.6,1.4,79.9-1,82.6
				C509.4,377.4,507.4,379.8,441.3,382.8z M352.9,370.2c11.4,0.6,46.2,0.1,87.7-1.8c36-1.7,53.3-3.2,59.9-4.2
				c1.9-21.4-4.9-126.2-8.1-147.7c-12.4-1-53.5-0.7-98.2,1.3c-29.7,1.3-44.4,2.7-50.3,3.7C342.3,243.1,349.5,348.1,352.9,370.2z"/>
		</g>
	</g>
</g>
<g opacity="0.2" enable-background="new    ">
	<path d="M212.8,396.7c-48.5-4.9-50.4-7.1-52.7-9.9c-2.1-2.5-3.6-4.2-1.3-33.2c1.1-15.1,3.1-35.3,5.6-56.7c2.4-21.2,5-41.2,7.3-56.5
		c4.3-28.6,5.8-29.9,8.2-31.8c2.6-2.3,3.9-3.3,43-0.8c21.9,1.4,48.7,3.7,71.8,6c58.3,5.8,60.5,8.6,62.9,11.4
		c2.4,2.9,3.9,4.6-0.4,51.9c-2.3,24.9-5.6,55.8-8.7,80.5c-5.4,42.1-6.7,43-9.8,45.3c-2.6,1.9-4.2,3-48,0.2
		C265.9,401.6,236.1,399.1,212.8,396.7z"/>
</g>
<g>
	<g>
		<g>
			<path fill="#607D8B" d="M186.9,216.5c3.6-3,154.4,9.3,159.2,15c3.8,4.5-12.9,156.1-16.7,158.7c-4.1,2.9-155.9-8.8-160.3-14.1
				C164.9,371,182.3,220.3,186.9,216.5z"/>
		</g>
		<g>
			<path fill="#FFFFFF" d="M213.7,390c-46.1-4.6-47.9-6.8-50.2-9.4c-2-2.4-3.3-4.1-1.3-31.7c1.1-14.3,3-33.5,5.2-54
				c2.3-20.1,4.8-39.2,6.9-53.7c4.1-27.2,5.6-28.4,7.9-30.3c2.5-2.1,3.8-3.1,41-0.7c20.8,1.3,46.3,3.5,68.4,5.7
				c55.4,5.6,57.5,8.2,59.9,11c2.3,2.6,3.7,4.4-0.4,49.4c-2.1,23.7-5.2,53-8.3,76.6c-5.1,40-6.3,40.9-9.3,43
				c-2.5,1.8-3.9,2.9-45.6,0.2C264.3,394.6,235.9,392.3,213.7,390z M175.5,370.7c4.3,1,14.8,2.6,39.7,5.1
				c43.1,4.4,94.1,7.6,108.8,7.6c1.9-9.6,5.6-36.5,9.5-72.8c4.2-38.8,6.1-64.9,6.1-74c-4.8-1.1-17.4-3.2-49.2-6.4
				c-41.7-4.2-85.2-7.1-98-7C186.9,244.7,175.1,349.4,175.5,370.7z"/>
		</g>
	</g>
</g>
<g opacity="0.2" enable-background="new    ">
	<path d="M94.6,394.8c-57.8,9.8-60.6,7.7-63.7,5.6c-3-2.1-5-3.5-13.5-50.2C13,325.6,8,295,4.4,270.2c-6-41.9-5-43.1-2.5-46.1
		c2-2.5,3.2-4.1,46.2-13c24.3-5,53.7-10.6,77-14.5c48-8.1,50.4-6.4,53.5-4.4c2.7,1.9,4.5,3.1,10.1,31.7c2.9,14.9,6.3,34.8,9.6,56.2
		c3.3,21.1,6.1,41.1,8,56.5c3.5,28.7,2.3,30.4,0.5,32.9c-1.9,2.9-3,4.3-41.3,12.2C143.9,386,117.5,391,94.6,394.8z"/>
</g>
<g>
	<g>
		<g>
			<path fill="#78909C" d="M193.7,358.8c-2.6,3.8-151.3,31.9-157.4,27.8c-4.8-3.5-28.8-153.9-26-157.5
				c3.1-3.8,152.6-32.9,158.3-28.9C174,203.9,197.2,353.8,193.7,358.8z"/>
		</g>
		<g>
			<path fill="#FFFFFF" d="M92.9,387c-54.9,9.3-57.7,7.4-60.6,5.4c-2.9-2-4.8-3.3-12.7-47.8c-4.3-23.5-9.1-52.5-12.4-76.1
				c-5.6-39.9-4.6-41.1-2.4-44c1.9-2.4,3.1-3.8,44-12.3c23.1-4.8,51.1-10.1,73.1-13.8c45.7-7.7,48-6.2,50.9-4.2
				c2.6,1.8,4.3,3,9.6,30.1c2.7,14.1,6.1,33.1,9.2,53.5c3.1,20,5.8,39.1,7.5,53.7c3.2,27.3,2.1,28.8,0.5,31.2
				c-1.9,2.7-2.9,4.1-39.3,11.6C139.9,378.6,114.7,383.4,92.9,387z M41.3,379.8c4.9-0.2,17.6-1.4,49.2-6.8c41.3-7,84-15.7,96.4-19.2
				c-0.7-22.2-17.2-126.3-23.1-146.6c-4.4,0.2-14.9,1.4-39.6,5.6c-42.8,7.3-92.8,17.5-107,21.6c0.7,9.8,4.3,36.7,10.1,72.7
				C33.8,345.4,38.8,371,41.3,379.8z"/>
		</g>
	</g>
</g>
<g opacity="0.2" enable-background="new    ">
	<path d="M551,399.8c-58.5-3.7-60.9-6.3-63.4-9.1c-2.5-2.7-4.1-4.5-1.7-51.9c1.3-25,3.5-56,5.7-80.9c3.8-42.1,5-43.1,8.1-45.5
		c2.5-2,4.1-3.2,47.9-2c24.8,0.6,54.8,1.9,78.1,3.5c48.6,3.1,50.6,5.2,53,8c2.3,2.5,3.7,4.1,2.6,33.2c-0.6,15.1-1.8,35.4-3.5,56.9
		c-1.7,21.2-3.5,41.5-5.1,56.7c-3.2,28.7-4.8,30-7,32.2c-2.5,2.3-3.8,3.5-43,2.4C601.1,402.5,574.2,401.2,551,399.8z"/>
</g>
<g>
	<g>
		<g>
			<path fill="#90A4AE" d="M657,387.4c-3.5,3.1-154.6-3.5-159.5-8.9c-3.9-4.4,7-156.4,10.6-159.2c3.9-3,156.2,2.9,160.7,8
				C673.3,232.1,661.5,383.4,657,387.4z"/>
		</g>
		<g>
			<path fill="#FFFFFF" d="M552.4,391.8c-55.6-3.6-57.9-6-60.3-8.7c-2.4-2.6-3.8-4.3-1.5-49.4c1.2-23.8,3.3-53.3,5.5-77
				c3.6-40,4.8-41,7.7-43.2c2.4-1.9,3.9-3,45.6-1.9c23.6,0.6,52.1,1.9,74.3,3.2c46.2,3,48.1,5,50.4,7.5c2.1,2.4,3.5,3.9,2.5,31.6
				c-0.5,14.4-1.7,33.6-3.2,54.2c-1.5,20.3-3.3,39.4-4.9,54c-3.1,27.3-4.5,28.6-6.7,30.5c-2.4,2.1-3.7,3.3-40.9,2.3
				C600.1,394.3,574.4,393.2,552.4,391.8z M503.9,372.9c4.9,1,17.5,2.6,49.4,4.6c41.8,2.6,85.3,3.9,98.3,3.3
				c4.4-21.8,12.2-126.9,11.1-148.1c-4.3-0.7-14.9-2-39.8-3.7c-43.4-2.7-94.4-4.2-109-3.5c-1.5,9.8-4.2,36.7-6.8,73.1
				C504.4,337.7,503.6,363.8,503.9,372.9z"/>
		</g>
	</g>
</g>
<g>
	<g opacity="0.25">
		<g enable-background="new    ">
			<path d="M98.2,252.7c10.8-2.1,19.6-1.6,26.5,1.5c6.9,3,11.1,8.7,12.7,17.1c0.8,4.2,0.4,8.2-1.2,12c-1.6,3.8-4.4,6.9-8.3,9.4
				c5.7,0.1,10.3,1.8,13.8,5.2c3.5,3.3,5.7,7.5,6.7,12.6c1.7,8.8,0.1,16-4.9,21.6c-4.9,5.6-12.7,9.5-23.3,11.5L75,352.2l-2.1-11
				l9.4-3.8l-12.6-65.8l-10.1,0l-2.1-11.1l9.8-1.9L98.2,252.7z M92.9,293.5l13.2-2.5c4.9-0.9,8.5-2.7,10.8-5.2
				c2.3-2.5,3-5.7,2.3-9.6c-0.8-4.2-2.7-7.1-5.8-8.6c-3.1-1.5-7.2-1.7-12.5-0.7l-12.6,2.4L92.9,293.5z M95.4,306.2l5.1,26.4
				l16.9-3.3c4.9-0.9,8.4-2.7,10.5-5.3c2.2-2.6,2.8-6,2-10.2c-0.9-4.5-2.6-7.7-5.2-9.7c-2.6-2-6.3-2.5-11-1.6L95.4,306.2z"/>
		</g>
		<g enable-background="new    ">
			<path fill="none" stroke="#000000" stroke-width="3" stroke-miterlimit="10" d="M98.2,252.7c10.8-2.1,19.6-1.6,26.5,1.5
				c6.9,3,11.1,8.7,12.7,17.1c0.8,4.2,0.4,8.2-1.2,12c-1.6,3.8-4.4,6.9-8.3,9.4c5.7,0.1,10.3,1.8,13.8,5.2c3.5,3.3,5.7,7.5,6.7,12.6
				c1.7,8.8,0.1,16-4.9,21.6c-4.9,5.6-12.7,9.5-23.3,11.5L75,352.2l-2.1-11l9.4-3.8l-12.6-65.8l-10.1,0l-2.1-11.1l9.8-1.9
				L98.2,252.7z M92.9,293.5l13.2-2.5c4.9-0.9,8.5-2.7,10.8-5.2c2.3-2.5,3-5.7,2.3-9.6c-0.8-4.2-2.7-7.1-5.8-8.6
				c-3.1-1.5-7.2-1.7-12.5-0.7l-12.6,2.4L92.9,293.5z M95.4,306.2l5.1,26.4l16.9-3.3c4.9-0.9,8.4-2.7,10.5-5.3c2.2-2.6,2.8-6,2-10.2
				c-0.9-4.5-2.6-7.7-5.2-9.7c-2.6-2-6.3-2.5-11-1.6L95.4,306.2z"/>
		</g>
	</g>
	<g>
		<g enable-background="new    ">
			<path fill="#FFFFFF" d="M95.2,249.7c10.8-2.1,19.6-1.6,26.5,1.5c6.9,3,11.1,8.7,12.7,17.1c0.8,4.2,0.4,8.2-1.2,12
				c-1.6,3.8-4.4,6.9-8.3,9.4c5.7,0.1,10.3,1.8,13.8,5.2c3.5,3.3,5.7,7.5,6.7,12.6c1.7,8.8,0.1,16-4.9,21.6
				c-4.9,5.6-12.7,9.5-23.3,11.5L72,349.2l-2.1-11l9.4-3.8l-12.6-65.8l-10.1,0l-2.1-11.1l9.8-1.9L95.2,249.7z M90,290.5l13.2-2.5
				c4.9-0.9,8.5-2.7,10.8-5.2c2.3-2.5,3-5.7,2.3-9.6c-0.8-4.2-2.7-7.1-5.8-8.6c-3.1-1.5-7.2-1.7-12.5-0.7l-12.6,2.4L90,290.5z
				 M92.4,303.2l5.1,26.4l16.9-3.3c4.9-0.9,8.4-2.7,10.5-5.3c2.2-2.6,2.8-6,2-10.2c-0.9-4.5-2.6-7.7-5.3-9.7c-2.6-2-6.3-2.5-11-1.6
				L92.4,303.2z"/>
		</g>
		<g enable-background="new    ">
			<path fill="none" stroke="#FFFFFF" stroke-width="3" stroke-miterlimit="10" d="M95.2,249.7c10.8-2.1,19.6-1.6,26.5,1.5
				c6.9,3,11.1,8.7,12.7,17.1c0.8,4.2,0.4,8.2-1.2,12c-1.6,3.8-4.4,6.9-8.3,9.4c5.7,0.1,10.3,1.8,13.8,5.2c3.5,3.3,5.7,7.5,6.7,12.6
				c1.7,8.8,0.1,16-4.9,21.6c-4.9,5.6-12.7,9.5-23.3,11.5L72,349.2l-2.1-11l9.4-3.8l-12.6-65.8l-10.1,0l-2.1-11.1l9.8-1.9
				L95.2,249.7z M90,290.5l13.2-2.5c4.9-0.9,8.5-2.7,10.8-5.2c2.3-2.5,3-5.7,2.3-9.6c-0.8-4.2-2.7-7.1-5.8-8.6
				c-3.1-1.5-7.2-1.7-12.5-0.7l-12.6,2.4L90,290.5z M92.4,303.2l5.1,26.4l16.9-3.3c4.9-0.9,8.4-2.7,10.5-5.3c2.2-2.6,2.8-6,2-10.2
				c-0.9-4.5-2.6-7.7-5.3-9.7c-2.6-2-6.3-2.5-11-1.6L92.4,303.2z"/>
		</g>
	</g>
</g>
<g>
	<g opacity="0.25">
		<g enable-background="new    ">
			<path d="M302.6,310.5c-1.5,13.6-6.6,24.4-15.3,32.5c-8.7,8-19.4,11.4-32,10c-12.5-1.3-22.2-6.9-28.9-16.6c-6.8-9.7-9.4-21.4-8-35
				l0.2-1.4c1.4-13.5,6.5-24.3,15.1-32.4c8.6-8.1,19.2-11.5,31.8-10.1c12.6,1.3,22.3,6.9,29.1,16.7c6.8,9.8,9.5,21.4,8.1,34.9
				L302.6,310.5z M284.2,307c1-9.6-0.1-17.6-3.5-24c-3.4-6.4-8.9-10.1-16.8-10.9c-7.8-0.8-14,1.5-18.5,7c-4.5,5.5-7.2,13.1-8.3,22.8
				l-0.2,1.5c-1,9.8,0.1,17.9,3.3,24.2c3.2,6.4,8.8,10,16.5,10.8c7.9,0.8,14.1-1.5,18.7-7.1c4.6-5.5,7.4-13.2,8.5-23L284.2,307z"/>
		</g>
		<g enable-background="new    ">
			<path fill="none" stroke="#000000" stroke-width="3" stroke-miterlimit="10" d="M302.6,310.5c-1.5,13.6-6.6,24.4-15.3,32.5
				c-8.7,8-19.4,11.4-32,10c-12.5-1.3-22.2-6.9-28.9-16.6c-6.8-9.7-9.4-21.4-8-35l0.2-1.4c1.4-13.5,6.5-24.3,15.1-32.4
				c8.6-8.1,19.2-11.5,31.8-10.1c12.6,1.3,22.3,6.9,29.1,16.7c6.8,9.8,9.5,21.4,8.1,34.9L302.6,310.5z M284.2,307
				c1-9.6-0.1-17.6-3.5-24c-3.4-6.4-8.9-10.1-16.8-10.9c-7.8-0.8-14,1.5-18.5,7c-4.5,5.5-7.2,13.1-8.3,22.8l-0.2,1.5
				c-1,9.8,0.1,17.9,3.3,24.2c3.2,6.4,8.8,10,16.5,10.8c7.9,0.8,14.1-1.5,18.7-7.1c4.6-5.5,7.4-13.2,8.5-23L284.2,307z"/>
		</g>
	</g>
	<g>
		<g enable-background="new    ">
			<path fill="#FFFFFF" d="M299.6,307.5c-1.5,13.6-6.6,24.4-15.3,32.5c-8.7,8-19.4,11.4-32,10c-12.5-1.3-22.2-6.9-28.9-16.6
				c-6.8-9.7-9.4-21.4-8-35l0.2-1.4c1.4-13.5,6.5-24.3,15.1-32.4c8.6-8.1,19.2-11.5,31.8-10.1c12.6,1.3,22.3,6.9,29.1,16.7
				c6.8,9.8,9.5,21.4,8.1,34.9L299.6,307.5z M281.2,304c1-9.6-0.1-17.6-3.5-24c-3.4-6.4-8.9-10.1-16.8-10.9c-7.8-0.8-14,1.5-18.5,7
				c-4.5,5.5-7.2,13.2-8.3,22.8l-0.2,1.5c-1,9.8,0.1,17.9,3.3,24.2c3.2,6.4,8.8,10,16.5,10.8c7.9,0.8,14.1-1.5,18.7-7.1
				c4.6-5.5,7.4-13.2,8.5-23L281.2,304z"/>
		</g>
		<g enable-background="new    ">
			<path fill="none" stroke="#FFFFFF" stroke-width="3" stroke-miterlimit="10" d="M299.6,307.5c-1.5,13.6-6.6,24.4-15.3,32.5
				c-8.7,8-19.4,11.4-32,10c-12.5-1.3-22.2-6.9-28.9-16.6c-6.8-9.7-9.4-21.4-8-35l0.2-1.4c1.4-13.5,6.5-24.3,15.1-32.4
				c8.6-8.1,19.2-11.5,31.8-10.1c12.6,1.3,22.3,6.9,29.1,16.7c6.8,9.8,9.5,21.4,8.1,34.9L299.6,307.5z M281.2,304
				c1-9.6-0.1-17.6-3.5-24c-3.4-6.4-8.9-10.1-16.8-10.9c-7.8-0.8-14,1.5-18.5,7c-4.5,5.5-7.2,13.2-8.3,22.8l-0.2,1.5
				c-1,9.8,0.1,17.9,3.3,24.2c3.2,6.4,8.8,10,16.5,10.8c7.9,0.8,14.1-1.5,18.7-7.1c4.6-5.5,7.4-13.2,8.5-23L281.2,304z"/>
		</g>
	</g>
</g>
<g>
	<g opacity="0.25">
		<g enable-background="new    ">
			<path d="M383.7,333.2l7.8-2.1l22.4-35.8l-26.2-31.7l-7.9-1.1l-0.7-11.3l35.8-2.4l0.7,11.3l-7.6,1.3l15.9,21.9l13-23.8l-7.5-0.3
				l-0.7-11.3l35.9-2.4l0.7,11.3l-7.7,2.1l-21.8,34.9l27.4,32.5l8.4,1.1l0.7,11.2l-36.7,2.4l-0.7-11.2l7.4-1.3L425.6,306l-13.5,24.5
				l7.5,0.3l0.7,11.2l-36,2.4L383.7,333.2z"/>
		</g>
		<g enable-background="new    ">
			<path fill="none" stroke="#000000" stroke-width="3" stroke-miterlimit="10" d="M383.7,333.2l7.8-2.1l22.4-35.8l-26.2-31.7
				l-7.9-1.1l-0.7-11.3l35.8-2.4l0.7,11.3l-7.6,1.3l15.9,21.9l13-23.8l-7.5-0.3l-0.7-11.3l35.9-2.4l0.7,11.3l-7.7,2.1l-21.8,34.9
				l27.4,32.5l8.4,1.1l0.7,11.2l-36.7,2.4l-0.7-11.2l7.4-1.3L425.6,306l-13.5,24.5l7.5,0.3l0.7,11.2l-36,2.4L383.7,333.2z"/>
		</g>
	</g>
	<g>
		<g enable-background="new    ">
			<path fill="#FFFFFF" d="M380.8,330.2l7.8-2.1l22.4-35.8l-26.2-31.7l-7.9-1.1l-0.7-11.3l35.8-2.4l0.7,11.3l-7.6,1.3l15.9,21.9
				l13-23.8l-7.5-0.3l-0.7-11.3l35.9-2.4l0.7,11.3l-7.7,2.1l-21.8,34.9l27.4,32.5l8.4,1.1l0.7,11.2l-36.7,2.4l-0.7-11.2l7.4-1.3
				l-16.5-22.6l-13.5,24.5l7.5,0.3l0.7,11.2l-36,2.4L380.8,330.2z"/>
		</g>
		<g enable-background="new    ">
			<path fill="none" stroke="#FFFFFF" stroke-width="3" stroke-miterlimit="10" d="M380.8,330.2l7.8-2.1l22.4-35.8l-26.2-31.7
				l-7.9-1.1l-0.7-11.3l35.8-2.4l0.7,11.3l-7.6,1.3l15.9,21.9l13-23.8l-7.5-0.3l-0.7-11.3l35.9-2.4l0.7,11.3l-7.7,2.1l-21.8,34.9
				l27.4,32.5l8.4,1.1l0.7,11.2l-36.7,2.4l-0.7-11.2l7.4-1.3l-16.5-22.6l-13.5,24.5l7.5,0.3l0.7,11.2l-36,2.4L380.8,330.2z"/>
		</g>
	</g>
</g>
<g opacity="0.2" enable-background="new    ">
	<path d="M766.2,385.6c-23,2.6-46.8,5-65.5,6.6c-34.8,2.9-35.9,1.9-38.6-0.6c-2.3-2-3.3-3-8-31.2c-2.5-15.4-5.6-36-8.3-56.5
		c-3-21.9-5.4-42.1-6.8-56.9c-2.7-29.1-1.4-31,0.6-33.5c2.3-3,4.3-5.6,63.6-12.4c23.8-2.7,50.5-5.4,71.6-6.9
		c38.8-3,40.7-1.5,43.2,0.5c2.6,2,3.8,3,8.5,32.5c2.6,16.1,5.6,37.3,8.2,58.1c10.1,80.1,7.3,83.7,5,86.6
		C837.4,375.1,835.3,377.8,766.2,385.6z"/>
</g>
<g>
	<g>
		<g>
			<path fill="#546E7A" d="M807.3,201.3c3.7,2.9,23.8,152.8,19.3,158.7c-3.6,4.6-155.2,20.7-158.6,17.6
				c-3.7-3.3-24.7-154.2-20.5-159.6C651.6,212.8,802.6,197.6,807.3,201.3z"/>
		</g>
		<g>
			<path fill="#FFFFFF" d="M762.4,377.2c-21.8,2.5-44.6,4.8-62.4,6.3c-33.1,2.7-34.2,1.8-36.8-0.6c-2.1-1.9-3.2-2.9-7.6-29.7
				c-2.4-14.7-5.2-34.2-7.9-53.6c-2.7-20.8-5-40-6.4-54.1c-2.6-27.6-1.3-29.4,0.6-31.8c2.1-2.9,4.1-5.2,60.5-11.8
				c22.6-2.6,48.1-5,68.1-6.6c36.9-2.9,38.7-1.4,41.2,0.5c2.5,1.9,3.6,2.7,8.1,31c2.4,15.4,5.2,35.5,7.7,55.3
				c9.6,76.1,6.9,79.6,4.8,82.4C830.1,367.2,828.2,369.7,762.4,377.2z M673.4,370.8c11.6-0.2,46.1-3.1,87.3-7.9
				c35.7-4.1,52.9-6.9,59.4-8.3c0.4-21.4-13.6-125.6-18.3-146.8c-12.4-0.1-53.4,3-97.9,8.1c-29.5,3.3-44.1,5.8-49.9,7.1
				C654,244.8,668.6,349,673.4,370.8z"/>
		</g>
	</g>
</g>
<g>
	<g opacity="0.25">
		<g enable-background="new    ">
			<path d="M762.7,293.6l-31.3,4.3l3.6,26.4l29.9-4.1l-0.7-11.2l14.1-1.9l3.4,25.3l-73.2,9.9l-1.5-11.1l9.6-3.2l-9-66.4l-10.1-0.6
				l-1.5-11.2l9.8-1.3l63.2-8.6l3.4,25.3l-14.2,1.9l-2.3-10.9l-29.6,4l3.2,23.3l31.3-4.3L762.7,293.6z"/>
		</g>
		<g enable-background="new    ">
			<path fill="none" stroke="#000000" stroke-width="3" stroke-miterlimit="10" d="M762.7,293.6l-31.3,4.3l3.6,26.4l29.9-4.1
				l-0.7-11.2l14.1-1.9l3.4,25.3l-73.2,9.9l-1.5-11.1l9.6-3.2l-9-66.4l-10.1-0.6l-1.5-11.2l9.8-1.3l63.2-8.6l3.4,25.3l-14.2,1.9
				l-2.3-10.9l-29.6,4l3.2,23.3l31.3-4.3L762.7,293.6z"/>
		</g>
	</g>
	<g>
		<g enable-background="new    ">
			<path fill="#FFFFFF" d="M759.8,290.6l-31.3,4.3l3.6,26.4l29.9-4.1l-0.7-11.2l14.1-1.9l3.4,25.3l-73.2,9.9l-1.5-11.1l9.6-3.2
				l-9-66.4l-10.1-0.6l-1.5-11.2l9.8-1.3l63.2-8.6l3.4,25.3l-14.2,1.9l-2.3-10.9l-29.6,4l3.2,23.3l31.3-4.3L759.8,290.6z"/>
		</g>
		<g enable-background="new    ">
			<path fill="none" stroke="#FFFFFF" stroke-width="3" stroke-miterlimit="10" d="M759.8,290.6l-31.3,4.3l3.6,26.4l29.9-4.1
				l-0.7-11.2l14.1-1.9l3.4,25.3l-73.2,9.9l-1.5-11.1l9.6-3.2l-9-66.4l-10.1-0.6l-1.5-11.2l9.8-1.3l63.2-8.6l3.4,25.3l-14.2,1.9
				l-2.3-10.9l-29.6,4l3.2,23.3l31.3-4.3L759.8,290.6z"/>
		</g>
	</g>
</g>
<g>
	<g opacity="0.25">
		<g enable-background="new    ">
			<path d="M568.1,268.7l0.6-11.3l38.6,2l-0.6,11.3l-10.1,1.4l-3.4,66.9l9.9,2.4l-0.6,11.2l-38.6-2l0.6-11.2l10.1-1.4l3.4-66.9
				L568.1,268.7z"/>
		</g>
		<g enable-background="new    ">
			<path fill="none" stroke="#000000" stroke-width="3" stroke-miterlimit="10" d="M568.1,268.7l0.6-11.3l38.6,2l-0.6,11.3
				l-10.1,1.4l-3.4,66.9l9.9,2.4l-0.6,11.2l-38.6-2l0.6-11.2l10.1-1.4l3.4-66.9L568.1,268.7z"/>
		</g>
	</g>
	<g>
		<g enable-background="new    ">
			<path fill="#FFFFFF" d="M565.2,265.7l0.6-11.3l38.6,2l-0.6,11.3l-10.1,1.4l-3.4,66.9l9.9,2.4l-0.6,11.2l-38.6-2l0.6-11.2
				l10.1-1.4l3.4-66.9L565.2,265.7z"/>
		</g>
		<g enable-background="new    ">
			<path fill="none" stroke="#FFFFFF" stroke-width="3" stroke-miterlimit="10" d="M565.2,265.7l0.6-11.3l38.6,2l-0.6,11.3
				l-10.1,1.4l-3.4,66.9l9.9,2.4l-0.6,11.2l-38.6-2l0.6-11.2l10.1-1.4l3.4-66.9L565.2,265.7z"/>
		</g>
	</g>
</g>
</svg>
