<?xml version="1.0" encoding="utf-8"?>
<!-- Generator: Adobe Illustrator 18.1.0, SVG Export Plug-In . SVG Version: 6.00 Build 0)  -->
<svg version="1.1" id="Layer_1" xmlns="http://www.w3.org/2000/svg" xmlns:xlink="http://www.w3.org/1999/xlink" x="0px" y="0px"
	 viewBox="-1542.6 3305.5 1096.3 411.9" enable-background="new -1542.6 3305.5 1096.3 411.9" xml:space="preserve">
<g opacity="0.2">
	<path d="M-992.3,3607.5c0,2.3-1.9,4.1-4.2,4.1l-399.5-3.2c-2.3,0-4.1-1.9-4.1-4.2l0.9-112.5c0-2.3,1.9-4.1,4.2-4.1l399.5,3.2
		c2.3,0,4.1,1.9,4.1,4.2L-992.3,3607.5z"/>
</g>
<g opacity="5.000000e-02">
	<polygon fill="none" points="-1008.8,3611.8 -992.2,3593.6 -991.8,3555.6 -1042.8,3611.6 	"/>
	<path fill="none" d="M-1068.9,3611.4l77.3-84.8l0.3-31.2c0-0.1,0-0.2,0-0.3l-105.7,116L-1068.9,3611.4z"/>
	<polygon fill="none" points="-1123.2,3610.9 -1013.9,3491 -1042.2,3490.8 -1151.4,3610.7 	"/>
	<path fill="none" d="M-1313.6,3488.6l-86.2,94.7l-0.2,21.3c0,2.3,1.8,4.1,4.1,4.2l1.4,0l109.2-119.9L-1313.6,3488.6z"/>
	<polygon fill="none" points="-1177.4,3610.5 -1068.2,3490.6 -1096.5,3490.4 -1205.7,3610.3 	"/>
	<path fill="none" d="M-1395,3488c-2.3,0-4.1,1.8-4.2,4.1l0,1.6l5.2-5.7L-1395,3488z"/>
	<polygon fill="none" points="-1367.9,3488.2 -1399.4,3522.7 -1399.6,3554.3 -1339.7,3488.4 	"/>
	<polygon fill="none" points="-1286,3609.6 -1176.8,3489.7 -1205,3489.5 -1314.3,3609.4 	"/>
	<polygon fill="none" points="-1231.7,3610 -1122.5,3490.2 -1150.8,3489.9 -1260,3609.8 	"/>
	<polygon fill="none" points="-1340.3,3609.2 -1231.1,3489.3 -1259.3,3489.1 -1368.6,3609 	"/>
	<polygon points="-1393.9,3488 -1399.2,3493.7 -1399.4,3522.7 -1367.9,3488.2 	"/>
	<polygon points="-1339.7,3488.4 -1399.6,3554.3 -1399.9,3583.3 -1313.6,3488.6 	"/>
	<polygon points="-1259.3,3489.1 -1285.4,3488.9 -1394.6,3608.7 -1368.6,3609 	"/>
	<polygon points="-1314.3,3609.4 -1205,3489.5 -1231.1,3489.3 -1340.3,3609.2 	"/>
	<polygon points="-1260,3609.8 -1150.8,3489.9 -1176.8,3489.7 -1286,3609.6 	"/>
	<polygon points="-1205.7,3610.3 -1096.5,3490.4 -1122.5,3490.2 -1231.7,3610 	"/>
	<polygon points="-1151.4,3610.7 -1042.2,3490.8 -1068.2,3490.6 -1177.4,3610.5 	"/>
	<path d="M-1097.1,3611.1l105.7-116c-0.1-2.1-1.9-3.9-4.1-3.9l-18.5-0.1l-109.2,119.9L-1097.1,3611.1z"/>
	<polygon points="-1042.8,3611.6 -991.8,3555.6 -991.6,3526.6 -1068.9,3611.4 	"/>
	<path d="M-996.4,3611.9c2.3,0,4.1-1.8,4.2-4.1l0.1-14.3l-16.6,18.2L-996.4,3611.9z"/>
</g>
<path opacity="0.1" d="M-1393.2,3608.2l0.9-110.1c0-2.2,1.9-4,4.1-4l393.1,3c1.7,0,3.1,1,3.7,2.5l0-4.6c0-2.3-1.8-4.1-4.1-4.2
	l-399.5-3.2c-2.3,0-4.1,1.8-4.2,4.1l-0.9,112.5c0,2.3,1.8,4.1,4.1,4.2l2.8,0C-1393.2,3608.3-1393.2,3608.3-1393.2,3608.2z"/>
<g opacity="0.2">
	<path d="M-524.4,3605.7c0,2.3-1.8,4.1-4.1,4.1l-399.5,0.4c-2.3,0-4.1-1.8-4.1-4.1l-0.1-112.5c0-2.3,1.8-4.1,4.1-4.1l399.5-0.4
		c2.3,0,4.1,1.8,4.1,4.1L-524.4,3605.7z"/>
</g>
<g opacity="5.000000e-02">
	<polygon fill="none" points="-540.9,3610.1 -524.4,3591.7 -524.5,3553.8 -575,3610.2 	"/>
	<path fill="none" d="M-601,3610.2l76.5-85.5l0-31.2c0-0.1,0-0.2,0-0.3l-104.7,117L-601,3610.2z"/>
	<polygon fill="none" points="-655.3,3610.3 -547.2,3489.4 -575.4,3489.4 -683.5,3610.3 	"/>
	<path fill="none" d="M-846.9,3489.7l-85.4,95.4l0,21.3c0,2.3,1.9,4.1,4.1,4.1l1.4,0l108.1-120.9L-846.9,3489.7z"/>
	<polygon fill="none" points="-709.6,3610.3 -601.4,3489.5 -629.7,3489.5 -737.8,3610.4 	"/>
	<path fill="none" d="M-928.2,3489.8c-2.3,0-4.1,1.9-4.1,4.1l0,1.6l5.1-5.8L-928.2,3489.8z"/>
	<polygon fill="none" points="-901.1,3489.8 -932.3,3524.6 -932.3,3556.1 -872.9,3489.8 	"/>
	<polygon fill="none" points="-818.2,3610.4 -710,3489.6 -738.3,3489.6 -846.4,3610.5 	"/>
	<polygon fill="none" points="-763.9,3610.4 -655.7,3489.5 -684,3489.5 -792.1,3610.4 	"/>
	<polygon fill="none" points="-872.4,3610.5 -764.3,3489.6 -792.6,3489.7 -900.7,3610.5 	"/>
	<polygon points="-927.2,3489.8 -932.3,3495.6 -932.3,3524.6 -901.1,3489.8 	"/>
	<polygon points="-872.9,3489.8 -932.3,3556.1 -932.2,3585.2 -846.9,3489.7 	"/>
	<polygon points="-792.6,3489.7 -818.6,3489.7 -926.7,3610.6 -900.7,3610.5 	"/>
	<polygon points="-846.4,3610.5 -738.3,3489.6 -764.3,3489.6 -872.4,3610.5 	"/>
	<polygon points="-792.1,3610.4 -684,3489.5 -710,3489.6 -818.2,3610.4 	"/>
	<polygon points="-737.8,3610.4 -629.7,3489.5 -655.7,3489.5 -763.9,3610.4 	"/>
	<polygon points="-683.5,3610.3 -575.4,3489.4 -601.4,3489.5 -709.6,3610.3 	"/>
	<path d="M-629.2,3610.2l104.7-117c-0.1-2.1-1.9-3.9-4.1-3.9l-18.5,0l-108.1,120.9L-629.2,3610.2z"/>
	<polygon points="-575,3610.2 -524.5,3553.8 -524.5,3524.7 -601,3610.2 	"/>
	<path d="M-528.5,3610.1c2.3,0,4.1-1.9,4.1-4.1l0-14.3l-16.5,18.4L-528.5,3610.1z"/>
</g>
<path opacity="0.1" d="M-925.4,3610l-0.1-110.1c0-2.2,1.8-4,4-4l393.1-0.6c1.7,0,3.1,1,3.7,2.4l0-4.6c0-2.3-1.9-4.1-4.1-4.1
	l-399.5,0.4c-2.3,0-4.1,1.9-4.1,4.1l0.1,112.5c0,2.3,1.9,4.1,4.1,4.1l2.8,0C-925.4,3610.2-925.4,3610.1-925.4,3610z"/>
<g opacity="0.2">
	<path d="M-537.7,3449.6c-0.1,2.3-2,4-4.3,3.9l-399.2-16.6c-2.3-0.1-4-2-3.9-4.3l4.7-112.4c0.1-2.3,2-4,4.3-3.9l399.2,16.6
		c2.3,0.1,4,2,3.9,4.3L-537.7,3449.6z"/>
</g>
<g opacity="5.000000e-02">
	<polygon fill="none" points="-554.4,3453.4 -537.1,3435.7 -535.5,3397.8 -588.4,3452 	"/>
	<path fill="none" d="M-614.4,3450.9l80.1-82.1l1.3-31.2c0-0.1,0-0.2,0-0.3l-109.6,112.4L-614.4,3450.9z"/>
	<polygon fill="none" points="-668.6,3448.6 -555.4,3332.5 -583.7,3331.3 -696.9,3447.5 	"/>
	<path fill="none" d="M-854.9,3320l-89.4,91.7l-0.9,21.3c-0.1,2.3,1.7,4.2,3.9,4.3l1.4,0.1l113.2-116.1L-854.9,3320z"/>
	<polygon fill="none" points="-722.9,3446.4 -609.7,3330.2 -637.9,3329.1 -751.1,3445.2 	"/>
	<path fill="none" d="M-936.2,3316.6c-2.3-0.1-4.2,1.7-4.3,3.9l-0.1,1.6l5.4-5.5L-936.2,3316.6z"/>
	<polygon fill="none" points="-909.1,3317.8 -941.7,3351.2 -943.1,3382.7 -880.9,3318.9 	"/>
	<polygon fill="none" points="-831.4,3441.9 -718.2,3325.7 -746.4,3324.5 -859.6,3440.7 	"/>
	<polygon fill="none" points="-777.1,3444.1 -663.9,3328 -692.1,3326.8 -805.3,3442.9 	"/>
	<polygon fill="none" points="-885.6,3439.6 -772.4,3323.5 -800.6,3322.3 -913.8,3438.4 	"/>
	<polygon points="-935.1,3316.7 -940.5,3322.2 -941.7,3351.2 -909.1,3317.8 	"/>
	<polygon points="-880.9,3318.9 -943.1,3382.7 -944.3,3411.7 -854.9,3320 	"/>
	<polygon points="-800.6,3322.3 -826.7,3321.2 -939.9,3437.3 -913.8,3438.4 	"/>
	<polygon points="-859.6,3440.7 -746.4,3324.5 -772.4,3323.5 -885.6,3439.6 	"/>
	<polygon points="-805.3,3442.9 -692.1,3326.8 -718.2,3325.7 -831.4,3441.9 	"/>
	<polygon points="-751.1,3445.2 -637.9,3329.1 -663.9,3328 -777.1,3444.1 	"/>
	<polygon points="-696.9,3447.5 -583.7,3331.3 -609.7,3330.2 -722.9,3446.4 	"/>
	<path d="M-642.6,3449.7l109.6-112.4c0-2.2-1.8-3.9-3.9-4l-18.5-0.8l-113.2,116.1L-642.6,3449.7z"/>
	<polygon points="-588.4,3452 -535.5,3397.8 -534.3,3368.8 -614.4,3450.9 	"/>
	<path d="M-542,3453.9c2.3,0.1,4.2-1.7,4.3-3.9l0.6-14.2l-17.2,17.7L-542,3453.9z"/>
</g>
<path opacity="0.1" d="M-939.1,3434.3l6-109.9c0.1-2.2,2-3.9,4.3-3.8l392.6,21.3c1.7,0.1,3,1.2,3.6,2.6l0.3-4.6
	c0.1-2.3-1.6-4.2-3.9-4.3l-399-21.8c-2.3-0.1-4.2,1.6-4.3,3.9l-6.1,112.3c-0.1,2.3,1.6,4.2,3.9,4.3l2.8,0.1
	C-939.1,3434.4-939.1,3434.4-939.1,3434.3z"/>
<g opacity="0.95">
	<g opacity="0.9">
		<path fill="#FFFFFF" d="M-642.9,3391.4c0.1,1.6-1.2,2.9-2.8,3l-281.1,9.9c-1.6,0.1-2.9-1.2-3-2.8l-2.8-79.1
			c-0.1-1.6,1.2-2.9,2.8-3l281.1-9.9c1.6-0.1,2.9,1.2,3,2.8L-642.9,3391.4z"/>
	</g>
	<g>
		<path fill="#FFFFFF" d="M-926.8,3405.5c-2.2,0-4-1.7-4.1-3.9l-2.8-79.1c-0.1-2.2,1.7-4.1,3.9-4.2l281.1-9.9l0.1,0
			c2.2,0,4,1.7,4.1,3.9l2.8,79.1c0,1.1-0.3,2.1-1.1,2.9c-0.7,0.8-1.7,1.3-2.8,1.3l-281.1,9.9L-926.8,3405.5z M-648.5,3310.6
			L-648.5,3310.6l-281.1,9.9c-1,0-1.7,0.8-1.7,1.8l2.8,79.1c0,0.9,0.8,1.7,1.7,1.7l0.1,0l281.1-9.9c0.5,0,0.9-0.2,1.2-0.6
			c0.3-0.3,0.5-0.8,0.5-1.2l-2.8-79.1C-646.8,3311.4-647.6,3310.6-648.5,3310.6z"/>
	</g>
</g>
<path opacity="0.2" d="M-641.5,3318c-0.1-1.8-1.3-3.2-2.9-3.7l2.7,77c0,1.1-0.3,2.1-1.1,2.9c-0.7,0.8-1.7,1.3-2.8,1.3l-280.1,9.9
	c0.3,2,2.1,3.5,4.2,3.5l278.8-9.9c2.2-0.1,4-2,3.9-4.2L-641.5,3318z"/>
<g id="_x36__3_">
	<path opacity="0.2" enable-background="new    " d="M-769.4,3717.4c16.7-13.8,30.5-25.6,35.3-35.5c1.5-3.1,3.6-15,6.7-28
		c2.1-8.8,7.3-16.5,8.8-24.2c4.6-21.3,9.8-27,10.2-36.8c0.4-7.7-5.6-20.7-4.2-32c0.6-4.6,3.8-14,4.8-21.3
		c2.1-11.3-1.5-21.7-10.9-23.2c-7.3-0.8-14.4,1-22.8,9.4c-10.5,9.8-19.6,24.9-23.8,35.7c-4.2,10.2-1,20.1-1,20.1s-3.1,2.5-5.2,9.8
		c-1,2.9-2.1,8.8-3.1,11.3c-2.5,7.3-4.6,12.5-5.6,16.1c-1,3.1,0,5.2,0,5.2l-5.2,3.6c0,0-2.1-2.5-5.2-3.6c-3.1-1-5.6-1-5.6-1
		s0.4-3.8-1-7.3c-2.1-5-5.9-13-7.3-24.2c-1.5-8.4-2.1-18.8-2.5-29.1c-0.6-12.3-1.7-26.8,0.4-39.7c3.1-17.6,8.4-31.6,15-48.1
		c5-12.3,10.9-28.4,14.4-40.3c7.3-23.8,13.4-45.6,11.9-60c-1-9.4-7.3-15.7-13-17.1c-21.1-6.3-28.4,19.6-40.3,42.4
		c-6.3,12.5-15.5,24.9-20.7,34.7c-5.6,11.3-7.7,17.6-7.7,17.6s-12.5-14.4-22.8-21.7c-5.2-3.6-10.5-9.2-14-11.3
		c-5.2-2.7-19.2-2.7-25.9,4.6c-12.5,14-18.2,41.4-18.2,41.4s-10.9-1.7-18.6,7.7c-7.7,9.4-9.8,14.4-17.1,33.6c0,0-11.5-6.7-21.7,3.6
		c-8.4,8.8-13.4,24.7-19.6,42.8c-4.6,12.3-12.3,18-12.3,37.2c0,21.7-2.5,47-3.6,71.9c-0.6,16.1,0.4,32.2-2.1,45.6
		c-0.5,2.4-1.7,5.9-3.3,10.3H-769.4z"/>
	<g id="Color_37_">
		<path opacity="0.2" enable-background="new    " d="M-842.7,3384.1h32.6l18.2,189.8l34.1-189.8h29.5l-57.5-66.7L-842.7,3384.1z
			 M-811.2,3373.8c0-14.4,11.9-25.9,25.9-25.9c14.4,0,25.9,11.3,25.9,25.9c0,14.4-11.3,25.9-25.9,25.9
			C-799.2,3400.2-811.2,3388.2-811.2,3373.8z"/>
		<path fill="#FFFFFF" d="M-782.8,3717.4c19.5-16.1,36.3-29.5,41.7-40.8c1.5-3.1,3.6-15,6.7-28c2.1-8.8,7.3-16.5,8.8-24.2
			c4.6-21.3,9.8-27,10.2-36.8c0.4-7.7-5.6-20.7-4.2-32c0.4-4.6,3.6-13.8,4.6-21.3c2.1-11.3-1.5-21.7-10.9-23.2
			c-7.3-0.8-14.4,1-22.8,9.4c-10.5,9.8-19.6,24.9-23.8,35.7c-4.2,10.2-1,20.1-1,20.1s-3.1,2.5-5.2,9.8c-1,2.9-2.1,8.8-3.1,11.3
			c-2.5,7.3-4.6,12.5-5.6,16.1c-1,3.1,0,5.2,0,5.2l-5.2,3.6c0,0-2.1-2.5-5.2-3.6s-5.6-1-5.6-1s0.4-3.8-1-7.3c-2.1-5-5.9-13-7.3-24.2
			c-1.5-8.4-2.1-18.8-2.5-29.1c-0.6-12.3-1.7-26.8,0.4-39.7c3.1-17.6,8.4-31.6,15-48.1c5-12.3,10.9-28.4,14.4-40.3
			c7.3-23.8,13.4-45.6,11.9-60c-1-9.4-7.3-15.7-13-17.1c-21.1-6.3-28.4,19.6-40.3,42.4c-6.3,12.5-15.5,24.9-20.7,34.7
			c-5.6,11.3-7.7,17.6-7.7,17.6s-12.5-14.4-22.8-21.7c-5.2-3.6-10.5-9.2-14-11.3c-5.2-2.7-19.2-2.7-25.9,4.6
			c-12.5,14-18.2,41.4-18.2,41.4s-10.9-1.7-18.6,7.7s-9.8,14.4-17.1,33.6c0,0-11.3-6.7-21.7,3.8c-8.4,8.8-13.4,24.7-19.6,42.8
			c-4.6,12.3-12.3,18-12.3,37.2c0,21.7-2.5,47-3.6,71.9c-0.6,16.1,0.4,32.2-2.1,45.6c-0.5,2.8-2.3,8.6-4.5,15.3H-782.8z"/>
		<path fill="#FFFFFF" d="M-847.3,3379.5h32.6l18.2,189.8l34.1-189.8h29.5l-57.5-66.7L-847.3,3379.5z M-815.8,3369
			c0-14.4,11.9-25.9,25.9-25.9c14.4,0,25.9,11.3,25.9,25.9c0,14.4-11.3,25.9-25.9,25.9C-804.5,3395.6-815.8,3383.6-815.8,3369z"/>
	</g>
	<g id="Shadows_37_">
		
			<linearGradient id="SVGID_1_" gradientUnits="userSpaceOnUse" x1="1209.5142" y1="1154.2844" x2="1205.2672" y2="1163.709" gradientTransform="matrix(-5.6421 0 0 5.6421 5939.7231 -3073.1216)">
			<stop  offset="0" style="stop-color:#1D1D1B;stop-opacity:0"/>
			<stop  offset="1" style="stop-color:#1D1D1B"/>
		</linearGradient>
		<path opacity="0.5" fill="url(#SVGID_1_)" enable-background="new    " d="M-877.4,3505.1c-0.4,1-6.7-1.5-7.3-8.8
			c-0.4-10.2,2.1-33,0.4-40.8c-2.1-11.3-6.7-24.9-3.6-27c2.5,7.3,11.3,9.8,15.5,9.8c9.8,0,17.6,7.7,17.6,7.7s-1.5,3.6-4.6,14
			C-861.9,3470.4-875.7,3500.9-877.4,3505.1z"/>
		
			<linearGradient id="SVGID_2_" gradientUnits="userSpaceOnUse" x1="1221.547" y1="1162.9633" x2="1218.2212" y2="1164.2786" gradientTransform="matrix(-5.6421 0 0 5.6421 5939.7231 -3073.1216)">
			<stop  offset="0" style="stop-color:#1D1D1B;stop-opacity:0"/>
			<stop  offset="1" style="stop-color:#1D1D1B"/>
		</linearGradient>
		<path opacity="0.5" fill="url(#SVGID_2_)" enable-background="new    " d="M-948.7,3526.2c0,0,4.2-5.2,6.7-18.2s6.7-49.1,6.7-49.1
			s-3.6,4.6-6.3,15c-2.1,8.4,0,6.7-2.5,32.6C-944.5,3511.3-948.3,3519.5-948.7,3526.2z"/>
		
			<linearGradient id="SVGID_3_" gradientUnits="userSpaceOnUse" x1="1227.0702" y1="1167.9128" x2="1225.8148" y2="1168.4092" gradientTransform="matrix(-5.6421 0 0 5.6421 5939.7231 -3073.1216)">
			<stop  offset="0" style="stop-color:#1D1D1B;stop-opacity:0"/>
			<stop  offset="1" style="stop-color:#1D1D1B"/>
		</linearGradient>
		<path opacity="0.5" fill="url(#SVGID_3_)" enable-background="new    " d="M-985.5,3533.1c0,0,3.6-2.1,5.6-8.4
			c2.5-5.6,5.6-22.2,5.6-22.2s-3.1,2.1-5.2,6.7c-2.1,3.6,0,3.1-2.5,15C-981.3,3525.8-984.8,3529.9-985.5,3533.1z"/>
		
			<linearGradient id="SVGID_4_" gradientUnits="userSpaceOnUse" x1="1194.0487" y1="1157.4139" x2="1189.8262" y2="1158.6647" gradientTransform="matrix(-5.6421 0 0 5.6421 5939.7231 -3073.1216)">
			<stop  offset="0" style="stop-color:#1D1D1B"/>
			<stop  offset="1" style="stop-color:#1D1D1B;stop-opacity:0"/>
		</linearGradient>
		<path opacity="0.5" fill="url(#SVGID_4_)" enable-background="new    " d="M-774.6,3389.7c0,0-9.4,40.8-12.3,50.6
			c-3.1,9.8-18.2,44.9-18.2,44.9l4.6,48.7c0,0,16.5-75,20.7-98.2c3.6-20.1,8.4-48.7,8.4-48.7L-774.6,3389.7z"/>
	</g>
</g>
<g>
	<g opacity="0.9">
		<path fill="#FFFFFF" d="M-1014.9,3438.6c0,2.2-1.8,4-4.1,4l-399.6,2.4c-2.3,0-4.1-1.8-4.2-4l-0.9-109.7c0-2.2,1.8-4,4.1-4
			l399.6-2.4c2.3,0,4.1,1.8,4.2,4L-1014.9,3438.6z"/>
	</g>
	<g>
		<path fill="#FFFFFF" d="M-1418.8,3446.6c-3.1-0.1-5.6-2.5-5.6-5.6l-0.9-109.7c0-3.1,2.5-5.6,5.7-5.7l399.6-2.4l0.2,0
			c3.1,0.1,5.6,2.5,5.6,5.6l0.9,109.7c0,1.5-0.6,2.9-1.7,4c-1.1,1.1-2.5,1.7-4.1,1.7l-399.6,2.4L-1418.8,3446.6z M-1019.8,3326.5
			L-1019.8,3326.5l-399.7,2.4c-1.4,0-2.5,1.1-2.5,2.4l0.9,109.7c0,1.3,1.1,2.4,2.4,2.4l0.1,0l399.6-2.4c0.7,0,1.3-0.3,1.7-0.7
			c0.5-0.5,0.7-1.1,0.7-1.7l-0.9-109.7C-1017.4,3327.6-1018.5,3326.6-1019.8,3326.5z"/>
	</g>
</g>
<path opacity="0.2" d="M-1010.2,3337.1c0-2.4-1.7-4.5-3.9-5.3l0.8,106.7c0,1.5-0.6,2.9-1.7,4c-1.1,1.1-2.5,1.7-4.1,1.7l-398.1,2.4
	c0.3,2.8,2.8,5,5.8,5l396.3-2.4c3.2,0,5.7-2.6,5.7-5.7L-1010.2,3337.1z"/>
</svg>
