<?xml version="1.0" encoding="utf-8"?>
<!-- Generator: Adobe Illustrator 18.1.0, SVG Export Plug-In . SVG Version: 6.00 Build 0)  -->
<svg version="1.1" id="Layer_1" xmlns="http://www.w3.org/2000/svg" xmlns:xlink="http://www.w3.org/1999/xlink" x="0px" y="0px"
	 viewBox="0 18.2 1920 1044.7" enable-background="new 0 18.2 1920 1044.7" xml:space="preserve">
<g opacity="0.1">
	<path d="M192.8,819.9l-3.5-5.8l5.8-8.2l16.4-39.7l-3.5-2.3l3.5-7l-10.5-5.8v-4.7l5.8-15.2l7,2.3l-3.5,5.8l-4.7,2.3l5.8,9.3l5.8-1.2
		l11.7-9.3l-3.5-10.5l9.3-5.8l3.5,1.2l1.2-14h9.3v-3.5l-3.5-2.3l8.2-17.5l-4.7-4.7l-1.2-4.7l4.7-1.2l7,3.5l4.7-2.3l-3.5-4.7
		l-8.2,1.2l0-3.5l2.3-3.5l12.9-4.7l5.8,24.5l-9.3,5.8l2.3,3.5h7l9.3-21l-1.2-10.5l7-4.7l7-2.3l4.7,1.2l5.8-9.3l3.5,3.5l-1.2,4.7
		l5.8-2.3l7-5.8h9.3l3.5-3.5l1.2-4.7l3.5,2.3l3.5,4.7h4.7l3.5-4.7l-1.2-5.8l17.5-4.7h7l4.7,2.3l9.3-5.8l5.8,1.2l4.7-7l3.5-3.5
		l5.8-2.3l2.3,5.8l9.3-11.7h5.8l3.5,2.3l2.3-3.5l3.5-1.2l3.5,3.5l5.8-7h3.5l5.8,11.7h12.9l5.8,21l-1.2,4.7l2.3,4.7l7,4.7l-2.3,4.7
		l1.2,2.3l10.5,10.5l1.2,5.8l-3.5,1.2l-1.2,3.5l7,5.8l3.5,9.3l-1.2,10.5l3.5,4.7l7,4.7l-3.5,18.7l-8.2,10.5l-10.5,4.7l-9.3-2.3
		l-15.2,8.2l-8.2-1.2l-4.7,9.3l-19.9,3.5l-9.3-2.3l-3.5-3.5l-3.5,3.5l1.2,5.8l-4.7,3.5l-8.2,1.2l-4.7-1.2l-4.7,2.3l-2.3,4.7h-3.5
		l2.3-3.5v-5.8l2.3-1.2l3.5,2.3l1.2-10.5l-10.5,8.2l-3.5,4.7l-2.3,9.3l-9.3-2.3l-7,4.7l-3.5-5.8l3.5-2.3h4.7v-4.7l-7-4.7l-1.2,3.5
		l-8.2,9.3l1.2,4.7l-2.3,3.5l-7,4.7h-8.2l-7,5.8l-16.4,4.7l-9.3,1.2l2.3-15.2l5.8-1.2l5.8-10.5l-8.2-4.7l-5.8,7l-5.8,17.5l-5.8,11.7
		l-7,4.7l-5.8,1.2l-5.8,23.4l3.5,3.5l5.8-1.2l3.5,12.9h-3.5l3.5,2.3l-2.3,1.2l10.5,10.5l-4.7,8.2l-2.3,9.3l3.5-1.2l3.5-3.5l3.5,4.7
		l-2.3,9.3l-3.5,3.5l2.3,3.5l9.3,2.3l1.2,4.7l-2.3,7h-4.7l-2.3-3.5l-2.3,4.7l9.3,4.7l5.8,7l8.2,26.9l4.7,9.3l-7,11.7h3.5l4.7-5.8
		l3.5,9.3l8.2,10.5l-2.3,3.5l-7,4.7l3.5,2.3l5.8-1.2v7l-8.2,10.5l-1.2,4.7l-28,7l-21,10.5l-4.7-5.8l-3.5,8.2l-29.2,7l-8.2,3.5
		l-2.3,2.3l-4.7-1.2l-24.5,5.8l-7-4.7l-9.3-3.5l1.2-8.2l-4.7-7l-3.5-9.3l-5.8-19.9l-5.8-9.3l1.2-8.2l-4.7-7l-5.8-25.7l-7-8.2
		l-4.7-28l-11.7-23.4l1.2-10.5l-5.8-8.2v-3.5l3.5-2.3l-3.5-2.3l-7-14v-9.3l2.3-3.5l-2.3-4.7l-8.2-3.5v-15.2l-1.2-4.7l-4.7-5.8
		l-2.3-24.5l-2.3-4.7l4.7-1.2l1.2-3.5l-2.3-3.5L90,779l-1.2-3.5l1.2-8.2l-2.3-5.8l3.5-11.7l-1.2-4.7l-10.5-1.2l-1.2-9.3l3.5-16.4
		l-3.5-3.5l-8.2,1.2L64.3,703l1.2-14l-3.5-1.2l-2.3-3.5l-4.7-15.2h3.5l2.3-2.3l-11.7-15.2l-5.8-12.9l2.3-7l-8.2-16.4l-7-17.5
		l-7-35.1l-10.5-16.4l-4.7-18.7v-9.3L4.7,516v-10.5L0,482.2l14-14l12.9-4.7l8.2,1.2l32.7-14l14,1.2l4.7-1.2v3.5l-7,4.7L83,460l7-5.8
		l-2.3-4.7v-4.7l4.7,1.2l1.2,3.5l3.5,1.2v-9.3h4.7l18.7-7l3.5,2.3l4.7,5.8l1.2-8.2l3.5-3.5l5.8-1.2v9.3l-2.3,3.5l-4.7,2.3l-3.5,11.7
		l-14,17.5l2.3,2.3l9.3-3.5l4.7-3.5l2.3-4.7l-1.2-3.5l5.8-8.2l8.2-16.4l8.2-11.7l8.2,4.7h5.8l-3.5,8.2l1.2,5.8l7-8.2l7-11.7
		l-4.7-2.3v-4.7h4.7l1.2,5.8l11.7-7h3.5l4.7,2.3l1.2-3.5l-1.2-3.5l42.1-14l8.2,3.5l4.7-9.3h9.3l10.5-2.3l22.2-10.5h4.7l2.3,2.3
		l7-5.8l35.1-10.5v3.5l3.5,3.5l1.2-8.2l10.5-4.7l12.9-2.3l8.2,2.3l3.5,2.3l3.5-2.3l1.2-9.3l17.5-5.8l9.3-1.2l2.3,2.3l-1.2,5.8
		l3.5,3.5l8.2,5.8l1.2,3.5l9.3-4.7l1.2,5.8l-2.3,2.3l-7,1.2v4.7l3.5,2.3l5.8-1.2h4.7l1.2,5.8l-8.2,5.8l3.5,3.5l4.7,12.9l-2.3,3.5
		l-4.7,2.3l3.5,5.8l9.3-4.7l1.2,9.3l7,15.2l7,18.7l-8.2,14v4.7l2.3,4.7l-4.7,7l-5.8,2.3v4.7l-5.8,7l-8.2,4.7h-4.7l-1.2-9.3l3.5-11.7
		l-3.5-3.5l-3.5,1.2L417.2,502l-5.8,5.8l-9.3,3.5h-4.7v-4.7l5.8-11.7l-3.5-2.3H395l-7,8.2l-7,18.7l-12.9,3.5l-5.8-12.9l-4.7,2.3
		l-1.2,3.5l1.2,9.3l-16.4,7l-2.3-4.7l1.2-3.5l3.5-3.5l-1.2-5.8l2.3-15.2l-1.2-5.8l-7,5.8v19.9l-1.2,3.5l-10.5,3.5l2.3,3.5h3.5
		l-2.3,3.5l-1.2,3.5l-22.2,3.5l-1.2-2.3l1.2-3.5l-3.5,1.2l-15.2,16.4l-9.3-1.2l-17.5,3.5l-39.7,17.5l-14,2.3l-2.3,8.2l-1.2,29.2
		l4.7,2.3l2.3,9.3l4.7,2.3l-3.5,2.3l-4.7,1.2l7,4.7l-1.2,4.7l1.2,8.2l4.7,8.2l-3.5,3.5l-4.7,1.2v4.7l2.3,4.7v4.7l4.7-7h4.7l5.8,7
		l3.5,1.2l7-4.7l4.7,1.2v9.3l7,4.7l-4.7,7l-1.2,4.7l-10.5-2.3l-2.3,5.8l3.5,1.2l4.7-1.2l-2.3,5.8l-3.5,3.5l-7-3.5l-1.2,15.2
		l-2.3,3.5l-4.7,2.3l-1.2-4.7l-3.5-1.2h-3.5l7-12.9V703l8.2,1.2l-2.3-9.3l2.3-4.7l-7-2.3l-3.5-9.3l-2.3-1.2l-4.7,1.2l7,9.3l1.2,4.7
		l-11.7,8.2L201,682l-2.3-3.5l-4.7-1.2l-7,2.3l2.3,4.7L187,696l3.5,3.5l-2.3,2.3l-14-3.5l-3.5,3.5l-3.5-2.3l5.8-8.2h9.3l1.2-17.5
		l2.3-4.7l4.7-3.5l-3.5-3.5v-3.5l-8.2-3.5l-10.5,7l2.3,8.2l-4.7,1.2l-3.5-1.2l-1.2-4.7l2.3-8.2l-1.2-5.8l-4.7,1.2l-3.5,4.7
		l-3.5,10.5l21,9.3l-7,8.2l-9.3,15.2l-2.3-3.5l1.2-8.2l0-5.8l-3.5,3.5l-5.8-2.3l-5.8,8.2l-1.2,4.7l-3.5-1.2l-4.7,1.2l-1.2,4.7
		l2.3,4.7l-14,17.5l-1.2,8.2l1.2,4.7l3.5-3.5l10.5-4.7l-1.2-9.3h5.8l3.5,2.3l5.8-3.5V703l5.8-3.5l2.3,9.3l-4.7,9.3l-12.9,15.2
		l9.3,8.2l-3.5,2.3l-4.7-2.3l-12.9,16.4l4.7,1.2l3.5-1.2l3.5,1.2l2.3-3.5l-1.2-4.7l8.2-4.7l10.5-21l4.7-2.3l0-4.7l4.7-12.9l3.5,1.2
		l2.3,3.5l9.3-5.8v4.7l-4.7,8.2l-7,7l-4.7,8.2l3.5,3.5l-4.7,8.2l-1.2,4.7l-11.7,5.8v4.7l2.3,2.3l-3.5,4.7l-1.2,5.8l-3.5,2.3l3.5,2.3
		v3.5l-4.7,7l1.2,5.8l-7,5.8l-2.3,15.2l10.5-10.5l9.3-3.5v4.7l-3.5,7l2.3,4.7l-3.5,3.5l-5.8,8.2l-4.7,14l3.5,4.7l10.5-8.2v-8.2l7-7
		l1.2-4.7l-1.2-4.7l-3.5-3.5l5.8,1.2l4.7-2.3l7-7l3.5-1.2l-1.2,14l5.8,11.7l-4.7,1.2l-3.5-1.2l-10.5,12.9l-1.2,9.3l-3.5,3.5
		l-11.7,28l3.5-1.2l15.2-18.7l-2.3-7l3.5-2.3l1.2-8.2l10.5-8.2l1.2-8.2l4.7-2.3l2.3-4.7L192.8,819.9z M52.6,648.1l1.2,4.7l3.5,1.2
		l2.3-8.2l-1.2-2.3l-2.3,2.3L52.6,648.1z M126.2,861.9l-1.2-3.5l-3.5,2.3L126.2,861.9z M107.5,811.7l5.8-9.3l3.5-2.3l-4.7-9.3
		l-3.5,3.5l-3.5,8.2v4.7L107.5,811.7z M26.9,555.8l4.7-2.3l-1.2-5.8h-3.5l-2.3,3.5L26.9,555.8z M141.4,906.4l-1.2-7l-5.8-1.2
		l3.5,4.7L141.4,906.4z M122.7,833.9h-7l3.5,3.5L122.7,833.9z M91.2,741.6l8.2-3.5l2.3-3.5l-4.7-1.2l-3.5-3.5h-4.7l-1.2,4.7l1.2,3.5
		L91.2,741.6z M51.4,610.7l9.3-11.7l5.8-1.2l1.2-3.5l-4.7-1.2l-7,3.5l-3.5,8.2L51.4,610.7z M109.8,755.6h-8.2l2.3,5.8v4.7l4.7-1.2
		l2.3-2.3l2.3-9.3l3.5-3.5l5.8-1.2l-3.5-3.5l-4.7-2.3l-2.3,3.5v4.7L109.8,755.6z M97,663.3l-1.2,9.3l-14,22.2l2.3,2.3l9.3-4.7
		l4.7-5.8l4.7-1.2l-3.5-4.7l1.2-9.3l5.8-7l8.2-3.5v-4.7l-7-5.8l-5.8,1.2l1.2,4.7l-2.3,3.5L97,663.3z M134.4,854.9l3.5-3.5h-7
		L134.4,854.9z M119.2,773.1l3.5,7l-9.3,9.3l8.2,3.5l5.8-7l-1.2-5.8l1.2-4.7l4.7-7l1.2-4.7l-8.2-1.2l-5.8,4.7V773.1z M95.8,721.7
		l2.3,3.5h4.7l2.3-3.5l-2.3-3.5l-3.5-1.2L95.8,721.7z M76,655.1l3.5,5.8l3.5-3.5l1.2-4.7l-4.7,1.2L76,655.1z M128.5,821l4.7-3.5
		v-4.7l-4.7,2.3V821z M70.1,629.4l4.7-2.3l1.2-3.5l-1.2-4.7l-3.5,2.3l-1.2,3.5V629.4z M161.3,905.2l3.5-2.3l1.2-8.2l-3.5,2.3
		L161.3,905.2z M66.6,587.3l7-5.8l-1.2-12.9l-8.2,2.3l-2.3,3.5v9.3L66.6,587.3z M109.8,710l-3.5-4.7l-5.8,1.2l1.2,5.8l3.5,1.2
		L109.8,710z M56.1,555.8l3.5-5.8v-3.5l-4.7,2.3l-2.3,4.7L56.1,555.8z M86.5,652.8l5.8-1.2l3.5-7l2.3-12.9l-9.3,2.3l-3.5,8.2v4.7
		L86.5,652.8z M79.5,614.2l3.5-2.3l-1.2-4.7l-4.7,2.3L79.5,614.2z M126.2,669.1l-7,2.3v4.7l-4.7,7l-3.5,2.3l-3.5,8.2l1.2,5.8h4.7
		l5.8-11.7l4.7-2.3l-1.2-4.7l1.2-2.3l7-5.8l4.7-17.5l-4.7-1.2l-3.5-3.5l1.2,5.8l-5.8,5.8l-1.2,2.3L126.2,669.1z M56.1,519.5
		l1.2-12.9h-4.7v4.7l1.2,5.8L56.1,519.5z M174.1,881.8l5.8-8.2v-3.5l-5.8,1.2l-2.3,4.7v4.7L174.1,881.8z M129.7,497.3l-2.3,4.7
		l-3.5,15.2l-7,8.2l-3.5,14l-2.3,3.5l-4.7,1.2l-2.3,10.5l-7,5.8l-9.3,19.9l3.5,7l-5.8,1.2l-3.5,4.7l1.2,8.2l4.7-3.5l11.7-21l3.5-3.5
		l-3.5-11.7l9.3-4.7l5.8-7l3.5-21l5.8-2.3l2.3-3.5l2.3-8.2l3.5-3.5v-3.5l1.2-3.5l3.5-2.3l1.2-3.5l-3.5-2.3L129.7,497.3z M72.5,567.5
		l4.7-7l4.7,1.2l3.5-8.2l-8.2,2.3l-4.7,7V567.5z M191.6,943.7l8.2-9.3l-2.3-4.7l-3.5-1.2l-2.3,4.7l-1.2,7L191.6,943.7z M97,629.4
		l4.7-2.3l4.7-8.2l-7-8.2l-4.7,2.3l-2.3,3.5l1.2,8.2L97,629.4z M184.6,904l3.5,1.2l5.8-1.2l-3.5-3.5H187L184.6,904z M213.9,997.5
		l4.7-1.2l4.7-7l1.2-10.5l-3.5,1.2v4.7l-5.8,8.2L213.9,997.5z M205.7,967.1l3.5-1.2v-5.8l-3.5,2.3V967.1z M157.8,791.8l4.7,5.8
		l-4.7,4.7l-3.5-2.3l1.2-4.7L157.8,791.8z M114.5,632.9l-4.7,2.3l-4.7,9.3l4.7,3.5l7-4.7l4.7-9.3l-1.2-8.2l-3.5-2.3l0,4.7
		L114.5,632.9z M177.6,753.3l1.2,4.7l-3.5,9.3l-9.3,15.2l-1.2,4.7l-12.9,2.3l1.2-4.7l2.3-4.7l1.2-4.7l3.5,2.3l2.3,4.7l2.3-4.7
		l-2.3-10.5l-3.5-3.5l5.8-5.8l8.2-3.5L177.6,753.3z M183.5,871.3l4.7-7l2.3-7l1.2-9.3l-9.3,5.8l-2.3,8.2l1.2,5.8L183.5,871.3z
		 M67.8,491.5l-1.2-5.8h-3.5v4.7L67.8,491.5z M202.2,878.3l-4.7,1.2L194,883l-2.3,10.5l7-5.8l5.8-1.2v-4.7l2.3-7l-1.2-4.7l-3.5-3.5
		l-4.7-1.2l3.5,8.2L202.2,878.3z M116.9,578v4.7l-4.7,8.2l-11.7,10.5l1.2,4.7l3.5,2.3H118l1.2-9.3l4.7-16.4l-1.2-4.7L116.9,578z
		 M213.9,955.4l2.3-3.5l-3.5-3.5L213.9,955.4z M85.3,549.9l3.5-2.3l1.2-3.5l-7-1.2L85.3,549.9z M151.9,745.1l3.5,3.5l3.5-2.3v-4.7
		l-3.5,1.2L151.9,745.1z M233.7,1002.2l1.2,4.7l4.7-1.2l2.3-4.7l-4.7-1.2L233.7,1002.2z M101.7,503.2l1.2,11.7l-9.3,8.2l-1.2,4.7
		l-4.7,7l2.3,4.7l7-4.7l11.7-16.4l-1.2-5.8l2.3-10.5l10.5-21l-8.2,4.7l-7,15.2L101.7,503.2z M210.3,913.4h3.5l2.3-2.3l-1.2-4.7h-7
		v3.5L210.3,913.4z M229,974.1l3.5-1.2l3.5-3.5l3.5-12.9h-5.8l1.2,4.7l-4.7,7L229,974.1z M128.5,648.1l5.8-2.3l-1.2-3.5l-3.5,2.3
		L128.5,648.1z M181.1,789.5l3.5,4.7l-1.2,4.7l-7-5.8L181.1,789.5z M141.4,672.6l3.5,5.8l4.7-3.5l-1.2-5.8l-3.5,2.3L141.4,672.6z
		 M169.4,761.4h4.7l-2.3-5.8l-2.3,2.3V761.4z M197.5,843.3v-4.7l-2.3-3.5v4.7L197.5,843.3z M243.1,994l4.7,1.2l4.7-1.2l2.3-4.7v-4.7
		h-4.7l-7,4.7V994z M227.9,766.1h3.5l-5.8,3.5l-9.3,2.3l4.7,10.5l-4.7,2.3l-4.7,7l-8.2,19.9l-3.5,3.5l-4.7,2.3l2.3,4.7l-2.3,11.7
		l9.3-4.7l7-9.3l-3.5,2.3h-3.5l-2.3-3.5l7-5.8l10.5-1.2l1.2-11.7h10.5l-1.2-4.7l-4.7-2.3l-2.3-4.7l4.7-3.5l9.3-11.7h4.7l-1.2-5.8
		l1.2-9.3l5.8-16.4l-4.7-8.2l-5.8,8.2l-7,22.2L227.9,766.1z M128.5,620l3.5-3.5l4.7-7l1.2-4.7l-9.3,2.3l-2.3,7L128.5,620z
		 M215,892.3l4.7,4.7l3.5-3.5l-1.2-5.8l-4.7,2.3L215,892.3z M173,562.8l-2.3,9.3l-9.3,16.4l-3.5,8.2l-1.2,9.3l1.2,5.8l-9.3,5.8
		l-4.7,7l-3.5,10.5v4.7l2.3,1.2l4.7-8.2l3.5-2.3h4.7l-2.3-3.5l1.2-4.7l8.2-4.7l4.7-23.4l3.5-2.3l1.2-3.5l4.7-1.2v-5.8l5.8-4.7
		l-1.2-9.3l-3.5-3.5L173,562.8z M231.4,919.2l1.2,3.5l1.2-3.5l-2.3-2.3V919.2z M196.3,753.3h3.5l3.5,8.2l-9.3,7l5.8,1.2l-3.5,8.2
		l-8.2,4.7l1.2-8.2l-4.7-2.3l9.3-15.2L196.3,753.3z M154.3,516l-7,3.5l1.2,4.7l-2.3,3.5l-4.7,1.2l-3.5,8.2L125,552.3l-4.7,12.9
		l3.5,10.5l3.5-3.5l-1.2-5.8l1.2-4.7l7-1.2l5.8-19.9l4.7-2.3l3.5-3.5l5.8-14l3.5-3.5l4.7-2.3l-3.5-15.2l-3.5-2.3l-1.2,12.9V516z
		 M174.1,734.6l5.8-2.3l3.5,12.9l-3.5,3.5l-2.3-3.5L174.1,734.6z M233.7,913.4l3.5-3.5l-1.2-4.7l-4.7,1.2l1.2,4.7L233.7,913.4z
		 M224.4,880.6l12.9-10.5v-4.7h-5.8l-4.7,2.3l-3.5,4.7l-1.2,4.7L224.4,880.6z M137.9,604.9l5.8-7l3.5-8.2v-14h-4.7v4.7l-5.8,11.7
		v8.2L137.9,604.9z M259.4,973l3.5-3.5l2.3-4.7l-11.7-2.3l3.5,7L259.4,973z M205.7,706.5l-8.2,14l-7,5.8l-5.8-8.2l-5.8,1.2l1.2-3.5
		l9.3-4.7l-1.2,7h2.3l3.5-2.3l-2.3-7l4.7-2.3h4.7H205.7z M220.9,843.3l2.3-10.5l3.5-2.3l5.8-1.2v-5.8l-4.7-1.2l-3.5,1.2l-4.7,7v9.3
		L220.9,843.3z M243.1,905.2l8.2-7l1.2-4.7h-3.5l-3.5,2.3l-1.2,4.7L243.1,905.2z M160.1,639.9l2.3,5.8l5.8,1.2l2.3-3.5l4.7-2.3
		l9.3,5.8h4.7l-4.7-8.2l-3.5-3.5l-2.3-4.7l-5.8,1.2l-8.2,4.7L160.1,639.9z M253.6,926.2h3.5l4.7-2.3l-1.2-10.5l-4.7,1.2l-2.3,4.7
		L253.6,926.2z M275.8,988.2v-4.7l-3.5-1.2v3.5L275.8,988.2z M232.6,850.3l4.7,9.3l7-2.3v-5.8l8.2-18.7l-7,2.3v4.7l-2.3,3.5
		l-4.7,3.5L232.6,850.3z M246.6,888.8l3.5-1.2V883l-4.7,1.2L246.6,888.8z M149.6,571l3.5-1.2l5.8-5.8l4.7-9.3l1.2-4.7l-8.2,4.7
		l-8.2,11.7L149.6,571z M243.1,770.8l3.5,3.5l2.3,9.3l-2.3-2.3h-3.5l-8.2,15.2l1.2,5.8l-7,5.8l-1.2,4.7l2.3,3.5h3.5l2.3-3.5l5.8-2.3
		l1.2-4.7l-1.2-9.3l2.3-3.5l5.8-1.2l7-4.7l3.5-8.2l1.2-9.3l-2.3-2.3h-9.3l-3.5,2.3L243.1,770.8z M261.8,907.5l4.7-3.5v-4.7h-5.8v5.8
		L261.8,907.5z M223.2,760.3l-2.3-3.5l-5.8,1.2l2.3,4.7h3.5L223.2,760.3z M284,971.8l3.5-1.2v-3.5l-3.5,2.3V971.8z M177.6,624.7
		l3.5,4.7l2.3-7H180L177.6,624.7z M141.4,488l8.2-2.3l2.3-4.7l-4.7-1.2l-4.7,2.3L141.4,488z M194,656.3l3.5-2.3l-1.2-2.3L194,656.3z
		 M201,677.3l1.2,3.5l2.3-2.3l-2.3-2.3L201,677.3z M187,627.1l1.2,4.7l2.3,2.3l9.3-2.3l-7-5.8h-4.7L187,627.1z M284,923.9l3.5-1.2
		l-2.3-2.3l-2.3,2.3L284,923.9z M181.1,502l-9.3,26.9v4.7l-4.7,2.3v5.8l7-2.3l-1.2-9.3l4.7-2.3l14-21v-3.5l-3.5-2.3L181.1,502z
		 M254.8,821h4.7l7-3.5l-4.7-14l-4.7,2.3l-1.2,10.5L254.8,821z M194,611.9l1.2-7l-5.8,1.2l1.2,4.7L194,611.9z M295.7,940.2l2.3,3.5
		l2.3-1.2l-1.2-4.7L295.7,940.2z M148.4,470.5l4.7,1.2l4.7-2.3l1.2-4.7l-7-1.2l-3.5,2.3V470.5z M210.3,652.8l2.3-2.3l-9.3-5.8
		l2.3,5.8L210.3,652.8z M168.3,468.1l1.2,4.7l-3.5,9.3l-4.7,7l1.2,8.2l4.7-1.2l5.8-8.2l5.8-19.9l7-7l-3.5-1.2l-7,4.7L168.3,468.1z
		 M205.7,503.2l3.5,5.8l-11.7,14l-16.4,25.7v4.7l4.7,3.5l4.7-3.5l4.7-8.2l2.3-9.3l2.3-4.7l8.2-7l4.7-8.2l12.9-31.6l-3.5-7l-3.5-1.2
		L208,499.7L205.7,503.2z M225.5,687.8l4.7-3.5l-3.5,1.2L225.5,687.8z M157.8,458.8l1.2,3.5l2.3-2.3l-2.3-2.3L157.8,458.8z
		 M280.5,766.1l4.7,7l-2.3,4.7l-10.5,2.3l-5.8,17.5l1.2,3.5l3.5,3.5l5.8-4.7l-4.7-8.2l8.2-4.7l3.5-3.5l2.3-7l1.2-15.2l-5.8,1.2
		L280.5,766.1z M257.1,760.3l3.5-2.3l-2.3-4.7l-3.5,3.5L257.1,760.3z M201,573.3l1.2-9.3h-3.5l-1.2,8.2L201,573.3z M165.9,455.3
		l-1.2-4.7l-5.8-1.2l2.3,4.7L165.9,455.3z M251.2,713.5l1.2,4.7l-4.7,8.2l2.3,5.8l4.7-1.2l11.7-16.4l4.7-3.5l-1.2-9.3l-3.5-2.3
		l-10.5,12.9L251.2,713.5z M268.8,760.3v-7h-4.7l1.2,5.8L268.8,760.3z M261.8,735.7l-1.2,8.2l8.2,1.2v7l7-5.8l3.5-8.2l1.2-8.2
		l-1.2-4.7l-4.7,1.2v4.7l-2.3,3.5l-4.7,1.2L261.8,735.7z M195.2,493.8l-3.5-3.5l-5.8,1.2l3.5,3.5L195.2,493.8z M205.7,552.3l4.7-1.2
		v-4.7l-4.7,2.3V552.3z M184.6,447.1h5.8l7-5.8l2.3-4.7l-1.2-4.7l-8.2,2.3l-4.7,7L184.6,447.1z M213.9,534.7l2.3,4.7l5.8,3.5
		l2.3-9.3l9.3-15.2l-3.5-3.5h-5.8l-1.2,4.7l-5.8,11.7L213.9,534.7z M202.2,482.2v-3.5l-3.5-2.3v4.7L202.2,482.2z M202.2,474l7-5.8
		l1.2-3.5V460l-5.8,1.2l-3.5,3.5v3.5L202.2,474z M289.8,748.6l7-2.3v4.7l2.3,3.5l5.8-5.8l1.2-8.2l-10.5-1.2l-4.7,2.3v3.5
		L289.8,748.6z M302.7,766.1l3.5,3.5l2.3-2.3l-3.5-3.5L302.7,766.1z M295.7,729.9l8.2,7l9.3-11.7l1.2-4.7l-3.5-1.2l-4.7-7l-3.5,11.7
		l-3.5,3.5L295.7,729.9z M320.2,798.8l3.5-3.5l4.7-8.2v-4.7L319,786l-2.3,3.5v3.5L320.2,798.8z M288.6,697.2l5.8,4.7l9.3-1.2
		l-3.5-5.8h-7L288.6,697.2z M232.6,511.4h4.7l4.7-3.5l-2.3-5.8l-3.5-1.2l-2.3,4.7L232.6,511.4z M217.4,452.9l4.7-7v-4.7l-2.3-3.5
		l-7,7l1.2,4.7L217.4,452.9z M317.9,740.4l1.2,4.7l-5.8,11.7l8.2,3.5l12.9-12.9l-5.8-8.2l-4.7-1.2L317.9,740.4z M224.4,464.6
		l5.8,17.5l4.7-8.2l-2.3-14l-3.5-2.3l-1.2,3.5L224.4,464.6z M246.6,528.9l3.5,3.5h4.7l1.2-8.2l-4.7,1.2L246.6,528.9z M310.8,713.5
		l9.3,2.3h5.8l-5.8-19.9l-4.7-1.2l-5.8,1.2l1.2,5.8l-1.2,7L310.8,713.5z M266.4,499.7l-4.7,3.5l-5.8,12.9h-5.8l3.5,5.8l7-5.8
		l4.7-2.3l2.3-8.2l8.2-10.5l-3.5-4.7v-10.5l-3.5,3.5l-3.5,7v4.7L266.4,499.7z M231.4,452.9l15.2-3.5l8.2-18.7l-3.5-2.3h-5.8l2.3,4.7
		l-2.3,7l-11.7,9.3L231.4,452.9z M243.1,489.2l3.5,3.5l7-5.8l-3.5-3.5l-2.3,3.5L243.1,489.2z M226.7,423.7l7-2.3V412l-1.2-4.7H229
		l-2.3,11.7V423.7z M326,731.1l3.5,2.3l5.8-1.2l2.3-7l3.5-3.5l5.8-1.2l-2.3-10.5l-4.7,5.8l-3.5-1.2v-1.2L333,717l-1.2,8.2l-2.3,4.7
		L326,731.1z M343.6,762.6l4.7-7v-4.7h-7l-1.2,3.5l1.2,4.7L343.6,762.6z M253.6,479.8l4.7-2.3v-4.7l-2.3-4.7l-4.7,2.3v4.7
		L253.6,479.8z M321.4,693.7l4.7-2.3l1.2-3.5v-3.5l-3.5-2.3l-3.5,7L321.4,693.7z M279.3,521.9h-4.7l2.3,2.3L279.3,521.9z
		 M344.7,741.6l1.2,4.7l10.5-3.5l-3.5-4.7l-4.7,1.2L344.7,741.6z M284,525.4h-7l3.5,2.3L284,525.4z M266.4,465.8l-1.2-7h-4.7
		l-1.2,4.7l2.3,3.5L266.4,465.8z M286.3,516l7-4.7v-3.5H284v4.7L286.3,516z M362.3,762.6l3.5-1.2l-1.2-2.3l-2.3,1.2V762.6z
		 M275.8,414.4l-1.2,10.5l-5.8,11.7l-5.8,4.7l4.7,14l3.5-3.5v-10.5l9.3-5.8l4.7-9.3l2.3-14l-4.7-1.2L275.8,414.4z M303.8,429.6
		l-5.8,1.2l-3.5,2.3l-4.7,8.2l-4.7,3.5l3.5,5.8l-4.7,2.3l-5.8,7l-2.3,12.9l5.8,1.2l8.2-15.2l2.3-12.9l9.3-1.2l2.3-2.3v-7l3.5-3.5
		l-1.2-5.8l-2.3-2.3V429.6z M358.8,728.7l7-5.8v-4.7h-4.7l-4.7,2.3l-1.2,3.5L358.8,728.7z M317.9,433.1l4.7,9.3l-4.7,2.3l-9.3,16.4
		l-9.3,5.8l-1.2,8.2l-5.8,11.7l-4.7,3.5l-1.2,4.7l2.3,4.7l2.3-3.5l8.2-2.3l14-30.4l7-5.8l2.3-15.2l8.2-17.5l1.2-4.7h-4.7l-1.2,4.7
		l-7,5.8L317.9,433.1z M303.8,532.4l7-4.7l2.3-9.3l3.5-3.5v-7l-9.3,5.8l-3.5,14V532.4z M361.1,669.1h3.5v-4.7l-2.3,2.3L361.1,669.1z
		 M374,705.4l3.5-1.2l-3.5-2.3l-2.3,2.3L374,705.4z M374,696l5.8-1.2l-2.3-4.7l-3.5,1.2V696z M316.7,504.4l7-1.2l-1.2-8.2l-2.3-3.5
		l9.3-3.5v-4.7l-8.2-3.5l-1.2,4.7l-4.7,14L316.7,504.4z M404.3,750.9l-2.3-3.5h-3.5l-4.7,1.2l2.3,3.5h3.5L404.3,750.9z M376.3,684.3
		l3.5-1.2v-3.5h-4.7L376.3,684.3z M368.1,652.8l9.3-9.3l-3.5-3.5l-3.5,1.2l-3.5,3.5l-1.2,4.7L368.1,652.8z M397.3,711.2l-3.5-3.5
		v3.5H397.3z M381,664.5l2.3,4.7h4.7l1.2-3.5l-1.2-5.8l-3.5,1.2L381,664.5z M324.9,479.8l8.2,3.5l7-16.4v-4.7l-1.2-7l-3.5,3.5
		l-7,17.5L324.9,479.8z M395,700.7l2.3,3.5l4.7-4.7l-3.5-1.2L395,700.7z M313.2,414.4l3.5-3.5l-1.2-4.7l-4.7-2.3l-1.2,4.7
		L313.2,414.4z M424.2,755.6l-1.2-4.7l5.8-10.5l-7,7l-1.2,4.7L424.2,755.6z M404.3,692.5l8.2-7l1.2-4.7l-4.7-2.3l-3.5,1.2l-2.3,4.7
		v4.7L404.3,692.5z M390.3,398l-3.5,4.7l-1.2,9.3l-7,15.2l-1.2,10.5l-5.8,1.2l-8.2,16.4l-11.7,16.4l-7,17.5l9.3-1.2l7-5.8l4.7-8.2
		l2.3-9.3v-9.3l4.7-2.3l7-10.5v-9.3l21-32.7l7-7l-2.3-11.7h-4.7l-3.5,15.2l-2.3,2.3L390.3,398z M349.4,454.1l-1.2-4.7l-2.3-2.3
		l-4.7,2.3l3.5,4.7H349.4z M385.6,465.8l-8.2,4.7l-2.3,9.3l-8.2,19.9h-4.7l1.2,4.7l4.7,1.2l1.2-4.7l9.3,1.2v-9.3l4.7-15.2l5.8-2.3
		l2.3-4.7L388,467l9.3-1.2l8.2-16.4l1.2-4.7l-3.5-1.2l-2.3,4.7l-11.7,9.3l-3.5,3.5V465.8z M348.2,437.7l1.2-2.3l-3.5-1.2
		L348.2,437.7z M341.2,400.4l3.5,3.5h4.7l2.3-4.7v-4.7l-1.2-4.7l-4.7,2.3l-3.5,3.5L341.2,400.4z M365.8,394.5l4.7,8.2l-8.2,11.7
		l-7,5.8l-2.3,8.2l1.2,4.7l8.2-2.3l3.5-8.2V412l3.5-3.5l4.7-7l4.7-11.7l-10.5,3.5L365.8,394.5z M435.9,627.1l2.3-11.7l-3.5,3.5
		l-2.3,5.8L435.9,627.1z M410.2,483.3l-3.5-5.8l-5.8,1.2l3.5,4.7H410.2z M400.8,428.4l-1.2,4.7l-5.8,8.2l1.2,3.5l3.5-2.3l2.3-8.2
		l1.2,5.8l5.8-1.2l2.3-4.7l2.3-8.2l3.5-3.5l-1.2-10.5l-4.7,2.3l-5.8,11.7L400.8,428.4z M490.8,725.2l-3.5-3.5v3.5H490.8z
		 M417.2,464.6l-3.5,1.2l-1.2,3.5l1.2,4.7l4.7-1.2l2.3-2.3l4.7-18.7l3.5-2.3l-1.2-5.8l2.3-3.5l-7-2.3l-2.3,4.7l-2.3,18.7
		L417.2,464.6z M439.4,476.3l2.3-1.2l-1.2-4.7l-3.5-1.2v3.5L439.4,476.3z M424.2,399.2l3.5-1.2l-1.2-3.5l-3.5-1.2L424.2,399.2z
		 M442.9,458.8l4.7-1.2l1.2-4.7l-4.7,2.3L442.9,458.8z M465.1,474h4.7l2.3,2.3l-4.7,9.3l-8.2,7V488l4.7-7L465.1,474z M447.6,447.1
		l9.3-1.2l3.5-2.3l-4.7-8.2l-3.5-1.2l-3.5,8.2L447.6,447.1z"/>
	<path d="M611.2,544.1l-7-21l7-5.8l5.8-7v-4.7l-10.5,2.3l-1.2-4.7l3.5-5.8l4.7-1.2l-2.3-2.3l-2.3-9.3l1.2-14l9.3-3.5l-4.7-1.2
		l-4.7-8.2v-4.7l3.5-3.5l-3.5-4.7l5.8-18.7v-5.8l-3.5,1.2l1.2-18.7l9.3-3.5l-7-2.3l-1.2-18.7l4.7-45.6l4.7-8.2l7-5.8l-1.2-4.7
		l-2.3-2.3l-5.8,7l-2.3-3.5l1.2-8.2l9.3-25.7l4.7-7l8.2-5.8l8.2-2.3l28-2.3l2.3-3.5v-4.7h4.7l17.5-7l10.5-1.2l4.7,1.2l7-5.8
		l12.9-4.7l7,3.5l2.3,4.7l2.3-4.7l4.7-2.3l3.5-4.7l11.7-1.2l8.2,3.5l3.5,4.7l-3.5,3.5h-4.7l-3.5,2.3l10.5-1.2l9.3-5.8v14l-9.3,19.9
		l7-1.2l5.8-12.9l3.5-2.3h4.7l3.5,2.3l14,19.9l4.7,2.3v9.3l14,10.5l12.9,12.9l5.8,14l14,9.3l2.3,7l9.3,5.8l0,4.7l5.8,11.7l1.2,4.7
		l-2.3,3.5l4.7,4.7l8.2-2.3l2.3,7l5.8-1.2v10.5l5.8-2.3l2.3,4.7l10.5,11.7l1.2,9.3l8.2-2.3v4.7l-2.3,4.7l3.5,2.3v3.5l-4.7,7l4.7,4.7
		l9.3-5.8l9.3,15.2l-9.3,3.5v4.7l3.5-1.2l8.2-8.2l3.5,1.2l7,10.5l-5.8,8.2l2.3,4.7v9.3l4.7-2.3l3.5-7l4.7-2.3l4.7,8.2v2.3l3.5,2.3
		l8.2,1.2l2.3,3.5l-3.5,8.2l14,5.8l7,5.8l3.5,9.3l8.2,4.7l8.2,12.9l-5.8,8.2l-4.7,12.9l4.7-1.2l8.2-8.2l1.2-4.7l7,4.7l3.5,3.5
		l2.3,14l4.7,1.2l5.8-3.5l5.8,7l-4.7,9.3l1.2,9.3l4.7-8.2l4.7-2.3l8.2,14l-2.3,2.3l-1.2,4.7h3.5l3.5-3.5l-1.2,9.3l14,3.5l-1.2,8.2
		l2.3,3.5l8.2-2.3l3.5,3.5l3.5,9.3l4.7,2.3l-2.3,8.2l8.2,3.5l3.5,3.5l2.3,5.8h-3.5l-2.3,4.7l3.5,2.3l9.3-2.3l5.8,7l1.2,12.9l5.8,7
		l5.8-4.7l5.8,7l3.5,19.9l9.3,5.8l-2.3,9.3h3.5l4.7-2.3l1.2-2.3l4.7,2.3l2.3,3.5l1.2,10.5l-4.7,2.3l-8.2,10.5l-5.8,2.3l-7-4.7
		l-5.8,1.2v3.5l3.5,4.7h-5.8l-21,9.3l-5.8-9.3l-4.7,2.3l-8.2,7h-4.7l-7-8.2l-7,5.8l-7,10.5l-4.7,1.2l-9.3,10.5l-2.3-3.5l1.2-4.7
		l-5.8,1.2l-14,10.5l-7,3.5l-4.7-1.2V786l7-3.5l-1.2-9.3l3.5-8.2l-1.2-5.8l-7,5.8l2.3,8.2l-7,5.8l-8.2,1.2l-5.8-5.8v-5.8h-10.5v-4.7
		l-2.3-3.5l-4.7-1.2l1.2-8.2l-7-2.3h-3.5l-4.7-10.5l-4.7-7l-8.2-3.5l-4.7,1.2l-1.2-4.7l5.8-14l-3.5-3.5l-4.7,1.2l-8.2,15.2v4.7
		l-16.4,2.3l2.3-9.3l15.2-26.9v-10.5l5.8-7l-3.5-1.2l-22.2,28l2.3,2.3l-10.5,14l-3.5,14l-10.5,4.7h-3.5l-3.5-2.3l-2.3-12.9l-3.5,3.5
		l-1.2,9.3l-10.5,12.9h-7l-9.3,2.3l1.2-4.7l-1.2-5.8l-5.8,1.2l2.3,8.2l-9.3,3.5l-18.7,8.2l-9.3,1.2l-4.7-1.2l-5.8,5.8l-9.3,1.2
		l-4.7-1.2l-3.5,2.3l-23.4,8.2l-3.5,3.5l-8.2-5.8l-2.3,10.5l-9.3,3.5l-7-2.3l-14,19.9l-3.5,8.2v4.7l3.5,9.3l-1.2,5.8l-4.7,15.2
		l1.2,9.3l4.7,10.5l-4.7,2.3l-3.5,11.7l-5.8,1.2l-3.5-1.2l-10.5,14L707,897l-8.2,4.7l-36.2,10.5l-8.2,7l-18.7,2.3L610,934.4
		l-8.2-2.3l-7-5.8l-5.8,5.8l-4.7,2.3l-3.5-2.3l-7-11.7l1.2-3.5l4.7-1.2l1.2-10.5l2.3-4.7l-8.2-10.5v-3.5l11.7-5.8l2.3-3.5l-1.2-4.7
		h-3.5l-3.5,3.5h-3.5l10.5-15.2v-4.7l-5.8-3.5l-2.3-21l2.3-18.7l3.5-14l-1.2-18.7l1.2-10.5l5.8-12.9l-2.3-4.7l2.3-9.3l-3.5-3.5
		l1.2-4.7l3.5-3.5l-3.5-7l3.5-8.2l1.2-22.2l5.8-1.2l9.3-10.5l-1.2-5.8v-9.3l4.7,1.2l4.7-2.3l-3.5-3.5l-11.7,2.3l-5.8-3.5l2.3-22.2
		l2.3-3.5l3.5-3.5l-3.5-4.7l-1.2-9.3l2.3-9.3V599l-2.3-4.7l4.7-17.5l5.8-8.2l-7-7v-4.7l4.7-7l-3.5-3.5v-9.3l3.5,2.3L611.2,544.1z
		 M597.2,774.3l5.8,1.2l2.3-4.7l-5.8-1.2L597.2,774.3z M632.2,861.9l4.7-1.2l-2.3-3.5L632.2,861.9z M625.2,830.4l3.5-3.5l3.5-8.2
		l-4.7,1.2l-2.3,4.7V830.4z M600.7,732.2l7-4.7l-1.2-2.3l-3.5,3.5L600.7,732.2z M642.7,789.5l-10.5,15.2l-1.2,12.9l8.2-7l10.5-21
		l-9.3-9.3h-4.7l3.5,4.7L642.7,789.5z M642.7,850.3l11.7-22.2l3.5-2.3l-1.2-2.3l-7,4.7l-7,14v4.7L642.7,850.3z M599.5,679.6v4.7
		l-3.5,2.3l-2.3-3.5L599.5,679.6z M655.6,877.1l2.3-3.5V869l-3.5,0v3.5L655.6,877.1z M596,668l3.5,2.3v4.7l-3.5,2.3l-1.2-5.8
		L596,668z M607.7,710l2.3,4.7h3.5l2.3-2.3l-2.3-5.8l-3.5,2.3L607.7,710z M622.9,739.2l3.5-2.3v-4.7l-5.8,1.2L622.9,739.2z
		 M635.7,766.1l2.3-1.2l-1.2-3.5l-2.3,1.2L635.7,766.1z M668.4,851.4h3.5l5.8-7v-10.5l-8.2,1.2l1.2,4.7L668.4,851.4z M650.9,779
		l4.7,2.3l4.7-3.5l-3.5-3.5l-4.7,1.2L650.9,779z M621.7,684.3l4.7-1.2l3.5-3.5V675l-3.5-2.3l-4.7,7V684.3z M613.5,655.1l3.5,2.3
		l2.3-4.7h-4.7L613.5,655.1z M698.8,677.3l1.2,10.5l-5.8,2.3l-4.7,11.7l-3.5,3.5l-4.7,2.3l-1.2,10.5l-3.5,3.5l-5.8,1.2l-4.7-1.2
		l-7-8.2l5.8-4.7l5.8-1.2l-3.5-3.5h-3.5l-3.5,2.3l-5.8,14l-3.5-2.3l-4.7,1.2l2.3,5.8l-1.2,3.5l-5.8,7l-1.2,3.5l4.7,3.5l4.7-2.3
		l5.8-8.2h4.7l5.8-4.7l10.5,2.3l4.7-2.3l4.7-5.8l4.7-2.3l-1.2-8.2l4.7-1.2l2.3-4.7l-1.2-5.8l5.8-1.2l1.2-4.7l9.3-16.4v-4.7l-7,3.5
		L698.8,677.3z M673.1,796.5l-5.8,1.2l-4.7-1.2l2.3,4.7l3.5,2.3l3.5-3.5l15.2-21l-4.7-2.3l-3.5,1.2l-3.5,3.5l-2.3,10.5L673.1,796.5z
		 M635.7,708.9l2.3,1.2l2.3-1.2l-1.2-4.7l-4.7-2.3v3.5L635.7,708.9z M607.7,610.7h3.5l3.5-2.3l1.2-3.5l-1.2-2.3l-4.7,2.3l-2.3,1.2
		V610.7z M668.4,735.7v5.8l-9.3,1.2l1.2,4.7l-1.2,8.2l-1.2,9.3h4.7l8.2,4.7l3.5-3.5l-4.7-7v-2.3l9.3,2.3l3.5-3.5h-4.7l-3.5-3.5
		l-2.3-4.7l7-4.7l2.3-3.5l-3.5-4.7l-4.7-2.3L668.4,735.7z M633.4,666.8l8.2-7l8.2-12.9l-8.2,3.5l-5.8,11.7L633.4,666.8z
		 M642.7,697.2l8.2-8.2l2.3-4.7v-4.7l-2.3-2.3l-8.2,9.3v5.8V697.2z M626.4,635.2l4.7-3.5l-2.3-4.7l-2.3,4.7V635.2z M683.6,817.5
		l7-5.8v-9.3h-5.8l-1.2,9.3V817.5z M632.2,627.1l3.5-10.5l-5.8,7L632.2,627.1z M639.2,648.1l12.9-11.7l10.5-3.5l-3.5-3.5l-4.7-2.3
		l-9.3,3.5l-7,8.2l-1.2,4.7L639.2,648.1z M681.3,769.6l2.3-3.5l-3.5-1.2L681.3,769.6z M693,796.5l9.3-1.2l2.3-3.5l-9.3-2.3
		L693,796.5z M646.2,581.5l-7,18.7l1.2,5.8l-5.8,1.2l3.5,9.3l7-7l-4.7-8.2l4.7-2.3l8.2-15.2l5.8-7l-4.7-7l-5.8-7l-7,3.5l9.3,4.7
		l1.2,5.8l-1.2,4.7H646.2z M656.7,671.5l7-2.3l1.2-9.3l10.5-14l4.7-8.2l-4.7,1.2l-7,5.8l-4.7,8.2l-4.7,14L656.7,671.5z M667.3,698.3
		l5.8-1.2l2.3-4.7V689l-3.5-1.2l-5.8,5.8L667.3,698.3z M708.2,782.5l2.3-15.2l-2.3-3.5l-4.7-2.3l1.2,5.8l-2.3,9.3l1.2,3.5
		L708.2,782.5z M693,740.4h5.8l1.2,3.5l-3.5,7l5.8-1.2l2.3-3.5v-9.3h-9.3L693,740.4z M675.4,677.3l2.3,9.3l4.7,1.2l2.3-21h-4.7
		l1.2,5.8l-1.2,3.5L675.4,677.3z M656.7,620l2.3,3.5l2.3,1.2V620l1.2-3.5l3.5-3.5v-12.9l-2.3,1.2v4.7l-3.5,9.3L656.7,620z
		 M719.9,807l2.3-3.5l-3.5-1.2L719.9,807z M729.2,828.1l3.5-1.2l1.2-4.7l-4.7,2.3V828.1z M650.9,561.6l2.3-3.5l-3.5-1.2L650.9,561.6
		z M707,727.6l4.7-2.3l2.3-7l-10.5,1.2l1.2,4.7L707,727.6z M673.1,596.7l-1.2-3.5h-4.7l-2.3,2.3l4.7,1.2H673.1z M693,641.1l1.2,4.7
		l-5.8,11.7l1.2,5.8l3.5-3.5l5.8-8.2l4.7-12.9l4.7-7l-1.2-4.7l-8.2,2.3l1.2,8.2l-1.2,4.7L693,641.1z M719.9,754.4h4.7l5.8-2.3
		l-3.5-11.7h-7l-1.2,8.2L719.9,754.4z M655.6,541.8l2.3-3.5l-1.2-5.8l-3.5,1.2L655.6,541.8z M657.9,552.3l4.7,10.5h4.7l1.2-9.3
		l3.5-8.2l8.2-8.2l1.2-4.7l-5.8-1.2h-3.5l-9.3,17.5L657.9,552.3z M732.7,783.7l3.5-2.3l1.2-5.8l-7,1.2l1.2,3.5L732.7,783.7z
		 M681.3,617.7l1.2-2.3l-3.5-1.2L681.3,617.7z M724.5,691.3l-1.2,3.5l-8.2,7l-3.5,8.2l2.3,4.7l15.2-15.2l-1.2-5.8l5.8-10.5h-4.7
		l-2.3,3.5L724.5,691.3z M652.1,513.7l3.5-1.2l-1.2-4.7h-4.7L652.1,513.7z M676.6,586.2l3.5-3.5l1.2-4.7l-8.2-1.2v4.7L676.6,586.2z
		 M736.2,705.4l-3.5,8.2v8.2l-4.7,3.5l-7,8.2l7,7l4.7,1.2l8.2-2.3l-2.3-4.7l-4.7-2.3l9.3-24.5l-3.5-1.2L736.2,705.4z M679,497.3
		l-1.2,3.5l3.5,3.5l-1.2-3.5l2.3-10.5v-3.5l-4.7-2.3l2.3-4.7l7-4.7l15.2-3.5l-3.5,8.2l-7,1.2l2.3,8.2l5.8-1.2l-4.7,3.5l-2.3,4.7
		l4.7,2.3h5.8l1.2-5.8l2.3-4.7l2.3,2.3h4.7l5.8-3.5l-2.3-7H714l-4.7,7l-3.5-3.5l2.3-10.5l5.8-9.3l4.7,1.2l8.2,5.8l2.3,3.5l-1.2,4.7
		h12.9l8.2-26.9l8.2-1.2l8.2-4.7l4.7,7l7-5.8l3.5,4.7l9.3,3.5v-3.5l2.3-3.5l4.7,2.3h3.5l3.5,3.5l-4.7,1.2l-4.7,4.7v3.5l5.8-1.2
		l10.5,1.2l-4.7-9.3h7l4.7,2.3l1.2,9.3l4.7-2.3l7-11.7l3.5-3.5l-8.2-5.8l2.3-2.3v-3.5l-4.7-1.2l-5.8-4.7v-3.5l10.5,2.3v8.2l7,3.5
		h9.3l1.2,5.8l-2.3,3.5l-14,7l3.5,10.5v4.7l-9.3,1.2l4.7,8.2l4.7,4.7l14-4.7v-5.8h-3.5l-2.3-3.5h10.5l1.2-4.7l-5.8-11.7h4.7l7,5.8
		v-5.8l2.3-3.5l4.7-3.5l-4.7-9.3l8.2-3.5l2.3-3.5l-7-1.2l-9.3,2.3l-3.5,3.5l-4.7-12.9l-2.3-15.2l10.5-7V398l-5.8,2.3l-8.2-2.3
		l1.2,9.3l-9.3,9.3l-17.5-4.7l-3.5,3.5l-3.5,8.2l2.3,8.2l5.8,5.8l-3.5,3.5l2.3,7l-10.5-4.7l-4.7-15.2l2.3-4.7l-3.5-3.5l-7-3.5
		l2.3-2.3l9.3,1.2l2.3-4.7l8.2-4.7H825l5.8-8.2l1.2-15.2l-2.3-4.7l4.7,1.2l4.7-2.3l10.5-10.5l-2.3-4.7l-7-3.5l-3.5,2.3l-3.5,7
		l-4.7,1.2l-4.7-1.2l-3.5-9.3l-9.3,1.2l10.5,12.9v14l1.2,4.7l3.5,4.7l-3.5,2.3l-4.7-1.2l0-3.5l-9.3-9.3v-5.8l-2.3,8.2L804,384
		l-4.7,2.3v-4.7l-3.5-3.5l-11.7-8.2l11.7-3.5v-4.7l9.3-12.9l-4.7-7l7-5.8l5.8-2.3l-1.2-4.7l3.5-2.3v-3.5l-4.7,1.2l-9.3,10.5
		l-4.7,15.2h-5.8l-2.3,9.3l-8.2,4.7l-1.2,4.7l2.3,3.5l15.2,10.5l1.2,4.7l-3.5-2.3V398l-7-7l-4.7-5.8v-5.8l-4.7,2.3l-7,11.7l-8.2,4.7
		l-3.5-4.7l-1.2-9.3l5.8-12.9l8.2,1.2l2.3-7l4.7-2.3l-4.7-9.3l-28,15.2l-3.5-9.3h3.5l2.3,3.5h3.5l-2.3-18.7l-3.5,3.5l1.2,4.7
		l-3.5,3.5l-7,1.2l-8.2,5.8l4.7,2.3l3.5,7l5.8,8.2l7,5.8l-2.3,4.7l1.2,7l-3.5-3.5l-8.2-14l-4.7-1.2l-1.2,8.2l-8.2,3.5l-3.5,4.7
		l3.5,1.2l3.5-2.3h3.5v4.7l-3.5,2.3h-4.7l-2.3-2.3l2.3,5.8l1.2,14l3.5,3.5l-2.3,8.2l-7,4.7l-5.8,2.3l3.5,4.7l10.5,8.2l-16.4-1.2
		l1.2,10.5l-9.3-7l-4.7,1.2l3.5,4.7l4.7,2.3h9.3l-8.2,4.7l-4.7-1.2l-14-12.9l3.5-2.3l9.3-1.2l3.5-8.2l11.7-10.5l2.3-3.5l-3.5-3.5
		l-1.2-5.8l2.3-12.9h-4.7l-4.7,2.3l-2.3,3.5v5.8l-7,2.3v4.7l8.2-4.7l3.5,3.5l2.3,5.8l-5.8,3.5H700l-3.5-3.5l-4.7-1.2l-1.2,8.2H686
		l-8.2-4.7l-5.8,1.2l-4.7-2.3l5.8,9.3l-4.7,3.5l-2.3,4.7l3.5,1.2l14-8.2l4.7,4.7l-3.5,2.3l-8.2,1.2l-4.7,9.3l-5.8-4.7l1.2,5.8
		l3.5,3.5l8.2-1.2l3.5,3.5l-4.7,7l-8.2,7l-8.2,1.2l-3.5-9.3l-4.7,2.3l-3.5,7l-3.5-1.2l-2.3,7l2.3,7h4.7V481l5.8-1.2l9.3,2.3l8.2,5.8
		l3.5,3.5L679,497.3z M693,628.2l3.5-2.3l-1.2-4.7l-5.8,0l1.2,3.5L693,628.2z M742.1,768.5v-4.7l-2.3-2.3H735l2.3,7H742.1z
		 M694.1,616.5l4.7-3.5l1.2-4.7l-2.3-10.5h-5.8l-2.3,5.8v9.3L694.1,616.5z M642.7,451.8l2.3-7l-5.8,1.2L642.7,451.8z M682.5,575.6
		l8.2,3.5l8.2,16.4l9.3-2.3l3.5,2.3l-3.5,5.8l1.2,9.3l-4.7,12.9l2.3,2.3l3.5-3.5l4.7-8.2l3.5-3.5l2.3,2.3l-2.3,4.7l2.3,10.5
		l12.9-2.3l-2.3-4.7l-3.5-2.3l-3.5-3.5l3.5-2.3v-4.7l-7-10.5l4.7-9.3l1.2-4.7l-9.3-2.3l-3.5,1.2l-3.5,10.5l-1.2-10.5l5.8-10.5
		l4.7,3.5l5.8,1.2v-10.5l-4.7,1.2l-2.3-1.2l-4.7-1.2l-7,5.8h-3.5l-5.8-1.2l-2.3-8.2l-8.2,4.7l-3.5,3.5L682.5,575.6z M716.3,663.3
		l7-2.3l-2.3-7l4.7-2.3l5.8-11.7h4.7l1.2-3.5h-4.7l-3.5-3.5l-4.7-1.2l-7,16.4l-2.3,9.3L716.3,663.3z M744.4,753.3l3.5-3.5l-2.3-3.5
		L744.4,753.3z M648.6,444.8l5.8-11.7l4.7-2.3l1.2-10.5l-8.2,2.3l-4.7,8.2l-1.2,4.7l1.2,5.8L648.6,444.8z M677.8,525.4l7-3.5
		l1.2-4.7h-4.7l-4.7,4.7L677.8,525.4z M751.4,743.9l2.3-4.7v-5.8l-4.7,3.5l-1.2,4.7L751.4,743.9z M671.9,502l3.5-1.2l-1.2-3.5
		l-3.5,1.2L671.9,502z M719.9,498.5l-9.3,10.5l-10.5,3.5l-2.3,4.7l3.5,14l-1.2,4.7l-3.5,3.5l-2.3-9.3l-3.5-1.2l-4.7,7l5.8,7
		l-5.8,3.5l7,2.3l-3.5,8.2l2.3,2.3l8.2-2.3l3.5,3.5h4.7l-1.2-15.2l3.5-8.2l4.7-2.3l-2.3-2.3l5.8-10.5l-5.8-4.7l4.7-1.2l11.7-10.5
		l2.3-4.7l4.7,2.3l3.5-4.7l-5.8-2.3l1.2-8.2l-8.2,1.2L721,488l-1.2,8.2V498.5z M645.1,396.8v-3.5l-2.3-2.3h-4.7l2.3,5.8H645.1z
		 M758.4,768.5l2.3,3.5l4.7-1.2v-4.7h-3.5L758.4,768.5z M647.4,414.4l2.3,3.5l4.7-1.2v-3.5h-3.5L647.4,414.4z M733.9,676.1l3.5-1.2
		v-4.7l5.8-11.7l-1.2-4.7l-4.7,2.3l-5.8,8.2l-1.2,8.2L733.9,676.1z M695.3,547.6l7-1.2v4.7l-5.8,1.2L695.3,547.6z M745.6,697.2
		l8.2,1.2l-2.3-8.2l-4.7,2.3L745.6,697.2z M714,594.3l3.5,1.2v4.7l-2.3-2.3L714,594.3z M647.4,378.1l2.3,4.7h3.5l4.7-7h-3.5
		L647.4,378.1z M653.2,388.7l3.5,4.7l2.3,8.2l12.9,3.5l2.3-4.7l-3.5,1.2l-4.7-1.2l-4.7-8.2v-5.8h-4.7L653.2,388.7z M628.7,302.2
		l3.5-5.8l-5.8,1.2L628.7,302.2z M754.9,684.3l-2.3-2.3h-3.5l1.2,2.3H754.9z M653.2,368.8h4.7l4.7-2.3l2.3-7h-4.7l-5.8,4.7
		L653.2,368.8z M716.3,555.8l3.5-1.2l-3.5-2.3l-2.3,2.3L716.3,555.8z M715.2,544.1l-1.2,3.5l1.2,3.5l3.5-2.3l8.2,1.2l7-2.3l-2.3-4.7
		l-7-4.7l-7,2.3L715.2,544.1z M681.3,427.2v-4.7l-7-4.7l2.3,5.8L681.3,427.2z M738.6,622.4l2.3-3.5v-3.5l-2.3,3.5V622.4z M767.8,710
		l2.3-1.2v-4.7l-3.5,1.2L767.8,710z M759.6,668l4.7,1.2l5.8-2.3l3.5-12.9h-3.5l-8.2,5.8l-2.3,4.7V668z M780.6,735.7l4.7-2.3l3.5-7
		v-4.7l-5.8,1.2l-3.5,3.5v3.5L780.6,735.7z M667.3,374.6l3.5,3.5l8.2,4.7l1.2-4.7l8.2-14l-1.2-10.5l-2.3-1.2l-8.2,16.4l-3.5,2.3
		L667.3,374.6z M683.6,419.1h3.5l5.8-1.2v-3.5l-4.7-8.2l2.3-3.5l-5.8-1.2l1.2,5.8l-2.3,7V419.1z M774.8,700.7l2.3,1.2l-3.5-3.5
		L774.8,700.7z M723.4,535.9l8.2-1.2v-5.8l3.5-3.5l-1.2-3.5l-4.7,1.2l-3.5,8.2L723.4,535.9z M656.7,323.2l3.5-1.2l-1.2-2.3l-2.3,1.2
		V323.2z M684.8,399.2l-1.2-3.5h-3.5l1.2,3.5H684.8z M667.3,348.9l4.7-3.5l2.3-4.7l1.2-4.7h-5.8l-3.5,4.7l-1.2,4.7L667.3,348.9z
		 M784.1,717l5.8-2.3l-2.3-4.7h-3.5V717z M696.5,435.4l3.5-1.2l1.2,3.5h-4.7V435.4z M684.8,389.8l9.3,11.7l9.3-5.8V391l-4.7-5.8
		v-4.7l8.2,4.7l3.5-2.3l-7-5.8l-8.2-3.5l-1.2,5.8l-5.8,8.2L684.8,389.8z M777.1,475.1l-5.8-2.3l-3.5,1.2l-11.7,14l-3.5,2.3l3.5,2.3
		l5.8,8.2v3.5l-1.2,3.5l-8.2-4.7l2.3,7l3.5-2.3l3.5,2.3l1.2,9.3l-1.2,4.7l-5.8,1.2l7,16.4l-1.2,3.5l-3.5,3.5l3.5,8.2l-5.8,1.2
		l5.8,9.3l-4.7,7l-1.2,4.7l3.5,10.5l-2.3,8.2l2.3,29.2l15.2,2.3l4.7-1.2v4.7l-3.5,3.5l-1.2,4.7l9.3-5.8l14-14l4.7-2.3l2.3,15.2
		l4.7,1.2l3.5-4.7l4.7-12.9l22.2-1.2V613l2.3-2.3l14-1.2l4.7,1.2l-1.2-4.7l2.3-4.7l9.3-9.3l-1.2-5.8l-2.3-2.3l4.7-3.5l-15.2-11.7
		l-9.3-11.7l-2.3-5.8l-4.7-2.3l-1.2-10.5l-2.3-4.7h-3.5l-4.7-5.8l5.8-1.2l2.3-3.5h-9.3l-3.5-1.2l-4.7-8.2l4.7-2.3v-4.7l-8.2,2.3
		l-3.5-2.3l-4.7-14l-4.7,5.8v-5.8l2.3-3.5l-3.5-3.5l-8.2-2.3l-5.8-10.5l-3.5-3.5l-5.8,1.2L777.1,475.1z M736.2,541.8l4.7-1.2
		l-3.5-4.7l-3.5,2.3L736.2,541.8z M662.6,311.5l2.3,1.2l1.2-4.7L662.6,311.5z M768.9,648.1l3.5,3.5l4.7-3.5l-1.2-5.8l-4.7,2.3
		L768.9,648.1z M808.7,678.5l-5.8,1.2l-3.5,3.5l-1.2,12.9l-5.8,7v4.7l3.5,3.5l12.9-24.5l2.3-9.3l4.7-2.3l2.3-4.7v-7l-4.7,3.5
		l-2.3,4.7L808.7,678.5z M715.2,460l5.8-1.2l8.2,4.7l-4.7,2.3l-7-2.3L715.2,460z M673.1,325.6H686l-2.3-8.2l-9.3,3.5L673.1,325.6z
		 M785.3,676.1l5.8-3.5l1.2-3.5l-1.2-10.5l-3.5,1.2l2.3,5.8l-3.5,5.8L785.3,676.1z M807.5,740.4l3.5-1.2l-1.2-3.5l-3.5,1.2
		L807.5,740.4z M754.9,542.9l-2.3-7l-3.5-1.2v4.7l2.3,3.5H754.9z M681.3,312.7h7l4.7-7l-2.3-3.5l-9.3,5.8V312.7z M693,348.9l2.3-1.2
		l-2.3-3.5V348.9z M745.6,441.3l-5.8,5.8l-9.3,2.3l-1.2-4.7l4.7-7l4.7-1.2h3.5L745.6,441.3z M747.9,484.5l-2.3-3.5l-5.8,1.2l3.5,3.5
		L747.9,484.5z M697.7,339.6l2.3-2.3l-1.2-2.3h-3.5v3.5L697.7,339.6z M710.5,375.8l4.7-3.5l-1.2-4.7l-7-1.2l1.2,4.7L710.5,375.8z
		 M736.2,460l3.5-1.2v4.7l-2.3,1.2L736.2,460z M802.8,651.6l1.2-3.5l-2.3-3.5l-3.5-2.3v8.2L802.8,651.6z M818,713.5l2.3-1.2
		l-1.2-3.5L818,710V713.5z M708.2,361.8l10.5-1.2l-2.3-5.8h-3.5l-3.5,3.5L708.2,361.8z M691.8,298.7l12.9-11.7l-1.2-8.2l-10.5,2.3
		v4.7l-3.5,8.2L691.8,298.7z M728,405l4.7,3.5l-4.7,2.3V405z M705.8,333.7l4.7-3.5v-5.8l-4.7,1.2l-2.3,3.5L705.8,333.7z
		 M747.9,463.5l3.5,3.5l3.5-4.7h-4.7L747.9,463.5z M827.4,696l-5.8,1.2l2.3,4.7l3.5-1.2V696z M746.7,402.7l7,5.8l2.3,9.3l-1.2,9.3
		l-5.8,8.2l-3.5,2.3l1.2-9.3l3.5-3.5v-10.5l1.2-4.7l-3.5-2.3l-3.5,2.3v3.5l-4.7,1.2l-3.5,0l-2.3-4.7l5.8-2.3l3.5-3.5L746.7,402.7z
		 M726.9,379.3l2.3-3.5l-3.5-1.2L726.9,379.3z M724.5,351.3l-1.2-5.8l1.2-4.7l10.5-10.5l-3.5-3.5H728l-3.5,1.2l-5.8,9.3l-1.2,5.8
		l2.3,7L724.5,351.3z M826.2,684.3l2.3,3.5h4.7l2.3-2.3l-2.3-4.7h-3.5L826.2,684.3z M837.9,722.9l2.3,3.5l2.3-1.2v-4.7h-4.7
		L837.9,722.9z M711.7,310.4l4.7-1.2l5.8-5.8l2.3-3.5l-1.2-12.9l-4.7,7l-4.7,11.7L711.7,310.4z M760.8,468.1l4.7-2.3l3.5-3.5
		l-8.2,1.2L760.8,468.1z M826.2,629.4l5.8,3.5l-10.5,15.2l-1.2,8.2l1.2,3.5l14-23.4l4.7-12.9l-10.5,2.3L826.2,629.4z M703.5,276.5
		l4.7-2.3l-1.2-4.7l-4.7-1.2v3.5L703.5,276.5z M858.9,743.9l-1.2-4.7l-4.7-1.2v4.7L858.9,743.9z M851.9,712.4l-3.5-7l-4.7,1.2
		l3.5,8.2L851.9,712.4z M833.2,669.1l2.3,5.8h5.8l4.7-3.5l-3.5-4.7h-4.7L833.2,669.1z M732.7,345.4l2.3-1.2l-1.2-3.5l-2.3,1.2
		L732.7,345.4z M775.9,463.5l1.2-2.3l-3.5-2.3L775.9,463.5z M860.1,727.6h3.5l5.8-1.2v-4.7l8.2-17.5l-1.2-3.5l-3.5,3.5l-4.7,7
		l-4.7,12.9L860.1,727.6z M768.9,417.9l5.8-2.3l2.3,4.7l1.2,8.2l-1.2,8.2l-8.2-3.5v-10.5V417.9z M853.1,679.6l1.2,5.8l-1.2,9.3
		l3.5,2.3l7-7l2.3-9.3l5.8-8.2l-1.2-5.8l-5.8,3.5l-5.8,7L853.1,679.6z M842.6,662.1l8.2-5.8l4.7-12.9l-1.2-5.8l10.5-10.5l1.2-4.7
		l-5.8-3.5l-16.4,32.7l-1.2,4.7V662.1z M732.7,311.5l4.7,8.2h3.5v-5.8l3.5-3.5l1.2-4.7h-4.7l-3.5,2.3L732.7,311.5z M764.3,403.9
		l8.2-1.2l3.5-2.3l7,8.2h-10.5l-4.7-2.3L764.3,403.9z M775.9,413.2l4.7-1.2v4.7l-3.5,1.2L775.9,413.2z M753.7,338.4l5.8-4.7
		l-3.5-11.7l-3.5,1.2l-1.2,4.7l1.2,4.7L753.7,338.4z M774.8,393.3l5.8-1.2l3.5,2.3l-5.8,4.7l-2.3-2.3L774.8,393.3z M788.8,433.1
		l4.7,2.3l1.2,9.3l-5.8-7V433.1z M749.1,298.7l10.5-18.7l-4.7,1.2l-7,8.2l-1.2,4.7L749.1,298.7z M788.8,422.6h7l-2.3,7l-2.3-2.3
		L788.8,422.6z M887,732.2l3.5-1.2l-1.2-3.5l-3.5,1.2L887,732.2z M759.6,322.1l7-1.2l-1.2-4.7l-3.5-3.5l-2.3,4.7V322.1z
		 M878.8,691.3l3.5,1.2l4.7-1.2v-4.7l9.3-16.4l-8.2,4.7l-8.2,10.5L878.8,691.3z M811,475.1l2.3-2.3l-3.5-1.2L811,475.1z
		 M869.4,656.3l2.3,5.8l3.5,3.5l5.8-8.2l3.5-8.2l2.3-9.3l-1.2-5.8l-4.7,1.2l-2.3,2.3l-2.3,12.9l-2.3,3.5L869.4,656.3z M891.6,717
		v4.7l3.5,3.5l5.8-9.3l-3.5-3.5L891.6,717z M773.6,350.1l5.8-7l3.5-9.3l-2.3-12.9l-8.2,15.2l-1.2,8.2L773.6,350.1z M794.6,399.2
		l4.7-2.3l4.7,1.2l3.5,3.5v3.5l-4.7-1.2l-3.5-3.5L794.6,399.2z M897.5,711.2l4.7-2.3l1.2-14l-4.7,3.5l-2.3,9.3L897.5,711.2z
		 M763.1,260.1h4.7l2.3-1.2l2.3-3.5l-1.2-5.8l-5.8,2.3l-2.3,3.5V260.1z M872.9,596.7l1.2,5.8v8.2l3.5-3.5l2.3-4.7l-1.2-8.2l-2.3-2.3
		L872.9,596.7z M896.3,607.2L887,613l-5.8,16.4l9.3,2.3l8.2-19.9v-4.7l-2.3-3.5L896.3,607.2z M844.9,510.2h7l-4.7-2.3L844.9,510.2z
		 M786.5,313.9l4.7-1.2l3.5-8.2h-3.5l-3.5,4.7L786.5,313.9z M904.5,645.8l-5.8,8.2l-1.2,8.2l1.2,3.5l3.5-3.5l3.5-14l3.5-3.5
		l-1.2-5.8l9.3-9.3l-1.2-5.8l-3.5-2.3l-2.3,4.7l-3.5,14L904.5,645.8z M931.4,628.2l1.2,7l-9.3,15.2l-8.2,25.7l-8.2,7l2.3,8.2l7-7
		l16.4-28l-2.3-7l7-5.8l3.5-8.2l4.7-7l4.7-2.3v-7l-1.2-4.7l-4.7,1.2l-8.2,9.3L931.4,628.2z M780.6,284.7l2.3-1.2l-1.2-2.3l-2.3,1.2
		L780.6,284.7z M853.1,490.3l-4.7,5.8l1.2,4.7h4.7l8.2-4.7l-2.3-3.5l-1.2-15.2l-2.3-4.7l-4.7,8.2v4.7L853.1,490.3z M772.4,242.6
		l-4.7-5.8l1.2,4.7L772.4,242.6z M872.9,567.5l5.8-1.2l3.5-2.3l-5.8-4.7l-3.5,3.5V567.5z M918.5,455.3l1.2,8.2l-2.3,3.5h-7l-1.2,9.3
		l-5.8,2.3l1.2,4.7l-2.3,8.2l-14,19.9L887,516h-4.7l-9.3-8.2h-4.7l-8.2,12.9l2.3,2.3l1.2,3.5h9.3l4.7-2.3l-3.5-2.3l-2.3-4.7l4.7-2.3
		l9.3,3.5h3.5l1.2,5.8l-4.7,1.2l-7,5.8l-4.7,8.2v7l4.7-7l11.7,2.3l5.8-10.5l-3.5-4.7l7-16.4l3.5-2.3l5.8-2.3l8.2-26.9l15.2-24.5
		l2.3-9.3l-8.2-1.2v4.7l-2.3,4.7L918.5,455.3z M894,600.2l-2.3-3.5l-4.7,1.2l2.3,2.3H894z M813.3,346.6l1.2,5.8l5.8-1.2l7-4.7l2.3-7
		H825l-7,7H813.3z M888.1,569.8l1.2,5.8l5.8,7l-4.7,7l2.3,2.3l4.7-2.3l3.5-8.2l-4.7-8.2l3.5-3.5l3.5-1.2l1.2-4.7l-4.7-1.2l-8.2,4.7
		L888.1,569.8z M885.8,560.5l9.3-3.5l1.2-3.5l-4.7,3.5l-7-4.7H880l3.5,8.2H885.8z M933.7,680.8l-1.2,8.2l2.3,1.2l-3.5,3.5l1.2,5.8
		l4.7-10.5l14-19.9l1.2-4.7l-2.3-9.3l-10.5,22.2L933.7,680.8z M874.1,436.6l1.2,4.7l-2.3,3.5l-7,5.8l1.2,4.7l-8.2,12.9l2.3,4.7
		l4.7-1.2l10.5-17.5l3.5-3.5v-9.3l2.3-2.3l7-2.3l-2.3-5.8l-3.5-3.5l-3.5,1.2v1.2l-3.5,3.5L874.1,436.6z M951.2,496.2l-11.7,15.2
		l-2.3,4.7l-3.5,3.5l-5.8,1.2l3.5,4.7l1.2,4.7l-2.3,2.3h-3.5l-3.5-4.7l-1.2-5.8v-4.7l10.5-16.4l9.3-1.2l-5.8-8.2l9.3-16.4l2.3-9.3
		h-3.5l-3.5,3.5l-5.8,2.3l4.7,8.2l-7,4.7l-5.8,8.2l-7,15.2l-3.5,2.3l2.3,5.8l-3.5,3.5l-5.8,2.3l2.3,9.3l-7,4.7l-5.8,1.2l1.2,11.7
		l2.3,4.7l11.7-3.5l-1.2-15.2l2.3-4.7l12.9,12.9l-2.3,2.3l-5.8-1.2l1.2,10.5l-1.2,8.2l-3.5-1.2l-4.7-1.2v5.8l-4.7,18.7l1.2,3.5
		l-5.8,5.8v3.5l18.7,1.2l4.7,2.3l-2.3,4.7l-5.8,11.7v4.7l4.7-1.2l7-7l4.7-15.2l11.7-5.8l1.2-4.7l-2.3-4.7l2.3-4.7l4.7-2.3l-1.2-5.8
		l1.2-3.5l4.7-2.3l1.2-8.2l5.8-7l1.2-8.2l-9.3,1.2l-1.2-4.7l7-2.3l1.2,3.5l2.3,1.2l-3.5-9.3l5.8-7v-4.7l-12.9,12.9h-5.8l-3.5,8.2
		l-1.2,4.7h3.5l1.2,2.3l-7,12.9l-4.7-1.2l-2.3,1.2V571l-4.7,8.2l-14,14l-4.7-4.7l25.7-54.9l10.5-2.3l-1.2-4.7l3.5-14l-2.3-3.5
		l2.3-3.5h10.5l4.7-24.5l-1.2-3.5l-4.7,2.3l-2.3,3.5l-1.2,9.3L951.2,496.2z M802.8,281.2l1.2-3.5l4.7-1.2l2.3-2.3h-3.5l1.2-2.3
		l-4.7,2.3l-2.3,3.5L802.8,281.2z M889.3,463.5l-12.9,5.8l-3.5,7l5.8-4.7h4.7l2.3,2.3l-11.7,16.4v9.3l3.5,3.5l5.8-1.2l2.3-2.3
		l-7-4.7l11.7-5.8l1.2-9.3l11.7-25.7h-4.7l-5.8,4.7L889.3,463.5z M849.6,392.2h3.5l5.8-5.8l1.2-4.7l-15.2,1.2l2.3,5.8L849.6,392.2z
		 M865.9,422.6l11.7-9.3l-2.3-7h-5.8l-1.2,4.7l-3.5,7L865.9,422.6z M849.6,352.4v-5.8l-4.7,1.2l2.3,3.5L849.6,352.4z M840.2,325.6
		l3.5-2.3l-1.2-4.7l-3.5,2.3L840.2,325.6z M948.9,648.1l-2.3,4.7l4.7-3.5l-3.5-4.7L948.9,648.1z M944.2,608.4l8.2,4.7l4.7-1.2
		l5.8-3.5l-3.5-11.7l-14,7L944.2,608.4z M888.1,426.1l4.7-2.3v-4.7l-4.7,0l-1.2,3.5L888.1,426.1z M958.2,627.1v10.5l-1.2,5.8
		l4.7,1.2l5.8-1.2v-15.2l10.5-17.5l-1.2-2.3l-7,8.2l-8.2,5.8L958.2,627.1z M878.8,392.2l7,1.2v-5.8l-5.8,1.2L878.8,392.2z
		 M982.8,703l-3.5-3.5l1.2,5.8L982.8,703z M903.3,456.4l4.7-2.3l1.2-3.5l-3.5-2.3l-2.3,3.5V456.4z M989.8,725.2l3.5,1.2l5.8-5.8
		l3.5-11.7l-1.2-4.7l-7,8.2l-4.7,9.3L989.8,725.2z M971.1,663.3l7-2.3l2.3-9.3l4.7-3.5v-4.7l-3.5-4.7l-10.5,16.4l-1.2,4.7
		L971.1,663.3z M985.1,689l3.5-1.2l-2.3-2.3l-2.3,2.3L985.1,689z M904.5,434.2l2.3,9.3l8.2-12.9l-1.2-9.3l-2.3,9.3l-3.5,3.5H904.5z
		 M980.5,533.6l-2.3,9.3l-8.2,16.4l-7,10.5l1.2,5.8l-1.2,4.7h-9.3l-1.2,3.5l2.3,11.7l10.5-7l7-12.9V571l4.7-2.3l4.7-7v-4.7l8.2-19.9
		v-4.7l3.5-3.5l3.5-7l5.8-5.8l4.7-2.3l-4.7-2.3l-7,2.3l-10.5,18.7L980.5,533.6z M1005,735.7l1.2,5.8l3.5,2.3l7-5.8l2.3-3.5v-9.3
		l-4.7,1.2l-5.8,8.2L1005,735.7z M891.6,372.3l5.8-3.5l2.3,7l-2.3-3.5L891.6,372.3z M995.6,680.8l-2.3-3.5l-3.5-1.2l2.3,4.7
		L995.6,680.8z M971.1,592l3.5-1.2v-4.7l-3.5,1.2V592z M1029.5,761.4l3.5-18.7h-4.7l-3.5,14l1.2,3.5L1029.5,761.4z M974.6,597.8
		l3.5,4.7l3.5-5.8l-4.7-2.3L974.6,597.8z M996.8,668l4.7-1.2l5.8-7v-4.7l-4.7,1.2l-1.2,3.5l-3.5,3.5L996.8,668z M1012,694.8
		l-2.3-4.7h-5.8l3.5,3.5L1012,694.8z M1019,717l2.3-1.2l1.2-2.3h-4.7L1019,717z M994.5,588.5l-4.7-7l4.7,1.2V578l-14,10.5v4.7
		l11.7-2.3L994.5,588.5z M989.8,621.2l3.5,5.8l4.7-2.3l2.3-7h-5.8L989.8,621.2z M1014.3,687.8l11.7-9.3l1.2-3.5l-5.8,1.2l-7,4.7
		l-1.2,3.5L1014.3,687.8z M998,637.6l2.3-3.5l-3.5-1.2L998,637.6z M1012,637.6l-8.2,4.7l1.2,4.7l11.7-3.5l15.2-35.1v-12.9h-4.7
		l-5.8,16.4l-4.7,7l-4.7,12.9V637.6z M1034.2,735.7l3.5,8.2h3.5l7-15.2v-4.7l-3.5-3.5l-3.5,2.3l-4.7,8.2L1034.2,735.7z M972.3,505.5
		l-5.8,7l2.3,3.5l16.4-25.7h-8.2l-4.7,9.3V505.5z M1017.8,671.5l8.2-1.2l2.3-2.3l-1.2-5.8l-5.8,1.2l-3.5,2.3L1017.8,671.5z
		 M1031.9,698.3l7-3.5v-3.5l-7,2.3V698.3z M994.5,568.6l3.5-4.7l-5.8,2.3L994.5,568.6z M1061.1,752.1l-2.3-2.3l-5.8,3.5l2.3,3.5h4.7
		L1061.1,752.1z M1006.2,600.2l7-5.8l2.3-8.2l-3.5-3.5l-4.7-1.2v4.7l-2.3,10.5L1006.2,600.2z M1031.9,680.8l5.8-1.2l-1.2-3.5
		l-4.7,1.2V680.8z M1045.9,614.2l-2.3,9.3l-4.7,1.2l-1.2,10.5l-10.5,18.7l2.3,3.5l3.5,1.2l5.8-9.3l-5.8-1.2l2.3-4.7l3.5,2.3l7-5.8
		l-2.3-7l8.2-7l3.5-8.2l1.2-4.7l-5.8-1.2L1045.9,614.2z M999.1,553.4l2.3,7l5.8-2.3l-2.3-4.7l5.8-4.7l-2.3-3.5h-3.5l-2.3,7
		L999.1,553.4z M1041.2,685.5l4.7-1.2l-5.8-1.2L1041.2,685.5z M1058.7,710l5.8-10.5l-9.3,4.7v3.5L1058.7,710z M1049.4,676.1
		l-4.7-3.5l2.3,4.7L1049.4,676.1z M1065.8,739.2l3.5-4.7v-5.8l-3.5,2.3v3.5V739.2z M1016.7,578l8.2-4.7l2.3-3.5l-1.2-3.5l-8.2,4.7
		l-2.3,3.5L1016.7,578z M1079.8,766.1v-7l-3.5,3.5L1079.8,766.1z M1008.5,540.6l11.7-2.3l-1.2-9.3h-3.5l-5.8,7L1008.5,540.6z
		 M1064.6,671.5v5.8l-4.7,15.2l5.8-4.7l5.8-11.7l8.2-5.8l8.2-26.9v-4.7l-3.5-2.3l-5.8,17.5l-5.8,11.7l-3.5,2.3L1064.6,671.5z
		 M1079.8,742.8v9.3l7-5.8l8.2-11.7v-4.7l-5.8,0l-4.7,10.5L1079.8,742.8z M1065.8,623.6l-2.3,10.5l-10.5,17.5h4.7l8.2-4.7l-1.2-3.5
		l5.8-11.7l1.2-4.7l-1.2-5.8L1065.8,623.6z M1036.5,593.2l4.7-2.3l4.7-7l1.2-4.7l-9.3,1.2l-2.3,3.5v4.7L1036.5,593.2z M1079.8,706.5
		l2.3,4.7l2.3,1.2l3.5-8.2h-3.5L1079.8,706.5z M1082.1,691.3l1.2,5.8h4.7l3.5-2.3v-3.5l-3.5-2.3h-4.7L1082.1,691.3z M1098.5,726.4
		l4.7-1.2l-1.2-4.7h-3.5V726.4z M1065.8,599l-5.8,1.2l2.3,3.5l2.3-1.2L1065.8,599z M1070.4,620h4.7l3.5-2.3l-1.2-4.7l-4.7,2.3
		L1070.4,620z M1091.5,682l4.7,3.5l2.3-1.2l4.7-15.2h-4.7l-7,8.2V682z M1110.2,710l2.3-3.5v-5.8l4.7-7V689l-4.7,1.2l-3.5,2.3
		l-1.2,4.7l1.2,10.5L1110.2,710z M1125.4,729.9l4.7-11.7l-2.3-3.5l-4.7-1.2l-1.2,12.9L1125.4,729.9z M1130,754.4l3.5-2.3v-3.5
		l-2.3-2.3l-2.3,3.5L1130,754.4z M1120.7,673.8l2.3-2.3l-3.5-1.2L1120.7,673.8z M1127.7,682l2.3-7h-3.5l-2.3,4.7L1127.7,682z
		 M1139.4,705.4v-3.5l-2.3-2.3v4.7L1139.4,705.4z M1153.4,717l3.5-1.2v-4.7l-4.7,1.2L1153.4,717z M1165.1,738.1l3.5,3.5l2.3-4.7
		L1165.1,738.1z"/>
	<path d="M1072.8,158.5l-7,2.3l-2.3-4.7l4.7-18.7l5.8-1.2l15.2-9.3l4.7,9.3l5.8-10.5l35.1-10.5l8.2,1.2l8.2,3.5l5.8-8.2l8.2-7
		l15.2-4.7l1.2,9.3h4.7l4.7-3.5l2.3-4.7l-4.7-4.7l3.5-1.2l12.9,1.2l8.2,4.7l3.5,3.5l-10.5,5.8l15.2,10.5l2.3,5.8l-3.5,3.5v9.3
		l-2.3,3.5l1.2,2.3l9.3-1.2l2.3,4.7l4.7,2.3l2.3,12.9l7,16.4l-3.5,7l1.2,5.8l4.7,2.3l5.8,17.5l3.5,3.5l-2.3,10.5l-4.7,8.2l-3.5,2.3
		l3.5,2.3l8.2-5.8l7,19.9v8.2l-3.5,5.8l4.7,2.3l5.8,8.2l-3.5,3.5l2.3,2.3h3.5l19.9,72.5l1.2,4.7l-3.5-3.5v3.5l10.5,16.4l1.2,4.7
		l-1.2,5.8l7,2.3l2.3,9.3l14,37.4v12.9l7,10.5l1.2,5.8l-2.3,4.7l-1.2,5.8l7-1.2l15.2,44.4l-1.2,8.2l11.7,25.7l1.2,4.7l-4.7,3.5
		l3.5,11.7l8.2,4.7l-1.2,2.3l5.8,12.9l1.2,4.7l-5.8,1.2l5.8,1.2l2.3,16.4l4.7,7l1.2,7l4.7,5.8l-1.2,5.8l4.7,4.7l2.3,14l-5.8,1.2
		l-8.2,8.2l5.8,9.3l-4.7,1.2l-4.7-2.3l-3.5,2.3l-1.2,4.7l1.2,4.7l-5.8,1.2h-9.3l-2.3,4.7l-4.7-2.3l-3.5-3.5l-9.3,10.5h-12.9
		l-2.3,4.7l-4.7,1.2l-3.5-1.2V703l-9.3,5.8L1289,717l-3.5,2.3l-8.2-3.5l-9.3,5.8l-9.3,1.2l-14-1.2l-1.2-4.7l1.2-3.5l-3.5-3.5
		l-9.3-15.2l-3.5-2.3V682l-2.3-9.3l-4.7-8.2l4.7-1.2l3.5,3.5l4.7-2.3l-4.7-2.3l-1.2-5.8h-4.7l-5.8,1.2l-2.3-3.5v-14l-3.5-8.2
		l-4.7-2.3l-2.3-14l-5.8-7l-3.5-18.7l-4.7-9.3l3.5-2.3l5.8-1.2l-2.3-4.7l-9.3-7l1.2-12.9l-1.2-4.7l-5.8-7l7-1.2l1.2-4.7l-3.5-3.5
		l-7,5.8l-4.7-8.2l2.3-2.3l4.7-1.2l-12.9-14l3.5-3.5h3.5l-8.2-7l-5.8-9.3l1.2-11.7l-3.5-3.5l-3.5-1.2l1.2-4.7l3.5-5.8l2.3-3.5
		l-4.7,1.2v-4.7l-2.3-8.2l-5.8-11.7l-1.2-5.8l3.5-3.5l2.3-4.7h-3.5l-4.7,1.2l-1.2-9.3l1.2-5.8l-12.9-24.5l-3.5-17.5l1.2-4.7
		l9.3-16.4l-1.2-5.8l-4.7,3.5l-5.8,14l-5.8-9.3v-9.3l2.3-3.5l-7-5.8l16.4-17.5l-4.7-5.8l-4.7,3.5l-8.2,12.9l-2.3-10.5v-22.2
		l-2.3-2.3l-4.7,2.3l-3.5-3.5v-4.7l3.5-2.3l-3.5-1.2h-3.5l-1.2-4.7l1.2-8.2l8.2-4.7l2.3-8.2l-2.3-9.3l-4.7,2.3l-4.7,11.7l-3.5,4.7
		l-2.3-8.2l2.3-8.2l-9.3-7v-4.7l-5.8-17.5l2.3-3.5l-7-7v-10.5h3.5l5.8-5.8l1.2-4.7h-3.5l-2.3,3.5l-3.5,2.3l-1.2-10.5l-5.8-5.8h-4.7
		l4.7-11.7L1072.8,158.5z M1235.2,692.5l3.5-2.3l-1.2-2.3L1235.2,692.5z M1140.5,386.3l7-1.2v-4.7l10.5-18.7v-4.7l-8.2,7l-8.2,16.4
		L1140.5,386.3z M1163.9,437.7v7l9.3-2.3v-5.8l3.5-3.5l2.3-4.7l-4.7,2.3l-4.7,4.7L1163.9,437.7z M1072.8,158.5l7-3.5l-2.3-4.7h-4.7
		l-1.2,4.7L1072.8,158.5z M1124.2,283.5l-2.3,2.3l4.7-2.3l1.2-8.2h-4.7l-1.2,2.3L1124.2,283.5z M1130,306.9l4.7-1.2l2.3-7h-3.5
		l-3.5,3.5L1130,306.9z M1160.4,297.5l-16.4,24.5l-3.5,14l7,1.2l5.8-12.9l-1.2-4.7l7-2.3l1.2-8.2l4.7-8.2v-4.7L1160.4,297.5z
		 M1182.6,462.3l3.5-4.7l-3.5,1.2V462.3z M1114.8,244.9l4.7-2.3l1.2-4.7l-1.2-5.8l5.8-5.8l4.7-8.2l-1.2-5.8l-4.7,1.2l-5.8,5.8
		l-4.7,14v5.8L1114.8,244.9z M1107.8,202.9l1.2,5.8l-1.2,4.7l2.3,2.3l5.8-18.7l-3.5,3.5L1107.8,202.9z M1231.7,464.6l-10.5,15.2
		l-5.8,16.4l-4.7,8.2l-7,5.8l1.2,5.8l3.5,3.5l1.2-4.7L1220,502l3.5-3.5l1.2-5.8l11.7-9.3l-5.8-9.3l7-4.7l4.7-7l2.3-9.3l-1.2-5.8
		l-3.5-2.3h-4.7l-2.3,12.9L1231.7,464.6z M1218.8,547.6l-1.2-2.3l-3.5,1.2L1218.8,547.6z M1130,248.4l3.5,8.2l-2.3,4.7l-4.7,3.5
		l1.2,4.7l3.5,1.2l5.8-5.8l2.3-9.3l-3.5-9.3l9.3-3.5l2.3-3.5v-4.7l-4.7,1.2l-9.3,11.7L1130,248.4z M1174.4,415.5l5.8,10.5l3.5-3.5
		l3.5-14l3.5-3.5l-7-5.8l-1.2,4.7L1174.4,415.5z M1138.2,295.2l4.7-1.2l7-5.8l2.3-9.3l-2.3-2.3l-8.2,2.3h-5.8l2.3,5.8V295.2z
		 M1204.8,311.5l-10.5,19.9l-5.8,19.9l-10.5,12.9l-4.7,8.2l1.2,3.5l-8.2,8.2l3.5,7l3.5,2.3l3.5-8.2l8.2-11.7l-2.3-8.2l4.7-2.3l8.2-7
		l2.3-9.3l17.5-32.7l2.3-9.3h-4.7l-2.3,4.7L1204.8,311.5z M1200.1,469.3l3.5,8.2l-3.5,2.3l-2.3,4.7l8.2-7l1.2-9.3l10.5-15.2l2.3-4.7
		l-8.2,2.3l-9.3,15.2L1200.1,469.3z M1189.6,450.6l4.7-2.3l3.5-8.2h-4.7l-2.3,4.7L1189.6,450.6z M1228.2,574.5l4.7-1.2l2.3-4.7
		l5.8-2.3l-1.2-15.2l-3.5,1.2v5.8l-9.3,10.5L1228.2,574.5z M1249.2,637.6l2.3,2.3l3.5-3.5l1.2-4.7l-4.7-2.3l-1.2,4.7L1249.2,637.6z
		 M1160.4,354.8l2.3-4.7v-4.7l-3.5,1.2v3.5L1160.4,354.8z M1241,603.7h4.7l1.2-3.5l-1.2-4.7l-3.5,3.5L1241,603.7z M1223.5,538.2
		l3.5-3.5l-1.2-3.5l-3.5-1.2l-1.2,4.7L1223.5,538.2z M1189.6,427.2l5.8,8.2l4.7,3.5l10.5-12.9l4.7-2.3l-4.7-3.5h-3.5l-12.9,8.2
		L1189.6,427.2z M1104.3,154.9l4.7-1.2l5.8-8.2v-9.3l-1.2,4.7l-8.2,10.5L1104.3,154.9z M1248.1,469.3l1.2,10.5l-1.2,4.7l-16.4,16.4
		l1.2,5.8l-1.2,4.7l-4.7,10.5l-1.2,5.8l2.3,2.3h7l-1.2-5.8l5.8-8.2v-5.8l12.9-21l1.2-4.7l3.5-3.5l4.7-7l3.5-3.5v-9.3l1.2-3.5
		l8.2-2.3l-3.5-3.5l1.2-8.2l-1.2-2.3h-3.5v4.7l-3.5,2.3l-3.5-1.2l1.2,4.7l-3.5,9.3l-7,5.8L1248.1,469.3z M1166.3,338.4h3.5l5.8-5.8
		l-1.2-5.8l-4.7,1.2l-2.3,2.3l-1.2,4.7L1166.3,338.4z M1185,398l4.7,2.3l3.5-3.5l2.3-3.5l-1.2-4.7l-4.7-5.8h-3.5l2.3,3.5l-1.2,4.7
		L1185,398z M1269.1,652.8l1.2-3.5l-3.5-3.5l-4.7-1.2l2.3,7L1269.1,652.8z M1147.6,274.1l3.5-1.2l-3.5-4.7V274.1z M1126.5,171.3
		l-1.2-3.5l-3.5,3.5l-1.2,3.5v1.2L1126.5,171.3z M1139.4,202.9l-1.2-5.8l-7,2.3l3.5,4.7L1139.4,202.9z M1154.6,266l5.8-1.2v-3.5
		l-3.5-3.5l-2.3,3.5V266z M1262.1,607.2l2.3-4.7l-2.3,1.2V607.2z M1252.7,572.1l5.8,1.2l11.7-16.4l-1.2-4.7l-3.5-3.5l-8.2,2.3
		l-3.5,4.7l-2.3,9.3L1252.7,572.1z M1166.3,292.8l4.7-2.3l1.2-3.5l-1.2-4.7h-4.7v5.8V292.8z M1245.7,541.8l4.7-1.2l7-5.8l3.5-8.2
		l-1.2-4.7l-10.5,2.3l1.2,4.7l-4.7,7V541.8z M1155.7,254.3l5.8-1.2l4.7-5.8v-3.5h-4.7l-3.5,7L1155.7,254.3z M1193.1,288.2l-7,7
		l-10.5,18.7l1.2,9.3l8.2-8.2v-9.3l10.5-8.2V294L1193.1,288.2z M1274.9,629.4l8.2-2.3l2.3-3.5v-5.8l-4.7,1.2l-7,5.8L1274.9,629.4z
		 M1201.3,384l3.5-3.5l2.3-8.2l3.5-3.5l4.7-1.2l-4.7-3.5l-7,2.3l-2.3,4.7l-2.3,9.3L1201.3,384z M1246.9,380.5l-2.3,9.3l-18.7,31.6
		l-9.3,11.7l3.5,11.7l4.7-2.3l11.7-19.9l3.5-3.5l2.3-10.5l3.5-3.5l3.5-5.8l2.3-21L1246.9,380.5z M1130,156.1l7-1.2l-2.3-3.5h-3.5
		L1130,156.1z M1228.2,375.8l-4.7,2.3l-4.7-2.3v10.5l-10.5,21l7,4.7h4.7l-4.7-8.2l1.2-4.7l4.7-3.5l8.2-12.9l4.7-2.3l-4.7-8.2
		l4.7-3.5l2.3-9.3l-5.8,1.2l-4.7,3.5l-2.3,4.7v4.7L1228.2,375.8z M1290.1,659.8l4.7-2.3l1.2-4.7l-1.2-5.8l-4.7,2.3l-1.2,4.7
		L1290.1,659.8z M1126.5,128.1l-2.3-3.5h-3.5l2.3,3.5H1126.5z M1152.2,220.4l2.3,4.7l3.5-1.2l1.2-2.3l-2.3-3.5l-2.3-1.2l-3.5,1.2
		L1152.2,220.4z M1146.4,179.5v-4.7l3.5-1.2l4.7,2.3l1.2-9.3h-4.7l-8.2,7v3.5L1146.4,179.5z M1170.9,192.3h-9.3v4.7l-4.7,9.3v4.7
		l2.3,4.7l18.7-36.2l-4.7,1.2l-2.3,4.7l-1.2,4.7L1170.9,192.3z M1297.1,646.9l3.5-2.3v-3.5h-4.7L1297.1,646.9z M1256.2,514.9h4.7
		l7-4.7l-2.3-5.8v-4.7l-2.3-3.5l-7,14L1256.2,514.9z M1310,621.2l-8.2,7l-4.7,8.2l5.8-1.2l8.2-4.7l3.5-8.2l-2.3-9.3l-3.5,2.3
		L1310,621.2z M1311.2,672.6v-5.8l-4.7,1.2L1311.2,672.6z M1215.3,337.2v4.7l-5.8,14l1.2,5.8l7-7l18.7-33.9l5.8-8.2l-2.3-8.2
		l5.8-5.8l3.5-11.7l-3.5-2.3h-4.7l-8.2,26.9l-8.2,16.4l-5.8,7L1215.3,337.2z M1187.3,268.3v-4.7l-3.5-3.5l-4.7-1.2l3.5,9.3H1187.3z
		 M1285.5,512.5l-4.7,1.2l-2.3,2.3l-4.7,9.3l-3.5,3.5l-4.7,2.3l2.3,9.3l7-1.2l2.3-9.3l12.9-12.9l4.7-7l1.2-4.7l-3.5-2.3l3.5-10.5
		l-8.2,4.7l-2.3,10.5V512.5z M1281.9,576.8l4.7-2.3l1.2-8.2l-8.2-3.5v9.3L1281.9,576.8z M1300.6,593.2l-8.2-3.5l-1.2,4.7l3.5,3.5
		h4.7L1300.6,593.2z M1172.1,219.2l1.2,5.8l2.3,3.5l3.5,1.2l3.5-12.9l-1.2-5.8h-4.7l-1.2,4.7L1172.1,219.2z M1324,694.8l3.5-1.2
		l-1.2-2.3l-3.5,1.2L1324,694.8z M1251.6,445.9l-2.3-4.7h-4.7l1.2,3.5L1251.6,445.9z M1314.7,659.8l7,1.2l-1.2-10.5l-4.7,2.3
		l-1.2,3.5V659.8z M1192,255.4l-5.8-1.2l2.3,3.5L1192,255.4z M1155.7,151.4l4.7,3.5v-7L1155.7,151.4z M1197.8,284.7l7-3.5l8.2-16.4
		l-4.7-2.3h-3.5l-4.7,7L1199,280L1197.8,284.7z M1285.5,560.5l4.7,1.2l3.5-1.2l3.5-8.2l-2.3-3.5l4.7-2.3l4.7-8.2l-1.2-5.8l-2.3-2.3
		l-12.9,25.7L1285.5,560.5z M1149.9,128.1l3.5-2.3l-2.3-5.8l-3.5,4.7L1149.9,128.1z M1194.3,228.6v5.8l-5.8,8.2l1.2,3.5l4.7-1.2
		l7-14l3.5-3.5l2.3-9.3l9.3-21l-4.7,1.2l-5.8,5.8l-4.7,17.5l-3.5,3.5L1194.3,228.6z M1255.1,433.1l3.5-8.2v-4.7l-4.7-2.3l-1.2,10.5
		L1255.1,433.1z M1274.9,492.7l3.5-1.2l7-18.7l-5.8-1.2l-5.8,4.7l-1.2,10.5L1274.9,492.7z M1194.3,186.5l-3.5,2.3l-4.7,8.2v8.2
		l2.3,4.7l3.5-3.5l-1.2-9.3l5.8-8.2l8.2-22.2l-7-2.3L1194.3,186.5z M1166.3,136.3l3.5-2.3l1.2-4.7l-4.7,2.3V136.3z M1334.5,666.8
		l4.7-2.3l2.3-8.2v-3.5l-5.8,5.8l-1.2,4.7V666.8z M1311.2,566.3l-2.3-2.3h-3.5l1.2,5.8l4.7,1.2l5.8-8.2l8.2-16.4l-3.5-3.5l-4.7-1.2
		l-5.8,18.7V566.3z M1320.5,604.9l3.5-1.2l-3.5-2.3l-2.3,2.3L1320.5,604.9z M1229.4,256.6v4.7l-7,16.4l-1.2,12.9l2.3,5.8l4.7-8.2
		l4.7-21l4.7-2.3l1.2-3.5l-1.2-5.8L1229.4,256.6z M1259.7,414.4l4.7-1.2l2.3-4.7l1.2-4.7l-3.5-2.3l-4.7,7L1259.7,414.4z
		 M1253.9,327.9l-4.7,1.2l-8.2,22.2l3.5-1.2l8.2-7l3.5-8.2v-3.5L1253.9,327.9z M1180.3,156.1l2.3,4.7l3.5-2.3v-4.7l2.3-4.7l3.5-1.2
		l2.3-4.7l-5.8-1.2l-4.7,10.5L1180.3,156.1z M1272.6,436.6l14-4.7v-7l-4.7-1.2l-3.5,1.2l-4.7,7L1272.6,436.6z M1333.4,622.4l4.7-2.3
		l1.2-4.7l-2.3-4.7l-3.5,1.2v5.8V622.4z M1215.3,248.4l5.8-1.2v-7l-3.5-3.5l-2.3,4.7V248.4z M1177.9,124.6l4.7-3.5l-5.8-1.2
		L1177.9,124.6z M1292.5,461.1l-3.5-3.5l-4.7-1.2l1.2,4.7l3.5,1.2L1292.5,461.1z M1327.5,589.7l2.3-3.5l-3.5-1.2L1327.5,589.7z
		 M1297.1,488h4.7l2.3-3.5h-4.7L1297.1,488z M1343.9,636.4l4.7,7l3.5,1.2l2.3-14l-1.2-2.3l-3.5,8.2L1343.9,636.4z M1266.8,392.2
		l2.3,7l5.8-1.2l3.5-7l1.2-9.3l-4.7,1.2l-4.7,7L1266.8,392.2z M1264.4,361.8l4.7-10.5v-5.8l-2.3-2.3l1.2,4.7l-4.7,7v3.5
		L1264.4,361.8z M1291.3,452.9l3.5-2.3l4.7-11.7l-3.5-2.3l-4.7,8.2l-1.2,4.7L1291.3,452.9z M1334.5,581.5l1.2-4.7l5.8-8.2v-5.8
		l-4.7,1.2l-4.7,2.3l-1.2,9.3L1334.5,581.5z M1313.5,514.9l7-5.8l1.2-8.2l-4.7,1.2l-3.5,3.5l-1.2,4.7L1313.5,514.9z M1364.9,671.5
		l4.7-7l1.2-4.7l-3.5-3.5l-5.8,8.2v4.7L1364.9,671.5z M1194.3,136.3l8.2-4.7l3.5-4.7l1.2-4.7l-3.5-3.5h-3.5l-4.7,12.9L1194.3,136.3z
		 M1285.5,410.9l3.5-1.2V405l-4.7,1.2L1285.5,410.9z M1218.8,190l12.9-12.9l-1.2-4.7l1.2-8.2l-3.5-1.2l-10.5,23.4L1218.8,190z
		 M1331,531.2l3.5-2.3l-1.2-4.7l-3.5,2.3L1331,531.2z M1342.7,551.1l3.5-3.5l-1.2-5.8l-3.5,1.2l-1.2,4.7L1342.7,551.1z
		 M1215.3,149.1l3.5-1.2l-1.2-3.5l-3.5,1.2L1215.3,149.1z M1255.1,275.3l3.5-1.2l-1.2-3.5l-3.5,1.2L1255.1,275.3z M1374.3,648.1
		l3.5-2.3l-1.2-4.7l-2.3,2.3L1374.3,648.1z M1273.8,329.1l3.5,3.5l2.3-4.7L1273.8,329.1z"/>
	<path d="M1456.1,45.1l5.8-2.3l2.3,3.5l2.3,2.3l1.2,5.8l-3.5,3.5l7,7l-1.2,4.7l-5.8,7l-1.2,4.7l3.5,1.2l7-7l15.2,51.4l-3.5,3.5
		l-1.2,4.7h5.8l11.7,26.9l9.3,35.1l-2.3-2.3l14,35.1l2.3,12.9l2.3,4.7l3.5,18.7l3.5,12.9l5.8,9.3v9.3l5.8,7l-1.2,11.7l10.5,14
		l-1.2,9.3l2.3,14l-1.2,4.7l5.8,4.7l-1.2,4.7l7,2.3v17.5l8.2,9.3l-1.2,4.7l9.3,29.2l1.2,9.3l-2.3,3.5l3.5,2.3l8.2,1.2l3.5,3.5
		l4.7-1.2h10.5l25.7-9.3l7,1.2l19.9-9.3l11.7,2.3l7-5.8l5.8-2.3l5.8,19.9l5.8-5.8l4.7-7v-9.3h4.7l1.2,4.7l10.5-11.7l4.7-2.3l8.2,4.7
		l18.7-12.9l9.3-1.2v4.7l-3.5,8.2l-8.2,7v4.7l-7,18.7v4.7l-7,7l-10.5,15.2l-11.7,25.7l-7,2.3l1.2,8.2l-4.7,8.2l-2.3,9.3l-5.8,5.8
		l-1.2,2.3l1.2,5.8h4.7l8.2-16.4l7-5.8l5.8-24.5l8.2-7l4.7-8.2l2.3-9.3V467l7-5.8l24.5-43.2l1.2-8.2l-1.2-4.7l12.9-2.3l4.7-3.5
		l-5.8,22.2l1.2,3.5l-4.7,2.3l-5.8,7l-2.3,7v9.3l-9.3,5.8l-8.2,16.4l3.5,3.5l5.8-1.2l5.8-4.7l9.3-17.5l8.2-9.3l-1.2-5.8l7-5.8
		l2.3-9.3V412l-1.2-4.7l3.5-1.2l4.7,2.3l7-5.8l4.7-9.3l5.8-5.8l5.8-1.2l1.2,3.5l-4.7,12.9l1.2,5.8l-21,32.7l-15.2,33.9l-8.2-2.3
		l-2.3,3.5l3.5,5.8l-7,2.3l1.2,9.3l8.2-7l3.5-10.5l12.9-18.7l1.2-4.7l7-5.8l7-16.4l2.3-10.5l7-5.8l1.2-9.3l4.7-7v-4.7l4.7-1.2
		l12.9-16.4l5.8-1.2l8.2,10.5h3.5l5.8-3.5l-2.3-7h4.7l3.5,3.5l4.7,9.3l-9.3,11.7l4.7,5.8l5.8-4.7v-4.7l4.7,1.2l1.2,2.3l1.2,15.2
		l3.5,5.8l-1.2,2.3l-8.2-2.3l-1.2,5.8l3.5,1.2l9.3-2.3l5.8,9.3l3.5,2.3l7,37.4l11.7,25.7l-2.3,4.7l-3.5,10.5l-3.5-2.3l-1.2,8.2
		l-4.7,2.3l-15.2,2.3l-7,5.8l-32.7,10.5h-10.5l-12.9,7l-24.5,4.7l-7,5.8l-36.2,10.5l-7,5.8l-18.7,1.2l-17.5,10.5L1705,585l-8.2,5.8
		l-28,5.8l-17.5,9.3l-8.2,2.3l-5.8-1.2l-4.7,2.3l-1.2,3.5l-9.3,1.2l-26.9,9.3l-18.7,2.3l-5.8,5.8l-19.9,7l-18.7,2.3l-3.5,3.5
		l-12.9,4.7l-19.9-1.2l-8.2-4.7l-3.5-9.3l-4.7-2.3l-22.2-71.3l-10.5-29.2l3.5-8.2l-5.8-8.2l-3.5-11.7l3.5-3.5l3.5-14l-14-14v-10.5
		l-8.2-3.5l-3.5-3.5l2.3-3.5l-4.7-10.5l5.8-3.5l-2.3-5.8l-4.7-2.3l-3.5-3.5l2.3-2.3h4.7l-1.2-9.3l-4.7-2.3h-5.8l2.3-4.7l-5.8-12.9
		l9.3,2.3l3.5-8.2l1.2-8.2h-4.7l-8.2,4.7l-2.3-4.7h-4.7v-5.8l2.3-3.5l5.8-1.2l-2.3-4.7l-8.2-4.7v-4.7h-3.5l-4.7,1.2l-1.2-9.3
		l4.7-15.2l-3.5-2.3h-5.8l-7-12.9v-4.7l2.3-3.5l4.7-2.3l-2.3-4.7l-12.9-8.2l-1.2-5.8l4.7-11.7l-4.7-2.3l-5.8-7l-7-26.9l8.2-8.2
		l-3.5-3.5l-9.3,2.3v-10.5l-2.3-9.3l-11.7-25.7l-1.2-8.2l1.2-8.2l2.3-3.5h-3.5l-4.7,3.5l-1.2-9.3l-4.7-15.2l1.2-8.2l-9.3-10.5
		l-2.3-9.3l1.2-3.5l3.5-1.2l-7-5.8l-7-12.9l5.8-9.3l-3.5-7l-3.5-10.5l7-5.8l4.7-2.3l2.3,4.7l-3.5,3.5l4.7,2.3h9.3l1.2-4.7l-4.7-8.2
		l35.1-11.7l12.9-1.2l7-4.7l26.9-10.5l3.5-3.5l9.3,1.2l7-5.8h9.3l12.9,1.2l4.7,8.2l4.7,12.9h-1.2l-1.2,0V45.1z M1430.4,477.5
		l4.7-1.2l3.5,11.7h-4.7l-2.3-4.7L1430.4,477.5z M1435,451.8l-1.2-4.7l-8.2,2.3l2.3,4.7h4.7L1435,451.8z M1391.8,316.2l7-7l-5.8,1.2
		L1391.8,316.2z M1407,353.6l3.5-2.3l-1.2-4.7l-2.3,3.5L1407,353.6z M1425.7,410.9l2.3-1.2V405l-3.5,1.2L1425.7,410.9z
		 M1440.9,423.7l4.7,5.8l-11.7,3.5l3.5,4.7l4.7,1.2l11.7-9.3v-14l1.2-3.5l3.5-3.5l-1.2-5.8l8.2-9.3l1.2-4.7l-7-2.3l-9.3,15.2
		l-7,16.4L1440.9,423.7z M1450.2,255.4l-5.8,1.2l-5.8,17.5l-26.9,49.1l-7,17.5l9.3-3.5l2.3-3.5l2.3-9.3l5.8-8.2l8.2-23.4l12.9-15.2
		l4.7-8.2l3.5-14L1450.2,255.4z M1378.9,253.1l3.5-8.2v-8.2h-5.8v14L1378.9,253.1z M1388.3,282.3l1.2,2.3l2.3-2.3l-2.3-2.3
		L1388.3,282.3z M1367.3,166.6l-7,2.3l-2.3,12.9l2.3,3.5l3.5,2.3l15.2-32.7l4.7-1.2l1.2-12.9h-12.9l-2.3,10.5l-4.7,8.2v4.7
		L1367.3,166.6z M1329.9,88.3l3.5-1.2l-4.7-2.3L1329.9,88.3z M1408.2,226.2l-3.5,9.3v5.8l-7,8.2l-7,18.7l-2.3,4.7l2.3,4.7l4.7,2.3
		l2.3-9.3l18.7-42.1l-3.5-2.3H1408.2z M1398.8,303.4l4.7,1.2l3.5-3.5l4.7-9.3v-5.8l-4.7,1.2L1398.8,303.4z M1449.1,463.5l14,1.2
		l-5.8-2.3l-2.3-5.8l12.9-15.2l1.2-4.7l-3.5-3.5h-4.7l-2.3,8.2l-9.3,15.2l-1.2,4.7L1449.1,463.5z M1341.5,118.7l4.7-3.5l2.3-3.5
		v-5.8l-4.7,2.3l-2.3,3.5V118.7z M1478.3,549.9l2.3,3.5h3.5l1.2-3.5l-2.3-3.5L1478.3,549.9z M1485.3,435.4l-2.3,10.5l-17.5,26.9
		l-2.3,10.5v5.8l5.8-2.3l12.9-18.7l-2.3-4.7l1.2-3.5l4.7,2.3l3.5-3.5l3.5-10.5l2.3-2.3l5.8,1.2l-2.3-4.7l-5.8-3.5l-1.2-4.7
		L1485.3,435.4z M1375.4,207.5l4.7-8.2l11.7-15.2l10.5-9.3l-4.7-12.9l-22.2,28l-2.3,8.2l1.2,3.5L1375.4,207.5z M1430.4,350.1
		l-5.8,8.2l1.2,4.7l3.5,3.5l1.2-4.7l5.8-12.9l3.5-2.3l1.2-3.5l-1.2-4.7h-3.5l-5.8,7V350.1z M1474.8,520.7l7-2.3l-3.5-3.5
		L1474.8,520.7z M1432.7,381.7l4.7,15.2l4.7-7l3.5-14l-8.2,3.5L1432.7,381.7z M1473.6,510.2h5.8l7-7l-3.5-3.5h-4.7l-3.5,2.3
		l-2.3,4.7L1473.6,510.2z M1355.6,133.9l1.2,3.5l7-3.5l5.8-18.7l3.5,2.3l-1.2-5.8l3.5-5.8l4.7-1.2l-1.2-8.2l-9.3,5.8l-4.7,8.2
		l-7,18.7L1355.6,133.9z M1386,225.1l3.5,5.8l3.5-3.5l4.7-7l7-17.5l5.8-5.8l4.7-1.2l5.8,1.2l-5.8-9.3l3.5-2.3l2.3-8.2l-3.5-3.5v-3.5
		l-3.5-1.2l-2.3,9.3l-7,16.4l-16.4,28L1386,225.1z M1488.8,540.6l11.7-11.7l-3.5-3.5l-3.5,1.2l-3.5,3.5l-2.3,4.7L1488.8,540.6z
		 M1499.3,568.6l9.3-12.9l1.2-4.7l-3.5-2.3h-4.7L1497,564L1499.3,568.6z M1414,277.7l11.7-5.8v-7l-8.2-1.2l-3.5,9.3V277.7z
		 M1486.5,497.3l4.7-2.3l2.3-4.7l1.2-10.5l-3.5-2.3l-3.5,1.2l-3.5,8.2v4.7L1486.5,497.3z M1478.3,414.4l-9.3-5.8l1.2,5.8l3.5,2.3
		l-4.7,2.3l-2.3,3.5l1.2,3.5l3.5,1.2l5.8-1.2l2.3-8.2l5.8-7v-9.3l-8.2-3.5l1.2,10.5V414.4z M1494.6,509l5.8,1.2l2.3-8.2h-4.7
		l-3.5,2.3L1494.6,509z M1438.5,327.9l3.5,1.2l3.5-2.3l-2.3-7l-4.7,2.3L1438.5,327.9z M1529.7,486.8l2.3,8.2l-1.2,2.3l2.3,7
		l-2.3,3.5l-7-2.3l-4.7,17.5l-4.7,8.2l-3.5,2.3l-5.8,2.3l3.5,5.8l9.3-3.5l4.7,1.2l3.5-10.5l5.8-8.2l4.7-1.2l-2.3-3.5l3.5-8.2
		l4.7,2.3l1.2,5.8l4.7,1.2l1.2-3.5l5.8-4.7l14-4.7l-2.3-5.8l4.7-3.5v-10.5h10.5l-7-8.2h-3.5l-5.8,4.7l-10.5,17.5l-7,5.8h-3.5
		l-5.8-1.2l3.5-7l2.3-11.7l-1.2-5.8l-9.3,7L1529.7,486.8z M1377.8,129.2l2.3,4.7l3.5,1.2l2.3,4.7l4.7-2.3l5.8-7l1.2-3.5l-2.3-4.7
		l-15.2,3.5L1377.8,129.2z M1353.2,50.9h3.5v-3.5h-3.5V50.9z M1460.7,338.4l-7,4.7l-2.3,8.2l1.2,9.3l10.5-9.3l4.7-7l3.5-8.2l1.2-14
		h-4.7l-5.8,14L1460.7,338.4z M1421,253.1l4.7,7l5.8-2.3l-3.5-3.5l-4.7-2.3L1421,253.1z M1501.6,303.4l-1.2,4.7l-15.2,23.4v10.5
		l-4.7,7l-4.7,2.3v9.3l-7,4.7l-8.2,11.7v4.7l9.3-2.3l9.3-11.7V363l4.7-8.2l10.5-15.2l-4.7-5.8l2.3-3.5l8.2-1.2l5.8-10.5l-2.3-7
		l2.3-3.5l5.8-5.8l3.5-8.2h-4.7l-2.3,4.7L1501.6,303.4z M1460.7,291.7l-3.5,3.5l-8.2,14v3.5l-4.7,1.2v3.5l12.9-8.2v-5.8l7-5.8v-4.7
		l5.8-9.3l-2.3-7l7-1.2l4.7-12.9h-7l-3.5,8.2l-9.3,10.5l-1.2,4.7L1460.7,291.7z M1501.6,476.3l-2.3-7l-3.5-2.3l1.2,8.2l-1.2,3.5
		L1501.6,476.3z M1433.9,164.3v7l-5.8,5.8l3.5,5.8l-9.3,16.4l-3.5,2.3l1.2,12.9l-5.8,4.7v4.7h7l3.5-8.2l3.5-14l7-2.3l9.3-22.2v-5.8
		l5.8-7l1.2-3.5l-1.2-5.8l-11.7,11.7L1433.9,164.3z M1525,572.1l7-2.3l2.3-15.2l-8.2,1.2l-3.5,5.8l1.2,4.7L1525,572.1z M1505.1,502
		l2.3,3.5h3.5l-1.2-7L1505.1,502z M1402.3,132.7l1.2,5.8l-7,15.2v3.5l2.3,3.5l11.7-3.5l-1.2-9.3l10.5-15.2l1.2-4.7l-4.7-2.3h-3.5
		l-7,4.7L1402.3,132.7z M1426.9,247.3l10.5-1.2v-5.8l7-5.8l-2.3-5.8l5.8-3.5v-4.7l1.2-3.5l3.5-3.5l2.3-10.5l5.8-8.2l4.7-3.5
		l9.3-24.5l-3.5-3.5l-4.7-1.2l-2.3,3.5v15.2l-2.3,3.5l-3.5,1.2l-8.2,11.7l-2.3-3.5l-4.7-1.2l-3.5,2.3l8.2,3.5l-10.5,17.5v4.7
		l2.3,4.7l-14,10.5l-1.2,3.5L1426.9,247.3z M1380.1,95.3l3.5-3.5l1.2-4.7h-7v3.5L1380.1,95.3z M1527.4,457.6l-9.3,5.8l3.5,11.7
		l-18.7,10.5l2.3,4.7l4.7,2.3l5.8-3.5h4.7l11.7-19.9l1.2-4.7l-1.2-11.7l3.5-2.3l1.2-4.7l-4.7,1.2l-3.5,7l-8.2-3.5v4.7l3.5,1.2
		L1527.4,457.6z M1370.8,62.6h5.8l-3.5-3.5L1370.8,62.6z M1536.7,583.8l7,5.8l3.5-3.5l2.3-3.5l-1.2-4.7l-2.3-2.3l-2.3,3.5l-5.8,1.2
		L1536.7,583.8z M1490,430.7l4.7,3.5l3.5-3.5l1.2-5.8l-2.3-8.2l-7,10.5L1490,430.7z M1499.3,462.3l12.9-2.3l-1.2-5.8l4.7-7l1.2-4.7
		l-4.7-4.7l-11.7,19.9L1499.3,462.3z M1391.8,112.9l8.2,1.2l3.5-1.2l-3.5-11.7l5.8,1.2l-1.2-5.8l-5.8,2.3l-5.8,5.8v3.5L1391.8,112.9
		z M1383.6,80.2l3.5,3.5l4.7-1.2l-2.3-7L1383.6,80.2z M1513.3,329.1l2.3,8.2l-19.9,19.9l4.7,8.2l-5.8,7l-4.7,12.9l-4.7,3.5l-1.2,4.7
		l2.3,4.7l8.2-7l2.3-15.2l7-3.5l2.3-9.3l15.2-29.2l1.2-10.5l-3.5,3.5L1513.3,329.1z M1530.9,534.7l4.7-1.2l-2.3-4.7l-2.3-1.2V534.7z
		 M1414,157.3l2.3,4.7l11.7,2.3l3.5-7l7-7l-3.5-3.5h-3.5l-12.9,10.5L1414,157.3z M1389.5,74.3l4.7-2.3l3.5-3.5l1.2-4.7l-3.5-1.2
		l-4.7,1.2l-3.5,3.5v3.5L1389.5,74.3z M1499.3,413.2h3.5l8.2-2.3l1.2-4.7l8.2-10.5l-4.7-2.3l-8.2,2.3l-5.8,8.2l-2.3,4.7
		L1499.3,413.2z M1549.6,560.5V571l8.2-2.3v-9.3l-3.5-1.2L1549.6,560.5z M1471.3,212.2l-5.8,7l-14,30.4l9.3,1.2l-2.3,4.7l1.2,3.5
		l9.3-16.4l7-17.5l1.2-8.2l-1.2-9.3l7-8.2l1.2-5.8V190l-11.7,14l-1.2,4.7V212.2z M1475.9,317.4l10.5-9.3l-3.5-4.7h-3.5l-5.8,7v4.7
		L1475.9,317.4z M1522.7,424.9l-8.2,2.3l-3.5,3.5l3.5,4.7l9.3-2.3v-4.7l7-3.5l-2.3-16.4l-2.3-1.2l-1.2,14L1522.7,424.9z
		 M1563.6,594.3l3.5-4.7l-3.5-3.5l-1.2,2.3L1563.6,594.3z M1418.7,62.6l-1.2,4.7L1407,79l-3.5,8.2l1.2,4.7l8.2-11.7l8.2-2.3v-9.3
		l2.3-4.7L1418.7,62.6z M1574.1,509l-3.5,8.2l-10.5,16.4l1.2,9.3l-2.3,2.3l-1.2-2.3h-3.5l-2.3,4.7l1.2,4.7l11.7-1.2l8.2-15.2
		l5.8-5.8l1.2-9.3l3.5-3.5l-4.7-8.2L1574.1,509z M1418.7,121.1l11.7-15.2V100l-3.5,1.2l-8.2,7l-2.3,9.3L1418.7,121.1z M1550.7,521.9
		l2.3,4.7l3.5-1.2l1.2-2.3l-1.2-3.5l-2.3,0l-3.5,1.2V521.9z M1511,388.7l11.7-2.3l-3.5-7l12.9-7l-4.7-5.8l-9.3,5.8l-4.7,8.2
		l-1.2,4.7L1511,388.7z M1574.1,587.3l3.5-1.2l-1.2-3.5l-3.5,1.2L1574.1,587.3z M1579.9,604.9l3.5,3.5l4.7-2.3l-4.7-3.5
		L1579.9,604.9z M1574.1,575.6l5.8-1.2l5.8-9.3l-14,2.3v4.7L1574.1,575.6z M1438.5,138.6v-4.7l9.3-10.5l-1.2-5.8l-8.2,7l-5.8,8.2
		l1.2,3.5L1438.5,138.6z M1553.1,452.9l-1.2-4.7h-2.3l-5.8,11.7l-1.2,8.2l1.2,9.3h9.3l3.5-3.5v-3.5l-5.8-5.8l4.7-2.3h4.7l4.7-2.3
		l1.2-4.7l-2.3-16.4h-4.7l-1.2,10.5L1553.1,452.9z M1491.1,268.3l-5.8,18.7v3.5l3.5,3.5l1.2-4.7l10.5-17.5v-4.7l-2.3-2.3
		L1491.1,268.3z M1482.9,226.2l1.2,9.3l-5.8,12.9v4.7l2.3,4.7l3.5-3.5v-5.8l4.7-8.2l2.3-10.5v-5.8h-3.5L1482.9,226.2z M1428,93
		l5.8,1.2v-3.5l-2.3-1.2L1428,93z M1540.2,444.8l3.5-1.2l-1.2-2.3l-3.5,1.2L1540.2,444.8z M1562.4,517.2l3.5-1.2l-1.2-2.3l-3.5,1.2
		L1562.4,517.2z M1542.5,435.4l11.7-7l1.2-8.2l-4.7-1.2l-4.7,2.3l-3.5,4.7l-1.2,5.8L1542.5,435.4z M1453.7,151.4l8.2-2.3l-3.5-3.5
		h-5.8L1453.7,151.4z M1532,398l4.7-1.2l5.8-3.5l-1.2-4.7l-2.3,3.5l-3.5-1.2l-2.3,3.5L1532,398z M1581.1,535.9l7,4.7l1.2-5.8
		l-2.3-4.7l-4.7,2.3L1581.1,535.9z M1610.3,545.3h-4.7l-4.7,5.8l-4.7,1.2l-3.5-9.3l-7,5.8l4.7,9.3l22.2-2.3l12.9-3.5l2.3-2.3
		l2.3,4.7l4.7,3.5l9.3-1.2l-1.2-9.3l9.3-5.8v-10.5l-4.7,2.3l-5.8,5.8l-4.7-2.3l-9.3,2.3h-4.7v-4.7l3.5-3.5v-4.7l-7,1.2l-1.2,4.7
		l-5.8,7L1610.3,545.3z M1423.3,28.7l3.5-1.2l-4.7-2.3L1423.3,28.7z M1447.9,105.9l4.7,2.3l3.5-3.5l-2.3-3.5l-4.7,1.2L1447.9,105.9z
		 M1530.9,363l4.7-3.5v-5.8h-4.7l-2.3,4.7L1530.9,363z M1459.6,129.2l5.8-2.3l-1.2-4.7l-4.7,1.2V129.2z M1575.3,491.5l3.5-1.2
		l-1.2-3.5l-3.5,1.2L1575.3,491.5z M1504,262.5l5.8-1.2l-1.2-5.8h-3.5l-1.2,3.5L1504,262.5z M1583.4,495l-2.3-3.5l-4.7,1.2l5.8,8.2
		l7,4.7l1.2-8.2h4.7l5.8,7h4.7l-1.2,4.7l-3.5,2.3l-3.5-3.5l-3.5-1.2l2.3,8.2l9.3,5.8l4.7,1.2l1.2,4.7l2.3,3.5l4.7-2.3l2.3-3.5v-4.7
		h-7l-1.2-9.3l3.5-8.2l1.2-8.2l-3.5-1.2l-14,1.2v-9.3l-4.7,3.5h-3.5l-5.8-2.3l1.2,9.3H1583.4z M1544.9,370l1.2-3.5l-3.5-1.2
		L1544.9,370z M1577.6,464.6l3.5-1.2v-4.7l-5.8,3.5L1577.6,464.6z M1597.5,532.4l4.7-3.5l1.2-5.8h-3.5l-3.5,2.3L1597.5,532.4z
		 M1446.7,40.4l-1.2-3.5h-3.5v3.5H1446.7z M1590.5,476.3l7-4.7l-1.2-5.8l-4.7,2.3l-1.2,3.5V476.3z M1620.8,572.1l2.3,3.5h3.5
		l4.7-15.2l-4.7,3.5l-2.3,3.5L1620.8,572.1z M1589.3,456.4l2.3,4.7l3.5,1.2l4.7-9.3v-4.7l-7,5.8L1589.3,456.4z M1461.9,42.8
		l-1.2-3.5h9.3L1461.9,42.8z M1601,471.6h3.5l5.8-8.2l3.5-8.2l-7,5.8l-4.7,7L1601,471.6z M1631.4,548.8l2.3-1.2l3.5,1.2l-3.5,4.7
		l-1.2-2.3L1631.4,548.8z M1650.1,558.1l1.2,5.8l-4.7,9.3l2.3,4.7l3.5-3.5l8.2-16.4l3.5-2.3h4.7l2.3-4.7l-3.5-10.5h-4.7l-4.7,8.2
		l-5.8,7L1650.1,558.1z M1626.7,506.7l4.7,2.3l1.2,3.5l-2.3,4.7l3.5,2.3l3.5-3.5v-4.7l3.5-3.5l-2.3-4.7l-8.2-3.5l-2.3-2.3v4.7
		L1626.7,506.7z M1619.7,471.6l2.3,11.7l3.5,3.5l2.3,1.2l3.5-2.3l-3.5-3.5l9.3-16.4l-2.3-3.5l-9.3,8.2L1619.7,471.6z M1637.2,492.7
		l2.3,4.7l3.5,2.3v-7l7,2.3l4.7-2.3l-2.3-8.2v-9.3h-5.8v4.7l-7,10.5L1637.2,492.7z M1659.4,496.2l1.2,4.7l-8.2,10.5l-3.5-1.2
		l-4.7,1.2l4.7,3.5h9.3l2.3-2.3l4.7-12.9l8.2-4.7v-4.7l10.5-12.9v-9.3l-5.8,1.2l-7,5.8l-3.5,8.2l-4.7,7L1659.4,496.2z M1636,460
		l9.3-3.5l2.3-2.3l-2.3-7l-5.8,1.2l-4.7,7L1636,460z M1669.9,539.4l8.2-4.7l1.2-8.2l-4.7,1.2l-3.5,3.5l-2.3,3.5L1669.9,539.4z
		 M1668.8,518.4h4.7l-3.5-3.5L1668.8,518.4z M1654.7,470.5l7-5.8h-8.2L1654.7,470.5z M1659.4,456.4l7-1.2l-2.3-3.5l-2.3-1.2
		L1659.4,456.4z M1680.4,517.2h9.3l-5.8-7l-4.7,1.2v2.3L1680.4,517.2z M1693.3,556.9l3.5-2.3l1.2-4.7l-1.2-5.8l-4.7,1.2l1.2,5.8
		L1693.3,556.9z M1666.4,445.9l9.3-5.8l-7-5.8l-2.3,7V445.9z M1686.3,504.4l8.2-4.7l1.2-4.7l-4.7,1.2l-2.3,4.7L1686.3,504.4z
		 M1707.3,549.9l3.5,4.7l3.5,2.3h3.5l2.3-4.7l-3.5-3.5l-4.7-1.2L1707.3,549.9z M1682.8,467l4.7-1.2l3.5-5.8l-3.5-7v-4.7l-5.8,5.8
		v8.2L1682.8,467z M1701.5,479.8l-4.7-3.5l-4.7,7l4.7,7h4.7l8.2-17.5l10.5-17.5l4.7-3.5l2.3-9.3l7-18.7l-4.7-1.2l-2.3-3.5l-3.5-1.2
		v17.5l-8.2,5.8l-9.3,16.4l-3.5,3.5l1.2,4.7L1701.5,479.8z M1724.8,516l1.2,12.9l-5.8,1.2l-3.5,4.7l5.8,7h4.7l2.3-9.3l9.3-11.7
		l-2.3-9.3l7-1.2l-1.2-5.8l2.3-3.5h3.5l3.5-2.3l2.3-4.7V488l-4.7-1.2l-4.7,1.2l-5.8,7l-10.5,18.7L1724.8,516z M1742.4,556.9l3.5-1.2
		l-1.2-3.5l-3.5,1.2L1742.4,556.9z M1745.9,533.6l1.2,4.7l-2.3,4.7l3.5-2.3l8.2-2.3l4.7-18.7l8.2-7l3.5-8.2l-2.3-5.8l-8.2,7
		l-12.9,24.5L1745.9,533.6z M1758.7,483.3l-5.8-5.8l-4.7,1.2l1.2,4.7l4.7,1.2L1758.7,483.3z M1782.1,521.9l4.7,1.2l3.5-2.3l4.7-8.2
		l1.2-9.3l-3.5-2.3h-5.8l-3.5,16.4L1782.1,521.9z M1799.6,538.2l4.7-1.2l-3.5-5.8L1799.6,538.2z M1837,405l4.7,8.2l-8.2,7l-4.7,7
		l-3.5,18.7l-7,2.3l-3.5,8.2l3.5,2.3l-5.8,1.2h-3.5l-2.3,9.3l-1.2,15.2l-3.5-2.3l-1.2-5.8l-5.8,8.2V495h4.7l7-4.7l12.9-16.4
		l-1.2-10.5l7-7l8.2-16.4l8.2-11.7v-4.7l3.5-8.2l1.2-9.3l3.5-3.5l2.3-11.7l-8.2-7l2.3,9.3l-3.5,8.2L1837,405z M1823,497.3l2.3-4.7
		l-2.3-4.7l-3.5,1.2l1.2,4.7L1823,497.3z M1851.1,443.6l-4.7,2.3l-7,7l1.2,10.5l-7,5.8l-5.8,7l-1.2,8.2l4.7,1.2l9.3-8.2l-1.2-5.8
		l12.9-23.4l-2.3-7l3.5-2.3l-1.2-3.5l-4.7,2.3L1851.1,443.6z M1847.5,499.7l-1.2-5.8l-2.3,4.7L1847.5,499.7z M1854.6,493.8l2.3-3.5
		v-4.7h-7v5.8L1854.6,493.8z M1856.9,481l3.5-1.2l11.7-15.2l-1.2-5.8l-3.5-2.3l-10.5,18.7V481z M1827.7,380.5l4.7,1.2l-4.7,1.2
		V380.5z M1855.7,428.4l4.7-2.3v-3.5l-3.5,2.3L1855.7,428.4z M1869.8,456.4l4.7-2.3l1.2-3.5v-3.5l-4.7,1.2l-1.2,3.5V456.4z"/>
</g>
</svg>
