<?xml version="1.0" encoding="utf-8"?>
<!-- Generator: Adobe Illustrator 18.1.1, SVG Export Plug-In . SVG Version: 6.00 Build 0)  -->
<svg version="1.1" id="Layer_1" xmlns="http://www.w3.org/2000/svg" xmlns:xlink="http://www.w3.org/1999/xlink" x="0px" y="0px"
	 viewBox="0 0 283.8 126.5" enable-background="new 0 0 283.8 126.5" xml:space="preserve">
<g opacity="0.2">
	<path d="M5.9,126.5L24.6,8.2h68.9l-3.4,22.1H45.1l-4.4,28.2h42.2l-3.7,22.3h-42l-7.3,45.8H5.9z"/>
	<path d="M149.8,8l17.7,118.5h-24.1l-3-23.5h-35.6l-10.1,23.5h-24L125.8,8H149.8z M114.3,81h23.1l-5.2-40.4L114.3,81z"/>
	<path d="M175.8,126.5L194.5,8.2h24l-18.7,118.4H175.8z"/>
	<path d="M280.3,126.5h-66.7L232.3,8.2h24L241,104.4h42.9L280.3,126.5z"/>
</g>
<g>
	<path fill="#FFFFFF" d="M0,118.5L18.7,0.2h68.9l-3.4,22.1H39.2l-4.4,28.2H77l-3.7,22.3h-42L24,118.5H0z"/>
	<path fill="#FFFFFF" d="M143.9,0l17.7,118.5h-24.1l-3-23.5H98.8l-10.1,23.5h-24L119.9,0H143.9z M108.4,73h23.1l-5.2-40.4L108.4,73z
		"/>
	<path fill="#FFFFFF" d="M169.9,118.5L188.6,0.2h24l-18.7,118.4H169.9z"/>
	<path fill="#FFFFFF" d="M274.4,118.5h-66.7L226.4,0.2h24l-15.4,96.3H278L274.4,118.5z"/>
</g>
</svg>
