<?xml version="1.0" encoding="utf-8"?>
<!-- Generator: Adobe Illustrator 18.1.0, SVG Export Plug-In . SVG Version: 6.00 Build 0)  -->
<svg version="1.1" id="Layer_1" xmlns="http://www.w3.org/2000/svg" xmlns:xlink="http://www.w3.org/1999/xlink" x="0px" y="0px"
	 viewBox="0 0 597.5 626.3" enable-background="new 0 0 597.5 626.3" xml:space="preserve">
<g opacity="0.1">
	<path d="M584.7,488.8c14.4,13.6,17,34.8,5.9,47.5c-24.6,31.4-51.8,58.5-83.1,83.1c-12.7,11-33.9,8.5-48.4-5.1L298.8,453.1
		L137.6,614.3c-13.6,13.6-34.8,16.1-48.4,5.1c-30.5-24.6-57.7-51.8-82.3-82.3c-11-13.6-8.5-34.8,5.1-48.4l161.2-161.2L12.8,167.2
		c-14.4-14.4-17-35.6-5.9-48.4c24.6-31.4,51.8-58.5,82.3-83.1c13.6-11,34.8-8.5,48.4,5.9l161.2,153.6L459.1,41.6
		c14.4-14.4,35.6-17,48.4-5.9c31.4,24.6,58.5,51.8,83.1,83.1c11,12.7,8.5,33.9-5.9,48.4L424.3,327.6L584.7,488.8z"/>
</g>
<g>
	<path fill="#FFFFFF" d="M584.7,459.9c14.4,13.6,17,34.8,5.9,47.5c-24.6,31.4-51.8,58.5-83.1,83.1c-12.7,11-33.9,8.5-48.4-5.1
		L298.8,424.3L137.6,585.5c-13.6,13.6-34.8,16.1-48.4,5.1C58.7,566,31.5,538.8,6.9,508.3c-11-13.6-8.5-34.8,5.1-48.4l161.2-161.2
		L12.8,138.3c-14.4-14.4-17-35.6-5.9-48.4C31.5,58.6,58.7,31.4,89.2,6.8c13.6-11,34.8-8.5,48.4,5.9l161.2,153.6L459.1,12.8
		c14.4-14.4,35.6-17,48.4-5.9C538.9,31.4,566,58.6,590.6,90c11,12.7,8.5,33.9-5.9,48.4L424.3,298.7L584.7,459.9z"/>
</g>
</svg>
