<?xml version="1.0" encoding="utf-8"?>
<!-- Generator: Adobe Illustrator 18.1.0, SVG Export Plug-In . SVG Version: 6.00 Build 0)  -->
<!DOCTYPE svg PUBLIC "-//W3C//DTD SVG 1.1//EN" "http://www.w3.org/Graphics/SVG/1.1/DTD/svg11.dtd">
<svg version="1.1" id="Layer_1" xmlns="http://www.w3.org/2000/svg" xmlns:xlink="http://www.w3.org/1999/xlink" x="0px" y="0px"
	 viewBox="0 0 286.1 86.3" enable-background="new 0 0 286.1 86.3" xml:space="preserve">
<g opacity="0.1">
	<polygon opacity="0.68" points="174.1,9 176.9,28.9 177.2,26.1 174.8,9.1 	"/>
	<polygon opacity="0.68" points="143.5,54.8 174.7,50.4 174.8,48.9 137.4,54.2 	"/>
</g>
<g opacity="0.1">
	<g>
		<path d="M286.6,59.2h-4.9v-2h4.9V59.2z M279.8,59.2h-4.9v-2h4.9V59.2z M272.9,59.2h-4.9v-2h4.9V59.2z M266.1,59.2h-4.9v-2h4.9
			V59.2z M259.3,59.2h-4.9v-2h4.9V59.2z M252.5,59.2h-4.9v-2h4.9V59.2z M245.6,59.2h-4.9v-2h4.9V59.2z M238.8,59.2h-4.9v-2h4.9V59.2
			z M232,59.2h-4.9v-2h4.9V59.2z"/>
	</g>
	<g>
		<polygon points="225.2,59.2 221.7,59.2 221.7,55.7 223.7,55.7 223.7,57.2 225.2,57.2 		"/>
	</g>
	<g>
		<path d="M223.7,53.6h-2v-5.1h2V53.6z M223.7,46.5h-2v-5.1h2V46.5z M223.7,39.3h-2v-5.1h2V39.3z M223.7,32.2h-2v-5.1h2V32.2z
			 M223.7,25h-2v-5.1h2V25z M223.7,17.9h-2v-5.1h2V17.9z M223.7,10.7h-2V5.6h2V10.7z"/>
	</g>
	<g>
		<polygon points="223.7,3.6 221.7,3.6 221.7,0.1 225.2,0.1 225.2,2.1 223.7,2.1 		"/>
	</g>
	<g>
		<path d="M286.6,2.1h-4.9v-2h4.9V2.1z M279.8,2.1h-4.9v-2h4.9V2.1z M272.9,2.1h-4.9v-2h4.9V2.1z M266.1,2.1h-4.9v-2h4.9V2.1z
			 M259.3,2.1h-4.9v-2h4.9V2.1z M252.5,2.1h-4.9v-2h4.9V2.1z M245.6,2.1h-4.9v-2h4.9V2.1z M238.8,2.1h-4.9v-2h4.9V2.1z M232,2.1
			h-4.9v-2h4.9V2.1z"/>
	</g>
</g>
<g>
	
		<rect x="195.6" y="4.6" transform="matrix(0.9979 -6.520337e-02 6.520337e-02 0.9979 -1.3872 15.3968)" opacity="0.8" fill="#FFFFFF" width="79.2" height="48.7"/>
	<g opacity="0.5">
		<path fill="#FFFFFF" d="M272.2,3.1l3,46.6l-77.1,5l-3-46.6L272.2,3.1 M273.1,2.1l-79.1,5.2l3.2,48.6l79.1-5.2L273.1,2.1L273.1,2.1
			z"/>
	</g>
</g>
<polygon opacity="0.2" points="274,3.4 273.2,3.5 276.3,50.7 198,55.8 198.1,57.2 277.2,52 "/>
<g id="_x39__3_">
	<g id="Color_40_">
		<path opacity="0.2" fill-rule="evenodd" clip-rule="evenodd" d="M246.3,31.5l12.1-10.5L246.8,11l-0.8,5.5c0,0-11.6-0.2-20.2,1.8
			c-10.3,2.4-18.9,5.7-18.8,5.9c0,0.2,9.9-2.1,21.7-1.9c9.5,0.2,17.8,2.9,17.8,2.9L246.3,31.5z M245.9,20.9c0.1-2.4,2.1-4.2,4.5-4.1
			c2.4,0.1,4.2,2.1,4.1,4.5s-2.1,4.2-4.5,4.1C247.7,25.2,245.8,23.2,245.9,20.9z"/>
		<path fill-rule="evenodd" clip-rule="evenodd" fill="#FFFFFF" d="M245.5,30.8l12.1-10.5L246,10.3l-0.8,5.5c0,0-11.6-0.2-20.2,1.8
			c-10.3,2.4-18.9,5.7-18.8,5.9c0,0.2,9.9-2.1,21.7-1.9c9.5,0.2,17.8,2.9,17.8,2.9L245.5,30.8z M245.1,20.2c0.1-2.4,2.1-4.2,4.5-4.1
			c2.4,0.1,4.2,2.1,4.1,4.5s-2.1,4.2-4.5,4.1C246.8,24.6,245,22.6,245.1,20.2z"/>
		<path opacity="0.2" d="M213.3,69.6c2.3,5.2,5,8.7,5.8,10.2c1.1,2.1,1.5,4.6,2.1,6.6h27.9c0-0.1,0-0.2,0.1-0.4
			c0.1-0.5-0.2-1.6-0.1-2.2c0.4-1.8,5.6-11.7,7.9-17.2c0.8-1.8,0.7-3.2,0.7-3.5c0.1-1.2,0-0.1-0.2-1.8c-0.1-0.8-0.1-4.1-0.6-6
			c-0.6-1.9-1.8-2.4-1.8-2.4s1.1-4.1,0.3-6.3c-0.8-2.2-3.1-2.4-3.1-2.4s0.3-2.1,0-4.7c-0.1-1.4-2-2.4-3.9-3.1
			c-3.4-0.9-6.3,1.6-6.3,1.6s3.9-5.7,5-7.9c0.4-0.7,2.5-3.2,3.8-5c0.9-1.3,1.5-1.8,2-3.2c0.4-1,0.5-1.7,0.2-2.2
			c-1.1-2.1-2.6-2.9-5.2-1.4c-1.1,0.7-4.9,5-7,8c-1.8,2.6-8.5,11.1-9.9,12.5c-2.1,2-2.5,3.3-4.3,6.6c-1.5,2.7-3,4.8-4,6
			c-0.5,0.7-1,1.5-1,1.5s-0.5-0.6-0.8-0.8c-0.4-0.2-1.6,0-1.6,0c0.1-0.6,0.6-0.3,1-1.6c0.4-1.3-0.3-1.8-0.2-2.3
			c0,0.1,1.3-0.3,2.3-1.9c0.8-1.3,1.8-2.4,2-3.6c0.2-1.1,0.2-2.2,0.1-2.7c-0.4-1.8-1.2-2.6-2.2-2.5c-1.8,0.1-3.4,3.2-3.6,3.3
			c-0.2,0.1-0.9,0.6-0.9,0.6s-1.9,0.3-4.1,2c-0.7,0.5-1.3,3.5-2.1,6.1c-0.9,3.2-2.4,6.1-2.1,8.2C209.8,59,211.3,65.1,213.3,69.6z"/>
		<path fill="#FFFFFF" d="M212.3,69.3c2.3,5.2,5,8.7,5.8,10.2c1.1,2.1,1.6,4.8,2.2,6.9h27.8c0-0.2,0.1-0.4,0.1-0.6
			c0.1-0.5-0.2-1.6-0.1-2.2c0.4-1.8,5.6-11.7,7.9-17.2c0.8-1.8,0.7-3.2,0.7-3.5c0.1-1.2,0-0.1-0.2-1.8c-0.1-0.8-0.1-4.1-0.6-6
			c-0.6-1.9-1.8-2.4-1.8-2.4s1.1-4.1,0.3-6.3c-0.8-2.2-3.1-2.4-3.1-2.4s0.3-2.1,0-4.7c-0.1-1.4-2-2.4-3.9-3.1
			c-3.4-0.9-6.3,1.6-6.3,1.6s3.9-5.7,5-7.9c0.4-0.7,2.5-3.2,3.8-5c0.9-1.3,1.5-1.8,2-3.2c0.4-1,0.5-1.7,0.2-2.2
			c-1.1-2.1-2.6-2.9-5.2-1.4c-1.1,0.7-4.9,5-7,8c-1.8,2.6-8.5,11.1-9.9,12.5c-2.1,2-2.5,3.3-4.3,6.6c-1.5,2.7-3,4.8-4,6
			c-0.5,0.7-1,1.5-1,1.5s-0.5-0.6-0.8-0.8c-0.4-0.2-1.6,0-1.6,0c0.1-0.6,0.6-0.3,1-1.6c0.4-1.3-0.3-1.8-0.2-2.3
			c0,0.1,1.3-0.3,2.3-1.9c0.8-1.3,1.8-2.4,2-3.6c0.2-1.1,0.2-2.2,0.1-2.7c-0.4-1.8-1.2-2.6-2.2-2.5c-1.8,0.1-3.4,3.2-3.6,3.3
			c-0.2,0.1-0.9,0.6-0.9,0.6s-1.9,0.3-4.1,2c-0.7,0.5-1.3,3.5-2.1,6.1c-0.9,3.2-2.4,6.1-2.1,8.2C208.8,58.7,210.3,64.9,212.3,69.3z"
			/>
	</g>
	<g id="Shadows_40_">
		
			<linearGradient id="SVGID_1_" gradientUnits="userSpaceOnUse" x1="529.5102" y1="-412.5496" x2="525.9236" y2="-404.5904" gradientTransform="matrix(0.6809 0.7323 -0.7323 0.6809 -416.2027 -68.5117)">
			<stop  offset="0" style="stop-color:#1D1D1B;stop-opacity:0"/>
			<stop  offset="1" style="stop-color:#1D1D1B"/>
		</linearGradient>
		<path opacity="0.5" fill="url(#SVGID_1_)" d="M238.4,43.8c-0.1,0.2,1.7-1.1,2.7-1.9c1.3-1.1,3-3.1,4.2-3.8c1.6-1,2.6-0.8,2.5-1.5
			c-1.9-0.2-2.6-0.2-3.2-0.2c-1.1,0.1-2.8,1.2-2.8,1.2S238.7,43,238.4,43.8z"/>
		
			<linearGradient id="SVGID_2_" gradientUnits="userSpaceOnUse" x1="491.8611" y1="-225.7248" x2="489.1004" y2="-224.6329" gradientTransform="matrix(0.8529 0.5221 -0.5221 0.8529 -285.8088 -17.1609)">
			<stop  offset="0" style="stop-color:#1D1D1B;stop-opacity:0"/>
			<stop  offset="1" style="stop-color:#1D1D1B"/>
		</linearGradient>
		<path opacity="0.5" fill="url(#SVGID_2_)" d="M248.2,51.1c0,0,0.4-1.6,1.2-3.6c0.7-2,2.1-4.8,2.1-4.8s0.3,0.7-0.3,2.3
			c-0.4,1.4-0.6,1-2.5,4.8C248.4,50.5,248.7,50,248.2,51.1z"/>
		
			<linearGradient id="SVGID_3_" gradientUnits="userSpaceOnUse" x1="506.1913" y1="-242.2924" x2="505.0107" y2="-241.8254" gradientTransform="matrix(0.8376 0.5462 -0.5462 0.8376 -301.9198 -19.9796)">
			<stop  offset="0" style="stop-color:#1D1D1B;stop-opacity:0"/>
			<stop  offset="1" style="stop-color:#1D1D1B"/>
		</linearGradient>
		<path opacity="0.5" fill="url(#SVGID_3_)" d="M253.1,56.4c0,0-0.3-0.6-0.1-1.7c0.2-1,1.7-4.2,1.7-4.2s-0.2,1.1-0.3,1.9
			c-0.1,0.7-0.3,0.4-1,2.3C253.2,55.1,253,55.4,253.1,56.4z"/>
		
			<linearGradient id="SVGID_4_" gradientUnits="userSpaceOnUse" x1="1375.3619" y1="-849.1678" x2="1370.6884" y2="-847.7833" gradientTransform="matrix(0.183 0.4497 -0.5364 0.2183 -463.0326 -411.1622)">
			<stop  offset="0" style="stop-color:#1D1D1B"/>
			<stop  offset="1" style="stop-color:#1D1D1B;stop-opacity:0"/>
		</linearGradient>
		<path opacity="0.5" fill="url(#SVGID_4_)" d="M242,23.5c-0.2,0.2-0.4,0-0.4,0l3.6-4c0,0,0.2-1,0.1-0.6c-0.1,0.4-0.2,0.8-0.2,0.8
			C244.8,19.9,242.2,23.3,242,23.5z"/>
		<linearGradient id="SVGID_5_" gradientUnits="userSpaceOnUse" x1="247.245" y1="25.7283" x2="251.0664" y2="27.7748">
			<stop  offset="0" style="stop-color:#1D1D1B"/>
			<stop  offset="1" style="stop-color:#1D1D1B;stop-opacity:0"/>
		</linearGradient>
		<path fill="url(#SVGID_5_)" d="M250.3,24.6l-4.2,5.8l4.9-4.3l1.6-2.8c0,0-0.6,0.5-1.2,0.9C250.8,24.6,250.3,24.6,250.3,24.6z"/>
	</g>
</g>
<g opacity="0.7">
	
		<rect x="97.4" y="5.3" transform="matrix(0.9901 -0.1401 0.1401 0.9901 -2.8044 19.4797)" opacity="0.4" fill="#FFFFFF" width="79.2" height="48.7"/>
	<g opacity="5.000000e-02">
		<path fill="#FFFFFF" d="M171.9,1.1l6.5,46.2L102,58.2l-6.5-46.2L171.9,1.1 M172.8,0L94.3,11.1l6.8,48.2l78.4-11.1L172.8,0L172.8,0
			z"/>
	</g>
</g>
<g opacity="0.5">
	
		<rect x="97.4" y="5.3" transform="matrix(0.9947 0.1027 -0.1027 0.9947 3.7693 -13.907)" opacity="0.68" fill="#FFFFFF" width="79.2" height="48.7"/>
	<g opacity="0.5">
		<path fill="#FFFFFF" d="M101,2.5l76.8,7.9L173,56.9l-76.8-7.9L101,2.5 M100.1,1.4l-5,48.4l78.8,8.1l5-48.4L100.1,1.4L100.1,1.4z"
			/>
	</g>
</g>
<polygon opacity="0.1" points="178.8,10.8 173.9,58 96.1,49.9 95.9,51.2 174.8,59.3 179.8,10.9 "/>
<g opacity="0.1">
	<g>
		<polygon points="66,59.2 62.5,59.2 62.5,57.2 64,57.2 64,55.7 66,55.7 		"/>
	</g>
	<g>
		<path d="M60.5,59.2h-4.9v-2h4.9V59.2z M53.7,59.2h-4.9v-2h4.9V59.2z M46.8,59.2H42v-2h4.9V59.2z M40,59.2h-4.9v-2H40V59.2z
			 M33.2,59.2h-4.9v-2h4.9V59.2z M26.4,59.2h-4.9v-2h4.9V59.2z M19.5,59.2h-4.9v-2h4.9V59.2z M12.7,59.2H7.8v-2h4.9V59.2z M5.9,59.2
			H1v-2h4.9V59.2z"/>
	</g>
	<g>
		<path d="M60.5,2.1h-4.9v-2h4.9V2.1z M53.7,2.1h-4.9v-2h4.9V2.1z M46.8,2.1H42v-2h4.9V2.1z M40,2.1h-4.9v-2H40V2.1z M33.2,2.1h-4.9
			v-2h4.9V2.1z M26.4,2.1h-4.9v-2h4.9V2.1z M19.5,2.1h-4.9v-2h4.9V2.1z M12.7,2.1H7.8v-2h4.9V2.1z M5.9,2.1H1v-2h4.9V2.1z"/>
	</g>
	<g>
		<polygon points="66,3.6 64,3.6 64,2.1 62.5,2.1 62.5,0.1 66,0.1 		"/>
	</g>
	<g>
		<path d="M66,53.6h-2v-5.1h2V53.6z M66,46.5h-2v-5.1h2V46.5z M66,39.3h-2v-5.1h2V39.3z M66,32.2h-2v-5.1h2V32.2z M66,25h-2v-5.1h2
			V25z M66,17.9h-2v-5.1h2V17.9z M66,10.7h-2V5.6h2V10.7z"/>
	</g>
</g>
<g>
	<g>
		<polygon opacity="0.1" points="175.7,50.3 180.5,49.6 177.8,30.3 177.5,33.1 179.6,48.2 175.8,48.8 		"/>
		<rect x="177" y="26.1" opacity="0.1" width="0" height="2.8"/>
	</g>
	<polygon opacity="0.1" points="132.2,54.9 101.8,59.2 102,60.7 138.3,55.6 	"/>
	<polygon opacity="0.1" points="174.8,9.1 173.7,1.4 173,1.5 174.1,9 	"/>
</g>
</svg>
