<?xml version="1.0" encoding="utf-8"?>
<!-- Generator: Adobe Illustrator 18.1.0, SVG Export Plug-In . SVG Version: 6.00 Build 0)  -->
<!DOCTYPE svg PUBLIC "-//W3C//DTD SVG 1.1//EN" "http://www.w3.org/Graphics/SVG/1.1/DTD/svg11.dtd">
<svg version="1.1" id="Layer_1" xmlns="http://www.w3.org/2000/svg" xmlns:xlink="http://www.w3.org/1999/xlink" x="0px" y="0px"
	 viewBox="0 47.6 841.9 500.1" enable-background="new 0 47.6 841.9 500.1" xml:space="preserve">
<g>
	<polygon opacity="0.15" enable-background="new    " points="758.8,547.7 29.6,470.4 29.6,64.5 841.9,96.8 	"/>
	<polygon fill="#E65100" points="751.9,530.7 22.8,453.5 22.8,47.6 834.5,79.9 	"/>
	<polygon fill="#E65100" points="751.9,530.7 22.8,453.5 22.8,47.6 834.5,79.9 	"/>
	<polygon opacity="0.15" enable-background="new    " points="804.3,492.6 86.3,524.4 11.6,119 794.3,64.5 	"/>
	<polygon fill="#EE6F0B" points="792.1,477.8 74.6,509.6 0,104.2 782.6,49.7 	"/>
	<g opacity="0.1">
		<path d="M181.5,210.6c3.2-3.7,7.4-5.3,12.2-5.3c8.5,0,16.4,4.2,23.8,12.2l17.5-32.8c-14.3-13.2-29.6-19.6-47.1-19.6
			c-16.9,0-31.7,5.8-43.4,16.9c-11.6,11.1-17.5,26.5-17.5,45.5v10.6h-20.6V273H127v138.1h49.2V273h42.3v-34.9h-42.3v-11.6
			C176.2,219.1,177.8,213.8,181.5,210.6z"/>
		<rect x="238.1" y="169.8" width="48.7" height="240.8"/>
		<rect x="311.1" y="236" width="48.7" height="174.6"/>
		<path d="M335.5,165.1c-7.9,0-14.8,2.6-20.1,8.5c-5.3,5.3-8.5,12.2-8.5,20.1c0,7.9,2.6,14.8,8.5,20.1c5.3,5.3,12.2,8.5,20.1,8.5
			c7.9,0,14.8-2.6,20.1-8.5c5.3-5.3,8.5-12.2,8.5-20.1c0-7.9-2.6-14.8-8.5-20.1C350.3,167.7,343.4,165.1,335.5,165.1z"/>
		<path d="M473.6,370.4c-12.2,0-23.3-4.2-32.3-12.2c-9-8.5-13.8-19.6-13.8-34.4c0-14.8,4.8-26.5,13.8-34.9s20.1-12.7,32.8-12.7
			c7.9,0,15.9,1.6,24.3,5.3c7.9,3.7,14.8,9,20.6,15.3l25.4-33.3c-9.5-10.1-21.2-18-33.9-23.3c-12.7-5.3-25.4-7.9-38.1-7.9
			c-24.9,0-46.6,8.5-65.1,25.4c-18.5,16.9-27.5,38.6-27.5,65.1c0,27,9,48.2,27,65.1c18,16.4,40.2,24.9,66.1,24.9s50.3-11.6,73-34.9
			L517,345.5C504.3,361.9,489.5,370.4,473.6,370.4z"/>
		<polygon points="659.9,306.4 726.5,236 665.2,236 611.2,293.7 611.2,169.8 562.5,169.8 562.5,410.6 611.2,410.6 611.2,360.3 
			627.1,343.9 671.5,410.6 729.2,410.6 		"/>
	</g>
	<g>
		<path fill="#FFFFFF" d="M175.2,199.5c3.2-3.7,7.4-5.3,12.2-5.3c8.5,0,16.4,4.2,23.8,12.2l17.5-32.8C214.3,160.3,199,154,181.5,154
			c-16.9,0-31.7,5.8-43.4,16.9s-17.5,26.5-17.5,45.5V227H100v34.9h21.7V400h49.2V261.9h42.3V227h-42.3v-11.6
			C170.4,207.9,172,202.7,175.2,199.5z"/>
		<rect x="231.8" y="158.7" fill="#FFFFFF" width="48.7" height="240.8"/>
		<rect x="305.3" y="224.9" fill="#FFFFFF" width="48.7" height="174.6"/>
		<path fill="#FFFFFF" d="M329.7,154c-7.9,0-14.8,2.6-20.1,8.5c-5.3,5.3-8.5,12.2-8.5,20.1c0,7.9,2.6,14.8,8.5,20.1
			c5.3,5.3,12.2,8.5,20.1,8.5c7.9,0,14.8-2.6,20.1-8.5c5.3-5.3,8.5-12.2,8.5-20.1c0-7.9-2.6-14.8-8.5-20.1
			C344.5,156.6,337.6,154,329.7,154z"/>
		<path fill="#FFFFFF" d="M467.2,359.3c-12.2,0-23.3-4.2-32.3-12.2c-9-8.5-13.8-19.6-13.8-34.4c0-14.8,4.8-26.5,13.8-34.9
			s20.1-12.7,32.8-12.7c7.9,0,15.9,1.6,24.3,5.3c7.9,3.7,14.8,9,20.6,15.3l25.4-33.3c-9.5-10.1-21.2-18-33.9-23.3
			c-12.7-5.3-25.4-6.9-38.1-6.9c-24.9,0-46.6,8.5-65.1,25.4c-18.5,16.9-27.5,38.6-27.5,65.1c0,27,9,48.2,27,65.1
			c18,16.4,40.2,24.9,66.1,24.9s50.3-11.6,73-34.9l-29.1-32.3C498.5,350.8,483.7,359.3,467.2,359.3z"/>
		<polygon fill="#FFFFFF" points="654,295.8 720.7,224.9 659.3,224.9 604.8,282.6 604.8,158.7 556.1,158.7 556.1,399.5 604.8,399.5 
			604.8,349.2 621.2,332.8 665.7,399.5 723.4,399.5 		"/>
	</g>
</g>
</svg>
