<?xml version="1.0" encoding="utf-8"?>
<!-- Generator: Adobe Illustrator 18.1.0, SVG Export Plug-In . SVG Version: 6.00 Build 0)  -->
<svg version="1.1" id="Layer_1" xmlns="http://www.w3.org/2000/svg" xmlns:xlink="http://www.w3.org/1999/xlink" x="0px" y="0px"
	 viewBox="-469.7 73.6 646.9 626.3" enable-background="new -469.7 73.6 646.9 626.3" xml:space="preserve">
<g opacity="0.1">
	<path d="M170.3,211.1c0,0-295.1,421.2-319.2,454.7c-32.7,44.4-95,46.7-129.2,0c-23.4-32.7-184.5-209.7-184.5-209.7
		c-10.1-14.8-9.3-34.3,3.1-45.2c27.2-23.4,56.8-43.6,88.8-61.5c14-7,32.7-1.6,42.8,13.2l114.5,110.9l249.9-355
		c10.1-14.8,28.8-20.2,42.8-12.5c31.1,17.1,60.7,36.6,88,60.7C179.6,176.9,180.4,196.4,170.3,211.1z"/>
</g>
<g>
	<path fill="#FFFFFF" d="M170.3,182.3c0,0-295.1,421.2-319.2,454.7c-32.7,44.4-95,46.7-129.2,0c-23.4-32.7-184.5-209.7-184.5-209.7
		c-10.1-14.8-9.3-34.3,3.1-45.2c27.2-23.4,56.8-43.6,88.8-61.5c14-7,32.7-1.6,42.8,13.2l114.5,110.9l249.9-355
		c10.1-14.8,28.8-20.2,42.8-12.5c31.1,17.1,60.7,36.6,88,60.7C179.6,148,180.4,167.5,170.3,182.3z"/>
</g>
</svg>
