<?xml version="1.0" encoding="utf-8"?>
<!-- Generator: Adobe Illustrator 18.1.0, SVG Export Plug-In . SVG Version: 6.00 Build 0)  -->
<!DOCTYPE svg PUBLIC "-//W3C//DTD SVG 1.1//EN" "http://www.w3.org/Graphics/SVG/1.1/DTD/svg11.dtd">
<svg version="1.1" id="Layer_1" xmlns="http://www.w3.org/2000/svg" xmlns:xlink="http://www.w3.org/1999/xlink" x="0px" y="0px"
	 viewBox="-43.1 -581.6 884.9 310.8" enable-background="new -43.1 -581.6 884.9 310.8" xml:space="preserve">
<g>
	<g opacity="0.2">
		<path d="M-36.9-489.9l13.4-84.9H26L23.6-559H-8.8l-3.1,20.2h30.3l-2.7,16h-30.2l-5.2,32.8L-36.9-489.9L-36.9-489.9z"/>
		<path d="M64.2-575l12.7,85H59.6l-2.2-16.8H31.9l-7.3,16.8H7.4L47-575H64.2z M38.8-522.6h16.6l-3.8-28.9L38.8-522.6z"/>
		<path d="M99.7-515.1l-0.5,2.8c-0.9,4.8,2.2,7.3,6.7,7.3h8.6c4.4,0,8.2-2.2,9.1-7.1l0.3-2.1c0.5-3.4-5.5-5.7-12-8.8
			c-10.4-5.1-24-11.6-21.7-25.8l1.2-7.7c1.4-9.7,10.8-18.8,24.5-18.8h9.8c14.4,0,21.3,9.2,19.7,19l-1.6,10.4h-17.2l1-6.4
			c0.9-4.8-2.3-7.1-6.4-7.1h-4.8c-4.1,0-7.7,2.2-8.5,6.9l-0.4,2.2c-0.5,3.6,4.8,6.3,11.2,9.2c10.7,5,24.8,11.3,22.9,24l-1.4,9
			c-1.6,10.2-11.5,19.1-26.2,19.1h-11.6c-15.1,0-22.5-9.3-21-19.2l1.1-6.7H99.7L99.7-515.1z"/>
		<path d="M159.3-489.9l10.9-69h-18.9l2.6-15.9h53.3l-2.4,15.9h-17.3l-10.9,69H159.3z"/>
	</g>
	<g opacity="0.2">
		<path d="M232.2-489.9l10.9-69h-18.9l2.6-15.9h53.3l-2.4,15.9h-17.4l-10.9,69H232.2z"/>
		<path d="M273.6-489.9l13.4-84.9h34.7c14.4,0,21.4,9.2,19.9,19.1l-2.9,18c-1.1,6.5-5.9,13.1-13.6,16.5l7.7,31.3h-17.9l-7.1-28.8
			h-12.5l-4.5,28.8C290.8-489.9,273.6-489.9,273.6-489.9z M301.7-558.9l-3.9,24.2h15.7c4.1,0,7.7-2.3,8.5-7l1.7-10.2
			c0.6-4.8-2.3-7-6.5-7L301.7-558.9L301.7-558.9z"/>
		<path d="M394.1-575l12.7,85h-17.3l-2.2-16.8h-25.6l-7.3,16.9h-17.2l39.6-85L394.1-575L394.1-575z M368.6-522.6h16.6l-3.8-28.9
			L368.6-522.6z"/>
		<path d="M471.4-519.2l-1.7,10.8c-1.6,9.9-11.3,19.2-25.7,19.2H432c-15,0-22.2-9.3-20.6-19.2l7.6-47.7c1.6-9.9,11.6-19.3,26.5-19.3
			h12.1c14.4,0,21.3,9.3,19.7,19.2l-1.7,10.4h-17.2l1-6.5c0.9-4.8-2.2-7.3-6.2-7.3h-9.1c-4.1,0-7.7,2.4-8.6,7.3l-6.3,40
			c-0.7,4.8,2.1,7.3,6.2,7.3h9.1c4.1,0,7.9-2.4,8.6-7.3l1.1-6.9L471.4-519.2L471.4-519.2z"/>
		<path d="M473.9-489.9l13.5-84.8h17.2l-5.6,34.7h5.8l20-34.7h18.9l-24.8,41.3l15.6,43.5h-19.2l-11.2-34.3h-7.5l-5.5,34.3H473.9z"/>
	</g>
	<g>
		<path fill="#FFFFFF" d="M-43.1-496.1l13.4-84.9h49.4l-2.4,15.9H-15l-3.1,20.2h30.3l-2.7,16h-30.2l-5.2,32.8L-43.1-496.1
			L-43.1-496.1z"/>
		<path fill="#FFFFFF" d="M58-581.2l12.7,85H53.4L51.3-513H25.7l-7.3,16.8H1.2l39.6-85H58z M32.6-528.8h16.6l-3.8-28.9L32.6-528.8z"
			/>
		<path fill="#FFFFFF" d="M93.5-521.3l-0.5,2.8c-0.9,4.8,2.2,7.3,6.7,7.3h8.6c4.4,0,8.2-2.2,9.1-7.1l0.3-2.1c0.5-3.4-5.5-5.7-12-8.8
			c-10.4-5.1-24-11.6-21.7-25.8l1.2-7.7c1.4-9.7,10.8-18.8,24.5-18.8h9.8c14.4,0,21.3,9.2,19.7,19l-1.6,10.4h-17.2l1-6.4
			c0.9-4.8-2.3-7.1-6.4-7.1h-4.8c-4.1,0-7.7,2.2-8.5,6.9l-0.4,2.2c-0.5,3.6,4.8,6.3,11.2,9.2c10.7,5,24.8,11.3,22.9,24l-1.4,9
			c-1.6,10.2-11.5,19.1-26.2,19.1H96.1c-15.1,0-22.5-9.3-21-19.2l1.1-6.7L93.5-521.3L93.5-521.3z"/>
		<path fill="#FFFFFF" d="M153.1-496.1l10.9-69h-18.9l2.6-15.9H201l-2.4,15.9h-17.3l-10.9,69H153.1z"/>
	</g>
	<g>
		<path fill="#FFFFFF" d="M226-496.1l10.9-69H218l2.6-15.9h53.3l-2.4,15.9h-17.4l-10.9,69H226z"/>
		<path fill="#FFFFFF" d="M267.4-496.1l13.4-84.9h34.7c14.4,0,21.4,9.2,19.9,19.1l-2.9,18c-1.1,6.5-5.9,13.1-13.6,16.5l7.7,31.3
			h-17.9l-7.1-28.8h-12.5l-4.5,28.8C284.6-496.1,267.4-496.1,267.4-496.1z M295.5-565.1l-3.9,24.3h15.7c4.1,0,7.7-2.3,8.5-7
			l1.7-10.2c0.6-4.8-2.3-7-6.5-7L295.5-565.1L295.5-565.1z"/>
		<path fill="#FFFFFF" d="M387.9-581.2l12.7,85h-17.3l-2.2-16.8h-25.6l-7.3,16.9h-17.2l39.6-85L387.9-581.2L387.9-581.2z
			 M362.4-528.8H379l-3.8-28.9L362.4-528.8z"/>
		<path fill="#FFFFFF" d="M465.2-525.4l-1.7,10.8c-1.6,9.9-11.3,19.2-25.7,19.2h-12.1c-15,0-22.2-9.3-20.6-19.2l7.6-47.7
			c1.6-9.9,11.6-19.3,26.5-19.3h12.1c14.4,0,21.3,9.3,19.7,19.2l-1.7,10.4h-17.2l1-6.5c0.9-4.8-2.2-7.3-6.2-7.3h-9.1
			c-4.1,0-7.7,2.4-8.6,7.3l-6.3,40c-0.7,4.8,2.1,7.3,6.2,7.3h9.1c4.1,0,7.9-2.4,8.6-7.3l1.1-6.9L465.2-525.4L465.2-525.4z"/>
		<path fill="#FFFFFF" d="M467.7-496.1l13.5-84.8h17.2l-5.6,34.7h5.8l20-34.7h18.9l-24.8,41.3l15.6,43.5H509l-11.2-34.3h-7.5
			l-5.5,34.3H467.7z"/>
	</g>
</g>
<g>
	<g opacity="0.2">
		<path d="M107.4-270.9l30.4-192h111.8l-5.5,35.9H171l-7.1,45.7h68.5l-6,36.2h-68.2l-11.8,74.2H107.4z"/>
		<path d="M337.6-463.2l28.8,192.3h-39.2l-4.9-38.1h-57.8L248-270.9h-38.9l89.6-192.3H337.6z M280.1-344.9h37.5l-8.5-65.5
			L280.1-344.9z"/>
		<path d="M379.8-270.9l30.4-192h38.9l-30.4,192H379.8z"/>
		<path d="M542.9-270.9H434.7l30.4-192H504L479-306.8h69.6L542.9-270.9z"/>
		<path d="M671.4-270.9H557.1l30.4-192H699l-5.5,35.9h-72.9l-6.6,41.1h63.6l-5.5,35.9h-63.8l-6.8,43.3h75.3L671.4-270.9z"/>
		<path d="M684.9-270.9l30.4-191.8h81.9c32.6,0,47.7,21.1,44.1,43.6l-16.7,104.6c-3.6,22.5-25.2,43.6-57.8,43.6L684.9-270.9
			L684.9-270.9z M748.4-426.8l-18.9,120h38.3c9.3,0,17.8-5.5,19.4-16.4l14-87.1c1.4-11-4.9-16.4-14.2-16.4H748.4z"/>
	</g>
	<g>
		<path fill="#FFFFFF" d="M98.8-284l30.4-192.1H241l-5.5,35.9h-73.1l-7.1,45.8h68.5l-6,36.2h-68.2L137.7-284H98.8z"/>
		<path fill="#FFFFFF" d="M329-476.3L357.7-284h-39.2l-4.9-38.1h-57.8L239.4-284h-38.9L290-476.3H329z M271.4-358H309l-8.5-65.5
			L271.4-358z"/>
		<path fill="#FFFFFF" d="M371.1-284l30.4-192.1h38.9l-30.4,192L371.1-284L371.1-284z"/>
		<path fill="#FFFFFF" d="M534.2-284H426l30.4-192.1h38.9l-24.9,156.2H540L534.2-284z"/>
		<path fill="#FFFFFF" d="M662.7-284H548.5l30.4-192h111.5l-5.5,35.9H612l-6.6,41.1H669l-5.5,35.9h-63.8l-6.8,43.3h75.3L662.7-284z"
			/>
		<path fill="#FFFFFF" d="M676.2-284l30.4-191.8h81.9c32.6,0,47.7,21.1,44.1,43.6L816-327.6c-3.6,22.5-25.2,43.6-57.8,43.6
			L676.2-284L676.2-284z M739.8-439.9l-18.9,120h38.3c9.3,0,17.8-5.5,19.4-16.4l14-87.1c1.4-11-4.9-16.4-14.2-16.4H739.8z"/>
	</g>
</g>
</svg>
