<?xml version="1.0" encoding="utf-8"?>
<!-- Generator: Adobe Illustrator 18.1.0, SVG Export Plug-In . SVG Version: 6.00 Build 0)  -->
<!DOCTYPE svg PUBLIC "-//W3C//DTD SVG 1.1//EN" "http://www.w3.org/Graphics/SVG/1.1/DTD/svg11.dtd">
<svg version="1.1" id="Layer_1" xmlns="http://www.w3.org/2000/svg" xmlns:xlink="http://www.w3.org/1999/xlink" x="0px" y="0px"
	 viewBox="-43.1 -581.6 884.9 310.8" enable-background="new -43.1 -581.6 884.9 310.8" xml:space="preserve">
<g opacity="0.2">
	<path d="M8.4-272.6l30-189.3h76.7c32.1,0,47.8,20.5,44.3,42.7l-6.5,40.2c-3.5,21.9-25.4,42.7-57.2,42.7H56.8l-10,63.7L8.4-272.6
		L8.4-272.6z M71.1-426.2l-8.6,54.6H97c8.9,0,17.3-5.4,18.9-16.2l3.5-22.7c1.6-10.8-4.9-15.7-14.3-15.7H71.1z"/>
	<path d="M247.2-462.2l28.4,189.6h-38.6l-4.9-37.6h-57l-16.2,37.6h-38.3l88.3-189.6H247.2z M190.5-345.5h37l-8.4-64.5L190.5-345.5z"
		/>
	<path d="M323.5-328.7l-1.1,6.2c-1.9,10.8,4.9,16.2,14.8,16.2h19.2c9.7,0,18.3-4.9,20.3-15.9l0.5-4.6c1.1-7.5-12.1-12.7-26.8-19.7
		c-23.2-11.4-53.5-25.9-48.4-57.5l2.7-17.3c3.3-21.6,24-41.9,54.6-41.9h21.9c32.1,0,47.5,20.5,44,42.4l-3.5,23.2h-38.3l2.2-14.3
		c1.9-10.8-5.1-15.9-14.3-15.9h-10.8c-9.2,0-17.3,4.9-18.9,15.4l-0.8,4.9c-1.1,8.1,10.8,14.1,24.8,20.5c23.8,11.1,55.4,25.1,51,53.5
		l-3.3,20c-3.5,22.7-25.7,42.7-58.3,42.7h-25.9c-33.7,0-50.2-20.8-46.7-42.9l2.4-14.9L323.5-328.7L323.5-328.7z"/>
	<path d="M465.8-328.7l-1.1,6.2c-1.9,10.8,4.9,16.2,14.8,16.2h19.2c9.7,0,18.3-4.9,20.3-15.9l0.5-4.6c1.1-7.5-12.1-12.7-26.8-19.7
		c-23.2-11.4-53.5-25.9-48.4-57.5l2.7-17.3c3.3-21.6,24-41.9,54.6-41.9h21.9c32.1,0,47.5,20.5,44,42.4l-3.5,23.2h-38.3l2.2-14.3
		c1.9-10.8-5.1-15.9-14.3-15.9h-10.8c-9.2,0-17.3,4.9-18.9,15.4l-0.8,4.9c-1.1,8.1,10.8,14.1,24.8,20.5c23.8,11.1,55.4,25.1,51,53.5
		l-3.3,20c-3.5,22.7-25.7,42.7-58.3,42.7h-25.9c-33.7,0-50.2-20.8-46.7-42.9l2.4-14.9L465.8-328.7L465.8-328.7z"/>
	<path d="M673.8-272.6H561.2l30-189.3h109.9l-5.4,35.4h-71.8l-6.5,40.5h62.7l-5.4,35.4h-62.9L605-308h74.2L673.8-272.6z"/>
	<path d="M687.2-272.6l30-189h80.8c32.1,0,47,20.8,43.5,42.9l-16.5,103.2c-3.5,22.2-24.8,42.9-57,42.9H687.2z M749.8-426.2
		L731.2-308H769c9.2,0,17.6-5.4,19.2-16.2l13.8-85.9c1.3-10.8-4.9-16.2-14.1-16.2L749.8-426.2L749.8-426.2z"/>
</g>
<g>
	<path fill="#FFFFFF" d="M0-285.7L30-475h76.7c32.1,0,47.8,20.5,44.3,42.7l-6.5,40.2c-3.5,21.9-25.4,42.7-57.2,42.7H48.4l-10,63.7
		L0-285.7L0-285.7z M62.7-439.4L54-384.8h34.5c8.9,0,17.3-5.4,18.9-16.2l3.5-22.7c1.6-10.8-4.9-15.7-14.3-15.7H62.7z"/>
	<path fill="#FFFFFF" d="M238.8-475.3l28.4,189.6h-38.6l-4.9-37.6h-57l-16.2,37.6h-38.3l88.3-189.6H238.8z M182.1-358.6h37
		l-8.4-64.5L182.1-358.6z"/>
	<path fill="#FFFFFF" d="M315-341.9l-1.1,6.2c-1.9,10.8,4.9,16.2,14.8,16.2h19.2c9.7,0,18.3-4.9,20.3-15.9l0.5-4.6
		c1.1-7.5-12.1-12.7-26.8-19.7c-23.2-11.4-53.5-25.9-48.4-57.5l2.7-17.3c3.3-21.6,24-41.9,54.6-41.9h21.9c32.1,0,47.5,20.5,44,42.4
		l-3.5,23.2h-38.3L377-425c1.9-10.8-5.1-15.9-14.3-15.9H352c-9.2,0-17.3,4.9-18.9,15.4l-0.8,4.9c-1.1,8.1,10.8,14.1,24.8,20.5
		c23.8,11.1,55.4,25.1,51,53.5l-3.3,20c-3.5,22.7-25.7,42.7-58.3,42.7h-25.9c-33.7,0-50.2-20.8-46.7-42.9l2.4-14.9L315-341.9
		L315-341.9z"/>
	<path fill="#FFFFFF" d="M457.4-341.9l-1.1,6.2c-1.9,10.8,4.9,16.2,14.8,16.2h19.2c9.7,0,18.3-4.9,20.3-15.9l0.5-4.6
		c1.1-7.5-12.1-12.7-26.8-19.7c-23.2-11.4-53.5-25.9-48.4-57.5l2.7-17.3c3.3-21.6,24-41.9,54.6-41.9h21.9c32.1,0,47.5,20.5,44,42.4
		l-3.5,23.2h-38.3l2.2-14.3c1.9-10.8-5.1-15.9-14.3-15.9h-10.7c-9.2,0-17.3,4.9-18.9,15.4l-0.8,4.9c-1.1,8.1,10.8,14.1,24.8,20.5
		c23.8,11.1,55.4,25.1,51,53.5l-3.3,20C543.8-304,521.6-284,489-284H463c-33.7,0-50.2-20.8-46.7-42.9l2.4-14.9L457.4-341.9
		L457.4-341.9z"/>
	<path fill="#FFFFFF" d="M665.4-285.7H552.8l30-189.3h109.9l-5.4,35.4h-71.8l-6.5,40.5h62.7l-5.4,35.4h-62.9l-6.8,42.7h74.2
		L665.4-285.7z"/>
	<path fill="#FFFFFF" d="M678.7-285.7l30-189h80.8c32.1,0,47,20.8,43.5,42.9l-16.5,103.2c-3.5,22.2-24.8,42.9-57,42.9H678.7z
		 M741.4-439.4l-18.6,118.3h37.8c9.2,0,17.6-5.4,19.2-16.2l13.8-85.9c1.3-10.8-4.9-16.2-14.1-16.2L741.4-439.4L741.4-439.4z"/>
</g>
<g>
	<g opacity="0.2">
		<path d="M-36.9-489.9l13.4-84.9H26L23.6-559H-8.8l-3.1,20.2h30.3l-2.7,16h-30.2l-5.2,32.8L-36.9-489.9L-36.9-489.9z"/>
		<path d="M64.2-575l12.7,85H59.6l-2.2-16.8H31.9l-7.3,16.8H7.4L47-575H64.2z M38.8-522.6h16.6l-3.8-28.9L38.8-522.6z"/>
		<path d="M99.7-515.1l-0.5,2.8c-0.9,4.8,2.2,7.3,6.7,7.3h8.6c4.4,0,8.2-2.2,9.1-7.1l0.3-2.1c0.5-3.4-5.5-5.7-12-8.8
			c-10.4-5.1-24-11.6-21.7-25.8l1.2-7.7c1.4-9.7,10.8-18.8,24.5-18.8h9.8c14.4,0,21.3,9.2,19.7,19l-1.6,10.4h-17.2l1-6.4
			c0.9-4.8-2.3-7.1-6.4-7.1h-4.8c-4.1,0-7.7,2.2-8.5,6.9l-0.4,2.2c-0.5,3.6,4.8,6.3,11.2,9.2c10.7,5,24.8,11.3,22.9,24l-1.4,9
			c-1.6,10.2-11.5,19.1-26.2,19.1h-11.6c-15.1,0-22.5-9.3-21-19.2l1.1-6.7H99.7L99.7-515.1z"/>
		<path d="M159.3-489.9l10.9-69h-18.9l2.6-15.9h53.3l-2.4,15.9h-17.3l-10.9,69H159.3z"/>
	</g>
	<g opacity="0.2">
		<path d="M232.2-489.9l10.9-69h-18.9l2.6-15.9h53.3l-2.4,15.9h-17.4l-10.9,69H232.2z"/>
		<path d="M273.6-489.9l13.4-84.9h34.7c14.4,0,21.4,9.2,19.9,19.1l-2.9,18c-1.1,6.5-5.9,13.1-13.6,16.5l7.7,31.3h-17.9l-7.1-28.8
			h-12.5l-4.5,28.8C290.8-489.9,273.6-489.9,273.6-489.9z M301.7-558.9l-3.9,24.2h15.7c4.1,0,7.7-2.3,8.5-7l1.7-10.2
			c0.6-4.8-2.3-7-6.5-7L301.7-558.9L301.7-558.9z"/>
		<path d="M394.1-575l12.7,85h-17.3l-2.2-16.8h-25.6l-7.3,16.9h-17.2l39.6-85L394.1-575L394.1-575z M368.6-522.6h16.6l-3.8-28.9
			L368.6-522.6z"/>
		<path d="M471.4-519.2l-1.7,10.8c-1.6,9.9-11.3,19.2-25.7,19.2H432c-15,0-22.2-9.3-20.6-19.2l7.6-47.7c1.6-9.9,11.6-19.3,26.5-19.3
			h12.1c14.4,0,21.3,9.3,19.7,19.2l-1.7,10.4h-17.2l1-6.5c0.9-4.8-2.2-7.3-6.2-7.3h-9.1c-4.1,0-7.7,2.4-8.6,7.3l-6.3,40
			c-0.7,4.8,2.1,7.3,6.2,7.3h9.1c4.1,0,7.9-2.4,8.6-7.3l1.1-6.9L471.4-519.2L471.4-519.2z"/>
		<path d="M473.9-489.9l13.5-84.8h17.2l-5.6,34.7h5.8l20-34.7h18.9l-24.8,41.3l15.6,43.5h-19.2l-11.2-34.3h-7.5l-5.5,34.3H473.9z"/>
	</g>
	<g>
		<path fill="#FFFFFF" d="M-43.1-496.1l13.4-84.9h49.4l-2.4,15.9H-15l-3.1,20.2h30.3l-2.7,16h-30.2l-5.2,32.8L-43.1-496.1
			L-43.1-496.1z"/>
		<path fill="#FFFFFF" d="M58-581.2l12.7,85H53.4L51.3-513H25.7l-7.3,16.8H1.2l39.6-85H58z M32.6-528.8h16.6l-3.8-28.9L32.6-528.8z"
			/>
		<path fill="#FFFFFF" d="M93.5-521.3l-0.5,2.8c-0.9,4.8,2.2,7.3,6.7,7.3h8.6c4.4,0,8.2-2.2,9.1-7.1l0.3-2.1c0.5-3.4-5.5-5.7-12-8.8
			c-10.4-5.1-24-11.6-21.7-25.8l1.2-7.7c1.4-9.7,10.8-18.8,24.5-18.8h9.8c14.4,0,21.3,9.2,19.7,19l-1.6,10.4h-17.2l1-6.4
			c0.9-4.8-2.3-7.1-6.4-7.1h-4.8c-4.1,0-7.7,2.2-8.5,6.9l-0.4,2.2c-0.5,3.6,4.8,6.3,11.2,9.2c10.7,5,24.8,11.3,22.9,24l-1.4,9
			c-1.6,10.2-11.5,19.1-26.2,19.1H96.1c-15.1,0-22.5-9.3-21-19.2l1.1-6.7L93.5-521.3L93.5-521.3z"/>
		<path fill="#FFFFFF" d="M153.1-496.1l10.9-69h-18.9l2.6-15.9H201l-2.4,15.9h-17.3l-10.9,69H153.1z"/>
	</g>
	<g>
		<path fill="#FFFFFF" d="M226-496.1l10.9-69H218l2.6-15.9h53.3l-2.4,15.9h-17.4l-10.9,69H226z"/>
		<path fill="#FFFFFF" d="M267.4-496.1l13.4-84.9h34.7c14.4,0,21.4,9.2,19.9,19.1l-2.9,18c-1.1,6.5-5.9,13.1-13.6,16.5l7.7,31.3
			h-17.9l-7.1-28.8h-12.5l-4.5,28.8C284.6-496.1,267.4-496.1,267.4-496.1z M295.5-565.1l-3.9,24.3h15.7c4.1,0,7.7-2.3,8.5-7
			l1.7-10.2c0.6-4.8-2.3-7-6.5-7L295.5-565.1L295.5-565.1z"/>
		<path fill="#FFFFFF" d="M387.9-581.2l12.7,85h-17.3l-2.2-16.8h-25.6l-7.3,16.9h-17.2l39.6-85L387.9-581.2L387.9-581.2z
			 M362.4-528.8H379l-3.8-28.9L362.4-528.8z"/>
		<path fill="#FFFFFF" d="M465.2-525.4l-1.7,10.8c-1.6,9.9-11.3,19.2-25.7,19.2h-12.1c-15,0-22.2-9.3-20.6-19.2l7.6-47.7
			c1.6-9.9,11.6-19.3,26.5-19.3h12.1c14.4,0,21.3,9.3,19.7,19.2l-1.7,10.4h-17.2l1-6.5c0.9-4.8-2.2-7.3-6.2-7.3h-9.1
			c-4.1,0-7.7,2.4-8.6,7.3l-6.3,40c-0.7,4.8,2.1,7.3,6.2,7.3h9.1c4.1,0,7.9-2.4,8.6-7.3l1.1-6.9L465.2-525.4L465.2-525.4z"/>
		<path fill="#FFFFFF" d="M467.7-496.1l13.5-84.8h17.2l-5.6,34.7h5.8l20-34.7h18.9l-24.8,41.3l15.6,43.5H509l-11.2-34.3h-7.5
			l-5.5,34.3H467.7z"/>
	</g>
</g>
</svg>
