<?xml version="1.0" encoding="utf-8"?>
<!-- Generator: Adobe Illustrator 18.1.1, SVG Export Plug-In . SVG Version: 6.00 Build 0)  -->
<svg version="1.1" id="Layer_1" xmlns="http://www.w3.org/2000/svg" xmlns:xlink="http://www.w3.org/1999/xlink" x="0px" y="0px"
	 viewBox="0 0 600 101.8" enable-background="new 0 0 600 101.8" xml:space="preserve">
<g opacity="0.2">
	<path d="M6.8,101L21.3,9.5h18.5L25.4,101H6.8z"/>
	<path d="M36.1,101L50.6,9.5h18.5l18.2,52l8.2-52H114L99.5,101H80.9L62.8,49.4L54.7,101H36.1z"/>
	<path d="M176.7,69.4l-1.8,11.6c-1.7,10.7-12.1,20.8-27.7,20.8h-13.1c-16.2,0-23.9-10.1-22.2-20.8l8.2-51.5
		c1.7-10.7,12.5-20.8,28.6-20.8h13.1c15.5,0,23,10.1,21.3,20.8l-1.8,11.2h-18.5l1-7.1c0.9-5.2-2.4-7.8-6.7-7.8h-9.8
		c-4.4,0-8.4,2.6-9.3,7.8l-6.8,43.1c-0.8,5.2,2.2,7.8,6.7,7.8h9.8c4.4,0,8.5-2.6,9.3-7.8l1.2-7.4H176.7z"/>
	<path d="M204.7,101.8c-16.2,0-23.9-10.1-22.2-20.8l8.2-51.5c1.7-10.7,12.5-20.8,28.6-20.8H233c15.5,0,22.9,10.1,21.2,20.8L246,81.1
		c-1.7,10.7-12.3,20.8-27.7,20.8H204.7z M218.8,84.7c4.4,0,8.5-2.6,9.3-7.8l6.8-43.1c0.8-5.2-2.4-7.8-6.8-7.8h-10.2
		c-4.4,0-8.4,2.6-9.3,7.8l-6.8,43.1c-0.8,5.2,2.2,7.8,6.7,7.8H218.8z"/>
	<path d="M252,101l14.5-91.6h37.4c15.5,0,23.1,9.9,21.4,20.6l-3.1,19.5c-1.2,7.1-6.4,14.1-14.6,17.8l8.4,33.7h-19.3L288.9,70h-13.5
		l-4.8,31.1H252z M282.3,26.7l-4.2,26.1h17c4.4,0,8.4-2.5,9.1-7.6l1.8-11c0.7-5.2-2.5-7.6-7.1-7.6H282.3z"/>
	<path d="M324.8,101l14.5-91.6h37.4c15.5,0,23.1,9.9,21.4,20.6l-3.1,19.5c-1.2,7.1-6.4,14.1-14.6,17.8l8.4,33.7h-19.3L361.6,70
		h-13.5l-4.8,31.1H324.8z M355.1,26.7l-4.2,26.1h17c4.4,0,8.4-2.5,9.1-7.6l1.8-11c0.7-5.2-2.5-7.6-7.1-7.6H355.1z"/>
	<path d="M452,101h-54.5L412,9.5h53.2l-2.6,17.1h-34.7l-3.1,19.6H455l-2.6,17.1H422l-3.3,20.6h35.9L452,101z"/>
	<path d="M527.5,69.4l-1.8,11.6c-1.7,10.7-12.1,20.8-27.7,20.8h-13.1c-16.2,0-23.9-10.1-22.2-20.8l8.2-51.5
		c1.7-10.7,12.5-20.8,28.6-20.8h13.1c15.5,0,23,10.1,21.3,20.8l-1.8,11.2h-18.5l1-7.1c0.9-5.2-2.4-7.8-6.7-7.8h-9.8
		c-4.4,0-8.4,2.6-9.3,7.8L482,76.9c-0.8,5.2,2.2,7.8,6.7,7.8h9.8c4.4,0,8.5-2.6,9.3-7.8l1.2-7.4H527.5z"/>
	<path d="M548.4,101l11.8-74.5h-20.4l2.7-17.1H600l-2.6,17.1h-18.7L567,101H548.4z"/>
</g>
<g>
	<path fill="#FFFFFF" d="M0,92.2L14.5,0.7H33L18.5,92.2H0z"/>
	<path fill="#FFFFFF" d="M29.3,92.2L43.8,0.7h18.5l18.2,52l8.2-52h18.4L92.6,92.2H74.1L55.9,40.6l-8.1,51.6H29.3z"/>
	<path fill="#FFFFFF" d="M169.8,60.6L168,72.2C166.3,82.9,155.8,93,140.3,93h-13.1C111,93,103.3,82.9,105,72.2l8.2-51.5
		C114.9,10.1,125.8,0,141.9,0h13.1c15.5,0,23,10.1,21.3,20.8L174.4,32h-18.5l1-7.1c0.9-5.2-2.4-7.8-6.7-7.8h-9.8
		c-4.4,0-8.4,2.6-9.3,7.8l-6.8,43.1c-0.8,5.2,2.2,7.8,6.7,7.8h9.8c4.4,0,8.5-2.6,9.3-7.8l1.2-7.4H169.8z"/>
	<path fill="#FFFFFF" d="M197.9,93c-16.2,0-23.9-10.1-22.2-20.8l8.2-51.5C185.6,10.1,196.5,0,212.5,0h13.6
		c15.5,0,22.9,10.1,21.2,20.8l-8.1,51.5C237.5,82.9,226.9,93,211.5,93H197.9z M212,75.9c4.4,0,8.5-2.6,9.3-7.8l6.8-43.1
		c0.8-5.2-2.4-7.8-6.8-7.8h-10.2c-4.4,0-8.4,2.6-9.3,7.8L195,68.1c-0.8,5.2,2.2,7.8,6.7,7.8H212z"/>
	<path fill="#FFFFFF" d="M245.2,92.2l14.5-91.6H297c15.5,0,23.1,9.9,21.4,20.6l-3.1,19.5c-1.2,7.1-6.4,14.1-14.6,17.8l8.4,33.7
		h-19.3L282,61.1h-13.5l-4.8,31.1H245.2z M275.5,17.9L271.3,44h17c4.4,0,8.4-2.5,9.1-7.6l1.8-11c0.7-5.2-2.5-7.6-7.1-7.6H275.5z"/>
	<path fill="#FFFFFF" d="M317.9,92.2l14.5-91.6h37.4c15.5,0,23.1,9.9,21.4,20.6l-3.1,19.5c-1.2,7.1-6.4,14.1-14.6,17.8l8.4,33.7
		h-19.3l-7.7-31.1h-13.5l-4.8,31.1H317.9z M348.2,17.9L344.1,44h17c4.4,0,8.4-2.5,9.1-7.6l1.8-11c0.7-5.2-2.5-7.6-7.1-7.6H348.2z"/>
	<path fill="#FFFFFF" d="M445.2,92.2h-54.5l14.5-91.6h53.2l-2.6,17.1H421l-3.1,19.6h30.3l-2.6,17.1h-30.4l-3.3,20.6h35.9L445.2,92.2
		z"/>
	<path fill="#FFFFFF" d="M520.7,60.6l-1.8,11.6C517.1,82.9,506.7,93,491.1,93h-13.1c-16.2,0-23.9-10.1-22.2-20.8l8.2-51.5
		C465.8,10.1,476.6,0,492.7,0h13.1c15.5,0,23,10.1,21.3,20.8L525.2,32h-18.5l1-7.1c0.9-5.2-2.4-7.8-6.7-7.8h-9.8
		c-4.4,0-8.4,2.6-9.3,7.8l-6.8,43.1c-0.8,5.2,2.2,7.8,6.7,7.8h9.8c4.4,0,8.5-2.6,9.3-7.8l1.2-7.4H520.7z"/>
	<path fill="#FFFFFF" d="M541.6,92.2l11.8-74.5h-20.4l2.7-17.1h57.5l-2.6,17.1h-18.7l-11.8,74.5H541.6z"/>
</g>
</svg>
