<?xml version="1.0" encoding="utf-8"?>
<!-- Generator: Adobe Illustrator 18.1.1, SVG Export Plug-In . SVG Version: 6.00 Build 0)  -->
<svg version="1.1" id="Layer_1" xmlns="http://www.w3.org/2000/svg" xmlns:xlink="http://www.w3.org/1999/xlink" x="0px" y="0px"
	 viewBox="0 0 673.1 296.6" enable-background="new 0 0 673.1 296.6" xml:space="preserve">
<g opacity="0.2">
	<path d="M146.4,95.5l-0.7,3.9c-1.2,6.8,3,10.1,9.3,10.1h12c6.1,0,11.5-3,12.7-10l0.3-2.9c0.7-4.7-7.6-7.9-16.7-12.3
		c-14.5-7.1-33.4-16.2-30.2-36l1.7-10.8c2-13.5,15-26.2,34.1-26.2h13.7c20.1,0,29.7,12.8,27.5,26.5l-2.2,14.5h-24l1.4-9
		c1.2-6.8-3.2-10-9-10h-6.8c-5.7,0-10.8,3-11.8,9.6l-0.5,3c-0.7,5.1,6.8,8.8,15.5,12.8c14.9,6.9,34.6,15.7,31.9,33.4l-2,12.5
		c-2.2,14.2-16,26.7-36.5,26.7h-16.2c-21.1,0-31.4-13-29.2-26.9l1.5-9.3H146.4z"/>
	<path d="M228.4,130.6l15.2-96.3h-26.3l3.5-22.1h74.3l-3.4,22.1h-24.1l-15.2,96.3H228.4z"/>
	<path d="M344.1,12.1l17.7,118.5h-24.1l-3-23.5H299l-10.1,23.5h-24l55.2-118.5H344.1z M308.6,85h23.1l-5.2-40.4L308.6,85z"/>
	<path d="M370.1,130.6l18.7-118.4h48.3c20.1,0,29.9,12.8,27.7,26.7l-4.1,25.2c-1.5,9.1-8.3,18.2-18.9,23l10.8,43.6h-25l-10-40.2
		h-17.4l-6.2,40.2H370.1z M409.3,34.5l-5.4,33.8h22c5.7,0,10.8-3.2,11.8-9.8l2.4-14.2c0.8-6.8-3.2-9.8-9.1-9.8H409.3z"/>
	<path d="M484.1,130.6l15.2-96.3h-26.3l3.5-22.1h74.3l-3.4,22.1h-24.1l-15.2,96.3H484.1z"/>
</g>
<g>
	<path fill="#FFFFFF" d="M137.5,84.1l-0.7,3.9c-1.2,6.8,3,10.1,9.3,10.1h12c6.1,0,11.5-3,12.7-10l0.3-2.9c0.7-4.7-7.6-7.9-16.7-12.3
		c-14.5-7.1-33.4-16.2-30.2-36l1.7-10.8c2-13.5,15-26.2,34.1-26.2h13.7c20.1,0,29.7,12.8,27.5,26.5L199,41h-24l1.4-9
		c1.2-6.8-3.2-10-9-10h-6.8c-5.7,0-10.8,3-11.8,9.6l-0.5,3c-0.7,5.1,6.8,8.8,15.5,12.8c14.9,6.9,34.6,15.7,31.9,33.4l-2,12.5
		c-2.2,14.2-16,26.7-36.5,26.7H141c-21.1,0-31.4-13-29.2-26.9l1.5-9.3H137.5z"/>
	<path fill="#FFFFFF" d="M219.6,119.2L234.8,23h-26.3L212,0.8h74.3L282.9,23h-24.1l-15.2,96.3H219.6z"/>
	<path fill="#FFFFFF" d="M335.2,0.7L353,119.2h-24.1l-3-23.5h-35.6L280,119.2h-24L311.3,0.7H335.2z M299.8,73.6h23.1l-5.2-40.4
		L299.8,73.6z"/>
	<path fill="#FFFFFF" d="M361.2,119.2L380,0.8h48.3c20.1,0,29.9,12.8,27.7,26.7l-4.1,25.2c-1.5,9.1-8.3,18.2-18.9,23l10.8,43.6h-25
		l-10-40.2h-17.4l-6.2,40.2H361.2z M400.4,23.1L395,56.9h22c5.7,0,10.8-3.2,11.8-9.8l2.4-14.2c0.8-6.8-3.2-9.8-9.1-9.8H400.4z"/>
	<path fill="#FFFFFF" d="M475.2,119.2L490.4,23h-26.3l3.5-22.1h74.3L538.6,23h-24.1l-15.2,96.3H475.2z"/>
</g>
<g opacity="0.2">
	<path d="M47.1,296.6l-9.3-34.3c-20.9,0-30.9-13-28.7-26.8l10.6-66.5c2.2-13.8,16.2-26.9,37-26.9h17.6c20.1,0,29.6,13,27.4,26.9
		l-10.5,66.5c-1.9,11.8-12.2,23-27.5,26l6.8,24.8L47.1,296.6z M56.1,240.2c5.7,0,11-3.4,12-10.1l8.8-55.7c1-6.8-3-10.1-8.8-10.1
		H54.9c-5.7,0-10.8,3.4-12,10.1l-8.8,55.7c-1,6.8,2.9,10.1,8.6,10.1H56.1z"/>
	<path d="M149,262.3h-17.4c-20.8,0-30.9-13-28.7-26.8l14.7-92.5h24.1l-13.8,87.1c-1.2,6.8,2.9,10.1,8.6,10.1h13.2
		c5.7,0,10.8-3.4,11.8-10.1l13.8-87.1h24.1l-14.7,92.5C182.6,249.3,169.1,262.3,149,262.3z"/>
	<path d="M264.6,261.3h-70.4L213,142.9h68.7l-3.4,22.1h-44.9l-4.1,25.3h39.2l-3.4,22.1h-39.3l-4.2,26.7H268L264.6,261.3z"/>
	<path d="M303.7,226.2l-0.7,3.9c-1.2,6.8,3,10.1,9.3,10.1h12c6.1,0,11.5-3,12.7-10l0.3-2.9c0.7-4.7-7.6-7.9-16.7-12.3
		c-14.5-7.1-33.4-16.2-30.2-36l1.7-10.8c2-13.5,15-26.2,34.1-26.2h13.7c20.1,0,29.7,12.8,27.5,26.5l-2.2,14.5h-24l1.4-9
		c1.2-6.8-3.2-10-9-10h-6.8c-5.7,0-10.8,3-11.8,9.6l-0.5,3c-0.7,5.1,6.8,8.8,15.5,12.8c14.9,6.9,34.6,15.7,31.9,33.4l-2,12.5
		c-2.2,14.2-16,26.7-36.5,26.7h-16.2c-21.1,0-31.4-13-29.2-26.8l1.5-9.3H303.7z"/>
	<path d="M385.7,261.3l15.2-96.3h-26.3l3.5-22.1h74.3L449,165h-24.1l-15.2,96.3H385.7z"/>
	<path d="M442.6,261.3l18.7-118.4h24l-18.7,118.4H442.6z"/>
	<path d="M511.4,262.3c-20.9,0-30.9-13-28.7-26.8l10.6-66.5c2.2-13.8,16.2-26.9,37-26.9h17.6c20.1,0,29.6,13,27.4,26.9l-10.5,66.5
		c-2.2,13.8-15.9,26.8-35.8,26.8H511.4z M529.6,240.2c5.7,0,11-3.4,12-10.1l8.8-55.7c1-6.8-3-10.1-8.8-10.1h-13.2
		c-5.7,0-10.8,3.4-12,10.1l-8.8,55.7c-1,6.8,2.9,10.1,8.6,10.1H529.6z"/>
	<path d="M572.5,261.3l18.7-118.4h24l23.5,67.2l10.6-67.2h23.8l-18.7,118.4h-24l-23.5-66.7l-10.5,66.7H572.5z"/>
</g>
<g>
	<path fill="#FFFFFF" d="M38.3,285.2L29,250.9c-20.9,0-30.9-13-28.7-26.9l10.6-66.5c2.2-13.8,16.2-26.9,37-26.9h17.6
		c20.1,0,29.6,13,27.4,26.9l-10.5,66.5c-1.9,11.8-12.2,23-27.5,26l6.8,24.8L38.3,285.2z M47.2,228.8c5.7,0,11-3.4,12-10.1l8.8-55.7
		c1-6.8-3-10.1-8.8-10.1H46.1c-5.7,0-10.8,3.4-12,10.1l-8.8,55.7c-1,6.8,2.9,10.1,8.6,10.1H47.2z"/>
	<path fill="#FFFFFF" d="M140.1,250.9h-17.4c-20.8,0-30.9-13-28.7-26.9l14.7-92.5h24.1L119,218.6c-1.2,6.8,2.9,10.1,8.6,10.1h13.2
		c5.7,0,10.8-3.4,11.8-10.1l13.8-87.1h24.1l-14.7,92.5C173.7,237.9,160.2,250.9,140.1,250.9z"/>
	<path fill="#FFFFFF" d="M255.8,249.9h-70.4l18.7-118.4h68.7l-3.4,22.1h-44.9l-4.1,25.3h39.2l-3.4,22.1h-39.3l-4.2,26.7h46.4
		L255.8,249.9z"/>
	<path fill="#FFFFFF" d="M294.8,214.8l-0.7,3.9c-1.2,6.8,3,10.1,9.3,10.1h12c6.1,0,11.5-3,12.7-10l0.3-2.9
		c0.7-4.7-7.6-7.9-16.7-12.3c-14.5-7.1-33.4-16.2-30.2-36l1.7-10.8c2-13.5,15-26.2,34.1-26.2h13.7c20.1,0,29.7,12.8,27.5,26.5
		l-2.2,14.5h-24l1.4-8.9c1.2-6.8-3.2-10-9-10h-6.8c-5.7,0-10.8,3-11.8,9.6l-0.5,3c-0.7,5.1,6.8,8.8,15.5,12.8
		c14.9,6.9,34.6,15.7,31.9,33.4l-2,12.5c-2.2,14.2-16,26.7-36.5,26.7h-16.2c-21.1,0-31.4-13-29.2-26.9l1.5-9.3H294.8z"/>
	<path fill="#FFFFFF" d="M376.9,249.9l15.2-96.3h-26.3l3.5-22.1h74.3l-3.4,22.1H416l-15.2,96.3H376.9z"/>
	<path fill="#FFFFFF" d="M433.8,249.9l18.7-118.4h24l-18.7,118.4H433.8z"/>
	<path fill="#FFFFFF" d="M502.5,250.9c-20.9,0-30.9-13-28.7-26.9l10.6-66.5c2.2-13.8,16.2-26.9,37-26.9H539
		c20.1,0,29.6,13,27.4,26.9l-10.5,66.5c-2.2,13.8-15.9,26.9-35.8,26.9H502.5z M520.7,228.8c5.7,0,11-3.4,12-10.1l8.8-55.7
		c1-6.8-3-10.1-8.8-10.1h-13.2c-5.7,0-10.8,3.4-12,10.1l-8.8,55.7c-1,6.8,2.9,10.1,8.6,10.1H520.7z"/>
	<path fill="#FFFFFF" d="M563.6,249.9l18.7-118.4h24l23.5,67.2l10.6-67.2h23.8l-18.7,118.4h-24l-23.5-66.7l-10.5,66.7H563.6z"/>
</g>
</svg>
