<?xml version="1.0" encoding="utf-8"?>
<!-- Generator: Adobe Illustrator 18.1.1, SVG Export Plug-In . SVG Version: 6.00 Build 0)  -->
<svg version="1.1" id="Layer_1" xmlns="http://www.w3.org/2000/svg" xmlns:xlink="http://www.w3.org/1999/xlink" x="0px" y="0px"
	 viewBox="0 0 495.2 101.8" enable-background="new 0 0 495.2 101.8" xml:space="preserve">
<g opacity="0.2">
	<path d="M71.9,69.4L70,81.1c-1.7,10.7-12.1,20.8-27.7,20.8H29.3c-16.2,0-23.9-10.1-22.2-20.8l8.2-51.5C17,18.9,27.8,8.8,43.9,8.8
		H57c15.5,0,23,10.1,21.3,20.8l-1.8,11.2H57.9l1-7.1c0.9-5.2-2.4-7.8-6.7-7.8h-9.8c-4.4,0-8.4,2.6-9.3,7.8l-6.8,43.1
		c-0.8,5.2,2.2,7.8,6.7,7.8h9.8c4.4,0,8.5-2.6,9.3-7.8l1.2-7.4H71.9z"/>
	<path d="M100,101.8c-16.2,0-23.9-10.1-22.2-20.8L86,29.6c1.7-10.7,12.5-20.8,28.6-20.8h13.6c15.5,0,22.9,10.1,21.2,20.8l-8.1,51.5
		c-1.7,10.7-12.3,20.8-27.7,20.8H100z M114.1,84.7c4.4,0,8.5-2.6,9.3-7.8l6.8-43.1c0.8-5.2-2.4-7.8-6.8-7.8h-10.2
		c-4.4,0-8.4,2.6-9.3,7.8l-6.8,43.1c-0.8,5.2,2.2,7.8,6.7,7.8H114.1z"/>
	<path d="M147.2,101l14.5-91.6h37.4c15.5,0,23.1,9.9,21.4,20.6l-3.1,19.5c-1.2,7.1-6.4,14.1-14.6,17.8l8.4,33.7h-19.3L184.1,70
		h-13.5l-4.8,31.1H147.2z M177.5,26.7l-4.2,26.1h17c4.4,0,8.4-2.5,9.1-7.6l1.8-11c0.7-5.2-2.5-7.6-7.1-7.6H177.5z"/>
	<path d="M220,101l14.5-91.6h37.4c15.5,0,23.1,9.9,21.4,20.6l-3.1,19.5c-1.2,7.1-6.4,14.1-14.6,17.8l8.4,33.7h-19.3L256.8,70h-13.5
		l-4.8,31.1H220z M250.3,26.7l-4.2,26.1h17c4.4,0,8.4-2.5,9.1-7.6l1.8-11c0.7-5.2-2.5-7.6-7.1-7.6H250.3z"/>
	<path d="M347.2,101h-54.5l14.5-91.6h53.2l-2.6,17.1h-34.7l-3.1,19.6h30.3l-2.6,17.1h-30.4l-3.3,20.6h35.9L347.2,101z"/>
	<path d="M422.7,69.4l-1.8,11.6c-1.7,10.7-12.1,20.8-27.7,20.8h-13.1c-16.2,0-23.9-10.1-22.2-20.8l8.2-51.5
		c1.7-10.7,12.5-20.8,28.6-20.8h13.1c15.5,0,23,10.1,21.3,20.8l-1.8,11.2h-18.5l1-7.1c0.9-5.2-2.4-7.8-6.7-7.8h-9.8
		c-4.4,0-8.4,2.6-9.3,7.8l-6.8,43.1c-0.8,5.2,2.2,7.8,6.7,7.8h9.8c4.4,0,8.5-2.6,9.3-7.8l1.2-7.4H422.7z"/>
	<path d="M443.6,101l11.8-74.5H435l2.7-17.1h57.5l-2.6,17.1h-18.7L462.2,101H443.6z"/>
</g>
<g>
	<path fill="#FFFFFF" d="M65,60.6l-1.8,11.6C61.5,82.9,51,93,35.5,93H22.4C6.2,93-1.5,82.9,0.2,72.2l8.2-51.5C10.2,10.1,21,0,37.1,0
		h13.1c15.5,0,23,10.1,21.3,20.8L69.6,32H51l1-7.1c0.9-5.2-2.4-7.8-6.7-7.8h-9.8c-4.4,0-8.4,2.6-9.3,7.8l-6.8,43.1
		c-0.8,5.2,2.2,7.8,6.7,7.8H36c4.4,0,8.5-2.6,9.3-7.8l1.2-7.4H65z"/>
	<path fill="#FFFFFF" d="M93.1,93c-16.2,0-23.9-10.1-22.2-20.8l8.2-51.5C80.8,10.1,91.7,0,107.7,0h13.6c15.5,0,22.9,10.1,21.2,20.8
		l-8.1,51.5C132.7,82.9,122.1,93,106.7,93H93.1z M107.2,75.9c4.4,0,8.5-2.6,9.3-7.8l6.8-43.1c0.8-5.2-2.4-7.8-6.8-7.8h-10.2
		c-4.4,0-8.4,2.6-9.3,7.8l-6.8,43.1c-0.8,5.2,2.2,7.8,6.7,7.8H107.2z"/>
	<path fill="#FFFFFF" d="M140.4,92.2l14.5-91.6h37.4c15.5,0,23.1,9.9,21.4,20.6l-3.1,19.5c-1.2,7.1-6.4,14.1-14.6,17.8l8.4,33.7
		h-19.3l-7.7-31.1h-13.5l-4.8,31.1H140.4z M170.7,17.9L166.5,44h17c4.4,0,8.4-2.5,9.1-7.6l1.8-11c0.7-5.2-2.5-7.6-7.1-7.6H170.7z"/>
	<path fill="#FFFFFF" d="M213.1,92.2l14.5-91.6H265c15.5,0,23.1,9.9,21.4,20.6l-3.1,19.5c-1.2,7.1-6.4,14.1-14.6,17.8l8.4,33.7
		h-19.3L250,61.1h-13.5l-4.8,31.1H213.1z M243.4,17.9L239.3,44h17c4.4,0,8.4-2.5,9.1-7.6l1.8-11c0.7-5.2-2.5-7.6-7.1-7.6H243.4z"/>
	<path fill="#FFFFFF" d="M340.4,92.2h-54.5l14.5-91.6h53.2l-2.6,17.1h-34.7l-3.1,19.6h30.3l-2.6,17.1h-30.4l-3.3,20.6H343
		L340.4,92.2z"/>
	<path fill="#FFFFFF" d="M415.9,60.6L414,72.2C412.3,82.9,401.9,93,386.3,93h-13.1c-16.2,0-23.9-10.1-22.2-20.8l8.2-51.5
		C361,10.1,371.8,0,387.9,0H401c15.5,0,23,10.1,21.3,20.8L420.4,32h-18.5l1-7.1c0.9-5.2-2.4-7.8-6.7-7.8h-9.8
		c-4.4,0-8.4,2.6-9.3,7.8l-6.8,43.1c-0.8,5.2,2.2,7.8,6.7,7.8h9.8c4.4,0,8.5-2.6,9.3-7.8l1.2-7.4H415.9z"/>
	<path fill="#FFFFFF" d="M436.8,92.2l11.8-74.5h-20.4l2.7-17.1h57.5l-2.6,17.1h-18.7l-11.8,74.5H436.8z"/>
</g>
</svg>
