<?xml version="1.0" encoding="utf-8"?>
<!-- Generator: Adobe Illustrator 18.1.1, SVG Export Plug-In . SVG Version: 6.00 Build 0)  -->
<svg version="1.1" id="Layer_1" xmlns="http://www.w3.org/2000/svg" xmlns:xlink="http://www.w3.org/1999/xlink" x="0px" y="0px"
	 viewBox="0 0 673.1 295.7" enable-background="new 0 0 673.1 295.7" xml:space="preserve">
<g opacity="0.2">
	<path d="M47.1,295.7l-9.3-34.3c-20.9,0-30.9-13-28.7-26.8l10.6-66.5c2.2-13.8,16.2-26.9,37-26.9h17.6c20.1,0,29.6,13,27.4,26.9
		l-10.5,66.5c-1.9,11.8-12.2,23-27.5,26l6.8,24.8L47.1,295.7z M56.1,239.3c5.7,0,11-3.4,12-10.1l8.8-55.7c1-6.8-3-10.1-8.8-10.1
		H54.9c-5.7,0-10.8,3.4-12,10.1l-8.8,55.7c-1,6.8,2.9,10.1,8.6,10.1H56.1z"/>
	<path d="M149,261.5h-17.4c-20.8,0-30.9-13-28.7-26.8l14.7-92.5h24.1l-13.8,87.1c-1.2,6.8,2.9,10.1,8.6,10.1h13.2
		c5.7,0,10.8-3.4,11.8-10.1l13.8-87.1h24.1l-14.7,92.5C182.6,248.5,169.1,261.5,149,261.5z"/>
	<path d="M264.6,260.5h-70.4L213,142.1h68.7l-3.4,22.1h-44.9l-4.1,25.3h39.2l-3.4,22.1h-39.3l-4.2,26.7H268L264.6,260.5z"/>
	<path d="M303.7,225.3l-0.7,3.9c-1.2,6.8,3,10.1,9.3,10.1h12c6.1,0,11.5-3,12.7-10l0.3-2.9c0.7-4.7-7.6-7.9-16.7-12.3
		c-14.5-7.1-33.4-16.2-30.2-36l1.7-10.8c2-13.5,15-26.2,34.1-26.2h13.7c20.1,0,29.7,12.8,27.5,26.5l-2.2,14.5h-24l1.4-9
		c1.2-6.8-3.2-10-9-10h-6.8c-5.7,0-10.8,3-11.8,9.6l-0.5,3c-0.7,5.1,6.8,8.8,15.5,12.8c14.9,6.9,34.6,15.7,31.9,33.4l-2,12.5
		c-2.2,14.2-16,26.7-36.5,26.7h-16.2c-21.1,0-31.4-13-29.2-26.8l1.5-9.3H303.7z"/>
	<path d="M385.7,260.5l15.2-96.3h-26.3l3.5-22.1h74.3l-3.4,22.1h-24.1l-15.2,96.3H385.7z"/>
	<path d="M442.6,260.5l18.7-118.4h24l-18.7,118.4H442.6z"/>
	<path d="M511.4,261.5c-20.9,0-30.9-13-28.7-26.8l10.6-66.5c2.2-13.8,16.2-26.9,37-26.9h17.6c20.1,0,29.6,13,27.4,26.9l-10.5,66.5
		c-2.2,13.8-15.9,26.8-35.8,26.8H511.4z M529.6,239.3c5.7,0,11-3.4,12-10.1l8.8-55.7c1-6.8-3-10.1-8.8-10.1h-13.2
		c-5.7,0-10.8,3.4-12,10.1l-8.8,55.7c-1,6.8,2.9,10.1,8.6,10.1H529.6z"/>
	<path d="M572.5,260.5l18.7-118.4h24l23.5,67.2l10.6-67.2h23.8l-18.7,118.4h-24l-23.5-66.7l-10.5,66.7H572.5z"/>
</g>
<g>
	<path fill="#FFFFFF" d="M38.3,284.3L29,250.1c-20.9,0-30.9-13-28.7-26.9l10.6-66.5c2.2-13.8,16.2-26.9,37-26.9h17.6
		c20.1,0,29.6,13,27.4,26.9l-10.5,66.5c-1.9,11.8-12.2,23-27.5,26l6.8,24.8L38.3,284.3z M47.2,227.9c5.7,0,11-3.4,12-10.1l8.8-55.7
		c1-6.8-3-10.1-8.8-10.1H46.1c-5.7,0-10.8,3.4-12,10.1l-8.8,55.7c-1,6.8,2.9,10.1,8.6,10.1H47.2z"/>
	<path fill="#FFFFFF" d="M140.1,250.1h-17.4c-20.8,0-30.9-13-28.7-26.9l14.7-92.5h24.1L119,217.8c-1.2,6.8,2.9,10.1,8.6,10.1h13.2
		c5.7,0,10.8-3.4,11.8-10.1l13.8-87.1h24.1l-14.7,92.5C173.7,237.1,160.2,250.1,140.1,250.1z"/>
	<path fill="#FFFFFF" d="M255.8,249h-70.4l18.7-118.4h68.7l-3.4,22.1h-44.9l-4.1,25.3h39.2l-3.4,22.1h-39.3l-4.2,26.7h46.4
		L255.8,249z"/>
	<path fill="#FFFFFF" d="M294.8,213.9l-0.7,3.9c-1.2,6.8,3,10.1,9.3,10.1h12c6.1,0,11.5-3,12.7-10l0.3-2.9
		c0.7-4.7-7.6-7.9-16.7-12.3c-14.5-7.1-33.4-16.2-30.2-36l1.7-10.8c2-13.5,15-26.2,34.1-26.2h13.7c20.1,0,29.7,12.8,27.5,26.5
		l-2.2,14.5h-24l1.4-8.9c1.2-6.8-3.2-10-9-10h-6.8c-5.7,0-10.8,3-11.8,9.6l-0.5,3c-0.7,5.1,6.8,8.8,15.5,12.8
		c14.9,6.9,34.6,15.7,31.9,33.4l-2,12.5c-2.2,14.2-16,26.7-36.5,26.7h-16.2c-21.1,0-31.4-13-29.2-26.9l1.5-9.3H294.8z"/>
	<path fill="#FFFFFF" d="M376.9,249l15.2-96.3h-26.3l3.5-22.1h74.3l-3.4,22.1H416L400.8,249H376.9z"/>
	<path fill="#FFFFFF" d="M433.8,249l18.7-118.4h24L457.7,249H433.8z"/>
	<path fill="#FFFFFF" d="M502.5,250.1c-20.9,0-30.9-13-28.7-26.9l10.6-66.5c2.2-13.8,16.2-26.9,37-26.9H539
		c20.1,0,29.6,13,27.4,26.9l-10.5,66.5c-2.2,13.8-15.9,26.9-35.8,26.9H502.5z M520.7,227.9c5.7,0,11-3.4,12-10.1l8.8-55.7
		c1-6.8-3-10.1-8.8-10.1h-13.2c-5.7,0-10.8,3.4-12,10.1l-8.8,55.7c-1,6.8,2.9,10.1,8.6,10.1H520.7z"/>
	<path fill="#FFFFFF" d="M563.6,249l18.7-118.4h24l23.5,67.2l10.6-67.2h23.8L645.5,249h-24l-23.5-66.7L587.6,249H563.6z"/>
</g>
<g opacity="0.2">
	<path d="M119,129.8l18.7-118.4h24l23.5,67.2l10.6-67.2h23.8l-18.7,118.4h-24l-23.5-66.7L143,129.8H119z"/>
	<path d="M285.2,129.8h-70.4l18.7-118.4h68.7l-3.4,22.1h-44.9l-4.1,25.3H289L285.7,81h-39.3l-4.2,26.7h46.4L285.2,129.8z"/>
	<path d="M403.4,11.6L363.7,70l23.3,59.8h-26.7l-14.9-38l-27.5,38h-26.2l44.6-61.6l-21.8-56.6h26.5l13.2,33.9L377,11.6H403.4z"/>
	<path d="M413.7,129.8l15.2-96.3h-26.3l3.5-22.1h74.3L477,33.5h-24.1l-15.2,96.3H413.7z"/>
</g>
<g>
	<path fill="#FFFFFF" d="M110.1,118.4L128.9,0h24l23.5,67.2L187,0h23.8L192,118.4h-24l-23.5-66.7l-10.5,66.7H110.1z"/>
	<path fill="#FFFFFF" d="M276.3,118.4h-70.4L224.6,0h68.7L290,22.1h-44.9L241,47.5h39.2l-3.4,22.1h-39.3l-4.2,26.7h46.4L276.3,118.4
		z"/>
	<path fill="#FFFFFF" d="M394.5,0.2l-39.7,58.4l23.3,59.8h-26.7l-14.9-38l-27.5,38h-26.2l44.6-61.6L305.7,0.2h26.5l13.2,33.9
		l22.8-33.9H394.5z"/>
	<path fill="#FFFFFF" d="M404.8,118.4L420,22.1h-26.3L397.2,0h74.3l-3.4,22.1H444l-15.2,96.3H404.8z"/>
</g>
</svg>
