<?xml version="1.0" encoding="utf-8"?>
<!-- Generator: Adobe Illustrator 18.1.1, SVG Export Plug-In . SVG Version: 6.00 Build 0)  -->
<svg version="1.1" id="Layer_1" xmlns="http://www.w3.org/2000/svg" xmlns:xlink="http://www.w3.org/1999/xlink" x="0px" y="0px"
	 viewBox="0 0 1071.4 165.9" enable-background="new 0 0 1071.4 165.9" xml:space="preserve">
<g>
	<g opacity="0.2">
		<path d="M445.4,165.9l-9.3-34.3c-20.9,0-30.9-13-28.7-26.8l10.6-66.5c2.2-13.8,16.2-26.9,37-26.9h17.6c20.1,0,29.6,13,27.4,26.9
			l-10.5,66.5c-1.9,11.8-12.2,23-27.5,26l6.8,24.8L445.4,165.9z M454.4,109.5c5.7,0,11-3.4,12-10.1l8.8-55.7c1-6.8-3-10.1-8.8-10.1
			h-13.2c-5.7,0-10.8,3.4-12,10.1l-8.8,55.7c-1,6.8,2.9,10.1,8.6,10.1H454.4z"/>
		<path d="M547.3,131.6h-17.4c-20.8,0-30.9-13-28.7-26.8l14.7-92.5H540l-13.8,87.1c-1.2,6.8,2.9,10.1,8.6,10.1h13.2
			c5.7,0,10.8-3.4,11.8-10.1l13.8-87.1h24.1l-14.7,92.5C580.9,118.6,567.4,131.6,547.3,131.6z"/>
		<path d="M662.9,130.6h-70.4l18.7-118.4H680l-3.4,22.1h-44.9l-4.1,25.3h39.2l-3.4,22.1h-39.3l-4.2,26.7h46.4L662.9,130.6z"/>
		<path d="M701.9,95.5l-0.7,3.9c-1.2,6.8,3,10.1,9.3,10.1h12c6.1,0,11.5-3,12.7-10l0.3-2.9c0.7-4.7-7.6-7.9-16.7-12.3
			c-14.5-7.1-33.4-16.2-30.2-36l1.7-10.8c2-13.5,15-26.2,34.1-26.2h13.7c20.1,0,29.7,12.8,27.5,26.5l-2.2,14.5h-24l1.4-9
			c1.2-6.8-3.2-10-9-10h-6.8c-5.7,0-10.8,3-11.8,9.6l-0.5,3c-0.7,5.1,6.8,8.8,15.5,12.8c14.9,6.9,34.6,15.7,31.9,33.4l-2,12.5
			c-2.2,14.2-16,26.7-36.5,26.7h-16.2c-21.1,0-31.4-13-29.2-26.8l1.5-9.3H701.9z"/>
		<path d="M784,130.6l15.2-96.3h-26.3l3.5-22.1h74.3l-3.4,22.1h-24.1L808,130.6H784z"/>
		<path d="M840.9,130.6l18.7-118.4h24l-18.7,118.4H840.9z"/>
		<path d="M909.6,131.6c-20.9,0-30.9-13-28.7-26.8l10.6-66.5c2.2-13.8,16.2-26.9,37-26.9h17.6c20.1,0,29.6,13,27.4,26.9L963,104.8
			c-2.2,13.8-15.9,26.8-35.8,26.8H909.6z M927.9,109.5c5.7,0,11-3.4,12-10.1l8.8-55.7c1-6.8-3-10.1-8.8-10.1h-13.2
			c-5.7,0-10.8,3.4-12,10.1l-8.8,55.7c-1,6.8,2.9,10.1,8.6,10.1H927.9z"/>
		<path d="M970.8,130.6l18.7-118.4h24l23.5,67.2l10.6-67.2h23.8l-18.7,118.4h-24l-23.5-66.7l-10.5,66.7H970.8z"/>
	</g>
	<g>
		<path fill="#FFFFFF" d="M436.6,154.5l-9.3-34.3c-20.9,0-30.9-13-28.7-26.9l10.6-66.5C411.4,13,425.4,0,446.2,0h17.6
			c20.1,0,29.6,13,27.4,26.9l-10.5,66.5c-1.9,11.8-12.2,23-27.5,26l6.8,24.8L436.6,154.5z M445.5,98.1c5.7,0,11-3.4,12-10.1
			l8.8-55.7c1-6.8-3-10.1-8.8-10.1h-13.2c-5.7,0-10.8,3.4-12,10.1L423.6,88c-1,6.8,2.9,10.1,8.6,10.1H445.5z"/>
		<path fill="#FFFFFF" d="M538.4,120.2H521c-20.8,0-30.9-13-28.7-26.9L507,0.8h24.1L517.3,88c-1.2,6.8,2.9,10.1,8.6,10.1h13.2
			c5.7,0,10.8-3.4,11.8-10.1l13.8-87.1h24.1l-14.7,92.5C572,107.2,558.5,120.2,538.4,120.2z"/>
		<path fill="#FFFFFF" d="M654.1,119.2h-70.4L602.4,0.8h68.7L667.8,23h-44.9l-4.1,25.3H658l-3.4,22.1h-39.3L611,97.1h46.4
			L654.1,119.2z"/>
		<path fill="#FFFFFF" d="M693.1,84.1l-0.7,3.9c-1.2,6.8,3,10.1,9.3,10.1h12c6.1,0,11.5-3,12.7-10l0.3-2.9
			c0.7-4.7-7.6-7.9-16.7-12.3c-14.5-7.1-33.4-16.2-30.2-36l1.7-10.8c2-13.5,15-26.2,34.1-26.2h13.7c20.1,0,29.7,12.8,27.5,26.5
			L754.6,41h-24l1.4-8.9c1.2-6.8-3.2-10-9-10h-6.8c-5.7,0-10.8,3-11.8,9.6l-0.5,3c-0.7,5.1,6.8,8.8,15.5,12.8
			c14.9,6.9,34.6,15.7,31.9,33.4l-2,12.5c-2.2,14.2-16,26.7-36.5,26.7h-16.2c-21.1,0-31.4-13-29.2-26.9l1.5-9.3H693.1z"/>
		<path fill="#FFFFFF" d="M775.2,119.2L790.4,23H764l3.5-22.1h74.3L838.5,23h-24.1l-15.2,96.3H775.2z"/>
		<path fill="#FFFFFF" d="M832.1,119.2L850.8,0.8h24L856,119.2H832.1z"/>
		<path fill="#FFFFFF" d="M900.8,120.2c-20.9,0-30.9-13-28.7-26.9l10.6-66.5C884.9,13,898.9,0,919.7,0h17.6
			c20.1,0,29.6,13,27.4,26.9l-10.5,66.5c-2.2,13.8-15.9,26.9-35.8,26.9H900.8z M919,98.1c5.7,0,11-3.4,12-10.1l8.8-55.7
			c1-6.8-3-10.1-8.8-10.1h-13.2c-5.7,0-10.8,3.4-12,10.1L897.1,88c-1,6.8,2.9,10.1,8.6,10.1H919z"/>
		<path fill="#FFFFFF" d="M961.9,119.2L980.7,0.8h24l23.5,67.2l10.6-67.2h23.8l-18.7,118.4h-24l-23.5-66.7l-10.5,66.7H961.9z"/>
	</g>
</g>
<g>
	<g opacity="0.2">
		<path d="M8.9,129.8L27.6,11.4h24l23.5,67.2l10.6-67.2h23.8L90.8,129.8h-24L43.3,63.1l-10.5,66.7H8.9z"/>
		<path d="M175,129.8h-70.4l18.7-118.4h68.7l-3.4,22.1h-44.9l-4.1,25.3h39.2L175.5,81h-39.3l-4.2,26.7h46.4L175,129.8z"/>
		<path d="M293.2,11.6L253.5,70l23.3,59.8h-26.7l-14.9-38l-27.5,38h-26.2l44.6-61.6l-21.8-56.6h26.5l13.2,33.9l22.8-33.9H293.2z"/>
		<path d="M306.5,129.8l15.2-96.3h-26.3l3.5-22.1h74.3l-3.4,22.1h-24.1l-15.2,96.3H306.5z"/>
	</g>
	<g>
		<path fill="#FFFFFF" d="M0,118.4L18.7,0h24l23.5,67.2L76.8,0h23.8L81.9,118.4h-24L34.4,51.7L24,118.4H0z"/>
		<path fill="#FFFFFF" d="M166.2,118.4H95.7L114.5,0h68.7l-3.4,22.1h-44.9l-4.1,25.3H170l-3.4,22.1h-39.3l-4.2,26.7h46.4
			L166.2,118.4z"/>
		<path fill="#FFFFFF" d="M284.4,0.2l-39.7,58.4l23.3,59.8h-26.7l-14.9-38l-27.5,38h-26.2l44.6-61.6L195.5,0.2h26.5l13.2,33.9
			L258,0.2H284.4z"/>
		<path fill="#FFFFFF" d="M298.7,118.4l15.2-96.3h-26.3L291.1,0h74.3L362,22.1h-24.1l-15.2,96.3H298.7z"/>
	</g>
</g>
</svg>
