<?xml version="1.0" encoding="utf-8"?>
<!-- Generator: Adobe Illustrator 18.1.1, SVG Export Plug-In . SVG Version: 6.00 Build 0)  -->
<svg version="1.1" id="Layer_1" xmlns="http://www.w3.org/2000/svg" xmlns:xlink="http://www.w3.org/1999/xlink" x="0px" y="0px"
	 viewBox="0 0 1134.1 165.9" enable-background="new 0 0 1134.1 165.9" xml:space="preserve">
<g opacity="0.2">
	<path d="M34.8,95.5l-0.7,3.9c-1.2,6.8,3,10.1,9.3,10.1h12c6.1,0,11.5-3,12.7-10l0.3-2.9c0.7-4.7-7.6-7.9-16.7-12.3
		c-14.5-7.1-33.4-16.2-30.2-36l1.7-10.8c2-13.5,15-26.2,34.1-26.2H71c20.1,0,29.7,12.8,27.5,26.5l-2.2,14.5h-24l1.4-9
		c1.2-6.8-3.2-10-9-10h-6.8c-5.7,0-10.8,3-11.8,9.6l-0.5,3C44.9,51.3,52.4,55,61.2,59C76,66,95.8,74.7,93.1,92.5L91,105
		c-2.2,14.2-16,26.7-36.5,26.7H38.4c-21.1,0-31.4-13-29.2-26.9l1.5-9.3H34.8z"/>
	<path d="M116.9,130.6l15.2-96.3h-26.3l3.5-22.1h74.3l-3.4,22.1h-24.1l-15.2,96.3H116.9z"/>
	<path d="M232.6,12.1l17.7,118.5h-24.1l-3-23.5h-35.6l-10.1,23.5h-24l55.2-118.5H232.6z M197.1,85h23.1L215,44.7L197.1,85z"/>
	<path d="M258.6,130.6l18.7-118.4h48.3c20.1,0,29.9,12.8,27.7,26.7l-4.1,25.2c-1.5,9.1-8.3,18.2-18.9,23l10.8,43.6h-25l-10-40.2
		h-17.4l-6.2,40.2H258.6z M297.7,34.5l-5.4,33.8h22c5.7,0,10.8-3.2,11.8-9.8l2.4-14.2c0.8-6.8-3.2-9.8-9.1-9.8H297.7z"/>
	<path d="M372.5,130.6l15.2-96.3h-26.3l3.5-22.1h74.3l-3.4,22.1h-24.1l-15.2,96.3H372.5z"/>
</g>
<g>
	<path fill="#FFFFFF" d="M26,84.1L25.3,88c-1.2,6.8,3,10.1,9.3,10.1h12c6.1,0,11.5-3,12.7-10l0.3-2.9c0.7-4.7-7.6-7.9-16.7-12.3
		C28.3,65.9,9.4,56.7,12.6,37l1.7-10.8C16.3,12.7,29.3,0,48.4,0h13.7c20.1,0,29.7,12.8,27.5,26.5L87.4,41h-24l1.4-9
		c1.2-6.8-3.2-10-9-10h-6.8c-5.7,0-10.8,3-11.8,9.6l-0.5,3c-0.7,5.1,6.8,8.8,15.5,12.8c14.9,6.9,34.6,15.7,31.9,33.4l-2,12.5
		c-2.2,14.2-16,26.7-36.5,26.7H29.5c-21.1,0-31.4-13-29.2-26.9l1.5-9.3H26z"/>
	<path fill="#FFFFFF" d="M108,119.2L123.2,23H96.9l3.5-22.1h74.3L171.4,23h-24.1L132,119.2H108z"/>
	<path fill="#FFFFFF" d="M223.7,0.7l17.7,118.5h-24.1l-3-23.5h-35.6l-10.1,23.5h-24L199.7,0.7H223.7z M188.2,73.6h23.1l-5.2-40.4
		L188.2,73.6z"/>
	<path fill="#FFFFFF" d="M249.7,119.2L268.4,0.8h48.3c20.1,0,29.9,12.8,27.7,26.7l-4.1,25.2c-1.5,9.1-8.3,18.2-18.9,23l10.8,43.6
		h-25l-10-40.2h-17.4l-6.2,40.2H249.7z M288.9,23.1l-5.4,33.8h22c5.7,0,10.8-3.2,11.8-9.8l2.4-14.2c0.8-6.8-3.2-9.8-9.1-9.8H288.9z"
		/>
	<path fill="#FFFFFF" d="M363.7,119.2L378.9,23h-26.3l3.5-22.1h74.3L427,23h-24.1l-15.2,96.3H363.7z"/>
</g>
<g>
	<g opacity="0.2">
		<path d="M508.1,165.9l-9.3-34.3c-20.9,0-30.9-13-28.7-26.8l10.6-66.5c2.2-13.8,16.2-26.9,37-26.9h17.6c20.1,0,29.6,13,27.4,26.9
			l-10.5,66.5c-1.9,11.8-12.2,23-27.5,26l6.8,24.8L508.1,165.9z M517,109.5c5.7,0,11-3.4,12-10.1l8.8-55.7c1-6.8-3-10.1-8.8-10.1
			h-13.2c-5.7,0-10.8,3.4-12,10.1l-8.8,55.7c-1,6.8,2.9,10.1,8.6,10.1H517z"/>
		<path d="M609.9,131.6h-17.4c-20.8,0-30.9-13-28.7-26.8l14.7-92.5h24.1l-13.8,87.1c-1.2,6.8,2.9,10.1,8.6,10.1h13.2
			c5.7,0,10.8-3.4,11.8-10.1l13.8-87.1h24.1l-14.7,92.5C643.5,118.6,630,131.6,609.9,131.6z"/>
		<path d="M725.6,130.6h-70.4l18.7-118.4h68.7l-3.4,22.1h-44.9l-4.1,25.3h39.2l-3.4,22.1h-39.3l-4.2,26.7H729L725.6,130.6z"/>
		<path d="M764.6,95.5l-0.7,3.9c-1.2,6.8,3,10.1,9.3,10.1h12c6.1,0,11.5-3,12.7-10l0.3-2.9c0.7-4.7-7.6-7.9-16.7-12.3
			c-14.5-7.1-33.4-16.2-30.2-36l1.7-10.8c2-13.5,15-26.2,34.1-26.2h13.7c20.1,0,29.7,12.8,27.5,26.5l-2.2,14.5h-24l1.4-9
			c1.2-6.8-3.2-10-9-10h-6.8c-5.7,0-10.8,3-11.8,9.6l-0.5,3c-0.7,5.1,6.8,8.8,15.5,12.8c14.9,6.9,34.6,15.7,31.9,33.4l-2,12.5
			c-2.2,14.2-16,26.7-36.5,26.7h-16.2c-21.1,0-31.4-13-29.2-26.8l1.5-9.3H764.6z"/>
		<path d="M846.7,130.6l15.2-96.3h-26.3l3.5-22.1h74.3L910,34.4h-24.1l-15.2,96.3H846.7z"/>
		<path d="M903.6,130.6l18.7-118.4h24l-18.7,118.4H903.6z"/>
		<path d="M972.3,131.6c-20.9,0-30.9-13-28.7-26.8l10.6-66.5c2.2-13.8,16.2-26.9,37-26.9h17.6c20.1,0,29.6,13,27.4,26.9l-10.5,66.5
			c-2.2,13.8-15.9,26.8-35.8,26.8H972.3z M990.5,109.5c5.7,0,11-3.4,12-10.1l8.8-55.7c1-6.8-3-10.1-8.8-10.1h-13.2
			c-5.7,0-10.8,3.4-12,10.1l-8.8,55.7c-1,6.8,2.9,10.1,8.6,10.1H990.5z"/>
		<path d="M1033.4,130.6l18.7-118.4h24l23.5,67.2l10.6-67.2h23.8l-18.7,118.4h-24l-23.5-66.7l-10.5,66.7H1033.4z"/>
	</g>
	<g>
		<path fill="#FFFFFF" d="M499.2,154.5l-9.3-34.3c-20.9,0-30.9-13-28.7-26.9l10.6-66.5C474.1,13,488.1,0,508.9,0h17.6
			c20.1,0,29.6,13,27.4,26.9l-10.5,66.5c-1.9,11.8-12.2,23-27.5,26l6.8,24.8L499.2,154.5z M508.2,98.1c5.7,0,11-3.4,12-10.1
			l8.8-55.7c1-6.8-3-10.1-8.8-10.1H507c-5.7,0-10.8,3.4-12,10.1L486.2,88c-1,6.8,2.9,10.1,8.6,10.1H508.2z"/>
		<path fill="#FFFFFF" d="M601.1,120.2h-17.4c-20.8,0-30.9-13-28.7-26.9l14.7-92.5h24.1L579.9,88c-1.2,6.8,2.9,10.1,8.6,10.1h13.2
			c5.7,0,10.8-3.4,11.8-10.1l13.8-87.1h24.1l-14.7,92.5C634.7,107.2,621.1,120.2,601.1,120.2z"/>
		<path fill="#FFFFFF" d="M716.7,119.2h-70.4L665.1,0.8h68.7L730.4,23h-44.9l-4.1,25.3h39.2l-3.4,22.1h-39.3l-4.2,26.7h46.4
			L716.7,119.2z"/>
		<path fill="#FFFFFF" d="M755.7,84.1l-0.7,3.9c-1.2,6.8,3,10.1,9.3,10.1h12c6.1,0,11.5-3,12.7-10l0.3-2.9
			c0.7-4.7-7.6-7.9-16.7-12.3c-14.5-7.1-33.4-16.2-30.2-36l1.7-10.8c2-13.5,15-26.2,34.1-26.2h13.7c20.1,0,29.7,12.8,27.5,26.5
			L817.2,41h-24l1.4-8.9c1.2-6.8-3.2-10-9-10h-6.8c-5.7,0-10.8,3-11.8,9.6l-0.5,3c-0.7,5.1,6.8,8.8,15.5,12.8
			c14.9,6.9,34.6,15.7,31.9,33.4l-2,12.5c-2.2,14.2-16,26.7-36.5,26.7h-16.2c-21.1,0-31.4-13-29.2-26.9l1.5-9.3H755.7z"/>
		<path fill="#FFFFFF" d="M837.8,119.2L853,23h-26.3l3.5-22.1h74.3L901.1,23H877l-15.2,96.3H837.8z"/>
		<path fill="#FFFFFF" d="M894.7,119.2L913.4,0.8h24l-18.7,118.4H894.7z"/>
		<path fill="#FFFFFF" d="M963.4,120.2c-20.9,0-30.9-13-28.7-26.9l10.6-66.5C947.6,13,961.6,0,982.3,0h17.6
			c20.1,0,29.6,13,27.4,26.9l-10.5,66.5c-2.2,13.8-15.9,26.9-35.8,26.9H963.4z M981.7,98.1c5.7,0,11-3.4,12-10.1l8.8-55.7
			c1-6.8-3-10.1-8.8-10.1h-13.2c-5.7,0-10.8,3.4-12,10.1L959.7,88c-1,6.8,2.9,10.1,8.6,10.1H981.7z"/>
		<path fill="#FFFFFF" d="M1024.6,119.2l18.7-118.4h24l23.5,67.2l10.6-67.2h23.8l-18.7,118.4h-24L1059,52.5l-10.5,66.7H1024.6z"/>
	</g>
</g>
</svg>
