<?xml version="1.0" encoding="utf-8"?>
<!-- Generator: Adobe Illustrator 18.1.0, SVG Export Plug-In . SVG Version: 6.00 Build 0)  -->
<!DOCTYPE svg PUBLIC "-//W3C//DTD SVG 1.1//EN" "http://www.w3.org/Graphics/SVG/1.1/DTD/svg11.dtd">
<svg version="1.1" id="Layer_1" xmlns="http://www.w3.org/2000/svg" xmlns:xlink="http://www.w3.org/1999/xlink" x="0px" y="0px"
	 viewBox="51.1 980 492.9 141" enable-background="new 51.1 980 492.9 141" xml:space="preserve">
<g opacity="0.2">
	<path d="M56.9,1119.9l20.6-130.1h75.7l-3.7,24.3H100l-4.8,31h46.4l-4.1,24.5H91.3l-8,50.3H56.9z"/>
	<path d="M144.9,1119.9l20.6-130.1h26.4l-20.6,130.1H144.9z"/>
	<path d="M186.5,1119.9l20.6-130.1h26.4l25.8,73.9l11.7-73.9h26.2l-20.6,130.1h-26.4l-25.8-73.3l-11.5,73.3H186.5z"/>
	<path d="M291.7,1119.9l20.6-130.1h26.4l-20.6,130.1H291.7z"/>
	<path d="M363.4,1081.3l-0.7,4.3c-1.3,7.4,3.3,11.1,10.2,11.1H386c6.7,0,12.6-3.3,13.9-11l0.4-3.2c0.7-5.2-8.4-8.7-18.4-13.6
		c-16-7.8-36.8-17.8-33.2-39.5l1.9-11.9c2.2-14.8,16.5-28.8,37.5-28.8h15c22.1,0,32.7,14.1,30.3,29.1l-2.4,16h-26.4l1.5-9.8
		c1.3-7.4-3.5-11-9.8-11h-7.4c-6.3,0-11.9,3.3-13,10.6l-0.6,3.3c-0.7,5.6,7.4,9.7,17.1,14.1c16.3,7.6,38.1,17.3,35.1,36.8l-2.2,13.7
		c-2.4,15.6-17.6,29.3-40.1,29.3h-17.8c-23.2,0-34.5-14.3-32.1-29.5l1.7-10.2H363.4z"/>
	<path d="M433.3,1119.9l20.6-130.1h26.4l-8,50.3h37.5l8-50.3H544l-20.6,130.1h-26.2l8.7-55.5h-37.5l-8.7,55.5H433.3z"/>
</g>
<g>
	<path fill="#FFFFFF" d="M51.1,1111.1l20.6-130.1h75.7l-3.7,24.3H94.1l-4.8,31h46.4l-4.1,24.5H85.4l-8,50.3H51.1z"/>
	<path fill="#FFFFFF" d="M139,1111.1l20.6-130.1H186l-20.6,130.1H139z"/>
	<path fill="#FFFFFF" d="M180.6,1111.1l20.6-130.1h26.4l25.8,73.9l11.7-73.9h26.2l-20.6,130.1h-26.4l-25.8-73.3l-11.5,73.3H180.6z"
		/>
	<path fill="#FFFFFF" d="M285.8,1111.1l20.6-130.1h26.4l-20.6,130.1H285.8z"/>
	<path fill="#FFFFFF" d="M357.5,1072.4l-0.7,4.3c-1.3,7.4,3.3,11.1,10.2,11.1h13.2c6.7,0,12.6-3.3,13.9-11l0.4-3.2
		c0.7-5.2-8.4-8.7-18.4-13.6c-16-7.8-36.8-17.8-33.2-39.5l1.9-11.9c2.2-14.8,16.5-28.8,37.5-28.8h15c22.1,0,32.7,14.1,30.3,29.1
		l-2.4,16h-26.4l1.5-9.8c1.3-7.4-3.5-11-9.8-11h-7.4c-6.3,0-11.9,3.3-13,10.6l-0.6,3.3c-0.7,5.6,7.4,9.7,17.1,14.1
		c16.3,7.6,38.1,17.3,35.1,36.8l-2.2,13.7c-2.4,15.6-17.6,29.3-40.1,29.3h-17.8c-23.2,0-34.5-14.3-32.1-29.5l1.7-10.2H357.5z"/>
	<path fill="#FFFFFF" d="M427.5,1111.1l20.6-130.1h26.4l-8,50.3h37.5l8-50.3h26.2l-20.6,130.1h-26.2l8.7-55.5h-37.5l-8.7,55.5H427.5
		z"/>
</g>
</svg>
