<?xml version="1.0" encoding="utf-8"?>
<!-- Generator: Adobe Illustrator 18.1.1, SVG Export Plug-In . SVG Version: 6.00 Build 0)  -->
<svg version="1.1" id="Layer_1" xmlns="http://www.w3.org/2000/svg" xmlns:xlink="http://www.w3.org/1999/xlink" x="0px" y="0px"
	 viewBox="0 0 956 142.9" enable-background="new 0 0 956 142.9" xml:space="preserve">
<g opacity="0.2">
	<path d="M34.8,106.8l-0.7,3.9c-1.2,6.8,3,10.1,9.3,10.1h12c6.1,0,11.5-3,12.7-10l0.3-2.9c0.7-4.7-7.6-7.9-16.7-12.3
		c-14.5-7.1-33.4-16.2-30.2-36l1.7-10.8c2-13.5,15-26.2,34.1-26.2H71c20.1,0,29.7,12.8,27.5,26.5l-2.2,14.5h-24l1.4-8.9
		c1.2-6.8-3.2-10-9-10h-6.8c-5.7,0-10.8,3-11.8,9.6l-0.5,3c-0.7,5.1,6.8,8.8,15.5,12.8C76,77.2,95.8,86,93.1,103.7l-2,12.5
		c-2.2,14.2-16,26.7-36.5,26.7H38.4c-21.1,0-31.4-13-29.2-26.9l1.5-9.3H34.8z"/>
	<path d="M98.5,141.9l18.7-118.2h24L133.4,72h8.1l27.9-48.3h26.3l-34.6,57.6l21.8,60.6h-26.9l-15.5-47.8h-10.5l-7.6,47.8H98.5z"/>
	<path d="M190.5,141.9l18.7-118.4h24l-18.7,118.4H190.5z"/>
	<path d="M228.3,141.9l18.7-118.4h48c20.1,0,29.9,12.8,27.7,26.7l-4.1,25.2c-2.2,13.7-15.9,26.7-35.8,26.7h-24.3l-6.2,39.9H228.3z
		 M267.5,45.8l-5.4,34.1h21.6c5.6,0,10.8-3.4,11.8-10.1l2.2-14.2c1-6.8-3-9.8-8.9-9.8H267.5z"/>
</g>
<g>
	<path fill="#FFFFFF" d="M26,95.4l-0.7,3.9c-1.2,6.8,3,10.1,9.3,10.1h12c6.1,0,11.5-3,12.7-10l0.3-2.9c0.7-4.7-7.6-7.9-16.7-12.3
		C28.3,77.1,9.4,68,12.6,48.3l1.7-10.8c2-13.5,15-26.2,34.1-26.2h13.7c20.1,0,29.7,12.8,27.5,26.5l-2.2,14.5h-24l1.4-8.9
		c1.2-6.8-3.2-10-9-10h-6.8c-5.7,0-10.8,3-11.8,9.6l-0.5,3c-0.7,5.1,6.8,8.8,15.5,12.8c14.9,6.9,34.6,15.7,31.9,33.4l-2,12.5
		c-2.2,14.2-16,26.7-36.5,26.7H29.5c-21.1,0-31.4-13-29.2-26.9l1.5-9.3H26z"/>
	<path fill="#FFFFFF" d="M89.6,130.5l18.7-118.2h24l-7.8,48.3h8.1l27.9-48.3h26.3l-34.6,57.6l21.8,60.6h-26.9l-15.5-47.8h-10.5
		l-7.6,47.8H89.6z"/>
	<path fill="#FFFFFF" d="M181.6,130.5l18.7-118.4h24l-18.7,118.4H181.6z"/>
	<path fill="#FFFFFF" d="M219.5,130.5l18.7-118.4h48c20.1,0,29.9,12.8,27.7,26.7L309.8,64c-2.2,13.7-15.9,26.7-35.8,26.7h-24.3
		l-6.2,39.9H219.5z M258.7,34.4l-5.4,34.1h21.6c5.6,0,10.8-3.4,11.8-10.1l2.2-14.2c1-6.8-3-9.8-9-9.8H258.7z"/>
</g>
<g>
	<g opacity="0.2">
		<path d="M353.6,141.8l18.7-118.4h25.2l17.6,63.5l37.8-63.5h24l-18.7,118.4h-24l10.1-64.2l-22.8,38.8h-23l-10.8-39.3l-10.1,64.7
			H353.6z"/>
		<path d="M502.7,142.8c-20.9,0-30.9-13-28.7-26.9l10.6-66.5c2.2-13.8,16.2-26.9,37-26.9h17.6c20.1,0,29.6,13,27.4,26.9l-10.5,66.5
			c-2.2,13.8-15.9,26.9-35.8,26.9H502.7z M521,120.7c5.7,0,11-3.4,12-10.1l8.8-55.7c1-6.8-3-10.1-8.8-10.1h-13.2
			c-5.7,0-10.8,3.4-12,10.1l-8.8,55.7c-1,6.8,2.9,10.1,8.6,10.1H521z"/>
		<path d="M563.9,141.8l18.7-118.2h50.5c20.1,0,29.4,13,27.2,26.9L650,114.9c-2.2,13.8-15.5,26.9-35.6,26.9H563.9z M603,45.7
			l-11.7,74H615c5.7,0,11-3.4,12-10.1l8.6-53.7c0.8-6.8-3-10.1-8.8-10.1H603z"/>
		<path d="M707.7,142.8h-17.4c-20.8,0-30.9-13-28.7-26.9l14.7-92.5h24.1l-13.8,87.1c-1.2,6.8,2.9,10.1,8.6,10.1h13.2
			c5.7,0,10.8-3.4,11.8-10.1l13.8-87.1h24.1l-14.7,92.5C741.3,129.8,727.8,142.8,707.7,142.8z"/>
		<path d="M819.7,141.8H753l18.7-118.4h24l-15.4,96.3h42.9L819.7,141.8z"/>
		<path d="M898.9,141.8h-70.4l18.7-118.4h68.7l-3.4,22.1h-44.9l-4.1,25.3h39.2L899.4,93H860l-4.2,26.7h46.4L898.9,141.8z"/>
		<path d="M912.1,141.8l3.9-24.5h23.3l-3.9,24.5H912.1z M918,105l14.7-93.6H956L941.1,105H918z"/>
	</g>
	<g>
		<path fill="#FFFFFF" d="M344.8,130.4L363.5,12h25.2l17.6,63.5L444.1,12h24l-18.7,118.4h-24l10.1-64.2L412.7,105h-23l-10.8-39.3
			l-10.1,64.7H344.8z"/>
		<path fill="#FFFFFF" d="M493.9,131.4c-20.9,0-30.9-13-28.7-26.9L475.8,38c2.2-13.8,16.2-26.9,37-26.9h17.6
			c20.1,0,29.6,13,27.4,26.9l-10.5,66.5c-2.2,13.8-15.9,26.9-35.8,26.9H493.9z M512.1,109.3c5.7,0,11-3.4,12-10.1l8.8-55.7
			c1-6.8-3-10.1-8.8-10.1h-13.2c-5.7,0-10.8,3.4-12,10.1l-8.8,55.7c-1,6.8,2.9,10.1,8.6,10.1H512.1z"/>
		<path fill="#FFFFFF" d="M555,130.4l18.7-118.2h50.5c20.1,0,29.4,13,27.2,26.9l-10.3,64.5c-2.2,13.8-15.5,26.9-35.6,26.9H555z
			 M594.2,34.3l-11.7,74h23.6c5.7,0,11-3.4,12-10.1l8.6-53.7c0.8-6.8-3-10.1-8.8-10.1H594.2z"/>
		<path fill="#FFFFFF" d="M698.9,131.4h-17.4c-20.8,0-30.9-13-28.7-26.9L667.5,12h24.1l-13.8,87.1c-1.2,6.8,2.9,10.1,8.6,10.1h13.2
			c5.7,0,10.8-3.4,11.8-10.1L725.2,12h24.1l-14.7,92.5C732.5,118.4,719,131.4,698.9,131.4z"/>
		<path fill="#FFFFFF" d="M810.8,130.4h-66.7L762.9,12h24l-15.4,96.3h42.9L810.8,130.4z"/>
		<path fill="#FFFFFF" d="M890,130.4h-70.4L838.4,12h68.7l-3.4,22.1h-44.9l-4.1,25.3h39.2l-3.4,22.1h-39.3l-4.2,26.7h46.4L890,130.4
			z"/>
		<path fill="#FFFFFF" d="M903.2,130.4l3.9-24.5h23.3l-3.9,24.5H903.2z M909.1,93.6L923.8,0h23.3l-14.9,93.6H909.1z"/>
	</g>
</g>
</svg>
