<?xml version="1.0" encoding="utf-8"?>
<!-- Generator: Adobe Illustrator 18.1.1, SVG Export Plug-In . SVG Version: 6.00 Build 0)  -->
<svg version="1.1" id="Layer_1" xmlns="http://www.w3.org/2000/svg" xmlns:xlink="http://www.w3.org/1999/xlink" x="0px" y="0px"
	 viewBox="0 0 611.2 262.3" enable-background="new 0 0 611.2 262.3" xml:space="preserve">
<g opacity="0.2">
	<path d="M8.9,261.3l18.7-118.4h25.2l17.6,63.5l37.8-63.5h24l-18.7,118.4h-24l10.1-64.2L76.7,236h-23L43,196.6l-10.1,64.7H8.9z"/>
	<path d="M158,262.3c-20.9,0-30.9-13-28.7-26.9l10.6-66.5c2.2-13.8,16.2-26.9,37-26.9h17.6c20.1,0,29.6,13,27.4,26.9l-10.5,66.5
		c-2.2,13.8-15.9,26.9-35.8,26.9H158z M176.2,240.2c5.7,0,11-3.4,12-10.1l8.8-55.7c1-6.8-3-10.1-8.8-10.1H175
		c-5.7,0-10.8,3.4-12,10.1l-8.8,55.7c-1,6.8,2.9,10.1,8.6,10.1H176.2z"/>
	<path d="M219.1,261.3l18.7-118.2h50.5c20.1,0,29.4,13,27.2,26.9l-10.3,64.5c-2.2,13.8-15.5,26.9-35.6,26.9H219.1z M258.3,165.2
		l-11.7,74h23.6c5.7,0,11-3.4,12-10.1l8.6-53.7c0.8-6.8-3-10.1-8.8-10.1H258.3z"/>
	<path d="M363,262.3h-17.4c-20.8,0-30.9-13-28.7-26.9l14.7-92.5h24.1l-13.8,87.1c-1.2,6.8,2.9,10.1,8.6,10.1h13.2
		c5.7,0,10.8-3.4,11.8-10.1l13.8-87.1h24.1l-14.7,92.5C396.6,249.3,383.1,262.3,363,262.3z"/>
	<path d="M474.9,261.3h-66.7L427,142.9h24l-15.4,96.3h42.9L474.9,261.3z"/>
	<path d="M554.1,261.3h-70.4l18.7-118.4h68.7l-3.4,22.1h-44.9l-4.1,25.3H558l-3.4,22.1h-39.3l-4.2,26.7h46.4L554.1,261.3z"/>
	<path d="M567.3,261.3l3.9-24.5h23.3l-3.9,24.5H567.3z M573.2,224.5l14.7-93.6h23.3l-14.9,93.6H573.2z"/>
</g>
<g opacity="0.2">
	<path d="M83.3,95.5l-0.7,3.9c-1.2,6.8,3,10.1,9.3,10.1h12c6.1,0,11.5-3,12.7-10l0.3-2.9c0.7-4.7-7.6-7.9-16.7-12.3
		c-14.5-7.1-33.4-16.2-30.2-36l1.7-10.8c2-13.5,15-26.2,34.1-26.2h13.7c20.1,0,29.7,12.8,27.5,26.5l-2.2,14.5h-24l1.4-8.9
		c1.2-6.8-3.2-10-9-10h-6.8c-5.7,0-10.8,3-11.8,9.6l-0.5,3c-0.7,5.1,6.8,8.8,15.5,12.8c14.9,6.9,34.6,15.7,31.9,33.4l-2,12.5
		c-2.2,14.2-16,26.7-36.5,26.7H86.8c-21.1,0-31.4-13-29.2-26.9l1.5-9.3H83.3z"/>
	<path d="M146.9,130.6l18.7-118.2h24l-7.8,48.3h8.1l27.9-48.3h26.3L209.6,70l21.8,60.6h-26.9L189,82.8h-10.5l-7.6,47.8H146.9z"/>
	<path d="M238.9,130.6l18.7-118.4h24l-18.7,118.4H238.9z"/>
	<path d="M276.8,130.6l18.7-118.4h48c20.1,0,29.9,12.8,27.7,26.7l-4.1,25.2c-2.2,13.7-15.9,26.7-35.8,26.7H307l-6.2,39.9H276.8z
		 M315.9,34.5l-5.4,34.1h21.6c5.6,0,10.8-3.4,11.8-10.1l2.2-14.2c1-6.8-3-9.8-8.9-9.8H315.9z"/>
</g>
<g>
	<path fill="#FFFFFF" d="M74.4,84.1L73.7,88c-1.2,6.8,3,10.1,9.3,10.1h12c6.1,0,11.5-3,12.7-10l0.3-2.9c0.7-4.7-7.6-7.9-16.7-12.3
		c-14.5-7.1-33.4-16.2-30.2-36l1.7-10.8C64.8,12.7,77.8,0,96.9,0h13.7c20.1,0,29.7,12.8,27.5,26.5L135.9,41h-24l1.4-8.9
		c1.2-6.8-3.2-10-9-10h-6.8c-5.7,0-10.8,3-11.8,9.6l-0.5,3c-0.7,5.1,6.8,8.8,15.5,12.8c14.9,6.9,34.6,15.7,31.9,33.4l-2,12.5
		c-2.2,14.2-16,26.7-36.5,26.7H77.9c-21.1,0-31.4-13-29.2-26.9l1.5-9.3H74.4z"/>
	<path fill="#FFFFFF" d="M138.1,119.2L156.8,1h24L173,49.3h8.1L209,1h26.3l-34.6,57.6l21.8,60.6h-26.9l-15.5-47.8h-10.5l-7.6,47.8
		H138.1z"/>
	<path fill="#FFFFFF" d="M230.1,119.2L248.8,0.8h24l-18.7,118.4H230.1z"/>
	<path fill="#FFFFFF" d="M267.9,119.2L286.7,0.8h48c20.1,0,29.9,12.8,27.7,26.7l-4.1,25.2c-2.2,13.7-15.9,26.7-35.8,26.7h-24.3
		l-6.2,39.9H267.9z M307.1,23.1l-5.4,34.1h21.6c5.6,0,10.8-3.4,11.8-10.1l2.2-14.2c1-6.8-3-9.8-9-9.8H307.1z"/>
</g>
<g>
	<path fill="#FFFFFF" d="M0,249.9l18.7-118.4h25.2L61.5,195l37.8-63.5h24l-18.7,118.4h-24l10.1-64.2l-22.8,38.8h-23l-10.8-39.3
		L24,249.9H0z"/>
	<path fill="#FFFFFF" d="M149.1,250.9c-20.9,0-30.9-13-28.7-26.9l10.6-66.5c2.2-13.8,16.2-26.9,37-26.9h17.6
		c20.1,0,29.6,13,27.4,26.9l-10.5,66.5c-2.2,13.8-15.9,26.9-35.8,26.9H149.1z M167.3,228.8c5.7,0,11-3.4,12-10.1l8.8-55.7
		c1-6.8-3-10.1-8.8-10.1h-13.2c-5.7,0-10.8,3.4-12,10.1l-8.8,55.7c-1,6.8,2.9,10.1,8.6,10.1H167.3z"/>
	<path fill="#FFFFFF" d="M210.2,249.9L229,131.7h50.5c20.1,0,29.4,13,27.2,26.9L296.4,223c-2.2,13.8-15.5,26.9-35.6,26.9H210.2z
		 M249.4,153.8l-11.7,74h23.6c5.7,0,11-3.4,12-10.1l8.6-53.7c0.8-6.8-3-10.1-8.8-10.1H249.4z"/>
	<path fill="#FFFFFF" d="M354.1,250.9h-17.4c-20.8,0-30.9-13-28.7-26.9l14.7-92.5h24.1L333,218.6c-1.2,6.8,2.9,10.1,8.6,10.1h13.2
		c5.7,0,10.8-3.4,11.8-10.1l13.8-87.1h24.1l-14.7,92.5C387.7,237.9,374.2,250.9,354.1,250.9z"/>
	<path fill="#FFFFFF" d="M466.1,249.9h-66.7l18.7-118.4h24l-15.4,96.3h42.9L466.1,249.9z"/>
	<path fill="#FFFFFF" d="M545.3,249.9h-70.4l18.7-118.4h68.7l-3.4,22.1H514L510,179h39.2l-3.4,22.1h-39.3l-4.2,26.7h46.4
		L545.3,249.9z"/>
	<path fill="#FFFFFF" d="M558.4,249.9l3.9-24.5h23.3l-3.9,24.5H558.4z M564.3,213.1l14.7-93.6h23.3l-14.9,93.6H564.3z"/>
</g>
</svg>
