<?xml version="1.0" encoding="utf-8"?>
<!-- Generator: Adobe Illustrator 18.1.1, SVG Export Plug-In . SVG Version: 6.00 Build 0)  -->
<svg version="1.1" id="Layer_1" xmlns="http://www.w3.org/2000/svg" xmlns:xlink="http://www.w3.org/1999/xlink" x="0px" y="0px"
	 viewBox="0 0 658.7 262.3" enable-background="new 0 0 658.7 262.3" xml:space="preserve">
<g opacity="0.2">
	<path d="M34.8,95.5l-0.7,3.9c-1.2,6.8,3,10.1,9.3,10.1h12c6.1,0,11.5-3,12.7-10l0.3-2.9c0.7-4.7-7.6-7.9-16.7-12.3
		c-14.5-7.1-33.4-16.2-30.2-36l1.7-10.8c2-13.5,15-26.2,34.1-26.2H71c20.1,0,29.7,12.8,27.5,26.5l-2.2,14.5h-24l1.4-8.9
		c1.2-6.8-3.2-10-9-10h-6.8c-5.7,0-10.8,3-11.8,9.6l-0.5,3C44.9,51.3,52.4,55,61.2,59C76,66,95.8,74.7,93.1,92.5L91,105
		c-2.2,14.2-16,26.7-36.5,26.7H38.4c-21.1,0-31.4-13-29.2-26.9l1.5-9.3H34.8z"/>
	<path d="M116.9,130.6l15.2-96.3h-26.3l3.5-22.1h74.3l-3.4,22.1h-24.1l-15.2,96.3H116.9z"/>
	<path d="M232.6,12.1l17.7,118.5h-24.1l-3-23.5h-35.6l-10.1,23.5h-24l55.2-118.5H232.6z M197.1,85h23.1L215,44.7L197.1,85z"/>
	<path d="M258.6,130.6l18.7-118.4h48.3c20.1,0,29.9,12.8,27.7,26.7l-4.1,25.2c-1.5,9.1-8.3,18.2-18.9,23l10.8,43.6h-25l-10-40.2
		h-17.4l-6.2,40.2H258.6z M297.7,34.5l-5.4,33.8h22c5.7,0,10.8-3.2,11.8-9.8l2.4-14.2c0.8-6.8-3.2-9.8-9.1-9.8H297.7z"/>
	<path d="M372.5,130.6l15.2-96.3h-26.3l3.5-22.1h74.3l-3.4,22.1h-24.1l-15.2,96.3H372.5z"/>
</g>
<g>
	<path fill="#FFFFFF" d="M26,84.1L25.3,88c-1.2,6.8,3,10.1,9.3,10.1h12c6.1,0,11.5-3,12.7-10l0.3-2.9c0.7-4.7-7.6-7.9-16.7-12.3
		C28.3,65.9,9.4,56.7,12.6,37l1.7-10.8C16.3,12.7,29.3,0,48.4,0h13.7c20.1,0,29.7,12.8,27.5,26.5L87.4,41h-24l1.4-8.9
		c1.2-6.8-3.2-10-9-10h-6.8c-5.7,0-10.8,3-11.8,9.6l-0.5,3c-0.7,5.1,6.8,8.8,15.5,12.8c14.9,6.9,34.6,15.7,31.9,33.4l-2,12.5
		c-2.2,14.2-16,26.7-36.5,26.7H29.5c-21.1,0-31.4-13-29.2-26.9l1.5-9.3H26z"/>
	<path fill="#FFFFFF" d="M108,119.2L123.2,23H96.9l3.5-22.1h74.3L171.4,23h-24.1L132,119.2H108z"/>
	<path fill="#FFFFFF" d="M223.7,0.7l17.7,118.5h-24.1l-3-23.5h-35.6l-10.1,23.5h-24L199.7,0.7H223.7z M188.2,73.6h23.1l-5.2-40.4
		L188.2,73.6z"/>
	<path fill="#FFFFFF" d="M249.7,119.2L268.4,0.8h48.3c20.1,0,29.9,12.8,27.7,26.7l-4.1,25.2c-1.5,9.1-8.3,18.2-18.9,23l10.8,43.6
		h-25l-10-40.2h-17.4l-6.2,40.2H249.7z M288.9,23.1l-5.4,33.8h22c5.7,0,10.8-3.2,11.8-9.8l2.4-14.2c0.8-6.8-3.2-9.8-9.1-9.8H288.9z"
		/>
	<path fill="#FFFFFF" d="M363.7,119.2L378.9,23h-26.3l3.5-22.1h74.3L427,23h-24.1l-15.2,96.3H363.7z"/>
</g>
<g opacity="0.2">
	<path d="M96.4,261.3l18.7-118.4h25.2l17.6,63.5l37.8-63.5h24l-18.7,118.4h-24l10.1-64.2L164.3,236h-23l-10.8-39.3l-10.1,64.7H96.4z
		"/>
	<path d="M245.5,262.3c-20.9,0-30.9-13-28.7-26.9l10.6-66.5c2.2-13.8,16.2-26.9,37-26.9H282c20.1,0,29.6,13,27.4,26.9l-10.5,66.5
		c-2.2,13.8-15.9,26.9-35.8,26.9H245.5z M263.8,240.2c5.7,0,11-3.4,12-10.1l8.8-55.7c1-6.8-3-10.1-8.8-10.1h-13.2
		c-5.7,0-10.8,3.4-12,10.1l-8.8,55.7c-1,6.8,2.9,10.1,8.6,10.1H263.8z"/>
	<path d="M306.6,261.3l18.7-118.2h50.5c20.1,0,29.4,13,27.2,26.9l-10.3,64.5c-2.2,13.8-15.5,26.9-35.6,26.9H306.6z M345.8,165.2
		l-11.7,74h23.6c5.7,0,11-3.4,12-10.1l8.6-53.7c0.8-6.8-3-10.1-8.8-10.1H345.8z"/>
	<path d="M450.5,262.3h-17.4c-20.8,0-30.9-13-28.7-26.9l14.7-92.5h24.1l-13.8,87.1c-1.2,6.8,2.9,10.1,8.6,10.1h13.2
		c5.7,0,10.8-3.4,11.8-10.1l13.8-87.1H501l-14.7,92.5C484.1,249.3,470.6,262.3,450.5,262.3z"/>
	<path d="M562.5,261.3h-66.7l18.7-118.4h24l-15.4,96.3H566L562.5,261.3z"/>
	<path d="M641.7,261.3h-70.4L590,142.9h68.7l-3.4,22.1h-44.9l-4.1,25.3h39.2l-3.4,22.1h-39.3l-4.2,26.7h46.4L641.7,261.3z"/>
</g>
<g>
	<path fill="#FFFFFF" d="M87.6,249.9l18.7-118.4h25.2L149,195l37.8-63.5h24l-18.7,118.4h-24l10.1-64.2l-22.8,38.8h-23l-10.8-39.3
		l-10.1,64.7H87.6z"/>
	<path fill="#FFFFFF" d="M236.7,250.9c-20.9,0-30.9-13-28.7-26.9l10.6-66.5c2.2-13.8,16.2-26.9,37-26.9h17.6
		c20.1,0,29.6,13,27.4,26.9L290,224.1c-2.2,13.8-15.9,26.9-35.8,26.9H236.7z M254.9,228.8c5.7,0,11-3.4,12-10.1l8.8-55.7
		c1-6.8-3-10.1-8.8-10.1h-13.2c-5.7,0-10.8,3.4-12,10.1l-8.8,55.7c-1,6.8,2.9,10.1,8.6,10.1H254.9z"/>
	<path fill="#FFFFFF" d="M297.8,249.9l18.7-118.2H367c20.1,0,29.4,13,27.2,26.9L383.9,223c-2.2,13.8-15.5,26.9-35.6,26.9H297.8z
		 M337,153.8l-11.7,74H349c5.7,0,11-3.4,12-10.1l8.6-53.7c0.8-6.8-3-10.1-8.8-10.1H337z"/>
	<path fill="#FFFFFF" d="M441.7,250.9h-17.4c-20.8,0-30.9-13-28.7-26.9l14.7-92.5h24.1l-13.8,87.1c-1.2,6.8,2.9,10.1,8.6,10.1h13.2
		c5.7,0,10.8-3.4,11.8-10.1l13.8-87.1h24.1l-14.7,92.5C475.3,237.9,461.8,250.9,441.7,250.9z"/>
	<path fill="#FFFFFF" d="M553.6,249.9h-66.7l18.7-118.4h24l-15.4,96.3h42.9L553.6,249.9z"/>
	<path fill="#FFFFFF" d="M632.8,249.9h-70.4l18.7-118.4h68.7l-3.4,22.1h-44.9l-4.1,25.3h39.2l-3.4,22.1H594l-4.2,26.7h46.4
		L632.8,249.9z"/>
</g>
</svg>
