<?xml version="1.0" encoding="utf-8"?>
<!-- Generator: Adobe Illustrator 18.1.1, SVG Export Plug-In . SVG Version: 6.00 Build 0)  -->
<svg version="1.1" id="Layer_1" xmlns="http://www.w3.org/2000/svg" xmlns:xlink="http://www.w3.org/1999/xlink" x="0px" y="0px"
	 viewBox="0 0 691.1 261.6" enable-background="new 0 0 691.1 261.6" xml:space="preserve">
<g opacity="0.2">
	<path d="M8.9,130L27.6,11.6h48.3c20.1,0,29.9,12.8,27.7,26.7l-4.1,25.2c-1.5,9.1-8.3,18.2-18.9,23L91.4,130h-25l-10-40.2H39.1
		L32.8,130H8.9z M48,33.9l-5.4,33.8h22c5.7,0,10.8-3.2,11.8-9.8l2.4-14.2c0.8-6.8-3.2-9.8-9.1-9.8H48z"/>
	<path d="M173.3,130h-70.4l18.7-118.4h68.7L187,33.7h-44.9L138,59h39.2l-3.4,22.1h-39.3l-4.2,26.7h46.4L173.3,130z"/>
	<path d="M253.4,130h-66.7l18.7-118.4h24L214,107.8h42.9L253.4,130z"/>
	<path d="M332.6,130h-70.4l18.7-118.4h68.7l-3.4,22.1h-44.9L297.3,59h39.2l-3.4,22.1h-39.3l-4.2,26.7h46.4L332.6,130z"/>
	<path d="M419.7,11.4L437.4,130h-24.1l-3-23.5h-35.6L364.5,130h-24l55.2-118.5H419.7z M384.2,84.4h23.1L402.1,44L384.2,84.4z"/>
	<path d="M445.7,130l18.7-118.4h48.3c20.1,0,29.9,12.8,27.7,26.7l-4.1,25.2c-1.5,9.1-8.3,18.2-18.9,23l10.8,43.6h-25l-10-40.2h-17.4
		l-6.2,40.2H445.7z M484.9,33.9l-5.4,33.8h22c5.7,0,10.8-3.2,11.8-9.8l2.4-14.2c0.8-6.8-3.2-9.8-9.1-9.8H484.9z"/>
	<path d="M539.8,130l18.7-118.4h24L606,78.8l10.6-67.2h23.8L621.7,130h-24l-23.5-66.7L563.7,130H539.8z"/>
</g>
<g>
	<path fill="#FFFFFF" d="M0,118.5L18.7,0.2H67c20.1,0,29.9,12.8,27.7,26.7L90.7,52c-1.5,9.1-8.3,18.2-18.9,23l10.8,43.6h-25
		l-10-40.2H30.2L24,118.5H0z M39.2,22.5l-5.4,33.8h22c5.7,0,10.8-3.2,11.8-9.8l2.4-14.2c0.8-6.8-3.2-9.8-9.1-9.8H39.2z"/>
	<path fill="#FFFFFF" d="M164.5,118.5H94.1L112.8,0.2h68.7l-3.4,22.1h-44.9l-4.1,25.3h39.2L165,69.7h-39.3l-4.2,26.7h46.4
		L164.5,118.5z"/>
	<path fill="#FFFFFF" d="M244.5,118.5h-66.7L196.6,0.2h24l-15.4,96.3h42.9L244.5,118.5z"/>
	<path fill="#FFFFFF" d="M323.7,118.5h-70.4L272,0.2h68.7l-3.4,22.1h-44.9l-4.1,25.3h39.2l-3.4,22.1h-39.3l-4.2,26.7h46.4
		L323.7,118.5z"/>
	<path fill="#FFFFFF" d="M410.8,0l17.7,118.5h-24.1l-3-23.5h-35.6l-10.1,23.5h-24L386.9,0H410.8z M375.4,73h23.1l-5.2-40.4L375.4,73
		z"/>
	<path fill="#FFFFFF" d="M436.8,118.5L455.6,0.2h48.3c20.1,0,29.9,12.8,27.7,26.7L527.5,52c-1.5,9.1-8.3,18.2-18.9,23l10.8,43.6h-25
		l-10-40.2h-17.4l-6.2,40.2H436.8z M476,22.5l-5.4,33.8h22c5.7,0,10.8-3.2,11.8-9.8l2.4-14.2c0.8-6.8-3.2-9.8-9.1-9.8H476z"/>
	<path fill="#FFFFFF" d="M530.9,118.5L549.6,0.2h24l23.5,67.2l10.6-67.2h23.8l-18.7,118.4h-24l-23.5-66.7l-10.5,66.7H530.9z"/>
</g>
<g opacity="0.2">
	<path d="M128.8,260.6l18.7-118.4h25.2l17.6,63.5l37.8-63.5h24l-18.7,118.4h-24l10.1-64.2l-22.8,38.8h-23l-10.8-39.3l-10.1,64.7
		H128.8z"/>
	<path d="M277.9,261.6c-20.9,0-30.9-13-28.7-26.9l10.6-66.5c2.2-13.8,16.2-26.9,37-26.9h17.6c20.1,0,29.6,13,27.4,26.9l-10.5,66.5
		c-2.2,13.8-15.9,26.9-35.8,26.9H277.9z M296.2,239.5c5.7,0,11-3.4,12-10.1l8.8-55.7c1-6.8-3-10.1-8.8-10.1H295
		c-5.7,0-10.8,3.4-12,10.1l-8.8,55.7c-1,6.8,2.9,10.1,8.6,10.1H296.2z"/>
	<path d="M339,260.6l18.7-118.2h50.5c20.1,0,29.4,13,27.2,26.9l-10.3,64.5c-2.2,13.8-15.5,26.9-35.6,26.9H339z M378.2,164.5
		l-11.7,74h23.6c5.7,0,11-3.4,12-10.1l8.6-53.7c0.8-6.8-3-10.1-8.8-10.1H378.2z"/>
	<path d="M482.9,261.6h-17.4c-20.8,0-30.9-13-28.7-26.9l14.7-92.5h24.1l-13.8,87.1c-1.2,6.8,2.9,10.1,8.6,10.1h13.2
		c5.7,0,10.8-3.4,11.8-10.1l13.8-87.1h24.1l-14.7,92.5C516.5,248.6,503,261.6,482.9,261.6z"/>
	<path d="M594.9,260.6h-66.7l18.7-118.4h24l-15.4,96.3h42.9L594.9,260.6z"/>
	<path d="M674.1,260.6h-70.4l18.7-118.4h68.7l-3.4,22.1h-44.9l-4.1,25.3H678l-3.4,22.1h-39.3l-4.2,26.7h46.4L674.1,260.6z"/>
</g>
<g>
	<path fill="#FFFFFF" d="M120,249.2l18.7-118.4h25.2l17.6,63.5l37.8-63.5h24l-18.7,118.4h-24l10.1-64.2l-22.8,38.8h-23l-10.8-39.3
		l-10.1,64.7H120z"/>
	<path fill="#FFFFFF" d="M269.1,250.2c-20.9,0-30.9-13-28.7-26.9l10.6-66.5c2.2-13.8,16.2-26.9,37-26.9h17.6
		c20.1,0,29.6,13,27.4,26.9l-10.5,66.5c-2.2,13.8-15.9,26.9-35.8,26.9H269.1z M287.3,228.1c5.7,0,11-3.4,12-10.1l8.8-55.7
		c1-6.8-3-10.1-8.8-10.1h-13.2c-5.7,0-10.8,3.4-12,10.1l-8.8,55.7c-1,6.8,2.9,10.1,8.6,10.1H287.3z"/>
	<path fill="#FFFFFF" d="M330.2,249.2L348.9,131h50.5c20.1,0,29.4,13,27.2,26.9l-10.3,64.5c-2.2,13.8-15.5,26.9-35.6,26.9H330.2z
		 M369.4,153.1l-11.7,74h23.6c5.7,0,11-3.4,12-10.1l8.6-53.7c0.8-6.8-3-10.1-8.8-10.1H369.4z"/>
	<path fill="#FFFFFF" d="M474.1,250.2h-17.4c-20.8,0-30.9-13-28.7-26.9l14.7-92.5h24.1L453,218c-1.2,6.8,2.9,10.1,8.6,10.1h13.2
		c5.7,0,10.8-3.4,11.8-10.1l13.8-87.1h24.1l-14.7,92.5C507.7,237.2,494.2,250.2,474.1,250.2z"/>
	<path fill="#FFFFFF" d="M586,249.2h-66.7l18.7-118.4h24l-15.4,96.3h42.9L586,249.2z"/>
	<path fill="#FFFFFF" d="M665.2,249.2h-70.4l18.7-118.4h68.7l-3.4,22.1H634l-4.1,25.3h39.2l-3.4,22.1h-39.3l-4.2,26.7h46.4
		L665.2,249.2z"/>
</g>
</svg>
