<?xml version="1.0" encoding="utf-8"?>
<!-- Generator: Adobe Illustrator 18.1.1, SVG Export Plug-In . SVG Version: 6.00 Build 0)  -->
<svg version="1.1" id="Layer_1" xmlns="http://www.w3.org/2000/svg" xmlns:xlink="http://www.w3.org/1999/xlink" x="0px" y="0px"
	 viewBox="0 0 470.9 278.3" enable-background="new 0 0 470.9 278.3" xml:space="preserve">
<g opacity="0.8">
	<path opacity="0.8" fill="#FFFFFF" d="M3.1,53.7c-0.7,0-1.3-0.6-1.3-1.3l0-49.5c0-0.7,0.6-1.3,1.3-1.3l343-0.2
		c0.8,0,1.3,0.6,1.3,1.3l0,49.5c0,0.4-0.1,0.7-0.4,1c-0.3,0.3-0.6,0.4-0.9,0.4L3.1,53.7z"/>
	<g>
		<path fill="#FFFFFF" d="M346.1,0l-0.1,2.7l0,49.5l-343,0.2l0-49.5l343-0.2L346.1,0 M346.1,0C346.1,0,346.1,0,346.1,0L3.1,0.2
			c-1.5,0-2.7,1.2-2.7,2.7l0,49.5c0,1.5,1.2,2.7,2.6,2.7c0,0,0,0,0.1,0l343-0.2c1.5,0,2.7-1.2,2.7-2.7l0-49.5
			C348.8,1.2,347.6,0,346.1,0L346.1,0z"/>
	</g>
</g>
<g>
	<path opacity="0.2" fill="#FFFFFF" d="M286.9,116.7c0,1.5-1.2,2.7-2.7,2.7L3.1,119.7c-1.5,0-2.7-1.2-2.7-2.7L0.3,67.5
		c0-1.5,1.2-2.7,2.7-2.7l281.2-0.3c1.5,0,2.7,1.2,2.7,2.7L286.9,116.7z"/>
	<g opacity="0.2">
		<path fill="#FFFFFF" d="M284.2,67.2l0.1,49.5L3.1,117L3,67.5L284.2,67.2L284.2,67.2 M284.2,64.5C284.2,64.5,284.2,64.5,284.2,64.5
			L3,64.8c-1.5,0-2.7,1.2-2.7,2.7L0.4,117c0,1.5,1.2,2.7,2.7,2.7c0,0,0,0,0,0l281.2-0.3c1.5,0,2.7-1.2,2.7-2.7l-0.1-49.5
			C286.9,65.7,285.6,64.5,284.2,64.5L284.2,64.5z"/>
	</g>
</g>
<g>
	<path opacity="0.2" fill="#FFFFFF" d="M270.9,244.1c0,1.5-1.2,2.7-2.7,2.7L3.1,247.4c-1.5,0-2.7-1.2-2.7-2.7l-0.2-49.5
		c0-1.5,1.2-2.7,2.7-2.7L268,192c1.5,0,2.7,1.2,2.7,2.7L270.9,244.1z"/>
	<g opacity="0.2">
		<path fill="#FFFFFF" d="M268,194.7l0.2,49.5L3.1,244.7L3,195.3L268,194.7L268,194.7 M268,192C268,192,268,192,268,192L2.9,192.6
			c-1.5,0-2.7,1.2-2.7,2.7l0.2,49.5c0,1.5,1.2,2.7,2.7,2.7c0,0,0,0,0,0l265.1-0.6c1.5,0,2.7-1.2,2.7-2.7l-0.2-49.5
			C270.7,193.2,269.5,192,268,192L268,192z"/>
	</g>
</g>
<g opacity="0.2">
	<path fill="#FFFFFF" d="M32.6,206.2L32.6,206.2l0.1,26.9l-19.2,0.1l-0.1-26.9L32.6,206.2 M32.6,203.5
		C32.6,203.5,32.6,203.5,32.6,203.5l-19.2,0.1c-1.5,0-2.7,1.2-2.7,2.7l0.1,26.9c0,1.5,1.2,2.7,2.7,2.7c0,0,0,0,0,0l19.2-0.1
		c1.5,0,2.7-1.2,2.7-2.7l-0.1-26.9C35.3,204.7,34,203.5,32.6,203.5L32.6,203.5z"/>
</g>
<g opacity="0.2">
	<path fill="#FFFFFF" d="M32.6,78.6L32.6,78.6L32.6,78.6l0.1,26.9l-19.2,0.1l-0.1-26.9L32.6,78.6 M32.6,75.9
		C32.6,75.9,32.6,75.9,32.6,75.9L13.3,76c-1.5,0-2.7,1.2-2.7,2.7l0.1,26.9c0,1.5,1.2,2.7,2.7,2.7c0,0,0,0,0,0l19.2-0.1
		c1.5,0,2.7-1.2,2.7-2.7l-0.1-26.9C35.3,77.1,34,75.9,32.6,75.9L32.6,75.9z"/>
</g>
<g>
	<path opacity="0.2" fill="#FFFFFF" d="M317,178.1c0,1.5-1.2,2.7-2.7,2.7L3.4,183.9c-1.5,0-2.7-1.2-2.7-2.7L0,131.8
		c0-1.5,1.2-2.7,2.7-2.7l310.9-3.1c1.5,0,2.7,1.2,2.7,2.7L317,178.1z"/>
	<g opacity="0.2">
		<path fill="#FFFFFF" d="M313.6,126l0,2.5v0.2l0.7,49.5L3.4,181.2l-0.7-49.5l310.9-3.1L313.6,126 M313.6,126
			C313.6,126,313.6,126,313.6,126L2.7,129.1c-1.5,0-2.7,1.3-2.7,2.7l0.7,49.5c0,1.5,1.2,2.7,2.7,2.7c0,0,0,0,0,0l310.9-3.1
			c1.5,0,2.7-1.3,2.7-2.7l-0.7-49.5C316.3,127.2,315,126,313.6,126L313.6,126z"/>
	</g>
</g>
<g opacity="0.2">
	<path d="M352.2,8.1c0-1.5-0.8-2.7-1.7-2.7c-0.9,0-1.6,0-1.6,0l0,46.8c0,1.5-1.2,2.7-2.7,2.7L3.9,55c0,0-0.1,1.3-0.1,2.8l0,0.1
		c0,1.5,1.2,2.7,2.7,2.7l343-0.2c1.5,0,2.7-1.2,2.7-2.7L352.2,8.1z"/>
</g>
<g opacity="0.2">
	<path d="M290.4,72.6c0-1.5-0.8-2.7-1.8-2.7s-1.8,0-1.8,0l0.1,46.8c0,1.5-1.2,2.7-2.7,2.7L3.9,119.7c0,0,0,1.2,0,2.7
		c0,1.5,1.2,2.7,2.7,2.7l281.2-0.3c1.5,0,2.7-1.2,2.7-2.7L290.4,72.6z"/>
</g>
<g opacity="0.2">
	<path d="M274.3,200c0-1.5-0.8-2.7-1.8-2.7c-1,0-1.8,0-1.8,0l0.1,46.8c0,1.5-1.2,2.7-2.7,2.7L4,247.4c0,0,0,1.2,0,2.7
		s1.2,2.7,2.7,2.7l265.1-0.6c1.5,0,2.7-1.2,2.7-2.7L274.3,200z"/>
</g>
<g opacity="0.2">
	<path d="M319.8,134c0-1.5-0.8-2.7-1.8-2.7c-1,0-1.7,0-1.7,0l0.6,46.8c0,1.5-1.2,2.7-2.7,2.7L4.2,183.9c0,0,0,1.3,0,2.7l0,0
		c0,1.5,1.3,2.7,2.7,2.7l310.9-3.1c1.5,0,2.7-1.3,2.7-2.7L319.8,134z"/>
</g>
<g id="_x31__2_">
	<g id="Color_2_">
		<path fill="#FFFFFF" d="M442.6,5.4"/>
		<path fill="#FFFFFF" d="M346.7,39.7c0,14.3-11.6,25.9-25.9,25.9c-14.3,0-25.9-11.6-25.9-25.9c0-14.3,11.6-25.9,25.9-25.9
			C335.1,13.7,346.7,25.3,346.7,39.7z M320.8,19c-11.4,0-20.6,9.2-20.6,20.6c0,11.4,9.2,20.6,20.6,20.6c11.4,0,20.6-9.2,20.6-20.6
			C341.4,28.3,332.1,19,320.8,19z"/>
		<path fill="#FFFFFF" d="M295.4,197.9c4.1,8.4,20.2,19,35.2,32.7c8.4,7.7,18.4,7.8,25.3,14.8c3.4,3.4,9.3,20.7,10.3,32.9h99
			c-1.7-11.7-5.1-26.6-10.7-42.9c-5.8-16.9-8.1-16.3-9.7-24.1c-1.4-7-0.7-15.1-1.1-23.6c-0.6-12.7-1.8-26.1-1.8-37.3
			c0-9.8-4.1-13-6.3-19.3c-3.2-9.3-5.8-17.7-10.2-22.2c-5.3-5.4-11.1-2-11.1-2c-3.8-9.9-4.8-12.4-8.9-17.3c-3.9-4.7-9.7-4.1-9.7-4.1
			s-2.9-14.2-9.4-21.4c-3.5-3.8-10.7-3.8-13.4-2.5c-2,1-4.6,4-7.3,6c-5.3,3.9-11.7,11.1-11.7,11.1s-1.1-3.3-4.1-9.2
			c-2.6-5-7.5-11.6-10.8-17.9c-6.2-11.8-9.9-25.2-21-21.9c-3,0.9-6.1,3.9-6.6,8.9c-0.7,7.4,2.5,18.7,6.1,31.1
			c1.8,6.2,4.9,14.4,7.4,20.9c3.4,8.7,6.2,15.7,7.8,24.8c1.2,6.7,0.5,14.3,0.2,20.7c-0.2,5.4-0.6,10.6-1.3,14.9
			c-0.9,5.8-2.7,10-3.7,12.6c-0.7,2-0.6,3.6-0.6,3.6s-1.4,0-3,0.5c-1.6,0.5-2.6,1.9-2.6,1.9l-2.7-1.8c0,0,0.5-1,0-2.7
			c-0.5-1.9-1.5-4.6-2.9-8.2c-0.6-1.5-1.1-4.4-1.5-5.8c-1.1-3.6-2.6-5-2.6-5s1.6-5-0.5-10.4c-2.2-5.7-7-13.3-12.4-18.4
			c-4.4-4.2-8-5.3-11.8-4.7c-4.7,0.7-6.6,6.2-5.7,12c0.5,3.5,2.1,8.2,2.5,10.6c0.9,5.8-2.3,12.6-2.2,16.6c0.2,5.2,2.8,8,5.3,18.9
			c0.9,3.9,3.4,8.2,4.6,12.6C293.5,190,294.6,196.3,295.4,197.9z"/>
	</g>
	<g id="Shadows_2_">
		<linearGradient id="SVGID_1_" gradientUnits="userSpaceOnUse" x1="369.2961" y1="75.2882" x2="356.8997" y2="102.7974">
			<stop  offset="0" style="stop-color:#1D1D1B;stop-opacity:0"/>
			<stop  offset="1" style="stop-color:#1D1D1B"/>
		</linearGradient>
		<path opacity="0.5" fill="url(#SVGID_1_)" d="M365.8,109.3c0.3,0.6,3.4-0.8,3.7-4.6c0.3-5.4-1.1-17-0.3-21.1
			c1.1-5.8,3.5-12.8,1.8-13.9c-1.4,3.6-6,5.1-8,5.1c-5.2,0-9,4.1-9,4.1s0.9,1.9,2.4,7.1C357.7,91.2,364.7,107,365.8,109.3z"/>
		<linearGradient id="SVGID_2_" gradientUnits="userSpaceOnUse" x1="404.469" y1="100.7674" x2="394.761" y2="104.6072">
			<stop  offset="0" style="stop-color:#1D1D1B;stop-opacity:0"/>
			<stop  offset="1" style="stop-color:#1D1D1B"/>
		</linearGradient>
		<path opacity="0.5" fill="url(#SVGID_2_)" d="M402.6,120.2c0,0-2-2.6-3.4-9.2c-1.4-6.6-3.4-25.3-3.4-25.3s1.7,2.3,3,7.5
			c1.1,4.4-0.1,3.5,1.3,16.8C400.3,112.4,402.3,116.7,402.6,120.2z"/>
		<linearGradient id="SVGID_3_" gradientUnits="userSpaceOnUse" x1="420.4474" y1="114.8453" x2="416.7773" y2="116.2969">
			<stop  offset="0" style="stop-color:#1D1D1B;stop-opacity:0"/>
			<stop  offset="1" style="stop-color:#1D1D1B"/>
		</linearGradient>
		<path opacity="0.5" fill="url(#SVGID_3_)" d="M421.5,123.5c0,0-1.8-1.2-3.1-4.2c-1.2-3-3.1-11.6-3.1-11.6s1.5,1.1,2.7,3.4
			c1,2,0,1.6,1.2,7.7C419.5,120,421.2,121.9,421.5,123.5z"/>
	</g>
</g>
<g>
	<path opacity="0.2" d="M395.7,85.6c0,0,1.6-0.2,3.7,0.4c-1.1-4.3-3.9-13.7-8.9-19.1c-1.1-1.2-2.6-2-4.1-2.5
		C392.9,71.5,395.7,85.6,395.7,85.6z"/>
	<path opacity="0.2" d="M339.8,47.4c-3.4-7.1-6.6-13.5-11.8-15.1c4,4,6.8,11.2,10.3,18.1C338.9,49.4,339.4,48.4,339.8,47.4z"/>
	<path opacity="0.2" d="M316.7,66.9c-0.2-0.6-0.3-1.1-0.5-1.7c-2.4-0.4-4.8-1.2-6.9-2.3C311.5,64.6,314,65.9,316.7,66.9z"/>
	<path opacity="0.2" d="M405.5,89.7c4,4.9,5,7.4,8.9,17.3c0,0,1.1-0.7,2.9-0.9c-2.8-7-4-9.5-7.5-13.7c-1.5-1.9-3.4-2.9-5-3.4
		C404.9,89.1,405.2,89.4,405.5,89.7z"/>
	<path opacity="0.2" d="M442,150.5c0,11.2,1.2,24.6,1.8,37.3c0.4,8.4-0.3,16.5,1.1,23.6c1.5,7.8,2.5,2.5,8.1,19.3
		c0.6,1.7,8,19.7,9.7,37.4c0.4,4,1.3,7.5,2.1,10.2h6.3c-2-7.3-4.4-14.2-4.7-15.6c-9.3-37.9-16-43.3-17.5-51.1
		c-1.4-7-0.3-12.8-0.7-21.2c-0.6-12.7-1.8-26.1-1.8-37.3c0-9.8-4.1-13-6.3-19.3c-3.2-9.3-5.8-17.7-10.2-22.2
		c-1.4-1.4-2.9-2.2-4.3-2.6c4.4,4.4,7,12.9,10.2,22.1C437.9,137.5,442,140.6,442,150.5z"/>
	<path opacity="0.2" d="M300.2,39.7c0,8.3,4.9,15.4,12,18.7c-4.7-3.8-7.7-9.5-7.7-16c0-11.4,9.2-20.6,20.6-20.6c3.1,0,6.1,0.7,8.7,2
		c-3.5-2.9-8.1-4.6-13-4.6C309.4,19,300.2,28.3,300.2,39.7z"/>
	<path opacity="0.2" d="M337.3,235.3c5.4,3.9,11.2,5.5,16.3,8.1C348.9,239.8,343,238.4,337.3,235.3z"/>
	<path opacity="0.2" d="M346.7,39.7c0,6-2.1,11.5-5.5,15.9c3,5.1,6.5,10,8.6,14c3,5.9,4.1,9.2,4.1,9.2s0.9-1,2.2-2.4
		c-0.5-1.2-1.2-2.6-2-4.2c-2-4-5.5-9-8.6-14c3.4-4.4,5.5-9.9,5.5-15.9c0-10.2-5.9-19-14.4-23.2C342.7,23.8,346.7,31.3,346.7,39.7z"
		/>
	<path opacity="0.2" d="M299.1,117.4c5.3,5.1,10.2,12.7,12.4,18.4c2.1,5.4,0.5,10.4,0.5,10.4s1.5,1.4,2.6,5c0.4,1.4,1,4.3,1.5,5.8
		c1.4,3.6,2.3,6.3,2.9,8.2c0.5,1.7,0,2.7,0,2.7l2.7,1.8c0,0,0.6-0.8,1.7-1.4c0-0.2,0-0.3-0.1-0.4c-0.5-1.9-1.5-4.6-2.9-8.2
		c-0.6-1.5-1.1-4.4-1.5-5.8c-1.1-3.6-2.6-5-2.6-5s1.6-5-0.5-10.4c-2.2-5.7-7-13.3-12.4-18.4c-2.1-1.9-3.9-3.2-5.7-3.9
		C298.2,116.5,298.7,116.9,299.1,117.4z"/>
</g>
<g opacity="0.2">
	<path fill="#FFFFFF" d="M32.2,142.4L32.2,142.4l0.8,26.9l-19.2,0.6L13,143L32.2,142.4 M32.2,139.7
		C32.2,139.7,32.1,139.7,32.2,139.7l-19.3,0.6c-1.5,0-2.7,1.3-2.6,2.8l0.8,26.9c0,1.5,1.2,2.6,2.7,2.6c0,0,0.1,0,0.1,0l19.2-0.6
		c1.5,0,2.7-1.3,2.6-2.8l-0.8-26.9C34.8,140.8,33.6,139.7,32.2,139.7L32.2,139.7z"/>
</g>
<g opacity="0.6">
	<path fill="#FFFFFF" d="M35.4,40.6c0,1.5-1.2,2.7-2.7,2.7l-19.2,0.1c-1.5,0-2.7-1.2-2.7-2.7l-0.2-26.9c0-1.5,1.2-2.7,2.7-2.7
		l19.2-0.1c1.5,0,2.7,1.2,2.7,2.7L35.4,40.6z"/>
</g>
</svg>
