<?xml version="1.0" encoding="utf-8"?>
<!-- Generator: Adobe Illustrator 18.1.1, SVG Export Plug-In . SVG Version: 6.00 Build 0)  -->
<svg version="1.1" id="Layer_1" xmlns="http://www.w3.org/2000/svg" xmlns:xlink="http://www.w3.org/1999/xlink" x="0px" y="0px"
	 viewBox="0 0 791.9 160.2" enable-background="new 0 0 791.9 160.2" xml:space="preserve">
<g opacity="0.2">
	<path d="M149.6,10.3L19.6,6c-0.1,0-0.2,0-0.3,0c-5.4,0-9.8,4.3-10,9.7L5,145.6c-0.2,5.5,4.2,10.1,9.7,10.3l129.9,4.3
		c0.1,0,0.2,0,0.3,0c5.4,0,9.8-4.3,10-9.7l4.3-129.9C159.4,15.1,155,10.5,149.6,10.3z M147.9,150.3c-0.1,1.6-1.4,2.9-3,2.9l-0.1,0
		l-129.9-4.3c-1.1,0-1.8-0.6-2.1-1c-0.3-0.3-0.9-1.1-0.8-2.1l4.3-129.9c0.1-1.6,1.4-2.9,3-2.9l0.1,0l129.9,4.3c1.1,0,1.8,0.6,2.1,1
		c0.3,0.3,0.9,1.1,0.8,2.1L147.9,150.3z"/>
	<path d="M130.9,39.7L108.8,39c-1.2,0-2.2,0.6-2.8,1.6L84.9,81.9c-1.2,2.3-4.4,2.1-5.4-0.2L61.2,39.1c-0.5-1.1-1.5-1.8-2.7-1.8
		l-22.2-0.7c-1.7-0.1-3,1.2-3.1,2.9l-2.8,84c-0.1,1.7,1.2,3,2.9,3.1l14.1,0.5c1.7,0.1,3-1.2,3.1-2.9l1.5-45c0.1-2.1,2.9-2.7,3.8-0.8
		l18.3,40.4c0.5,1,1.5,1.7,2.6,1.8l8.2,0.3c1.1,0,2.2-0.6,2.7-1.6l21-39.2c1-1.9,3.8-1.1,3.8,1l-1.5,45.1c-0.1,1.7,1.2,3,2.9,3.1
		l14.1,0.5c1.7,0.1,3-1.2,3.1-2.9l2.8-84C133.9,41.2,132.6,39.8,130.9,39.7z"/>
</g>
<g opacity="0.2">
	<path d="M782.2,9.9l-130-3.6c-0.1,0-0.2,0-0.3,0c-5.4,0-9.8,4.3-10,9.7l-3.6,130c-0.2,5.5,4.2,10.1,9.7,10.3l130,3.6
		c0.1,0,0.2,0,0.3,0c5.4,0,9.8-4.3,10-9.7l3.6-130C792.1,14.7,787.7,10.1,782.2,9.9z M781.4,150c0,1.6-1.4,2.9-3,2.9l-0.1,0
		l-130-3.6c-1.1,0-1.8-0.6-2.1-0.9s-0.9-1.1-0.8-2.1l3.6-130c0-1.6,1.4-2.9,3-2.9l0.1,0l130,3.6c1.6,0,3,1.5,2.9,3.1L781.4,150z"/>
	<path d="M723.3,39.3l-13.9-0.4c-1.7,0-3,1.3-3.1,2.9l-2.3,83.1c0,1.7,1.3,3,2.9,3.1l13.9,0.4c1.7,0,3-1.3,3.1-2.9l2.3-83.1
		C726.3,40.7,725,39.3,723.3,39.3z"/>
</g>
<g opacity="0.2">
	<path d="M313.8,16.4c-0.1-5.4-4.6-9.8-10-9.8c-0.1,0-0.2,0-0.2,0l-130,3.1c-5.5,0.1-9.9,4.7-9.8,10.2l3.1,130
		c0.1,5.4,4.6,9.8,10,9.8c0.1,0,0.2,0,0.2,0l130-3.1c5.5-0.1,9.9-4.7,9.8-10.2L313.8,16.4z M309,148.6c-0.3,0.3-1,0.9-2.1,0.9
		l-130,3.1l-0.1,0c-1.6,0-3-1.3-3-2.9l-3.1-130c0-1.1,0.5-1.8,0.8-2.1c0.3-0.3,1-0.9,2.1-0.9l130-3.1l0.1,0c1.6,0,3,1.3,3,2.9
		l3.1,130C309.9,147.6,309.4,148.3,309,148.6z"/>
	<path d="M277.6,40.7c0-1.7-1.4-3-3.1-2.9l-13.9,0.3c-1.7,0-3,1.4-2.9,3.1l1.1,46.2c0.2,7.1-1.3,12.8-4.5,17
		c-3.2,4.2-7.6,6.4-13.2,6.5c-5.6,0.1-10.1-1.8-13.5-5.9c-3.4-4-5.2-9.6-5.4-16.8l-1.1-46.2c0-1.7-1.4-3-3.1-2.9l-13.9,0.3
		c-1.7,0-3,1.4-2.9,3.1l1.1,46.8c0.3,12.8,4.1,22.6,11.5,29.4c7.3,6.8,16.6,10.1,27.7,9.8c11.1-0.3,20.2-3.9,27.2-11
		c7-7.1,10.3-17.1,10-30L277.6,40.7z"/>
</g>
<g opacity="0.2">
	<path d="M465.6,9.9l-130-3.4c-0.1,0-0.2,0-0.3,0c-5.4,0-9.9,4.3-10,9.7l-3.4,130c-0.1,5.5,4.2,10.1,9.7,10.3l130,3.4
		c0.1,0,0.2,0,0.3,0c5.4,0,9.9-4.3,10-9.7l3.4-130C475.5,14.6,471.1,10,465.6,9.9z M464.9,149.9c0,1.6-1.4,2.9-3,2.9l-0.1,0
		l-130-3.4c-1.1,0-1.8-0.6-2.1-0.9c-0.3-0.3-0.9-1.1-0.8-2.1l3.4-130c0-1.6,1.4-2.9,3-2.9l0.1,0l130,3.4c1.6,0,3,1.5,2.9,3.1
		L464.9,149.9z"/>
	<path d="M423.8,111.1l-32-0.8c-1.7,0-3-1.4-2.9-3.1l1.7-65.4c0-1.7-1.3-3-2.9-3.1l-13.9-0.4c-1.7,0-3,1.3-3.1,2.9l-2.2,83.1
		c0,1.7,1.3,3,2.9,3.1l51.9,1.4c1.7,0,3-1.3,3.1-2.9l0.3-11.7C426.8,112.6,425.5,111.2,423.8,111.1z"/>
</g>
<path opacity="0.2" d="M630.4,16.4c-0.1-5.5-4.7-9.9-10.2-9.8l-130,3.1c-5.5,0.1-9.9,4.7-9.8,10.2l3.1,130c0.1,5.5,4.7,9.9,10.2,9.8
	l130-3.1c5.5-0.1,9.9-4.7,9.8-10.2L630.4,16.4z M588.4,55.5L569.2,56c-1.7,0-3,1.4-2.9,3.1l1.6,65.9c0,1.7-1.3,3-2.9,3.1l-13.9,0.3
	c-1.7,0-3-1.3-3.1-2.9l-1.6-65.9c0-1.7-1.4-3-3.1-2.9L524.1,57c-1.7,0-3-1.3-3.1-2.9l-0.3-11.2c0-1.7,1.3-3,2.9-3.1l64.4-1.5
	c1.7,0,3,1.3,3.1,2.9l0.3,11.2C591.4,54.1,590.1,55.5,588.4,55.5z"/>
<g>
	<path fill="#FFFFFF" d="M144.6,4.3L14.6,0c-0.1,0-0.2,0-0.3,0c-5.4,0-9.8,4.3-10,9.7L0,139.6c-0.2,5.5,4.2,10.1,9.7,10.3l129.9,4.3
		c0.1,0,0.2,0,0.3,0c5.4,0,9.8-4.3,10-9.7l4.3-129.9C154.4,9.1,150,4.5,144.6,4.3z M142.9,144.3c-0.1,1.6-1.4,2.9-3,2.9l-0.1,0
		L9.9,142.9c-1.1,0-1.8-0.6-2.1-1c-0.3-0.3-0.9-1.1-0.8-2.1L11.3,9.9c0.1-1.6,1.4-2.9,3-2.9l0.1,0l129.9,4.3c1.1,0,1.8,0.6,2.1,1
		c0.3,0.3,0.9,1.1,0.8,2.1L142.9,144.3z"/>
	<path fill="#FFFFFF" d="M125.9,33.7L103.8,33c-1.2,0-2.2,0.6-2.8,1.6L79.9,75.9c-1.2,2.3-4.4,2.1-5.4-0.2L56.2,33.1
		c-0.5-1.1-1.5-1.8-2.7-1.8l-22.2-0.7c-1.7-0.1-3,1.2-3.1,2.9l-2.8,84c-0.1,1.7,1.2,3,2.9,3.1l14.1,0.5c1.7,0.1,3-1.2,3.1-2.9
		l1.5-45c0.1-2.1,2.9-2.7,3.8-0.8l18.3,40.4c0.5,1,1.5,1.7,2.6,1.8l8.2,0.3c1.1,0,2.2-0.6,2.7-1.6l21-39.2c1-1.9,3.8-1.1,3.8,1
		l-1.5,45.1c-0.1,1.7,1.2,3,2.9,3.1l14.1,0.5c1.7,0.1,3-1.2,3.1-2.9l2.8-84C128.9,35.2,127.6,33.8,125.9,33.7z"/>
</g>
<g>
	<path fill="#FFFFFF" d="M777.2,3.9l-130-3.6c-0.1,0-0.2,0-0.3,0c-5.4,0-9.8,4.3-10,9.7l-3.6,130c-0.2,5.5,4.2,10.1,9.7,10.3
		l130,3.6c0.1,0,0.2,0,0.3,0c5.4,0,9.8-4.3,10-9.7l3.6-130C787.1,8.7,782.7,4.1,777.2,3.9z M776.4,144c0,1.6-1.4,2.9-3,2.9l-0.1,0
		l-130-3.6c-1.1,0-1.8-0.6-2.1-0.9s-0.9-1.1-0.8-2.1l3.6-130c0-1.6,1.4-2.9,3-2.9l0.1,0l130,3.6c1.6,0,3,1.5,2.9,3.1L776.4,144z"/>
	<path fill="#FFFFFF" d="M718.3,33.3l-13.9-0.4c-1.7,0-3,1.3-3.1,2.9l-2.3,83.1c0,1.7,1.3,3,2.9,3.1l13.9,0.4c1.7,0,3-1.3,3.1-2.9
		l2.3-83.1C721.3,34.7,720,33.3,718.3,33.3z"/>
</g>
<g>
	<path fill="#FFFFFF" d="M308.8,10.4c-0.1-5.4-4.6-9.8-10-9.8c-0.1,0-0.2,0-0.2,0l-130,3.1c-5.5,0.1-9.9,4.7-9.8,10.2l3.1,130
		c0.1,5.4,4.6,9.8,10,9.8c0.1,0,0.2,0,0.2,0l130-3.1c5.5-0.1,9.9-4.7,9.8-10.2L308.8,10.4z M304,142.6c-0.3,0.3-1,0.9-2.1,0.9
		l-130,3.1l-0.1,0c-1.6,0-3-1.3-3-2.9l-3.1-130c0-1.1,0.5-1.8,0.8-2.1c0.3-0.3,1-0.9,2.1-0.9l130-3.1l0.1,0c1.6,0,3,1.3,3,2.9
		l3.1,130C304.9,141.6,304.4,142.3,304,142.6z"/>
	<path fill="#FFFFFF" d="M272.6,34.7c0-1.7-1.4-3-3.1-2.9l-13.9,0.3c-1.7,0-3,1.4-2.9,3.1l1.1,46.2c0.2,7.1-1.3,12.8-4.5,17
		c-3.2,4.2-7.6,6.4-13.2,6.5c-5.6,0.1-10.1-1.8-13.5-5.9c-3.4-4-5.2-9.6-5.4-16.8l-1.1-46.2c0-1.7-1.4-3-3.1-2.9l-13.9,0.3
		c-1.7,0-3,1.4-2.9,3.1l1.1,46.8c0.3,12.8,4.1,22.6,11.5,29.4c7.3,6.8,16.6,10.1,27.7,9.8c11.1-0.3,20.2-3.9,27.2-11
		c7-7.1,10.3-17.1,10-30L272.6,34.7z"/>
</g>
<g>
	<path fill="#FFFFFF" d="M460.6,3.9l-130-3.4c-0.1,0-0.2,0-0.3,0c-5.4,0-9.9,4.3-10,9.7l-3.4,130c-0.1,5.5,4.2,10.1,9.7,10.3
		l130,3.4c0.1,0,0.2,0,0.3,0c5.4,0,9.9-4.3,10-9.7l3.4-130C470.5,8.6,466.1,4,460.6,3.9z M459.9,143.9c0,1.6-1.4,2.9-3,2.9l-0.1,0
		l-130-3.4c-1.1,0-1.8-0.6-2.1-0.9c-0.3-0.3-0.9-1.1-0.8-2.1l3.4-130c0-1.6,1.4-2.9,3-2.9l0.1,0l130,3.4c1.6,0,3,1.5,2.9,3.1
		L459.9,143.9z"/>
	<path fill="#FFFFFF" d="M418.8,105.1l-32-0.8c-1.7,0-3-1.4-2.9-3.1l1.7-65.4c0-1.7-1.3-3-2.9-3.1l-13.9-0.4c-1.7,0-3,1.3-3.1,2.9
		l-2.2,83.1c0,1.7,1.3,3,2.9,3.1l51.9,1.4c1.7,0,3-1.3,3.1-2.9l0.3-11.7C421.8,106.6,420.5,105.2,418.8,105.1z"/>
</g>
<path fill="#FFFFFF" d="M625.4,10.4c-0.1-5.5-4.7-9.9-10.2-9.8l-130,3.1c-5.5,0.1-9.9,4.7-9.8,10.2l3.1,130
	c0.1,5.5,4.7,9.9,10.2,9.8l130-3.1c5.5-0.1,9.9-4.7,9.8-10.2L625.4,10.4z M583.4,49.5L564.2,50c-1.7,0-3,1.4-2.9,3.1l1.6,65.9
	c0,1.7-1.3,3-2.9,3.1l-13.9,0.3c-1.7,0-3-1.3-3.1-2.9l-1.6-65.9c0-1.7-1.4-3-3.1-2.9L519.1,51c-1.7,0-3-1.3-3.1-2.9l-0.3-11.2
	c0-1.7,1.3-3,2.9-3.1l64.4-1.5c1.7,0,3,1.3,3.1,2.9l0.3,11.2C586.4,48.1,585.1,49.5,583.4,49.5z"/>
</svg>
