<?xml version="1.0" encoding="utf-8"?>
<!-- Generator: Adobe Illustrator 18.1.1, SVG Export Plug-In . SVG Version: 6.00 Build 0)  -->
<svg version="1.1" id="Layer_1" xmlns="http://www.w3.org/2000/svg" xmlns:xlink="http://www.w3.org/1999/xlink" x="0px" y="0px"
	 viewBox="-2321.5 487.8 1024 414.7" enable-background="new -2321.5 487.8 1024 414.7" xml:space="preserve">
<g>
	<g opacity="0.9">
		<polygon fill="#FFFFFF" points="-1717.9,510.9 -1621.4,489.1 -1598.8,605 -1676.4,619.6 -1673.5,598.9 -1701.3,584 -1696.6,552.9 
			-1721.9,533.1 		"/>
	</g>
	<g>
		<path fill="#FFFFFF" d="M-1677.5,620.7l2.9-21.3l-27.9-14.9l4.9-31.5l-25.5-19.9l4-23.5l98.5-21.8v1.1l22.6,116.7L-1677.5,620.7z
			 M-1700.1,583.6l27.9,14.9l-2.9,19.7l75.2-14.2l-22.2-113.8l-94.9,21.3l-3.6,20.6l25.5,19.7L-1700.1,583.6z"/>
	</g>
</g>
<g opacity="0.5">
	<g opacity="0.7">
		
			<rect x="-1515.2" y="670.8" transform="matrix(-0.9991 4.139138e-02 -4.139138e-02 -0.9991 -2787.9587 1517.2522)" fill="#FFFFFF" width="211.1" height="117.9"/>
	</g>
	<g>
		<path fill="#FFFFFF" d="M-1300.6,785.4h-0.9l-212,8.9l-4.9-119.9h0.9l212-8.9L-1300.6,785.4z M-1511.7,791.9l209.2-8.5l-4.9-115.8
			l-209.2,8.5L-1511.7,791.9z"/>
	</g>
</g>
<g opacity="0.5">
	<g opacity="0.7">
		
			<rect x="-2160.4" y="494.1" transform="matrix(-1 -3.286268e-03 3.286268e-03 -1 -4111.5537 1099.4431)" fill="#FFFFFF" width="211.1" height="118"/>
	</g>
	<g>
		<path fill="#FFFFFF" d="M-1948.5,613.3h-0.9l-212.4-0.9l0.4-119.9h0.9l212.4,0.9L-1948.5,613.3z M-2159.6,610.8l209.2,0.9
			l0.4-115.8l-209.2-1.1L-2159.6,610.8z"/>
	</g>
</g>
<g opacity="0.5">
	<g opacity="0.7">
		<polygon fill="#FFFFFF" points="-2320.6,673.2 -2103.9,664.5 -2099.1,782.2 -2315.8,790.9 		"/>
	</g>
	<g>
		<path fill="#FFFFFF" d="M-2097.8,783.5h-0.9l-218.1,8.5l-4.7-119.5h0.9l217.7-8.9L-2097.8,783.5z M-2314.7,789.9l214.9-8.5
			l-4.9-115.8l-214.9,8.5L-2314.7,789.9z"/>
	</g>
</g>
<g opacity="0.5">
	<g opacity="0.7">
		
			<rect x="-2044.3" y="734.1" transform="matrix(-0.999 -4.479450e-02 4.479450e-02 -0.999 -3911.061 1498.4894)" fill="#FFFFFF" width="211.1" height="118"/>
	</g>
	<g>
		<path fill="#FFFFFF" d="M-1834.8,857.8l-212.7-9.7l5.3-119.9l212.7,9.7L-1834.8,857.8z M-2046,846l209.2,9.3l5.3-115.8l-209.2-9.3
			L-2046,846z"/>
	</g>
</g>
<g opacity="0.9">
	<g opacity="0.9">
		<polygon fill="#FFFFFF" points="-1763.5,640.4 -1860.7,643.3 -1864.3,525.5 -1770.7,523.5 -1776.4,547.2 -1755.4,561.4 
			-1768.4,595.7 -1747.4,611.8 		"/>
	</g>
	<g>
		<path fill="#FFFFFF" d="M-1861.9,644.2l-3.6-119.9l96.3-2l-6,24.6l21.3,14.6l-13.3,34.3l21.3,16.2l-16.9,29.9h-0.4L-1861.9,644.2z
			 M-1863.4,526.2l3.6,115.8l95.9-2.9l15.3-27.1l-21-16.2l12.9-34.3l-20.8-14.3l6-23.5L-1863.4,526.2z"/>
	</g>
</g>
<g opacity="0.2">
	<polygon points="-1674.7,599.3 -1696.9,587.5 -1697,588.3 -1674.8,600.3 	"/>
	<polygon points="-1617.1,493.4 -1619.7,494 -1598.1,605.7 -1671.5,619.6 -1672.1,623.8 -1594.5,609.2 	"/>
</g>
<polygon opacity="0.2" enable-background="new    " points="-1302.4,670.8 -1305.3,670.9 -1300.6,785.4 -1301.5,785.4 
	-1508.6,794.1 -1508.5,797.4 -1297.5,788.7 "/>
<polygon opacity="0.2" enable-background="new    " points="-1948.1,498.8 -1948.5,613.3 -1949.4,613.3 -2156.4,612.4 -2156.4,616 
	-1945.2,616.7 -1944.9,498.8 "/>
<polygon opacity="0.2" enable-background="new    " points="-2099.7,668.8 -2102.7,668.9 -2097.8,783.5 -2098.7,783.5 
	-2311.7,791.7 -2311.5,795.2 -2094.8,786.5 "/>
<polygon opacity="0.2" enable-background="new    " points="-1829.7,743 -1834.8,857.8 -2042.4,848.2 -2042.5,851.5 -1831.6,861 
	-1826.3,743.1 "/>
<g opacity="0.2">
	<polygon points="-1767.1,595.8 -1763.6,598.5 -1751.1,565.7 -1754.5,563.4 	"/>
	<polygon points="-1746.6,613.4 -1762.7,641.9 -1763.1,641.9 -1856.5,644.1 -1856.4,647.6 -1759.2,644.7 -1743.1,616.1 	"/>
	<polygon points="-1775.1,546.8 -1771.6,549.3 -1766.4,527.8 -1770.5,527.9 	"/>
</g>
<g id="_x31_2">
	<g id="Color_1_" opacity="0.2">
		<path d="M-1634.3,888.4c19.3,6.8,30.7,6.4,45.7,10.9c1.1,0.4,2.4,1.6,3.6,3.3h126.4c-3.3-15.3-7.3-31.9-8.9-40.4
			c-3.6-16.9-23.5-58.1-29-68.6c-16.9-32.4-27.5-53.7-40-79.6c-2.9-6-7.8-29.9-20.2-31.9c-4-14.9-9.7-29-23.5-27.1
			c-4-9.7-8.5-18.2-13.7-23.5c-12.1-11.7-29.9,6.8-29.9,6.8s-10.4-7.8-16.9-21c-6-12.1-20.6-23.8-30.7-33.5
			c-10.9-10.4-17.3-21.8-24.2-18.6c-5.3,2-9.7,11.3-5.3,22.6c6.4,15.7,22.2,29.9,29.5,57.7c2.9,10.4,6.8,21.8,8.5,27.5
			c3.3,12.5-3.3,21.8-2.4,36.4c0.9,10.9,9.7,69-23.5,82.3c-12.5,5.3-31.1,6.8-49.3-3.6c-8.5-4.9-45.7-6.8-52.1,15.7
			c-6.4,23.1,31.5,14.6,67,42.4c6,4.9,31.1,13.3,50.6,22.2C-1659.7,875.5-1649.3,883.1-1634.3,888.4z"/>
	</g>
	<path opacity="0.2" d="M-1651,575.8c0,26-21.1,47-47,47c-26,0-47-21-47-47c0-26,21-47,47-47C-1672,528.8-1651,549.8-1651,575.8z
		 M-1698,538.4c-20.6,0-37.3,16.7-37.3,37.4c0,20.6,16.7,37.3,37.3,37.3c20.6,0,37.3-16.7,37.3-37.3
		C-1660.6,555.2-1677.4,538.4-1698,538.4z"/>
	<g id="Color_20_">
		<path fill="#FFFFFF" d="M-1731.2,843.2c6,4.9,31.1,13.3,50.6,22.2c13.3,6,23.5,13.7,38.4,19c19.3,6.8,30.7,6.4,45.7,10.9
			c1.6,0.4,3.6,3.3,6.4,7.3h124.4c-3.6-16.2-8-35.5-9.7-44.4c-3.6-16.9-23.5-58.1-29-68.6c-17-32.4-27.6-53.8-40.1-79.6
			c-2.9-6-7.8-29.9-20.2-31.9c-4-14.9-9.7-29-23.5-27.1c-4-9.7-8.5-18.2-13.7-23.5c-12.1-11.7-29.9,6.8-29.9,6.8s-10.4-7.8-16.9-21
			c-6-12.1-20.6-23.8-30.7-33.5c-10.9-10.4-17.3-21.8-24.2-18.6c-5.3,2-9.7,11.3-5.3,22.6c6.4,15.7,22.2,29.9,29.5,57.7
			c2.9,10.4,6.8,21.8,8.5,27.5c3.3,12.5-3.3,21.8-2.4,36.4c0.9,10.9,9.7,69-23.5,82.3c-12.5,5.3-31.1,6.8-49.3-3.6
			c-8.5-4.9-45.7-6.8-52.1,15.7C-1804.6,823.4-1767.1,814.9-1731.2,843.2z"/>
	</g>
	<g id="Shadows_21_">
		
			<linearGradient id="SVGID_1_" gradientUnits="userSpaceOnUse" x1="-123.6558" y1="-148.4944" x2="-122.7318" y2="-132.0901" gradientTransform="matrix(3.1707 2.4986 2.4986 -3.1707 -887.5085 528.5966)">
			<stop  offset="0" style="stop-color:#1D1D1B"/>
			<stop  offset="1" style="stop-color:#1D1D1B;stop-opacity:0"/>
		</linearGradient>
		<path fill="url(#SVGID_1_)" d="M-1631.8,634.9c0,0,9.7,9.3,15.7,33.1c1.6,6,4.9,7.8,6.8,10.2c0.9,0.9-3.3-6.4-2.4-14.9
			c1.1-14.6,2-33.9-4-35.5C-1625.8,625.1-1631.8,634.9-1631.8,634.9z"/>
		
			<linearGradient id="SVGID_2_" gradientUnits="userSpaceOnUse" x1="-113.8043" y1="-140.5932" x2="-113.2791" y2="-131.2671" gradientTransform="matrix(3.1707 2.4986 2.4986 -3.1707 -887.5085 528.5966)">
			<stop  offset="0" style="stop-color:#1D1D1B"/>
			<stop  offset="1" style="stop-color:#1D1D1B;stop-opacity:0"/>
		</linearGradient>
		<path fill="url(#SVGID_2_)" d="M-1587.9,651.4c0,0,6,8.9,8,16.6c2,7.8,4.9,14.9,6.4,17.3c1.6,2.4-0.4-26.6-4.4-29.5
			c-1.6-1.1-4-1.1-5.6-1.6C-1586.3,653-1587.9,651.4-1587.9,651.4z"/>
		
			<linearGradient id="SVGID_3_" gradientUnits="userSpaceOnUse" x1="-106.2203" y1="-138.7197" x2="-105.2014" y2="-133.184" gradientTransform="matrix(3.1707 2.4986 2.4986 -3.1707 -887.5085 528.5966)">
			<stop  offset="0" style="stop-color:#1D1D1B"/>
			<stop  offset="1" style="stop-color:#1D1D1B;stop-opacity:0"/>
		</linearGradient>
		<path fill="url(#SVGID_3_)" d="M-1564.9,678.1c0,0,8.5,23.8,10.9,28.6c2.4,4.9-2.4-19-5.6-22.6
			C-1562.9,680.5-1564.9,678.1-1564.9,678.1z"/>
	</g>
</g>
<path fill="#FFFFFF" d="M-1654.5,573.2c0,26-21.1,47-47,47c-26,0-47-21-47-47c0-26,21-47,47-47
	C-1675.5,526.2-1654.5,547.2-1654.5,573.2z M-1701.5,535.8c-20.6,0-37.3,16.7-37.3,37.4c0,20.6,16.7,37.3,37.3,37.3
	c20.6,0,37.3-16.7,37.3-37.3C-1664.2,552.6-1680.9,535.8-1701.5,535.8z"/>
<linearGradient id="SVGID_4_" gradientUnits="userSpaceOnUse" x1="-141.6071" y1="-133.7009" x2="-141.4172" y2="-130.3322" gradientTransform="matrix(3.1707 2.4986 2.4986 -3.1707 -887.5085 528.5966)">
	<stop  offset="0" style="stop-color:#1D1D1B"/>
	<stop  offset="1" style="stop-color:#1D1D1B;stop-opacity:0"/>
</linearGradient>
<path fill="url(#SVGID_4_)" d="M-1668.3,590.3l7.2,7c2.2-3.7,3.3-6.8,3.3-6.8l-8-6.4C-1665.8,584.1-1666.1,585.7-1668.3,590.3z"/>
<linearGradient id="SVGID_5_" gradientUnits="userSpaceOnUse" x1="-144.2512" y1="-143.6512" x2="-144.0477" y2="-140.0384" gradientTransform="matrix(1.6236 3.696 -3.696 1.6236 -1981.1494 1375.611)">
	<stop  offset="0" style="stop-color:#1D1D1B"/>
	<stop  offset="1" style="stop-color:#1D1D1B;stop-opacity:0"/>
</linearGradient>
<path fill="url(#SVGID_5_)" d="M-1700.8,610.5l4.2,9.4c0,0,3.7,0.1,8-1.5l-5-8.7C-1697.1,610.4-1700.8,610.5-1700.8,610.5z"/>
</svg>
