<?xml version="1.0" encoding="utf-8"?>
<!-- Generator: Adobe Illustrator 18.1.0, SVG Export Plug-In . SVG Version: 6.00 Build 0)  -->
<svg version="1.1" id="Layer_1" xmlns="http://www.w3.org/2000/svg" xmlns:xlink="http://www.w3.org/1999/xlink" x="0px" y="0px"
	 viewBox="0 22.9 1927.1 1035.2" enable-background="new 0 22.9 1927.1 1035.2" xml:space="preserve">
<g opacity="0.1">
	<path d="M358.5,483.4l3,2l3-2l1-3l7.1,1l3,3l2,4l6.1-2l3,3l7.1,4l8.1,2l4,7.1l21.2,13.1l5,5l3,7.1l17.2,16.2l6.1,15.1l3,2l-2,7.1
		h9.1l4,12.1l-2,7.1l5,7.1l1,5l-2,4l3,1h3l-1,5l1,4l4,3v4l-8.1,13.1v4l7.1-7.1l3,3l3,8.1l2,3l-4,8.1l5,6.1l2,11.1l3,4l-3,3l-7.1,4
		l2,3h4l2,2l-8.1,5l2,4l4,1l-4,35.3l-3,3l-2,8.1l-2,13.1l-8.1,3l3,3l1,5l-8.1,5l-3,7.1l-7.1,6.1v9.1l-4,2l-6.1,7.1l-2,8.1
		l-12.1,12.1l-4,6.1l-19.2,3l1,4l6.1-1l-4,6.1l-15.1,8.1l-2,3l-32.3,12.1l-33.3,15.1l-6.1-2l-7.1,4l-16.2,4l-11.1,5l-4-1l-6.1,6.1
		l-6.1-2l-13.1,10.1h-4l-1,4l-4,2l5,6.1v4l-2-1l-2-3l-4,6.1l-2,8.1l1,2l4-3l1-4l3-3l2,3l8.1,26.3l2,3l-2,8.1l5,7.1l2,8.1v12.1
		l-2,7.1l-2,3l5,4h3l2,7.1l-2,8.1l-7.1,5l-2-2l-12.1,1l-3,7.1l-7.1-1l-13.1,7.1l-3-3l-4-1l-1,5l-11.1,7.1l-2-1l-2-3l-3,3l-15.1,6.1
		l-3,4h-8.1l-7.1,4l-3-5.1l-16.2,2l-7.1-14.1l2-3l-4-5.1l1-7.1l-7.1-7.1l-5-15.1l-4-17.2l-6.1-11.1v-4l4-6.1l-9.1-6.1l-3-17.2
		l-10.1-24.2l3-4l-7.1-13.1l-20.2-63.6l-4-7.1l2-8.1l-7.1-14.1l-4-16.2l-3-3l-3-8.1l-4-16.2l-3-5l1-3l5-5l-8.1-3l-1-5l2-4l-6.1-6.1
		l-2-9.1l1-12.1l-5-6.1l-2-5l4-3l1-5l-7.1-3l-4-7.1l1-12.1l0-2l-10.1-8.1l-1-9.1L20.2,641v-3l3-3l-5-7.1L3,580.4l5-6.1l-4-2l-2-3
		l-2-8.1l4-11.1l7.1-2l5-6.1l7.1-2l3,1l5-4h8.1l16.2-4l38.4-16.2l16.2-3l17.2,1v-3l-3-3l40.4-11.1l2-3l27.3-6.1l4-3h4l2,3l7.1-5l3-1
		l3,2l3-5l17.2-3l21.2-7.1l4,8.1l3-9.1h5l9.1,3l2,3l3-3l1-4l5,1l4,3l8.1-4l9.1,2l4-1l16.2,2l16.2,6.1l12.1,1l2,2l-2,3L358.5,483.4z
		 M116.1,891.5l1,2l2-2l-2-2L116.1,891.5z M148.5,968.2l-4-3v4L148.5,968.2z M165.6,1029.8l3-2l-1-4l-3,3L165.6,1029.8z M47.5,640
		l4-2l-1-3h-4L47.5,640z M98,709.7h4l2,2l-9.1,3l-4,7.1l-4,11.1l-3,1l-2,12.1l2,2l3-6.1l5-5v-4l4-7.1l15.1-14.1l3-7.1l-3,1l-10.1-3
		l-2,3L98,709.7z M149.5,960.2l8.1-5l-2-3l-4,1l-2,3V960.2z M162.6,991.5l-2-3l-2-1l1,3L162.6,991.5z M167.7,1017.7h4l1-3h-3
		L167.7,1017.7z M209.1,615.7l-7.1,4l-6.1,1l-4-2l-5,3l-5,0l-9.1,4l-2,3l1,10.1l-8.1,11.1l2,3l-2,8.1l-6.1,2l-2,10.1l3,3l4,2h3v-4
		h-3l-3-4l1-4l7.1,3l2,3l5,16.2l7.1-3l2,3l-9.1,1l7.1,9.1l2-1l4,5l-2,3l-8.1-7.1h-5v3l-4,6.1v5l4-2l3-6.1l7.1,6.1l-2,8.1l2,3v4
		l-4,7.1l-3,2l-2,8.1l-3,3l-5,1l-1,4l-3,3l-3-2l-7.1,1l0-6.1l2-4l8.1-1l-5-10.1l-5,1l-3-2l-5,1l3,8.1l-4,10.1l3,3l11.1,4v5l-2,4
		l-7.1-4l-5-5l-1-5l-10.1,5l-3-1v-8.1l2-3l8.1-1l-3-8.1l7.1-8.1l4-2v-5l2-3l4-2l8.1-1l-2-3l-7.1-2l-1-9.1l-3-2l-2,3l-3-1l2,6.1
		l-4,7.1l-6.1,4l-7.1,1l2,3l3,1l2,3l-2,4l-3,3l-4,1V744l-5,10.1l-6.1,7.1l-3-3l-7.1-4l-3-3l5-1l3-3l4-12.1l5-1l6.1,2l-4-7.1
		l8.1-20.2l6.1-5l4-2l1-9.1l7.1-20.2l-8.1-4l1,4l-3,6.1l-5,10.1l1,4l-7.1,6.1l-7.1,14.1l-6.1,6.1l1,12.1l-2,4L104,741L97,751.1
		l-2,8.1l2,7.1l4-2l5-5l5,1l3,4v4l-7.1,5l1,8.1l-7.1,8.1l-3,3l6.1,10.1l9.1-22.2l5-7.1l3-3l12.1,3l8.1-2l5-3l-1,4l2,3l2-2h3l2,3l0,3
		l-8.1,2l1,4l-1,2l-5,4l-2-6.1l4-2v-3l-8.1-2l-10.1,1l-3,7.1l5-1l11.1,6.1v4l-3,3l-13.1-9.1l-4-1l-3,1l2,9.1l-1,8.1l-2,3l-8.1,5
		l6.1,12.1l9.1-7.1l-2-5v-4l4-1l3,1l1,6.1l-5,2l2,14.1l-1,4l2,2h4l2-8.1l5-7.1l6.1,2l-3,3l5,5l-2,4l-4,3h-8.1l-3,3l-2,8.1l7.1-6.1
		l4-1l4,2l-8.1,5l1,8.1l3,3l4-2l5-5l-3-3v-4l3-2h4v-3l1-4l5-4l4,2l1,5l-1,4l-8.1,10.1l3,3v3l-3,12.1l-7.1,5l-8.1,7.1l3,1l-2,6.1l1,4
		l8.1-5l14.1-14.1l2-9.1l9.1-11.1l7.1-4l-3,7.1v4l3,5l-9.1,4v4l-4,13.1h4l5-3l-3-4l2-4h3v6.1l2,1l3-3v-13.1l2-3l7.1,1v-9.1h3l2,2
		l-2,3v14.1l-5,4l-1-4h-2l3,9.1l-5,2v3l-7.1-4l-5,2l5,7.1l-2,1l1,5l-1,7.1l2,4l12.1-17.2l8.1-5l-2-4v-8.1l4-7.1l6.1-3l4,1v-3l-4-6.1
		l5-2l1-3l-1-3l-3-6.1l11.1-6.1l1,5l7.1,10.1l-9.1,4v4l1,5v4l10.1-7.1l3-7.1l8.1-3h4l1-4l-5-8.1l1-4l5,1l3,3l4,12.1l8.1-3V848
		l5-14.1h-4l-15.1-7.1l2-4l-1-3l-3-2v4l-3,2l-9.1-4l2-9.1l3-3l-3-3l-7.1-1l-6.1,7.1l-1-5l5-14.1l-2-9.1l5-7.1l9.1-1l3,3l-3,2
		l-1,10.1l-4,2l-1,4l1,5l10.1-2l2-8.1l4-7.1l2-11.1l8.1-2l9.1-6.1l2,2v4l-2,3l-5,5l2,4h5l-4-4l10.1-5l-1-8.1l2-2l4-1l6.1-5l8.1,1
		l8.1-3l15.1-8.1h6.1l-4,7.1l-2,13.1l-4,7.1l-4,3l4,5l-5,3l-3-2h-4l1,9.1l7.1,1l6.1-15.1l4-7.1l3-3l1-8.1l6.1-6.1l27.3-46.5l-4-2
		l7.1-11.1l1-4l4-1l3-2l4-11.1l5-4l5,1l-2,3l-3,15.1l-7.1,4l-2,8.1l-11.1,21.2l-2,13.1l-2,1l-1,7.1h4l3-3l4-7.1l2-12.1l11.1-13.1
		l7.1-15.1l7.1,5l-2,11.1l4,2l6.1,6.1h4l-4-11.1v-4l4-2l1-3l-4-7.1l-7.1,7.1l-5-10.1l1-4l-3-4v-4l6.1,4h4l-1-3l1-3l9.1,1l4,2l-3,8.1
		v3l3,4v-4l5-11.1v-4l-3-4l-7.1,1l-3-2l4-6.1v-3l-11.1-2l-1,9.1l-3-1l-6.1,4l-4-9.1v-4l12.1-21.2l1-4l2-1l4,1l1-12.1l-2-3l-4,2
		l-3,7.1l-4,1l-19.2,37.4l-3,3l1,5l-1,4l-6.1,10.1l-7.1-5l-2-9.1l4-2l5-9.1l-2-5l2-4l5-6.1l-1-4l-4,1l-7.1,8.1l-3-2V641l-5-3l3-3
		l1-3l-1-5l9.1-8.1l3-7.1v-3l4-1l1-12.1l-2-4l-3-2h-5l1,8.1l-7.1,25.2l-7.1,5l-7.1-4l-5-5l-10.1-6.1l-3-6.1H307l-14.1-5l-12.1-1
		l-5,1l-8.1-4l-3,1l-4-2l-2-6.1l-4,2l1,10.1h-4l-3-3l-3,2l4,3l-4,2l-9.1-3l-1,5l-4,3l-4-1l-7.1-3l-4-1l-5,1l-3-3l-2,1l2,3l-1,4
		L209.1,615.7z M97,775.3l-1-4l-4-1v4L97,775.3z M58.6,664.2l4-1l3-2v-4l-8.1,3L58.6,664.2z M75.7,716.7l1,4l4-3v-4l-3,1L75.7,716.7
		z M116.1,842l1,5l3,1l2-8.1l-3,0L116.1,842z M126.2,872.3l2,2l4-2v-3l-4,1L126.2,872.3z M143.4,926.8l1,5l4-2l3-10.1L143.4,926.8z
		 M82.8,710.7l3-2l6.1-2l-1-7.1l-4,3l-6.1-2h-5l4,8.1L82.8,710.7z M142.4,911.7l4-1l-2-3h-4L142.4,911.7z M54.5,631.9l4-1l2-2
		l-7.1-1L54.5,631.9z M71.7,641l-7.1,3l-3,3v5l5-1l6.1-6.1h4v-4l4-2l-1-8.1l-4,3l-2,4L71.7,641z M164.6,978.3l4-1l5-6.1v-4l-2-5
		l-4,1l1,5l-3,6.1L164.6,978.3z M81.8,661.2l-5-1l1,5l-7.1,16.2l2,4l6.1-7.1l4-6.1l1-4l-2-5l3-4l-4-11.1h-4v3l4,6.1L81.8,661.2z
		 M156.5,943l6.1,2l-1,2l4-1l-2-5l3-10.1l-7.1,6.1l-2,3L156.5,943z M56.6,622.8l11.1-10.1l-3-3h-4l-5,6.1l-1,4L56.6,622.8z
		 M176.7,1003.6l2-3l-3-1L176.7,1003.6z M80.8,695.5l6.1,3l4-1l2-6.1l-1-5l-5,1l-6.1,5L80.8,695.5z M127.3,814.7h6.1l-1,4l-3,3l-1-2
		L127.3,814.7z M162.6,926.8l2-4l-4-2L162.6,926.8z M180.8,985.4l3-1l2-3h3l-2-6.1h-3l-2,7.1L180.8,985.4z M139.4,853.1l3-1l1,3
		l-3,1L139.4,853.1z M159.6,903.6l-4,1l3,1L159.6,903.6z M83.8,624.8l3,2h4l2,3l-2,4l-1,12.1h-7.1l1,5l3,4L105,638l7.1,4l-5,6.1
		l-2,10.1l-3,3l-3-2h-4l3,20.2l-12.1-4l4,7.1l3,2l7.1-2l3-18.2h4v-4l17.2-30.3l-4-8.1v-4l-7.1,2l-2,2l4,9.1l-2,3l-8.1-2l-3-3v-5
		l-4,1l-12.1-3L83.8,624.8z M94.9,699.6l6.1-1l-2-6.1l-3,3L94.9,699.6z M71.7,610.7l-1-3l-3,1l2,3L71.7,610.7z M172.7,931.9l2-2
		l-3-4l-2,3L172.7,931.9z M178.8,950.1l5-1l-5-1V950.1z M142.4,823.8h3l8.1-3l2,6.1l-4-1l-3,1l-3,3l-4-1L142.4,823.8z M77.8,624.8
		l1-3l-1-2l-1,3L77.8,624.8z M77.8,585.4l-4,3l-3,4l-1,9.1l2,2l2-4l7.1-1l-3-3l-1-6.1l6.1-14.1v-4l-1-5l-6.1,16.2L77.8,585.4z
		 M131.3,763.2l-4,4l-4,1v-5l4-2L131.3,763.2l3,2L131.3,763.2z M162.6,774.3l18.2-7.1l-1,3l-10.1,12.1v3l2,4l-4,6.1h-3l-6.1-2
		l-3,6.1l-5,5l1,5l-6.1,6.1l-2-6.1l-7.1-7.1l-1-4l14.1-2l6.1-4l5-6.1l2-9.1V774.3z M81.8,617.8l-1-2l-2,2H81.8z M104,698.6l7.1-2
		l8.1-10.1l1-7.1l-2-3h-4l1,5l-4,7.1l-5,6.1L104,698.6z M200,1001.6l4-2l3-7.1l-5,2l-3,3L200,1001.6z M64.6,569.3l3-3l3-9.1l-4,2
		l-3,4v4L64.6,569.3z M184.8,945l3-2l-1-3l-3,1L184.8,945z M185.8,931.9l1,4l5-2l2-4l3-2l1-8.1l2-3l7.1-4v3l5,4l-6.1,8.1h4l3-3l1-4
		l8.1-5l2-4h-3l-7.1,4l-3-3l-2-5l-8.1,3l-3-1l-1,7.1l2,3l-9.1,9.1L185.8,931.9z M206,991.5l4-3l2-8.1l-2-2l-7.1,7.1l4,5L206,991.5z
		 M100,651.1l4-3h-3L100,651.1z M215.1,1013.7l4-1v-5l-3,3L215.1,1013.7z M87.9,609.7l6.1-2l-1-4l2-11.1l-3-2l-4,15.1V609.7z
		 M112.1,673.3l-3-2l2,3L112.1,673.3z M161.6,829.9l4-1l1,4h-3L161.6,829.9z M166.6,817.7l3,3v4l-3,3l-2-3v-4L166.6,817.7z
		 M177.8,821.8l4,2l7.1-2l3,5l-5,6.1l-1,7.1l2,4l-4,1l-6.1,4l-4-4l2-4l4-1l-3-15.1L177.8,821.8z M165.6,803.6l8.1,6.1l3,3l-9.1-1
		l-5-2v-3L165.6,803.6z M169.7,594.5l-8.1,3l-12.1,1l-4,2l6.1,5l-10.1,13.1l-3,3l6.1,9.1L126.2,644l2,4l-1,7.1l-8.1,9.1l4,4l7.1-5
		l13.1-15.1l3,9.1l-2,1l2,5l4,2l4-11.1l2-2l-8.1-7.1l-7.1-4l3-7.1l5-1v-3l6.1-4l-2-5l1-7.1l11.1-6.1h4l2,6.1l5-1l3-3l-2-4l-6.1-4
		l5-2l5,3l4,7.1l9.1-4l-3-6.1l-3,2h-3l-1-5l3-3v-4l-4,1l-5,5l-2-3l-7.1-2V594.5z M91.9,547.1v4l-3,10.1v4l6.1-5l6.1-15.1l-4,1
		L91.9,547.1z M105,614.7l4-2l7.1-9.1l3-2h5l-1-14.1l-12.1,5.1l-5,19.2L105,614.7z M183.8,850.1l3,3l1-2l1,3l-3,3l-2-3V850.1z
		 M221.2,958.1l1,3l2-2l-2-2L221.2,958.1z M107.1,578.4l-2-4l-4-2v4l1,2H107.1z M230.3,977.3l6.1-4l1-3l-4-2l-2,4L230.3,977.3z
		 M235.3,987.4l1-2l-3-1L235.3,987.4z M198,847l4,1l3,3l-3,2v3l-4,2l-1-3l-4-2l3-3L198,847z M111.1,586.5l2-2v-3l-3,1L111.1,586.5z
		 M144.4,588.5l-7.1,3l-6.1,4l-1,3l2,4l-7.1,5l-2,3l3,3l-2,10.1l5-1l3-3l2-3l-1-2l3-12.1h5l-4-5l12.1-12.1l4-7.1l6.1,7.1l-2,4l4-1
		l3,2l5-1l-2-10.1l-11.1-2l-5-1l-6.1,2v5L144.4,588.5z M157.6,730.9l8.1-7.1l-1-8.1l-3-2l1,4l-6.1,5l-1,3L157.6,730.9z M110.1,576.4
		l3,3l4-2l-3-3L110.1,576.4z M182.8,801.6l2,3l-2,1V801.6z M225.2,936.9l3,1l5,4l-4-9.1l-3-2l-1,3V936.9z M185.8,760.2l-6.1,3l-2-3
		l-6.1,4l-2-4l2-8.1h4l3,2l4,1L185.8,760.2z M211.1,828.9l2,7.1v3l-6.1-6.1l-1,4l2,5l-4-1l-9.1-4l1-3h4l6.1-5H211.1z M151.5,698.6
		l5-2l3-3l-2-4l-4-1l-4,7.1L151.5,698.6z M192.9,783.4l-1,4l-3,3l-3,1l-4-1l-3-3l3-2l6.1-1L192.9,783.4z M214.1,887.4v-8.1l-3-1
		l-1,4l1,3L214.1,887.4z M235.3,880.4h-9.1l-1,7.1l-6.1,4l-2,3l5-1l3,2l-2,4l1,4l13.1-4v-4l6.1-10.1v-3l-3-3l8.1-5l-3-3l-4-1l-2-5
		l-3,1l1,5v6.1L235.3,880.4z M217.1,775.3l-1,4l-3,2l-10.1,4l1,4v3l-4,2l3,3l7.1,1l2,5l-5-1l-3-3l-3,3l-2,8.1v5l-3-2l-4-7.1l1-9.1
		l3-7.1l5-5v-3l5-1l6.1-5L217.1,775.3z M230.3,922.8l2,3l5-1l-4-4L230.3,922.8z M122.2,580.4l3,2l4-1l2-2v-3l8.1-15.1l-4-2l-6.1,2
		l-3,3l-4,13.1V580.4z M186.8,718.8l4-1l4,4l2,4l-1,7.1l-8.1,14.1l7.1,1l-1,3l-8.1,3l-6.1-5.1l-3-3l13.1-21.2l-1-2L186.8,718.8z
		 M116.1,548.1h6.1l-3-3l-4-1L116.1,548.1z M185.8,769.3l3,2l-2,1L185.8,769.3z M172.7,723.8l3-1l-1-5l-3,1L172.7,723.8z
		 M233.3,907.6l2,6.1l3,1l3-4l4-2l-2-4h-4l-1,3H233.3z M203,751.1l3,10.1l-3,7.1l-8.1-2h-5l-1-6.1l4,1l6.1-3l2-3L203,751.1z
		 M219.2,815.7l-12.1,6.1l1-5l3-3l4-1L219.2,815.7z M150.5,638l3,10.1l4-7.1l2-12.1l-3,1l-1-2v5l-2,3L150.5,638z M237.3,835.9
		l-6.1-2l-5,7.1l-8.1-3l-3,2v-3l7.1-6.1l9.1-3l4,1l2,2V835.9z M246.4,917.7l-4,3h3L246.4,917.7z M137.4,551.1h4l2-8.1l-4,1l-3,3
		L137.4,551.1z M160.6,601.6l3-1v4h-2L160.6,601.6z M244.4,861.2l1,5l3,2l2-3l4,1l-2,2l10.1,8.1l8.1-4l1,5l4,2v-3l-3-3l-10.1-8.1
		l-7.1,1l-5-6.1L244.4,861.2z M257.5,890.5l3-2v-7.1l-3,3l-2,3L257.5,890.5z M241.4,835.9l5-1l6.1,2l-1,5h-4l-3-2L241.4,835.9z
		 M264.6,898.5l2,1l-3-3L264.6,898.5z M162.6,557.2l3-1l-4-2L162.6,557.2z M166.6,571.3l3,3l5-1l-2-6.1l-3,1L166.6,571.3z
		 M255.5,809.7l4-7.1l3-3l-3-8.1l-4,2l-2,6.1l-7.1,5h-4l3,8.1l7.1,4h9.1l4-1l-1,9.1l1,4l4,2l5-8.1l-3-3l5-6.1l-3-4h4l1-4l-14.1,8.1
		l-4-1L255.5,809.7z M176.7,581.4l7.1,1l4-1l2-3l-9.1-3l-3,1L176.7,581.4z M173.7,569.3l4-4h-5L173.7,569.3z M167.7,545l3-1v-4l-5,1
		L167.7,545z M241.4,775.3l3-1l1,3l-3,1L241.4,775.3z M272.7,864.2l5,1l1-4l-2-5l8.1-12.1l-1-4h-3l-6.1,5l-3,7.1v8.1L272.7,864.2z
		 M178.8,526.9l-3-6.1l-4,1l3,4L178.8,526.9z M190.9,576.4l2,6.1h7.1l-3-9.1l-4,1L190.9,576.4z M206,602.6l-3-3l-4-1l2,4L206,602.6z
		 M183.8,541l9.1-4l4-6.1l-1-3h-5l-1,4l-5,6.1L183.8,541z M290.9,861.2l1,3l4-2v-4l-3,1L290.9,861.2z M201,573.3h6.1l-3-7.1v-8.1
		l-4,3l1,7.1L201,573.3z M214.1,594.5v-5l-4,2l1,2L214.1,594.5z M286.8,836.9l5-3l-1-4l-4-1v4V836.9z M284.8,825.8l4-3l8.1,2
		l-3-10.1v-4l-5,5l-4,6.1V825.8z M226.2,599.6l-5,1l3,3L226.2,599.6z M287.8,795.5l-2-4l-3-1v4l2,2L287.8,795.5z M300,847l2,3l4-1
		l-2-5L300,847z M208.1,553.1l3-2V543l-4,2v4L208.1,553.1z M230.3,583.4l-2-3l-7.1-1l5,4L230.3,583.4z M220.2,571.3l2-2v-3l-2,2
		V571.3z M296.9,807.6l6.1-1v-6.1l-4,1l-2,2V807.6z M218.2,537l-2-2l-2,2H218.2z M289.9,776.3h6.1v-3l7.1-8.1l-3-3h-3l-3,2l-4,8.1
		L289.9,776.3z M301,796.5l-2-2h-3l2,2H301z M320.2,852.1l-3,3l3,1V852.1z M231.3,582.4l3,2l3-2v-3l-1-5l-4,2v3L231.3,582.4z
		 M309.1,826.8l5-1l2-4l-3-4l-3,2l-1,3V826.8z M224.2,549.1l2-1l-2-1l-2,2H224.2z M214.1,491.5l2-2l-3-1L214.1,491.5z M244.4,564.2
		l3-3l-1-3h-4v4L244.4,564.2z M328.2,832.9l3-2l1-7.1l-3,4L328.2,832.9z M239.4,530.9l5-2l-2-4h-3l-1,2L239.4,530.9z M259.6,571.3
		l1,3l5-2l1-4l-4,1L259.6,571.3z M255.5,550.1l5-1l2-8.1l-3-4l-9.1,1l2,8.1L255.5,550.1z M343.4,809.7l2,2l2-3L343.4,809.7z
		 M351.5,757.1l-9.1,4l-1,4l-8.1,12.1l1,3l4,2l2-7.1l8.1-14.1L351.5,757.1z M276.7,583.4l2-2v-4l-3-1L276.7,583.4z M270.7,551.1l4-2
		v-4l-3,2L270.7,551.1z M349.5,799.6l2-4l1-5l-3,2l-1,4L349.5,799.6z M268.7,527.9l-2-7.1h-4v4l2,2L268.7,527.9z M277.7,544l3-2
		l-2-3l-3-2v3L277.7,544z M283.8,564.2l3,4l4,1v-4l-2-4l-3,1L283.8,564.2z M356.5,782.4l4-1v-6.1l-5,1L356.5,782.4z M365.6,807.6
		l4-2l2-4v-5l-6.1,3l-1,3L365.6,807.6z M275.7,508.7l2-3v-5l-3,3l-2,3L275.7,508.7z M291.9,560.2l2-3l-3-1L291.9,560.2z
		 M284.8,524.9l4-1l2-6.1l-1-4l-6.1,4v3L284.8,524.9z M365.6,768.3h3v-5l-4,1L365.6,768.3z M306,574.3l3-3l1-8.1h-3v4l-2,3
		L306,574.3z M303,548.1V540h-4v3l1,4L303,548.1z M384.8,813.7l6.1-2l-2-6.1l-4,3L384.8,813.7z M324.2,544h-6.1v5l-8.1,13.1h8.1
		l14.1-28.3l1-4h-4l-3,3l-3,7.1L324.2,544z M305,537l5-1l-4-2L305,537z M386.8,723.8l-4,3l-6.1,12.1l-3,3v11.1l6.1-5l4-6.1l8.1-23.2
		l-7.1-1v3L386.8,723.8z M329.3,574.3l-6.1,15.1l1,4l6.1-10.1l4-3l-4-13.1h-4l1,4L329.3,574.3z M383.8,774.3l7.1-6.1l1-8.1h-4l-4,2
		l-2,8.1L383.8,774.3z M393.9,796.5l6.1,2v-5h-4L393.9,796.5z M401,819.8l2,4l3,2l3-11.1l-5,2L401,819.8z M339.4,610.7l-1-2h-3
		L339.4,610.7z M338.3,598.6l4-1l5-7.1l5-2l-1-5l-3-2l-1,3l-8.1,8.1L338.3,598.6z M417.1,753.1L402,774.3l-2,4v8.1l2,4l5-7.1
		l6.1-20.2l5-6.1l5-9.1l-4,3L417.1,753.1z M339.4,567.3l-2-4l-3-1l-4,1l5,5L339.4,567.3z M316.1,511.7l5-5l-1-4h-4v5V511.7z
		 M355.5,637l3-1l-1-2l-3,1L355.5,637z M411.1,809.7l7.1-3l2-2l-3-2h-3l-3,2L411.1,809.7z M393.9,753.1l3-3l-1-3l-2,2V753.1z
		 M398.9,745l2-4l4-3l2-4l-5-1l-4,2l-2,4v4L398.9,745z M363.6,639h3l3-3l-4-5h-4v4L363.6,639z M438.3,784.4l4,8.1l-7.1,6.1
		l-9.1,13.1l-5,11.1l3,3l21.2-27.3l-1-5.1l7.1-7.1l-2-6.1l10.1-14.1l2-8.1l6.1-5l4-7.1l2-8.1l-8.1,5l-9.1,14.1l-11.1,22.2l-3,3
		L438.3,784.4z M349.5,558.2l-3-4l1-12.1l-6.1,5.1l-1,7.1l2,3l3,2L349.5,558.2z M416.1,793.5l2,5l4,1l2-6.1l-1-4h-3L416.1,793.5z
		 M327.2,496.6h-4l2,2L327.2,496.6z M350.5,580.4l3-1l-3-2V580.4z M365.6,620.8l5,6.1l4-2l4-6.1l1-8.1l-7.1-1l-4,1l-2,7.1
		L365.6,620.8z M352.5,560.2v16.2l3-4l4-2l4,1l-2-7.1l2-8.1l8.1-15.1l-5-1l-3,2l-7.1,15.1L352.5,560.2z M418.1,781.4l8.1,4l4-2v-9.1
		l-8.1,2l-2,2L418.1,781.4z M452.5,631.9l-2,8.1l-8.1,15.1l-7.1,6.1l2,6.1l-4,1l-4,7.1l-6.1,18.2l-7.1,6.1l-6.1,15.1l-6.1,5l4,7.1h4
		l4-7.1l6.1,4l-4-7.1l19.2-35.3l-2-6.1l3-3l8.1-14.1l4-2l1-8.1l10.1-19.2l-2-7.1v4l-3,3L452.5,631.9z M377.7,629.9l2-1l0-1h-2V629.9
		z M370.7,571.3l1,4l-5,9.1l1,4l7.1,3l1-9.1l12.1-17.2l-4-4v-4l-7.1-1l1,9.1l-4,6.1H370.7z M355.5,525.9l-4-1l-2,3l3,3l7.1-6.1
		l3-7.1v-5l-4,2l-1,8.1L355.5,525.9z M424.2,747l3-2l1-3l-1-8.1l2-4h-4l-1,4l-3,5v3L424.2,747z M450.5,719.8l-3,21.2l-4,2l-4,7.1
		l-7.1,7.1l-2,8.1l2,3l4-2l8.1-10.1l4-15.1l8.1-14.1l3-7.1h-3l-2-1L450.5,719.8z M381.8,605.6h4l7.1-22.2l-4,1l-5,4l-2,8.1V605.6z
		 M398.9,656.1l7.1,2l2-1v-4l9.1-17.2l1-4l-7.1-2l-4,1l-5,5l-3,7.1l-1,9.1L398.9,656.1z M435.3,730.9l4-7.1l2-9.1l-13.1,7.1l5,6.1
		L435.3,730.9z M413.1,664.2v4l2,3l3-3l5-9.1l6.1-5v-4h-5l-3,2l-5,9.1L413.1,664.2z M398.9,611.7l5,1v-5l-4,2L398.9,611.7z
		 M389.9,544l-6.1,5l1,5v4l7.1-6.1l5-10.1v-9.1l-8.1,2l-2,6.1L389.9,544z M402,555.1l1,5l-8.1,14.1h3l6.1-4l-3-1l6.1-7.1l3-8.1l-2-2
		l-4,1L402,555.1z M402,590.5l3,2l-1,8.1h3l1,2l4-6.1v-5l-4-1l-3-4l-3,2V590.5z M450.5,689.5l-4,1l-5,5l-2,9.1l2,9.1l5-5l3-11.1l3-3
		l-1-3l4-2l2-4l-1-8.1l-2-4l-3,1l-1,12.1L450.5,689.5z M430.3,581.4l1,5l-8.1,16.2l-9.1,14.1v3l4,6.1h4l1-4l-3-4l6.1-2l1-7.1
		l9.1-17.2v-9.1l5-4v-4h-4l-3,6.1L430.3,581.4z M430.3,646l3-1V639l5-8.1v-5l-7.1-1l-3,12.1l1,4L430.3,646z M416.1,590.5l5-17.2
		l5-11.1l2-2l-3-3l-10.1,14.1l-3,7.1v8.1L416.1,590.5z M459.5,717.8l2-6.1l4,3v-3l-3-3l-4-1l1,6.1L459.5,717.8z M464.6,703.6l7.1-2
		l-2-3l-4,1L464.6,703.6z M440.4,614.7l2,4v6.1l7.1-9.1l1-10.1l-4-1l-4,6.1L440.4,614.7z M458.5,675.3l4-2l4-6.1l-4,1l-3,3
		L458.5,675.3z M445.4,595.5h-6.1l3,3L445.4,595.5z M466.6,666.2l-2-6.1l-3-1v4l2,3L466.6,666.2z M466.6,661.2l6.1-5l4-7.1l1-8.1
		l-6.1,5l-4,6.1L466.6,661.2z M479.7,682.4l3-3l-2-10.1l-3,1l1,9.1L479.7,682.4z M454.5,594.5l4-4h-5L454.5,594.5z M462.6,616.8h6.1
		v-4l2-3l-1-4l-6.1,7.1L462.6,616.8z M464.6,586.5l-4-2v3L464.6,586.5z"/>
	<path d="M577.7,592.5l-6.1-18.2l6.1-5l5-6.1v-4l-9.1,2l-1-4l3-5l4-1l-2-2l-2-8.1l1-12.1l8.1-3l-4-1l-4-7.1v-4l3-3l-3-4l5-16.2v-5
		l-3,1l-1-15.1l8.1-3l-3-2l-1-16.2l4-39.4l4-7.1l6.1-5l-1-3l-2-2l-5,6.1l-1-4l1-7.1l8.1-22.2l4-6.1l7.1-5l7.1-2l24.2-2l2-3v-4h4
		l15.1-6.1l9.1-1l4,1l6.1-5l11.1-4l6.1,3l2,4l2-4l4-2l3-4l10.1-1l7.1,3l3,4l-3,3h-4l-3,2l9.1-1l8.1-5v12.1l-8.1,17.2l6.1-1l5-11.1
		l3-2h4l3,2l12.1,17.2l4,2v8.1l12.1,9.1l11.1,11.1l5,12.1l12.1,8.1l2,6.1l8.1,5l-1,4l5,10.1l1,4l-2,3l4,4l7.1-2l2,6.1l5-1v9.1l5-2
		l2,4l9.1,10.1l1,8.1l7.1-2v4l-2,4l3,2v3l-4,6.1l4,4l8.1-5l8.1,13.1l-8.1,3v4l3-1l7.1-7.1l3,1l6.1,9.1l-5,7.1l2,4v8.1l4-2l3-6.1l4-2
		l4,7.1v2l3,2l7.1,1l2,3l-3,8.1l12.1,5l6.1,5l3,8.1l7.1,4l7.1,11.1l-5,6.1l-4,11.1l4-1l7.1-7.1l1-4l6.1,4l3,3l2,12.1l4,1l5-3l5,6.1
		l-4,8.1l1,8.1l4-7.1l4-2l7.1,12.1l-3,2l-1,4h3l3-3l-1,8.1l12.1,3l-1,7.1l2,3l7.1-2l3,3l3,8.1l4,2l-2,7.1l7.1,3l3,3l2,5h-3l-1,5l3,2
		l8.1-2l5,6.1l1,11.1l5,6.1l5.1-4l5,6.1l3,17.2l8.1,5l-2,8.1h3l4-2l1-2l4,2l2,3l1,9.1l-4,2l-7.1,9.1l-5,2l-6.1-4l-5.1,1v3l3,4h-5
		l-19.2,7.1l-5-8.1l-4,2l-7.1,6.1h-4l-6.1-7.1l-6.1,5l-6.1,9.1l-4,1l-8.1,9.1l-2-3l1-4l-5,1l-12.1,9.1l-6.1,3l-4-1v-4l6.1-3l-1-8.1
		l3-7.1l0-5l-6.1,5l2,7.1l-6.1,5l-7.1,1l-5-5v-5h-9.1v-4l-2-3l-4-1l1-7.1l-6.1-2h-3l-4-9.1l-4-6.1l-7.1-3l-4,1l-1-4l5-12.1l-3-2
		l-4,1l-7.1,13.1v4h-16.2l2-8.1l13.1-23.2v-9.1l5-6.1l-3-1l-17.2,25.2l2,2l-9.1,12.1l-3,11.1l-9.1,4h-3l-3-1l-2-11.1l-3,3l-2,8.1
		l-9.1,10.1h-6.1l-8.1,2l1-4l-1-5l-4,2l2,7.1l-8.1,2l-16.2,7.1l-8.1,1l-4-1l-5,5l-8.1,1l-4,0l-3,2l-20.2,7.1l-3,3l-7.1-5l-2,9.1
		l-8.1,3l-7.1-3l-12.1,17.2l-3,7.1v4l3,8.1l-1,7.1l-4,13.1l1,8.1l4,9.1l-4,2l-3,10.1l-4,2l-3-1l-9.1,12.1l-10.1-1l-7.1,4l-31.3,9.1
		l-7.1,4l-16.2,2l-22.2,11.1l-7.1-2l-6.1-5l-5,5l-4,2l-3-2l-6.1-10.1l1-3l4-1l1-9.1l2-4l-7.1-9.1v-3l10.1-5l2-3l-1-4h-3l-3,3h-3
		l9.1-13.1v-4l-4-3l-2-18.2l2-16.2l3-12.1l-2-17.2l1-9.1l5-11.1l-2-4l2-8.1l-3-3l1-4l3-3l-3-6.1l3-7.1l1-19.2l5-1l8.1-9.1l-1-5v-8.1
		l4,1l4-2l-3-3l-10.1,2l-3-3l2-19.2l2-3l3-3l-3-4l-1-8.1l2-8.1V640l-2-4l4-15.1l5-7.1l-6.1-6.1v-4l4-6.1l-3-3v-8.1l3,2L577.7,592.5z
		 M566.6,792.5l5,1l2-4h-5L566.6,792.5z M596.9,868.2l4-1l-2-3L596.9,868.2z M590.8,841l3-3l3-7.1l-4,1l-2,4L590.8,841z
		 M568.6,756.1l6.1-4l-1-2l-3,3L568.6,756.1z M606,805.6l-9.1,13.1v11.1l7.1-6.1l9.1-18.2l-8.1-8.1h-4l3,4L606,805.6z M606,858.1
		l10.1-19.2l3-2l-1-3l-6.1,4l-6.1,12.1v4L606,858.1z M568.6,710.7v4l-3,2l-2-3L568.6,710.7z M617.1,881.4l2-3v-4l-3,0v3L617.1,881.4
		z M564.6,700.6l3,2v4l-3,2l-1-5L564.6,700.6z M574.7,736.9l2,4h3l2-2l-1-5l-3,2L574.7,736.9z M587.8,762.2l3-2v-4l-5,1L587.8,762.2
		z M599.9,785.4l2-1l-1-3l-2,1L599.9,785.4z M628.2,859.2h3l5-6.1l-1-9.1l-7.1,1l1,4L628.2,859.2z M613.1,796.5l4,2l4-3l-3-3l-4,1
		L613.1,796.5z M587.8,714.7l4-1l3-3v-4l-3-2l-4,6.1V714.7z M580.7,689.5l3,2l2-4h-4L580.7,689.5z M654.5,707.7l1,9.1l-6.1,2
		l-3,11.1l-3,3l-4,2l-1,9.1l-3,3l-5,2l-4-1l-6.1-7.1l5-4l5-1l-4-4h-3l-3,2l-4,11.1l-3-1l-4,1l2,5l-1,3l-5,6.1l-1,3l4,3l4-2l5-7.1h4
		l5-4l9.1,2l4-2l4-5l4-2l-1-7.1l4-1l2-4l-1-5l5-1l1-4l8.1-14.1v-4l-6.1,3L654.5,707.7z M632.3,811.7l-5,1l-4-1l2,4l3,2l3-3
		l13.1-18.2l-4-2l-3,1l-3,4l-2,9.1V811.7z M599.9,735.9l2,1l2-1l-1-4l-3-3v3V735.9z M574.7,651.1h3l3-2l1-3l-1-2l-4,2l-1,1
		L574.7,651.1z M628.2,759.2v5l-8.1,1l1,4l-1,7.1l-2,8.1h4l7.1,4l3-3l-3-6.1v-2l7.1,2l3-3h-4l-3-3l-2-4l6.1-4l2-3l-3-4l-4-2
		L628.2,759.2z M597.9,699.6l7.1-6.1l7.1-11.1l-7.1,3l-5,10.1L597.9,699.6z M606,725.8l7.1-7.1l2-4v-4l-1-2l-7.1,8.1l-1,4V725.8z
		 M590.8,672.3l4-3l-2-4l-2,3V672.3z M641.3,829.9l6.1-5v-8.1h-5l-1,8.1V829.9z M596.9,665.2l3-9.1l-5,6.1L596.9,665.2z M602,683.4
		l11.1-10.1l9.1-3l-3-3l-3-2l-8.1,3l-6.1,7.1l-1,4L602,683.4z M639.3,788.5l2-3l-3-1L639.3,788.5z M649.4,811.7l8.1-1l2-3l-8.1-2
		L649.4,811.7z M609,625.8L603,642l1,5l-6.1,1l3,8.1l6.1-6.1l-4-7.1l4-2l7.1-13.1l5-6.1l-3-6.1l-5-6.1l-7.1,4l8.1,4l1,5l-1,4
		L609,625.8z M618.1,703.6l6.1-2l1-8.1l9.1-12.1l4-7.1l-4,1l-6.1,5l-5,8.1l-4,12.1L618.1,703.6z M627.2,726.8l5-1l2-4v-3l-3-1l-5,5
		L627.2,726.8z M662.6,799.6l2-13.1l-2-3l-4-2l1,5l-2,8.1l1,3L662.6,799.6z M649.4,763.2h5l1,3l-3,6.1l5-1l2-3v-8.1h-8.1
		L649.4,763.2z M633.3,708.7l2,8.1l4,1l2-18.2h-4l1,5l-1,3L633.3,708.7z M618.1,659.2l2,3l2,1v-4l1-3l3-3V642l-3,1v4l-3,8.1
		L618.1,659.2z M671.6,819.8l2-3l-3-1L671.6,819.8z M679.7,839l3-1l1-4l-4,2V839z M613.1,608.7l2-3l-3-1L613.1,608.7z M661.5,752.1
		l4-2l2-6.1l-9.1,1l1,4L661.5,752.1z M632.3,639l-1-3h-4l-2,2l4,1H632.3z M648.4,677.4l1,4l-5,10.1l1,5l3-3l5-7.1l4-11.1l4-6.1l-1-4
		l-7.1,2l1,7.1l-1,4L648.4,677.4z M671.6,775.3h4l5-2l-3-10.1h-6.1l-1,7.1L671.6,775.3z M616.1,591.5l2-3l-1-5l-3,1L616.1,591.5z
		 M619.1,599.6l4,9.1h4l1-8.1l3-7.1l7.1-7.1l1-4l-5-1l-3,1l-8.1,15.1L619.1,599.6z M682.8,800.6l3-2l1-5l-5,1l1,3V800.6z
		 M639.3,657.2l1-2l-3-1L639.3,657.2z M676.7,720.8l-2,3l-7.1,6.1l-3,7.1l2,4l13.1-13.1l-1-5l5-9.1h-4l-2,3L676.7,720.8z
		 M614.1,567.3l3-1l-1-4h-4L614.1,567.3z M635.3,629.9l3-3l1-4l-7.1-1v4L635.3,629.9z M686.8,731.9l-3,7.1v7.1l-4,3l-6.1,7.1
		l6.1,6.1l4,1l7.1-2l-2-4l-4-2l8.1-21.2l-3-1L686.8,731.9z M637.3,553.1l-1,3l3,3l-1-3l2-9.1v-3l-4-2l2-4l6.1-4l13.1-3l-3,7.1
		l-6.1,1l2,7.1l5-1l-4,3l-2,4l4,2h5l1-5l2-4l2,2h4l5-3l-2-6.1h-3l-4,6.1l-3-3l2-9.1l5-8.1l4,1l7.1,5l2,3l-1,4h11.1l7.1-23.2l7.1-1
		l7.1-4l4,6.1l6.1-5l3,4l8.1,3v-3l2-3l4,2h3l3,3l-4,1l-4,4v3l5-1l9.1,1l-5-7.1h6.1l4,2l1,8.1l4-2l6.1-10.1l3-3l-7.1-5l2-2v-3l-4-1
		l-4-5v-3l9.1,2v7.1l6.1,3h8.1l1,5l-2,3l-12.1,6.1l3,9.1l-1,4l-8.1,1l4,7.1l4,4l12.1-4v-5l-4,2l-2-3h9.1l1-4l-5-10.1h4l6.1,5v-5l2-3
		l4-3l-4-8.1l7.1-3l2-3l-3-3l-8.1,2l-3,3l-4-11.1l-2-13.1l9.1-6.1v-4l-5,2l-7.1-2l1,8.1l-8.1,8.1l-15.1-4l-3,3l-6.1,7.1l2,7.1l5,5
		l-3,3l2,6.1l-9.1-4l-4-13.1l2-4l-3-3l-6.1-3l2-4l8.1,1l2-4l7.1-4h9.1l5-7.1l1-13.1l0-2l4,1l4-2l9.1-9.1l-2-4l-6.1-3l-3,2l-3,6.1
		l-4,1l-4-2l-3-8.1l-8.1,1l9.1,11.1v12.1l1,4l3,4l-3,2l-4,1v-4l-8.1-8.1v-5l-3,7.1l-2-2l-4,2v-4l-3-4l-10.1-7.1l10.1-3v-4l8.1-11.1
		l-4-6.1l6.1-5l5-2l-1-4l3-2v-3l-4,1l-8.1,9.1l-4,13.1h-5l-2,8.1l-7.1,4l-1,4l2,3l13.1,9.1l1,4l-3-2v11.1l-6.1-6.1l-3-4v-5l-4,2
		l-6.1,10.1l-7.1,4l-3-4l-2-7.1l5-11.1l7.1,1l2-6.1l4-2l-4-8.1L694.9,443l-3-8.1h3l2,3h3l-2-16.2l-3,3l1,4l-2,3l-6.1,1l-7.1,5l4,2
		l2,6.1l5,7.1l6.1,5l-1,3l1,6.1l-3-3l-8.1-11.1l-4-1l-1,7.1l-7.1,3l-2,4l3,1l3-2h3v4l-3,2h-4l-2-2l2,5l1,12.1l3,3l-2,6.1l-6.1,4
		l-5,1l3,4l9.1,7.1l-14.1-1l1,9.1l-8.1-5.1l-4,2l3,4l4,2h8.1l-7.1,4l-4-2l-12.1-11.1l3-2l8.1-1l3-7.1l10.1-9.1l2-3l-3-3l-1-5l2-11.1
		h-4l-4,2l-2,3v5l-6.1,2v4l7.1-4l3,3l2,5l-5,3h-4l-3-3l-5-1l-1,7.1h-4l-6.1-5l-5,1l-4-2l5,8.1l-4,3l-1,3l3,1l12.1-7.1l4,4l-3,2
		l-7.1,1l-3,9.1l-7.1-3l1,5l3,3l7.1-1l3,3l-4,6.1l-7.1,6.1l-8.1,1l-3-8.1l-4,2l-3,6.1l-3-1l-2,7.1l2,6.1h4V540l5-1l8.1,2l7.1,5l3,3
		L637.3,553.1z M648.4,666.2l3-2l-1-4l-4,0l1,3L648.4,666.2z M691.8,787.4v-4l-2-2h-4l2,6.1H691.8z M650.4,656.1l4-3l1-4l-2-9.1h-5
		l-2,5.1v8.1L650.4,656.1z M606,513.7l2-6.1l-5,1L606,513.7z M640.3,620.8l7.1,3l7.1,14.1l8.1-2l3,2l-3,5l1,8.1l-4,11.1l2,2l3-3
		l4-7.1l3-3l2,2l-2,4l2,9.1l11.1-2l-2-4l-3-2l-3-3l3-2v-4l-6.1-9.1l4-8.1l1-4l-8.1-2l-3,1l-3,9.1l-1-9.1l5-9.1l4,3l5,1v-9.1l-4,1
		l-2,2l-4-1l-6.1,3h-3l-5-1l-2-7.1l-7.1,4l-3,3L640.3,620.8z M669.6,696.5l6.1-2l-2-6.1l4-2l5-10.1h4l1-3h-4l-3-3l-4-1l-6.1,14.1
		l-2,8.1L669.6,696.5z M693.9,773.3l3-3l-2-3L693.9,773.3z M610,507.7l5-10.1l4-2l1-9.1l-7.1,2l-4,7.1l-1,4l1,5L610,507.7z
		 M635.3,577.4l6.1-3l1-4h-4l-4,4L635.3,577.4z M698.9,766.2l2-4v-5l-4,3l0,4L698.9,766.2z M631.2,557.2l3-1l-1-3l-3,1L631.2,557.2z
		 M671.6,554.1l-8.1,9.1l-9.1,3l-2,4l3,12.1l-1,4l-3,3l-2-8.1l-3-1l-4,6.1l5,6.1l-5,3l6.1,2l-2,8.1l2,2l7.1-2l3,3h4l-1-13.1l3-7.1
		l4-2l-2-3l5-9.1l-5-4l4-1l10.1-9.1l2-4l4,2l3-4l-4-2l1-7.1l-7.1,1l-5-1l-1,7.1L671.6,554.1z M608,466.3v-3l-2-3h-4l2,5L608,466.3z
		 M706,787.4l2,3l4-1v-4h-3L706,787.4z M610,480.4l2,3l4-1v-3h-3L610,480.4z M684.8,707.7l3-1v-4l5-10.1l0-4l-4,2l-5,7.1l-1,7.1
		L684.8,707.7z M651.4,596.6l6.1-1v4l-5,1L651.4,596.6z M693.9,725.8l7.1,1l-2-8.1l-4,2L693.9,725.8z M667.6,635.9l3,1v4l-2-2
		L667.6,635.9z M610,450.1l2,4h3l4-6.1h-3L610,450.1z M615.1,459.2l3,4l2,7.1l11.1,3l2-4l-3,1l-4-1l-4-7.1v-5h-4L615.1,459.2z
		 M593.9,384.5l3-5l-5,1L593.9,384.5z M703,714.7l-2-2h-3l1,2H703z M615.1,442h4l4-2l2-6.1h-4l-5,4L615.1,442z M669.6,603.6l3-1
		l-3-2l-2,2L669.6,603.6z M668.6,592.5l-1,3l1,3l3-2l7.1,1l6.1-2l-2-4l-6.1-4l-6.1,2L668.6,592.5z M639.3,492.5v-4l-6.1-4l2,5
		L639.3,492.5z M688.8,661.2l2-3v-3l-2,3V661.2z M714.1,735.9l2-1v-4l-3,1L714.1,735.9z M707,700.6l4,1l5-2l3-11.1h-3l-6.1,4l-3,5
		V700.6z M725.2,759.2l4-2l3-6.1v-4l-4,2l-3,3v3L725.2,759.2z M627.2,447.1l3,3l7.1,4l1-4l7.1-12.1l-1-9.1l-2-1l-7.1,14.1l-3,4
		L627.2,447.1z M641.3,485.5h3l5.1-1v-3l-4-7.1l2-3l-5-1l1,5l-2,6.1V485.5z M719.1,727.9l2,1l-3-3L719.1,727.9z M674.7,585.4l7.1-1
		v-5l3-3l-1-3l-4,1l-3,7.1L674.7,585.4z M618.1,402.6l3-1l-1-2l-3,1L618.1,402.6z M641.3,468.3l-1-3h-3l1,3H641.3z M627.2,424.9l4-3
		l2-4l1-4h-5l-3,4l-1,4L627.2,424.9z M728.2,743l5-2l-2-4h-3V743z M651.4,499.6l3-1l1,3l-3,1L651.4,499.6z M642.4,460.2l8.1,10.1
		l8.1-5v-4l-5.1-5v-4l7.1,4l3-2l-6.1-5l-7.1-3l-1,4l-5,7.1L642.4,460.2z M722.1,533.9l-5-2l-3,1L704,545l-3,2l3,2l5,7.1v3l-2,4
		l-7.1-4l2,6.1l3-2l3,2l1,8.1l-1,4l-5,1l6.1,14.1l-1,3l-3,2l3,7.1l-5,1l5,8.1l-4,6.1l-1,4l3,8.1l-2,7.1l2,25.2l13.1,2l4-1v4l-3,3
		l-1,4l8.1-5l12.1-12.1l4-2l2,13.1l4,1l3-4l4-11.1l19.2-1v-3l2-2l12.1-1l4,1l-1-4l2-4l8.1-8.1l-1-5l-2-2l4-3l-13.1-10.1l-8.1-10.1
		l-2-5l-4-1l-1-9.1l-2-4h-3l-4-5l5-1l2-3h-8.1l-3-1l-4-7.1l4-2v-4l-7.1,2l-3-2l-4-12.1l-4,5v-5l2-3l-3-3l-6.1-2l-5-9.1l-3-3l-5,1
		L722.1,533.9z M685.8,591.5l4-1l-3-4l-2,1L685.8,591.5z M623.2,392.5l2,1l1-4L623.2,392.5z M715.1,683.4l3,3l4-3l-1-5l-5,1
		L715.1,683.4z M748.4,709.7l-5,1l-3,3l-1,11.1l-5,6.1v4l3,4l11.1-21.2l2-8.1l4-2l2-4v-6.1l-4,3l-2,4L748.4,709.7z M667.6,520.8l5-1
		l7.1,4l-3,2l-6.1-2L667.6,520.8z M632.3,404.7h11.1l-2-7.1l-8.1,3L632.3,404.7z M729.2,707.7l5-3l1-3l-1-9.1l-4,1l2,5l-3,5
		L729.2,707.7z M748.4,763.2l3-1l-1-3l-3,1L748.4,763.2z M703,592.5l-2-6.1l-3-1v4l2,3H703z M639.3,393.6h6.1l4-6.1l-2-3l-8.1,5
		V393.6z M649.4,424.9l2-1l-3-3L649.4,424.9z M693.9,504.7l-5,5l-8.1,2l-1-4l4-6.1l4-1h3L693.9,504.7z M696.9,542l-2-3l-5,1l3,3
		L696.9,542z M653.5,416.8l2-2l-1-2h-3v3L653.5,416.8z M664.6,448.1l4-3l-2-4l-6.1-1l1,4L664.6,448.1z M686.8,520.8l3-1v4l-2,1
		L686.8,520.8z M744.4,686.4l1-3l-2-3l-3-2v7.1L744.4,686.4z M757.5,740l2-1l-1-3l-2,1L757.5,740z M661.5,436l9.1-1l-2-5h-3l-3,3
		L661.5,436z M648.4,381.4l11.1-10.1l-1-7.1l-9.1,2v4l-3,7.1L648.4,381.4z M679.7,473.3l4,3l-4,2V473.3z M659.5,411.7l4-3v-5l-4,1
		l-2,3L659.5,411.7z M696.9,523.8l3,3l3-4h-4L696.9,523.8z M765.6,724.8l-5,1l2,4l3-1V724.8z M695.9,470.3l6.1,5l2,8.1l-1,8.1
		l-5,7.1l-4,2l1-8.1l3-3l-1-9.1l1-4l-3-2l-3,2v3l-4,1l-1,1l-2-4l5-2l3-3L695.9,470.3z M678.7,451.1l2-3l-3-1L678.7,451.1z
		 M675.7,426.9l-1-5l1-4l9.1-9.1l-2-3h-3l-3,1l-5,8.1l-1,5l2,6.1L675.7,426.9z M763.6,713.7l2,3h4l2-2l-2-4h-3L763.6,713.7z
		 M774.7,748.1l2,3l2-1v-4h-4L774.7,748.1z M664.6,391.5l4-1l5-5l2-3l-1-11.1l-4,6.1l-4,10.1L664.6,391.5z M708,527.9l4-2l3-3
		l-7.1,1L708,527.9z M764.6,667.3l5,3l-9.1,13.1l-1,7.1l1,3l12.1-20.2l4-11.1l-9.1,2L764.6,667.3z M658.5,362.2l4-2l-1-4l-4-1v3
		L658.5,362.2z M792.8,766.2l-1-4l-4-1v4L792.8,766.2z M785.8,739l-3-6.1l-4,1l3,7.1L785.8,739z M770.6,701.6l2,5h5l4-3l-3-4h-4
		L770.6,701.6z M682.8,421.8l2-1l-1-3l-2,1L682.8,421.8z M721.1,523.8l1-2l-3-2L721.1,523.8z M792.8,752.1h3l5-1v-4l7.1-15.1l-1-3
		l-3,3l-4,6.1l-4,11.1L792.8,752.1z M714.1,484.5l5-2l2,4l1,7.1l-1,7.1l-7.1-3v-9.1V484.5z M787.8,709.7l1,5l-1,9.1l3,2l6.1-6.1
		l2-8.1l5-7.1l-1-5l-5,2l-5,6.1L787.8,709.7z M778.7,695.5l7.1-5l4-11.1l-1-5l9.1-9.1l1-4l-5-3l-14.1,28.3l-1,4V695.5z M683.8,392.5
		l4,7.1h3v-5l3-3l1-4h-4l-4,2L683.8,392.5z M711,472.3l7.1-1l3-2l6.1,7.1h-9.1l-4-2L711,472.3z M721.1,480.4l4-1v4l-3,1L721.1,480.4
		z M701.9,415.8l5-4l-3-10.1l-3,1l-1,3l1,4L701.9,415.8z M720.1,463.2l5-1l3,2l-5,4l-2-2L720.1,463.2z M732.2,497.6l4,2l1,8.1
		l-5-6.1V497.6z M697.9,381.4l9.1-16.2l-4,1l-6.1,7.1l-1,4L697.9,381.4z M731.2,488.5h6.1l-2,6.1l-2-2L731.2,488.5z M817.1,755.1
		l3-1l-2-2l-3,1L817.1,755.1z M707,401.6l6.1-1l-1-4l-3-3l-2,4V401.6z M810,720.8l3,1l4-1v-4l8.1-14.1l-7.1,4l-7.1,9.1L810,720.8z
		 M751.4,533.9l2-2l-3-1L751.4,533.9z M801.9,690.5l2,5l3,3l5-7.1l3-7.1l2-8.1l-1-5l-4,1l-2,2l-2,11.1l-2,3L801.9,690.5z M820.1,743
		v4l3,3l5-8.1l-3-3L820.1,743z M719.1,425.9l5-6.1l3-8.1l-2-12.1l-7.1,13.1l-1,8.1L719.1,425.9z M737.3,467.3l4-2l4,1l3,3v3l-4-1
		l-3-3L737.3,467.3z M826.2,738l4-2l1-12.1l-4,3l-2,8.1L826.2,738z M710,348.1h4l2-1l2-3l-1-4l-5,2l-2,3V348.1z M805,639l1,5v7.1
		l3-3l2-4l-1-7.1l-2-2L805,639z M825.2,648.1l-8.1,5l-5,15.1l8.1,2l7.1-17.2v-4l-2-3L825.2,648.1z M780.7,564.2h6.1l-4-2
		L780.7,564.2z M730.2,394.6l4-1l3-7.1h-3l-3,3L730.2,394.6z M832.2,681.4l-5,7.1l-1,7.1l1,3l3-3l3-12.1l3-3l-1-5l8.1-8.1l-1-5l-4,0
		l-2,4l-3,12.1L832.2,681.4z M855.5,666.2l1,6.1l-8.1,13.1l-8.1,23.2l-7.1,6.1l2,7.1l6.1-6.1l14.1-24.2l-2-6.1l6.1-5l3-7.1l4-6.1
		l4-2v-6.1l-1-4l-4,1l-7.1,9.1L855.5,666.2z M725.2,369.3l2-1l-1-2l-2,1L725.2,369.3z M787.8,547.1l-4,5l1,4h4l7.1-4l-2-3l-1-13.1
		l-2-4l-4,7.1v4L787.8,547.1z M718.1,331.9l-4-5l1,4L718.1,331.9z M805,613.7l5-1l3-2l-5-5l-3,3V613.7z M844.4,516.8l1,7.1l-2,3
		h-6.1l-1,8.1l-5,2l1,4l-1,6.1l-13.1,18.2l-1,4h-4l-8.1-7.1l-5,1l-7.1,11.1l2,2l1,3h8.1l4-2l-3-2l-2-4l4-2l8.1,3h3l1,5l-5.1,0
		l-6.1,6.1l-4,7.1v6.1l4-6.1l10.1,2l5-9.1l-3-4l6.1-14.1l3-2l5-2l7.1-23.2l13.1-21.2l2-8.1l-6.1-2v4l-2,4L844.4,516.8z M823.1,642
		l-2-3l-4,1l2,2H823.1z M753.5,422.8l1,5l5-1l6.1-4l2-6.1h-4l-6.1,6.1H753.5z M817.1,615.7l1,5l5,6.1l-4,6.1l2,2l4-2l3-7.1l-4-7.1
		l3-3l3-1l1-4l-3-1l-7.1,4L817.1,615.7z M816.1,606.7l8.1-3l1-3l-4,3l-6.1-4h-4l3,7.1H816.1z M857.5,710.7l-1,7.1l2,1l-3,3l1,5
		l4-9.1l12.1-17.2l1-4l-4-8.1l-9.1,19.2L857.5,710.7z M806,500.6l1,4l-2,3l-6.1,5l1,4l-7.1,11.1l2,4l4-1l9.1-15.1l3-3v-8.1l2-2
		l6.1-2l-2-5l-3-3l-3,1v1l-3,3L806,500.6z M872.6,552.1l-10.1,13.1l-2,4l-3,2l-5,1l3,4l1,4l-2,2h-3l-3-4l-1-5v-4l9.1-14.1l8.1-1
		l-5-7.1l8.1-14.1l2-8.1h-3l-3,3l-5,2l4,7.1l-4,3l-5,7.1l-6.1,13.1l-3,2l2,5l-3,2l-5,2l2,9.1l-6.1,4l-7.1,3l1,10.1l2,4l10.1-3
		l-1-13.1l2-4l11.1,11.1l-2,2l-5-1l1,9.1l-1,7.1l-3-2h-4v5l-4,16.2l1,3l-5,5v3l16.2,1l4,2l-2,4l-5,10.1v4l4-1l6.1-6.1l4-13.1l10.1-5
		l1-4l-4-4l2-4l4-2l-1-5l1-3l4-2l1-7.1l5-6.1l1-7.1l-8.1,1l-1-4l6.1-2l1,3l2,1l-3-8.1l5-6.1v-4l-11.1,11.1h-5l-3,7.1l-1,4h3l1,2
		l-2,11.1l-4-1l-3,2v9.1l-4,7.1L842.3,637l-4-4l22.2-47.5l7.1-4l-1-4l3-12.1l-2-3l2-3h9.1l4-21.2l-1-3l-4,2l-2,3l-1,8.1L872.6,552.1
		z M744.4,366.3l1-3l4-1l2-2h-3l1-2l-4,2l-2,3L744.4,366.3z M819.1,523.8l-11.1,5l-3,6.1l5-4h4l2,2L806,547.1v8.1l3,3l5-1l2-2
		l-6.1-4l10.1-5l1-8.1l10.1-22.2h-4l-5,4L819.1,523.8z M784.8,462.2h3l5-5l1-4l-13.1,1l2,5L784.8,462.2z M798.9,488.5l10.1-8.1
		l-2-6.1h-5l-1,4l-3,6.1L798.9,488.5z M783.8,427.9v-5l-4,1l2,3L783.8,427.9z M776.7,404.7l3-2l-1-4l-4,1L776.7,404.7z M870.6,683.4
		l-2,4l4-3l-3-4L870.6,683.4z M866.6,648.1l7.1,4l4-1l5-3l-3-10.1l-12.1,6.1L866.6,648.1z M817.1,491.5l4-2v-4l-3,0l-1,3V491.5z
		 M878.7,665.2v9.1l-1,5l4,1l5-1v-13.1l9.1-15.1l-1-2l-6.1,7.1l-7.1,5L878.7,665.2z M809,462.2l6.1,1v-5l-5,1L809,462.2z
		 M898.9,730.9l-3-3l1,5L898.9,730.9z M831.2,517.8l4-2l1-3l-3-2l-2,3V517.8z M905,750.1l3,1l5-5l3-10.1l-1-4l-4,7.1l-4,8.1
		L905,750.1z M889.8,696.5l6.1-2l2-8.1l4-3v-4l-3-4l-9.1,14.1l-1,4L889.8,696.5z M901.9,718.8l3-1l-2-2l-2,2L901.9,718.8z
		 M831.2,497.6l2,8.1l7.1-11.1v-8.1l-2,9.1l-3,3L831.2,497.6z M897.9,584.4l-2,8.1l-7.1,13.1l-6.1,9.1l1,5l-1,4h-8.1l-1,4l2,10.1
		l9.1-6.1l6.1-11.1v-4l4-2l4-6.1v-4l7.1-17.2v-4l3-3l3-6.1l5-5l4-2l-4-2l-6.1,2l-9.1,16.2L897.9,584.4z M919.1,759.2l1,5l3,2l6.1-5
		l2-3v-8.1l-4,1l-5,7.1L919.1,759.2z M821.1,445.1l5-3l2,6.1l-2-3H821.1z M910,711.7l-2-3l-3-1l2,4H910z M889.8,634.9l3-1v-4l-3,1
		V634.9z M940.3,781.4l3-16.2h-4l-3,12.1l1,3L940.3,781.4z M892.8,640l3,4l3-5l-4-1L892.8,640z M912,700.6l4-1l5-6.1v-4l-4,1l-1,3
		l-3,3L912,700.6z M925.2,723.8l-2-4h-5l3,3L925.2,723.8z M931.2,743l2-1l1-2h-4L931.2,743z M910,631.9l-4-6.1l4,1v-4l-12.1,9.1v4
		l10.1-2L910,631.9z M905,660.2l3,5l4-2l2-6.1h-5L905,660.2z M926.2,717.8l10.1-8.1l1-3l-5,1l-6.1,4l-1,3L926.2,717.8z M913,674.3
		l2-3l-3-1L913,674.3z M925.2,673.3l-7.1,5l1,4l10.1-3l13.1-30.3V638h-4l-5,14.1l-5,6.1l-4,11.1L925.2,673.3z M944.3,759.2l3,7.1h3
		l6.1-13.1v-4l-3-3l-3,3l-4,7.1L944.3,759.2z M890.8,559.2l-5,6.1l2,3l14.1-22.2h-7.1l-4,8.1V559.2z M930.2,703.6l7.1-1l2-2l-1-5
		l-5,1l-3,2L930.2,703.6z M941.3,726.8l6.1-3v-3l-6.1,2V726.8z M910,614.7l3-4l-4,2L910,614.7z M967.6,773.3l-2-2l-5,2l2,3h4
		L967.6,773.3z M920.1,642l6.1-5l2-7.1l-3-2l-4-1v4l-2,7.1L920.1,642z M942.3,711.7l5-1l-1-3l-4,1V711.7z M954.4,653.1l-2,8.1l-4,2
		l-1,9.1l-9.1,16.2l2,3l3,1l5-8.1l-4-2l2-4l3,2l6.1-5l-2-6.1l7.1-6.1l3-7.1l1-4l-5-1L954.4,653.1z M913,601.6l2,6.1l5-2l-1-4l5-4
		l-2-3h-3l-2,6.1L913,601.6z M949.4,715.7l4-1l-4-1V715.7z M964.5,735.9l5-9.1l-8.1,4v3L964.5,735.9z M957.5,706.6l-4-3l2,4
		L957.5,706.6z M971.6,762.2l3-4v-5l-3,2v3V762.2z M929.2,622.8l7.1-4l2-3l-1-4l-8.1,4l-2,3L929.2,622.8z M983.7,785.4v-6.1l-3,3
		L983.7,785.4z M922.1,589.5l10.1-2l-1-8.1h-3l-5,6.1L922.1,589.5z M970.6,703.6v5l-4,13.1l5-4l5-10.1l7.1-5l7.1-23.2v-4l-4-2
		l-5,15.1l-5,10.1l-3,2L970.6,703.6z M983.7,765.2v8.1l6.1-5l7.1-10.1v-4l-5,1l-4,9.1L983.7,765.2z M971.6,662.2l-2,9.1l-9.1,15.1h4
		l7.1-4l-1-3l5-10.1l1-4l-1-5L971.6,662.2z M946.4,635.9l4-2l4-6.1l1-4l-8.1,1l-2,3v4L946.4,635.9z M983.7,733.9l2,4l2,1l3-7.1h-3
		L983.7,733.9z M985.8,720.8l1,5h4l3-2v-3l-2-2h-4L985.8,720.8z M999.9,750.1l4-1l-1-4l-3,1V750.1z M970.6,640l-5,1l2,3l2-1
		L970.6,640z M975.7,659.2h4l3-2l-1-5l-4,2L975.7,659.2z M993.8,712.7l4,3l2-1l4-13.1h-4l-5,7.1L993.8,712.7z M1010,736.9l2-3v-5
		l4-6.1v-4l-4,1l-3,2l-1,4l1,9.1L1010,736.9z M1023.1,754.1l4-10.1l-2-3l-4-1l-1,12.1L1023.1,754.1z M1027.2,774.3l3-2v-3l-2-2l-2,3
		L1027.2,774.3z M1018.1,705.6l2-2l-3-1L1018.1,705.6z M1025.1,712.7l2-6.1h-3l-2,4L1025.1,712.7z M1035.2,732.9v-3l-2-2v4
		L1035.2,732.9z M1047.4,743l3-1v-4l-4,1L1047.4,743z M1057.5,761.2l3,3l2-4L1057.5,761.2z"/>
	<path d="M1120.1,180.4l5.1-1l7.1,3l32.3-12.1l8.1,4h5l9.1-6.1l3,2l4,7.1l3-3l-1-5h13.1l4-1l2,2v3l-2,3v3l4-1l3-5l-1-3l4-2l8.1,4
		l13.1-1l19.2,5l5-1l1,5h3l8.1-2l2,7.1l7.1-4h4l3,2l2,4l4-2h4l7.1,4l-3,7.1h3l4-3l2,7.1h8.1l1,9.1l4,2h9.1l5.1,6.1l4,2v8.1l10.1,2
		l17.2,28.3l4,14.1v8.1l-3,6.1l-5,5l-14.1,8.1l-29.3,8.1l-4,3l-2,3l-17.2-2l1,6.1l-2,2h-3l-7.1-3l-6.1,5l-17.2,5l-5-4l-4,1l-2-4
		l-13.1-7.1l-2-4v-5l-8.1-2l-16.2-6.1l-10.1-7.1l-5,3l-2-5l-2-3l-3,3l-2,6.1l-4-1l-4-3l-3,1l-2,3l-6.1-7.1l-4,6.1l-7.1,5l-11.1,3
		l-8.1-2l-6.1,10.1l-9.1,1l-8.1,14.1L1114,339l14.1,22.2l3,3l10.1,2l3,5l5.1-4l8.1,4l7.1-2l7.1,4l5-1l6.1,2l9.1-3l11.1,2l5-1
		l6.1,7.1l8.1-5l20.2,1l11.1-2l7.1,1l19.2,1l5.1,3v3l3-3l7.1-1l7.1,4l2,3l5.1-4l11.1,1l6.1,3l3,3l4-2l3,4l10.1-1l7.1,1l28.3,13.1
		l12.1,1l7.1,5l5,7.1l14.1,6.1l6.1,5l4,9.1l12.1,9.1l16.2,23.2v7.1l4,10.1l4,4l1,4l1,17.2l2,8.1l2,3l1,18.2l-5,40.4h-8.1l-3,3l4,6.1
		l-2,3v7.1l-8.1,4v3l1,5l-11.1,11.1l-4,7.1l-1,5h-5l-4,7.1h-3l-3,9.1l-5,1l-5,6.1l-12.1,9.1l-28.3,18.2l-4-5l-3,2l-1,7.1l-8.1,3
		l-30.3,14.1l-17.2,3l-9.1,6.1l-10.1-1l-5.1,1v-3l-3-1l-4,2l-4,7.1l-4-1l-8.1,1l-3-3l-1,3l-7.1,3l-18.2,3l4-6.1l3-3l-4-1l-3,2
		l-4,6.1l-14.1,5l-4-8.1l-5,1l-5.1,6.1l-11.1-2l6.1-5l-3-3l-3-1l-6.1,5v5l-8.1-1l-7.1,2l-1-3l1-5l-6.1-5l-6.1,7.1h-8.1l2-1l-3-2
		l-11.1,1l-3-2l-3-4h-4l-16.2-8.1l-4,1l-1-5l-8.1-2l-5.1-5l-13.1-10.1l-11.1-11.1l-4-6.1l-2-8.1l-6.1-4l-5.1-7.1l-1-5l6.1-2l-2-3
		l-6.1-3l3-17.2l3-3h7.1l7.1-2l10.1-6.1l11.1-4h9.1l4-4h4l11.1-4l4,1l3-3l8.1-3l20.2-5l3-2l-1-6.1l10.1,5l3,3l2,5v-4l3-2l14.1,10.1
		l24.2,10.1l6.1-3l4,2l9.1-2h8.1l3,2l-4,1l2,4h4l3,2l9.1-13.1l7.1-4l10.1-1l2,2l1,5l3-2l1-7.1l10.1-3l3-3l7.1,3l1-3l-2-3l7.1-5
		l13.1-15.1l-2-4v-7.1l2-7.1l-1-4l-3,2l-10.1-8.1l3-2l1-8.1l-4,2l-3,6.1l-15.1-6.1l-16.2-3l-8.1,1l-2-2v-4l-9.1,4l-16.2-2H1215
		l3-7.1l-2-3h-6.1l-1,9.1l-15.1-2l-3-3l-15.1,5l-4-11.1l-4,2l-4,7.1l-5.1,1l1-3l-3-2l-7.1,2l7.1-9.1l-4-6.1l-3,8.1l-5.1,7.1l-7.1,2
		l-7.1-5l6.1-5l1-3l-2-3l-2,1l-11.1-14.1l7.1-14.1v-4l-2-5l-4,1l-3,3l-1,7.1l-6.1-2l-3,2v3l2,3l4-1l-8.1,11.1l-2,4l3,3l10.1-6.1
		l4,6.1l6.1,4l-7.1,10.1l-9.1-1l-7.1-4l2-2l4-1l1-3l-9.1-3l-5.1,1l-1,7.1l-4-1l-10.1-7.1l-5,5l-8.1-2l-10.1-5l-5.1-7.1l-12.1,4l-1-5
		l-2-1h-3l1-13.1l-2,4l-3,1l-13.1-1v-4l3-3l1-4l-3-2l-9.1,4l-7.1-5l-1-5l1-4l-2-3l-10.1-4l1-5l-7.1-5l-5-7.1l-4-20.2l-8.1-3v-8.1
		l-2-7.1v-4l2-3l4,2l1-9.1l-2-5l2-1h8.1l-4-6.1l2-6.1h-3l-5,6.1l-4,3l1,7.1l-5,10.1l-2-20.2l4-8.1l-3-2l-2-5l3-3l4-7.1v-3l-5-6.1
		l4-11.1l4-2l3,14.1l2-3l-3-15.1l-2-6.1l6.1-2l-2-5v-4l6.1-1l-4-7.1l5-2l5-5l-1-11.1l11.1-6.1l5-6.1l1-4l9.1-2l3-3l-2-8.1l13.1-11.1
		l7.1-10.1h5l7.1-3l5.1-5l-3,7.1l4,1l4-2l3-4v-4l8.1-1l5.1-6.1v-4l4-1l16.2-7.1l10.1-1l3,2l4-8.1l4,2l1,5l4-1v-7.1L1120.1,180.4z
		 M980.7,422.8l7.1,12.1l10.1-17.2l-12.1,6.1L980.7,422.8z M1003.9,449.1l6.1-5l1-7.1l-4-1l-3,2l-2,7.1L1003.9,449.1z M984.7,347.1
		h5l2-4l-7.1,1V347.1z M1011,427.9h6.1l-1-4l-3,2L1011,427.9z M1021.1,460.2l3-3v-4l-3-2l-1,5L1021.1,460.2z M1091.8,331.9l-2-4
		l4-7.1l-4-1l-3,2l-7.1,14.1l-8.1,10.1l-7.1-6.1l9.1-9.1l-5-6.1l2-3l9.1-1l-1-5l-3-2l2-4l5-3l5.1,8.1l6.1,5l4-3l-8.1-7.1l-1-5l-4,1
		l-4-6.1l-3,3l-4,1l-3,7.1l-3,2l-4-2l2-4v-5l-8.1,5l-4-9.1l4-1l5-6.1l4-11.1l-4,1l-5,5l-4,8.1l-6.1,5v9.1l-3,12.1l-5,6.1l-8.1,3
		l3,8.1l-2,7.1l-3,3l-7.1,1v5l-9.1,14.1l-1,4h3l2,3l-6.1,5l-4,6.1l-3,7.1l2,12.1l3-3l6.1-15.1l4-1l5-10.1l4-3l-1-8.1l4-8.1l6.1-7.1
		l3-8.1v-4l3-3l4-8.1l8.1-1l-1-5l1-3l4,4l-1,4l1,5l-4,2l-2,11.1l-4,2l3,8.1l-6.1,5l-2,9.1l-18.2,28.3l3,5l-4,3l-5,7.1l2,12.1l4-6.1
		l3-7.1l1-4l4-2v-9.1l11.1-20.2l2,2l-1-5v-3l4-1l6.1,3l-7.1,23.2l-4,8.1l-3-2l2,7.1h4l5.1-7.1l2-9.1l5.1-4l2-8.1l9.1-13.1l4-7.1
		l-8.1,2l-1-3l-8.1,9.1l-2-4v-8.1l3-3l5-1l-5-6.1l2-3l4,6.1l3,9.1h16.2l-1-4l-5-5l3-7.1l6.1-5l-1-5L1091.8,331.9z M981.7,316.8l5-1
		l-3-4l-2,2V316.8z M996.9,365.3l3,3l5-1v-4l-2-3l-4,1L996.9,365.3z M991.8,327.9l4,7.1h3l3-3v-5l-3-3l-4,2L991.8,327.9z
		 M1030.2,450.1l2-3l-3-1L1030.2,450.1z M1101.9,658.2v-3l-1-5l-5,1l2,4L1101.9,658.2z M1027.2,431.9l1,4l3,3h3v-5l7.1-15.1l2-8.1
		l-4,2l-5,6.1l-5,10.1L1027.2,431.9z M1046.4,487.5l3,4l8.1-7.1l-1-4l8.1-10.1v-4l-5.1,1l-7.1,5l4,7.1l-4,6.1L1046.4,487.5z
		 M1021.1,319.8L1014,334l-3,3l-4,16.2l1,3l4,2l6.1-22.2l7.1-1l-1-5l8.1-8.1l-2-3h-4L1021.1,319.8z M1100.9,647.1h5.1l3-3l-5.1-8.1
		l-3,6.1V647.1z M1110,666.2l3,2l5.1-4l6.1-11.1h-6.1l-1,4l-6.1,6.1L1110,666.2z M1031.2,263.3l-3,7.1l-10.1,12.1l-4,7.1l-1,8.1
		l-3,1l-5,9.1l-5,1v6.1l1,4l3-3l5-7.1l6.1-15.1l3-3l8.1-13.1l4-2l-1-5l4-7.1v-4L1031.2,263.3z M1080.7,370.3v7.1l-2,3l-3-1l-3,2l1,5
		l-3,7.1l-6.1,5l4,7.1l-6.1,5l-4,6.1l-2,9.1l2,9.1l-4,3h-5.1l1,4l-5,6.1l1,4l4-1l9.1-13.1l7.1-6.1v-3l3-2h3l-1-5l3-9.1l3-1l6.1-22.2
		l8.1,2l1-4l-2-8.1l7.1,1l1-16.2l6.1-14.1l-5,2l-3,2l-5.1,11.1l-3,3L1080.7,370.3z M1108,634.9l5.1-1l-1-4l-3,1L1108,634.9z
		 M1151.4,625.8l1,5l-4,6.1l-7.1,15.1l-4,6.1l-6.1,5l-1,9.1l3,1l5-4l4-11.1l7.1-4l-1-4l2-3l4-2l-1-8.1l3-7.1l8.1-9.1l-4-5l-4,2
		l-4,6.1L1151.4,625.8z M1089.8,398.6l-7.1,2v3l3,1l2,4v5l-3,4l-2-2l1-7.1l-1-4l-7.1,4l2,5l3,3l-3,3v9.1l-5.1,6.1l-1,9.1l-4,3
		l-4,12.1l3-1l5.1-5l9.1-15.1l7.1-6.1l7.1-23.2l3-3l5.1-16.2l-4-1l-4-5l-4-1v13.1L1089.8,398.6z M1110,407.7l-4,3l-7.1-1l-1,5l3,2
		h8.1l3,3l-4,1l-11.1,9.1l1,9.1l-4,2l-2,3l-4-2h-5l3,12.1l-3,6.1l-5.1-1l2,7.1l-4,1l-3-1l4,12.1l-3,2v4l2,3l3,1l2-3l1-9.1l4-1l3,1
		l3,3l4,7.1l-3,4v5l7.1,1v-8.1l3-2l-5.1-6.1l-2-5l-4-1l-6.1-7.1l19.2-18.2l3-6.1V435l-3-4l8.1-10.1l2,6.1l-5,5v4h7.1v5l-7.1,14.1
		l-5,1l3,8.1l3,1l3-4l1-5l-2-2l3-2v-4h11.1l4-2l-1-4l-3-2l-1-3l3-1l-1-5l1-3l4-2h4l2-16.2l4-10.1l-6.1,6.1l-4,1l-7.1,14.1l-4,1l2,3
		l-3,2l-4-6.1l-4-13.1l1-5l8.1-2l3-3l-1-5l-6.1,5l-3,1l-4-2l-1,4V407.7z M1021.1,313.8l2,4l3,2l4-1l2-9.1l8.1-17.2v-4l-2-3l-5,6.1
		l-3,13.1l-5,7.1L1021.1,313.8z M1147.4,692.5l2,4l2,1l1-7.1L1147.4,692.5z M1013,245.1l-2,4l-4,1l1-3L1013,245.1z M1176.6,687.5
		l3-7.1l5-6.1l5.1-10.1v-4l4-3l7.1-16.2l5.1-5l-1-4l-3-1l-4,2l-6.1,11.1l-2,2h-4l5.1,8.1l-8.1,1l-7.1,19.2l-5,1l-10.1,22.2l9.1,1
		l3-1l3-3l-5-8.1L1176.6,687.5z M1159.5,676.3v-5l-2-1v3L1159.5,676.3z M1097.9,474.4l3,1l4-1l3-2l-4-7.1l-6.1,5V474.4z
		 M1159.5,663.2l3,3l3-3l1-7.1l-4,1l-2,2L1159.5,663.2z M1057.5,256.2l-3,3l-6.1,15.1l-6.1,1l1,4l-2,2l1,4l7.1-6.1l9.1-14.1l2-8.1
		l5-3l-4-7.1l-4-1v6.1L1057.5,256.2z M1056.5,306.7l5,5h3l-2,3h-5.1l-3-2v-4L1056.5,306.7z M1162.5,652.1l9.1,1l6.1-14.1l-1-5
		l-6.1,5l-5,10.1L1162.5,652.1z M1190.8,694.5l4,2l4-7.1l3-3l-2-11.1l-2-3l-4,1v5l-4,11.1L1190.8,694.5z M1172.6,612.7l1-3l-5,1
		L1172.6,612.7z M1177.7,455.2l-12.1,2l1,4h4l2,3l-2,3l-8.1,1l-3-1l-2-3v-4l-9.1,1v3l-9.1,10.1l-2,4l5,4l-3,3l-11.1-2l2,4l3,3l4,1
		l2,2l5.1-5l10.1-14.1l3-2l7.1,4l9.1-1l4-6.1v-3l6.1-7.1l5-15.1l-4-1l-4,1l-3,4l-1,4L1177.7,455.2z M1099.9,381.4l3,1l4,6.1l4-7.1
		l1-7.1l-1-5l-4,1l-3,2L1099.9,381.4z M1088.8,343.1l3-2l-1-5l-4,3L1088.8,343.1z M1185.7,629.9l-2-7.1l-5.1,2v3l3,3L1185.7,629.9z
		 M1157.5,455.2l-2,2l7.1-4l5-5l1-3l-1-5l-7.1-2l-5,5l-4,2l-3,3l-2-8.1l2-3l12.1-6.1l-4-7.1v-13.1l-8.1,4l-1,7.1l-5,1l1,6.1l-2,3
		l-4,2l-1,8.1l-5.1,6.1l-4,1l4,9.1l4-2l4-6.1l3-3l5.1,6.1l4-4l2,3L1157.5,455.2z M1088.8,245.1l-4,1l-3,7.1l-5.1,1l-5,16.2l6.1-4
		l6.1-9.1v-4l3-3l4-11.1l-3,1l-1,2L1088.8,245.1z M1093.8,333l5-2l4-7.1l-5.1-1l-4,7.1V333z M1212,700.6l8.1-5l2-4v-4l-2-4l-9.1,6.1
		l-2,3v4L1212,700.6z M1086.8,296.6l4-6.1l-1-4l-8.1,1l1,8.1L1086.8,296.6z M1200.9,665.2l6.1,6.1l-1,5l5-1v-5l6.1-5l-2-4l-3-3l-4-1
		l-3,1l-3,3L1200.9,665.2z M1069.6,238l4-3v-5l-6.1,2v3L1069.6,238z M1114,362.2l-3,1l2,2L1114,362.2z M1152.4,494.6l4,1l7.1-4l5-1
		l-3-3l-4-1l-7.1,4L1152.4,494.6z M1096.9,307.7h8.1l1-3l-1-5l-4,2l-3,3L1096.9,307.7z M1218.1,637l-5,2l-2,4l-2,8.1l5-6.1h4l-4,6.1
		v4l8.1-5l4-8.1v-8.1l-6.1-5v4L1218.1,637z M1114,273.4h3l1,2l-3,5l-4,1l-13.1,11.1l7.1,3l3-3l3-7.1l5.1-1l8.1-9.1l-2-8.1l6.1-5l2-3
		l-1-3h-4l-3,2l-5.1,12.1L1114,273.4z M1095.8,277.4l1-4l-1-4l-3-3v9.1L1095.8,277.4z M1160.5,485.5l4-3v-4l-5,1l-1,3L1160.5,485.5z
		 M1128.2,382.4l3-2v-3l-3,2V382.4z M1152.4,451.1h3l-4,1L1152.4,451.1z M1236.2,654.1l-9.1,14.1l-2,13.1l7.1-3l1-9.1l8.1-22.2
		l14.1-16.2v-8.1l5-1l-3-2h-11.1l-1,8.1l-8.1,21.2L1236.2,654.1z M1232.2,690.5l-1,11.1l7.1,1l11.1-18.2l1-4l-4,1l-9.1,9.1
		L1232.2,690.5z M1078.7,213.8l3-1l-3-3V213.8z M1097.9,267.3l6.1-1v-8.1h-4l-3,2l-2,3L1097.9,267.3z M1173.6,507.7l4-1l2-4l-3-2
		l-3,3V507.7z M1210,621.8l4-2l2-10.1l-5.1,1l1,8.1L1210,621.8z M1094.8,234l2-2l-3-1L1094.8,234z M1107,236l1,5l-1,4l-4,6.1l1,3
		l14.1-10.1l-1-9.1l6.1-15.1l-1-5l4-4l-5-1l-5,16.2l-5.1,7.1L1107,236z M1183.7,475.4l1,5l-7.1,9.1l2,4l3,1l4-2l5-6.1l-5-6.1l2-2h3
		v-4l4-9.1l-4,2l-4,6.1L1183.7,475.4z M1158.5,413.8l1-16.2l-3,9.1v4L1158.5,413.8z M1098.9,222.9l1-3l-2,1L1098.9,222.9z
		 M1251.4,702.6h3l1-3h-3L1251.4,702.6z M1181.7,403.7l-6.1,5l-7.1,14.1l-1,8.1l6.1,2l3-18.2l8.1-3l-1-4l4-6.1v-4l-6.1,3
		L1181.7,403.7z M1245.3,674.3l4,2l4-7.1l4-1l-4-7.1h-3l-1,4l-3,4L1245.3,674.3z M1232.2,626.9v-4l3-7.1l-2-2h-3l2,4l-2,7.1
		L1232.2,626.9z M1256.4,697.6h3l2,3l3-2v-8.1l-4,1l-3,3L1256.4,697.6z M1210,487.5l-3-2l-8.1,13.1l1,5l4-2l4-11.1L1210,487.5z
		 M1135.2,299.6l4-1l-2-3h-4L1135.2,299.6z M1259.5,687.5h12.1l-3-3l-1-4l-3-2l-5.1,6.1L1259.5,687.5z M1132.2,271.3l-1,3l3,3l3,1
		l3-1l8.1-9.1l-2-12.1l-3-3l-1,8.1l-2,6.1l-3,2L1132.2,271.3z M1192.8,417.8l2,8.1l-8.1,8.1v4l3,1l4-1l5-6.1v-8.1l4-6.1v-8.1l-4,2
		l-2,4L1192.8,417.8z M1137.3,224.9V236l-8.1,10.1l-1,4l4-2l6.1-6.1l4-6.1l3-12.1h-3L1137.3,224.9z M1272.6,701.6l2,3l7.1-4l-2-2
		l-4,1L1272.6,701.6z M1210,482.4l3-2v-3l-5-1v3L1210,482.4z M1261.5,646l1,3l3,1l4-1l-3-8.1l-3,2L1261.5,646z M1203.9,448.1l8.1-2
		l6.1-7.1l1-7.1l-2-4l-4-2l-8.1,14.1l-1,4V448.1z M1281.7,693.5l4-1l2-3l1-9.1l-3,2l-3,7.1L1281.7,693.5z M1274.6,668.3l6.1-7.1l1-4
		l-4,1l-3,3l-2,4L1274.6,668.3z M1265.5,637l4-1l2-2v-3l-5.1,2L1265.5,637z M1258.5,610.7l2,3l4-1l2-6.1l-5.1,2L1258.5,610.7z
		 M1232.2,474.4l-1,9.1l-3,3l-3,7.1v4l3,4l15.1-29.3l3-12.1h-5.1l-3,3l-3,8.1L1232.2,474.4z M1159.5,225.9l-2,8.1l-9.1,13.1l-1,4h4
		l6.1-5l7.1-21.2L1159.5,225.9z M1217,470.3l7.1-6.1l4-6.1l3-7.1l1-8.1l-2-1l-11.1,20.2l-1,4L1217,470.3z M1132.2,198.6l3-1l-1-3
		l-3,1L1132.2,198.6z M1194.8,199.6l-2,10.1l-5.1,6.1l-4,12.1l-5.1,7.1l-3,3l-1,10.1l-2,4l-7.1,3l1,4l-3,12.1l1,3l10.1-13.1
		l8.1-13.1l2-8.1v-4l3-3l3,2l2-8.1l7.1-14.1l2-8.1v-4h-3L1194.8,199.6z M1244.3,516.8l-2-6.1l-4-1l4,7.1L1244.3,516.8z
		 M1289.8,626.9l-1,7.1l-4,8.1l-2,9.1l4-2l5-7.1l6.1-20.2h-2l-3,3L1289.8,626.9z M1148.4,219.8l3-3l1-4l-4-2l-1-4l-5.1,1l2,9.1
		L1148.4,219.8z M1293.8,677.4l3-2l1-7.1l-3-2l-2,7.1L1293.8,677.4z M1277.6,621.8l4-1l2-3l-1-4l-4-1l-1,4V621.8z M1277.6,609.7
		l8.1-4h4l3-15.1l-6.1-1v4l-8.1,13.1L1277.6,609.7z M1152.4,206.7l2-1l-1-3h-3v3L1152.4,206.7z M1219.1,422.8l4,4l1-7.1
		L1219.1,422.8z M1219.1,418.8l4-1l1-7.1l-4,1l-2,3L1219.1,418.8z M1300.9,665.2l2-1l-1-3l-2,1L1300.9,665.2z M1312,685.4l-1-5l-2,4
		L1312,685.4z M1302.9,659.2l3-1v-3h-4L1302.9,659.2z M1224.1,405.7l2,3l5-1v-5l-5,1L1224.1,405.7z M1165.5,214.8l7.1-3l1-3v-3
		l-8.1,5L1165.5,214.8z M1313,678.4l4-1l2-3v-3h-4l-2,3V678.4z M1237.2,434l4-3l-1-5l-6.1,2l1,3L1237.2,434z M1190.8,249.1v4
		l-4,11.1l7.1-4l9.1-19.2l-6.1,5L1190.8,249.1z M1306.9,645l2,3l3-1v-4h-3L1306.9,645z M1256.4,480.4l7.1-5l1-4l-8.1,3l-2,2
		L1256.4,480.4z M1298.9,614.7l2-3l-3-1L1298.9,614.7z M1249.4,434l1,5l-3,12.1h3l7.1-8.1l-4-6.1l10.1-5l2-3v-4l-5-1l-3,1l-6.1,7.1
		L1249.4,434z M1331.2,694.5l-2-1v-3l-3,3l2,3L1331.2,694.5z M1239.3,418.8l3,5l3-2l1-3l-2-3l4-3v-5l-4,1l-2,7.1L1239.3,418.8z
		 M1174.6,203.7h6.1l-1-7.1h-3v4L1174.6,203.7z M1313,633.9l2-3l-3-1L1313,633.9z M1304.9,602.6h8.1l1-7.1l-1-4h-4l-3,7.1
		L1304.9,602.6z M1326.1,662.2l11.1-21.2l-6.1,2l-4-1l-2,17.2L1326.1,662.2z M1273.6,441l-3,3l-1,12.1l-5.1,6.1v3l6.1-4l8.1-21.2
		L1273.6,441z M1276.6,489.5v-4l-3-2v4L1276.6,489.5z M1338.2,679.4l1-7.1h-4l-1,5L1338.2,679.4z M1319.1,627.9l7.1-2v-3l-4-2h-4
		l-2,3L1319.1,627.9z M1336.2,683.4l3-1l1-3l-4,1L1336.2,683.4z M1250.4,402.6l2,3l4-1l-1-5l-3,2L1250.4,402.6z M1274.6,479.4l4-2
		v-3l-3-1l-1,3V479.4z M1210,270.3l4-3l-2-6.1l-3,3v3L1210,270.3z M1199.9,239l6.1-4l5-8.1v-4l-3-3l-1,4l-7.1,11.1V239z
		 M1291.8,515.8l3-4l1-5l-4-1l-1,7.1L1291.8,515.8z M1313,585.4l5-1l2,3l3-2v-5l-4-1l-4,2L1313,585.4z M1287.7,499.6l10.1-3l-2-4
		l-4-2l-2,4L1287.7,499.6z M1325.1,616.8l4-3l-3-2L1325.1,616.8z M1262.5,415.8l8.1-5l4,1l-3-3l-1-4l-6.1,4l-2,3V415.8z
		 M1230.2,220.8l-17.2,35.3h4l6.1-5l6.1-17.2l6.1-10.1v-4L1230.2,220.8z M1348.3,665.2l-3-3l-3,2L1348.3,665.2z M1333.2,630.9l2,6.1
		l4-2l5-7.1l-1-7.1l-4,1v5l-4,2L1333.2,630.9z M1343.3,654.1l1,5l7.1-2l-1-5h-4L1343.3,654.1z M1287.7,467.3l4-2v-4l-3-3l-2,2l-1,4
		L1287.7,467.3z M1323.1,578.4l6.1-5v-4h-4l-2,4L1323.1,578.4z M1332.2,602.6l3-3l4-9.1l4-3l-3-4l8.1-8.1l1-4l-7.1,2l-8.1,10.1
		l-3,7.1v9.1L1332.2,602.6z M1230.2,275.4l2-2l1-4l-2-2l-3,4L1230.2,275.4z M1279.7,432.9l4,1l2-1l4-8.1v-4l-4,2l-4,6.1
		L1279.7,432.9z M1349.4,648.1l3-3v-4l-5,2L1349.4,648.1z M1210,181.5l-5,1l1,2L1210,181.5z M1218.1,211.8l6.1-4h-8.1L1218.1,211.8z
		 M1234.2,261.2h3l5-7.1l2-8.1l-1-4l-3-2v5l-4,11.1L1234.2,261.2z M1242.3,287.5l7.1-5l8.1-10.1l1-4l-5-2l-9.1,12.1l-2,4V287.5z
		 M1302.9,478.4l4-1l2-4v-5h-5l1,4l-1,3L1302.9,478.4z M1362.5,662.2l3,2l5-1l-2-4L1362.5,662.2z M1370.6,470.3l2,7.1l-5.1-1l-2,3
		l2,10.1l-8.1,1v6.1l-2-1l-5.1,2l-2,8.1l-4,11.1v5l-4,3l3,5l-7.1,5l-9.1,17.2l7.1,3l4-7.1l5.1-1l12.1-36.4l4-2l4-6.1l3-11.1l9.1-4
		l-4-7.1l10.1-4v-4l-5-6.1l-5.1,1L1370.6,470.3z M1324.1,535l2-4l-4-1L1324.1,535z M1287.7,416.8l6.1-5l1-3l-7.1,4L1287.7,416.8z
		 M1314,500.6h6.1l3-3l1-4l-7.1-1l-3,2l-1,3L1314,500.6z M1297.8,445.1l3-3l4-15.1l6.1-5l2-7.1l-5.1,5h-3l-8.1,20.2L1297.8,445.1z
		 M1360.5,641l3-1l-1-3l-3-1L1360.5,641z M1221.1,199.6l3-1l1-5l-4-2l-1,4L1221.1,199.6z M1333.2,524.9l-3-4h-5v4l3,2L1333.2,524.9z
		 M1352.4,609.7l4-6.1l3-10.1l-7.1-1v13.1V609.7z M1235.2,212.8l3,3l3-3l2-4l-5.1,2L1235.2,212.8z M1383.7,487.5l-1,6.1h4l-6.1,4
		l-5.1,6.1v8.1l-6.1,4l-13.1,28.3l-3,12.1l-6.1,3l4,7.1l4-2l4-10.1l6.1-4l1-12.1h6.1l3-15.1l3-3l5-2l1-8.1l6.1-10.1v-4l-4-1l4-1
		l5-6.1l1-9.1l-1-4l-4,3l-2,8.1L1383.7,487.5z M1323.1,459.2l-2-4l-1-8.1h-3l-1,4l1,5l3,3H1323.1z M1343.3,499.6l-2-2l-1,5l-6.1,1
		l-1,7.1h3l5-6.1h4l1-9.1l4-7.1l1-4l-8.1-2l-1,7.1l-2,3l3,3L1343.3,499.6z M1369.6,616.8l1-3l-2-3l-4,1l1,4L1369.6,616.8z
		 M1248.4,238h3l-4-2L1248.4,238z M1274.6,320.8h3v-3l-3-1V320.8z M1327.1,486.5l3-3l2-8.1l3-3l1-9.1l-3-3l-6.1,14.1l-1,7.1
		L1327.1,486.5z M1266.5,287.5l2-1l-1-3l-2,1L1266.5,287.5z M1361.5,585.4l3-2l12.1-17.2l-2-4l2-8.1v-4l-6.1,4l-7.1,14.1l-3,12.1
		L1361.5,585.4z M1260.5,257.2l5.1-3l-1-3l-3-1L1260.5,257.2z M1267.5,280.4l3-3l3-6.1v-4l-6.1,5l-1,3L1267.5,280.4z M1254.4,224.9
		l6.1-4v-7.1h-3l-4,1l1,6.1V224.9z M1323.1,434l3-1l-4-3L1323.1,434z M1345.3,450.1l-2-6.1l-7.1,2h-3l-2-4l-6.1,2l4,5l3,2l9.1,1
		L1345.3,450.1z M1376.6,593.5l4,2l5-2l-5-6.1l-3,3L1376.6,593.5z M1394.8,648.1l3,3l3-2v-3h-3L1394.8,648.1z M1336.2,460.2l3-1
		l-2-3L1336.2,460.2z M1260.5,209.7h5.1l-1-5l-3,2L1260.5,209.7z M1269.6,238h4l3-2l2-3h-9.1V238z M1401.9,536l-2,9.1l-5,7.1l-2,6.1
		l-8.1,16.2l-2,8.1l8.1-1l6.1-15.1l2-4l6.1-5l-8.1-6.1l5-1l3,1l4-7.1l4-2l1-8.1l5.1-6.1l3-7.1l-4-4l5-6.1l8.1-3l-1-6.1l-5,1l-6.1,4
		l-5.1,15.1l-4,7.1l-2-2l-1,11.1l-2-2H1401.9z M1356.4,485.5l8.1-21.2v-4l-4,2l-3,4h-3l1,3l-2,10.1l1,4L1356.4,485.5z M1331.2,403.7
		l4-3l-1-5l-4,1v3L1331.2,403.7z M1336.2,418.8h3l-4-3L1336.2,418.8z M1283.7,250.1h3l1-4l-4,1V250.1z M1295.8,279.4v-6.1l-4,1l2,4
		L1295.8,279.4z M1276.6,223.9l4-1l1-3h-4L1276.6,223.9z M1353.4,463.2l13.1-12.1l2-4l-3-4l-3-2l-3,7.1l-6.1,10.1L1353.4,463.2z
		 M1268.6,188.5l3-1l-1-2l-3,1L1268.6,188.5z M1305.9,307.7l3-1l-1-3l-3,1L1305.9,307.7z M1351.4,438l5-8.1l-1-2l-5,2v6.1
		L1351.4,438z M1385.7,519.8l-3,7.1l1,8.1l2,4h3l10.1-12.1l4-1l-2-5v-4l4-10.1l-7.1-6.1h-4l4,7.1l-1,7.1l-6.1,5L1385.7,519.8z
		 M1414,558.2l3,8.1l-14.1,15.1l-1,3l1,3l3,3l9.1-13.1l7.1-14.1l2-7.1l-5-3l-1,3L1414,558.2z M1359.5,419.8h-4l2,2L1359.5,419.8z
		 M1319.1,274.4l2-6.1h-4l-2,4L1319.1,274.4z M1390.8,450.1l-5.1,1l2,4h3V450.1z M1402.9,499.6h4l8.1-9.1l-2-5l4-6.1v-4l-6.1,5
		l-9.1,16.2L1402.9,499.6z M1432.2,537l3-2l-1-8.1l-4,2l-1,4L1432.2,537z M1436.2,527.9l2-3v-3l-2,3V527.9z M1431.2,493.5l-1-3l-3,2
		L1431.2,493.5z"/>
	<path d="M1575.6,35l5.1-1l7.1,3l32.3-12.1l8.1,4h5l9.1-6.1l3,2l4,7.1l3-3l-1-5h13.1l4-1l2,2v3l-2,3v3l4-1l3-5l-1-3l4-2l8.1,4
		l13.1-1l19.2,5l5.1-1l1,5h3l8.1-2l2,7.1l7.1-4h4l3,2l2,4l4-2h4l7.1,4l-5,8.1h3l4-3l2,7.1h8.1l1,9.1l4,2h9.1l5,6.1l4,2v8.1l10.1,2
		l17.2,28.3l4,14.1v8.1l-3,6.1l-5,5l-14.1,8.1l-29.3,8.1l-4,3l-2,3l-17.2-2l1,6.1l-2,2h-3l-7.1-3l-6.1,5l-17.2,5l-5-4l-4,1l-2-4
		l-13.1-7.1l-2-4v-5l-8.1-2l-16.2-6.1l-10.1-7.1l-5,3l-2-5l-2-3l-3,3l-2,6.1l-4-1l-4-3l-3,1l-2,3l-6.1-7.1l-4,6.1l-7.1,5l-11.1,3
		l-8.1-2l-6.1,10.1l-9.1,1l-8.1,14.1l-12.1,16.2l14.1,22.2l3,3l10.1,2l3,5l5-4l8.1,4l7.1-2l7.1,4l5.1-1l6.1,2l9.1-3l11.1,2l5-1
		l6.1,7.1l8.1-5l20.2,1l11.1-2l7.1,1l19.2,1l5,3v3l3-3l7.1-1l7.1,4l2,3l5.1-4l11.1,1l6.1,3l3,3l4-2l3,4l10.1-1l7.1,1l28.3,13.1
		l12.1,1l7.1,5l5.1,7.1l14.1,6.1l6.1,5l4,9.1l12.1,9.1l16.2,23.2v7.1l4,10.1l4,4l1,4l1,17.2l2,8.1l2,3l1,18.2l-5,40.4h-8.1l-3,3
		l4,6.1l-2,3v7.1l-8.1,4v3l1,5l-11.1,11.1l-4,7.1l-1,5h-5.1l-4,7.1h-3l-3,9.1l-5,1l-5,6.1l-12.1,9.1l-28.3,18.2l-4-5l-3,2l-1,7.1
		l-8.1,3l-30.3,14.1l-17.2,3l-9.1,6.1l-10.1-1l-5,1v-3l-3-1l-4,2l-4,7.1l-4-1l-8.1,1l-3-3l-1,3l-7.1,3l-18.2,3l4-6.1l3-3l-4-1l-3,2
		l-4,6.1l-14.1,5l-4-8.1l-5,1l-5,6.1l-11.1-2l6.1-5l-3-3l-3-1l-6.1,5v5l-8.1-1l-7.1,2l-1-3l1-5l-6.1-5l-6.1,7.1h-8.1l2-1l-3-2
		l-11.1,1l-3-2l-3-4h-4l-16.2-8.1l-4,1l-1-5l-8.1-2l-5-5l-13.1-10.1l-11.1-11.1l-4-6.1l-2-8.1l-6.1-4l-5-7.1l-1-5l6.1-2l-2-3l-6.1-3
		l3-17.2l3-3h7.1l7.1-2l10.1-6.1l11.1-4h9.1l4-4h4l11.1-4l-2-5l3-3l8.1-3l20.2-5l3-2l7.1,1l10.1,5l3,3l2,5v-4l3-2l14.1,10.1
		l24.2,10.1l6.1-3l4,2l9.1-2h8.1l3,2l-4,1l2,4h4l3,2l9.1-13.1l7.1-4l10.1-1l2,2l1,5l3-2l1-7.1l10.1-3l3-3l7.1,3l1-3l-2-3l7.1-5
		l13.1-15.1l-2-4v-7.1l2-7.1l-1-4l-3,2l-10.1-8.1l3-2l1-8.1l-4,2l-3,6.1l-15.2-6.1l-16.2-3l-8.1,1l-2-2v-4l-9.1,4l-16.2-2h-17.2
		l3-7.1l-2-3h-6.1l-1,9.1l-15.1-2l-3-3l-15.1,5l-6.1-11.1l-4,2l-4,7.1l-5.1,1l1-3l-3-2l-7.1,2l7.1-9.1l-4-6.1l-3,8.1l-5,7.1l-7.1,2
		l-7.1-5l6.1-5l1-3l-2-3l-2,1l-11.1-14.1l7.1-14.1v-4l-2-5l-4,1l-3,3l-1,7.1l-6.1-2l-3,2v3l2,3l10.1-2l-8.1,11.1l-2,4l3,3l10.1-6.1
		l4,6.1l6.1,4l-7.1,10.1l-9.1-1l-7.1-4l2-2l4-1l1-3l-9.1-3l-5,1l-1,7.1l-4-1l-10.1-7.1l-5,5l-8.1-2l-10.1-5l-5-7.1l-12.1,4l-1-5
		l-5-3h-3l1-13.1l-2,4l-3,1l-13.1-1v-4l3-3l1-4l-3-2l-9.1,4l-7.1-5l-1-5l1-4l-2-3l-10.1-4l1-5l-7.1-5l-5-7.1l-4-20.2l-5.1-5v-8.1
		l-2-7.1v-4l2-3l4,2l1-9.1l-2-5l2-1h8.1l-4-6.1l2-6.1h-3l-5,7.1l-4,3l1,8.1l-5,9.1l-2-20.2l4-8.1l-3-3l-2-5l3-3l4-7.1v-3l-5-6.1
		l4-11.1l4-2l3,14.1l2-3l-3-15.1l-2-6.1l6.1-2l-2-5v-4l6.1-1l-4-7.1l5-2l5-5l-1-11.1l11.1-6.1l5.1-6.1l1-4l9.1-2l3-3l-2-8.1
		l13.1-11.1l7.1-10.1h5.1l7.1-3l5-5l-3,7.1l4,1l4-2l3-4v-4l8.1-1l5.1-6.1v-4l4-1l16.2-7.1l10.1-1l3,2l4-8.1l4,2l1,5l4-1V34
		L1575.6,35z M1437.2,278.4l7.1,12.1l10.1-17.2l-12.1,6.1L1437.2,278.4z M1459.4,303.7l6.1-5l1-7.1l-4-1l-3,2l-2,7.1L1459.4,303.7z
		 M1441.3,202.7h5l2-4l-7.1,1V202.7z M1467.5,283.5h6.1l-1-4l-3,2L1467.5,283.5z M1477.6,315.8l3-3v-4l-3-2l-1,5L1477.6,315.8z
		 M1547.3,187.5l-2-4l4-7.1l-4-1l-3,2l-7.1,14.1l-8.1,10.1l-7.1-6.1l9.1-9.1l-5.1-6.1l2-3l9.1-1l-1-5l-3-2l2-4l5.1-3l5,8.1l6.1,5
		l4-3l-8.1-7.1l-1-5l-4,1l-4-6.1l-3,3l-4,1l-3,7.1l-3,2l-4-2l2-4v-5l-8.1,5l-4-9.1l4-1l5-6.1l4-11.1l-4,1l-5,5l-4,8.1l-6.1,5v9.1
		l-3,12.1l-5,6.1l-8.1,3l3,8.1l-2,7.1l-3,3l-7.1,1v5l-9.1,14.1l-1,4h3l2,3l-6.1,5l-5,7.1l-3,7.1l2,12.1l3-3l6.1-15.1l4-1l5-10.1l4-3
		l-1-8.1l4-8.1l6.1-7.1l3-8.1v-4l3-3l4-8.1l8.1-1l-1-5l1-3l4,4l-1,4l1,5l-4,2l-2,11.1l-4,2l3,8.1l-6.1,5l-2,9.1l-18.2,28.3l3,5l-4,3
		l-5.1,7.1l2,12.1l4-6.1l3-7.1l3-3l4-2v-9.1l11.1-20.2l2,2l-1-5v-3l4-1l6.1,3l-7.1,23.2l-4,8.1l-3-2l2,7.1h4l5.1-7.1l2-9.1l5.1-4
		l2-8.1l9.1-13.1l4-7.1l-8.1,2l-1-3l-8.1,9.1l-2-4v-8.1l3-3l5.1-1l-5.1-6.1l2-3l4,6.1l3,9.1h16.2l-1-4l-5.1-5l3-7.1l6.1-5l-1-5
		L1547.3,187.5z M1437.2,171.4l5-1l-3-4l-2,2V171.4z M1452.4,219.8l3,3l5-1v-4l-2-3l-4,1L1452.4,219.8z M1447.3,182.5l4,7.1h3l3-3
		v-5l-3-3l-4,2L1447.3,182.5z M1486.7,304.7l2-3l-3-1L1486.7,304.7z M1557.4,512.7v-3l-1-5l-5,1l2,4L1557.4,512.7z M1483.7,287.5
		l1,4l3,3h3v-5l7.1-15.1l2-8.1l-4,2l-5.1,6.1l-5,10.1L1483.7,287.5z M1502.9,342l3,4l8.1-7.1l-1-4l8.1-10.1v-4l-5.1,1l-7.1,5l4,7.1
		l-4,6.1L1502.9,342z M1476.6,175.4l-7.1,14.1l-3,3l-4,16.2l1,3l4,2l6.1-22.2l7.1-1l-1-5l8.1-8.1l-2-3h-4L1476.6,175.4z
		 M1557.4,502.6h5.1l3-3l-5.1-8.1l-3,6.1V502.6z M1565.5,520.8l3,2l5-4l6.1-11.1h-6.1l-1,4l-6.1,6.1L1565.5,520.8z M1486.7,118.8
		l-3,7.1l-10.1,12.1l-4,7.1l-1,8.1l-3,1l-5,9.1l-5.1,1v6.1l1,4l3-3l5-7.1l6.1-15.1l3-3l8.1-13.1l4-2l-1-5l4-7.1v-4L1486.7,118.8z
		 M1536.2,224.9v7.1l-2,3l-3-1l-3,2l1,5l-3,7.1l-6.1,5l4,7.1l-6.1,5l-4,6.1l-2,9.1l2,9.1l-4,3h-5l1,4l-5,6.1l1,4l4-1l9.1-13.1
		l7.1-6.1v-3l3-2h3l-1-5l3-9.1l3-1l6.1-22.2l8.1,2l1-4l-2-8.1l7.1,1l1-16.2l6.1-14.1l-5.1,2l-3,2l-5.1,11.1l-3,3L1536.2,224.9z
		 M1563.5,489.5l5.1-1l-1-4l-3,1L1563.5,489.5z M1607.9,481.4l1,5l-4,6.1l-7.1,15.1l-4,6.1l-6.1,5l-1,9.1l3,1l5.1-4l4-11.1l7.1-4
		l-1-4l2-3l4-2l-1-8.1l3-7.1l8.1-9.1l-4-5l-4,2l-4,6.1L1607.9,481.4z M1545.3,254.2l-7.1,2v3l3,1l2,4v5l-3,4l-2-2l1-7.1l-1-4l-7.1,4
		l2,5l3,3l-3,3v9.1l-5.1,6.1l-1,9.1l-4,3l-4,12.1l3-1l5-5l9.1-15.1l7.1-6.1l7.1-23.2l3-3l5.1-16.2l-4-1l-4-5l-4-1v13.1L1545.3,254.2
		z M1565.5,262.3l-4,3l-7.1-1l-1,5l3,2h8.1l3,3l-4,1l-11.1,9.1l1,9.1l-4,2l-2,3l-4-2h-5l3,12.1l-3,6.1l-5.1-1l2,7.1l-4,1l-3-1
		l4,12.1l-3,2v4l2,3l3,1l2-3l1-9.1l4-1l3,1l3,3l4,7.1l-3,4v5l7.1,1v-8.1l3-2l-5-6.1l-2-5l-4-1l-6.1-7.1l19.2-18.2l3-6.1v-8.1l-3-4
		l8.1-10.1l2,6.1l-5,5v4h7.1v5l-7.1,14.1l-5,1l3,8.1l3,1l3-4l1-5l-2-2l3-2v-4h11.1l4-2l-1-4l-3-2l-1-3l3-1l-1-5l1-3l4-2h4l2-16.2
		l4-10.1l-6.1,6.1l-4,1l-7.1,14.1l-4,1l2,3l-3,2l-4-6.1l-4-13.1l1-5l8.1-2l3-3l-1-5l-6.1,5l-3,1l-4-2l-1,4L1565.5,262.3z
		 M1477.6,168.3l2,4l3,2l4-1l2-9.1l8.1-17.2v-4l-2-3l-5,6.1l-4,12.1l-5,7.1L1477.6,168.3z M1602.9,547.1l2,4l2,1l1-7.1L1602.9,547.1
		z M1469.5,100.7l-2,4l-4,1l1-3L1469.5,100.7z M1632.2,542l3-7.1l5-6.1l5.1-10.1v-4l4-3l7.1-16.2l5-5l-1-4l-3-1l-4,2l-6.1,11.1l-2,2
		h-4l5.1,8.1l-8.1,1l-7.1,19.2l-5.1,1l-10.1,22.2l9.1,1l3-1l3-3l-5.1-8.1L1632.2,542z M1615,531.9v-5l-2-1v3L1615,531.9z
		 M1553.4,328.9l3,1l4-1l3-2l-4-7.1l-6.1,5V328.9z M1615,517.8l3,3l3-3l1-7.1l-4,1l-2,2L1615,517.8z M1514,111.8l-3,3l-6.1,15.1
		l-6.1,1l1,4l-2,2l1,4l7.1-6.1l9.1-14.1l2-8.1l5-3l-4-7.1l-4-1v6.1V111.8z M1513,162.3l5.1,5h3l-2,3h-5l-3-2v-4L1513,162.3z
		 M1618,506.7l9.1,1l6.1-14.1l-1-5l-6.1,5l-5,10.1L1618,506.7z M1647.3,550.1l4,2l4-7.1l3-3l-2-11.1l-2-3l-4,1v5l-4,11.1
		L1647.3,550.1z M1629.1,468.3l1-3l-5.1,1L1629.1,468.3z M1633.2,309.7l-12.1,2l1,4h4l2,3l-2,3l-8.1,1l-3-1l-2-3v-4l-9.1,1v3
		l-9.1,10.1l-2,4l5.1,4l-3,3l-11.1-2l2,4l3,3l4,1l2,2l5-5l10.1-14.1l3-2l7.1,4l9.1-1l4-6.1v-3l6.1-7.1l5-15.1l-4-1l-4,1l-3,4l-1,4
		L1633.2,309.7z M1555.4,236l3,1l4,6.1l4-7.1l1-7.1l-1-5l-4,1l-3,2L1555.4,236z M1545.3,198.6l3-2l-1-5l-4,3L1545.3,198.6z
		 M1642.3,484.5l-2-7.1l-5,2v3l3,3L1642.3,484.5z M1613,310.7l-2,2l7.1-4l5-5l1-3l-1-5l-7.1-2l-5,5l-4,2l-3,3l-2-8.1l2-3l12.1-6.1
		l-4-7.1v-13.1l-8.1,4l-1,7.1l-5.1,1l1,6.1l-2,3l-4,2l-1,8.1l-5,6.1l-4,1l4,9.1l4-2l4-6.1l3-3l5.1,6.1l4-4l2,3L1613,310.7z
		 M1545.3,100.7l-4,1l-3,7.1l-5,1l-5.1,16.2l6.1-4l6.1-9.1v-4l3-3l4-11.1l-2,0l-1,2L1545.3,100.7z M1549.3,187.5l5.1-2l4-7.1l-5.1-1
		l-4,7.1V187.5z M1668.5,556.2l8.1-5l2-4v-4l-2-4l-9.1,6.1l-2,3v4L1668.5,556.2z M1542.3,151.2l4-6.1l-1-4l-8.1,1l1,8.1
		L1542.3,151.2z M1657.4,520.8l6.1,6.1l-1,5l5.1-1v-5l6.1-5l-2-4l-3-3l-4-1l-3,1l-3,3L1657.4,520.8z M1525.1,93.6l4-3v-5l-6.1,2v3
		L1525.1,93.6z M1569.5,216.8l-3,1l2,2L1569.5,216.8z M1607.9,349.1l4,1l7.1-4l5.1-1l-3-3l-4-1l-7.1,4L1607.9,349.1z M1552.4,163.3
		h8.1l1-3l-1-5l-4,2l-3,3L1552.4,163.3z M1674.6,491.5l-5.1,2l-2,4l-2,8.1l5.1-6.1h4l-4,6.1v4l8.1-5l4-8.1v-8.1l-6.1-5v4
		L1674.6,491.5z M1569.5,127.9h3l1,2l-3,5l-4,1l-13.1,11.1l7.1,3l3-3l3-7.1l5-1l8.1-9.1l-2-8.1l6.1-5l2-3l-1-3h-4l-4,2l-5.1,12.1
		L1569.5,127.9z M1552.4,132l1-4l-1-4l-3-3v9.1L1552.4,132z M1617,340l4-3v-4l-5.1,1l-1,3L1617,340z M1584.7,238l3-2v-3l-3,2V238z
		 M1608.9,305.7h3l-4,1L1608.9,305.7z M1691.7,508.7l-9.1,14.1l-2,13.1l7.1-2l1-9.1l8.1-22.2l14.1-16.2v-8.1l5-1l-3-2h-11.1l-1,8.1
		l-8.1,21.2L1691.7,508.7z M1687.7,545l-1,11.1l7.1,1l11.1-18.2l1-4l-4,1l-9.1,9.1L1687.7,545z M1535.2,69.3l3-1l-3-3V69.3z
		 M1553.4,122.9l6.1-1v-8.1h-4l-3,2l-2,3L1553.4,122.9z M1630.1,362.2l4-1l2-4l-3-2l-3,3L1630.1,362.2z M1666.5,476.4l4-2l2-10.1
		l-5.1,1l1,8.1L1666.5,476.4z M1550.3,89.5l2-2l-3-1L1550.3,89.5z M1562.5,90.6l1,5l-1,4l-4,6.1l1,3l14.1-10.1l-1-9.1l6.1-15.1l-1-5
		l4-4h-6.1l-5,16.2l-5,7.1L1562.5,90.6z M1640.2,329.9l1,5l-7.1,9.1l2,4l3,1l4-2l5-6.1l-5-6.1l2-2h3v-4l4-9.1l-4,2l-4,6.1
		L1640.2,329.9z M1614,269.3l1-16.2l-3,9.1v4L1614,269.3z M1555.4,78.4l1-3l-2,1L1555.4,78.4z M1707.9,558.2h3l1-3h-3L1707.9,558.2z
		 M1637.2,258.2l-6.1,5l-7.1,14.1l-1,8.1l6.1,2l3-18.2l8.1-3l-1-4l4-6.1v-4l-6.1,3L1637.2,258.2z M1700.8,529.9l4,2l4-7.1l4-1
		l-4-7.1h-3l-1,4l-3,4L1700.8,529.9z M1688.7,481.4v-4l3-7.1l-2-2h-3l2,4l-2,7.1L1688.7,481.4z M1711.9,552.1h3l2,3l3-2V545l-4,1
		l-3,3L1711.9,552.1z M1665.5,342l-3-2l-8.1,13.1l1,5l4-2l4-11.1L1665.5,342z M1590.7,154.2l4-1l-2-3h-4L1590.7,154.2z M1716,542
		h12.1l-3-3l-1-4l-3-2l-5,6.1L1716,542z M1587.7,126.9l-1,2l3,3l3,1h3l8.1-9.1l-2-12.1l-3-3l-1,8.1l-2,6.1l-3,2L1587.7,126.9z
		 M1648.3,272.4l2,8.1l-8.1,8.1v4l3,1l4-1l5.1-6.1v-8.1l4-6.1v-8.1l-4,2l-2,4L1648.3,272.4z M1593.8,79.4v11.1l-8.1,10.1l-1,4l4-2
		l6.1-6.1l4-6.1l3-12.1h-3L1593.8,79.4z M1728.1,557.2l2,3l7.1-4l-2-2l-4,1L1728.1,557.2z M1665.5,338l3-2v-3l-5.1-1v3L1665.5,338z
		 M1717,500.6l1,3l3,1l4-1l-3-8.1l-3,2L1717,500.6z M1659.4,303.7l8.1-2l6.1-7.1l1-7.1l-2-4l-4-2l-8.1,14.1l-1,4L1659.4,303.7z
		 M1737.2,548.1l4-1l2-3l1-9.1l-3,2l-3,7.1L1737.2,548.1z M1731.1,522.8l6.1-7.1l1-4l-4,1l-3,3l-2,4L1731.1,522.8z M1721,492.5l4-1
		l2-2v-3l-5.1,2L1721,492.5z M1714,466.3l2,3l4-1l2-6.1l-5,2L1714,466.3z M1687.7,328.9l-1,9.1l-3,3l-3,7.1v4l3,4l15.1-29.3l3-12.1
		h-5l-3,3l-3,8.1L1687.7,328.9z M1615,80.5l-2,8.1l-9.1,14.1l-1,4h4l6.1-5l7.1-21.2L1615,80.5z M1673.6,324.9l7.1-6.1l4-6.1l3-7.1
		l1-8.1l-2-1l-11.1,20.2l-1,4L1673.6,324.9z M1587.7,53.2l3-1l-1-3l-3,1L1587.7,53.2z M1651.3,55.2l-2,10.1l-5.1,6.1l-4,12.1l-5,7.1
		l-4,2l-1,10.1l-2,4l-7.1,3l1,4l-3,12.1l1,3l10.1-13.1l8.1-13.1l2-8.1v-4l3-3l3,2l2-8.1l7.1-14.1l2-8.1v-4h-3L1651.3,55.2z
		 M1699.8,372.3l-2-6.1l-4-1l4,7.1L1699.8,372.3z M1746.3,482.4l-1,7.1l-4,8.1l-2,9.1l4-2l5.1-7.1l6.1-20.2h-2l-3,3L1746.3,482.4z
		 M1603.9,75.4l3-3l1-4l-4-2l0-4l-5,1l2,9.1L1603.9,75.4z M1750.3,532.9l3-2l1-7.1l-3-2l-2,7.1L1750.3,532.9z M1733.2,477.4l4-1l2-3
		l-1-4l-4-1l-1,4L1733.2,477.4z M1733.2,465.3l8.1-4h4l3-15.1l-6.1-1v4l-8.1,13.1L1733.2,465.3z M1607.9,61.3l2-1l-1-3h-3v3
		L1607.9,61.3z M1675.6,277.4l4,4l1-7.1L1675.6,277.4z M1675.6,273.4l4-1l1-7.1l-4,1l-2,3L1675.6,273.4z M1756.4,519.8l2-1l-1-2
		l-2,1L1756.4,519.8z M1767.5,540l-1-5l-2,4L1767.5,540z M1758.4,514.8l3-1v-3h-4L1758.4,514.8z M1680.6,260.2l2,3l5-1v-5l-5,1
		L1680.6,260.2z M1621,69.3l7.1-3l1-3v-3l-8.1,5V69.3z M1768.5,532.9l4-1l2-3v-3h-4l-2,3V532.9z M1692.8,289.5l4-3l-1-5l-6.1,2l1,3
		L1692.8,289.5z M1646.3,103.7v4l-4,11.1l7.1-4l9.1-19.2l-7.1,7.1L1646.3,103.7z M1763.5,500.6l2,3l3-1v-4h-3L1763.5,500.6z
		 M1711.9,335l7.1-5l1-4l-8.1,3l-2,2L1711.9,335z M1755.4,470.3l2-3l-3-1L1755.4,470.3z M1705.9,289.5l1,5l-3,12.1h3l7.1-8.1l-4-6.1
		l10.1-5l2-3v-4l-5.1-1l-3,1l-6.1,7.1L1705.9,289.5z M1786.7,550.1l-2-1v-3l-3,3l2,3L1786.7,550.1z M1695.8,274.4l3,5l3-2l1-3l-2-3
		l4-3v-5l-4,1l-2,7.1L1695.8,274.4z M1631.1,58.2h6.1l-1-6.1h-3v4L1631.1,58.2z M1769.5,489.5l2-3l-3-1L1769.5,489.5z M1760.4,457.2
		h8.1l1-7.1l-1-4h-4l-3,7.1L1760.4,457.2z M1781.6,516.8l11.1-21.2l-6.1,2l-4-1l-2,17.2L1781.6,516.8z M1730.1,296.6l-3,3l-1,12.1
		l-5.1,6.1v3l6.1-4l8.1-21.2L1730.1,296.6z M1732.1,344.1v-4l-3-2v4L1732.1,344.1z M1793.8,535l1-7.1h-4l-1,5L1793.8,535z
		 M1774.6,482.4l7.1-2v-3l-4-2h-4l-2,3L1774.6,482.4z M1792.7,539l3-1l1-3l-4,1L1792.7,539z M1705.9,257.2l2,3l4-1l-1-5l-3,2
		L1705.9,257.2z M1730.1,334l4-2v-3l-3-1l-1,3L1730.1,334z M1665.5,125.9l4-3l-2-6.1l-3,3v3L1665.5,125.9z M1655.4,94.6l6.1-4l5-8.1
		v-4l-3-3l-1,4l-6.1,11.1L1655.4,94.6z M1747.3,371.3l3-4l1-5l-4-1l-1,7.1L1747.3,371.3z M1769.5,440l5.1-1l2,3l3-2v-5l-4-1l-4,2
		L1769.5,440z M1743.3,354.2l10.1-3l-2-4l-4-2l-2,4L1743.3,354.2z M1780.6,471.3l4-3l-3-2L1780.6,471.3z M1718,270.3l8.1-5l4,1l-3-3
		l-1-4l-6.1,4l-2,3L1718,270.3z M1685.7,75.4l-17.2,35.3h4l6.1-5l6.1-17.2l6.1-10.1v-4L1685.7,75.4z M1803.9,520.8l-3-3l-3,2
		L1803.9,520.8z M1789.7,485.5l2,6.1l4-2l5-7.1l-1-7.1l-4,1v5l-4,2L1789.7,485.5z M1798.8,509.7l1,5l7.1-2l-1-5h-4L1798.8,509.7z
		 M1744.3,321.8l4-2v-4l-3-3l-2,2l-1,4L1744.3,321.8z M1779.6,432.9l6.1-5v-4h-4l-2,4L1779.6,432.9z M1788.7,458.2l3-3l4-9.1l3-3
		l-3-4l8.1-8.1l1-4l-7.1,2l-8.1,10.1l-3,7.1v9.1L1788.7,458.2z M1685.7,129.9l2-2l1-4l-2-2l-3,4L1685.7,129.9z M1736.2,287.5l4,1
		l2-1l4-8.1v-4l-4,2l-5,7.1L1736.2,287.5z M1804.9,502.6l3-3v-4l-5,2L1804.9,502.6z M1666.5,37l-5,1l1,2L1666.5,37z M1673.6,67.3
		l6.1-4h-8.1L1673.6,67.3z M1689.7,116.8h3l5-7.1l2-8.1l-1-4l-3-2v5l-4,12.1L1689.7,116.8z M1697.8,142.1l7.1-5l8.1-10.1l1-4l-5.1-2
		l-9.1,12.1l-2,4L1697.8,142.1z M1758.4,333l4-1l2-4v-5h-5l1,4l-1,3L1758.4,333z M1819,516.8l3,2l5-1l-2-4L1819,516.8z
		 M1827.1,324.9l2,7.1l-5.1-1l-2,3l2,10.1l-8.1,1v6.1l-2-1l-5.1,2l-2,8.1l-4,11.1v5l-4,3l3,5l-7.1,5l-9.1,17.2l7.1,3l4-7.1l5.1-1
		l12.1-36.4l4-2l4-6.1l3-11.1l9.1-4l-4-7.1l9.1-4v-4l-5-6.1l-5,1L1827.1,324.9z M1779.6,390.5l2-4l-4-1L1779.6,390.5z M1743.3,272.4
		l6.1-5l1-3l-7.1,4L1743.3,272.4z M1770.5,355.2h6.1l3-3l1-4l-7.1-1l-3,2l-1,3L1770.5,355.2z M1754.4,300.6l3-3l4-15.1l6.1-5l2-7.1
		l-5,5h-3l-8.1,20.2L1754.4,300.6z M1816,495.6l3-1l-1-3l-3-1L1816,495.6z M1677.6,54.2l3-1l1-5l-4-2l-1,4L1677.6,54.2z
		 M1788.7,379.4l-3-4h-5v4l3,2L1788.7,379.4z M1807.9,464.3l4-6.1l3-10.1l-7.1-1v13.1V464.3z M1690.7,67.3l3,3l3-3l2-4l-5,2
		L1690.7,67.3z M1839.2,342l-1,6.1h4l-6.1,4l-5.1,6.1v8.1l-6.1,4l-13.1,28.3l-3,12.1l-6.1,3l4,7.1l4-2l4-10.1l6.1-4l1-12.1h6.1
		l3-15.1l3-3l5-2l1-8.1l6.1-10.1v-4l-4-1l4-1l5.1-6.1l1-9.1l-1-4l-4,3l-2,8.1L1839.2,342z M1778.6,313.8l-2-4l-1-8.1h-3l-1,4l1,5
		l3,3H1778.6z M1799.8,354.2l-2-2l-1,5l-6.1,1l-1,7.1h3l5-6.1h4l1-9.1l4-7.1l1-4l-8.1-2l-1,7.1l-2,3l3,3L1799.8,354.2z
		 M1826.1,471.3l1-3l-2-3l-4,1l1,4L1826.1,471.3z M1703.9,93.6h3l-4-2L1703.9,93.6z M1730.1,175.4h3v-3l-3-1V175.4z M1783.7,342l3-3
		l2-8.1l3-3l1-9.1l-3-3l-6.1,14.1l-1,7.1L1783.7,342z M1723.1,142.1l2-1l-1-3l-2,1L1723.1,142.1z M1818,441l3-2l12.1-17.2l-2-4
		l2-8.1v-4l-6.1,4l-7.1,14.1l-3,12.1L1818,441z M1717,112.8l5.1-3l-1-3l-3-1L1717,112.8z M1724.1,135l3-2l3-6.1v-4l-6.1,5l-1,3
		L1724.1,135z M1710.9,79.4l6.1-4v-7.1h-3l-4,1l1,6.1L1710.9,79.4z M1778.6,288.5l3-1l-4-3L1778.6,288.5z M1801.8,304.7l-2-6.1
		l-7.1,2h-3l-2-4l-6.1,2l4,5l3,2l9.1,1L1801.8,304.7z M1833.1,449.1l4,2l5-2l-5-6.1l-3,3L1833.1,449.1z M1850.3,502.6l3,3l3-2v-3h-3
		L1850.3,502.6z M1791.7,314.8l3-1l-2-3L1791.7,314.8z M1717,64.3h5.1l-1-5l-4,2V64.3z M1726.1,92.6h4l3-2l2-3h-9.1V92.6z
		 M1858.4,390.5l-2,9.1l-5,7.1l-2,6.1l-8.1,16.2l-2,8.1l8.1-1l6.1-15.1l2-4l6.1-5l-8.1-6.1h5l3,1l4-7.1l4-2l1-8.1l5.1-6.1l3-7.1
		l-4-4l5.1-6.1l8.1-3l-1-6.1l-5.1,1l-6.1,4l-5.1,15.1l-4,7.1l-2-2l-1,11.1l-2-2L1858.4,390.5z M1811.9,341l8.1-21.2v-4l-4,2l-3,4h-3
		l1,3l-2,10.1l1,4L1811.9,341z M1786.7,258.2l4-3l-1-5l-4,1v3L1786.7,258.2z M1791.7,273.4h3l-4-3L1791.7,273.4z M1739.2,104.7h3
		l1-4l-4,1L1739.2,104.7z M1751.3,134v-6.1l-4,1l2,4L1751.3,134z M1733.2,79.4l4-1l1-3h-4L1733.2,79.4z M1808.9,318.8l13.1-12.1l2-4
		l-3-4l-3-2l-3,7.1l-6.1,10.1L1808.9,318.8z M1724.1,43.1l3-1l-1-2l-3,1L1724.1,43.1z M1762.4,162.3l3-1l-1-3l-3,1L1762.4,162.3z
		 M1806.9,292.6l5-8.1l-1-2l-5.1,2v6.1L1806.9,292.6z M1841.2,375.4l-3,7.1l1,8.1l2,4h3l10.1-12.1l4-1l-2-5v-4l4-10.1l-7.1-6.1h-4
		l4,7.1l-1,7.1l-6.1,5L1841.2,375.4z M1869.5,413.8l3,8.1l-14.1,15.1l-1,3l1,3l3,3l9.1-13.1l7.1-14.1l2-7.1l-5.1-3l-1,3
		L1869.5,413.8z M1815,274.4h-4l2,2L1815,274.4z M1775.6,128.9l2-6.1h-4l-2,4L1775.6,128.9z M1847.3,304.7l-5.1,1l2,4h3V304.7z
		 M1859.4,354.2h4l8.1-9.1l-2-5l4-6.1v-4l-5,5l-9.1,16.2V354.2z M1887.7,391.5l3-2l-1-8.1l-4,2l-1,4L1887.7,391.5z M1891.7,382.4
		l2-3v-3l-2,3V382.4z M1887.7,348.1l-1-3l-3,2L1887.7,348.1z"/>
</g>
</svg>
