<?xml version="1.0" encoding="utf-8"?>
<!-- Generator: Adobe Illustrator 18.1.1, SVG Export Plug-In . SVG Version: 6.00 Build 0)  -->
<svg version="1.1" id="Layer_1" xmlns="http://www.w3.org/2000/svg" xmlns:xlink="http://www.w3.org/1999/xlink" x="0px" y="0px"
	 viewBox="0 0 363.9 127.2" enable-background="new 0 0 363.9 127.2" xml:space="preserve">
<g opacity="0.2">
	<path d="M5.9,126.2L24.6,7.8h48c20.1,0,29.9,12.8,27.7,26.7l-4.1,25.2C94,73.4,80.4,86.4,60.4,86.4H36.1l-6.2,39.9H5.9z M45.1,30.1
		l-5.4,34.1h21.6c5.6,0,10.8-3.4,11.8-10.1l2.2-14.2c1-6.8-3-9.8-9-9.8H45.1z"/>
	<path d="M157.2,7.7l17.7,118.5h-24.1l-3-23.5h-35.6L102,126.2H78L133.2,7.7H157.2z M121.7,80.6h23.1l-5.2-40.4L121.7,80.6z"/>
	<path d="M208.9,91.1l-0.7,3.9c-1.2,6.8,3,10.1,9.3,10.1h12c6.1,0,11.5-3,12.7-10l0.3-2.9c0.7-4.7-7.6-7.9-16.7-12.3
		c-14.5-7.1-33.4-16.2-30.2-36l1.7-10.8c2-13.5,15-26.2,34.1-26.2H245c20.1,0,29.7,12.8,27.5,26.5L270.3,48h-24l1.4-9
		c1.2-6.8-3.2-10-9-10H232c-5.7,0-10.8,3-11.8,9.6l-0.5,3c-0.7,5.1,6.8,8.8,15.5,12.8c14.9,6.9,34.6,15.7,31.9,33.4l-2,12.5
		c-2.2,14.2-16,26.7-36.5,26.7h-16.2c-21.1,0-31.4-13-29.2-26.9l1.5-9.3H208.9z"/>
	<path d="M299.9,91.1l-0.7,3.9c-1.2,6.8,3,10.1,9.3,10.1h12c6.1,0,11.5-3,12.7-10l0.3-2.9c0.7-4.7-7.6-7.9-16.7-12.3
		c-14.5-7.1-33.4-16.2-30.2-36l1.7-10.8c2-13.5,15-26.2,34.1-26.2H336c20.1,0,29.7,12.8,27.5,26.5L361.4,48h-24l1.4-9
		c1.2-6.8-3.2-10-9-10H323c-5.7,0-10.8,3-11.8,9.6l-0.5,3c-0.7,5.1,6.8,8.8,15.5,12.8c14.9,6.9,34.6,15.7,31.9,33.4l-2,12.5
		c-2.2,14.2-16,26.7-36.5,26.7h-16.2c-21.1,0-31.4-13-29.2-26.9l1.5-9.3H299.9z"/>
</g>
<g>
	<path fill="#FFFFFF" d="M0,119.2L18.7,0.8h48c20.1,0,29.9,12.8,27.7,26.7l-4.1,25.2c-2.2,13.7-15.9,26.7-35.8,26.7H30.2L24,119.2H0
		z M39.2,23.1l-5.4,34.1h21.6c5.6,0,10.8-3.4,11.8-10.1l2.2-14.2c1-6.8-3-9.8-9-9.8H39.2z"/>
	<path fill="#FFFFFF" d="M151.3,0.7L169,119.2h-24.1l-3-23.5h-35.6l-10.1,23.5h-24L127.3,0.7H151.3z M115.8,73.6H139l-5.2-40.4
		L115.8,73.6z"/>
	<path fill="#FFFFFF" d="M203,84.1l-0.7,3.9c-1.2,6.8,3,10.1,9.3,10.1h12c6.1,0,11.5-3,12.7-10l0.3-2.9c0.7-4.7-7.6-7.9-16.7-12.3
		c-14.5-7.1-33.4-16.2-30.2-36l1.7-10.8c2-13.5,15-26.2,34.1-26.2h13.7c20.1,0,29.7,12.8,27.5,26.5L264.4,41h-24l1.4-9
		c1.2-6.8-3.2-10-9-10h-6.8c-5.7,0-10.8,3-11.8,9.6l-0.5,3c-0.7,5.1,6.8,8.8,15.5,12.8c14.9,6.9,34.6,15.7,31.9,33.4l-2,12.5
		c-2.2,14.2-16,26.7-36.5,26.7h-16.2c-21.1,0-31.4-13-29.2-26.9l1.5-9.3H203z"/>
	<path fill="#FFFFFF" d="M294,84.1l-0.7,3.9c-1.2,6.8,3,10.1,9.3,10.1h12c6.1,0,11.5-3,12.7-10l0.3-2.9c0.7-4.7-7.6-7.9-16.7-12.3
		c-14.5-7.1-33.4-16.2-30.2-36l1.7-10.8c2-13.5,15-26.2,34.1-26.2h13.7c20.1,0,29.7,12.8,27.5,26.5L355.5,41h-24l1.4-9
		c1.2-6.8-3.2-10-9-10h-6.8c-5.7,0-10.8,3-11.8,9.6l-0.5,3c-0.7,5.1,6.8,8.8,15.5,12.8c14.9,6.9,34.6,15.7,31.9,33.4l-2,12.5
		c-2.2,14.2-16,26.7-36.5,26.7h-16.2c-21.1,0-31.4-13-29.2-26.9l1.5-9.3H294z"/>
</g>
</svg>
