<?xml version="1.0" encoding="utf-8"?>
<!-- Generator: Adobe Illustrator 18.1.0, SVG Export Plug-In . SVG Version: 6.00 Build 0)  -->
<svg version="1.1" id="Layer_1" xmlns="http://www.w3.org/2000/svg" xmlns:xlink="http://www.w3.org/1999/xlink" x="0px" y="0px"
	 viewBox="0 1175.4 1919.8 686.7" enable-background="new 0 1175.4 1919.8 686.7" xml:space="preserve">
<g>
	<g opacity="0.5">
		<g opacity="0.7">
			<path fill="#FFFFFF" d="M1520.2,1686c0,1.6-1.1,2.7-2.7,2.7l-468.9,3.4c-1.6,0-2.7-1.1-2.7-2.7l-1.1-128.6c0-1.6,1.1-2.7,2.7-2.7
				l468.9-3.4c1.6,0,2.7,1.1,2.7,2.7L1520.2,1686z"/>
		</g>
		<g>
			<path fill="#FFFFFF" d="M1048.6,1693.5c-2.3,0-3.9-1.6-4.6-3.9l-1.1-128.6c0-2.3,1.6-4.6,3.9-4.6l468.9-3.4
				c2.3,0,4.6,1.6,4.6,3.9l1.1,128.6c0,2.3-1.6,4.6-3.9,4.6L1048.6,1693.5z M1516.8,1556.3l-468.9,3.4c-0.5,0-1.1,0.5-1.1,1.6
				l1.1,128.6c0,0.5,0.5,1.1,1.1,1.1v1.1v-1.1l468.9-3.4c0.5,0,1.1-0.5,1.1-1.6l-1.1-128.6
				C1517.9,1556.9,1517.3,1556.3,1516.8,1556.3z"/>
		</g>
	</g>
	<path opacity="0.12" enable-background="new    " d="M1526.4,1565.4c0-1.6-1.1-2.7-2.7-2.7h-2.7l1.1,123.6c0,2.3-1.6,4.6-3.9,4.6
		l-465,2.7v3.9c0,1.6,1.1,2.7,2.7,2.7l468.9-3.4c1.6,0,2.7-1.1,2.7-2.7L1526.4,1565.4z"/>
</g>
<g>
	<g opacity="0.5">
		<g opacity="0.7">
			<path fill="#FFFFFF" d="M868.4,1682.4c0,1.6-1.1,2.7-3,2.7l-468.7,2.7c-1.6,0-2.7-1.1-2.7-3l-0.7-128.2c0-1.6,1.1-2.7,3-2.7
				l468.7-2.7c1.6,0,2.7,1.1,2.7,3L868.4,1682.4z"/>
		</g>
		<g>
			<path fill="#FFFFFF" d="M396.8,1689.4c-2.3,0-3.9-1.8-3.9-4.1l-1.4-128.6c0-1.1,0.7-2.3,1.1-2.7c0.7-0.5,1.8-1.1,3-1.1l468.7-2.7
				l0,0c2.3,0,4.6,1.8,4.3,4.1l0.7,128.6c0,1.1-0.7,2.3-1.1,2.7c-0.7,0.5-1.8,1.1-3,1.1L396.8,1689.4z M864.8,1552.4l-468.7,2.7
				c-0.5,0-0.5,0-1.1,0.5c0,0-0.7,0.5-0.7,1.1l0.7,128.6c0,0.5,0.5,1.1,1.1,1.1v1.1v-1.6l468.7-2.7c0.5,0,0.5,0,1.1-0.5
				c0,0,0.7-0.5,0.7-1.1l-0.7-128.6C865.9,1553.1,865.5,1552.4,864.8,1552.4z"/>
		</g>
	</g>
	<path opacity="0.12" enable-background="new    " d="M874.8,1561.7c0-1.6-1.1-3-2.7-3h-2.7l0.9,123.6c0,1.1-0.7,2.3-1.1,2.7
		c-0.7,0.5-1.8,1.1-3,1.1l-464.8,2.7l-0.2,3.9c0,1.6,1.1,3,2.7,3l468.7-2.7c1.6,0,3-1.1,3-2.7L874.8,1561.7z"/>
</g>
<g>
	<g opacity="0.5">
		<g opacity="0.7">
			<path fill="#FFFFFF" d="M884.2,1560.8c0,1.6-1.1,2.7-2.7,2.7l-478.5-5c-1.6,0-2.7-1.1-2.7-2.7l1.1-128.6c0-1.6,1.1-2.7,2.7-2.7
				l478.5,5c1.6,0,2.7,1.1,2.7,2.7L884.2,1560.8z"/>
		</g>
		<g>
			<path fill="#FFFFFF" d="M881.2,1565.4L881.2,1565.4l-478.5-5c-1.1,0-2.3-0.5-2.7-1.1c-0.5-0.5-1.1-1.6-1.1-2.7l1.1-128.6
				c0-2.3,1.6-3.9,3.9-3.9l478.5,5c1.1,0,2.3,0.5,2.7,1.1c0.5,0.5,1.1,1.6,1.1,2.7l-1.1,128.6
				C885.3,1563.1,883.5,1565.4,881.2,1565.4z M403.9,1426c-0.5,0-1.6,0.5-1.6,1.1l-1.1,128.6c0,0.5,0.5,1.6,1.1,1.6l478.5,5v1.1
				v-1.1c0.5,0,1.1-0.5,1.1-1.1l1.1-128.6c0-0.5-0.5-1.6-1.1-1.6L403.9,1426L403.9,1426z"/>
		</g>
	</g>
	<path opacity="0.12" enable-background="new    " d="M889.6,1437.2h-2.7l-1.1,124.7c0,2.3-1.6,5.7-3.9,5.7l0,0l-473.9-6.2v2.3
		c0,1.6,1.1,2.7,2.7,2.7l478.5,5c1.6,0,2.7-1.1,2.7-2.7l1.1-128.6C892.6,1439,891.5,1437.2,889.6,1437.2z"/>
</g>
<g>
	<g opacity="0.5">
		<g opacity="0.7">
			<path fill="#FFFFFF" d="M876.9,1314.3c0,1.6-1.1,2.7-2.7,2.7l-488-5.7c-1.6,0-2.7-1.1-2.7-2.7L385,1180c0-1.6,1.1-2.7,2.7-2.7
				l488,5.7c1.6,0,2.7,1.1,2.7,2.7L876.9,1314.3z"/>
		</g>
		<g>
			<path fill="#FFFFFF" d="M873.9,1318.8L873.9,1318.8l-488-5.7c-1.1,0-2.3-0.5-2.7-1.1c-0.5-0.5-1.1-1.6-1.1-2.7l1.6-128.6
				c0-2.3,1.6-3.9,3.9-3.9l488,5.7c1.1,0,2.3,0.5,2.7,1.1c0.5,0.5,1.1,1.6,1.1,2.7l-1.6,128.6C877.8,1317,876.2,1318.8,873.9,1318.8
				z M387.7,1178.8c-0.5,0-1.6,0.5-1.6,1.1l-1.6,128.6c0,0.5,0,0.5,0.5,1.1c0,0,0.5,0.5,1.1,0.5l488,5.7v1.1v-1.1
				c0.5,0,1.1-0.5,1.1-1.1l1.6-128.6c0-0.5,0-0.5-0.5-1.1c0,0-0.5-0.5-1.1-0.5L387.7,1178.8L387.7,1178.8z"/>
		</g>
	</g>
	<path opacity="0.12" enable-background="new    " d="M882.3,1190.7h-2.7l-1.1,124.1c0,2.3-1.6,4.6-3.9,4.6l0,0l-483.5-5.7v3.4
		c0,1.6,1.1,2.7,2.7,2.7l488,5.7c1.6,0,2.7-1.1,2.7-2.7l1.6-128.6C885.3,1192.5,884.2,1190.7,882.3,1190.7z"/>
</g>
<g>
	<g opacity="0.95">
		<g opacity="0.8">
			<path fill="#FFFFFF" d="M248.4,1446.8c-0.5,0-1.1-0.5-1.1-1.1l-4.6-128.6c0-0.5,0-0.5,0.5-1.1c0,0,0.5-0.5,1.1-0.5l468.2-16.4
				c0.5,0,1.6,0.5,1.6,1.1l4.6,128.6c0,0.5-0.5,1.6-1.1,1.6L248.4,1446.8z"/>
		</g>
		<g>
			<path fill="#FFFFFF" d="M712,1300.1L712,1300.1l4.6,128.6l-468.2,16.9l-4.6-128.6L712,1300.1L712,1300.1 M712,1297.4L712,1297.4
				l-468.2,16.4c-1.6,0-2.7,1.1-2.7,2.7l4.6,129.3c0,1.6,1.1,2.7,2.7,2.7l0,0l468.2-16.4c1.6,0,2.7-1.1,2.7-2.7l-4.6-128.6
				C715,1298.6,713.1,1297.4,712,1297.4L712,1297.4z"/>
		</g>
	</g>
	<path opacity="0.2" enable-background="new    " d="M723.4,1308.6c0-1.6-1.1-2.7-2.7-2.7H715l4.6,122.5c0,1.6-1.1,3.4-2.7,3.4
		l-464.3,16.9v1.1c0,1.6,1.1,2.7,2.7,2.7l464.1-12.3c4,0,6.8-3.2,6.8-6.9L723.4,1308.6z"/>
</g>
<g id="_x36__3_">
	<path opacity="0.2" enable-background="new    " d="M382.4,1602.5c-1.6,12.3,5,26.5,4.6,34.9c-0.5,10.7-6.2,16.9-11.2,40.1
		c-1.6,8.4-7.3,16.9-9.6,26.5c-3.4,14.1-5.7,27.1-7.3,30.6c-8.4,17.6-42.4,40.1-73.9,68.9c-18,16.4-39,16.4-53.6,31
		c-6.8,6.8-11.2,16.9-16.9,27.6H8c8-33.8,32.6-85.7,35.6-99.9c2.7-14.6,1.6-32.2,2.3-49.7c1.1-27.1,3.9-54.7,3.9-78.5
		c0-21,8.4-27.1,13.5-40.6c6.8-19.8,12.3-37.2,21.4-46.8c11.2-11.2,23.7-3.9,23.7-3.9c8-21,10.3-26.5,18.7-36.7
		c8.4-10.3,20.3-8.4,20.3-8.4s6.2-29.9,19.8-45.2c7.3-8,22.6-8,28.3-5c3.9,2.3,9.6,8.4,15.3,12.3c11.2,8,24.9,23.7,24.9,23.7
		s2.3-6.8,8.4-19.2c5.7-10.7,15.7-24.2,22.6-37.9c13-24.9,21-53.1,44-46.3c6.2,1.6,13,8.4,14.1,18.7c1.6,15.7-5,39.5-13,65.5
		c-3.9,13-10.3,30.6-15.7,44c-7.3,18-13,33.3-16.4,52.5c-2.3,14.1-1.1,29.9-0.5,43.3c0.5,11.2,1.1,22.6,2.7,31.7
		c1.6,12.3,5.7,21,8,26.5c1.6,3.9,1.1,8,1.1,8s2.7,0,6.2,1.1c3.4,1.1,5.7,3.9,5.7,3.9l5.7-3.9c0,0-1.1-2.3,0-5.7
		c1.1-3.9,3.4-9.6,6.2-17.6c1.1-2.7,2.3-9.1,3.4-12.3c2.3-8,5.7-10.7,5.7-10.7s-3.4-10.7,1.1-21.9c4.6-11.9,14.6-28.3,26-39
		c9.1-9.1,16.9-11.2,24.9-10.3c10.3,1.6,14.1,13,11.9,25.3C386.6,1587.3,383.1,1597.5,382.4,1602.5z"/>
	<g id="Color_37_">
		<path opacity="0.2" enable-background="new    " d="M240.4,1409.6h35.6l19.8,207.1l37.2-207.1h32.2l-62.7-72.7L240.4,1409.6z
			 M274.8,1398.4c0-15.7,13-28.3,28.3-28.3c15.7,0,28.3,12.3,28.3,28.3c0,15.7-12.3,28.3-28.3,28.3
			C287.8,1427.2,274.8,1414.2,274.8,1398.4z"/>
		<path fill="#FFFFFF" d="M374.7,1596.8c-1.6,12.3,5,26.5,4.6,34.9c-0.5,10.7-6.2,16.9-11.2,40.1c-1.6,8.4-7.3,16.9-9.6,26.5
			c-3.4,14.1-5.7,27.1-7.3,30.6c-8.4,17.6-42.4,40.1-73.9,68.9c-18,16.4-39,16.4-53.6,31c-8,8-13,21-20.3,33.3H0
			c2.3-16.4,16.9-50.2,16.9-50.2s16.9-45.2,18.7-55.2c2.7-14.6,1.6-32.2,2.3-49.7c1.1-27.1,3.9-54.7,3.9-78.5
			c0-21,8.4-27.1,13.5-40.6c6.8-19.8,12.3-37.2,21.4-46.8c11.4-11.4,23.7-4.1,23.7-4.1c8-21,10.3-26.5,18.7-36.7
			c8.4-10.3,20.3-8.4,20.3-8.4s6.2-29.9,19.8-45.2c7.3-8,22.6-8,28.3-5c3.9,2.3,9.6,8.4,15.3,12.3c11.2,8,24.9,23.7,24.9,23.7
			s2.3-6.8,8.4-19.2c5.7-10.7,15.7-24.2,22.6-37.9c13-24.9,21-53.1,44-46.3c6.2,1.6,13,8.4,14.1,18.7c1.6,15.7-5,39.5-13,65.5
			c-3.9,13-10.3,30.6-15.7,44c-7.3,18-13,33.3-16.4,52.5c-2.3,14.1-1.1,29.9-0.5,43.3c0.5,11.2,1.1,22.6,2.7,31.7
			c1.6,12.3,5.7,21,8,26.5c1.6,3.9,1.1,8,1.1,8s2.7,0,6.2,1.1c3.4,1.1,5.7,3.9,5.7,3.9l5.7-3.9c0,0-1.1-2.3,0-5.7
			c1.1-3.9,3.4-9.6,6.2-17.6c1.1-2.7,2.3-9.1,3.4-12.3c2.3-8,5.7-10.7,5.7-10.7s-3.4-10.7,1.1-21.9c4.6-11.9,14.6-28.3,26-39
			c9.1-9.1,16.9-11.2,24.9-10.3c10.3,1.6,14.1,13,11.9,25.3C378.6,1581.8,375.2,1591.8,374.7,1596.8z"/>
		<path fill="#FFFFFF" d="M235.4,1404.6h35.6l19.8,207.1l37.2-207.1h32.2l-62.7-72.7L235.4,1404.6z M269.8,1393.2
			c0-15.7,13-28.3,28.3-28.3c15.7,0,28.3,12.3,28.3,28.3c0,15.7-12.3,28.3-28.3,28.3C282.1,1422.2,269.8,1409.2,269.8,1393.2z"/>
	</g>
	<g id="Shadows_37_">
		
			<linearGradient id="SVGID_1_" gradientUnits="userSpaceOnUse" x1="1018.2233" y1="805.2311" x2="1013.5891" y2="815.515" gradientTransform="matrix(-5.6421 0 0 5.6421 5939.7231 -3073.1221)">
			<stop  offset="0" style="stop-color:#1D1D1B;stop-opacity:0"/>
			<stop  offset="1" style="stop-color:#1D1D1B"/>
		</linearGradient>
		<path opacity="0.5" fill="url(#SVGID_1_)" enable-background="new    " d="M202.5,1541.7c-0.5,1.1-7.3-1.6-8-9.6
			c-0.5-11.2,2.3-36,0.5-44.5c-2.3-12.3-7.3-27.1-3.9-29.4c2.7,8,12.3,10.7,16.9,10.7c10.7,0,19.2,8.4,19.2,8.4s-1.6,3.9-5,15.3
			C219.4,1503.8,204.3,1537.1,202.5,1541.7z"/>
		
			<linearGradient id="SVGID_2_" gradientUnits="userSpaceOnUse" x1="1031.3531" y1="814.7012" x2="1027.7241" y2="816.1365" gradientTransform="matrix(-5.6421 0 0 5.6421 5939.7231 -3073.1221)">
			<stop  offset="0" style="stop-color:#1D1D1B;stop-opacity:0"/>
			<stop  offset="1" style="stop-color:#1D1D1B"/>
		</linearGradient>
		<path opacity="0.5" fill="url(#SVGID_2_)" enable-background="new    " d="M124.7,1564.7c0,0,4.6-5.7,7.3-19.8
			c2.7-14.1,7.3-53.6,7.3-53.6s-3.9,5-6.8,16.4c-2.3,9.1,0,7.3-2.7,35.6C129.3,1548.5,125.2,1557.4,124.7,1564.7z"/>
		
			<linearGradient id="SVGID_3_" gradientUnits="userSpaceOnUse" x1="1037.38" y1="820.1021" x2="1036.0103" y2="820.6437" gradientTransform="matrix(-5.6421 0 0 5.6421 5939.7231 -3073.1221)">
			<stop  offset="0" style="stop-color:#1D1D1B;stop-opacity:0"/>
			<stop  offset="1" style="stop-color:#1D1D1B"/>
		</linearGradient>
		<path opacity="0.5" fill="url(#SVGID_3_)" enable-background="new    " d="M84.6,1572.2c0,0,3.9-2.3,6.2-9.1
			c2.7-6.2,6.2-24.2,6.2-24.2s-3.4,2.3-5.7,7.3c-2.3,3.9,0,3.4-2.7,16.4C89.2,1564.2,85.3,1568.8,84.6,1572.2z"/>
		
			<linearGradient id="SVGID_4_" gradientUnits="userSpaceOnUse" x1="1001.3477" y1="808.6459" x2="996.7402" y2="810.0107" gradientTransform="matrix(-5.6421 0 0 5.6421 5939.7231 -3073.1221)">
			<stop  offset="0" style="stop-color:#1D1D1B"/>
			<stop  offset="1" style="stop-color:#1D1D1B;stop-opacity:0"/>
		</linearGradient>
		<path opacity="0.5" fill="url(#SVGID_4_)" enable-background="new    " d="M314.7,1415.8c0,0-10.3,44.5-13.5,55.2
			c-3.4,10.7-19.8,49-19.8,49l5,53.1c0,0,18-81.9,22.6-107.2c3.9-21.9,9.1-53.1,9.1-53.1L314.7,1415.8z"/>
	</g>
</g>
<g>
	<g opacity="0.5">
		<g opacity="0.7">
			<path fill="#FFFFFF" d="M1533,1314.7c0,1.6-1.1,2.7-2.7,2.7l-488,15.7c-1.6,0-2.7-1.1-2.7-2.7l-3.9-128.6c0-1.6,1.1-2.7,2.7-2.7
				l488-15.7c1.6,0,2.7,1.1,2.7,2.7L1533,1314.7z"/>
		</g>
		<g>
			<path fill="#FFFFFF" d="M1042.7,1334.6c-2.3,0-3.9-1.6-3.9-3.9l-3.9-128.6c0-1.1,0.5-2.3,1.1-2.7c0.5-0.5,1.6-1.1,2.7-1.1
				l488-15.7l0,0c2.3,0,4.6,1.6,4.6,3.9l3.9,128.6c0,1.1-0.5,2.3-1.1,2.7c-0.5,0.5-1.6,1.1-2.7,1.1L1042.7,1334.6z M1526.1,1185
				l-488,15.7c-0.5,0-0.5,0-1.1,0.5c0,0-0.5,0.5-0.5,1.1l3.9,128.6c0,0.5,0.5,1.1,1.1,1.1v1.1v-1.4l488-15.7c0.5,0,0.5,0,1.1-0.5
				c0,0,0.5-0.5,0.5-1.1l-3.4-128.2C1527.7,1185.7,1527.3,1185,1526.1,1185z"/>
		</g>
	</g>
	<path opacity="0.12" enable-background="new    " d="M1536.9,1193.6c0-1.6-1.1-2.7-2.7-2.7h-2.7l3.9,123.6c0,1.1-0.5,2.3-1.1,2.7
		c-0.5,0.5-1.6,1.1-2.7,1.1l-483.5,15.3v3.4c0,1.6,1.1,2.7,2.7,2.7l488-15.7c1.6,0,2.7-1.1,2.7-2.7L1536.9,1193.6z"/>
</g>
<g>
	<g opacity="0.5">
		<g opacity="0.7">
			<path fill="#FFFFFF" d="M1505.9,1553.5c0,1.6-1.1,2.7-2.7,2.7l-478.5,10.3c-1.6,0-2.7-1.1-2.7-2.7l-2.7-128.6
				c0-1.6,1.1-2.7,2.7-2.7l478.5-10.3c1.6,0,2.7,1.1,2.7,2.7L1505.9,1553.5z"/>
		</g>
		<g>
			<path fill="#FFFFFF" d="M1503.6,1558.1L1503.6,1558.1l-478.5,10.3c-1.1,0-2.3-0.5-2.7-1.1c-0.5-0.5-1.1-1.6-1.1-2.7l-2.7-128.6
				c0-2.3,1.6-4.6,3.9-4.6l478.5-10.3c1.1,0,2.3,0.5,2.7,1.1c0.5,0.5,1.1,1.6,1.1,2.7l2.7,128.6
				C1507.4,1555.8,1505.9,1557.4,1503.6,1558.1z M1022.4,1433.8c-0.5,0-1.1,0.5-1.1,1.6l2.7,128.6c0,0.5,0,0.5,0.5,1.1
				c0,0,0.5,0.5,1.1,0.5l478.5-10.3v1.1v-1.1c0.5,0,1.1-0.5,1.1-1.6l-2.7-128.6c0-0.5,0-0.5-0.5-1.1c0,0-0.5-0.5-1.1-0.5
				L1022.4,1433.8L1022.4,1433.8z"/>
		</g>
	</g>
	<path opacity="0.12" enable-background="new    " d="M1508.1,1429.9h-2.7l2.7,122.9c0,2.3-1.6,3.4-3.9,3.4l0,0l-473.9,10.7v3.4
		c0,1.6,1.1,3.4,2.7,2.7l478.5-10.3c1.6,0,2.7-1.1,2.7-2.7l-2.7-128.6C1510.9,1431.1,1509.3,1429.9,1508.1,1429.9z"/>
</g>
<g>
	<g opacity="0.95">
		<g opacity="0.8">
			<path fill="#FFFFFF" d="M1211.9,1483.5c-0.5,0-1.1-0.5-1.1-1.1l-9.1-128.6c0-0.5,0.5-1.6,1.1-1.6l467.7-33.3
				c0.5,0,1.6,0.5,1.6,1.1l9.1,128.6c0,0.5-0.5,1.6-1.1,1.6L1211.9,1483.5z"/>
		</g>
		<g>
			<path fill="#FFFFFF" d="M1670.5,1320L1670.5,1320l9.1,128.6l-467.7,33.3l-9.1-128.6L1670.5,1320 M1670.5,1317
				C1670.5,1317,1670.1,1317,1670.5,1317l-467.7,33.8c-1.6,0-2.7,1.6-2.7,2.7l9.1,128.6c0,1.6,1.1,2.7,2.7,2.7l0,0l467.7-33.3
				c1.6,0,2.7-1.6,2.7-2.7l-9.1-128.6C1672.8,1318.2,1671.6,1317,1670.5,1317L1670.5,1317z"/>
		</g>
	</g>
	<path opacity="0.2" enable-background="new    " d="M1681.9,1327.7c0-1.6-1.6-2.7-2.7-2.7l-5.7,0.5l9.1,122.5
		c0,1.6-1.1,2.7-2.7,2.7l-463.2,33.3v1.6c0,1.6,1.6,2.7,2.7,2.7l465.6-29.4c3.7-0.7,4.9-2.2,4.9-5.5L1681.9,1327.7z"/>
</g>
<g id="_x36__4_">
	<path opacity="0.2" enable-background="new    " d="M1546,1602.5c1.6,12.3-5,26.5-4.6,34.9c0.5,10.7,6.2,16.9,11.2,40.1
		c1.6,8.4,7.3,16.9,9.6,26.5c3.4,14.1,5.7,27.1,7.3,30.6c8.4,17.6,42.4,40.1,73.9,68.9c18,16.4,39,16.4,53.6,31
		c6.8,6.8,11.2,16.9,16.9,27.6h205.9c-8-33.8-32.6-85.7-35.6-99.9c-2.7-14.6-1.6-32.2-2.3-49.7c-1.1-27.1-3.9-54.7-3.9-78.5
		c0-21-8.4-27.1-13.5-40.6c-6.8-19.8-12.3-37.2-21.4-46.8c-11.2-11.2-23.7-3.9-23.7-3.9c-8-21-10.3-26.5-18.7-36.7
		c-8.4-10.3-20.3-8.4-20.3-8.4s-6.2-29.9-19.8-45.2c-7.3-8-22.6-8-28.3-5c-3.9,2.3-9.6,8.4-15.3,12.3c-11.2,8-24.9,23.7-24.9,23.7
		s-2.3-6.8-8.4-19.2c-5.7-10.7-15.7-24.2-22.6-37.9c-13-24.9-21-53.1-44-46.3c-6.2,1.6-13,8.4-14.1,18.7c-1.6,15.7,5,39.5,13,65.5
		c3.9,13,10.3,30.6,15.7,44c7.3,18,13,33.3,16.4,52.5c2.3,14.1,1.1,29.9,0.5,43.3c-0.5,11.2-1.1,22.6-2.7,31.7
		c-1.6,12.3-5.7,21-8,26.5c-1.6,3.9-1.1,8-1.1,8s-2.7,0-6.2,1.1c-3.4,1.1-5.7,3.9-5.7,3.9l-5.7-3.9c0,0,1.1-2.3,0-5.7
		c-1.1-3.9-3.4-9.6-6.2-17.6c-1.1-2.7-2.3-9.1-3.4-12.3c-2.3-8-5.7-10.7-5.7-10.7s3.4-10.7-1.1-21.9c-4.6-11.9-14.6-28.3-26-39
		c-9.1-9.1-16.9-11.2-24.9-10.3c-10.3,1.6-14.1,13-11.9,25.3C1541.4,1587.3,1544.8,1597.5,1546,1602.5z"/>
	<g id="Color_3_">
		<path opacity="0.2" enable-background="new    " d="M1615.8,1460.5l62.7-72.7h-32.2l-37.9-207.1l-19.8,207.1h-35.6L1615.8,1460.5z
			 M1616.5,1370.2c15.7,0,28.3,12.3,28.3,28.3c0,15.7-12.3,28.3-28.3,28.3c-15.7,0-28.3-12.3-28.3-28.3
			C1588.2,1382.5,1600.7,1370.2,1616.5,1370.2z"/>
		<path fill="#FFFFFF" d="M1611.9,1455.2l62.7-72.7H1642l-37.2-207.1l-19.8,207.1h-35.6L1611.9,1455.2z M1611.9,1365.1
			c15.7,0,28.3,12.3,28.3,28.3c0,15.7-12.3,28.3-28.3,28.3s-28.3-12.3-28.3-28.3C1583.6,1378.1,1596.6,1365.1,1611.9,1365.1z"/>
		<path fill="#FFFFFF" d="M1534.6,1596.8c1.6,12.3-5,26.5-4.6,34.9c0.5,10.7,6.2,16.9,11.2,40.1c1.6,8.4,7.3,16.9,9.6,26.5
			c3.4,14.1,5.7,27.1,7.3,30.6c8.4,17.6,42.4,40.1,73.9,68.9c18,16.4,39,16.4,53.6,31c8,8,13,21,20.3,33.3h203.2
			c-2.3-16.4-16.9-50.2-16.9-50.2s-16.9-45.2-18.7-55.2c-2.7-14.6-1.6-32.2-2.3-49.7c-1.1-27.1-3.9-54.7-3.9-78.5
			c0-21-8.4-27.1-13.5-40.6c-6.8-19.8-12.3-37.2-21.4-46.8c-11.2-11.2-23.7-3.9-23.7-3.9c-8-21-10.3-26.5-18.7-36.7
			c-8.4-10.3-20.3-8.4-20.3-8.4s-6.2-29.9-19.8-45.2c-7.3-8-22.6-8-28.3-5c-3.9,2.3-9.6,8.4-15.3,12.3c-11.2,8-24.9,23.7-24.9,23.7
			s-2.3-6.8-8.4-19.2c-5.7-10.7-15.7-24.2-22.6-37.9c-13-24.9-21-53.1-44-46.3c-6.2,1.6-13,8.4-14.1,18.7c-1.6,15.7,5,39.5,13,65.5
			c3.9,13,10.3,30.6,15.7,44c7.3,18,13,33.3,16.4,52.5c2.3,14.1,1.1,29.9,0.5,43.3c-0.5,11.2-1.1,22.6-2.7,31.7
			c-1.6,12.3-5.7,21-8,26.5c-1.6,3.9-1.1,8-1.1,8s-2.7,0-6.2,1.1c-3.4,1.1-5.7,3.9-5.7,3.9l-5.7-3.9c0,0,1.1-2.3,0-5.7
			c-1.1-3.9-3.4-9.6-6.2-17.6c-1.1-2.7-2.3-9.1-3.4-12.3c-2.3-8-5.7-10.7-5.7-10.7s3.4-10.7-1.1-21.9c-4.6-11.9-14.6-28.3-26-39
			c-9.1-9.1-16.9-11.2-24.9-10.3c-10.3,1.6-14.1,13-11.9,25.3C1530.7,1581.8,1534.1,1591.8,1534.6,1596.8z"/>
	</g>
	<g id="Shadows_3_">
		
			<linearGradient id="SVGID_5_" gradientUnits="userSpaceOnUse" x1="303.8645" y1="805.2462" x2="299.2303" y2="815.5301" gradientTransform="matrix(5.6421 0 0 5.6421 6.103516e-05 -3073.1221)">
			<stop  offset="0" style="stop-color:#1D1D1B;stop-opacity:0"/>
			<stop  offset="1" style="stop-color:#1D1D1B"/>
		</linearGradient>
		<path opacity="0.5" fill="url(#SVGID_5_)" enable-background="new    " d="M1706.8,1541.7c0.5,1.1,7.3-1.6,8-9.6
			c0.5-11.2-2.3-36-0.5-44.5c2.3-12.3,7.3-27.1,3.9-29.4c-2.7,8-12.3,10.7-16.9,10.7c-10.7,0-19.2,8.4-19.2,8.4s1.6,3.9,5,15.3
			C1689.9,1503.8,1704.5,1537.1,1706.8,1541.7z"/>
		
			<linearGradient id="SVGID_6_" gradientUnits="userSpaceOnUse" x1="316.966" y1="814.7151" x2="313.337" y2="816.1504" gradientTransform="matrix(5.6421 0 0 5.6421 6.103516e-05 -3073.1221)">
			<stop  offset="0" style="stop-color:#1D1D1B;stop-opacity:0"/>
			<stop  offset="1" style="stop-color:#1D1D1B"/>
		</linearGradient>
		<path opacity="0.5" fill="url(#SVGID_6_)" enable-background="new    " d="M1784.5,1564.7c0,0-4.6-5.7-7.3-19.8
			c-2.7-14.1-7.3-53.6-7.3-53.6s3.4,5,6.2,15.7c2.3,9.1,0,7.3,2.7,35.6C1779.5,1548.5,1784.1,1557.4,1784.5,1564.7z"/>
		
			<linearGradient id="SVGID_7_" gradientUnits="userSpaceOnUse" x1="322.9929" y1="820.1159" x2="321.6231" y2="820.6576" gradientTransform="matrix(5.6421 0 0 5.6421 6.103516e-05 -3073.1221)">
			<stop  offset="0" style="stop-color:#1D1D1B;stop-opacity:0"/>
			<stop  offset="1" style="stop-color:#1D1D1B"/>
		</linearGradient>
		<path opacity="0.5" fill="url(#SVGID_7_)" enable-background="new    " d="M1824.7,1572.2c0,0-3.9-2.3-6.2-9.1
			c-2.7-6.2-6.2-24.2-6.2-24.2s3.4,2.3,5.7,7.3c2.3,3.9,0,3.4,2.7,16.4C1820.1,1564.2,1823.5,1568.8,1824.7,1572.2z"/>
		
			<linearGradient id="SVGID_8_" gradientUnits="userSpaceOnUse" x1="283.1551" y1="797.6022" x2="281.9365" y2="797.9632" gradientTransform="matrix(5.6421 0 0 5.6421 6.103516e-05 -3073.1221)">
			<stop  offset="0" style="stop-color:#1D1D1B"/>
			<stop  offset="1" style="stop-color:#1D1D1B;stop-opacity:0"/>
		</linearGradient>
		<path opacity="0.5" fill="url(#SVGID_8_)" enable-background="new    " d="M1593.9,1415.3l6.8,27.1l-6.2-7.3
			c-2.3-10.3-3.4-22.6-3.4-22.6L1593.9,1415.3z"/>
	</g>
</g>
</svg>
