<?xml version="1.0" encoding="utf-8"?>
<!-- Generator: Adobe Illustrator 18.1.0, SVG Export Plug-In . SVG Version: 6.00 Build 0)  -->
<svg version="1.1" id="Layer_1" xmlns="http://www.w3.org/2000/svg" xmlns:xlink="http://www.w3.org/1999/xlink" x="0px" y="0px"
	 viewBox="0 0 269.1 68.2" enable-background="new 0 0 269.1 68.2" xml:space="preserve">
<g>
	<g opacity="0.2">
		<g>
			<path fill="#546E7A" stroke="#000000" stroke-width="3" stroke-linejoin="round" stroke-miterlimit="10" d="M221.9,9.1l28.6,2.8
				c10.8,1.1,18.2,7.9,17,19.8c-0.7,6.8-5.1,11.8-11.5,13.9l11.4,17.2l-0.4,3.9l-17-1.7l-11.6-19.4l-2.8-0.3l-1.8,18.1l-17-1.7
				L221.9,9.1z M236.7,33.5l8.7,0.9c2.9,0.3,4.4-1.7,4.6-3.6c0.2-1.9-0.8-4.1-3.8-4.4l-8.7-0.9L236.7,33.5z"/>
		</g>
	</g>
	<g>
		<g>
			<path fill="#546E7A" stroke="#FFFFFF" stroke-width="3" stroke-linejoin="round" stroke-miterlimit="10" d="M219.9,7.1l28.6,2.8
				c10.8,1.1,18.2,7.9,17,19.8c-0.7,6.8-5.1,11.8-11.5,13.9l11.4,17.2l-0.4,3.9l-17-1.7l-11.6-19.4l-2.8-0.3l-1.8,18.1l-17-1.7
				L219.9,7.1z M234.7,31.5l8.7,0.9c2.9,0.3,4.4-1.7,4.6-3.6c0.2-1.9-0.8-4.1-3.8-4.4l-8.7-0.9L234.7,31.5z"/>
		</g>
	</g>
</g>
<g>
	<g opacity="0.2">
		<g>
			<path fill="#78909C" stroke="#000000" stroke-width="3" stroke-linejoin="round" stroke-miterlimit="10" d="M185.9,61.5
				l-6.7-52.4l43.3-5.6l1.9,14.7l-27.1,3.5l0.6,4.6l21.5-2.8l1.7,13.5l-21.5,2.8l0.6,5l27.1-3.5l1.9,14.7L185.9,61.5z"/>
		</g>
	</g>
	<g>
		<g>
			<path fill="#78909C" stroke="#FFFFFF" stroke-width="3" stroke-linejoin="round" stroke-miterlimit="10" d="M183.9,59.5
				l-6.7-52.4l43.3-5.6l1.9,14.7l-27.1,3.5l0.6,4.6l21.5-2.8l1.7,13.5l-21.5,2.8l0.6,5l27.1-3.5l1.9,14.7L183.9,59.5z"/>
		</g>
	</g>
</g>
<g>
	<g opacity="0.2">
		<g>
			<path fill="#455A64" stroke="#000000" stroke-width="3" stroke-linejoin="round" stroke-miterlimit="10" d="M147.2,8.4l17,1.6
				l-1.7,18.9l5,0.5l14.4-17.7l17.3,1.6l-0.2,2.6l-19.2,22.5l14.8,26.1l-0.1,1.5l-18.7-1.7L165.7,44l-4.5-0.4l-1.7,19l-17-1.6
				L147.2,8.4z"/>
		</g>
	</g>
	<g>
		<g>
			<path fill="#455A64" stroke="#FFFFFF" stroke-width="3" stroke-linejoin="round" stroke-miterlimit="10" d="M145.2,6.4l17,1.6
				l-1.7,18.9l5,0.5l14.4-17.7l17.3,1.6l-0.2,2.6l-19.2,22.5l14.8,26.1l-0.1,1.5l-18.7-1.7L163.7,42l-4.5-0.4l-1.7,19l-17-1.6
				L145.2,6.4z"/>
		</g>
	</g>
</g>
<g>
	<g opacity="0.2">
		<g>
			<path fill="#90A4AE" stroke="#000000" stroke-width="3" stroke-linejoin="round" stroke-miterlimit="10" d="M131.2,47
				c6-0.5,9.5-3.6,12.4-6.2l8.6,11.9c-4.8,5.1-11.4,9.3-20.6,10c-16.2,1.3-29.3-9.4-30.6-24.8C99.8,22.5,111,9.8,127.2,8.4
				c9.1-0.7,16.3,2.3,21.9,6.6l-6.6,13.1c-3.3-2.1-7.2-4.6-13.2-4.1c-7.3,0.6-11.2,6.3-10.7,12.4C119.2,42.6,123.9,47.6,131.2,47z"
				/>
		</g>
	</g>
	<g>
		<g>
			<path fill="#90A4AE" stroke="#FFFFFF" stroke-width="3" stroke-linejoin="round" stroke-miterlimit="10" d="M129.2,45
				c6-0.5,9.5-3.6,12.4-6.2l8.6,11.9c-4.8,5.1-11.4,9.3-20.6,10c-16.2,1.3-29.3-9.4-30.6-24.8C97.8,20.5,109,7.8,125.2,6.4
				c9.1-0.7,16.3,2.3,21.9,6.6l-6.6,13.1c-3.3-2.1-7.2-4.6-13.2-4.1c-7.3,0.6-11.2,6.3-10.7,12.4C117.2,40.6,121.9,45.6,129.2,45z"
				/>
		</g>
	</g>
</g>
<g>
	<g opacity="0.2">
		<g>
			<path fill="#78909C" stroke="#000000" stroke-width="3" stroke-linejoin="round" stroke-miterlimit="10" d="M8.9,45.6
				c4.6,2.6,10.7,4.5,16.8,3.9c3.2-0.3,4.9-1.5,4.7-3.8c-0.1-1.3-1.5-2.1-3.7-2.6l-8.5-1.8C9.4,39.5,4.3,35.7,3.6,27.7
				C2.7,18.2,9.7,10.1,23.9,8.8c7.4-0.7,15.2,0.8,19.6,2.5L40,25.3c-4.6-2-10.8-3.3-15.6-2.9c-2.8,0.3-3.9,1.4-3.8,3.1
				c0.1,1.2,0.9,1.8,3.2,2.3l9,1.8c10.3,2.1,14.2,6.7,14.8,13.6c0.9,10.4-6.9,18.7-20.9,19.9c-8,0.7-16.7-1.2-20.4-2.8L8.9,45.6z"/>
		</g>
	</g>
	<g>
		<g>
			<path fill="#78909C" stroke="#FFFFFF" stroke-width="3" stroke-linejoin="round" stroke-miterlimit="10" d="M6.9,43.6
				c4.6,2.6,10.7,4.5,16.8,3.9c3.2-0.3,4.9-1.5,4.7-3.8c-0.1-1.3-1.5-2.1-3.7-2.6l-8.5-1.8C7.4,37.5,2.3,33.7,1.6,25.7
				C0.7,16.2,7.7,8.1,21.9,6.8c7.4-0.7,15.2,0.8,19.6,2.5L38,23.3c-4.6-2-10.8-3.3-15.6-2.9c-2.8,0.3-3.9,1.4-3.8,3.1
				c0.1,1.2,0.9,1.8,3.2,2.3l9,1.8c10.3,2.1,14.2,6.7,14.8,13.6c0.9,10.4-6.9,18.7-20.9,19.9c-8,0.7-16.7-1.2-20.4-2.8L6.9,43.6z"/>
		</g>
	</g>
</g>
<g>
	<g opacity="0.2">
		<g>
			<path fill="#455A64" stroke="#000000" stroke-width="3" stroke-linejoin="round" stroke-miterlimit="10" d="M77.4,12.4l20.1-1.7
				l23.6,51L104,63.2l-3.4-7.8L81.9,57L80,65.3l-17.2,1.5L77.4,12.4z M85,44.2l10.4-0.9l-6.5-15.1L85,44.2z"/>
		</g>
	</g>
	<g>
		<g>
			<path fill="#455A64" stroke="#FFFFFF" stroke-width="3" stroke-linejoin="round" stroke-miterlimit="10" d="M75.4,10.4l20.1-1.7
				l23.6,51L102,61.2l-3.4-7.8L79.9,55L78,63.3l-17.2,1.5L75.4,10.4z M83,42.2l10.4-0.9l-6.5-14.1L83,42.2z"/>
		</g>
	</g>
</g>
<g>
	<g opacity="0.2">
		<g>
			<path fill="#546E7A" stroke="#000000" stroke-width="3" stroke-linejoin="round" stroke-miterlimit="10" d="M67.1,23.7l-2.6,37.9
				l-17.1-1.2L50,22.6l-14-1l1-14.8l45,3.1l-1,14.8L67.1,23.7z"/>
		</g>
	</g>
	<g>
		<g>
			<path fill="#546E7A" stroke="#FFFFFF" stroke-width="3" stroke-linejoin="round" stroke-miterlimit="10" d="M65.1,21.7l-2.6,37.9
				l-17.1-1.2L48,20.6l-14-1l1-14.8l45,3.1l-1,14.8L65.1,21.7z"/>
		</g>
	</g>
</g>
</svg>
