<?xml version="1.0" encoding="utf-8"?>
<!-- Generator: Adobe Illustrator 18.1.1, SVG Export Plug-In . SVG Version: 6.00 Build 0)  -->
<svg version="1.1" id="Layer_1" xmlns="http://www.w3.org/2000/svg" xmlns:xlink="http://www.w3.org/1999/xlink" x="0px" y="0px"
	 viewBox="262.5 0 740.5 768.1" enable-background="new 262.5 0 740.5 768.1" xml:space="preserve">
<g opacity="0.2">
	<path d="M483.6,424.3c18,15.4,37.7,27.9,59.1,37.3L507.2,564l-18.9,3.9c-32.6,6.4-98.1,19.7-114.4,23.6
		c-12.9,3.4-29.6,11.1-33.4,42c-2.6,21-6.4,83.6-9.9,134.6h-68.1c3-52.7,7.7-119.1,10.3-142.7c6-51.9,36.9-88.7,84.9-100.3
		c15.9-3.9,69-15,98.1-20.6L483.6,424.3z M440.8,194.6C440.8,89.1,528.6,0,632.8,0s192,89.1,192,194.6c0,131.6-82.7,230.6-192,230.6
		S440.8,326.1,440.8,194.6z M508,194.1c0,93.4,53.6,163.7,124.7,163.7s124.7-70.3,124.7-163.7c0-67.7-58.3-126.9-124.7-126.9
		S508,126.4,508,194.1z M660.6,626.1L697,768H568.5l36.4-141.9L570.2,594l62.6-99l62.6,99L660.6,626.1z M1003,768h-68.6
		c-3-51-6.9-113.6-9.4-134.6c-3.9-30.9-20.6-38.6-33.4-42c-16.3-3.9-81.9-17.1-114.4-23.6l-18.9-3.9l-36-102.4
		c21.9-9.4,41.6-21.9,59.6-37.3l27.9,80.1c29.1,5.6,82.3,16.7,98.1,20.6c48,11.6,78.9,48.4,84.9,100.3
		C995.3,648.9,999.6,715.3,1003,768z"/>
</g>
</svg>
