<?xml version="1.0" encoding="utf-8"?>
<!-- Generator: Adobe Illustrator 18.1.1, SVG Export Plug-In . SVG Version: 6.00 Build 0)  -->
<svg version="1.1" id="Layer_1" xmlns="http://www.w3.org/2000/svg" xmlns:xlink="http://www.w3.org/1999/xlink" x="0px" y="0px"
	 viewBox="128 0 768 768" enable-background="new 128 0 768 768" xml:space="preserve">
<g opacity="0.2">
	<path d="M497.8,1.8v368h-368c-0.9-11.7-1.8-23.7-1.8-35.6c0-12,0.9-24,1.8-35.6c16.8-156,140.7-280,297-296.7
		C438.5,0.9,450.5,0,462.4,0C474.4,0,486.1,0.9,497.8,1.8z M426.8,298.8V73.7c-117.1,16.2-209,108.1-225.2,225.2H426.8z M896,433.9
		C896,618.3,746.3,768,561.9,768S227.7,618.3,227.7,433.9c0-2.7,0-4.8,0-7.2h71c0,2.1,0,4.5,0,7.2c0,145.2,117.7,263.2,263.2,263.2
		S825,579.4,825,433.9s-118-263.2-263.2-263.2c-2.7,0-4.8,0-7.2,0V99.4c2.1,0,4.5,0,7.2,0C746.3,99.4,896,249.4,896,433.9z"/>
</g>
</svg>
