<?xml version="1.0" encoding="utf-8"?>
<!-- Generator: Adobe Illustrator 18.1.1, SVG Export Plug-In . SVG Version: 6.00 Build 0)  -->
<svg version="1.1" id="Layer_1" xmlns="http://www.w3.org/2000/svg" xmlns:xlink="http://www.w3.org/1999/xlink" x="0px" y="0px"
	 viewBox="0 0 400 495.7" enable-background="new 0 0 400 495.7" xml:space="preserve">
<g opacity="0.2">
	<path d="M400,295.7c0,110.3-89.7,200-200,200S0,406,0,295.7c0-37.8,10.6-74.5,30.4-106.3C63,137.8,179.6,20.4,184.5,15.5L200,0
		l15.5,15.5c4.9,4.9,121.5,122.3,154.1,173.9C389.4,221.2,400,257.9,400,295.7z M356.5,295.7c0-29.6-8.2-58.2-23.9-83.2
		C309.2,175.3,232.9,95.7,200,61.7c-32.9,34-109.2,113.6-132.6,150.8c-15.8,25-23.9,53.5-23.9,83.2c0,86.4,70.1,156.5,156.5,156.5
		S356.5,382.1,356.5,295.7z M184.2,128.3l31.5,29.9c-41.8,44.6-72.6,80.4-82.1,95.7c-7.9,12.5-12,26.9-12,41.8
		c0,21.2,8.4,41.3,23.9,56.2l-30.4,31c-23.9-23.1-37-54.1-37-87.2c0-23.1,6.5-45.7,18.5-64.9C112,206.5,158.2,156.3,184.2,128.3z"/>
</g>
</svg>
