<?xml version="1.0" encoding="utf-8"?>
<!-- Generator: Adobe Illustrator 18.1.1, SVG Export Plug-In . SVG Version: 6.00 Build 0)  -->
<svg version="1.1" id="Layer_1" xmlns="http://www.w3.org/2000/svg" xmlns:xlink="http://www.w3.org/1999/xlink" x="0px" y="0px"
	 viewBox="248.8 0 768 768" enable-background="new 248.8 0 768 768" xml:space="preserve">
<g opacity="0.2">
	<path d="M1016.8,384c0,102.4-40.2,198.9-112.7,271.3S735.1,768,632.8,768s-198.9-40.2-271.3-112.7S248.8,486.4,248.8,384
		S289,185.1,361.5,112.7S529.9,0,632.8,0c102.4,0,198.9,40.2,271.3,112.7S1016.8,281.6,1016.8,384z M326.7,344.8h126.9
		c3.4-82.3,18.6-159.2,43.1-219.4c3.4-8.3,6.9-16.2,10.8-23.5c-34.3,15.7-65.6,36.7-93.1,63.7C365.3,214.5,335.5,277.2,326.7,344.8z
		 M414.3,602.4c27.4,26.9,58.8,48.5,93.1,63.2c-3.9-6.9-7.3-14.7-10.8-23c-24.5-60.2-39.7-137.1-43.1-219.4H326.7
		C335.5,490.8,365.3,553.5,414.3,602.4z M631.8,75.4c-15.2,1-39.7,21.6-62.7,77.4c-20.6,51.9-33.8,119-37.2,192h201.8
		c-3.4-73-16.2-140.1-37.2-192c-1-2.4-2.4-4.9-3.4-6.9c36.2,8.8,69.6,26,98.4,50c11.3,45.6,18.1,96,20.6,148.9H939
		c-8.8-67.6-38.7-130.3-87.7-179.3C793,107.2,715.1,75.4,632.9,75.4C632.3,75.4,632.3,75.4,631.8,75.4z M696.4,615.2
		c21.1-51.9,33.8-119,37.2-192H531.9c3.4,73,16.7,140.1,37.2,192c23.5,57.3,49,77.4,63.7,77.4C647.5,692.6,672.9,672.5,696.4,615.2z
		 M938.9,423.2H812c-3.4,82.3-18.6,159.2-43.1,219.4c-3.4,8.3-6.9,16.2-10.8,23c34.3-14.7,65.6-36.2,93.1-63.2
		C900.2,553.5,930.1,490.8,938.9,423.2z"/>
</g>
</svg>
