<?xml version="1.0" encoding="utf-8"?>
<!-- Generator: Adobe Illustrator 18.1.1, SVG Export Plug-In . SVG Version: 6.00 Build 0)  -->
<svg version="1.1" id="Layer_1" xmlns="http://www.w3.org/2000/svg" xmlns:xlink="http://www.w3.org/1999/xlink" x="0px" y="0px"
	 viewBox="153.6 0 716.8 768" enable-background="new 153.6 0 716.8 768" xml:space="preserve">
<g opacity="0.2">
	<path d="M721,611.1H608.7V768l-143.1-91l-143.1,91V611.1h-55.1c-75.5,0-113.8-49.1-113.8-147.6c0-29.3,2.7-61.4,13.8-87.4
		c57.8-137.4,103.3-224.6,148.2-292.2C353,28.4,384.7,0,455.4,0h409.3l-185,377H267.4c-19.5,0-48.8,0-48.8,85.6
		c0,83.2,28.1,83.2,48.8,83.2h55.4v-90.7h65v194.3l78.1-49.7l78.1,49.7V455.1h64.7v91h69.5l121-273.1h71.3L721,611.1z M266.2,312
		c0.3,0,0.9,0,1.2,0h371.9l121-247H455.4c-43.1,0-56,10.5-85.6,54.5C338,167.1,302.4,234.1,266.2,312z"/>
</g>
</svg>
