<?xml version="1.0" encoding="utf-8"?>
<!-- Generator: Adobe Illustrator 18.1.1, SVG Export Plug-In . SVG Version: 6.00 Build 0)  -->
<svg version="1.1" id="Layer_1" xmlns="http://www.w3.org/2000/svg" xmlns:xlink="http://www.w3.org/1999/xlink" x="0px" y="0px"
	 viewBox="0 0 453.7 495.7" enable-background="new 0 0 453.7 495.7" xml:space="preserve">
<g opacity="0.2">
	<path d="M453.7,272.4c-0.8,23.2-10.5,45.3-27.1,60.6c-5.3,4.7-10.8,9-17.1,12.1C384.2,431.9,316,495.7,243,495.7
		S101.9,431.9,76.6,345c-6.1-3.2-11.8-7.4-17.1-12.1c-16.6-15.3-26.3-37.4-27.1-60.6c-0.5-20.8,6.3-39.8,18.2-54.2
		C21.1,206,1.6,191.3,0,190.2l25.5-33.7c0.5,0.5,63.5,47.4,128.8,33.2c68.5-15.3,123.8-70.6,124.3-71.1l14.5-14.5l74.5,69.5
		c-1.1,10.8-3.4,26.6-8.4,44.5c-0.3,1.3-0.8,2.6-1.1,4.2l-64.8-60.3c-23.4,20-71.6,55.6-130.1,68.7c-11.8,2.6-23.7,3.7-35,3.7
		c-4.2,0-8.4-0.3-12.6-0.5c-3.7-0.3-7.6-1.1-11.6-0.8c-17.6,2.1-30.3,18.4-29.8,37.9c0.3,11.8,5.3,23.2,13.4,31.1
		c4.5,3.9,13.4,9,23.4,9h1.8C127.4,390.1,184.6,453,243,453c58.7,0,115.6-62.9,130.1-141.9h2.1c9.7,0,18.7-5,23.2-9
		c8.2-7.9,13.2-19.2,13.4-31.1c0.5-16.6-8.7-30.8-22.4-35.8c6.1-19.5,10-39.5,12.4-59.8c3.4-29,2.6-66.1-22.4-90
		c-32.6-30.8-75.6-16.1-77.1-15.3l-9.5,3.7l-9-5c-0.8-0.3-67.4-41.3-125.3-21.6C97.7,68.1,77.4,136,74.8,146
		c-14.5-6.6-27.6-14.7-37.4-21.9C47.1,95.7,75.6,31.2,144.8,7.5C207.7-14.1,273,16.7,296.2,28c20-5.5,71.4-11.8,112.2,27.1
		c56.3,53.2,32.6,147.2,27.9,164C447.6,233.4,454.2,252.1,453.7,272.4z M188.3,259.7c16.3,0,29.5,13.2,29.5,29.5
		c0,16.3-13.2,29.5-29.5,29.5s-29.5-13.2-29.5-29.5C158.8,272.9,171.9,259.7,188.3,259.7z M297.8,259.7c16.3,0,29.5,13.2,29.5,29.5
		c0,16.3-13.2,29.5-29.5,29.5c-16.3,0-29.5-13.2-29.5-29.5C268.3,272.9,281.5,259.7,297.8,259.7z"/>
</g>
</svg>
