<?xml version="1.0" encoding="utf-8"?>
<!-- Generator: Adobe Illustrator 18.1.1, SVG Export Plug-In . SVG Version: 6.00 Build 0)  -->
<svg version="1.1" id="Layer_1" xmlns="http://www.w3.org/2000/svg" xmlns:xlink="http://www.w3.org/1999/xlink" x="0px" y="0px"
	 viewBox="128 0 768 768" enable-background="new 128 0 768 768" xml:space="preserve">
<g opacity="0.2">
	<path d="M896,383.9c0,102.4-40.1,199.1-112.6,271.6S614.5,768,511.9,768C300.5,768,128,596.1,128,383.9S299.9,0,511.9,0
		C723.5,0,896,171.9,896,383.9z M819.1,383.9c0-169.5-138-306.9-306.9-306.9c-169.5,0-306.9,137.4-306.9,306.9
		s137.4,306.9,306.9,306.9c82,0,159-32,217.1-90.1C787.3,542.5,819.1,465.9,819.1,383.9z M643.9,223.1l28.4,28.1L567.2,440.7
		L378.6,544.9l-28.4-28.1l105.1-189.5L643.9,223.1z M549,383.9c0-20.4-16.5-37.1-37.1-37.1c-20.7,0-37.1,16.5-37.1,37.1
		c0,20.7,16.5,37.1,37.1,37.1C532.5,421,549,404.5,549,383.9z"/>
</g>
</svg>
