<?xml version="1.0" encoding="utf-8"?>
<!-- Generator: Adobe Illustrator 18.1.1, SVG Export Plug-In . SVG Version: 6.00 Build 0)  -->
<svg version="1.1" id="Layer_1" xmlns="http://www.w3.org/2000/svg" xmlns:xlink="http://www.w3.org/1999/xlink" x="0px" y="0px"
	 viewBox="0 0 479.4 495.7" enable-background="new 0 0 479.4 495.7" xml:space="preserve">
<g opacity="0.2">
	<path d="M479.4,365.6c0,72.9-105.4,130-239.7,130S0,438.5,0,365.6s105.4-130,239.7-130S479.4,292.8,479.4,365.6z M440.8,365.6
		c0-42.7-82.5-90.4-201.1-90.4S38.6,323,38.6,365.6s82.5,90.1,201.1,90.1S440.8,408.3,440.8,365.6z M65,158.4
		c0-15.7,12.7-28.4,28.4-28.4s28.4,12.7,28.4,28.4s-12.7,28.4-28.4,28.4S65,174.2,65,158.4z M390,365.6c0,9.4-6.1,18.3-16.8,25.9
		c0.3-0.8,0.5-1.8,0.5-2.5c0-22.3-59.9-40.6-134.1-40.6S105.6,366.7,105.6,389c0,0.8,0.3,1.8,0.5,2.5c-10.7-7.6-16.8-16.5-16.8-25.9
		c0-31.5,67.3-56.9,150.3-56.9S390,334.2,390,365.6z M138.1,93.4c0-15.7,12.7-28.4,28.4-28.4S195,77.7,195,93.4
		s-12.7,28.4-28.4,28.4S138.1,109.2,138.1,93.4z M211.3,28.4C211.3,12.7,224,0,239.7,0s28.4,12.7,28.4,28.4s-12.7,28.4-28.4,28.4
		S211.3,44.2,211.3,28.4z M211.3,158.4c0-15.7,12.7-28.4,28.4-28.4s28.4,12.7,28.4,28.4s-12.7,28.4-28.4,28.4
		S211.3,174.2,211.3,158.4z M284.4,93.4c0-15.7,12.7-28.4,28.4-28.4c15.7,0,28.4,12.7,28.4,28.4s-12.7,28.4-28.4,28.4
		C297.1,121.9,284.4,109.2,284.4,93.4z M357.5,158.4c0-15.7,12.7-28.4,28.4-28.4s28.4,12.7,28.4,28.4s-12.7,28.4-28.4,28.4
		S357.5,174.2,357.5,158.4z"/>
</g>
</svg>
