<?xml version="1.0" encoding="utf-8"?>
<!-- Generator: Adobe Illustrator 18.1.1, SVG Export Plug-In . SVG Version: 6.00 Build 0)  -->
<svg version="1.1" id="Layer_1" xmlns="http://www.w3.org/2000/svg" xmlns:xlink="http://www.w3.org/1999/xlink" x="0px" y="0px"
	 viewBox="0 0 449.8 495.7" enable-background="new 0 0 449.8 495.7" xml:space="preserve">
<g opacity="0.2">
	<path d="M24.4,364.3c-12-33.6-0.3-56.2,7.5-71.1c2.6-4.9,4.9-9.2,5.4-12.3c1.1-5.4,1.7-11.2,2.3-16.9c1.4-14.6,3.2-31,12.3-47.3
		c8.9-16.6,19.2-25,27-31c1.7-1.4,3.4-2.6,4.6-3.7l-63.7-64.5c-26.4-26.7-26.4-70.3,0-97C32.7,7.2,49.9,0,68.3,0s35.6,7.2,48.5,20.4
		l9.8,9.8c0,0,114.2,115.3,134.5,136c11.2,11.2,23.8,15.2,31.6,8.6c10.6-9.2,14.6-22.7,19.5-37.9c4.6-15.8,10-33.6,24.1-46.2
		c11.5-10.3,25.2-15.8,39.9-15.8c29,0,56.2,22.4,64.8,52.8c7.5,26.4,25.5,154-28.7,250.7c-41.9,74.6-110.4,117.3-187.6,117.3
		c-56.8,0-111-23.5-152.9-65.7C68,426.2,35,393.8,24.4,364.3z M355.7,150c-5.4,18.4-12.6,41.6-33.6,59.4
		c-10.9,9.5-24.1,14.3-38.4,14.3c-19.2,0-39-9.2-55.1-25.5c-20.4-20.4-134.8-136-134.8-136l-9.5-9.8c-8.6-8.6-23.5-8.6-32.1,0
		c-8.9,8.9-8.9,23.8,0,32.7l85.5,86.1l-4,13.2c-6,20.9-18.1,30.4-26.7,37.3c-6,4.6-10.6,8-14.9,16.3c-4.9,8.6-5.7,18.4-7.2,30.4
		c-0.6,6.6-1.1,13.5-2.6,20.7c-2,9.8-6,18.1-10,25.2c-6.3,12.3-10.3,19.8-4.9,34.4c5.2,14.9,24.7,37.3,36.4,48.5
		c33.6,33.8,76.3,52.8,120.8,52.8c60.2,0,114.2-34.4,147.7-94.1c46.8-83.5,29.8-197.1,24.4-216c-3.2-12-13.2-19.2-20.7-19.2
		c-3.4,0-6.3,1.1-9.2,3.7C362,128.8,358.8,139.1,355.7,150z"/>
</g>
</svg>
