<?xml version="1.0" encoding="utf-8"?>
<!-- Generator: Adobe Illustrator 18.1.1, SVG Export Plug-In . SVG Version: 6.00 Build 0)  -->
<svg version="1.1" id="Layer_1" xmlns="http://www.w3.org/2000/svg" xmlns:xlink="http://www.w3.org/1999/xlink" x="0px" y="0px"
	 viewBox="326 0 372.1 768" enable-background="new 326 0 372.1 768" xml:space="preserve">
<g opacity="0.2">
	<path d="M650.1,457.5c36.1,34.1,48.1,78.1,48.1,124.6c0,102.8-83.2,186-186,186C409.6,768,326,684.8,326,582
		c0-46.5,12-90.4,48.1-124.6V137.9C374.1,61.8,435.9,0,512,0s137.9,61.8,137.9,137.9v319.6H650.1z M637.9,582
		c0-34.5-13.9-66.7-38.6-90.8l-9.4-9V137.9c0-43.2-34.9-78.1-78.1-78.1s-77.7,35.1-77.7,78.1v344.3l-9.4,9
		c-24.7,23.9-38.6,56.3-38.6,90.8c0,69.4,56.7,125.9,125.9,125.9S637.9,651.3,637.9,582z M590.1,582c0,43.2-34.9,78.1-78.1,78.1
		s-78.1-34.9-78.1-78.1c0-32.2,23.9-60.4,48.1-72V264h60v246C565.9,521.6,590.1,549.7,590.1,582z"/>
</g>
</svg>
