<?xml version="1.0" encoding="utf-8"?>
<!-- Generator: Adobe Illustrator 18.1.1, SVG Export Plug-In . SVG Version: 6.00 Build 0)  -->
<svg version="1.1" id="Layer_1" xmlns="http://www.w3.org/2000/svg" xmlns:xlink="http://www.w3.org/1999/xlink" x="0px" y="0px"
	 viewBox="737.8 -105.7 768 768" enable-background="new 737.8 -105.7 768 768" xml:space="preserve">
<g opacity="0.2">
	<path d="M1505.8,278.3c0,211.9-172.1,384-384,384c-102.6,0-199.1-39.8-271.7-112.3c-72.5-72.5-112.3-169-112.3-271.7
		c0-211.9,172.1-384,384-384S1505.8,66.4,1505.8,278.3z M881.3,461.1l423.3-423.3C1252-2,1188.7-24,1121.8-24
		c-167,0-302.3,135.3-302.3,302.3C819.5,345.2,841.4,408.5,881.3,461.1z M1424.1,278.3c0-66.9-22-130.2-61.8-182.8L939,518.8
		c52.6,39.8,115.9,61.8,182.8,61.8C1288.2,580.6,1424.1,444.8,1424.1,278.3z"/>
</g>
</svg>
