<?xml version="1.0" encoding="utf-8"?>
<!-- Generator: Adobe Illustrator 18.1.1, SVG Export Plug-In . SVG Version: 6.00 Build 0)  -->
<svg version="1.1" id="Layer_1" xmlns="http://www.w3.org/2000/svg" xmlns:xlink="http://www.w3.org/1999/xlink" x="0px" y="0px"
	 viewBox="186.7 0 650.7 767.8" enable-background="new 186.7 0 650.7 767.8" xml:space="preserve">
<g opacity="0.2">
	<path d="M837.3,418v30.6H186.7V418c0-135.2,82.8-250.9,199.9-300.1c2.4,7.7,4.9,14.9,8.8,21.8c6.9,12,16.1,21.8,27.7,30
		C330.6,203,261.6,286.4,250,387.2h524.2c-6.9-59.4-33.7-112.8-73.4-153.4c23-1.6,43.7-10.4,59.4-25.7
		C808.3,265,837.3,338.2,837.3,418z M435,78.5c8-29.2,56.5-82.2,70.6-78.3c13.7,3.9,29.2,73.8,21.8,103.2
		c-7.3,28.4-32.2,41.4-59,34.5C441.9,130.6,426.8,106.9,435,78.5z M641,632.8h61.4v25.3c0,60.6-49.4,109.7-110.4,109.7
		s-110.4-49-110.4-109.7V497.7h61.4v160.5c0,26.9,21.8,48.3,49,48.3c27.3,0,49-21.6,49-48.3L641,632.8L641,632.8z M508.2,249.5
		c8-29.2,56.5-82.2,70.2-78.3c14.1,3.9,29.6,73.8,22.2,103.2c-7.3,28.4-32.2,41.4-59,34.5C515,301.7,500.1,278,508.2,249.5z
		 M644.7,124.2c8.4-29.6,56.7-82.2,70.6-78.7c13.7,3.9,29.2,73.8,21.8,103.2c-7.3,28.8-31.8,41.8-58.7,34.5
		C651.8,176,636.7,152.6,644.7,124.2z"/>
</g>
</svg>
