<?xml version="1.0" encoding="utf-8"?>
<!-- Generator: Adobe Illustrator 18.1.1, SVG Export Plug-In . SVG Version: 6.00 Build 0)  -->
<svg version="1.1" id="Layer_1" xmlns="http://www.w3.org/2000/svg" xmlns:xlink="http://www.w3.org/1999/xlink" x="0px" y="0px"
	 viewBox="0 0 15 15" enable-background="new 0 0 15 15" xml:space="preserve">
<path fill="#FFFFFF" d="M7.5,14.8c4,0,7.3-3.3,7.3-7.3s-3.3-7.3-7.3-7.3S0.2,3.5,0.2,7.5S3.5,14.8,7.5,14.8z M9.7,4
	c0.8,0,1.4,0.9,1.4,1.9s-0.6,1.9-1.4,1.9C8.9,7.9,8.3,7,8.3,6S8.9,4,9.7,4z M5,4C5.7,4,6.3,4.9,6.3,6S5.7,7.9,5,7.9S3.6,7,3.6,6
	C3.6,4.9,4.2,4,5,4z M11.7,10.3c-1.2,1.3-2.4,1.9-3.9,2c0,0-0.1,0-0.1,0c-2.4,0-4.3-1.9-4.4-2c-0.2-0.2-0.2-0.5,0-0.7
	c0.3-0.2,0.6-0.2,0.8,0c0,0,1.7,1.6,3.6,1.6c0,0,0,0,0.1,0c1.1,0,2.2-0.6,3.1-1.6c0.1-0.1,0.3-0.2,0.4-0.2c0.1,0,0.3,0,0.3,0.1
	C11.9,9.8,11.9,10.1,11.7,10.3z"/>
</svg>
