<?xml version="1.0" encoding="utf-8"?>
<!-- Generator: Adobe Illustrator 18.1.1, SVG Export Plug-In . SVG Version: 6.00 Build 0)  -->
<svg version="1.1" id="Layer_1" xmlns="http://www.w3.org/2000/svg" xmlns:xlink="http://www.w3.org/1999/xlink" x="0px" y="0px"
	 viewBox="0 0 1650 1879" enable-background="new 0 0 1650 1879" xml:space="preserve">
<g opacity="5.000000e-02">
	<g>
		<path d="M880,758c63.2,0,124.5,12.4,182.1,36.7c55.7,23.6,105.8,57.3,148.8,100.3c43,43,76.8,93.1,100.3,148.8
			c24.4,57.7,36.7,118.9,36.7,182.1s-12.4,124.5-36.7,182.1c-23.6,55.7-57.3,105.8-100.3,148.8s-93.1,76.8-148.8,100.3
			c-57.7,24.4-118.9,36.7-182.1,36.7s-124.5-12.4-182.1-36.7c-55.7-23.6-105.8-57.3-148.8-100.3c-43-43-76.8-93.1-100.3-148.8
			c-24.4-57.7-36.7-118.9-36.7-182.1s12.4-124.5,36.7-182.1c23.6-55.7,57.3-105.8,100.3-148.8c43-43,93.1-76.8,148.8-100.3
			C755.5,770.4,816.8,758,880,758 M880,688c-297.1,0-538,240.9-538,538s240.9,538,538,538s538-240.9,538-538S1177.1,688,880,688
			L880,688z"/>
	</g>
</g>
<g opacity="3.000000e-02">
	<g>
		<path d="M825,84c100.2,0,197.3,19.6,288.8,58.3c44,18.6,86.4,41.6,126,68.4c39.3,26.5,76.2,57,109.8,90.6
			c33.6,33.6,64.1,70.5,90.6,109.8c26.8,39.7,49.8,82.1,68.4,126c38.7,91.5,58.3,188.6,58.3,288.8s-19.6,197.3-58.3,288.8
			c-18.6,44-41.6,86.4-68.4,126c-26.5,39.3-57,76.2-90.6,109.8c-33.6,33.6-70.5,64.1-109.8,90.6c-39.7,26.8-82.1,49.8-126,68.4
			c-91.5,38.7-188.6,58.3-288.8,58.3s-197.3-19.6-288.8-58.3c-44-18.6-86.4-41.6-126-68.4c-39.3-26.5-76.2-57-109.8-90.6
			c-33.6-33.6-64.1-70.5-90.6-109.8c-26.8-39.7-49.8-82.1-68.4-126C102.6,1023.3,83,926.2,83,826s19.6-197.3,58.3-288.8
			c18.6-44,41.6-86.4,68.4-126c26.5-39.3,57-76.2,90.6-109.8c33.6-33.6,70.5-64.1,109.8-90.6c39.7-26.8,82.1-49.8,126-68.4
			C627.7,103.6,724.8,84,825,84 M825,74C409.7,74,73,410.7,73,826s336.7,752,752,752s752-336.7,752-752S1240.3,74,825,74L825,74z"/>
	</g>
</g>
<g opacity="2.000000e-02">
	<g>
		<path d="M311,183c100.8,0,198.5,19.7,290.3,58.6c44.2,18.7,86.8,41.8,126.7,68.8c39.5,26.7,76.7,57.4,110.5,91.2
			s64.5,71,91.2,110.5c26.9,39.9,50.1,82.5,68.8,126.7c38.9,91.9,58.6,189.6,58.6,290.3s-19.7,198.5-58.6,290.3
			c-18.7,44.2-41.8,86.8-68.8,126.7c-26.7,39.5-57.4,76.7-91.2,110.5c-33.8,33.8-71,64.5-110.5,91.2
			c-39.9,26.9-82.5,50.1-126.7,68.8c-91.9,38.9-189.6,58.6-290.3,58.6s-198.5-19.7-290.3-58.6c-44.2-18.7-86.8-41.8-126.7-68.8
			c-39.5-26.7-76.7-57.4-110.5-91.2c-33.8-33.8-64.5-71-91.2-110.5c-26.9-39.9-50.1-82.5-68.8-126.7
			c-38.9-91.9-58.6-189.6-58.6-290.3s19.7-198.5,58.6-290.3c18.7-44.2,41.8-86.8,68.8-126.7c26.7-39.5,57.4-76.7,91.2-110.5
			c33.8-33.8,71-64.5,110.5-91.2c39.9-26.9,82.5-50.1,126.7-68.8C112.5,202.7,210.2,183,311,183 M311,33c-494.8,0-896,401.2-896,896
			s401.2,896,896,896s896-401.2,896-896S805.8,33,311,33L311,33z"/>
	</g>
</g>
</svg>
