<?xml version="1.0" encoding="utf-8"?>
<!-- Generator: Adobe Illustrator 18.1.1, SVG Export Plug-In . SVG Version: 6.00 Build 0)  -->
<svg version="1.1" id="Layer_1" xmlns="http://www.w3.org/2000/svg" xmlns:xlink="http://www.w3.org/1999/xlink" x="0px" y="0px"
	 viewBox="202.1 0 821.9 768" enable-background="new 202.1 0 821.9 768" xml:space="preserve">
<g opacity="5.000000e-02">
	<g>
		<path d="M441.3,131.6c25.8,0,50.9,5.1,74.4,15c22.8,9.6,43.2,23.4,60.8,41c17.6,17.6,31.4,38.1,41,60.8c10,23.6,15,48.6,15,74.4
			c0,25.8-5.1,50.9-15,74.4c-9.6,22.8-23.4,43.2-41,60.8c-17.6,17.6-38.1,31.4-60.8,41c-23.6,10-48.6,15-74.4,15
			c-25.8,0-50.9-5.1-74.4-15c-22.8-9.6-43.2-23.4-60.8-41c-17.6-17.6-31.4-38.1-41-60.8c-10-23.5-15-48.6-15-74.4
			c0-25.8,5.1-50.9,15-74.4c9.6-22.8,23.4-43.2,41-60.8c17.6-17.6,38.1-31.4,60.8-41C390.4,136.7,415.5,131.6,441.3,131.6
			 M441.3,103c-121.4,0-219.9,98.5-219.9,219.9s98.5,219.9,219.9,219.9s219.9-98.5,219.9-219.9S562.7,103,441.3,103L441.3,103z"/>
	</g>
</g>
<g opacity="3.000000e-02">
	<g>
		<path d="M558.6,123.8c36,0,70.9,7,103.7,20.9c15.8,6.7,31,15,45.2,24.6c14.1,9.5,27.4,20.5,39.4,32.5s23,25.3,32.5,39.4
			c9.6,14.3,17.9,29.5,24.6,45.2C818,319.4,825,354.3,825,390.3s-7,70.9-20.9,103.7c-6.7,15.8-15,31-24.6,45.2
			c-9.5,14.1-20.5,27.4-32.5,39.4c-12.1,12.1-25.3,23-39.4,32.5c-14.3,9.6-29.5,17.9-45.2,24.6c-32.9,13.9-67.8,20.9-103.7,20.9
			s-70.9-7-103.7-20.9c-15.8-6.7-31-15-45.2-24.6c-14.1-9.5-27.4-20.5-39.4-32.5c-12.1-12.1-23-25.3-32.5-39.4
			c-9.6-14.3-17.9-29.5-24.6-45.2c-13.9-32.8-21-67.7-21-103.7s7-70.9,20.9-103.7c6.7-15.8,15-31,24.6-45.2
			c9.5-14.1,20.5-27.4,32.5-39.4c12.1-12.1,25.3-23,39.4-32.5c14.3-9.6,29.5-17.9,45.2-24.6C487.7,130.9,522.6,123.8,558.6,123.8
			 M558.6,119.8C409.2,119.8,288,240.9,288,390.3s121.1,270.6,270.6,270.6s270.6-121.1,270.6-270.6S708,119.8,558.6,119.8
			L558.6,119.8z"/>
	</g>
</g>
<g opacity="5.000000e-02">
	<g>
		<path d="M760.5,78.9c41.2,0,81.1,8.1,118.7,24c18.1,7.6,35.5,17.1,51.8,28.1c16.1,10.9,31.3,23.5,45.2,37.3
			c13.8,13.8,26.4,29,37.3,45.2c11,16.3,20.5,33.7,28.1,51.8c15.9,37.6,24,77.5,24,118.7s-8.1,81.1-24,118.7
			c-7.6,18.1-17.1,35.5-28.1,51.8c-10.9,16.1-23.5,31.3-37.3,45.2c-13.8,13.8-29,26.4-45.2,37.3c-16.3,11-33.7,20.5-51.8,28.1
			c-37.6,15.9-77.5,24-118.7,24s-81.1-8.1-118.7-24c-18.1-7.6-35.5-17.1-51.8-28.1c-16.1-10.9-31.3-23.5-45.2-37.3
			c-13.8-13.8-26.4-29-37.3-45.2c-11-16.3-20.5-33.7-28.1-51.8c-15.9-37.6-23.9-77.5-23.9-118.7s8.1-81.1,24-118.7
			c7.6-18.1,17.1-35.5,28.1-51.8c10.9-16.1,23.5-31.3,37.3-45.2s29-26.4,45.2-37.3c16.3-11,33.7-20.5,51.8-28.1
			C679.4,86.9,719.3,78.9,760.5,78.9 M760.5,17.6c-202.2,0-366.2,164-366.2,366.2S558.3,750,760.5,750s366.2-164,366.2-366.2
			S962.7,17.6,760.5,17.6L760.5,17.6z"/>
	</g>
</g>
</svg>
