<?xml version="1.0" encoding="utf-8"?>
<!-- Generator: Adobe Illustrator 18.1.1, SVG Export Plug-In . SVG Version: 6.00 Build 0)  -->
<svg version="1.1" id="Layer_1" xmlns="http://www.w3.org/2000/svg" xmlns:xlink="http://www.w3.org/1999/xlink" x="0px" y="0px"
	 viewBox="0 0 300 300" enable-background="new 0 0 300 300" xml:space="preserve">
<path fill="#44A5A6" d="M49.7,156.3c6-1.2,10.6,0.2,15,4c11.8,10.3,17.1,24.6,23.8,38.1c1.6,3.3,3,6.8,4.8,11.1
	C141.8,134.2,201,71.3,277.2,24.2c2.8,3.9,5.1,7.1,7.7,10.9c-4.6,3.9-9.2,7.5-13.5,11.3c-40.6,35.2-74.6,76.2-104.7,120.4
	c-17.9,26.2-33.1,54.3-49.5,81.5c-1,1.6-1.8,3.5-3.3,4.5c-12.4,8.9-25,17.6-37.1,26.1C67.2,257.1,58,235.7,48,214.6
	c-7-14.7-16.2-27.8-33.2-34.4C25.2,169.3,34.9,159.4,49.7,156.3z"/>
</svg>
