<?xml version="1.0" encoding="utf-8"?>
<!-- Generator: Adobe Illustrator 18.1.1, SVG Export Plug-In . SVG Version: 6.00 Build 0)  -->
<svg version="1.1" id="Layer_1" xmlns="http://www.w3.org/2000/svg" xmlns:xlink="http://www.w3.org/1999/xlink" x="0px" y="0px"
	 viewBox="0 0 300 300" enable-background="new 0 0 300 300" xml:space="preserve">
<path fill="#00458D" d="M47,25.7c4.1,5,7.9,9.9,11.9,14.6c24.9,29.3,52.6,55.4,82.2,79.3c39.4-40.8,81.8-79.2,113.2-99.1
	c2.9,4.2,18.1,17.1,21,21.2c-4.9,4.2-9.7,8.1-14.3,12.2c-31.5,27.9-59.2,59.2-84.3,92.7c3.1,2.2,6.2,4.5,9.4,6.7
	c27.7,19.3,57.4,35.7,86.2,53.4c1.7,1,3.7,2,4.7,3.5c9.4,13.4-3.3,53.6-9.3,64.2c-12.2,5.6-65.1-35.3-119.6-87.2
	c-17.9,27.3-33.5,56.4-50.1,84.6c-1,1.7-1.9,3.7-3.5,4.9c-13.1,9.6-52.5-3.4-62.9-9.5c-5.2-12,31.8-62.6,80-116.1
	c-35.6-36.8-68-74.9-85.6-103.9C30.3,44.1,43,28.6,47,25.7z"/>
</svg>
