<?xml version="1.0" encoding="utf-8"?>
<!-- Generator: Adobe Illustrator 18.1.1, SVG Export Plug-In . SVG Version: 6.00 Build 0)  -->
<svg version="1.1" id="Layer_1" xmlns="http://www.w3.org/2000/svg" xmlns:xlink="http://www.w3.org/1999/xlink" x="0px" y="0px"
	 viewBox="0 0 35 35" enable-background="new 0 0 35 35" xml:space="preserve">
<path fill="#00458D" d="M17.5,34.5c9.4,0,17-7.6,17-17s-7.6-17-17-17s-17,7.6-17,17S8.1,34.5,17.5,34.5z M22.6,9.4
	c1.8,0,3.2,2,3.2,4.5c0,2.5-1.4,4.5-3.2,4.5c-1.8,0-3.2-2-3.2-4.5C19.4,11.4,20.8,9.4,22.6,9.4z M11.6,9.4c1.8,0,3.2,2,3.2,4.5
	c0,2.5-1.4,4.5-3.2,4.5c-1.8,0-3.2-2-3.2-4.5C8.4,11.4,9.8,9.4,11.6,9.4z M7.8,26.7c2.7-3,5.7-4.5,9.1-4.6c0.1,0,0.2,0,0.2,0
	c5.7,0,10.1,4.4,10.3,4.6c0.5,0.5,0.5,1.2,0,1.7c-0.5,0.5-1.2,0.5-1.7,0c0,0-3.9-3.8-8.5-3.8c-0.1,0-0.1,0-0.2,0
	c-2.6,0.1-5.1,1.3-7.3,3.8c-0.2,0.3-0.6,0.4-0.9,0.4c-0.3,0-0.6-0.1-0.8-0.3C7.4,28,7.3,27.2,7.8,26.7z"/>
</svg>
