<?xml version="1.0" encoding="utf-8"?>
<!-- Generator: Adobe Illustrator 18.1.1, SVG Export Plug-In . SVG Version: 6.00 Build 0)  -->
<svg version="1.1" id="Layer_1" xmlns="http://www.w3.org/2000/svg" xmlns:xlink="http://www.w3.org/1999/xlink" x="0px" y="0px"
	 viewBox="250 100 300 300" enable-background="new 250 100 300 300" xml:space="preserve">
<g>
	<path fill="#1C94C4" d="M400,100c-82.7,0-150,67.3-150,150s67.3,150,150,150s150-67.3,150-150S482.7,100,400,100z M400,372.7
		c-67.7,0-122.7-55.1-122.7-122.7s55-122.7,122.7-122.7s122.7,55,122.7,122.7S467.7,372.7,400,372.7z"/>
	<ellipse fill="#1C94C4" cx="440.4" cy="223.5" rx="23" ry="23.7"/>
	<ellipse fill="#1C94C4" cx="361" cy="223.5" rx="23" ry="23.7"/>
	<path fill="#1C94C4" d="M346.2,297.3H454c5.2,0,9.5,5.2,9.5,9.7c0,4.4-4.3,9.7-9.5,9.7H346.2c-5.2,0-9.5-5.2-9.5-9.7
		C336.6,302.5,340.8,297.3,346.2,297.3z"/>
</g>
</svg>
