<?xml version="1.0" encoding="utf-8"?>
<!-- Generator: Adobe Illustrator 18.1.1, SVG Export Plug-In . SVG Version: 6.00 Build 0)  -->
<svg version="1.1" id="Layer_1" xmlns="http://www.w3.org/2000/svg" xmlns:xlink="http://www.w3.org/1999/xlink" x="0px" y="0px"
	 viewBox="0 0 35 35" enable-background="new 0 0 35 35" xml:space="preserve">
<path fill="#00458D" d="M17.5,34.5c9.4,0,17-7.6,17-17s-7.6-17-17-17s-17,7.6-17,17S8.1,34.5,17.5,34.5z M22.6,9.4
	c1.8,0,3.2,2,3.2,4.5c0,2.5-1.4,4.5-3.2,4.5c-1.8,0-3.2-2-3.2-4.5C19.4,11.4,20.8,9.4,22.6,9.4z M11.6,9.4c1.8,0,3.2,2,3.2,4.5
	c0,2.5-1.4,4.5-3.2,4.5c-1.8,0-3.2-2-3.2-4.5C8.4,11.4,9.8,9.4,11.6,9.4z"/>
<path fill="#FFFFFF" d="M24,28H10c-0.8,0-1.5-0.7-1.5-1.5S9.2,25,10,25h14c0.8,0,1.5,0.7,1.5,1.5S24.8,28,24,28z"/>
</svg>
