<?xml version="1.0" encoding="utf-8"?>
<!-- Generator: Adobe Illustrator 18.1.1, SVG Export Plug-In . SVG Version: 6.00 Build 0)  -->
<svg version="1.1" id="Layer_1" xmlns="http://www.w3.org/2000/svg" xmlns:xlink="http://www.w3.org/1999/xlink" x="0px" y="0px"
	 viewBox="0 0 1522.8 575.6" enable-background="new 0 0 1522.8 575.6" xml:space="preserve">
<g>
	<g opacity="0.2">
		<path d="M434.5,66.5l9.7-61.3h10.4l-9.7,61.3H434.5z"/>
		<path d="M473.3,66.5L483,5.2h10.4l13.4,39.6l6.3-39.6h10.3l-9.7,61.3h-10.5l-13.3-39.2l-6.2,39.2H473.3z"/>
		<path d="M552.7,66.5l8.1-51.3h-13.7l1.6-10.1h36.8l-1.6,10.1h-12.7l-8.1,51.3H552.7z"/>
		<path d="M601,66.5l9.7-61.3h23.7c9.7,0,14.6,6.4,13.5,13.4l-2.1,13c-0.9,4.9-4.6,9.6-10.2,11.9l5.7,22.9h-10.9L625,45h-10.2
			l-3.4,21.5H601z M619.4,15.3l-3.1,19.6h12.4c3.3,0,6.4-2.1,7-5.7l1.2-8.1c0.6-3.8-1.9-5.8-5.4-5.8H619.4z"/>
		<path d="M682.7,67.1c-9.9,0-14.8-6.7-13.7-13.8l5.5-34.7c1.1-7.2,8.1-13.7,18-13.7h9.3c9.6,0,14.4,6.6,13.2,13.7l-5.5,34.7
			c-1.1,7.2-8,13.8-17.6,13.8H682.7z M692.4,57c3.3,0,6.5-2.2,7.1-6.1l4.7-29.9c0.6-3.9-1.8-6.1-5.1-6.1h-7.5c-3.3,0-6.4,2.2-7,6.1
			l-4.7,29.9c-0.6,3.9,1.7,6.1,5.1,6.1H692.4z"/>
		<path d="M734.8,66.5l9.7-61.3h25.1c9.6,0,14.3,6.6,13.1,13.7l-5.3,33.7c-1.1,7.2-7.9,13.8-17.5,13.8H734.8z M753.2,15.3l-6.5,41.1
			h13.6c3.3,0,6.5-2.2,7.1-6.1l4.6-28.9c0.6-3.9-1.8-6.1-5.1-6.1H753.2z"/>
		<path d="M827.4,67.1h-9.2c-9.9,0-14.9-6.7-13.7-13.8l7.6-48h10.5l-7.2,45.7c-0.6,3.9,1.7,6.1,5,6.1h7.4c3.3,0,6.4-2.2,7-6.1
			L842,5.2h10.5l-7.6,48C843.7,60.4,836.9,67.1,827.4,67.1z"/>
		<path d="M913,45.7l-1.2,7.5c-1.1,7.2-8,13.8-17.5,13.8h-8.7c-9.9,0-14.8-6.7-13.7-13.8l5.5-34.7c1.1-7.2,8.1-13.7,18-13.7h8.6
			c9.6,0,14.4,6.6,13.2,13.7l-1.1,7.4h-10.4l0.8-4.9c0.5-3.9-1.8-6.1-5.2-6.1h-6.8c-3.3,0-6.4,2.2-7,6.1l-4.7,29.9
			c-0.6,3.9,1.7,6.1,5.1,6.1h6.7c3.4,0,6.6-2.2,7.1-6.1l0.8-5.2H913z"/>
		<path d="M937.1,66.5l9.7-61.3h10.4l-9.7,61.3H937.1z"/>
		<path d="M975.9,66.5l9.7-61.3H996l13.4,39.6l6.3-39.6h10.3l-9.7,61.3h-10.5l-13.3-39.2l-6.2,39.2H975.9z"/>
		<path d="M1080.2,25.8l0.8-4.9c0.6-3.9-1.8-6.1-5.1-6.1h-7.5c-3.3,0-6.4,2.2-7,6.1l-4.7,29.9c-0.6,3.9,1.7,6.1,5.1,6.1h7.4
			c3.3,0,6.5-2.2,7.1-6.1l1.1-7.4h-10.2l1.6-10.1h20.7l-3.1,19.8c-1.1,7.2-8,13.8-17.6,13.8h-9.3c-9.9,0-14.8-6.7-13.7-13.8
			l5.5-34.7c1.1-7.2,8.1-13.7,18-13.7h9.3c9.6,0,14.4,6.6,13.2,13.7l-1.2,7.4H1080.2z"/>
	</g>
	<g>
		<path fill="#FFFFFF" d="M430.8,61.8l9.7-61.3h10.4l-9.7,61.3H430.8z"/>
		<path fill="#FFFFFF" d="M469.5,61.8l9.7-61.3h10.4l13.4,39.6l6.3-39.6h10.3L510,61.8h-10.5l-13.3-39.2L480,61.8H469.5z"/>
		<path fill="#FFFFFF" d="M548.9,61.8l8.1-51.3h-13.7l1.6-10.1h36.8l-1.6,10.1h-12.7l-8.1,51.3H548.9z"/>
		<path fill="#FFFFFF" d="M597.2,61.8l9.7-61.3h23.7c9.7,0,14.6,6.4,13.5,13.4L642,27c-0.9,4.9-4.6,9.6-10.2,11.9l5.7,22.9h-10.9
			l-5.3-21.5H611l-3.4,21.5H597.2z M615.7,10.6l-3.1,19.6H625c3.3,0,6.4-2.1,7-5.7l1.2-8.1c0.6-3.8-1.9-5.8-5.4-5.8H615.7z"/>
		<path fill="#FFFFFF" d="M679,62.3c-9.9,0-14.8-6.7-13.7-13.8l5.5-34.7C672,6.6,679,0,688.8,0h9.3c9.6,0,14.4,6.6,13.2,13.7
			l-5.5,34.7c-1.1,7.2-8,13.8-17.6,13.8H679z M688.7,52.2c3.3,0,6.5-2.2,7.1-6.1l4.7-29.9c0.6-3.9-1.8-6.1-5.1-6.1h-7.5
			c-3.3,0-6.4,2.2-7,6.1l-4.7,29.9c-0.6,3.9,1.7,6.1,5.1,6.1H688.7z"/>
		<path fill="#FFFFFF" d="M731,61.8l9.7-61.3h25.1c9.6,0,14.3,6.6,13.1,13.7L773.6,48c-1.1,7.2-7.9,13.8-17.5,13.8H731z M749.5,10.6
			L743,51.7h13.6c3.3,0,6.5-2.2,7.1-6.1l4.6-28.9c0.6-3.9-1.8-6.1-5.1-6.1H749.5z"/>
		<path fill="#FFFFFF" d="M823.6,62.3h-9.2c-9.9,0-14.9-6.7-13.7-13.8l7.6-48h10.5l-7.2,45.7c-0.6,3.9,1.7,6.1,5,6.1h7.4
			c3.3,0,6.4-2.2,7-6.1l7.3-45.7h10.5l-7.6,48C840,55.7,833.1,62.3,823.6,62.3z"/>
		<path fill="#FFFFFF" d="M909.3,41l-1.2,7.5c-1.1,7.2-8,13.8-17.5,13.8h-8.7c-9.9,0-14.8-6.7-13.7-13.8l5.5-34.7
			c1.1-7.2,8.1-13.7,18-13.7h8.6c9.6,0,14.4,6.6,13.2,13.7l-1.1,7.4H902l0.8-4.9c0.5-3.9-1.8-6.1-5.2-6.1h-6.8c-3.3,0-6.4,2.2-7,6.1
			l-4.7,29.9c-0.6,3.9,1.7,6.1,5.1,6.1h6.7c3.4,0,6.6-2.2,7.1-6.1l0.8-5.2H909.3z"/>
		<path fill="#FFFFFF" d="M933.3,61.8l9.7-61.3h10.4l-9.7,61.3H933.3z"/>
		<path fill="#FFFFFF" d="M972.1,61.8l9.7-61.3h10.4l13.4,39.6l6.3-39.6h10.3l-9.7,61.3H1002l-13.3-39.2l-6.2,39.2H972.1z"/>
		<path fill="#FFFFFF" d="M1076.4,21.1l0.8-4.9c0.6-3.9-1.8-6.1-5.1-6.1h-7.5c-3.3,0-6.4,2.2-7,6.1l-4.7,29.9
			c-0.6,3.9,1.7,6.1,5.1,6.1h7.4c3.3,0,6.5-2.2,7.1-6.1l1.1-7.4h-10.2l1.6-10.1h20.7l-3.1,19.8c-1.1,7.2-8,13.8-17.6,13.8h-9.3
			c-9.9,0-14.8-6.7-13.7-13.8l5.5-34.7c1.1-7.2,8.1-13.7,18-13.7h9.3c9.6,0,14.4,6.6,13.2,13.7l-1.2,7.4H1076.4z"/>
	</g>
</g>
<g opacity="0.2">
	<path d="M13.4,342.5L47,130.4h45.1l31.5,113.8l67.8-113.8h43l-33.6,212.1h-43l18.2-115l-40.9,69.6H93.9l-19.4-70.5L56.4,342.5H13.4
		z"/>
	<path d="M357.5,130.1l31.8,212.4H346l-5.4-42.1h-63.9l-18.2,42.1h-43l99-212.4H357.5z M294,260.8h41.5l-9.4-72.3L294,260.8z"/>
	<path d="M404.1,342.5l33.6-212.1h43l42.1,120.4l19.1-120.4h42.7l-33.6,212.1h-43L465.8,223l-18.8,119.5H404.1z"/>
	<path d="M707.9,130.1l31.8,212.4h-43.3l-5.4-42.1h-63.9L609,342.5h-43l99-212.4H707.9z M644.4,260.8h41.5l-9.4-72.3L644.4,260.8z"
		/>
	<path d="M874.4,203l2.4-16.3c1.8-12.1-5.4-18.2-15.7-18.2h-23.6c-10.3,0-19.4,6.1-21.5,18.2l-15.7,99.9
		c-1.8,12.1,5.1,18.2,15.4,18.2h23.9c10.3,0,19.7-6.1,21.5-18.2l3.3-20.9h-32.1l6.1-39.9h75.4l-11.2,70.5
		c-3.9,24.8-28.4,48.1-64.2,48.1h-31.5c-37.5,0-55.4-23.3-51.4-48.1L774.5,177c3.9-24.8,29-48.1,66.3-48.1h31.5
		c36,0,53,23.3,49,48.1l-3.9,26H874.4z"/>
	<path d="M916.7,342.5l33.6-212.1h43l-33.6,212.1H916.7z"/>
	<path d="M984.5,342.5l33.6-212.1h43l42.1,120.4l19.1-120.4h42.7l-33.6,212.1h-43L1046.2,223l-18.8,119.5H984.5z"/>
	<path d="M1278.9,203l2.4-16.3c1.8-12.1-5.4-18.2-15.7-18.2H1242c-10.3,0-19.4,6.1-21.5,18.2l-15.7,99.9
		c-1.8,12.1,5.1,18.2,15.4,18.2h23.9c10.3,0,19.7-6.1,21.5-18.2l3.3-20.9h-32.1l6.1-39.9h75.4l-11.2,70.5
		c-3.9,24.8-28.4,48.1-64.2,48.1h-31.5c-37.5,0-55.4-23.3-51.4-48.1l19.1-119.2c3.9-24.8,29-48.1,66.3-48.1h31.5
		c36,0,53,23.3,49,48.1l-3.9,26H1278.9z"/>
	<path d="M655.2,510.8l-1.2,7c-2.1,12.1,5.4,18.2,16.6,18.2h21.5c10.9,0,20.6-5.4,22.7-17.9l0.6-5.1c1.2-8.5-13.6-14.2-30-22.1
		c-26-12.7-59.9-29-54.2-64.5l3-19.4c3.6-24.2,26.9-46.9,61.1-46.9h24.5c36,0,53.3,23,49.3,47.5l-3.9,26h-43l2.4-16
		c2.1-12.1-5.8-17.9-16-17.9h-12.1c-10.3,0-19.4,5.4-21.2,17.2l-0.9,5.4c-1.2,9.1,12.1,15.7,27.8,23c26.6,12.4,62,28.1,57.2,59.9
		l-3.6,22.4c-3.9,25.4-28.7,47.8-65.4,47.8h-29c-37.8,0-56.3-23.3-52.4-48.1l2.7-16.6H655.2z"/>
	<path d="M901.5,361.3l31.8,212.4H890l-5.4-42.1h-63.9l-18.2,42.1h-43l99-212.4H901.5z M838,492h41.5l-9.4-72.3L838,492z"/>
	<path d="M948.1,573.7l33.6-212.1h123.5l-6.1,39.6h-80.8l-7.9,50.5h75.7l-6.7,39.9h-75.4l-13,82H948.1z"/>
	<path d="M1217.7,573.7h-126.2l33.6-212.1h123.2l-6.1,39.6h-80.5l-7.3,45.4h70.2l-6.1,39.6h-70.5l-7.6,47.8h83.2L1217.7,573.7z"/>
	<path d="M1361.2,573.7h-119.5l33.6-212.1h43l-27.5,172.5h76.9L1361.2,573.7z"/>
	<path d="M1385.4,573.7l13-82l-40.9-130.1h44.2l25.4,84.1l53-84.1h42.7l-81.4,130.1l-13,82H1385.4z"/>
</g>
<g>
	<path fill="#FFFFFF" d="M0,322.8l33.6-212.1h45.1l31.5,113.8l67.8-113.8h43l-33.6,212.1h-43l18.2-115l-40.9,69.6H80.5l-19.4-70.5
		L43,322.8H0z"/>
	<path fill="#FFFFFF" d="M344.1,110.4l31.8,212.4h-43.3l-5.4-42.1h-63.9l-18.2,42.1h-43l99-212.4H344.1z M280.5,241.1H322l-9.4-72.3
		L280.5,241.1z"/>
	<path fill="#FFFFFF" d="M390.7,322.8l33.6-212.1h43l42.1,120.4l19.1-120.4H571l-33.6,212.1h-43l-42.1-119.5l-18.8,119.5H390.7z"/>
	<path fill="#FFFFFF" d="M694.5,110.4l31.8,212.4H683l-5.4-42.1h-63.9l-18.2,42.1h-43l99-212.4H694.5z M630.9,241.1h41.5l-9.4-72.3
		L630.9,241.1z"/>
	<path fill="#FFFFFF" d="M860.9,183.3l2.4-16.3c1.8-12.1-5.4-18.2-15.7-18.2H824c-10.3,0-19.4,6.1-21.5,18.2l-15.7,99.9
		c-1.8,12.1,5.1,18.2,15.4,18.2h23.9c10.3,0,19.7-6.1,21.5-18.2l3.3-20.9h-32.1l6.1-39.9h75.4l-11.2,70.5
		c-3.9,24.8-28.4,48.1-64.2,48.1h-31.5c-37.5,0-55.4-23.3-51.4-48.1L761,157.3c3.9-24.8,29-48.1,66.3-48.1h31.5
		c36,0,53,23.3,49,48.1l-3.9,26H860.9z"/>
	<path fill="#FFFFFF" d="M903.3,322.8l33.6-212.1h43l-33.6,212.1H903.3z"/>
	<path fill="#FFFFFF" d="M971.1,322.8l33.6-212.1h43l42.1,120.4l19.1-120.4h42.7l-33.6,212.1h-43l-42.1-119.5L1014,322.8H971.1z"/>
	<path fill="#FFFFFF" d="M1265.5,183.3l2.4-16.3c1.8-12.1-5.4-18.2-15.7-18.2h-23.6c-10.3,0-19.4,6.1-21.5,18.2l-15.7,99.9
		c-1.8,12.1,5.1,18.2,15.4,18.2h23.9c10.3,0,19.7-6.1,21.5-18.2l3.3-20.9h-32.1l6.1-39.9h75.4l-11.2,70.5
		c-3.9,24.8-28.4,48.1-64.2,48.1H1198c-37.5,0-55.4-23.3-51.4-48.1l19.1-119.2c3.9-24.8,29-48.1,66.3-48.1h31.5
		c36,0,53,23.3,49,48.1l-3.9,26H1265.5z"/>
	<path fill="#FFFFFF" d="M641.7,491.1l-1.2,7c-2.1,12.1,5.4,18.2,16.6,18.2h21.5c10.9,0,20.6-5.4,22.7-17.9l0.6-5.1
		c1.2-8.5-13.6-14.2-30-22.1c-26-12.7-59.9-29-54.2-64.5l3-19.4c3.6-24.2,26.9-46.9,61.1-46.9h24.5c36,0,53.3,23,49.3,47.5l-3.9,26
		h-43l2.4-16c2.1-12.1-5.8-17.9-16-17.9h-12.1c-10.3,0-19.4,5.4-21.2,17.2l-0.9,5.4c-1.2,9.1,12.1,15.7,27.8,23
		c26.6,12.4,62,28.1,57.2,59.9l-3.6,22.4c-3.9,25.4-28.7,47.8-65.4,47.8h-29c-37.8,0-56.3-23.3-52.4-48.1l2.7-16.6H641.7z"/>
	<path fill="#FFFFFF" d="M888.1,341.6L919.8,554h-43.3l-5.4-42.1h-63.9L789.1,554h-43l99-212.4H888.1z M824.5,472.3H866l-9.4-72.3
		L824.5,472.3z"/>
	<path fill="#FFFFFF" d="M934.7,554l33.6-212.1h123.5l-6.1,39.6h-80.8l-7.9,50.5h75.7L1066,472h-75.4l-13,82H934.7z"/>
	<path fill="#FFFFFF" d="M1204.3,554h-126.2l33.6-212.1h123.2l-6.1,39.6h-80.5l-7.3,45.4h70.2l-6.1,39.6h-70.5l-7.6,47.8h83.2
		L1204.3,554z"/>
	<path fill="#FFFFFF" d="M1347.7,554h-119.5l33.6-212.1h43l-27.5,172.5h76.9L1347.7,554z"/>
	<path fill="#FFFFFF" d="M1371.9,554l13-82l-40.9-130.1h44.2l25.4,84.1l53-84.1h42.7L1427.9,472l-13,82H1371.9z"/>
</g>
</svg>
