<?xml version="1.0" encoding="utf-8"?>
<!-- Generator: Adobe Illustrator 18.1.1, SVG Export Plug-In . SVG Version: 6.00 Build 0)  -->
<svg version="1.1" id="Layer_1" xmlns="http://www.w3.org/2000/svg" xmlns:xlink="http://www.w3.org/1999/xlink" x="0px" y="0px"
	 viewBox="0 0 15 15" enable-background="new 0 0 15 15" xml:space="preserve">
<path fill="#FFFFFF" d="M14,10.8c-0.1-0.1-0.2-0.1-0.3-0.2c-1.6-1-3.2-1.8-4.7-2.9C8.9,7.6,8.7,7.4,8.5,7.3c1.4-1.8,2.9-3.5,4.6-5
	c0.3-0.2,0.5-0.4,0.8-0.7c-0.2-0.2-1-0.9-1.2-1.1c-1.7,1.1-4.1,3.1-6.2,5.3C4.9,4.6,3.4,3.2,2,1.6C1.8,1.3,1.6,1.1,1.4,0.8
	C1.1,1,0.4,1.8,0.2,2c1,1.6,2.8,3.6,4.7,5.6c-2.7,2.9-4.7,5.6-4.4,6.3c0.6,0.3,2.7,1,3.5,0.5c0.1-0.1,0.1-0.2,0.2-0.3
	C5.1,12.6,6,11,6.9,9.5c3,2.8,5.9,5,6.6,4.7C13.9,13.7,14.6,11.5,14,10.8z"/>
</svg>
