<?xml version="1.0" encoding="utf-8"?>
<!-- Generator: Adobe Illustrator 18.1.1, SVG Export Plug-In . SVG Version: 6.00 Build 0)  -->
<svg version="1.1" id="Layer_1" xmlns="http://www.w3.org/2000/svg" xmlns:xlink="http://www.w3.org/1999/xlink" x="0px" y="0px"
	 viewBox="0 0 160 70" enable-background="new 0 0 160 70" xml:space="preserve">
<g>
	<g>
		<g>
			<path fill="#00458D" d="M63.1,38.7c16.3-14.3,32.2-23.2,45.2-26.5c0.8-1.1,1.6-2.2,2.3-3.1C86.5,14.8,63.1,38.7,63.1,38.7z"/>
			<g>
				<path fill="#00458D" d="M113.3,8.6c-0.9,1-1.8,2.1-2.7,3.2c4.5-0.9,8.5-1.1,12.1-0.6c0.1-1.1,0.1-2.1,0.1-3.1
					C119.7,7.8,116.5,8,113.3,8.6z"/>
				<path fill="#00458D" d="M127.5,8.7c-0.1,0-0.3-0.1-0.4-0.1c0.1,1.1,0.1,2.3,0.1,3.6c13,5.1,5,26.5,5,26.5
					C134.3,35.8,142.6,12.2,127.5,8.7z"/>
			</g>
		</g>
		<path fill="#00458D" d="M110.6,9.1c-0.7,1-1.5,2-2.3,3.1c0.8-0.2,1.5-0.4,2.3-0.5c0.9-1.1,1.8-2.2,2.7-3.2
			C112.4,8.7,111.5,8.9,110.6,9.1z"/>
	</g>
	<path fill="#3A89B4" d="M91.7,38.7c0,0,9.6-15.7,18.8-26.9c-0.7,0.1-1.5,0.3-2.3,0.5C104.1,18.3,98.6,26.9,91.7,38.7z"/>
	<path fill="#3C557C" d="M121.8,1.2L121.8,1.2C121.7,1.2,121.8,1.2,121.8,1.2L121.8,1.2z"/>
	<path fill="#3C557C" d="M119.9,0.4l0.8,0.1C120.5,0.3,120.2,0.3,119.9,0.4z"/>
	<path fill="#3A89B4" d="M121,1.6l-1.1-1.2c-1.8,0.2-4.8,2.8-9.3,8.8c0.9-0.2,1.8-0.4,2.7-0.5C116.1,5.4,118.8,2.9,121,1.6z"/>
	<path fill="#3A89B4" d="M121.7,1.2L121.7,1.2c0.8,1.3,1.1,3.8,1.1,6.8c1.4,0.1,2.8,0.3,4.2,0.6c-0.3-4.6-1.2-7.5-2.6-7.9L121.7,1.2
		C121.8,1.2,121.7,1.2,121.7,1.2z"/>
	<path fill="#3A89B4" d="M122.7,11.2c-0.7,9.6-4.4,22.7-9.2,27.6c4.5-0.3,7.3,1.5,8.7,2.4c3.3-10.7,4.9-21.3,4.9-28.9
		c-0.4-0.1-0.7-0.3-1.1-0.4C124.9,11.5,123.8,11.3,122.7,11.2z"/>
	<path fill="#3A89B4" d="M127,8.6c-1.4-0.3-2.8-0.5-4.2-0.6c0,1-0.1,2-0.1,3.1c1.1,0.2,2.2,0.4,3.3,0.7c0.4,0.1,0.8,0.3,1.1,0.4
		C127.1,11,127.1,9.7,127,8.6z"/>
	<polygon fill="#3C557C" points="119.9,0.4 119.9,0.4 119.9,0.4 	"/>
	<path fill="#3A89B4" d="M121.7,1.2C121.7,1.2,121.7,1.2,121.7,1.2L121.7,1.2l0.1-0.1c0.8-0.3,1.4-0.5,2.1-0.5l-3.5-0.3
		C120.8,0.5,121.4,0.8,121.7,1.2z"/>
	<path fill="#3C557C" d="M121.7,1.2C121.7,1.2,121.7,1.2,121.7,1.2L121.7,1.2L121.7,1.2z"/>
	<path fill="#3A89B4" d="M121.7,1.2c-0.2-0.4-0.6-0.7-0.9-0.8l-0.8-0.1c0,0,0,0,0,0l1.1,1.2C121.2,1.5,121.5,1.4,121.7,1.2z"/>
	<path fill="#3A89B4" d="M124.4,0.8c-0.1,0-0.2,0-0.2,0l-0.3,0c-0.6,0-1.4,0.1-2.1,0.5L124.4,0.8z"/>
	<path fill="#231F20" d="M42.4,26.3v35.5c0,2,0.3,3.3,0.8,3.9c0.5,0.6,1.7,0.9,3.4,0.9h0.3v1.5H33.4v-1.5h0.4c1.7,0,2.8-0.3,3.3-0.9
		c0.5-0.6,0.8-1.9,0.8-3.9v-25c0-2.3-0.2-3.7-0.5-4.4c-0.3-0.6-1.2-1.2-2.6-1.9L33.4,30v-0.4L42.4,26.3z"/>
	<path fill="#231F20" d="M64.7,63.4c-1.4,1.8-2.9,3.2-4.5,4.1c-1.6,0.9-3.2,1.4-5,1.4c-1.8,0-3.2-0.6-4.4-1.8
		c-1.2-1.2-1.7-2.7-1.7-4.5c0-2,0.9-3.7,2.8-5.1c1.8-1.4,4.9-2.7,9.2-3.9l3.3-1V49c0-1.6-0.1-2.8-0.3-3.4c-0.2-0.6-0.6-1.2-1.2-1.6
		c-1-0.7-2.2-1.1-3.6-1.1c-1.5,0-2.5,0.3-3.3,0.9c-0.7,0.6-1.1,1.6-1.1,2.8v1.2l-5.2,1.7v-0.7c0-1.9,1.1-3.7,3.3-5.5
		c2.2-1.7,4.9-2.5,8.1-2.5c2.7,0,4.6,0.5,5.8,1.6c1.2,1.1,1.8,2.9,1.8,5.4v11.3c0,2.9,0.3,4.8,0.8,5.8c0.5,1,1.5,1.4,3,1.4
		c0.5,0,1,0,1.6-0.1v1.4c-1.6,0.9-3.1,1.3-4.7,1.3c-1.3,0-2.4-0.5-3.2-1.4C65.5,66.6,65,65.2,64.7,63.4z M64.4,54.3L63,54.7
		c-3.7,1.2-6.1,2.2-7.3,3.1c-1.2,0.9-1.7,2.3-1.7,4c0,1.1,0.4,2.1,1.2,3c0.8,0.8,1.7,1.3,2.8,1.3c1.8,0,3.4-0.8,4.9-2.5
		c1-1.1,1.5-2.6,1.5-4.5V54.3z"/>
	<path fill="#231F20" d="M86.2,68.8L76,47.7c-1-2-1.8-3.3-2.3-3.9c-0.5-0.6-1.2-0.9-2-0.9h-0.4v-1.5h11v1.5H82
		c-1.6,0-2.3,0.4-2.3,1.2c0,0.5,0.4,1.7,1.3,3.6l7.2,15.1l6.3-15.1c0.7-1.6,1-2.7,1-3.3c0-1-0.9-1.5-2.6-1.5h-0.4v-1.5h8.9v1.5H101
		c-0.7,0-1.4,0.3-2,1c-0.6,0.7-1.2,1.9-2,3.7l-9.2,21.2H86.2z"/>
	<path fill="#231F20" d="M113.5,68.8c-3.9,0-7.2-1.3-9.7-4c-2.5-2.6-3.8-6-3.8-10.1c0-4.1,1.3-7.4,3.8-10.1c2.5-2.6,5.8-4,9.7-4
		c3.9,0,7.2,1.3,9.7,4c2.5,2.6,3.8,6,3.8,10.1c0,4.1-1.3,7.5-3.8,10.1C120.7,67.5,117.5,68.8,113.5,68.8z M113.5,67.2
		c2.4,0,4.4-1.1,5.9-3.4c1.5-2.3,2.2-5.3,2.2-9c0-3.7-0.7-6.7-2.2-9c-1.5-2.3-3.5-3.4-5.9-3.4c-2.4,0-4.4,1.1-5.9,3.4
		c-1.5,2.3-2.2,5.3-2.2,9c0,3.7,0.7,6.7,2.2,9C109.1,66,111.1,67.2,113.5,67.2z"/>
	<path fill="#231F20" d="M136.8,47.7v14.1c0,2,0.3,3.3,0.8,3.9c0.5,0.6,1.7,0.9,3.4,0.9h0.3v1.5h-13.4v-1.5h0.4
		c1.6,0,2.7-0.3,3.3-0.9c0.5-0.6,0.8-1.9,0.8-3.9V51.1c0-2.2-0.2-3.6-0.5-4.2c-0.3-0.6-1.2-1.2-2.6-1.8l-1.4-0.6V44l8.9-3.3v5.5
		c1.9-1.9,3.7-3.2,5.4-4.2c1.7-0.9,3.3-1.4,4.8-1.4c2.2,0,3.9,0.7,5.4,2.2c1.4,1.5,2.2,4.3,2.2,8.3v10.6c0,2,0.3,3.3,0.8,3.9
		c0.5,0.6,1.6,0.9,3.3,0.9h0.3v1.5h-13.4v-1.5h0.4c1.7,0,2.8-0.3,3.3-0.9c0.5-0.6,0.8-1.9,0.8-3.9V51.1c0-2.4-0.4-4.1-1.2-5.1
		c-0.8-1.1-2-1.6-3.8-1.6c-1.3,0-2.6,0.3-4,0.8C139.8,45.7,138.4,46.6,136.8,47.7z"/>
	<path fill="#231F20" d="M11.5,33v14.7h7.9c2.1,0,3.5-0.3,4.2-0.9c0.9-0.8,1.5-2.3,1.6-4.3h1v12.7h-1c-0.3-1.8-0.5-2.9-0.8-3.5
		c-0.3-0.6-0.9-1.1-1.6-1.5c-0.7-0.4-1.9-0.5-3.4-0.5h-7.9V62c0,1.7,0.1,2.7,0.2,3c0.1,0.4,0.4,0.6,0.8,0.9c0.4,0.2,1.1,0.3,2.1,0.3
		h6.2c2.1,0,3.6-0.1,4.5-0.4c0.9-0.3,1.8-0.9,2.7-1.8c1.1-1.2,2.3-2.9,3.4-5.2h1.2l-3.2,9.4H1v-1.5h1.3c0.9,0,1.7-0.2,2.5-0.6
		c0.6-0.3,1-0.7,1.2-1.3c0.2-0.6,0.3-1.8,0.3-3.6v-23c0-2.4-0.2-3.9-0.7-4.5c-0.7-0.8-1.7-1.1-3.3-1.1H1V31h28.6l0.3,8.1h-1.2
		c-0.4-2-0.8-3.3-1.3-4c-0.5-0.7-1.1-1.3-2-1.7c-0.7-0.3-2-0.4-3.8-0.4H11.5z"/>
</g>
</svg>
