<?xml version="1.0" encoding="utf-8"?>
<!-- Generator: Adobe Illustrator 18.1.1, SVG Export Plug-In . SVG Version: 6.00 Build 0)  -->
<svg version="1.1" id="Layer_1" xmlns="http://www.w3.org/2000/svg" xmlns:xlink="http://www.w3.org/1999/xlink" x="0px" y="0px"
	 viewBox="0 0 135 60" enable-background="new 0 0 135 60" xml:space="preserve">
<g>
	<g>
		<g>
			<path fill="#FFFFFF" d="M53,34.1c13.9-12.2,27.5-19.8,38.6-22.6c0.7-1,1.3-1.9,2-2.7C73,13.7,53,34.1,53,34.1z"/>
			<g>
				<path fill="#FFFFFF" d="M95.9,8.4c-0.8,0.9-1.5,1.8-2.3,2.7c3.8-0.8,7.3-0.9,10.3-0.5c0.1-0.9,0.1-1.8,0.1-2.7
					C101.4,7.7,98.6,7.9,95.9,8.4z"/>
				<path fill="#FFFFFF" d="M108,8.5c-0.1,0-0.3-0.1-0.4-0.1c0.1,1,0.1,2,0.1,3.1c11.1,4.4,4.3,22.6,4.3,22.6
					C113.9,31.6,120.9,11.4,108,8.5z"/>
			</g>
		</g>
		<path fill="#FFFFFF" d="M93.6,8.8c-0.6,0.8-1.3,1.7-2,2.7c0.7-0.2,1.3-0.3,1.9-0.4c0.8-0.9,1.6-1.9,2.3-2.7
			C95.1,8.5,94.4,8.7,93.6,8.8z"/>
	</g>
	<path fill="#FFFFFF" d="M77.5,34.1c0,0,8.2-13.4,16.1-23c-0.6,0.1-1.3,0.3-1.9,0.4C88,16.7,83.4,24,77.5,34.1z"/>
	<path fill="#FFFFFF" d="M103.1,2.1L103.1,2.1C103.1,2.1,103.1,2.1,103.1,2.1L103.1,2.1z"/>
	<path fill="#FFFFFF" d="M101.6,1.4l0.7,0.1C102.1,1.4,101.8,1.3,101.6,1.4z"/>
	<path fill="#FFFFFF" d="M102.5,2.4l-0.9-1.1c-1.6,0.2-4.1,2.4-8,7.5c0.8-0.2,1.5-0.3,2.3-0.5C98.3,5.7,100.6,3.5,102.5,2.4z"/>
	<path fill="#FFFFFF" d="M103.1,2.1L103.1,2.1c0.7,1.1,1,3.2,1,5.8c1.2,0.1,2.4,0.3,3.6,0.5c-0.2-3.9-1-6.4-2.3-6.7L103.1,2.1
		C103.1,2.1,103.1,2.1,103.1,2.1z"/>
	<path fill="#FFFFFF" d="M103.9,10.6c-0.6,8.2-3.7,19.4-7.9,23.6c3.9-0.2,6.2,1.3,7.4,2.1c2.9-9.2,4.1-18.2,4.2-24.7
		c-0.3-0.1-0.6-0.2-1-0.3C105.8,10.9,104.9,10.7,103.9,10.6z"/>
	<path fill="#FFFFFF" d="M107.6,8.4c-1.2-0.3-2.4-0.4-3.6-0.5c0,0.8,0,1.7-0.1,2.7c1,0.1,1.9,0.3,2.8,0.6c0.3,0.1,0.7,0.2,1,0.3
		C107.7,10.4,107.7,9.4,107.6,8.4z"/>
	<polygon fill="#FFFFFF" points="101.6,1.4 101.6,1.4 101.6,1.4 	"/>
	<path fill="#FFFFFF" d="M103.1,2.1C103.1,2.1,103.1,2.1,103.1,2.1L103.1,2.1L103.1,2.1c0.7-0.3,1.3-0.5,1.9-0.5l-3-0.3
		C102.3,1.5,102.9,1.8,103.1,2.1z"/>
	<path fill="#FFFFFF" d="M103.1,2.1C103.1,2.1,103.1,2.1,103.1,2.1L103.1,2.1L103.1,2.1z"/>
	<path fill="#FFFFFF" d="M103.1,2.1c-0.2-0.3-0.5-0.6-0.8-0.7l-0.7-0.1l0,0l0.9,1.1C102.7,2.3,102.9,2.2,103.1,2.1z"/>
	<path fill="#FFFFFF" d="M105.4,1.7c-0.1,0-0.1,0-0.2,0l-0.3,0c-0.5,0-1.2,0.1-1.8,0.5L105.4,1.7z"/>
	<path fill="#FFFFFF" d="M35.3,23.5v30.3c0,1.7,0.2,2.8,0.7,3.4c0.5,0.5,1.4,0.8,2.9,0.8h0.3v1.3H27.7V58h0.4c1.4,0,2.4-0.3,2.8-0.8
		c0.4-0.5,0.7-1.6,0.7-3.4V32.5c0-1.9-0.1-3.2-0.4-3.7c-0.3-0.5-1-1.1-2.2-1.6l-1.2-0.5v-0.3L35.3,23.5z"/>
	<path fill="#FFFFFF" d="M54.4,55.2c-1.2,1.5-2.5,2.7-3.8,3.5c-1.3,0.8-2.8,1.2-4.3,1.2c-1.5,0-2.7-0.5-3.7-1.5
		c-1-1-1.5-2.3-1.5-3.8c0-1.7,0.8-3.1,2.4-4.3c1.6-1.2,4.2-2.3,7.8-3.3l2.8-0.8v-3.2c0-1.4-0.1-2.4-0.2-2.9c-0.2-0.5-0.5-1-1.1-1.4
		c-0.8-0.6-1.8-0.9-3-0.9c-1.2,0-2.2,0.3-2.8,0.8c-0.6,0.5-0.9,1.3-0.9,2.4v1l-4.4,1.4v-0.6c0-1.6,0.9-3.2,2.8-4.7
		c1.9-1.4,4.2-2.1,7-2.1c2.3,0,4,0.5,5,1.4c1,1,1.5,2.5,1.5,4.6v9.7c0,2.5,0.2,4.1,0.7,4.9c0.4,0.8,1.3,1.2,2.6,1.2
		c0.4,0,0.9,0,1.3-0.1v1.2c-1.3,0.7-2.7,1.1-4,1.1c-1.1,0-2.1-0.4-2.7-1.2C55.1,57.9,54.7,56.8,54.4,55.2z M54.1,47.4L53,47.8
		c-3.1,1-5.2,1.9-6.2,2.7c-1,0.8-1.5,1.9-1.5,3.4c0,1,0.3,1.8,1,2.5c0.7,0.7,1.5,1.1,2.4,1.1c1.5,0,2.9-0.7,4.2-2.1
		c0.8-0.9,1.2-2.2,1.2-3.9V47.4z"/>
	<path fill="#FFFFFF" d="M72.8,59.8l-8.7-18.1c-0.9-1.7-1.5-2.8-2-3.3c-0.4-0.5-1-0.7-1.7-0.7h-0.3v-1.3h9.4v1.3h-0.4
		c-1.3,0-2,0.3-2,1c0,0.4,0.4,1.5,1.1,3l6.1,12.9l5.4-12.9c0.6-1.4,0.9-2.3,0.9-2.8c0-0.8-0.7-1.3-2.2-1.3h-0.3v-1.3h7.6v1.3h-0.3
		c-0.6,0-1.2,0.3-1.7,0.9c-0.5,0.6-1.1,1.6-1.7,3.2l-7.9,18.1H72.8z"/>
	<path fill="#FFFFFF" d="M96.1,59.8c-3.4,0-6.1-1.1-8.3-3.4c-2.2-2.3-3.2-5.1-3.2-8.6c0-3.5,1.1-6.4,3.2-8.6
		c2.2-2.3,4.9-3.4,8.3-3.4c3.4,0,6.1,1.1,8.3,3.4c2.2,2.3,3.2,5.1,3.2,8.6c0,3.5-1.1,6.4-3.2,8.6C102.2,58.7,99.5,59.8,96.1,59.8z
		 M96.1,58.4c2.1,0,3.8-1,5-2.9c1.3-1.9,1.9-4.5,1.9-7.7c0-3.2-0.6-5.7-1.9-7.7c-1.3-1.9-3-2.9-5-2.9c-2.1,0-3.8,1-5,2.9
		c-1.3,1.9-1.9,4.5-1.9,7.7c0,3.2,0.6,5.7,1.9,7.7C92.4,57.4,94,58.4,96.1,58.4z"/>
	<path fill="#FFFFFF" d="M116,41.8v12.1c0,1.7,0.2,2.8,0.7,3.4c0.5,0.5,1.4,0.8,2.9,0.8h0.3v1.3h-11.5V58h0.4c1.4,0,2.3-0.3,2.8-0.8
		c0.4-0.5,0.7-1.6,0.7-3.4v-9.2c0-1.9-0.1-3.1-0.4-3.6c-0.3-0.5-1-1.1-2.2-1.6l-1.2-0.5v-0.3l7.6-2.8v4.7c1.6-1.6,3.2-2.8,4.6-3.6
		c1.5-0.8,2.8-1.2,4.1-1.2c1.8,0,3.4,0.6,4.6,1.9c1.2,1.3,1.9,3.6,1.9,7.1v9.1c0,1.7,0.2,2.8,0.7,3.4c0.5,0.5,1.4,0.8,2.9,0.8h0.3
		v1.3h-11.5V58h0.3c1.4,0,2.4-0.3,2.8-0.8c0.4-0.5,0.7-1.6,0.7-3.3v-9.2c0-2-0.3-3.5-1-4.4c-0.7-0.9-1.7-1.3-3.2-1.3
		c-1.1,0-2.2,0.2-3.4,0.7C118.6,40.1,117.3,40.8,116,41.8z"/>
	<path fill="#FFFFFF" d="M9,29.2v12.6h6.8c1.8,0,3-0.3,3.6-0.8c0.8-0.7,1.3-1.9,1.4-3.7h0.8v10.9h-0.8c-0.2-1.5-0.4-2.5-0.7-2.9
		c-0.3-0.5-0.7-1-1.4-1.3c-0.6-0.3-1.6-0.5-2.9-0.5H9V54c0,1.4,0.1,2.3,0.2,2.6c0.1,0.3,0.3,0.5,0.6,0.7c0.3,0.2,0.9,0.3,1.8,0.3
		h5.3c1.8,0,3.1-0.1,3.9-0.4c0.8-0.3,1.6-0.8,2.3-1.5c1-1,1.9-2.5,2.9-4.5h1l-2.7,8.1H0V58h1.1c0.7,0,1.4-0.2,2.1-0.5
		c0.5-0.3,0.8-0.6,1-1.1c0.2-0.5,0.3-1.5,0.3-3.1V33.6c0-2.1-0.2-3.3-0.6-3.8c-0.6-0.6-1.5-1-2.8-1H0v-1.2h24.4l0.3,6.9h-1
		c-0.3-1.7-0.7-2.8-1.1-3.5c-0.4-0.6-1-1.1-1.7-1.4c-0.6-0.2-1.7-0.4-3.2-0.4H9z"/>
</g>
</svg>
