<?xml version="1.0" encoding="utf-8"?>
<!-- Generator: Adobe Illustrator 18.1.0, SVG Export Plug-In . SVG Version: 6.00 Build 0)  -->
<svg version="1.1" id="Layer_1" xmlns="http://www.w3.org/2000/svg" xmlns:xlink="http://www.w3.org/1999/xlink" x="0px" y="0px"
	 viewBox="0 0 3248.7 482.7" enable-background="new 0 0 3248.7 482.7" xml:space="preserve">
<g>
	<path fill="#FFFFFF" d="M0,478.5L75.2,3.4h276.5l-13.5,88.8h-181l-17.6,113.2h169.5l-14.9,89.5H125.4L96.2,478.6L0,478.5L0,478.5z"
		/>
	<path fill="#FFFFFF" d="M565.7,2.7l71.2,475.8h-96.9l-12.2-94.2H384.6L344,478.5h-96.3L469.4,2.7H565.7z M423.2,295.6h92.8l-21-162
		L423.2,295.6z"/>
	<path fill="#FFFFFF" d="M764.2,337.6l-2.7,15.6c-4.8,27.1,12.2,40.6,37.3,40.6h48.1c24.4,0,46.1-12.2,50.8-40l1.4-11.6
		c2.7-19-30.5-31.9-67.1-49.5c-58.3-28.4-134.2-65.1-121.4-144.4l6.8-43.3C725.5,50.8,777.7,0,854.3,0h54.9
		c80.6,0,119.3,51.5,110.5,106.4l-8.9,58.3h-96.2l5.4-35.9c4.8-27.1-12.9-40-35.9-40H857c-23,0-43.3,12.2-47.4,38.7l-2.1,12.2
		c-2.7,20.3,27.1,35.2,62.4,51.5c59.7,27.8,139,63,128.2,134.2l-8.1,50.1c-8.9,57-64.4,107.1-146.4,107.1h-65.1
		c-84.7,0-126.1-52.2-117.3-107.7l6.1-37.3L764.2,337.6L764.2,337.6z"/>
	<path fill="#FFFFFF" d="M1097.9,478.5L1159,92.2h-105.8l14.3-88.8h298.3l-13.5,88.8h-96.9l-61.1,386.3H1097.9z"/>
</g>
<g>
	<path fill="#FFFFFF" d="M1505.7,478.5l61.1-386.3h-105.8l14.3-88.8h298.3l-13.5,88.8H1663l-61.1,386.3H1505.7z"/>
	<path fill="#FFFFFF" d="M1737.4,478.5l75.2-475.2h193.9c80.6,0,120,51.5,111.2,107.1l-16.2,100.9c-6.1,36.6-33.2,73.2-76,92.2
		l43.3,174.9h-100.3l-40-161.3h-69.8l-25.1,161.4H1737.4z M1894.7,92.8L1873,228.5h88.1c23,0,43.3-12.9,47.4-39.3l9.5-57
		c3.4-27.1-12.9-39.3-36.6-39.3H1894.7z"/>
	<path fill="#FFFFFF" d="M2411.5,2.6l71.2,475.8h-96.9l-12.2-94.2h-143.1l-40.6,94.3h-96.3L2315.2,2.7L2411.5,2.6L2411.5,2.6z
		 M2269.1,295.5h92.8l-21-162L2269.1,295.5z"/>
	<path fill="#FFFFFF" d="M2844.4,314.5l-9.5,60.3c-8.9,55.6-63,107.7-143.7,107.7h-67.8c-84.1,0-124.1-52.2-115.2-107.7l42.7-267
		C2559.7,52.2,2615.9,0,2699.3,0h67.8c80.6,0,119.3,52.2,110.5,107.7L2868,166h-96.3l5.4-36.6c4.8-27.1-12.2-40.6-34.6-40.6h-50.8
		c-23,0-43.3,13.5-48.1,40.6l-35.2,223.7c-4.1,27.1,11.6,40.6,34.6,40.6h50.8c23,0,44.1-13.5,48.1-40.6l6.1-38.7L2844.4,314.5
		L2844.4,314.5z"/>
	<path fill="#FFFFFF" d="M2858.2,478.5L2933.5,4h96.3l-31.2,193.9h32.5L3142.9,4h105.8l-139,231.2l87.4,243.4h-107.7L3027,286.7h-42
		l-30.5,191.8H2858.2z"/>
</g>
</svg>
