<?xml version="1.0" encoding="utf-8"?>
<!-- Generator: Adobe Illustrator 18.1.1, SVG Export Plug-In . SVG Version: 6.00 Build 0)  -->
<svg version="1.1" id="Layer_1" xmlns="http://www.w3.org/2000/svg" xmlns:xlink="http://www.w3.org/1999/xlink" x="0px" y="0px"
	 viewBox="3.2 289.4 1473.4 340.8" enable-background="new 3.2 289.4 1473.4 340.8" xml:space="preserve">
<g>
	<g opacity="0.2">
		<path d="M691.9,628.1l27.5-173.9h-47.6l6.4-40h134.3l-6.1,40h-43.7l-27.5,173.9H691.9z"/>
		<path d="M796.2,628.1L830,414.2h87.3c36.3,0,54,23.2,50.1,48.2l-7.3,45.4c-2.7,16.5-14.9,33-34.2,41.5l19.5,78.7h-45.2l-18-72.6
			h-31.4l-11.3,72.7C839.5,628.1,796.2,628.1,796.2,628.1z M867,454.4l-9.8,61.1h39.7c10.4,0,19.5-5.8,21.3-17.7l4.3-25.7
			c1.5-12.2-5.8-17.7-16.5-17.7L867,454.4L867,454.4z"/>
		<path d="M1099.6,413.8l32.1,214.2h-43.6l-5.5-42.4h-64.4l-18.3,42.5h-43.4l99.8-214.2L1099.6,413.8L1099.6,413.8z M1035.5,545.7
			h41.8l-9.5-72.9L1035.5,545.7z"/>
		<path d="M1294.5,554.3l-4.3,27.1c-4,25-28.4,48.5-64.7,48.5H1195c-37.9,0-55.9-23.5-51.9-48.5l19.2-120.2
			c4-25,29.3-48.5,66.8-48.5h30.5c36.3,0,53.7,23.5,49.7,48.5l-4.3,26.2h-43.4l2.4-16.5c2.2-12.2-5.5-18.3-15.6-18.3h-22.9
			c-10.4,0-19.5,6.1-21.7,18.3l-15.8,100.7c-1.8,12.2,5.2,18.3,15.6,18.3h22.9c10.4,0,19.9-6.1,21.7-18.3l2.7-17.4L1294.5,554.3
			L1294.5,554.3z"/>
		<path d="M1300.7,628.1l33.9-213.6h43.4l-14,87.3h14.6l50.3-87.3h47.6L1414,518.6l39.3,109.6h-48.5l-28.1-86.4h-18.9l-13.7,86.3
			H1300.7z"/>
	</g>
	<g opacity="0.2">
		<path d="M14,628.4l33.9-213.9h124.5l-6.1,40H84.8l-7.9,51h76.3l-6.7,40.3h-76l-13.1,82.7H14L14,628.4z"/>
		<path d="M268.6,414.2l32.1,214.2H257l-5.5-42.4h-64.4l-18.3,42.4h-43.3l99.8-214.2H268.6z M204.5,546h41.8l-9.4-72.9L204.5,546z"
			/>
		<path d="M357.9,565l-1.2,7c-2.1,12.2,5.5,18.3,16.8,18.3h21.7c11,0,20.8-5.5,22.9-18l0.6-5.2c1.2-8.6-13.7-14.4-30.2-22.3
			c-26.2-12.8-60.4-29.3-54.6-65l3.1-19.5c3.7-24.4,27.2-47.3,61.6-47.3h24.7c36.3,0,53.7,23.2,49.7,47.9l-4,26.2h-43.3l2.4-16.2
			c2.1-12.2-5.8-18-16.2-18h-12.2c-10.4,0-19.5,5.5-21.4,17.4l-0.9,5.5c-1.2,9.2,12.2,15.9,28.1,23.2c26.9,12.5,62.5,28.4,57.7,60.4
			l-3.7,22.6c-4,25.6-29,48.2-65.9,48.2h-29.3c-38.2,0-56.8-23.5-52.8-48.5l2.7-16.8L357.9,565L357.9,565z"/>
		<path d="M508.1,628.4l27.5-173.9H488l6.4-40h134.2l-6.1,40H579l-27.5,173.9H508.1z"/>
	</g>
	<g>
		<path fill="#FFFFFF" d="M681.1,613.2l27.5-173.9h-47.6l6.4-40h134.3l-6.1,40h-43.7l-27.5,173.9H681.1z"/>
		<path fill="#FFFFFF" d="M785.4,613.2l33.9-213.9h87.3c36.3,0,54,23.2,50.1,48.2l-7.3,45.4c-2.7,16.5-14.9,33-34.2,41.5l19.5,78.7
			h-45.2l-18-72.6H840l-11.3,72.7C828.7,613.2,785.4,613.2,785.4,613.2z M856.2,439.6l-9.8,61.1h39.7c10.4,0,19.5-5.8,21.3-17.7
			l4.3-25.7c1.5-12.2-5.8-17.7-16.5-17.7L856.2,439.6L856.2,439.6z"/>
		<path fill="#FFFFFF" d="M1088.9,399l32.1,214.2h-43.6l-5.5-42.4h-64.4l-18.3,42.5h-43.4l99.8-214.2L1088.9,399L1088.9,399z
			 M1024.7,530.8h41.8l-9.5-72.9L1024.7,530.8z"/>
		<path fill="#FFFFFF" d="M1283.7,539.4l-4.3,27.1c-4,25-28.4,48.5-64.7,48.5h-30.5c-37.9,0-55.9-23.5-51.9-48.5l19.2-120.2
			c4-25,29.3-48.5,66.8-48.5h30.5c36.3,0,53.7,23.5,49.7,48.5l-4.3,26.2H1251l2.4-16.5c2.2-12.2-5.5-18.3-15.6-18.3H1215
			c-10.4,0-19.5,6.1-21.7,18.3l-15.8,100.7c-1.8,12.2,5.2,18.3,15.6,18.3h22.9c10.4,0,19.9-6.1,21.7-18.3l2.7-17.4L1283.7,539.4
			L1283.7,539.4z"/>
		<path fill="#FFFFFF" d="M1290,613.2l33.9-213.6h43.4l-14,87.3h14.6l50.3-87.3h47.6l-62.6,104.1l39.3,109.6H1394l-28.1-86.4H1347
			l-13.7,86.3H1290z"/>
	</g>
	<g>
		<path fill="#FFFFFF" d="M3.2,613.5l33.9-213.9h124.5l-6.1,40H74l-7.9,51h76.3l-6.7,40.3h-76l-13.1,82.7H3.2L3.2,613.5z"/>
		<path fill="#FFFFFF" d="M257.8,399.4l32.1,214.2h-43.7l-5.5-42.4h-64.4L158,613.5h-43.3l99.8-214.2H257.8z M193.7,531.2h41.8
			l-9.4-72.9L193.7,531.2z"/>
		<path fill="#FFFFFF" d="M347.1,550.1l-1.2,7c-2.1,12.2,5.5,18.3,16.8,18.3h21.7c11,0,20.8-5.5,22.9-18l0.6-5.2
			c1.2-8.6-13.7-14.4-30.2-22.3c-26.2-12.8-60.4-29.3-54.6-65l3.1-19.5c3.7-24.4,27.2-47.3,61.6-47.3h24.7
			c36.3,0,53.7,23.2,49.7,47.9l-4,26.2h-43.3l2.4-16.2c2.1-12.2-5.8-18-16.2-18H389c-10.4,0-19.5,5.5-21.4,17.4l-0.9,5.5
			c-1.2,9.2,12.2,15.9,28.1,23.2c26.9,12.5,62.5,28.4,57.7,60.4l-3.7,22.6c-4,25.6-29,48.2-65.9,48.2h-29.3
			c-38.2,0-56.8-23.5-52.8-48.5l2.7-16.8L347.1,550.1L347.1,550.1z"/>
		<path fill="#FFFFFF" d="M497.3,613.5l27.5-173.9h-47.6l6.4-40h134.2l-6.1,40h-43.6l-27.5,173.9H497.3z"/>
	</g>
</g>
<g>
	<g opacity="0.2">
		<path d="M413,356l9.7-61.3h10.4l-9.7,61.3H413z"/>
		<path d="M451.8,356l9.7-61.3h10.4l13.4,39.6l6.3-39.6h10.3l-9.7,61.3h-10.5l-13.3-39.2l-6.2,39.2H451.8z"/>
		<path d="M531.2,356l8.1-51.3h-13.7l1.6-10.1H564l-1.6,10.1h-12.7l-8.1,51.3H531.2z"/>
		<path d="M579.5,356l9.7-61.3h23.7c9.7,0,14.6,6.4,13.5,13.4l-2.1,13c-0.9,4.9-4.6,9.6-10.2,11.9l5.7,22.9h-10.9l-5.3-21.5h-10.2
			l-3.4,21.5H579.5z M597.9,304.8l-3.1,19.6h12.4c3.3,0,6.4-2.1,7-5.7l1.2-8.1c0.6-3.8-1.9-5.8-5.4-5.8H597.9z"/>
		<path d="M661.2,356.5c-9.9,0-14.8-6.7-13.7-13.8l5.5-34.7c1.1-7.2,8.1-13.7,18-13.7h9.3c9.6,0,14.4,6.6,13.2,13.7l-5.5,34.7
			c-1.1,7.2-8,13.8-17.6,13.8H661.2z M670.9,346.4c3.3,0,6.5-2.2,7.1-6.1l4.7-29.9c0.6-3.9-1.8-6.1-5.1-6.1h-7.5
			c-3.3,0-6.4,2.2-7,6.1l-4.7,29.9c-0.6,3.9,1.7,6.1,5.1,6.1H670.9z"/>
		<path d="M713.3,356l9.7-61.3h25.1c9.6,0,14.3,6.6,13.1,13.7l-5.3,33.7c-1.1,7.2-7.9,13.8-17.5,13.8H713.3z M731.7,304.8l-6.5,41.1
			h13.6c3.3,0,6.5-2.2,7.1-6.1l4.6-28.9c0.6-3.9-1.8-6.1-5.1-6.1H731.7z"/>
		<path d="M805.9,356.5h-9.2c-9.9,0-14.9-6.7-13.7-13.8l7.6-48H801l-7.2,45.7c-0.6,3.9,1.7,6.1,5,6.1h7.4c3.3,0,6.4-2.2,7-6.1
			l7.3-45.7H831l-7.6,48C822.2,349.9,815.4,356.5,805.9,356.5z"/>
		<path d="M891.5,335.2l-1.2,7.5c-1.1,7.2-8,13.8-17.5,13.8h-8.7c-9.9,0-14.8-6.7-13.7-13.8l5.5-34.7c1.1-7.2,8.1-13.7,18-13.7h8.6
			c9.6,0,14.4,6.6,13.2,13.7l-1.1,7.4h-10.4l0.8-4.9c0.5-3.9-1.8-6.1-5.2-6.1h-6.8c-3.3,0-6.4,2.2-7,6.1l-4.7,29.9
			c-0.6,3.9,1.7,6.1,5.1,6.1h6.7c3.4,0,6.6-2.2,7.1-6.1l0.8-5.2H891.5z"/>
		<path d="M915.6,356l9.7-61.3h10.4L926,356H915.6z"/>
		<path d="M954.4,356l9.7-61.3h10.4l13.4,39.6l6.3-39.6h10.3l-9.7,61.3h-10.5L971,316.8l-6.2,39.2H954.4z"/>
		<path d="M1058.7,315.3l0.8-4.9c0.6-3.9-1.8-6.1-5.1-6.1h-7.5c-3.3,0-6.4,2.2-7,6.1l-4.7,29.9c-0.6,3.9,1.7,6.1,5.1,6.1h7.4
			c3.3,0,6.5-2.2,7.1-6.1l1.1-7.4h-10.2l1.6-10.1h20.7l-3.1,19.8c-1.1,7.2-8,13.8-17.6,13.8h-9.3c-9.9,0-14.8-6.7-13.7-13.8
			l5.5-34.7c1.1-7.2,8.1-13.7,18-13.7h9.3c9.6,0,14.4,6.6,13.2,13.7l-1.2,7.4H1058.7z"/>
	</g>
	<g>
		<path fill="#FFFFFF" d="M409.3,351.2l9.7-61.3h10.4l-9.7,61.3H409.3z"/>
		<path fill="#FFFFFF" d="M448,351.2l9.7-61.3h10.4l13.4,39.6l6.3-39.6h10.3l-9.7,61.3H478L464.7,312l-6.2,39.2H448z"/>
		<path fill="#FFFFFF" d="M527.4,351.2l8.1-51.3h-13.7l1.6-10.1h36.8l-1.6,10.1H546l-8.1,51.3H527.4z"/>
		<path fill="#FFFFFF" d="M575.7,351.2l9.7-61.3h23.7c9.7,0,14.6,6.4,13.5,13.4l-2.1,13c-0.9,4.9-4.6,9.6-10.2,11.9l5.7,22.9h-10.9
			l-5.3-21.5h-10.2l-3.4,21.5H575.7z M594.2,300l-3.1,19.6h12.4c3.3,0,6.4-2.1,7-5.7l1.2-8.1c0.6-3.8-1.9-5.8-5.4-5.8H594.2z"/>
		<path fill="#FFFFFF" d="M657.5,351.8c-9.9,0-14.8-6.7-13.7-13.8l5.5-34.7c1.1-7.2,8.1-13.7,18-13.7h9.3c9.6,0,14.4,6.6,13.2,13.7
			l-5.5,34.7c-1.1,7.2-8,13.8-17.6,13.8H657.5z M667.2,341.7c3.3,0,6.5-2.2,7.1-6.1l4.7-29.9c0.6-3.9-1.8-6.1-5.1-6.1h-7.5
			c-3.3,0-6.4,2.2-7,6.1l-4.7,29.9c-0.6,3.9,1.7,6.1,5.1,6.1H667.2z"/>
		<path fill="#FFFFFF" d="M709.5,351.2l9.7-61.3h25.1c9.6,0,14.3,6.6,13.1,13.7l-5.3,33.7c-1.1,7.2-7.9,13.8-17.5,13.8H709.5z
			 M728,300l-6.5,41.1h13.6c3.3,0,6.5-2.2,7.1-6.1l4.6-28.9c0.6-3.9-1.8-6.1-5.1-6.1H728z"/>
		<path fill="#FFFFFF" d="M802.1,351.8h-9.2c-9.9,0-14.9-6.7-13.7-13.8l7.6-48h10.5l-7.2,45.7c-0.6,3.9,1.7,6.1,5,6.1h7.4
			c3.3,0,6.4-2.2,7-6.1l7.3-45.7h10.5l-7.6,48C818.5,345.1,811.6,351.8,802.1,351.8z"/>
		<path fill="#FFFFFF" d="M887.8,330.4l-1.2,7.5c-1.1,7.2-8,13.8-17.5,13.8h-8.7c-9.9,0-14.8-6.7-13.7-13.8l5.5-34.7
			c1.1-7.2,8.1-13.7,18-13.7h8.6c9.6,0,14.4,6.6,13.2,13.7l-1.1,7.4h-10.4l0.8-4.9c0.5-3.9-1.8-6.1-5.2-6.1h-6.8
			c-3.3,0-6.4,2.2-7,6.1l-4.7,29.9c-0.6,3.9,1.7,6.1,5.1,6.1h6.7c3.4,0,6.6-2.2,7.1-6.1l0.8-5.2H887.8z"/>
		<path fill="#FFFFFF" d="M911.8,351.2l9.7-61.3H932l-9.7,61.3H911.8z"/>
		<path fill="#FFFFFF" d="M950.6,351.2l9.7-61.3h10.4l13.4,39.6l6.3-39.6h10.3l-9.7,61.3h-10.5L967.2,312l-6.2,39.2H950.6z"/>
		<path fill="#FFFFFF" d="M1054.9,310.5l0.8-4.9c0.6-3.9-1.8-6.1-5.1-6.1h-7.5c-3.3,0-6.4,2.2-7,6.1l-4.7,29.9
			c-0.6,3.9,1.7,6.1,5.1,6.1h7.4c3.3,0,6.5-2.2,7.1-6.1l1.1-7.4h-10.2l1.6-10.1h20.7l-3.1,19.8c-1.1,7.2-8,13.8-17.6,13.8h-9.3
			c-9.9,0-14.8-6.7-13.7-13.8l5.5-34.7c1.1-7.2,8.1-13.7,18-13.7h9.3c9.6,0,14.4,6.6,13.2,13.7l-1.2,7.4H1054.9z"/>
	</g>
</g>
</svg>
