<?xml version="1.0" encoding="utf-8"?>
<!-- Generator: Adobe Illustrator 18.1.0, SVG Export Plug-In . SVG Version: 6.00 Build 0)  -->
<svg version="1.1" id="Layer_1" xmlns="http://www.w3.org/2000/svg" xmlns:xlink="http://www.w3.org/1999/xlink" x="0px" y="0px"
	 viewBox="0 0 272 272" enable-background="new 0 0 272 272" xml:space="preserve">
<g opacity="0.5">
	<circle fill="#3B4D56" cx="136" cy="136" r="136"/>
</g>
<g>
	<path fill="#FFFFFF" d="M122.8,165.4c0.1-8.6,1-14.7,3-18.4c1.9-3.7,6.2-8.3,12.8-13.9c4.7-4.6,8.4-8.9,11.1-13.1
		c2.8-4.2,4.1-8.8,4.1-13.8c0-5.8-1.6-10.3-4.7-13.5c-3.1-3.2-7.6-4.8-13.4-4.8c-5,0-9.2,1.4-12.7,4.1c-3.5,2.7-5.2,6.8-5.2,12.1
		h-21l-0.3-0.5c-0.2-10.7,3.4-19,10.7-24.9c7.3-6,16.8-8.9,28.4-8.9c12.6,0,22.4,3.2,29.4,9.6c7,6.4,10.6,15.3,10.6,26.7
		c0,7.6-2.2,14.7-6.6,21.2c-4.4,6.5-10,12.4-16.7,17.8c-3.4,3-5.6,5.8-6.4,8.5c-0.9,2.7-1.3,6.7-1.3,11.9H122.8z M145,202.4h-22.3
		v-20.9H145V202.4z"/>
</g>
</svg>
