<?xml version="1.0" encoding="utf-8"?>
<!-- Generator: Adobe Illustrator 18.1.0, SVG Export Plug-In . SVG Version: 6.00 Build 0)  -->
<!DOCTYPE svg PUBLIC "-//W3C//DTD SVG 1.1//EN" "http://www.w3.org/Graphics/SVG/1.1/DTD/svg11.dtd">
<svg version="1.1" id="Layer_1" xmlns="http://www.w3.org/2000/svg" xmlns:xlink="http://www.w3.org/1999/xlink" x="0px" y="0px"
	 viewBox="0 0 162.6 162.6" enable-background="new 0 0 162.6 162.6" xml:space="preserve">
<g>
	<path fill="#FFFFFF" d="M75.4,112.6l11.9-11.8c3.3,5.2,5.1,11.3,5.1,17.6c0,8.9-3.5,17.2-9.7,23.5l-11.1,11
		c-6.3,6.2-14.5,9.7-23.5,9.7c-8.9,0-17.2-3.5-23.6-9.8L9.8,138.1c-13-12.9-13-34.1,0-47l11-11c6.3-6.2,14.6-9.7,23.5-9.7
		c6.5,0,12.6,1.8,17.8,5.2L50.3,87.4c-2-0.7-4-1.1-6.1-1.1c-4.7,0-9.1,1.8-12.4,5.1l-11,11c-6.8,6.8-6.8,17.8,0,24.6l14.8,14.7
		c3.3,3.3,7.7,5.1,12.4,5.1s9.1-1.8,12.4-5.1l11-11C76.3,125.8,77.6,118.7,75.4,112.6z M114.1,59.8l-11.3-11.3l-55.2,55.2l11.3,11.3
		L114.1,59.8z M152.8,71.5L142,82.4c-6.3,6.3-14.6,9.8-23.5,9.8c-6.4,0-12.5-1.8-17.6-5.1l11.8-11.8c1.9,0.6,3.8,1,5.9,1
		c4.7,0,9-1.8,12.3-5.1l11-11c6.8-6.8,6.8-17.8,0-24.6l-14.7-14.7c-3.3-3.3-7.7-5.1-12.4-5.1s-9.1,1.8-12.3,5.1l-11,11
		c-3.3,3.2-5.1,7.6-5.1,12.3c0,2.1,0.4,4.1,1.1,6L75.6,61.9c-3.4-5.2-5.2-11.4-5.2-17.7c0-8.9,3.5-17.2,9.7-23.5l11-11
		C97.3,3.5,105.7,0,114.6,0s17.2,3.5,23.5,9.7l14.7,14.8C165.9,37.5,165.9,58.6,152.8,71.5z"/>
</g>
</svg>
