<?xml version="1.0" encoding="utf-8"?>
<!-- Generator: Adobe Illustrator 18.1.1, SVG Export Plug-In . SVG Version: 6.00 Build 0)  -->
<svg version="1.1" id="Layer_1" xmlns="http://www.w3.org/2000/svg" xmlns:xlink="http://www.w3.org/1999/xlink" x="0px" y="0px"
	 viewBox="0 0 367.2 181" enable-background="new 0 0 367.2 181" xml:space="preserve">
<g>
	<path fill="#FFFFFF" d="M6.4,0c0,98,79.4,177.4,177.4,177.4S361.2,98,361.2,0H6.4z"/>
</g>
<g>
	<g>
		<linearGradient id="SVGID_1_" gradientUnits="userSpaceOnUse" x1="197.8557" y1="69.9716" x2="201.2428" y2="91.1973">
			<stop  offset="0" style="stop-color:#F7F7F8"/>
			<stop  offset="0.2141" style="stop-color:#F1F2F3"/>
			<stop  offset="0.494" style="stop-color:#E1E3E6"/>
			<stop  offset="0.8088" style="stop-color:#C6CCD1"/>
			<stop  offset="1" style="stop-color:#B2BAC1"/>
		</linearGradient>
		<path fill="url(#SVGID_1_)" d="M192,80.8c3.5,0.1,5.2,0.8,4.5,1.9c-0.2,0.3-0.5,0.7-1,1.1l2.5,0.8c0.7-0.5,1.4-1,2.1-1.6
			c1.4-1.2,3.5-2.1,7.2-2.2l-0.2-0.3l-15.1,0L192,80.8z"/>
		<linearGradient id="SVGID_2_" gradientUnits="userSpaceOnUse" x1="185.654" y1="71.9174" x2="189.0414" y2="93.1449">
			<stop  offset="0" style="stop-color:#F7F7F8"/>
			<stop  offset="0.2141" style="stop-color:#F1F2F3"/>
			<stop  offset="0.494" style="stop-color:#E1E3E6"/>
			<stop  offset="0.8088" style="stop-color:#C6CCD1"/>
			<stop  offset="1" style="stop-color:#B2BAC1"/>
		</linearGradient>
		<path fill="url(#SVGID_2_)" d="M219.4,87.3c-3.1,1-9.5,2.1-13.6,0.8c-3.9-1.2-16.1-4.9-25.2-7.7c1.9-0.3,3.6-0.6,5.1-0.9
			c8-1.7,7.5-3.3,3.2-4.3c-2.3-0.6-5.2-0.9-8.1-0.8c-3.1,0-5.9,0.3-9.7,0.9L154,78l0.6,0.2c3.3-0.5,5.7-0.5,7.8,0.2l35.2,12.1
			c4.2,1.4,3.8,2.6,0.4,4l1.2,0.3l21.5-7.1L219.4,87.3z M167.5,76.5c0.8-0.2,1.5-0.3,2.3-0.4c4.9-0.8,9.2-0.7,12.9,0.3
			c4.1,1.1,4.2,2.2-0.6,3.2c-0.8,0.2-1.8,0.3-3,0.5C172.4,78,167.5,76.5,167.5,76.5z"/>
		<linearGradient id="SVGID_3_" gradientUnits="userSpaceOnUse" x1="163.9599" y1="75.3789" x2="167.3473" y2="96.607">
			<stop  offset="0" style="stop-color:#F7F7F8"/>
			<stop  offset="0.2141" style="stop-color:#F1F2F3"/>
			<stop  offset="0.494" style="stop-color:#E1E3E6"/>
			<stop  offset="0.8088" style="stop-color:#C6CCD1"/>
			<stop  offset="1" style="stop-color:#B2BAC1"/>
		</linearGradient>
		<path fill="url(#SVGID_3_)" d="M178.7,91.4c-6.6,1.7-17.3,1.8-23.9-1.5c-6.2-3.2-3.1-5.2,2.6-6.3c6.1-1.2,12.6-0.6,15,0.3l1.1-0.2
			l-7.2-2.5l-1,0.2c0.7,0.5-0.7,0.7-4.1,1.1c-2.6,0.3-5.2,0.7-6.4,1c-10.2,1.9-14.4,5.5-9.8,8.6c6.2,4.1,21.8,3.7,32.9,1.1
			c4.6-1.1,8.9-2.6,11.2-3.8l-3.2-1.1C184.7,89.4,181.8,90.5,178.7,91.4z"/>
	</g>
	<path fill="#002856" d="M217.4,78.2c-3.5,2.9-6.6,2.9-9.6-0.9c-3-3.7-13.7-16.9-23.3-28.7c2.2-1.3,4.2-2.9,6-4.4
		c8.5-7.1,11.7-16.1,5.3-24.1c-3-3.6-6.9-5.5-11-5.4c-4.3,0.2-8.1,1.8-13.1,5.8l-19.7,16l1,1.2c3.5-2.9,6.6-2.9,9.6,0.9l36.8,45.4
		c3,3.8,2.4,6.7-1.1,9.6l1,1.2l19.1-15.5L217.4,78.2z M170.5,25.3c6.2-5.1,12.1-4.3,16.9,1.6c5.1,6.3,4.9,12.3-1.1,17.2
		c-1,0.8-2.1,1.6-3.5,2.4c-8.1-10-15-18.5-15-18.5C168.6,26.9,169.6,26,170.5,25.3z"/>
	<g>
		<path fill="#009FE3" d="M197.4,48.8l0,1.4c3.9,0.2,5.4,3.6,4,8.3c-0.4,1.3-0.9,2.7-1.5,4.2l2.3,2.8c1-1.9,2-3.9,3-6.1
			c2.3-5.1,5.3-9,9.5-9.3l0-1.4L197.4,48.8z"/>
		<path fill="#002856" d="M182.5,85.9c-5.4,4.4-14.5,4.5-21.7-4.4c-7.9-9.7-6.4-16.8-1.3-20.9c5.8-4.7,13-2.4,15.9,1.1l1.1-0.9
			L168,50.2l-1,0.8c1,2.1-0.4,3-4,4.7c-2.7,1.2-5.1,3-6.2,3.9c-8.8,7.2-9.7,18.9-3.2,27.5c7.4,9.7,19.5,8.9,28.2,2.7
			c3.9-2.8,7.7-6.9,10-10.2l-2.8-3.5C187.8,80.3,185.3,83.7,182.5,85.9z"/>
	</g>
	<path fill="#002856" d="M159,131.8c-0.2-0.2-0.6-0.6-1-1.4l-0.9-1.6c-0.5-0.8-0.9-1.5-1.7-1.7c0.5,0,1-0.3,1.3-0.5
		c0.4-0.3,0.6-0.6,0.8-1c0.2-0.4,0.3-0.8,0.3-1.2c0-0.3-0.1-0.6-0.2-1c-0.1-0.3-0.3-0.7-0.5-0.9c-0.2-0.3-0.6-0.6-1-0.7
		c-0.4-0.2-1-0.3-1.6-0.3l-4,0v0.4c0.3,0,0.6,0,0.9,0.2c0.2,0.1,0.3,0.4,0.3,0.8v8.1c0,0.3-0.1,0.5-0.1,0.6
		c-0.1,0.2-0.2,0.3-0.3,0.3c-0.1,0.1-0.3,0.1-0.5,0.1l-0.1,0l-0.1,0v0.4h3.7v-0.4l-0.1,0c-0.7,0-1-0.3-1-1v-3.8c0.2,0,0.5,0,0.7,0
		c0.4,0.1,0.8,0.2,1.3,0.7c0.3,0.3,0.5,0.8,0.8,1.2c0,0,0.8,1.5,1.2,2.1c0.3,0.6,0.6,1,0.9,1.3h2.2v-0.4l-0.1,0
		C159.5,132,159.3,131.9,159,131.8z M155.1,126.4c-0.4,0.2-0.9,0.3-1.5,0.3h-0.6l0-4.6c0.1,0,0.5,0,0.7,0c0.7,0,1.2,0.1,1.5,0.4
		c0.4,0.3,0.6,0.6,0.8,0.9c0.2,0.4,0.2,0.8,0.2,1.2c0,0.5-0.1,0.9-0.3,1.2C155.7,126,155.5,126.2,155.1,126.4z"/>
	<path fill="#002856" d="M199.4,131.8c-0.2-0.2-0.6-0.6-1-1.4l-0.9-1.6c-0.5-0.8-0.9-1.5-1.7-1.7c0.5,0,1-0.3,1.3-0.5
		c0.4-0.3,0.6-0.6,0.8-1c0.2-0.4,0.3-0.8,0.3-1.2c0-0.3-0.1-0.6-0.2-1c-0.1-0.3-0.3-0.7-0.5-0.9c-0.2-0.3-0.6-0.6-1-0.7
		c-0.4-0.2-1-0.3-1.6-0.3l-4,0v0.4c0.3,0,0.6,0,0.9,0.2c0.2,0.1,0.3,0.4,0.3,0.8v8.1c0,0.3-0.1,0.5-0.1,0.6
		c-0.1,0.2-0.2,0.3-0.3,0.3c-0.1,0.1-0.3,0.1-0.5,0.1l-0.1,0l-0.1,0v0.4h3.7v-0.4l-0.1,0c-0.7,0-1-0.3-1-1v-3.8c0.2,0,0.5,0,0.7,0
		c0.4,0.1,0.8,0.2,1.3,0.7c0.3,0.3,0.5,0.8,0.8,1.2c0,0,0.8,1.5,1.2,2.1c0.3,0.6,0.6,1,0.9,1.3h2.2v-0.4l-0.1,0
		C199.9,132,199.7,131.9,199.4,131.8z M195.5,126.4c-0.4,0.2-0.9,0.3-1.5,0.3h-0.6l0-4.6c0.1,0,0.5,0,0.7,0c0.7,0,1.2,0.1,1.5,0.4
		c0.4,0.3,0.6,0.6,0.8,0.9c0.2,0.4,0.2,0.8,0.2,1.2c0,0.5-0.1,0.9-0.3,1.2C196.2,126,195.9,126.2,195.5,126.4z"/>
	<path fill="#002856" d="M140.1,124.5c0-0.4-0.1-0.8-0.2-1.2c-0.2-0.4-0.4-0.7-0.7-1c-0.3-0.3-0.7-0.5-1.2-0.7
		c-0.5-0.2-1-0.2-1.7-0.2l-3.7,0v0.4c0.4,0,0.6,0.1,0.8,0.2c0.2,0.2,0.3,0.4,0.3,0.9v8.1c0,0.4-0.1,0.6-0.3,0.8
		c-0.2,0.2-0.4,0.2-0.7,0.3l-0.1,0h-0.1v0.4h3.7v-0.4l-0.1,0c-0.7,0-1-0.3-1-1v-3.5c0.3,0.1,0.9,0.1,1.2,0.1c0.6,0,1.2-0.1,1.7-0.2
		c0.5-0.2,0.8-0.4,1.2-0.7c0.3-0.3,0.5-0.6,0.7-1C140,125.3,140.1,124.9,140.1,124.5z M137.9,126.5c-0.4,0.4-0.9,0.5-1.7,0.5
		c-0.3,0-0.6,0-1.1-0.1v-4.8c0.3,0,0.7-0.1,1-0.1c0.8,0,1.4,0.2,1.8,0.7c0.4,0.5,0.6,1.1,0.6,1.9
		C138.6,125.5,138.3,126.1,137.9,126.5z"/>
	<path fill="#002856" d="M235,124.5c0-0.4-0.1-0.8-0.2-1.2c-0.2-0.4-0.4-0.7-0.7-1c-0.3-0.3-0.7-0.5-1.2-0.7c-0.5-0.2-1-0.2-1.7-0.2
		l-3.7,0v0.4c0.4,0,0.6,0.1,0.8,0.2c0.2,0.2,0.3,0.4,0.3,0.9v8.1c0,0.4-0.1,0.6-0.3,0.8c-0.2,0.2-0.4,0.2-0.7,0.3l-0.1,0h-0.1v0.4
		h3.7v-0.4l-0.1,0c-0.7,0-1-0.3-1-1v-3.5c0.3,0.1,0.9,0.1,1.2,0.1c0.6,0,1.2-0.1,1.7-0.2c0.5-0.2,0.8-0.4,1.2-0.7
		c0.3-0.3,0.5-0.6,0.7-1C235,125.3,235,124.9,235,124.5z M232.8,126.5c-0.4,0.4-0.9,0.5-1.7,0.5c-0.3,0-0.6,0-1.1-0.1v-4.8
		c0.3,0,0.7-0.1,1-0.1c0.8,0,1.4,0.2,1.8,0.7c0.4,0.5,0.6,1.1,0.6,1.9C233.5,125.5,233.2,126.1,232.8,126.5z"/>
	<path fill="#002856" d="M148.8,131.6c-0.1-0.2-0.3-0.5-0.5-1l-3.2-9.3h-1l-3.1,9.3c-0.2,0.5-0.3,0.8-0.5,1
		c-0.2,0.2-0.4,0.3-0.8,0.4l-0.1,0l-0.1,0v0.4h2.8v-0.4h-0.1c-0.3,0-0.4,0-0.5-0.1c-0.1-0.1-0.2-0.2-0.2-0.5c0-0.2,0.1-0.5,0.2-0.8
		l0.8-2.5h3.5c0,0,0.9,2.8,1,2.9c0.2,0.6,0.2,0.9-0.1,1c-0.1,0.1-0.4,0.1-0.8,0.1H146v0.4h3.8v-0.4l-0.1,0
		C149.2,132,148.9,131.9,148.8,131.6z M142.7,127.4l1.5-4.6l1.6,4.6L142.7,127.4z"/>
	<path fill="#002856" d="M216,121.8h0.1c0.4,0,0.6,0.1,0.8,0.3c0.2,0.2,0.3,0.4,0.3,0.8l0,3.5h-5v-3.5c0-0.3,0.1-0.6,0.2-0.8
		c0.2-0.2,0.4-0.3,0.8-0.3h0.1v-0.4h-3.7v0.4h0.1c0.7,0,1,0.3,1,1.1l0,8.1c0,0.3-0.1,0.6-0.3,0.8c-0.2,0.2-0.4,0.3-0.8,0.3h-0.1v0.4
		h3.7v-0.4h-0.1c-0.3,0-0.6-0.1-0.8-0.3c-0.2-0.2-0.3-0.4-0.3-0.8V127h5l0,4.1c0,0.4-0.1,0.6-0.3,0.8c-0.2,0.2-0.4,0.3-0.8,0.3H216
		v0.4h3.7v-0.4h-0.1c-0.7,0-1-0.3-1-1v-8.1c0-0.3,0.1-0.6,0.2-0.8c0.2-0.2,0.4-0.3,0.8-0.3h0.1h0.1v-0.4H216V121.8z"/>
	<path fill="#002856" d="M221.8,121.8h0.1c0.3,0,0.5,0.1,0.7,0.2c0.2,0.1,0.3,0.4,0.3,0.8l0,8.2c0,0.4-0.1,0.7-0.3,0.8
		c-0.2,0.2-0.4,0.2-0.7,0.2h-0.1v0.4h3.7v-0.4h-0.1c-0.3,0-0.5-0.1-0.7-0.3c-0.2-0.2-0.3-0.4-0.3-0.8l0-8.2c0-0.4,0.1-0.6,0.3-0.8
		c0.2-0.2,0.4-0.2,0.7-0.2h0.1v-0.4h-3.7V121.8z"/>
	<path fill="#002856" d="M203.8,125.7c-1-0.5-1.4-1.2-1.4-1.9c0-1,0.7-2,2.1-2c0.7,0,1.2,0.2,1.6,0.5c0.4,0.3,0.6,0.8,0.7,1.4h0.4
		v-2.6h-0.4l0,0.1c-0.1,0.2-0.2,0.3-0.5,0.2c-0.6-0.2-1.2-0.3-1.7-0.3c-2.2,0-3.5,1.5-3.5,3c0,0.9,0.4,1.6,1,2.1
		c0.7,0.5,1.6,1,2.2,1.3c1.9,0.9,2.3,1.5,2.3,2.6c0,1.2-1,1.9-2.2,1.9c-0.8,0-1.4-0.2-1.9-0.6c-0.5-0.4-0.9-0.9-1.1-1.7l0-0.1l0-0.1
		h-0.4v3h0.4c0.1-0.5,0.2-0.6,0.5-0.5c0.4,0.2,0.7,0.3,1.1,0.4c0.4,0.1,0.9,0.2,1.3,0.2h0c0.8,0,1.4-0.2,2-0.5
		c0.5-0.3,0.9-0.6,1.2-1.1c0.3-0.4,0.4-0.9,0.4-1.4c0-0.9-0.4-1.7-1.1-2.2C206.1,126.8,205.3,126.5,203.8,125.7z"/>
	<path fill="#002856" d="M159.3,121.4v2.6h0.4l0-0.1c0.1-0.8,0.3-1.2,0.5-1.4c0.3-0.2,0.7-0.3,1.2-0.3l1.5,0l0,8.9
		c0,0.4-0.1,0.6-0.3,0.8c-0.2,0.2-0.4,0.2-0.7,0.3l-0.1,0l-0.1,0v0.4h3.7v-0.4l-0.1,0c-0.7,0-1-0.3-1-1v-8.9h1.5
		c0.5,0,0.9,0.1,1.2,0.3c0.3,0.2,0.5,0.6,0.5,1.4l0,0.1l0,0.1h0.4v-2.6H159.3z"/>
	<path fill="#002856" d="M176.8,121.8L176.8,121.8l0.1,0c0.4,0,0.6,0.1,0.7,0.2c0.2,0.1,0.2,0.3,0.3,0.5c0,0.2,0.1,0.6,0.1,1.1v6.5
		l-6.5-8.8h-2.1v0.4c0.3,0,0.6,0.1,0.9,0.3c0.2,0.1,0.2,0.1,0.5,0.7v7.2c0,0.6,0,1.1-0.1,1.3c-0.1,0.3-0.2,0.5-0.3,0.5
		c-0.1,0.1-0.3,0.2-0.6,0.2l-0.1,0l-0.1,0v0.4h3v-0.4l-0.1,0c-0.4,0-0.7-0.1-0.8-0.4c-0.1-0.1-0.1-0.3-0.2-0.5
		c0-0.3-0.1-0.7-0.1-1.2v-6.4l6.9,9.2h0.4v-9.6v0c0-0.4,0-0.7,0.1-0.8c0.1-0.2,0.2-0.3,0.3-0.3c0.1-0.1,0.3-0.1,0.6-0.1l0.1,0l0.1,0
		v-0.4h-3V121.8z"/>
	<path fill="#002856" d="M188.5,130.6c-0.1,0.3-0.2,0.5-0.3,0.7c-0.1,0.2-0.3,0.3-0.5,0.4c-0.2,0.1-0.5,0.2-0.9,0.2h-1.9
		c-0.4,0-0.6-0.1-0.6-0.2c-0.1-0.2-0.1-0.4-0.1-0.7v-3.7h2.2c0.2,0,0.4,0,0.5,0c0.1,0,0.2,0,0.3,0.1c0.1,0,0.2,0.1,0.3,0.3
		c0.1,0.1,0.2,0.3,0.2,0.6l0,0.1l0,0.1h0.4v-2.7h-0.4l0,0.1c0,0.4-0.2,0.6-0.4,0.8c-0.3,0.1-0.6,0.2-1,0.2l-2.1,0V122l2.4,0
		c1.2,0,1.7,0.4,1.7,1.2v0.1h0.4v-2h-7v0.4h0.3c0.3,0,0.5,0.1,0.7,0.3c0.1,0.2,0.2,0.5,0.2,0.8v8.1c0,0.4-0.1,0.6-0.3,0.8
		c-0.2,0.2-0.4,0.2-0.6,0.2h-0.3v0.4h6.9l0.4-2L188.5,130.6L188.5,130.6z"/>
	<polygon fill="#009FE3" points="133.5,118.2 133.5,116.7 157.7,116.7 157.7,118.2 133.5,118.2 	"/>
	<path fill="#002856" d="M224.6,105.7v2.8h0.4l0-0.2c0.1-0.8,0.3-1.3,0.6-1.5c0.4-0.2,0.8-0.4,1.4-0.4l1.9,0l0,9.8
		c0,0.4-0.1,0.7-0.3,0.9c-0.2,0.2-0.5,0.3-0.8,0.3l-0.1,0l-0.1,0v0.4h4.1v-0.4l-0.1,0c-0.8,0-1.1-0.4-1.1-1.1v-9.8l1.9,0
		c0.6,0,1,0.1,1.4,0.4c0.3,0.2,0.5,0.7,0.6,1.5l0,0.1l0,0.1h0.4v-2.8H224.6z"/>
	<path fill="#002856" d="M219.7,106.1L219.7,106.1l0.1,0c0.4,0,0.7,0.1,0.8,0.2c0.2,0.1,0.3,0.3,0.3,0.6c0,0.3,0.1,0.7,0.1,1.3v7.1
		l-7.7-9.7h-2.4v0.4c0.4,0,0.7,0.1,0.9,0.3c0.2,0.2,0.3,0.3,0.6,0.7v8c0,0.7,0,1.2-0.1,1.5c-0.1,0.3-0.2,0.5-0.3,0.6
		c-0.2,0.1-0.4,0.2-0.7,0.2l-0.1,0l-0.1,0v0.4h3.3v-0.4l-0.1,0c-0.5,0-0.8-0.2-0.9-0.4c-0.1-0.1-0.1-0.3-0.2-0.6
		c0-0.3-0.1-0.7-0.1-1.3V108l8.1,10.2h0.4v-10.5v0c0-0.4,0-0.7,0.1-0.9c0.1-0.2,0.2-0.3,0.3-0.4c0.2-0.1,0.4-0.1,0.7-0.2l0.1,0
		l0.1,0v-0.4h-3.3V106.1z"/>
	<path fill="#002856" d="M208.8,115.8c-0.1,0.3-0.2,0.6-0.4,0.8c-0.1,0.2-0.3,0.4-0.6,0.5c-0.2,0.1-0.6,0.2-1,0.2h-2.4
		c-0.4,0-0.6-0.1-0.7-0.3c-0.1-0.2-0.2-0.5-0.2-0.7v-4h2.7c0.2,0,0.4,0,0.6,0c0.1,0,0.2,0,0.3,0.1c0.1,0,0.2,0.1,0.3,0.3
		c0.1,0.1,0.2,0.3,0.2,0.6l0,0.1l0,0.1h0.4v-3h-0.4l0,0.1c0,0.5-0.2,0.7-0.5,0.8c-0.3,0.1-0.7,0.2-1.1,0.2l-2.6,0v-5.1l2.9,0
		c1.3,0,1.8,0.4,1.8,1.3v0.2h0.4v-2.2h-8v0.4h0.3c0.4,0,0.6,0.1,0.7,0.3c0.1,0.2,0.2,0.5,0.2,0.9v8.9c0,0.4-0.1,0.7-0.3,0.9
		c-0.2,0.2-0.4,0.3-0.7,0.3h-0.2v0.4h7.9l0.5-2.2h-0.4L208.8,115.8z"/>
	<path fill="#002856" d="M132.7,105.7v2.2h0.4l0-0.2c0-0.6,0.2-1,0.4-1.1c0.3-0.2,0.6-0.3,1-0.3l1.3,0v7.2c0,0.3-0.1,0.5-0.2,0.6
		c-0.2,0.1-0.3,0.2-0.6,0.2l-0.1,0l-0.1,0v0.4h3.1v-0.4l-0.1,0c-0.6,0-0.8-0.2-0.8-0.8v-7.2l1.3,0c0.4,0,0.7,0.1,1,0.3
		c0.2,0.1,0.4,0.5,0.4,1.1l0,0.1l0,0.1h0.4v-2.2H132.7z"/>
	<path fill="#002856" d="M144.2,114.4H144c-0.3,0-0.4-0.1-0.6-0.2c-0.1-0.1-0.2-0.3-0.2-0.6v-3.3h4.4l0,3.3c0,0.3-0.1,0.5-0.2,0.6
		c-0.1,0.1-0.3,0.2-0.6,0.2h-0.2v0.4h3.1v-0.4h-0.2c-0.6,0-0.8-0.2-0.8-0.8v-6.6c0-0.3,0.1-0.5,0.2-0.6c0.1-0.1,0.3-0.2,0.6-0.2h0.2
		v-0.4h-3.1v0.4h0.2c0.3,0,0.5,0.1,0.6,0.2c0.1,0.2,0.2,0.3,0.2,0.6v2.8h-4.4l0-2.8c0-0.3,0.1-0.5,0.2-0.6c0.1-0.1,0.3-0.2,0.6-0.2
		h0.2v-0.4h-3.1v0.4h0.2c0.6,0,0.8,0.2,0.8,0.8v6.6c0,0.3-0.1,0.5-0.2,0.6c-0.1,0.1-0.3,0.2-0.6,0.2h-0.2v0.4h3.1V114.4z"/>
	<path fill="#002856" d="M157.6,113.1h-0.4l0,0.1l0,0.1c-0.1,0.2-0.2,0.4-0.3,0.5c-0.1,0.1-0.2,0.2-0.4,0.3
		c-0.2,0.1-0.4,0.1-0.7,0.1h-2c-0.3,0-0.2-0.1-0.3-0.2c-0.1-0.1-0.1-0.3-0.1-0.5v-3h2.1c0.1,0,0.3,0,0.4,0c0.1,0,0.1,0,0.2,0.1
		c0.1,0,0.1,0.1,0.2,0.2c0.1,0.1,0.1,0.2,0.2,0.4l0,0.1l0,0.1h0.4v-2.3h-0.4l0,0.1c0,0.3-0.1,0.5-0.3,0.6c-0.2,0.1-0.5,0.1-0.8,0.1
		h-2v-3.7h2.2c1,0,1.3,0.3,1.3,1v0.2h0.4v-1.7h-6.1v0.4h0.3c0.3,0,0.4,0.1,0.5,0.2c0.1,0.2,0.2,0.4,0.2,0.6v6.6
		c0,0.3-0.1,0.5-0.2,0.6c-0.2,0.1-0.3,0.2-0.5,0.2h-0.3v0.4h6.1L157.6,113.1z"/>
	<path fill="#002856" d="M167.5,118.1c1.6,0,3.4-0.7,4.3-1.7v-0.9c-1.1,1.2-2.6,1.8-4.2,1.8c-2.7,0-4.5-2.1-4.5-5.6
		c0-3.3,1.7-5.7,4.4-5.7c1.9,0,3.3,1,3.7,2.6h0.4l0-3.1h-0.4l0,0.1v0c0,0.2-0.2,0.3-0.4,0.3c-0.1,0-0.2,0-0.4,0l-0.8-0.2
		c-0.8-0.2-1.4-0.3-2.1-0.3c0,0,0,0,0,0c-4.1,0-6.2,3.2-6.2,6.5C161.4,115.3,163.8,118.1,167.5,118.1z"/>
	<path fill="#002856" d="M199.3,113L199.3,113l0.1-0.4h-4.2v0.4l0.1,0l0.1,0c0.4,0.1,0.7,0.2,0.9,0.3c0.2,0.1,0.3,0.4,0.3,0.9
		c0,0,0,0,0,0l0,2.1c0,0.3-0.1,0.5-0.1,0.6c-0.1,0.1-0.2,0.3-0.5,0.3c-0.3,0.1-0.8,0.1-1.5,0.1c0,0,0,0,0,0c-3.4,0-5.1-2-5.1-5.9
		c0-3.5,1.8-5.5,4.7-5.5c0.9,0,1.8,0.2,2.4,0.6c0.7,0.4,1.1,1,1.3,1.7l0,0.1l0,0.1h0.4v-3h-0.4l0,0.1c-0.1,0.2-0.2,0.3-0.4,0.3
		c-0.1,0-0.3,0-0.6-0.1c-0.8-0.2-1.2-0.3-1.6-0.3c-0.4-0.1-0.9-0.1-1.3-0.1c-3.9,0-6.3,2.8-6.3,6.4c0,3.9,2.6,6.3,6.8,6.3
		c1.2,0,2.8-0.2,3.8-0.5v-3.4c0-0.3,0-0.5,0.1-0.7c0.1-0.1,0.2-0.3,0.3-0.4C198.6,113.1,198.9,113,199.3,113L199.3,113z"/>
	<path fill="#002856" d="M179.5,105.4c-3.5,0-6.1,2.7-6.1,6.4c0,3.7,2.6,6.4,6.1,6.4c3.5,0,6.1-2.7,6.1-6.4
		C185.6,108.1,183,105.4,179.5,105.4z M179.5,117.5c-2.6,0-4.4-2.3-4.4-5.7c0-3.4,1.8-5.7,4.4-5.7c2.6,0,4.4,2.3,4.4,5.7
		C183.9,115.2,182.1,117.5,179.5,117.5z"/>
</g>
</svg>
