<?xml version="1.0" encoding="utf-8"?>
<!-- Generator: Adobe Illustrator 18.1.1, SVG Export Plug-In . SVG Version: 6.00 Build 0)  -->
<svg version="1.1" id="Layer_1" xmlns="http://www.w3.org/2000/svg" xmlns:xlink="http://www.w3.org/1999/xlink" x="0px" y="0px"
	 viewBox="0 0 364.7 181" enable-background="new 0 0 364.7 181" xml:space="preserve">
<g>
	<path fill="#FFFFFF" d="M359.5,181c0-98-79.4-177.4-177.4-177.4S4.8,83,4.8,181H359.5z"/>
</g>
<g>
	<g>
		<g>
			<path fill="#00458D" d="M156,121.2c17.4-15.3,34.4-24.8,48.3-28.3c0.9-1.2,1.7-2.3,2.5-3.4C181,95.6,156,121.2,156,121.2z"/>
			<g>
				<path fill="#00458D" d="M209.6,89c-1,1.1-1.9,2.2-2.9,3.4c4.8-1,9.1-1.2,12.9-0.6c0.1-1.2,0.1-2.3,0.1-3.3
					C216.5,88.1,213.1,88.4,209.6,89z"/>
				<path fill="#00458D" d="M224.8,89.1c-0.2,0-0.3-0.1-0.5-0.1c0.1,1.2,0.1,2.5,0.1,3.9c13.9,5.5,5.3,28.3,5.3,28.3
					C232.1,118,240.9,92.8,224.8,89.1z"/>
			</g>
		</g>
		<path fill="#00458D" d="M206.8,89.5c-0.8,1-1.6,2.1-2.5,3.4c0.8-0.2,1.6-0.4,2.4-0.5c1-1.2,1.9-2.3,2.9-3.4
			C208.7,89.1,207.7,89.3,206.8,89.5z"/>
	</g>
	<path fill="#3A89B4" d="M186.6,121.1c0,0,10.3-16.8,20.1-28.8c-0.8,0.2-1.6,0.3-2.4,0.5C199.8,99.3,194,108.5,186.6,121.1z"/>
	<path fill="#3C557C" d="M218.7,81.1L218.7,81.1C218.7,81.1,218.7,81.1,218.7,81.1L218.7,81.1z"/>
	<path fill="#3C557C" d="M216.7,80.2l0.9,0.1C217.3,80.2,217.1,80.1,216.7,80.2z"/>
	<path fill="#3A89B4" d="M217.9,81.5l-1.1-1.3c-2,0.2-5.1,3-10,9.4c1-0.2,1.9-0.4,2.9-0.6C212.6,85.6,215.5,82.9,217.9,81.5z"/>
	<path fill="#3A89B4" d="M218.6,81.1L218.6,81.1c0.8,1.4,1.2,4,1.2,7.3c1.5,0.1,3,0.3,4.5,0.6c-0.3-4.9-1.3-8-2.8-8.4L218.6,81.1
		C218.7,81.1,218.7,81.1,218.6,81.1z"/>
	<path fill="#3A89B4" d="M219.7,91.7c-0.8,10.2-4.7,24.2-9.8,29.5c4.8-0.3,7.8,1.6,9.3,2.6c3.6-11.5,5.2-22.7,5.3-30.9
		c-0.4-0.2-0.8-0.3-1.2-0.4C222.1,92.1,220.9,91.9,219.7,91.7z"/>
	<path fill="#3A89B4" d="M224.3,89c-1.5-0.3-3-0.5-4.5-0.6c0,1.1-0.1,2.2-0.1,3.4c1.2,0.2,2.4,0.4,3.5,0.8c0.4,0.1,0.8,0.3,1.2,0.4
		C224.4,91.5,224.4,90.2,224.3,89z"/>
	<polygon fill="#3C557C" points="216.7,80.2 216.7,80.2 216.7,80.2 	"/>
	<path fill="#3A89B4" d="M218.6,81.1C218.6,81.1,218.6,81.1,218.6,81.1L218.6,81.1l0.1-0.1c0.8-0.4,1.5-0.6,2.2-0.5l-3.7-0.4
		C217.6,80.3,218.3,80.7,218.6,81.1z"/>
	<path fill="#3C557C" d="M218.6,81.1C218.6,81.1,218.6,81.1,218.6,81.1L218.6,81.1L218.6,81.1z"/>
	<path fill="#3A89B4" d="M218.6,81.1c-0.3-0.4-0.6-0.7-1-0.9l-0.9-0.1l0,0l1.1,1.3C218.1,81.4,218.4,81.2,218.6,81.1z"/>
	<path fill="#3A89B4" d="M221.5,80.6c-0.1,0-0.2,0-0.2,0l-0.3,0c-0.7,0-1.5,0.1-2.3,0.6L221.5,80.6z"/>
	<path fill="#231F20" d="M133.9,107.9v37.9c0,2.1,0.3,3.5,0.9,4.2c0.6,0.7,1.8,1,3.6,1h0.3v1.6h-14.3V151h0.5c1.8,0,2.9-0.3,3.5-1
		c0.5-0.7,0.8-2.1,0.8-4.2v-26.7c0-2.4-0.2-4-0.5-4.7c-0.3-0.7-1.3-1.3-2.8-2l-1.5-0.6v-0.4L133.9,107.9z"/>
	<path fill="#231F20" d="M157.8,147.5c-1.5,1.9-3.1,3.4-4.8,4.3c-1.7,1-3.5,1.4-5.3,1.4c-1.9,0-3.4-0.6-4.7-1.9
		c-1.2-1.3-1.9-2.8-1.9-4.8c0-2.1,1-3.9,3-5.4c2-1.5,5.2-2.9,9.8-4.2l3.5-1v-4c0-1.7-0.1-3-0.3-3.7c-0.2-0.7-0.6-1.3-1.3-1.7
		c-1-0.8-2.3-1.1-3.8-1.1c-1.6,0-2.7,0.3-3.5,1c-0.8,0.7-1.2,1.7-1.2,3v1.3l-5.5,1.8v-0.8c0-2,1.2-4,3.5-5.8
		c2.3-1.8,5.2-2.7,8.7-2.7c2.9,0,5,0.6,6.2,1.8c1.3,1.2,1.9,3.1,1.9,5.8v12.1c0,3.1,0.3,5.1,0.8,6.1c0.5,1,1.6,1.5,3.2,1.5
		c0.5,0,1.1,0,1.7-0.1v1.5c-1.7,0.9-3.3,1.4-5,1.4c-1.4,0-2.6-0.5-3.4-1.4C158.6,150.9,158.1,149.5,157.8,147.5z M157.4,137.8
		l-1.5,0.5c-3.9,1.2-6.5,2.3-7.8,3.3c-1.2,1-1.8,2.4-1.8,4.3c0,1.2,0.4,2.3,1.3,3.2c0.8,0.9,1.8,1.3,3,1.3c1.9,0,3.7-0.9,5.3-2.7
		c1-1.2,1.6-2.8,1.6-4.8V137.8z"/>
	<path fill="#231F20" d="M180.7,153.3l-10.9-22.6c-1.1-2.2-1.9-3.5-2.5-4.2c-0.6-0.6-1.3-0.9-2.1-0.9h-0.4v-1.6h11.8v1.6h-0.5
		c-1.7,0-2.5,0.4-2.5,1.3c0,0.6,0.5,1.8,1.4,3.8l7.7,16.1l6.7-16.1c0.7-1.7,1.1-2.9,1.1-3.5c0-1.1-0.9-1.6-2.7-1.6h-0.4v-1.6h9.5
		v1.6h-0.4c-0.8,0-1.5,0.4-2.1,1.1c-0.6,0.7-1.3,2-2.2,4l-9.9,22.6H180.7z"/>
	<path fill="#231F20" d="M209.9,153.3c-4.2,0-7.6-1.4-10.4-4.2c-2.7-2.8-4.1-6.4-4.1-10.8c0-4.4,1.4-7.9,4.1-10.8
		c2.7-2.8,6.2-4.2,10.4-4.2c4.2,0,7.7,1.4,10.4,4.2c2.7,2.8,4.1,6.4,4.1,10.8c0,4.4-1.4,8-4.1,10.8
		C217.6,151.9,214.1,153.3,209.9,153.3z M209.9,151.5c2.6,0,4.7-1.2,6.3-3.6c1.6-2.4,2.4-5.6,2.4-9.6c0-4-0.8-7.1-2.4-9.6
		c-1.6-2.4-3.7-3.6-6.3-3.6c-2.6,0-4.7,1.2-6.3,3.6c-1.6,2.4-2.4,5.6-2.4,9.6c0,4,0.8,7.2,2.4,9.6
		C205.2,150.3,207.3,151.5,209.9,151.5z"/>
	<path fill="#231F20" d="M234.8,130.7v15.1c0,2.1,0.3,3.5,0.9,4.2c0.6,0.7,1.8,1,3.6,1h0.3v1.6h-14.3V151h0.5c1.8,0,2.9-0.3,3.5-1
		c0.6-0.7,0.8-2.1,0.8-4.2v-11.5c0-2.3-0.2-3.9-0.5-4.5c-0.3-0.7-1.3-1.3-2.8-2l-1.5-0.6v-0.4l9.5-3.5v5.9c2-2,4-3.5,5.8-4.4
		c1.8-1,3.5-1.5,5.1-1.5c2.3,0,4.2,0.8,5.7,2.4c1.5,1.6,2.3,4.6,2.3,8.8v11.4c0,2.1,0.3,3.5,0.8,4.2c0.6,0.7,1.8,1,3.6,1h0.4v1.6
		h-14.3V151h0.4c1.8,0,3-0.3,3.5-1c0.6-0.7,0.8-2.1,0.8-4.2v-11.5c0-2.5-0.4-4.3-1.2-5.5c-0.8-1.1-2.2-1.7-4-1.7
		c-1.4,0-2.8,0.3-4.3,0.9C238,128.7,236.4,129.6,234.8,130.7z"/>
	<path fill="#231F20" d="M101,115v15.7h8.4c2.3,0,3.8-0.3,4.5-1c1-0.9,1.6-2.4,1.7-4.6h1.1v13.6h-1.1c-0.3-1.9-0.5-3.1-0.8-3.7
		c-0.3-0.7-0.9-1.2-1.7-1.6c-0.8-0.4-2-0.6-3.7-0.6H101V146c0,1.8,0.1,2.8,0.2,3.2c0.2,0.4,0.4,0.7,0.8,0.9c0.4,0.2,1.1,0.3,2.2,0.3
		h6.7c2.2,0,3.8-0.2,4.8-0.5c1-0.3,2-0.9,2.9-1.9c1.2-1.2,2.4-3.1,3.7-5.6h1.3l-3.4,10.1H89.7V151h1.4c0.9,0,1.8-0.2,2.6-0.7
		c0.6-0.3,1-0.8,1.3-1.4c0.2-0.6,0.3-1.9,0.3-3.9v-24.6c0-2.6-0.3-4.2-0.8-4.8c-0.7-0.8-1.9-1.2-3.5-1.2h-1.4v-1.5h30.5l0.4,8.7
		h-1.3c-0.4-2.1-0.8-3.5-1.3-4.3c-0.5-0.8-1.2-1.4-2.2-1.8c-0.8-0.3-2.1-0.4-4.1-0.4H101z"/>
</g>
</svg>
