<?xml version="1.0" encoding="utf-8"?>
<!-- Generator: Adobe Illustrator 18.1.1, SVG Export Plug-In . SVG Version: 6.00 Build 0)  -->
<!DOCTYPE svg PUBLIC "-//W3C//DTD SVG 1.1//EN" "http://www.w3.org/Graphics/SVG/1.1/DTD/svg11.dtd">
<svg version="1.1" id="Layer_1" xmlns="http://www.w3.org/2000/svg" xmlns:xlink="http://www.w3.org/1999/xlink" x="0px" y="0px"
	 viewBox="0 0 700 700" enable-background="new 0 0 700 700" xml:space="preserve">
<g opacity="0.1">
	<g>
		<g>
			<g>
				<g>
					<g>
						<path fill="#1D1D1D" d="M198.8,348.8c-0.1,1.4,0.1,0.9,0.1,1.1C198.9,347.6,198.7,348.9,198.8,348.8z"/>
						<polygon fill="#1D1D1D" points="200.4,325.8 200.4,326.2 200.8,322.8 						"/>
						<path fill="#1D1D1D" d="M205.4,304.7c-0.4,1-0.9,2.9-1.5,5c-0.1,0.5-0.3,1.1-0.4,1.6c-0.1,0.6-0.3,1.1-0.4,1.7
							c-0.3,1.1-0.5,2.2-0.7,3.1l-0.2,0.6l-0.2,1.7c0.3-1.2,0.5-2.4,0.8-3.6c0.3-1.3,0.5-2.6,0.9-3.8
							C204.2,308.5,204.9,306.3,205.4,304.7z"/>
						<path fill="#1D1D1D" d="M209.7,294c-0.3,0.6,0.8-2.4-1,2.5c0.1-0.3,0.1-0.3,0.2-0.4C209.1,295.6,209.3,294.9,209.7,294z"/>
						<path fill="#1D1D1D" d="M208.9,296C208.1,298.1,209.5,294.6,208.9,296L208.9,296z"/>
						<path fill="#1D1D1D" d="M213,286.3l-1.2,2.7c0.3-0.6,1.4-3,1-2C214.1,284.2,213.7,284.7,213,286.3z"/>
						<path fill="#1D1D1D" d="M214,283.6c0,0-0.2,0.3-0.3,0.7c-0.1,0.4-0.3,0.7-0.3,0.7C213.5,284.8,213.7,284.5,214,283.6z"/>
						<path fill="#1D1D1D" d="M212.1,288.1l1.3-3.1c-0.2,0.4-0.3,0.4-0.6,1.4C212.9,286.2,212.6,286.8,212.1,288.1z"/>
						<path fill="#1D1D1D" d="M211.3,289.8c-0.4,0.8-0.8,1.6-1,2c-0.1,0.3-0.1,0.1,0.4-1.3c-1.1,2.7-1.5,3.8-1.3,3.6
							c0.1-0.1,0.3-0.5,0.6-1.3C210.3,292.1,210.7,291.1,211.3,289.8z"/>
						<path fill="#1D1D1D" d="M205.5,303.5c0,0-0.2,0.5-0.4,1.1c-0.1,0.3-0.2,0.5-0.3,0.8c-0.1,0.2-0.1,0.3-0.1,0.3l-0.4,1.9
							c0.1-0.4,0.4-1.5,0.7-2.4C205.2,304.2,205.6,303.5,205.5,303.5z"/>
						<path fill="#1D1D1D" d="M222,269.9c0.1-0.2-0.6,0.8-0.8,1c0,0-0.1,0.1-0.2,0.3c-0.1,0.2-0.3,0.4-0.4,0.6c-0.3,0.5-0.5,1-0.5,1
							C220.7,271.8,221.9,270,222,269.9z"/>
						<path fill="#1D1D1D" d="M221.2,270.9l1.7-2.8C221.3,270.5,221,271,221.2,270.9z"/>
						<path fill="#1D1D1D" d="M214.1,283.1c0,0-0.6,1.2-1.1,2.5c-0.5,1.3-1,2.5-1,2.5s0.6-1.5,1.3-3
							C213.4,284.3,213.8,283.6,214.1,283.1c0.3-0.6,0.4-1,0.4-1L214.1,283.1z"/>
						<path fill="#1D1D1D" d="M229.2,259.5c0,0-0.1,0.1-0.2,0.3c-0.1,0.1-0.2,0.3-0.3,0.6c-0.3,0.4-0.5,0.8-0.5,0.8s0.4-0.7,0.9-1.4
							c0.5-0.7,1-1.3,1-1.3L229.2,259.5z"/>
						<path fill="#1D1D1D" d="M234.3,252.9c-0.8,1.1,1.3-1.3,0.4-0.2c1.5-1.7,2.7-3.3,3.8-4.6C237.4,249.6,236.1,251,234.3,252.9z"
							/>
						<path fill="#1D1D1D" d="M240.5,245.9c-0.6,0.7-1.3,1.4-2,2.2C239.3,247.4,239.9,246.7,240.5,245.9z"/>
						<path fill="#1D1D1D" d="M226.1,263.4c0.2-0.2,0.5-0.6,1.6-2l-0.9,1C226.6,262.7,226.3,263,226.1,263.4z"/>
						<path fill="#1D1D1D" d="M226.8,262.3L226.8,262.3c0.8-1.2,1.4-2,1.7-2.3C228.3,260.3,227.7,261,226.8,262.3z"/>
						<path fill="#1D1D1D" d="M225.9,263.6c0.1-0.1,0.1-0.2,0.2-0.3C226,263.5,225.9,263.6,225.9,263.6z"/>
						<path fill="#1D1D1D" d="M218.2,275.4c0.9-1.7,2.9-5.3,0.8-1.9C218.4,274.7,219.6,272.8,218.2,275.4z"/>
						<path fill="#1D1D1D" d="M224.8,264.8c0,0-0.1,0.2-0.3,0.4c-0.2,0.3-0.4,0.6-0.6,1c-0.5,0.8-1,1.5-1,1.5
							c0.1-0.1,0.4-0.6-0.1,0.3c0,0,0.5-0.8,1-1.6c0.3-0.4,0.5-0.8,0.7-1.1C224.7,265.1,224.8,264.8,224.8,264.8z"/>
						<polygon fill="#1D1D1D" points="225.8,263.4 224.8,264.8 225.6,263.8 						"/>
						<path fill="#1D1D1D" d="M236.4,250.3c0.4-0.6,1-1.2,1.5-1.9s1.2-1.3,1.9-2c-0.7,0.7-1.5,1.4-2.1,2.2c-0.7,0.8-1.3,1.5-2,2.3
							C235.5,251.2,235,251.9,236.4,250.3z"/>
						<path fill="#1D1D1D" d="M231.6,256c0.1-0.1,0.1-0.2,0.2-0.3C231.6,255.9,231.5,256,231.6,256z"/>
						<path fill="#1D1D1D" d="M253.2,233.8c-0.1,0.1-0.1,0.1-0.3,0.2c0,0,0,0.1-0.1,0.1L253.2,233.8z"/>
						<path fill="#1D1D1D" d="M235.4,251.2c-1,1.2-1.6,1.9-2.1,2.5c0.8-0.8,1.5-1.8,2.4-2.7C235.7,250.9,235.7,250.8,235.4,251.2z"
							/>
						<path fill="#1D1D1D" d="M244.1,242.2c-0.3,0.3-0.6,0.6-1,0.8c-0.3,0.3-0.6,0.6-1,1c0.3-0.3,0.7-0.7,1.1-1
							C243.7,242.6,244.1,242.3,244.1,242.2z"/>
						<path fill="#1D1D1D" d="M232.1,255.4c-0.1,0.1-0.1,0.1-0.1,0.2C232.3,255.2,232.2,255.2,232.1,255.4z"/>
						<path fill="#1D1D1D" d="M232.1,255.4c0.4-0.6,0.8-1.2,1.2-1.7c-0.6,0.8-1.1,1.4-1.5,2C231.9,255.6,232,255.4,232.1,255.4z"/>
						<path fill="#1D1D1D" d="M257.1,229.6c-0.1,0.1-0.9,0.8-2,1.8c-0.6,0.4-1.2,1-1.9,1.5c-0.6,0.6-1.3,1.2-2,1.7
							c-2.5,2.3-0.6,1.2,1.9-0.6c0.1-0.1,0-0.2,2.7-2.4c-0.5,0.4-2,1.5-3.1,2.4c-1.1,0.9-1.8,1.5-0.7,0.4c1.7-1.5,2.5-2.1,3-2.5
							c0.5-0.4,0.8-0.6,1.7-1.2c-0.8,0.5,0.3-0.4,1.5-1.5c1.2-1.1,2.6-2,2-1.9c0,0-0.2,0.1-0.5,0.4s-0.7,0.5-1.1,0.8
							c-0.8,0.6-1.6,1.3-1.6,1.3C256.8,229.9,258,228.9,257.1,229.6z"/>
						<path fill="#1D1D1D" d="M248,238.3l-1,1c0.6-0.6,1.1-1,1.7-1.5c0.6-0.4,1.3-1,2.1-1.7c1.8-1.6,2.1-2,2.2-2.1
							c0,0-1.3,1.2-2.7,2.3c-0.6,0.6-1.3,1.2-1.9,1.6c-0.5,0.4-0.8,0.8-0.8,0.8L248,238.3z"/>
						<path fill="#1D1D1D" d="M242.3,243.8c0.2-0.3,0.4-0.6,0.7-0.9c0.3-0.3,0.6-0.7,0.9-1c0.5-0.6,0.7-0.8-0.1-0.1
							c-0.4,0.4-0.7,0.7-1,1s-0.4,0.5-0.6,0.7c-0.3,0.4-0.6,0.6-0.7,0.8c-0.3,0.4-0.5,0.6-1.3,1.6
							C244.8,240.9,238.8,247.3,242.3,243.8c-1,1-1.8,1.9-2.6,2.7c0.8-0.9,1.7-1.7,2.5-2.5c-0.1,0.1-0.1,0.1-0.1,0.1l0,0l0,0
							c-0.2,0.2-0.3,0.3-0.1,0c0,0,0.1-0.1,0.1-0.1C242.1,244,242.2,243.9,242.3,243.8c1.4-1.4,0.3-0.2-0.2,0.3l-0.1,0.1l0,0
							c0,0,0.3-0.3,0.7-0.8c0.4-0.4,1.1-1,1.7-1.7c1.2-1.2,2.4-2.4,2.4-2.4c-0.5,0.5-1.1,1-1.9,1.7c-0.4,0.4-0.8,0.8-1.3,1.2
							C243.4,242.7,242.8,243.2,242.3,243.8z"/>
						<path fill="#1D1D1D" d="M220.7,270.2c0.1-0.2,0.1-0.1,0.1-0.2C221,269.6,221.1,269.5,220.7,270.2z"/>
						<path fill="#1D1D1D" d="M222.3,267.9c-0.3,0.4-0.4,0.8-1.3,2.2c-0.8,1.2-0.1-0.1-0.1,0c-0.5,0.8-1.7,2.9-0.1,0.4l0.3-0.4
							c1.5-2.3,3.6-5.2,3.3-4.7C223.8,265.9,223.3,266.4,222.3,267.9z"/>
						<path fill="#1D1D1D" d="M231.8,255.1c0,0,0.2-0.3,0.5-0.7c0.3-0.4,0.8-1,1.2-1.5c0.9-1.1,1.9-2.2,1.9-2.2l-2,2.1l0.1-0.1
							c-0.5,0.6-0.9,1-1.2,1.3c-0.3,0.3-0.4,0.5-0.4,0.6C231.8,255,231.8,254.9,231.8,255.1z"/>
						<path fill="#1D1D1D" d="M253.8,233.4l-0.4,0.6c0,0,0.6-0.6,1.2-1.2c0.6-0.6,1.2-1.1,1.2-1.1L253.8,233.4z"/>
						<path fill="#1D1D1D" d="M259.5,228.8l-0.1,0.3c0,0,0.1-0.1,0.3-0.2c0.1-0.1,0.3-0.3,0.5-0.4c0.4-0.3,0.8-0.6,0.8-0.6
							L259.5,228.8z"/>
						<path fill="#1D1D1D" d="M481.5,427.8l-0.8,1.5C481,428.6,481.3,428.1,481.5,427.8z"/>
						<path fill="#1D1D1D" d="M487.2,417.1l0.1-0.3C487.1,417.3,487,417.6,487.2,417.1z"/>
						<path fill="#1D1D1D" d="M429.5,221.4c2,1.4,4.2,3,4,2.7l-0.6-0.5C431.5,222.8,430.4,222,429.5,221.4z"/>
						<path fill="#1D1D1D" d="M499,320.1c0-0.3-0.1-0.4-0.1-0.7c-0.2-0.6-0.3-1.1-0.5-1.6C498.7,318.5,498.9,319.2,499,320.1z"/>
						<path fill="#1D1D1D" d="M499.9,321.7l0.4,3.2C500.3,324.1,500.2,323.1,499.9,321.7z"/>
						<path fill="#1D1D1D" d="M436.4,476.1c0,0-0.4,0.3-0.8,0.6c-0.4,0.3-0.8,0.6-0.8,0.6C437.5,475.6,436.3,476.3,436.4,476.1z"/>
						<path fill="#1D1D1D" d="M328.5,200.3c2.1-0.2,3.7-0.4,5.2-0.6C331.1,199.9,329.1,200.1,328.5,200.3z"/>
						<path fill="#1D1D1D" d="M482.5,423c-0.5,0.9-0.7,1.3-0.6,1.3C482.4,423.3,482.7,422.8,482.5,423z"/>
						<path fill="#1D1D1D" d="M339.6,199.2c-0.4,0-0.7,0.1-1.1,0.1c-0.8,0.1-1.5,0.1-2.3,0.2c-0.8,0.1-1.7,0.1-2.6,0.3
							c0.9-0.1,1.9-0.1,2.9-0.2C337.6,199.4,338.6,199.4,339.6,199.2z"/>
						<path fill="#1D1D1D" d="M223.3,435.4c-0.1-0.1-0.2-0.3-0.3-0.4C223,435,223.1,435.2,223.3,435.4z"/>
						<path fill="#1D1D1D" d="M199.9,370.1c0.1,0.7,0.3,1.8,0.4,2.8C200.3,372.5,200.2,371.6,199.9,370.1z"/>
						<path fill="#1D1D1D" d="M284.8,213.6C283.4,214.3,284.6,213.7,284.8,213.6L284.8,213.6z"/>
						<path fill="#1D1D1D" d="M277.8,216.6c0.3-0.2,0.5-0.3,0.5-0.3C278.3,216.3,278.1,216.4,277.8,216.6z"/>
						<path fill="#1D1D1D" d="M355.2,198.1c0.1,0,0.1,0,0.1,0C354.9,198.1,355,198.1,355.2,198.1z"/>
						<path fill="#1D1D1D" d="M282.7,214.6c0.5-0.3,1.2-0.6,1.8-0.9C284.2,213.8,283.7,214.1,282.7,214.6z"/>
						<path fill="#1D1D1D" d="M283.1,214.5c-0.5,0.3-0.8,0.4-1.2,0.6C281.6,215.2,281.8,215.2,283.1,214.5z"/>
						<path fill="#1D1D1D" d="M286.8,212.7c-0.8,0.4-1.6,0.7-2.3,1c0.3-0.1,0.4-0.2,0.3-0.1C285.2,213.4,285.9,213.1,286.8,212.7z"
							/>
						<path fill="#1D1D1D" d="M330,501.1c-0.1,0-0.2-0.1-0.3-0.1C328.1,500.9,328.8,501,330,501.1z"/>
						<path fill="#1D1D1D" d="M461.9,246.2c-0.1-0.1-0.1-0.1-0.1-0.1C461.8,246.1,461.8,246.2,461.9,246.2L461.9,246.2z"/>
						<path fill="#1D1D1D" d="M465.7,250.3c-1.7-1.7-2.6-2.8-3.8-4.1c0,0,0.3,0.4,0.5,0.8c0.1,0.2,0.3,0.4,0.3,0.6
							c0.1,0.1,0.1,0.3,0.1,0.3L465.7,250.3z"/>
						<path fill="#1D1D1D" d="M464.3,451.3l2.7-2.9c-1.5,1.9-2.8,3.5-3.5,4.2c-0.3,0.4-0.5,0.6-0.4,0.5c0.1-0.1,0.4-0.4,1.1-1.1
							c0-0.2,0.6-1,1.6-2.2c1-1.2,2.2-2.6,3.4-4.2c1.2-1.5,2.4-3.1,3.3-4.2c0.8-1.2,1.4-2.1,1.4-2.3l1.6-2.1
							c-0.4,0.6-0.5,0.7-0.9,1.3c3.1-4,1.9-3.3,5.5-8.8c1.2-1.9,2-3.3,1.3-1.9l2.4-4.5c0.4-0.6,0.5-0.9,0.5-0.8
							c0,0.1-0.3,0.5-0.6,1.2c0,0,0.3-0.4,0.6-1.1c0.3-0.6,0.8-1.5,1.2-2.4c0.9-1.7,1.7-3.5,1.7-3.5v0.1c0.4-1,1.3-3.4,1.9-4.5
							c0.9-1.8-0.4,0.9-0.1,0.5c0,0,0.4-1,0.8-2c0.2-0.5,0.4-1,0.6-1.3c0.1-0.4,0.3-0.6,0.3-0.6c0.4-0.8,0.3-0.3-0.1,0.6
							c-0.4,1-1,2.5-1.7,3.8c1-1.7,1.4-2.6,1.9-4s1.2-3.3,2.9-7.4c0,0-0.1,0.3-0.2,0.6c-0.1,0.4-0.3,0.8-0.5,1.3
							c-0.4,1-0.7,1.9-0.7,1.9c0.3-0.6,0.6-1.2,0.9-1.9c0.3-0.7,0.6-1.4,0.9-2.2c0.6-1.6,1.2-3.5,2-5.6c-0.4,1-3.3,8.6-1.9,4.2
							c0.4-1.2,1-2.9,1.7-5.3c0.1,0,0.8-2.4,1.6-5.3l0.1,0.3c0.2-0.8,0.4-1.4,0.4-1.9c0.1-0.4,0.1-0.8,0.2-1.1c0.1-0.6,0.1-1,0.3-2
							c0.8-3.6,1.2-4.3,1.5-5.2c1.1-5.9-1,4,0.3-2.9c0.3-1.2,0.4-2.4,0.6-3.5c0.1-1.1,0.3-2.2,0.4-3.3c0.3-2.2,0.6-4.5,0.6-7.5
							c0.3-3.5,0.1,0.6,0.3-0.6l0.1-3.1c0.1-0.8,0.1-0.5,0.1-0.4c0.1-2.6-0.2-0.2-0.1-4.3c-0.1-0.3-0.1-1,0-1.9c0-0.4,0.1-1,0.1-1.5
							c0-0.3,0.1-0.6,0.1-0.9c0-0.3,0-0.6,0-1c0-1.3,0-2.7,0-4.1c-0.1-1.4-0.1-2.8-0.3-4c-0.1-1.2,0.2,0.6,0.2,0.2
							c-0.3-3.5-0.5-4.9-0.6-6.2c-0.1-1.3-0.4-2.5-0.8-5.2c0,0-0.1-1.2-0.3-2.4c-0.1-0.6-0.2-1.2-0.2-1.7c-0.1-0.4-0.1-0.8-0.1-0.8
							c0.4,3.5-0.5-0.9-1.3-4.8c0.1,1.3,0.3,2.3,0.4,3c0,0-0.3-1.5-0.6-3.1c-0.1-0.8-0.4-1.5-0.5-2.1c-0.1-0.6-0.3-1-0.3-1
							c-0.1-0.8,0.1-0.1,0.4,0.8c-0.1-0.4-0.2-0.8-0.3-1.1c-0.4-2.2-0.1-1.1,0.4,0.4c0.1,0.8,0.3,1.5,0.4,2.2
							c0.4,1.5,0.8,2.9,0.8,2.6c-0.1-0.4-0.3-1.2-0.4-2c0.1,0.4,0.2,0.6,0.2,0.4c0-0.2-0.1-0.8-0.4-1.9l-0.1-1.5l-0.2-0.3
							c0,0-0.4-2-0.8-4c-0.2-1-0.5-2-0.7-2.7s-0.3-1.3-0.3-1.3c-0.4-1.4-0.9-2.7-1.4-4.2c-0.5-1.3-1.1-2.7-1.7-4.3
							c-0.3-0.8-0.6-1.5-0.9-2.3c-0.3-0.8-0.7-1.6-1-2.5c-0.4-0.9-0.8-1.8-1.2-2.7c-0.4-1-0.8-2-1.3-3.1c1.1,2,0.4,0.3,0.7,0.4
							c0.4,1.2,1.1,2.9,1.9,4.9c0.4,1,0.9,2,1.3,3.1c0.4,1.1,0.8,2.2,1.2,3.4c-0.8-2.4-0.5-1.9-0.3-1.3c0,0-0.2-0.5-0.4-1.3
							c-0.1-0.4-0.3-0.8-0.4-1.3c-0.2-0.4-0.4-1-0.6-1.5c-0.8-2-1.7-4-1.7-4c0.1,0.1,0-0.4-0.3-1.1c-0.3-0.7-0.7-1.7-1.2-2.7
							c0.2,0.8-0.5-0.6-1.5-2.7c-0.3-0.5-0.5-1.1-0.8-1.7s-0.6-1.1-0.9-1.7c-0.6-1.1-1.1-2.1-1.5-2.9c0-0.3,0.4,0.4,2.4,4.3
							c-2-4.3-3.1-5.4-5.2-9.5c0.5,0.9,0.8,1.4,1,1.7c-0.6-1-1.7-2.9-2.5-4.3c-0.8-1.4-1.4-2.4-1-1.8l0.6,0.9
							c-1-1.5-2.1-3.3-3.4-5.3c-1.3-1.9-2.8-3.9-4.1-5.8c-0.6-1-1.4-1.8-2-2.6c-0.6-0.8-1.2-1.5-1.7-2.1c-1-1.2-1.7-2-2-2.2
							c0-0.1,0.8,0.5,1.2,0.8c0,0-0.1-0.1-0.4-0.4c-0.3-0.3-0.6-0.6-1-1c-0.8-0.8-1.9-1.9-3.1-3c-1.1-1.2-2.2-2.2-3.1-2.9
							c-0.9-0.8-1.5-1.3-1.5-1.3c1,0.6-1.6-2.8,2.5,1.3c-0.6-0.6-1.2-1.3-2-2.2c-0.8-0.8-1.7-1.9-3.1-3c0.8,0.8,1.8,2.2,0.7,1.2
							c-1.5-1.5-2-2.1-2.6-2.7c-0.3-0.3-0.6-0.6-1.1-1.2s-1.1-1.2-2-2c1.3,1.2-0.4,0.2-2.4-1.6c0.4,0.3,0.1-0.4,0.8,0.2
							c0,0-1.3-1-2.6-2c-0.6-0.5-1.3-1-1.9-1.3c-0.5-0.4-0.8-0.6-0.8-0.6c1.3,1,0.4-0.1-0.7-1.1c0.3,0.3-0.9-0.6-2.2-1.7
							c-1.4-1.1-3.1-2.2-3.8-2.7l2.2,1.7c-1.5-1.1-2.7-1.9-3.7-2.6c-0.5-0.3-1-0.6-1.3-0.8c-0.4-0.3-0.8-0.4-1.3-0.7
							c-0.8-0.4-1.7-0.9-2.6-1.5c-1-0.6-2.2-1.3-3.8-2.2c0.8,0.4,2.2,0.7-1.1-1.2c-0.4-0.2-1-0.4-1.9-0.8c-0.8-0.4-1.9-0.8-3.1-1.3
							c-1.2-0.5-2.5-1-3.9-1.7c-0.7-0.3-1.4-0.6-2.1-1c-0.8-0.3-1.5-0.6-2.2-1l-1.1-0.6c0,0-1.2-0.5-2.3-1c-0.6-0.3-1.2-0.4-1.6-0.6
							c-0.4-0.2-0.8-0.3-0.8-0.3c1.5,0.4,4.3,1.5,7.4,2.6c1.5,0.5,3,1.3,4.5,1.9c1.4,0.6,2.8,1.2,3.9,1.7c-2.5-1.4-0.6-0.4-4.4-2.4
							c-1.3-0.8,2.1,0.9,3.3,1.5c0,0-2.2-1.2-4.4-2.3c-1.1-0.6-2.2-1.1-3.1-1.5c-0.8-0.4-1.4-0.6-1.4-0.6c0.1,0.2-1.6-0.5-3.3-1.3
							c-1.8-0.6-3.6-1.3-3.5-1.2c0,0,0.6,0.3,1.6,0.6c0.4,0.2,1,0.4,1.6,0.6c0.6,0.3,1.2,0.5,1.8,0.8c2.5,1,4.9,2.1,4.9,2.1
							c0.1,0.2-1.3-0.3-3.6-1.2c-0.6-0.3-1.2-0.5-1.9-0.8c-0.6-0.3-1.3-0.6-2.1-0.8c-1.5-0.6-3.1-1.2-4.7-1.8
							c-1.6-0.7,1.3,0.1,1.3,0c-0.2-0.1-0.7-0.3-1.3-0.4c-0.6-0.3-1.4-0.5-2.2-0.8c-1.5-0.5-3.1-1-3.3-1.2l2.9,0.8
							c-1.9-0.6-3.4-1.1-5-1.6c-1.6-0.4-3.4-0.9-5.6-1.6c-0.8-0.2-1.9-0.6-2.9-0.9c-1-0.3-1.9-0.5-2-0.5c2.5,0.8,2.8,1.7,1.1,1.5
							c-0.3-0.1-2.3-0.6-4.5-1.2c-0.6-0.1-1.1-0.3-1.7-0.4c-0.6-0.1-1.1-0.3-1.6-0.3c-1-0.2-1.8-0.4-2.2-0.5c-2.6-0.6,4,0.3,1.8-0.3
							c-0.1,0.1-1.5-0.1-2.2-0.3c-1.7-0.3,0.7-0.1-2.9-0.7c-0.6,0.1-7.4-1-1.7-0.1c-1.8-0.2-2.7-0.3-3.8-0.4c-1-0.1-2.1-0.3-4.2-0.4
							c0.6,0.1-0.3,0.2-1.9,0.1c-0.8,0-1.7,0-2.7-0.1c-0.5,0-1-0.1-1.5-0.1c-0.5,0-1,0-1.4,0c0.2-0.1-0.6-0.1-1-0.2
							c-1.9-0.1-3.5-0.1-5-0.1c-1.5,0-2.9,0.1-4.3,0.1c-1.4,0-2.7,0-4.2,0.1c-1.5,0.1-3,0.2-4.7,0.3c-0.3,0-1.3,0.1-2,0.1
							c-0.7,0-1.2,0.1-0.5-0.1c-1,0.1-1.9,0.3-4,0.6c-4.1,0.3,4.7-0.6,1.5-0.4c-0.1,0.1-1.5,0.3-3.2,0.6c-0.8,0.1-1.8,0.3-2.7,0.4
							c-0.9,0.2-1.8,0.4-2.5,0.5c0.3,0,0.8-0.1,1.5-0.2c0.7-0.1,1.7-0.3,2.6-0.4c2-0.3,4.2-0.6,5.8-0.8c0,0.1-1.3,0.4-3.5,0.8
							c-1.1,0.2-2.4,0.4-3.9,0.7c-1.5,0.3-3.1,0.6-4.9,1c-1.4,0.3-2.2,0.4-2.7,0.5c-0.5,0.1-0.6,0.1-0.7,0.1c-0.1-0.1,0.5-0.2,0-0.1
							c-2.6,0.6-4.5,1-5.9,1.4c-1.4,0.4-2.4,0.8-3.5,1.2c-1,0.3-1.9,0.6-3.1,1c-1.2,0.4-2.7,0.9-4.8,1.5c-3.4,1-0.3-0.3-1-0.1
							c2.2-0.8,3.9-1.3,5.4-1.8c1.5-0.4,2.9-0.8,4.4-1.2l-3.8,1c1.4-0.4,4.3-1.3,6-1.8c-0.7,0.2-2.2,0.6-4.1,1.1
							c-1,0.3-2,0.6-3.1,0.9c-1.1,0.4-2.3,0.8-3.5,1.2c-1.2,0.4-2.5,0.8-3.8,1.3c-1.3,0.5-2.5,1-3.7,1.5c-1.2,0.5-2.4,0.9-3.5,1.4
							c-1.1,0.5-2.2,1-3.1,1.3c-1.3,0.6-3.6,1.7-2.5,1.3l2.4-1.1c2.2-0.8-4.4,2.2-1.3,0.9c-0.4,0.2-0.8,0.4-1.2,0.6
							c-0.4,0.2-0.8,0.4-1.2,0.6c-0.8,0.4-1.7,0.9-2.6,1.4c-0.9,0.4-1.9,1-2.8,1.5c-1,0.6-2,1.2-3.1,1.7l-0.9,0.3
							c0.1,0,2.9-1.5,4-2.2c-0.9,0.5-2.6,1.4-4.2,2.4c-0.8,0.4-1.7,0.9-2.4,1.3c-0.7,0.4-1.3,0.9-1.8,1.3c0,0,0.8-0.4,1.5-0.9
							c0.4-0.3,0.8-0.4,1-0.6c0.3-0.1,0.4-0.3,0.4-0.3c-0.8,0.4-1.5,1-2.3,1.5c-0.8,0.6-1.6,1.1-2.5,1.7c-0.8,0.6-1.7,1.2-2.6,1.8
							c-0.9,0.6-1.7,1.3-2.6,1.9c1.7-1,0.8-0.6,3.5-2.2c-2.4,1.2,9.4-6,5.6-3.9c1.4-0.7,2.6-1.3,4-2c1.3-0.7,2.7-1.5,4.6-2.4
							c-0.1,0-1.3,0.6,1.9-1.1c0.1-0.1,0.4-0.3,0.7-0.4c0.1-0.1,0.1-0.1,0.2-0.1c-0.1,0-0.1,0.1-0.2,0.1c0.1-0.1,0.1-0.1-0.1,0
							c-0.8,0.4-1.4,0.6-1.7,0.8c0.8-0.4,2.4-1.4,4.2-2.2c1.7-0.8,3.5-1.7,4.4-2c2-0.9-0.8,0.4,0.3,0c0,0,0.6-0.3,1.3-0.6
							c0.7-0.3,1.3-0.6,1.3-0.6c0.3,0,5.4-1.9,0.7,0.1l4.3-1.7c1.3-0.4,2.8-0.9,4.3-1.4c1.5-0.4,2.9-1,4-1.3c2.1-0.6,5.2-1.7,3.5-1
							c0,0,0.4-0.1,1.1-0.3s1.5-0.4,2.4-0.7c1.7-0.4,3.5-0.8,3.5-0.8h0.1c3.5-0.9,7-1.5,10.8-2.2c3.8-0.5,7.6-1.1,11.7-1.2
							c1.2-0.1,2.4-0.3,3.8-0.3c1.4-0.1,3.1-0.1,5.1-0.1l0.8,0.1c1.5-0.1,3.8,0,5.9,0.1c2.1,0.1,4,0.1,4.6,0.1
							c0.8,0.1,2.2,0.3,3.8,0.4c0.8,0.1,1.7,0.1,2.6,0.2c1,0.1,1.9,0.3,2.9,0.3c1,0.1,2,0.3,3,0.4c1,0.1,2,0.2,2.9,0.4
							c1.9,0.3,3.6,0.6,4.9,0.9l0.3-0.1c0.4,0.1,0.9,0.2,1.3,0.3c0.4,0.1,0.9,0.2,1.3,0.3c0.9,0.2,1.9,0.4,2.7,0.6
							c1,0.2,1.9,0.4,2.9,0.6c1,0.3,2,0.6,3.2,0.8l-0.3-0.2c1.9,0.5,4.4,1.2,7.1,2.2c1.3,0.4,2.7,1,4.2,1.5c1.4,0.6,2.9,1.2,4.3,1.7
							c-0.4-0.1-1.9-0.7-2.9-1.2c7,2.9,14.7,6.1,20.6,9.6c1.5,0.8,2.6,1.4,3.6,2c-0.1-0.1-0.3-0.1-0.4-0.2c0.1,0.1,0.4,0.2,0.6,0.3
							c0.6,0.4,1.3,0.8,2,1.3c-0.6-0.4-1.2-0.8-1.7-1.1c1.2,0.6,2.8,1.7,4.5,2.7l0.6,0.6c0.1,0.1,0.3,0.1,0.4,0.3
							c1.6,1.1,1.3,0.8,0.5,0.1c0.8,0.5,1.6,1,2.2,1.4c0.6,0.6,1.6,1.3,2.7,2c0.6,0.4,1.2,0.8,1.7,1.2c0.5,0.4,1,0.8,1.3,1.2
							c0.6,0.4,2.5,1.9,4.4,3.3c1.9,1.5,3.7,3.1,4.2,3.3c0,0.1,0.4,0.4-0.3-0.3c1.7,1.4,3.2,2.9,4.7,4.3l0.5,0.8
							c0,0,0.9,0.8,1.8,1.5c0.9,0.8,1.7,1.6,1.7,1.6c1.9,2.2,2.7,3.1,0.6,1.1c1.2,1.2,2.1,2,2.7,2.7c0.6,0.7,1.1,1.2,1.5,1.7
							c0.8,1,1.7,1.8,3.6,4l-0.3-0.1c1.3,1.7,3.5,4.2,4.2,5.2c0.6,1,1.8,2.7,3.3,4.8c0.4,0.5,0.8,1.1,1.2,1.7
							c0.4,0.6,0.8,1.2,1.2,1.9c0.8,1.3,1.7,2.7,2.6,4.1c3.5,5.8,7,12.6,9.3,18.2c-0.3-1.2,0.3,0.1,0.9,1.8c0.6,1.7,1.3,3.6,1.5,3.8
							c0.2,0.7,0.8,2.3-0.1,0.4c0.3,0.7,0.6,1.4,0.8,2c0.3,0.6,0.4,1.3,0.6,1.9c0.4,1.2,0.7,2.2,1,3.2c0.3,1,0.6,1.9,1,2.9
							c0.3,1,0.6,1.9,1,2.9c0.1,0.7-0.5-1.2-0.4-0.6c0.1,0.4,0.6,1.9,0.7,2.5c0.1,0.6-0.3-0.8-0.6-1.8c0.4,1.5,0.8,2.7,1.1,3.6
							c0.3,0.9,0.4,1.6,0.6,2c0.3,1,0.5,1.2,0.7,1.4c0.3,1.6,0.6,2.7,0.8,3.8c0.2,1.1,0.4,2,0.7,3.1c0.1,1.1,0.4,2.9-0.4-0.9
							c0.1,0.5,0.3,1.7,0.5,3c0.1,0.7,0.3,1.4,0.4,2.2c0.1,0.8,0.2,1.5,0.3,2.3c0.4,3.1,0.8,5.9,0.8,6.1c0,0.7,0.2,3.1,0.3,3.6
							c0.1,1.2,0.1,2.2,0.2,3c0.1,0.8,0.1,1.5,0.1,2.2c0.1,1.3,0.1,2.7,0.1,5.1v-1.3c0.3,1.9,0.1,4,0,7.9v-0.1
							c-0.1,2.2-0.3,3.6-0.3,4.5c-0.1,0.9-0.1,1.4-0.1,1.9s-0.1,1-0.1,1.9c-0.1,0.4-0.1,1-0.2,1.7c-0.1,0.7-0.3,1.6-0.4,2.7l0.2-0.4
							c0.1,0.4-0.2,2.4-0.6,4.9c-0.4,2.4-1.2,5.4-1.5,8c0,0,0.1-0.1,0.1-0.3c0.1-0.2,0.1-0.4,0.1-0.6c0.1-0.4,0.2-0.9,0.2-0.9
							c-0.1,1.4-0.7,3.3-1.3,5.2c-0.6,1.9-1.1,3.8-1.5,5.1c-0.2,0.6,0.3-1,0.4-1.8c-2.2,7-0.1,1-1.5,6.3c-0.2,0.4-0.2,0.1-0.3,0.1
							c0,0-0.1,0.1-0.2,0.4c-0.1,0.3-0.3,0.8-0.6,1.7c-0.3,0.8-1.1,3.5-2,6.3c-0.5,1.5-1.1,3-1.7,4.5c-0.3,0.7-0.6,1.5-0.8,2.1
							c-0.3,0.6-0.6,1.3-0.9,1.9c0.5-1,1.1-2,0.1,0.4c-1.5,3.6-4.8,9.4-6.3,12.6c-0.3,0.4-0.4,0.6-0.4,0.6c-0.4,0.6-0.8,1.5-1.3,2.4
							c-0.5,1-1.1,2-1.7,2.9c-1.2,1.9-2.3,3.8-2.7,4.5c-0.4,0.5-1.4,1.7-2.5,3.3c-1.1,1.5-2.3,3.4-3.6,5.1c-0.6,0.8-1.3,1.7-1.9,2.5
							c-0.6,0.8-1.2,1.5-1.7,2c-1,1.2-1.7,1.9-1.7,1.8c0,0-0.4,0.4-1,1.1c-0.6,0.6-1.3,1.5-2.1,2.4c-1.6,1.7-3.2,3.3-3.2,3.3
							l0.1-0.2c-0.5,0.5-1,1-1.4,1.5c-0.4,0.4-0.8,0.8-1.2,1.2c-0.8,0.8-1.4,1.3-1.9,1.9c-1.1,1.1-1.8,1.9-2.5,2.6
							c-1,0.9-0.3,0.2-0.3,0.1c-3.3,2.7-5.1,4.3-6.8,5.7c-0.8,0.7-1.7,1.3-2.6,2.1c-0.4,0.4-1,0.8-1.5,1.3s-1.2,1-1.9,1.5l-0.7,0.3
							c-1.5,1.3-10.4,6.8-17.8,10.8c0.1-0.1,0.2-0.2,0.8-0.5c-4.2,2.3-9.3,4.6-13.9,6.4c-1.2,0.4-2.2,0.9-3.3,1.3
							c-0.5,0.2-1,0.4-1.5,0.6c-0.5,0.2-1,0.3-1.4,0.5c-1.8,0.6-3.1,1.2-3.9,1.6c0,0-0.4,0.1-0.9,0.3c-0.6,0.2-1.3,0.4-2,0.6
							c-1.5,0.4-3,0.9-3,0.9c7.8-2.2-1.1,0.6,2.2-0.3c-1.5,0.4-3.5,1-4.7,1.2c-0.6,0.1-1,0.2-0.9,0.1c0-0.1,0.4-0.1,1.3-0.4l0.6-0.1
							c0.3-0.2-0.1-0.1-1,0.1c-0.8,0.2-2.1,0.4-3.5,0.8c-1.3,0.3-2.6,0.6-3.6,0.8c-1,0.3-1.7,0.3-1.7,0.3c-2,0.3-3.9,0.7-5.9,1
							c-2,0.3-3.9,0.5-5.9,0.8c-1,0.1-1.9,0.3-2.9,0.3c-1,0.1-2,0.1-2.9,0.2s-1.9,0.1-2.9,0.2c-0.5,0-1,0.1-1.5,0.1h-1.5
							c-1.9,0.1-3.8,0.1-5.8,0.1c-1.9,0-3.8-0.1-5.8-0.1c-1-0.1-1.9-0.1-2.8-0.1c-1-0.1-1.9-0.1-2.8-0.3c-1-0.1-1.9-0.1-2.8-0.2
							s-1.9-0.1-2.8-0.3c0,0,0.4,0.1,0.8,0.3c0.2,0.1,0.4,0.1,0.6,0.1c0.1,0.1,0.3,0.1,0.3,0.1s-0.1,0-0.2,0c-0.1,0-0.3,0-0.6-0.1
							c-0.5-0.1-1.2-0.1-1.8-0.3c-1.3-0.2-2.6-0.3-2.6-0.3c-1.3-0.3-1.8-0.4,1.9,0.1c-1-0.2-2.5-0.4-3.8-0.4
							c-1.3-0.1-2.4-0.3-2.5-0.3c-7.2-1.3,2.8,0.3,0.6-0.2l-3-0.5l0.6,0.1c-1.2-0.1-1.9-0.3-2.8-0.4c-0.4-0.1-1-0.1-1.7-0.3
							c-0.6-0.1-1.5-0.3-2.6-0.6c-2.7-0.7-1.4-0.4-2.4-0.7c0,0-0.1-0.1-0.3-0.1c-0.3-0.1-0.6-0.1-1.3-0.3c0,0-0.4-0.1-1-0.3
							c-0.6-0.2-1.4-0.4-2.2-0.6c-1.6-0.4-3.1-0.9-3.1-0.9l2.5,0.9c-1.4-0.4-2.9-0.8-3.6-1c-0.4-0.1-0.6-0.2-0.5-0.1
							c0.1,0.1,0.4,0.2,1.1,0.4c-2-0.8-7.9-2.7-13.4-5c-1.4-0.5-2.7-1.2-4-1.7c-1.3-0.6-2.4-1.1-3.5-1.6c-2.1-1-3.6-1.9-4.3-2.2
							c-0.9-0.4-1.9-0.9-2.7-1.3c-0.9-0.5-1.8-1-2.7-1.5c-1.9-1.1-3.8-2.1-5.9-3.5c1,0.7,1.5,1.3-2-1.1c0.4,0.1,0.2-0.1-0.4-0.5
							s-1.5-1-2.6-1.9c-1-0.8-2.2-1.6-3.3-2.4c-0.5-0.4-1.1-0.8-1.5-1.2s-0.8-0.7-1.2-1c1.2,1-1.3-0.8-3.5-2.6
							c-1.2-0.8-2.2-1.7-2.7-2.2c-0.6-0.4-0.6-0.4,0.3,0.4c-2.7-2.4-0.1-0.3-2-2.1c-6.5-5.5-13.6-13-20-21.4
							c-0.1-0.1,0.9,1.3-0.6-0.4c0,0-0.2-0.3-0.5-0.7c-0.1-0.2-0.3-0.4-0.5-0.7c-0.2-0.3-0.4-0.6-0.6-0.9c-0.8-1.2-1.5-2.4-1.5-2.4
							c-0.6-0.8-1-1.2-1.4-1.7c-0.2-0.3-0.4-0.6-0.8-1c-0.3-0.4-0.6-1.1-1.2-1.9c0.3,0.4,0.6,1.2-0.1,0c-5.6-8.7-10.4-18.1-14.3-28
							c-3.8-9.8-6.6-20.2-8.1-30.6c0.4,2.8,0.1,1-0.3-1.2c0.2,1.4-0.1,0-0.2,0.3c0,0,0-0.1-0.1-0.4c0-0.3-0.1-0.6-0.1-1
							c-0.1-0.8-0.2-1.9-0.3-3c-0.1-1.1-0.3-2.2-0.3-3c-0.1-0.4-0.1-0.8-0.1-1c0-0.3,0-0.4,0-0.4c-0.2-0.8-0.3-3.1-0.5-5.4
							c-0.1-1.2-0.1-2.2-0.2-3.1c-0.1-0.9-0.1-1.5-0.1-1.8l0.1,2.8c-0.1-1.9-0.3-0.6-0.3,1.2c0,1.7,0,3.8-0.2,3.5
							c0.1,1,0.3,2.2,0.3,3.6c0.1,1.3,0.3,2.7,0.4,4.3c0.1,0.8,0.1,1.5,0.3,2.4c0.1,0.4,0.1,0.8,0.1,1.2c0.1,0.4,0.1,0.8,0.2,1.2
							c0.3,1.7,0.6,3.3,1,5c0.2,1.5-0.3-1.3-0.3-0.4c0.4,1.7,1,3.7,1.7,7.5l-0.1-0.4c0.1,0.6,0.3,1.3,0.4,1.9
							c0.1,0.6,0.3,1.2,0.5,1.8c0.3,1.2,0.6,2.2,0.9,3.3c0.3,1,0.5,2,0.9,3c0.3,1,0.6,1.9,1,2.9c0.3,1,0.6,1.9,1,2.9
							c0.3,1,0.8,2,1.2,3.1c0.4,1.1,0.8,2.2,1.3,3.5c0.1,0.3,0.3,0.6,0.4,1c0.1,0.3,0.3,0.6,0.4,1c0.3,0.6,0.6,1.3,0.9,2l-0.3-0.9
							c1.1,2.4,1.3,2.9,1.7,4.1c1.5,2.7-3-6.8-1.7-4.3c0.3,0.8,0.9,2.3,1.7,4.1c0.4,0.9,0.9,1.9,1.3,2.8c0.5,1,1,2,1.5,3
							c0.3,0.5,0.5,1,0.8,1.5c0.3,0.5,0.5,1,0.8,1.4c0.5,0.9,1,1.8,1.5,2.6c0.9,1.6,1.5,2.8,1.8,3.3c2.2,3.4-0.5-1.1,1.7,2.3l0.5,1
							l0.6,0.8c0.3,0.6,0.6,1.1,0.9,1.5c0.3,0.4,0.5,0.8,0.7,1.1c0.4,0.6,0.5,0.9,0.5,1c-0.4-0.5-1.1-1.5-1.5-2
							c1,1.4,2.4,3.4,3.6,5.2c0.6,0.9,1.3,1.7,1.8,2.3c0.5,0.6,0.9,1.1,1.1,1.3c0,0-0.6-0.8-1.2-1.5c-0.3-0.4-0.6-0.8-0.8-1.1
							c-0.3-0.3-0.4-0.5-0.4-0.5c0.8,1.1,1.7,2.2,2.6,3.3c0.4,0.6,0.9,1.2,1.3,1.7c0.3,0.3,0.4,0.6,0.7,0.9l0.7,0.8
							c2,2.2,3.9,4.6,6.1,6.8c1,1.1,2.1,2.2,3.1,3.3c1.1,1,2.2,2,3.3,3.1c2.1,2,4.3,3.8,6.4,5.6l-0.6-0.6c0.8,0.6,1.5,1.2,2,1.7
							c0.6,0.4,1.1,0.8,1.5,1.2c0.9,0.7,1.5,1.2,2.2,1.8c0.7,0.5,1.3,1.2,2.4,1.9c1,0.7,2.3,1.6,4.1,2.9l-0.3-0.2
							c1.5,1,3.5,2.2,5.6,3.6c-1.9-1.2,3.5,2.4,1,0.9c0.4,0.3,0.9,0.6,1.3,0.8s0.8,0.4,1.1,0.6c0.6,0.4,1.2,0.6,1.5,0.8
							c0.8,0.4,1.2,0.6,1.5,0.8c0.3,0.1,0.6,0.3,1,0.5c0.5,0.3,1.2,0.6,2.6,1.2l1.2,0.7c0.9,0.4,1.4,0.6,2.2,1s1.8,0.9,3.8,1.8
							c-3.4-1.4,2.5,1.3-1.3-0.3c2.1,1,4,1.9,5.6,2.6c1.7,0.7,3.2,1.2,4.5,1.7c1.3,0.5,2.5,1,3.6,1.3c1.1,0.4,2.1,0.8,3.1,1.2
							c2.1,0.5,0.2-0.1-2-0.9c-2.2-0.7-4.5-1.7-3.3-1.2c-0.9-0.4-0.1-0.1,1.3,0.4c1.4,0.4,3.5,1.1,4.9,1.6c0.7,0.3,1.3,0.5,2,0.8
							c0.7,0.3,1.4,0.5,2.3,0.8s1.9,0.6,3.1,1c0.6,0.2,1.3,0.4,2,0.6c0.8,0.2,1.6,0.4,2.5,0.6c-0.7-0.1-0.8-0.2-1.5-0.3
							c1.3,0.4,2.7,0.6,4.2,1c0.7,0.1,1.5,0.3,2.2,0.5c0.8,0.1,1.6,0.3,2.4,0.5c1.9,0.1,4.4,0.8,5,0.6l-6.8-1.2
							c1.9,0.3,3.8,0.6,6,0.9c1.1,0.2,2.3,0.3,3.6,0.4c1.3,0.1,2.7,0.3,4.3,0.6c-0.5,0-2.4-0.2-3.7-0.3c1,0.1,1.9,0.3,2.7,0.4
							c0.9,0.1,1.9,0.2,2.8,0.3c-0.1,0.1-0.8,0.1-1.6,0c-0.9-0.1-2-0.3-3.3-0.4c-1.3-0.1-2.6-0.3-4-0.5c-1.3-0.2-2.6-0.4-3.6-0.6
							c1,0.2,2.9,0.6,4.4,0.7c1.5,0.2,2.4,0.3,1.3,0.3c1.5,0,3.4,0.3,5.5,0.6c2.1,0.2,4.5,0.4,7,0.4l-0.3,0.1c0.8,0.1,2.5,0,4,0.1
							l-2.7,0.1c4.2-0.1,8,0.4,12,0.1c-4.2,0.1-4.6,0.1-4.5,0c0.1-0.1,0.9-0.1-0.9-0.2c1.3,0,2.3-0.1,3.2-0.1c0.9,0,1.6-0.1,2.2-0.1
							c1.2,0,2,0,2.8,0.1c0.8,0.1,1.7,0.1,3,0c1.3-0.1,3.3-0.1,6.1-0.4c-1.5,0.2-5.8,0.4-3.4,0.1c1.1-0.1,2.4-0.1,3.5-0.3
							c1.2-0.1,2.2-0.2,2.9-0.3c7.5-1-1.2,0,2-0.5c2.6-0.1,3.7-0.6,7-1.3l0.1,0.1c1.1-0.2,1.9-0.3,2.6-0.4c0.6-0.1,1.2-0.3,1.5-0.4
							c0.7-0.2,1-0.3,1.2-0.4c0.4-0.2,0.8-0.3,4.6-1.2l-3.1,1c0,0,1-0.3,2-0.5c0.5-0.1,1-0.3,1.3-0.3c0.4-0.1,0.6-0.2,0.6-0.2
							s-0.2,0.1-0.4,0.2c-0.2,0.1-0.4,0.2-0.4,0.2c2.1-0.6,3.5-1.1,4.9-1.5c0.7-0.2,1.4-0.4,2.2-0.6s1.6-0.5,2.7-0.8
							c-1,0.2,0.4-0.4,4.1-1.7c2.5-0.8-1.3,0.7,3.8-1.3c-0.6,0.3-1.2,0.6-1.9,0.9c-0.4,0.1-0.8,0.3-1.2,0.5c-0.4,0.1-1,0.3-1.5,0.4
							c-0.2,0.1-1.1,0.5-1.3,0.6c2.7-0.7,6.6-2.4,8.5-3.1c-0.7,0.3-1.5,0.6-2,0.8c0,0,0.4-0.2,1.2-0.5c0.7-0.3,1.6-0.6,2.5-1.1
							c1.8-0.8,3.6-1.7,3.6-1.7c1.2-0.4,0.3,0-0.6,0.4c0.7-0.3,1.3-0.6,2-1c0.7-0.3,1.5-0.7,2.5-1.3c-0.5,0.4-0.3,0.5-3.3,1.9
							c0,0,0.4-0.2,1.1-0.5c0.6-0.3,1.5-0.7,2.3-1.2c1.7-0.9,3.3-1.8,3.3-1.8c0.3-0.1,1.1-0.5,1.9-0.8c0.7-0.3,1.2-0.6,0.8-0.3
							c1.9-1,4-2.3,6.3-3.8c1.2-0.8,2.3-1.5,3.5-2.3c1.2-0.8,2.4-1.5,3.5-2.3c0.2-0.2,0.7-0.5,1.6-1.2c1.1-0.8,2.1-1.5,3.1-2.2
							c1-0.8,2-1.5,3-2.3c1-0.8,2-1.6,3.1-2.5c1-0.9,2.1-1.9,3.3-2.9c0,0,0.7-0.5,1.4-1.1c0.7-0.5,1.3-1.1,1.3-1.1
							c3.5-3.4-3.6,3.1,2.1-2.6c2-2,2.4-2.3,2.6-2.3c0.1,0-0.1,0.3,0.6-0.4c1-1.1,2.2-2.5,3.7-4.2c0.2-0.2,0.4-0.4,0.6-0.6
							c0.2-0.2,0.4-0.4,0.6-0.6c0.4-0.4,0.8-0.9,1.2-1.4c0.8-1,1.7-1.9,2.6-2.9C466.2,449.1,465.3,450.1,464.3,451.3z M494.1,400.4
							c-0.2,0.6-0.4,1.4-0.6,2.2c-0.3,0.8-0.6,1.5-0.8,1.9c0.1-0.6,0.3-1.2,0.6-1.8C493.5,402,493.8,401.3,494.1,400.4z
							 M497.4,311.5c0.3,0.8,0.5,2.1,0.8,3.6C498,314.1,497.7,312.9,497.4,311.5z M300.6,207c0.1,0,0.1,0,0.1-0.1
							C303.2,206.2,302.3,206.5,300.6,207z M295.7,208.8c-0.5,0.2-0.4,0.2-0.3,0.1c0.3-0.2,1.4-0.6,2.7-1.1
							C297.8,207.9,297.1,208.1,295.7,208.8z M313.7,497l1,0.3C312.4,496.7,313.1,496.9,313.7,497z"/>
						<path fill="#1D1D1D" d="M499.8,321.4c0,0.3,0,0.4,0,0.5C499.9,322.4,500,322.4,499.8,321.4z"/>
						<path fill="#1D1D1D" d="M436.7,475.9l-0.1,0.1c-0.1,0.1-0.1,0.1-0.1,0.1L436.7,475.9z"/>
						<path fill="#1D1D1D" d="M376.3,199.7c1.1,0.2,1.7,0.3,2,0.4C378.5,200.1,378,200,376.3,199.7z"/>
						<path fill="#1D1D1D" d="M270.7,221.4c0,0,0.2-0.1,0.4-0.3c0.3-0.2,0.6-0.4,1-0.6c0.7-0.4,1.5-0.8,1.5-0.8
							c-1.4,0.8-1.9,1.1-2.6,1.5C271,221.1,271.6,220.8,270.7,221.4z"/>
						<path fill="#1D1D1D" d="M246.7,238.4c-0.4,0.3-0.8,0.8-1.1,1.1l0.1-0.1C247.3,238,248.3,237,246.7,238.4z"/>
						<path fill="#1D1D1D" d="M267.8,222.6c-0.1,0-0.6,0.3-1.4,0.8c-0.4,0.3-0.8,0.5-1.2,0.8c-0.4,0.3-0.9,0.6-1.4,1
							c0.1-0.1,0.3-0.2,0.3-0.3c-0.3,0.3,0.1,0.1,0.8-0.4C265.7,224,266.8,223.3,267.8,222.6z"/>
						<path fill="#1D1D1D" d="M263.4,225.6c-0.6,0.4-1.2,0.8-1.8,1.3C261.4,227,262.3,226.3,263.4,225.6z"/>
						<path fill="#1D1D1D" d="M289.5,211.4c-1,0.4-0.6,0.4-1.2,0.6c-0.5,0.3,1.2-0.5,2.3-1.1c0.6-0.3,1-0.5,0.9-0.5
							C291.4,210.5,290.9,210.7,289.5,211.4z"/>
						<polygon fill="#1D1D1D" points="265.9,223.3 266.8,223 267.8,222.2 						"/>
						<path fill="#1D1D1D" d="M282.3,214l-3.4,1.7c0.1,0-0.4,0.3-0.9,0.5C280.1,215.2,282.4,214,282.3,214z"/>
						<path fill="#1D1D1D" d="M278,216.2c-1.1,0.6-2,1.2-2.6,1.5C275.9,217.5,277.1,216.7,278,216.2z"/>
						<path fill="#1D1D1D" d="M270.3,220.5c0,0,0.3-0.1,0.5-0.3c0.3-0.1,0.5-0.3,0.5-0.3l2.4-1.3c0,0-0.8,0.4-1.7,1
							C271.1,219.9,270.3,220.5,270.3,220.5z"/>
						<path fill="#1D1D1D" d="M320.9,201l4.1-0.8c0.4-0.1-0.7,0.1-2.2,0.3C321.7,200.7,320.3,201,320.9,201z"/>
						<path fill="#1D1D1D" d="M308.6,203.5c1.1-0.3,1.2-0.3,1.8-0.4l0.1-0.3L308.6,203.5z"/>
						<path fill="#1D1D1D" d="M320.3,200.6c0.4-0.1,5.9-1.2,0.7-0.3c-0.2,0.1-1.3,0.3-1.9,0.4c-0.3,0.1-0.4,0.1-0.3,0.1
							C318.9,200.8,319.4,200.7,320.3,200.6z"/>
						<polygon fill="#1D1D1D" points="382.6,201.4 381.5,201.2 381.6,201.5 						"/>
						<path fill="#1D1D1D" d="M433.6,222.1c-4.2-2.7-1.1-0.5-4.8-2.9c-0.5-0.3,0.3,0.2,1,0.7c0.8,0.5,1.5,1,1,0.7
							C433.4,222.1,434.7,223,433.6,222.1z"/>
						<path fill="#1D1D1D" d="M430.8,220.5c-0.4-0.3-0.8-0.5-1.3-0.8C430.2,220.2,430.6,220.4,430.8,220.5z"/>
						<path fill="#1D1D1D" d="M199,358.7c0,0,0-0.2,0-0.5s0-0.7,0-1.1c0-0.8,0-1.6,0-1.6l-0.1,2c0,0,0,0.3,0.1,0.6
							C199,358.4,199,358.7,199,358.7z"/>
						<path fill="#1D1D1D" d="M198.6,352.6l0.2-0.8l-0.3-1.9C198.6,350.7,198.6,352.1,198.6,352.6z"/>
						<path fill="#1D1D1D" d="M497.2,392.1v-0.3c-0.2,0.4-0.4,1.2-0.8,2.6L497.2,392.1z"/>
						<polygon fill="#1D1D1D" points="479.5,431.3 479.9,430.7 479,431.8 						"/>
						<path fill="#1D1D1D" d="M457,459.7c0.5-0.5,1.2-1.1,1.7-1.7c0.6-0.6,1.1-1.2,1.6-1.7C458.1,458.7,456.5,459.7,457,459.7z"/>
					</g>
				</g>
			</g>
		</g>
	</g>
	<g>
		<g>
			<g>
				<g>
					<g>
						<path fill="#1D1D1D" d="M228.2,349.1c-0.1,1.2,0.1,0.7,0.1,0.9C228.4,348.1,228.2,349.2,228.2,349.1z"/>
						<polygon fill="#1D1D1D" points="229.5,330.5 229.5,330.8 229.8,328.1 						"/>
						<path fill="#1D1D1D" d="M233.4,313.5c-0.4,0.8-0.8,2.3-1.2,4c-0.2,0.8-0.5,1.7-0.6,2.6c-0.2,0.9-0.4,1.7-0.6,2.5l-0.2,0.5
							l-0.1,1.4c0.2-0.9,0.4-1.9,0.6-2.9c0.3-1,0.4-2,0.7-3C232.5,316.6,233.1,314.7,233.4,313.5z"/>
						<path fill="#1D1D1D" d="M237.1,304.9c-0.3,0.5,0.6-1.9-0.8,2c0.1-0.2,0.1-0.3,0.2-0.4C236.6,306.2,236.8,305.7,237.1,304.9z"
							/>
						<path fill="#1D1D1D" d="M236.4,306.5C235.7,308.2,236.9,305.4,236.4,306.5L236.4,306.5z"/>
						<path fill="#1D1D1D" d="M239.6,298.7l-0.9,2.2c0.3-0.4,1.2-2.4,0.8-1.7C240.6,297,240.3,297.4,239.6,298.7z"/>
						<path fill="#1D1D1D" d="M240.5,296.5c0,0-0.1,0.3-0.3,0.6c-0.1,0.3-0.3,0.6-0.3,0.6C240.1,297.5,240.2,297.2,240.5,296.5z"/>
						<path fill="#1D1D1D" d="M238.9,300.2l1-2.4c-0.2,0.3-0.3,0.3-0.4,1.2C239.5,298.6,239.4,299.1,238.9,300.2z"/>
						<path fill="#1D1D1D" d="M238.3,301.5c-0.3,0.6-0.6,1.3-0.8,1.6c-0.1,0.3-0.1,0.1,0.3-1c-0.9,2.2-1.2,3.1-1.1,2.9
							c0.1-0.1,0.2-0.4,0.4-1C237.5,303.4,237.8,302.6,238.3,301.5z"/>
						<path fill="#1D1D1D" d="M233.5,312.5c0,0-0.2,0.4-0.3,0.8c-0.2,0.4-0.3,0.9-0.3,0.9l-0.4,1.5c0.1-0.4,0.3-1.2,0.6-2
							C233.3,313.1,233.6,312.5,233.5,312.5z"/>
						<path fill="#1D1D1D" d="M246.9,285.5c0.1-0.1-0.6,0.6-0.7,0.7c0,0-0.3,0.4-0.4,0.8c-0.2,0.4-0.4,0.8-0.4,0.8
							C245.8,287.1,246.8,285.6,246.9,285.5z"/>
						<path fill="#1D1D1D" d="M246.2,286.3l1.3-2.3C246.4,286,246.1,286.4,246.2,286.3z"/>
						<path fill="#1D1D1D" d="M240.5,296.1c0,0-0.5,1-0.9,2c-0.4,1-0.8,2-0.8,2s0.5-1.2,1-2.4C240,297.1,240.3,296.5,240.5,296.1
							c0.3-0.4,0.4-0.8,0.4-0.8L240.5,296.1z"/>
						<path fill="#1D1D1D" d="M252.7,277.2c0,0-0.2,0.3-0.4,0.6c-0.2,0.3-0.4,0.6-0.4,0.6s0.4-0.6,0.7-1.2c0.4-0.6,0.8-1.1,0.8-1.1
							L252.7,277.2z"/>
						<path fill="#1D1D1D" d="M256.9,271.9c-0.6,0.9,1.2-1.1,0.4-0.1c1.2-1.4,2.1-2.6,3.1-3.7C259.3,269.1,258.3,270.3,256.9,271.9z
							"/>
						<path fill="#1D1D1D" d="M261.9,266.2c-0.5,0.6-1,1.2-1.5,1.8C260.9,267.4,261.4,266.8,261.9,266.2z"/>
						<path fill="#1D1D1D" d="M250.2,280.2c0.1-0.1,0.4-0.4,1.3-1.7l-0.7,0.8C250.6,279.7,250.4,279.9,250.2,280.2z"/>
						<path fill="#1D1D1D" d="M250.8,279.4L250.8,279.4c0.7-1,1.2-1.6,1.3-1.9C251.9,277.7,251.5,278.3,250.8,279.4z"/>
						<path fill="#1D1D1D" d="M250,280.4c0.1-0.1,0.1-0.1,0.1-0.2C250.1,280.3,250.1,280.4,250,280.4z"/>
						<path fill="#1D1D1D" d="M243.9,290c0.7-1.4,2.3-4.3,0.6-1.6C244,289.4,244.9,287.9,243.9,290z"/>
						<path fill="#1D1D1D" d="M249.1,281.4c0,0-0.1,0.1-0.3,0.4c-0.1,0.2-0.3,0.5-0.5,0.8c-0.4,0.6-0.8,1.2-0.8,1.2
							c0.1,0,0.4-0.4,0,0.3c0,0,0.4-0.6,0.8-1.3c0.2-0.3,0.4-0.6,0.5-0.9C249,281.6,249.1,281.4,249.1,281.4z"/>
						<polygon fill="#1D1D1D" points="249.9,280.2 249.1,281.4 249.7,280.6 						"/>
						<path fill="#1D1D1D" d="M258.5,269.7c0.4-0.5,0.8-1,1.2-1.5s1-1,1.5-1.6c-0.6,0.6-1.2,1.2-1.7,1.8c-0.5,0.6-1.1,1.2-1.6,1.9
							C257.8,270.5,257.4,271,258.5,269.7z"/>
						<path fill="#1D1D1D" d="M254.6,274.3c0.1-0.1,0.1-0.1,0.2-0.2C254.7,274.2,254.6,274.3,254.6,274.3z"/>
						<path fill="#1D1D1D" d="M272.1,256.4c-0.1,0.1-0.1,0.1-0.2,0.1v0.1L272.1,256.4z"/>
						<path fill="#1D1D1D" d="M257.7,270.5c-0.8,0.9-1.3,1.5-1.7,2c0.6-0.7,1.2-1.4,1.9-2.2C257.9,270.1,257.9,270.1,257.7,270.5z"
							/>
						<path fill="#1D1D1D" d="M264.8,263.2c-0.5,0.4-1,0.9-1.5,1.5C263.6,264.2,264.6,263.4,264.8,263.2z"/>
						<path fill="#1D1D1D" d="M255.1,273.8c-0.1,0.1-0.1,0.1-0.1,0.1C255.2,273.7,255.2,273.7,255.1,273.8z"/>
						<path fill="#1D1D1D" d="M255.1,273.8c0.4-0.5,0.6-0.9,1-1.3c-0.4,0.6-0.8,1.2-1.2,1.6C254.9,274,255,273.8,255.1,273.8z"/>
						<path fill="#1D1D1D" d="M275.1,252.9c-0.1,0.1-0.7,0.7-1.6,1.5c-0.4,0.4-1,0.8-1.5,1.2c-0.5,0.4-1.1,0.9-1.7,1.3
							c-2,1.9-0.4,1,1.6-0.4c0.1-0.1-0.1-0.2,2.1-2c-0.9,0.5-4.9,3.9-3.1,2.2c1.4-1.3,2-1.7,2.4-2c0.4-0.3,0.7-0.4,1.4-1
							c-0.6,0.4,0.3-0.4,1.2-1.2c1-0.9,2-1.7,1.7-1.5c0,0-0.2,0.1-0.4,0.3c-0.3,0.2-0.6,0.4-0.9,0.7c-0.6,0.5-1.3,1-1.3,1
							C274.9,253.1,275.8,252.4,275.1,252.9z"/>
						<path fill="#1D1D1D" d="M267.8,260l-0.8,0.8c1-0.9,1.7-1.5,3.1-2.6c1.4-1.3,1.7-1.6,1.7-1.7c0,0-1.1,1-2.2,1.9
							c-0.5,0.4-1.1,1-1.5,1.3c-0.4,0.4-0.6,0.6-0.6,0.6L267.8,260z"/>
						<path fill="#1D1D1D" d="M263.2,264.5c0.1-0.2,0.3-0.4,0.6-0.7c0.3-0.3,0.5-0.6,0.7-0.8c0.4-0.4,0.6-0.6-0.1-0.1
							c-0.6,0.6-1,1-1.3,1.3c-0.3,0.3-0.4,0.5-0.6,0.6c-0.3,0.3-0.4,0.6-1.1,1.3C265.2,262.1,260.4,267.3,263.2,264.5
							c-0.8,0.8-1.4,1.5-2,2.2c0.7-0.7,1.3-1.3,2-2c-0.1,0.1-0.1,0.1-0.1,0.1l0,0l0,0c-0.2,0.1-0.3,0.2-0.1,0l0.1-0.1
							C263.1,264.6,263.2,264.5,263.2,264.5c1.1-1.2,0.2-0.1-0.1,0.2c0,0-0.1,0.1,0,0.1l0,0c0,0,0.3-0.3,0.6-0.6s0.8-0.8,1.3-1.3
							c1-1,2-1.9,2-1.9c-0.4,0.4-0.9,0.8-1.5,1.4c-0.3,0.3-0.6,0.6-1,1S263.7,264,263.2,264.5z"/>
						<path fill="#1D1D1D" d="M245.7,285.7c0.1-0.1,0.1-0.1,0.1-0.1C246,285.2,246.1,285.1,245.7,285.7z"/>
						<path fill="#1D1D1D" d="M247,283.8c-0.2,0.3-0.3,0.6-1,1.7c-0.6,1-0.1-0.1-0.1,0c-0.4,0.7-1.3,2.4,0,0.3l0.2-0.3
							c1.2-1.9,2.9-4.2,2.7-3.8C248.3,282.2,247.9,282.6,247,283.8z"/>
						<path fill="#1D1D1D" d="M254.7,273.5c0,0,0.2-0.3,0.4-0.6c0.3-0.3,0.6-0.8,1-1.2c0.8-0.9,1.5-1.7,1.5-1.7l-1.6,1.7l0.1-0.1
							C254.4,273.6,254.9,273.3,254.7,273.5z"/>
						<path fill="#1D1D1D" d="M272.5,256.1l-0.4,0.5c0,0,0.4-0.5,1-0.9c0.5-0.4,1-0.9,1-0.9L272.5,256.1z"/>
						<path fill="#1D1D1D" d="M277.1,252.4l-0.1,0.3c0,0,0.1-0.1,0.2-0.1c0.1-0.1,0.3-0.2,0.4-0.3c0.3-0.3,0.6-0.5,0.6-0.5
							L277.1,252.4z"/>
						<path fill="#1D1D1D" d="M456.1,412.9l-0.6,1.2C455.8,413.4,455.9,413.1,456.1,412.9z"/>
						<path fill="#1D1D1D" d="M460.8,404.2l0.1-0.3C460.7,404.3,460.6,404.5,460.8,404.2z"/>
						<path fill="#1D1D1D" d="M414.1,246.4c1.6,1.2,3.3,2.5,3.2,2.2l-0.4-0.4C415.7,247.5,414.8,246.9,414.1,246.4z"/>
						<path fill="#1D1D1D" d="M470.2,325.9c0-0.2-0.1-0.4-0.1-0.6c-0.1-0.4-0.3-0.9-0.4-1.3C469.9,324.6,470.1,325.2,470.2,325.9z"
							/>
						<path fill="#1D1D1D" d="M471,327.1l0.4,2.6C471.3,329.1,471.2,328.3,471,327.1z"/>
						<path fill="#1D1D1D" d="M419.8,451.9c0,0-0.3,0.3-0.6,0.5c-0.3,0.3-0.6,0.5-0.6,0.5C420.7,451.5,419.7,452,419.8,451.9z"/>
						<path fill="#1D1D1D" d="M332.7,229.4c1.7-0.1,3-0.3,4.2-0.4C334.8,229.2,333.2,229.2,332.7,229.4z"/>
						<path fill="#1D1D1D" d="M456.7,408.8c-0.4,0.7-0.5,1-0.5,1C456.6,409.1,456.8,408.6,456.7,408.8z"/>
						<path fill="#1D1D1D" d="M341.7,228.6c-0.3,0-0.6,0-0.9,0.1c-1.2,0.1-2.5,0.2-4,0.4C338.3,228.8,340,228.8,341.7,228.6z"/>
						<path fill="#1D1D1D" d="M247.7,419c-0.1-0.1-0.1-0.3-0.3-0.4C247.4,418.6,247.6,418.7,247.7,419z"/>
						<path fill="#1D1D1D" d="M229.2,366.2c0.1,0.6,0.2,1.5,0.3,2.3C229.4,368.1,229.3,367.5,229.2,366.2z"/>
						<path fill="#1D1D1D" d="M297.5,240.2C296.4,240.7,297.4,240.2,297.5,240.2L297.5,240.2z"/>
						<path fill="#1D1D1D" d="M291.8,242.5c0.3-0.1,0.4-0.3,0.4-0.3C292.1,242.2,292,242.3,291.8,242.5z"/>
						<path fill="#1D1D1D" d="M354.2,227.5c0.1,0,0.1,0,0.1,0C354,227.5,354,227.5,354.2,227.5z"/>
						<path fill="#1D1D1D" d="M295.8,240.9c0.4-0.2,0.9-0.4,1.5-0.7C297.1,240.3,296.6,240.5,295.8,240.9z"/>
						<path fill="#1D1D1D" d="M296.1,240.9c-0.4,0.2-0.7,0.3-1,0.5C294.9,241.5,295.1,241.4,296.1,240.9z"/>
						<path fill="#1D1D1D" d="M299.1,239.5c-0.6,0.3-1.3,0.6-1.9,0.8c0.3-0.1,0.3-0.1,0.3-0.1C297.9,240,298.3,239.8,299.1,239.5z"
							/>
						<path fill="#1D1D1D" d="M333.8,471.9c-0.1,0-0.2,0-0.3-0.1C332.3,471.7,332.9,471.8,333.8,471.9z"/>
						<path fill="#1D1D1D" d="M440.3,266.2c-0.1-0.1-0.1-0.1-0.1-0.1C440.2,266.1,440.3,266.2,440.3,266.2L440.3,266.2z"/>
						<path fill="#1D1D1D" d="M443.4,269.6c-1.4-1.3-2.1-2.2-3.1-3.3c0,0,0.2,0.3,0.4,0.7c0.1,0.2,0.2,0.3,0.3,0.4
							c0.1,0.1,0.1,0.2,0.1,0.2L443.4,269.6z"/>
						<path fill="#1D1D1D" d="M442.3,431.8l2.2-2.4c-1.2,1.5-2.2,2.8-2.7,3.5c-0.5,0.6-0.4,0.6,0.6-0.4c0-0.1,0.5-0.8,1.3-1.8
							s1.8-2.1,2.7-3.3c1-1.2,1.9-2.5,2.6-3.5c0.7-1,1.1-1.7,1.1-1.9l1.3-1.7c-0.3,0.5-0.4,0.6-0.8,1.1c2.6-3.3,1.5-2.7,4.4-7.1
							c1-1.5,1.7-2.7,1.1-1.5l2-3.6c0.3-0.5,0.4-0.7,0.4-0.6c0,0.1-0.2,0.4-0.5,0.9c0,0,0.2-0.3,0.4-0.8c0.3-0.5,0.6-1.2,1-1.9
							c0.7-1.4,1.4-2.8,1.4-2.8v0.1c0.4-0.8,1.1-2.7,1.5-3.6c0.7-1.4-0.3,0.8-0.1,0.4c0,0,0.3-0.8,0.6-1.6c0.2-0.4,0.3-0.8,0.4-1.1
							c0.1-0.3,0.2-0.5,0.2-0.5c0.3-0.6,0.3-0.3-0.1,0.5s-0.8,2-1.3,3.1c0.9-1.4,1.2-2,1.6-3.2c0.4-1.2,1-2.7,2.3-5.9
							c0,0-0.1,0.2-0.1,0.5c-0.1,0.3-0.3,0.7-0.4,1.1c-0.3,0.8-0.6,1.5-0.6,1.5c0.5-1,1-2,1.5-3.3c0.4-1.3,1-2.7,1.7-4.5
							c-0.4,0.8-2.7,6.9-1.7,3.3c0.4-1,0.8-2.3,1.4-4.3c0.1,0,0.6-1.9,1.3-4.3l0.1,0.2c0.4-1.3,0.4-1.9,0.5-2.4
							c0.1-0.5,0.1-0.8,0.3-1.6c0.7-2.9,1-3.5,1.2-4.2c0.9-4.7-0.8,3.2,0.1-2.4c0.2-1,0.4-1.9,0.5-2.7c0.1-0.9,0.2-1.8,0.3-2.6
							c0.2-1.8,0.4-3.6,0.5-6.1c0.3-2.7,0.1,0.5,0.2-0.5v-2.5c0.1-0.6,0.1-0.4,0.1-0.3c0.1-2.1-0.2-0.2-0.1-3.5
							c-0.1-0.4,0.1-2.1,0.1-4.2c0-1,0-2.2,0-3.3s0-2.2-0.2-3.3c0-1,0.2,0.4,0.2,0.2c-0.3-2.7-0.4-4-0.5-5.1c-0.1-1.1-0.3-2-0.7-4.2
							c0,0-0.1-1-0.2-1.9c-0.1-0.5-0.1-1-0.2-1.3c-0.1-0.4-0.1-0.6-0.1-0.6c0.3,2.8-0.4-0.7-1.2-3.8c0.1,1,0.2,1.9,0.3,2.4
							c0,0-0.3-1.2-0.5-2.5c-0.1-0.6-0.3-1.2-0.4-1.7c-0.1-0.4-0.2-0.8-0.2-0.8c-0.1-0.6,0.1-0.1,0.3,0.6c-0.1-0.3-0.2-0.6-0.3-0.9
							c-0.3-1.8,0-0.9,0.4,0.3c0.1,0.6,0.2,1.2,0.3,1.8c0.3,1.2,0.7,2.4,0.8,2c-0.1-0.3-0.2-1-0.3-1.7c0.1,0.3,0.1,0.5,0.1,0.4
							c0-0.2-0.1-0.7-0.4-1.5l-0.1-1.2L470,323c0,0-0.3-1.7-0.7-3.3c-0.1-0.8-0.4-1.6-0.6-2.2c-0.1-0.6-0.3-1-0.3-1
							c-0.4-1.2-0.8-2.2-1.2-3.3c-0.4-1.1-0.9-2.2-1.3-3.4c-0.3-0.6-0.4-1.2-0.7-1.9c-0.3-0.6-0.6-1.3-0.9-2c-0.3-0.7-0.6-1.5-1-2.2
							c-0.3-0.8-0.6-1.6-1.1-2.4c0.9,1.7,0.4,0.3,0.6,0.3c0.3,1,0.8,2.4,1.5,3.9c0.3,0.8,0.7,1.6,1,2.5c0.3,0.9,0.6,1.8,1,2.7
							c-0.6-2-0.4-1.5-0.2-1.1c0,0-0.1-0.4-0.4-1c-0.1-0.3-0.3-0.6-0.4-1c-0.2-0.4-0.3-0.8-0.5-1.2c-0.7-1.6-1.4-3.2-1.4-3.2
							c0.1,0.1,0-0.3-0.2-0.9s-0.6-1.3-0.9-2.2c0.1,0.7-0.4-0.4-1.2-2.1c-0.2-0.4-0.4-0.8-0.6-1.3c-0.3-0.4-0.4-0.9-0.7-1.3
							c-0.4-0.9-0.9-1.7-1.3-2.4c0-0.2,0.4,0.3,2,3.5c-1.5-3.5-2.5-4.3-4.3-7.6c0.4,0.7,0.6,1.2,0.8,1.4c-0.5-0.8-1.4-2.3-2-3.5
							c-0.6-1.2-1.2-1.9-0.8-1.5l0.4,0.7c-0.8-1.2-1.7-2.7-2.7-4.3c-1-1.6-2.2-3.2-3.3-4.7c-1.1-1.5-2.2-2.7-3-3.8
							c-0.8-1-1.4-1.7-1.6-1.7c0-0.1,0.8,0.3,1,0.6c0,0-0.4-0.4-1.2-1.1c-0.7-0.6-1.6-1.5-2.5-2.4c-0.9-0.9-1.9-1.7-2.6-2.3
							c-0.7-0.6-1.2-1-1.2-1c0.8,0.5-1.2-2.4,2.2,0.9c-0.4-0.5-1-1-1.6-1.7s-1.4-1.5-2.5-2.4c0.6,0.6,1.4,1.9,0.5,1
							c-1.2-1.3-1.5-1.7-2-2.2c-0.3-0.3-0.5-0.5-0.9-0.9s-0.9-1-1.7-1.7c1,1-0.4,0.2-2-1.2c0.3,0.2,0.1-0.4,0.7,0.1
							c0,0-1.1-0.8-2.2-1.7c-0.5-0.4-1.1-0.8-1.5-1.1c-0.4-0.3-0.7-0.4-0.7-0.4c1.1,0.8,0.4-0.1-0.5-0.9c0.2,0.2-0.7-0.5-1.9-1.4
							c-1.2-0.8-2.5-1.8-3.1-2.2l1.8,1.4c-2.5-1.8-3.8-2.6-5.1-3.3c-0.6-0.3-1.3-0.7-2.2-1.2c-0.8-0.4-1.8-1.1-3.1-1.8
							c0.6,0.3,1.8,0.5-0.8-1.1c-0.3-0.1-0.8-0.4-1.5-0.6c-0.7-0.3-1.5-0.6-2.5-1s-2-0.8-3.1-1.3c-0.6-0.3-1.2-0.5-1.7-0.8
							c-0.6-0.3-1.2-0.5-1.8-0.8l-0.9-0.5c0,0-1-0.4-1.9-0.8c-0.4-0.2-1-0.4-1.3-0.5c-0.4-0.1-0.6-0.2-0.6-0.2c1.3,0.3,3.5,1.2,6,2
							c1.2,0.4,2.4,1,3.6,1.5c1.2,0.5,2.2,1,3.1,1.3c-2-1.2-0.5-0.4-3.6-2c-1-0.6,1.7,0.7,2.6,1.2c0,0-1.8-0.9-3.5-1.9
							c-0.9-0.5-1.8-0.9-2.5-1.2c-0.7-0.3-1.2-0.5-1.2-0.5c0.1,0.2-1.3-0.4-2.7-1c-1.4-0.5-2.9-1-2.7-0.9c0,0,0.5,0.2,1.3,0.4
							c0.4,0.1,0.8,0.3,1.3,0.4c0.4,0.2,1,0.4,1.5,0.6c2,0.8,4,1.7,4,1.7c0.1,0.2-1.1-0.2-2.9-0.9c-1-0.3-2-0.8-3.3-1.3
							c-1.2-0.4-2.5-1-3.8-1.5c-1.3-0.6,1.2,0.1,1-0.1c-0.2-0.1-0.6-0.2-1.1-0.4s-1.2-0.4-1.8-0.6c-1.3-0.4-2.5-0.8-2.7-0.9l2.3,0.6
							c-1.5-0.5-2.7-0.9-4-1.3c-1.3-0.4-2.7-0.7-4.5-1.3c-0.6-0.2-1.5-0.5-2.4-0.8c-0.8-0.3-1.5-0.4-1.6-0.4c2,0.7,2.2,1.5,0.8,1.4
							c-0.2-0.1-1.9-0.5-3.6-1c-0.4-0.1-0.9-0.3-1.3-0.4c-0.4-0.1-0.9-0.2-1.3-0.3c-0.8-0.2-1.5-0.3-1.8-0.4c-2-0.6,3.3,0.1,1.5-0.4
							c-0.1,0.1-1.3-0.1-1.7-0.1c-1.3-0.3,0.6-0.1-2.4-0.6c-0.5,0.1-6-0.8-1.4,0c-1.5-0.1-2.2-0.3-3-0.4c-0.8-0.1-1.7-0.3-3.4-0.4
							c0.5,0.1-0.3,0.2-1.5,0.2c-1.3,0.1-3-0.1-4.5-0.1c0.2-0.1-0.4-0.1-0.8-0.2c-1.5-0.1-2.8-0.1-4-0.1c-1.2,0-2.4,0-3.5,0.1
							c-1.1,0-2.2,0-3.4,0.1c-1.2,0.1-2.4,0.2-3.8,0.3c-0.5,0-3.2,0.1-2-0.1c-0.8,0.1-1.5,0.3-3.2,0.5c-3.3,0.3,3.8-0.5,1.3-0.4
							c-0.2,0.2-4.4,0.6-6.8,1.2c0.2,0,0.6-0.1,1.2-0.1c0.6-0.1,1.3-0.3,2.1-0.3c1.6-0.3,3.4-0.5,4.6-0.7c0,0.1-1,0.4-2.7,0.8
							c-0.9,0.2-1.9,0.3-3.1,0.6c-1.2,0.3-2.5,0.5-3.9,0.8c-2.2,0.4-2.7,0.6-2.7,0.5c-0.1-0.1,0.4-0.2,0-0.1
							c-2.1,0.4-3.6,0.8-4.7,1.2c-1.2,0.4-2,0.6-2.7,1c-0.8,0.3-1.5,0.5-2.5,0.8s-2.2,0.7-3.8,1.2c-2.7,0.8-0.3-0.3-0.9-0.2
							c1.8-0.6,3.1-1.1,4.3-1.4c1.3-0.3,2.4-0.6,3.6-1l-3,0.8c1.2-0.4,3.5-1.1,4.9-1.4c-0.6,0.1-1.7,0.4-3.3,0.8
							c-0.8,0.2-1.6,0.4-2.6,0.7c-0.9,0.3-1.9,0.6-2.9,1c-1,0.3-2,0.6-3,1c-1,0.4-2,0.8-3,1.2c-1,0.4-2,0.7-2.9,1.2
							c-0.9,0.4-1.7,0.8-2.5,1.1c-1.1,0.5-2.9,1.4-2,1.1l1.9-0.9c1.8-0.6-3.5,1.8-1.1,0.8c-0.3,0.1-0.6,0.3-1,0.4
							c-0.3,0.2-0.6,0.4-1,0.5c-0.6,0.4-1.3,0.8-2,1.2c-0.7,0.4-1.5,0.8-2.2,1.2c-0.8,0.4-1.6,0.9-2.5,1.4l-0.8,0.2
							c0.1,0,2.3-1.2,3.3-1.8c-0.7,0.4-2,1.2-3.4,1.9c-0.7,0.4-1.3,0.7-2,1.1c-0.6,0.4-1.1,0.8-1.4,1c0,0,0.6-0.3,1.2-0.7
							c0.3-0.2,0.6-0.3,0.8-0.4c0.3-0.1,0.4-0.2,0.4-0.2c-0.6,0.4-1.2,0.8-1.9,1.2c-0.6,0.4-1.3,0.9-2,1.4c-0.7,0.5-1.4,1-2.1,1.5
							c-0.7,0.5-1.4,1-2.1,1.5c1.4-0.8,0.6-0.5,2.8-1.7c-2,0.9,7.5-4.8,4.5-3.2c1.2-0.5,2.2-1.1,3.2-1.7c1.1-0.6,2.2-1.2,3.7-1.9
							c-0.1,0-1.1,0.4,1.5-0.9c0.1-0.1,0.4-0.3,0.6-0.3c0.1-0.1,0.1-0.1,0.2-0.1c-0.1,0-0.1,0.1-0.1,0.1c0.1-0.1,0.1-0.1-0.1,0
							c-0.6,0.3-1.2,0.5-1.4,0.6c0.6-0.4,2-1.2,3.3-1.9c1.4-0.6,2.8-1.3,3.5-1.7c1.6-0.7-0.6,0.4,0.3,0.1c0,0,0.5-0.3,1.1-0.5
							c0.5-0.3,1.1-0.5,1.1-0.5c0.3,0.1,4.4-1.5,0.6,0.1l3.5-1.3c1-0.4,2.3-0.7,3.5-1.1c1.2-0.4,2.3-0.8,3.2-1.1
							c1.7-0.4,4.2-1.3,2.7-0.8c0,0,1.4-0.4,2.8-0.8c1.4-0.3,2.8-0.7,2.8-0.7h0.1c2.7-0.7,5.7-1.2,8.7-1.8c3-0.4,6.1-0.9,9.5-1
							c1-0.1,1.9-0.2,3.1-0.3c1.2-0.1,2.4-0.1,4.1-0.1l0.6,0.1c1.2-0.1,3.1,0,4.8,0.1c1.7,0.1,3.2,0.1,3.7,0.1
							c0.6,0.1,1.7,0.3,3.1,0.4c0.6,0.1,1.3,0.1,2.1,0.2c0.8,0.1,1.5,0.2,2.3,0.3c0.8,0.1,1.6,0.2,2.4,0.3c0.8,0.1,1.6,0.2,2.4,0.3
							c1.5,0.3,2.9,0.5,4,0.7l0.2-0.1c0.4,0.1,0.7,0.1,1.1,0.2c0.4,0.1,0.7,0.2,1.1,0.3c0.7,0.2,1.5,0.3,2.2,0.5
							c0.8,0.2,1.5,0.3,2.4,0.5c0.8,0.2,1.7,0.4,2.6,0.6l-0.2-0.2c1.5,0.4,3.6,0.9,5.7,1.7c1.1,0.4,2.2,0.8,3.4,1.2
							c1.2,0.4,2.3,0.9,3.5,1.4c-0.3-0.1-1.5-0.6-2.4-0.9c5.6,2.4,11.9,4.9,16.6,7.7c1.2,0.6,2,1.2,2.9,1.7
							c-0.1-0.1-0.2-0.1-0.3-0.2c0.1,0.1,0.3,0.2,0.5,0.3c0.5,0.3,1,0.6,1.6,1.1c-0.4-0.3-0.9-0.6-1.3-0.9c0.9,0.5,2.2,1.4,3.6,2.2
							l0.4,0.5c0.1,0.1,0.2,0.1,0.3,0.2c1.3,0.9,1.1,0.6,0.4,0.1c0.7,0.4,1.3,0.8,1.8,1.1c0.4,0.4,1.3,1,2.2,1.7
							c0.4,0.3,0.9,0.6,1.3,1c0.4,0.3,0.8,0.6,1.1,1c0.4,0.3,2,1.5,3.6,2.6c1.5,1.2,3,2.4,3.4,2.6c0,0.1,0.4,0.4-0.3-0.2
							c1.3,1.2,2.6,2.4,3.8,3.5l0.4,0.6c0,0,0.8,0.6,1.5,1.2c0.7,0.6,1.4,1.3,1.4,1.3c1.5,1.8,2.1,2.5,0.4,1c1,1,1.7,1.7,2.2,2.2
							c0.5,0.6,0.9,1,1.2,1.3c0.7,0.8,1.3,1.4,2.9,3.2l-0.3-0.1c1,1.3,2.9,3.4,3.4,4.2c0.5,0.8,1.4,2.2,2.6,3.9
							c0.3,0.4,0.6,0.9,1,1.3c0.3,0.5,0.6,1,1,1.5c0.6,1,1.3,2.2,2.1,3.3c2.7,4.7,5.6,10.2,7.5,14.7c-0.3-1,0.3,0.1,0.7,1.4
							c0.4,1.3,1,2.9,1.2,3.1c0.1,0.6,0.6,1.9-0.1,0.4c0.3,0.6,0.4,1.1,0.6,1.6s0.3,1,0.5,1.5c0.3,1,0.6,1.8,0.8,2.6
							c0.6,1.6,1,3,1.5,4.6c0.1,0.6-0.4-1-0.3-0.5c0.1,0.4,0.5,1.5,0.6,2c0.1,0.5-0.3-0.7-0.5-1.4c0.3,1.2,0.6,2.2,0.9,2.9
							c0.2,0.8,0.4,1.3,0.5,1.7c0.3,0.8,0.4,1,0.6,1.1c0.3,1.3,0.4,2.2,0.6,3.1c0.2,0.8,0.3,1.6,0.6,2.6c0.1,0.9,0.3,2.4-0.3-0.7
							c0.1,0.4,0.3,1.3,0.4,2.4c0.1,0.5,0.2,1.2,0.3,1.7c0.1,0.6,0.1,1.3,0.3,1.9c0.3,2.5,0.6,4.8,0.7,4.9c0,0.6,0.2,2.5,0.3,2.9
							c0.1,1,0.1,1.8,0.2,2.4c0.1,0.6,0,1.2,0.1,1.7c0,1.1,0.1,2.1,0.1,4.1V348c0.3,1.5,0.1,3.3,0,6.4v-0.1
							c-0.1,1.8-0.2,2.9-0.3,3.6c-0.1,0.8-0.1,1.2-0.1,1.5c0,0.4-0.1,0.8-0.1,1.5c-0.1,0.4-0.1,0.8-0.1,1.4
							c-0.1,0.6-0.2,1.3-0.3,2.2l0.2-0.4c0.1,0.3-0.1,1.9-0.4,3.9c-0.4,2-1,4.3-1.3,6.4c0,0,0.1-0.4,0.2-0.7
							c0.1-0.4,0.2-0.7,0.2-0.7c-0.1,1.2-0.6,2.6-1.1,4.2c-0.5,1.5-1,3-1.3,4.1c-0.2,0.4,0.2-0.8,0.3-1.4c-1.8,5.7,0,0.8-1.2,5.1
							c-0.2,0.4-0.1,0.1-0.2,0.1c0,0-0.1,0.1-0.2,0.3c-0.1,0.3-0.3,0.6-0.4,1.3c-0.3,0.7-0.9,2.7-1.6,5.1c-0.4,1.2-0.9,2.4-1.3,3.6
							c-0.3,0.6-0.4,1.2-0.7,1.7c-0.3,0.5-0.5,1-0.7,1.5c0.4-0.8,0.9-1.5,0.1,0.3c-1.2,2.9-3.9,7.5-5.1,10.2
							c-0.2,0.3-0.3,0.4-0.3,0.4c-0.3,0.5-0.6,1.2-1.1,2c-0.4,0.8-0.9,1.6-1.3,2.4c-1,1.6-1.9,3.1-2.2,3.7c-0.4,0.4-1.2,1.3-2,2.6
							c-0.9,1.2-1.9,2.7-2.9,4.1c-1,1.3-2,2.7-2.8,3.6c-0.8,0.9-1.3,1.5-1.4,1.4c0,0-0.3,0.3-0.8,0.9c-0.4,0.5-1,1.2-1.7,1.9
							c-1.3,1.3-2.6,2.7-2.6,2.7l0.1-0.2c-0.4,0.4-0.8,0.8-1.2,1.2c-0.3,0.4-0.7,0.6-1,1c-0.6,0.6-1.1,1.1-1.5,1.5
							c-0.8,0.9-1.4,1.5-2,2.1c-0.8,0.7-0.3,0.1-0.3,0.1c-2.7,2.2-4.1,3.5-5.5,4.5c-0.7,0.6-1.3,1.1-2.1,1.7
							c-0.8,0.6-1.7,1.3-2.8,2.2l-0.6,0.2c-1.2,1.1-8.4,5.4-14.3,8.7c0.1-0.1,0.2-0.1,0.6-0.4c-3.3,1.9-7.5,3.7-11.3,5.1
							c-0.9,0.4-1.8,0.7-2.6,1c-0.4,0.2-0.8,0.3-1.2,0.4c-0.4,0.1-0.8,0.3-1.2,0.4c-1.4,0.5-2.6,1-3.1,1.3c0,0-0.3,0.1-0.8,0.3
							c-0.4,0.2-1,0.4-1.7,0.6c-1.2,0.4-2.4,0.8-2.4,0.8c6.3-1.7-0.9,0.5,1.7-0.1c-1.2,0.4-2.9,0.8-3.8,1c-1,0.2-1.2,0.2,0.4-0.3
							l0.5-0.1c1.1-0.5-7.9,1.8-7.8,1.5c-1.6,0.3-3.1,0.6-4.7,0.8c-1.6,0.3-3.1,0.4-4.7,0.6c-0.8,0.1-1.6,0.2-2.4,0.3
							c-0.8,0.1-1.6,0.1-2.4,0.2c-1.6,0.1-3.1,0.3-4.7,0.3c-1.5,0-3.1,0.1-4.7,0.1c-1.5,0-3.1-0.1-4.6-0.1c-0.8,0-1.5,0-2.3-0.1
							c-0.8-0.1-1.5-0.1-2.3-0.2c-0.8-0.1-1.5-0.1-2.2-0.2c-0.8-0.1-1.5-0.1-2.2-0.2c0,0,0.3,0.1,0.7,0.2c0.3,0.1,0.7,0.2,0.7,0.2
							s-0.3,0-0.6-0.1c-0.4-0.1-0.9-0.1-1.4-0.2c-1-0.1-2.1-0.3-2.1-0.3c-1.1-0.2-1.5-0.4,1.5,0c-0.8-0.2-2-0.3-3.1-0.4
							c-1.1-0.1-1.9-0.2-2-0.2c-5.8-1.2,2.3,0.1,0.5-0.2l-2.4-0.4l0.5,0.1c-1-0.1-1.5-0.2-2.2-0.3c-0.4-0.1-0.8-0.1-1.3-0.2
							c-0.5-0.1-1.2-0.3-2.1-0.4c-2.2-0.6-1.1-0.4-2-0.6c0,0-0.1,0-0.3-0.1c-0.2-0.1-0.5-0.1-1.1-0.3c0,0-0.3-0.1-0.8-0.2
							c-0.4-0.1-1.1-0.3-1.7-0.5c-1.3-0.4-2.6-0.7-2.6-0.7l2,0.8c-1.2-0.3-2.4-0.6-2.9-0.8c-0.3-0.1-0.4-0.1-0.4-0.1
							c0.1,0.1,0.3,0.2,0.9,0.4c-1.7-0.7-6.3-2.2-10.7-4c-1.1-0.4-2.2-1-3.2-1.4c-1-0.4-2-0.9-2.8-1.3c-1.7-0.8-2.9-1.5-3.5-1.8
							c-0.8-0.4-1.5-0.7-2.2-1.1c-0.7-0.4-1.5-0.8-2.2-1.2c-1.5-0.8-3.1-1.7-4.7-2.9c0.8,0.6,1.2,1.1-1.7-0.8
							c0.3,0.1,0.2-0.1-0.3-0.4c-0.4-0.3-1.2-0.8-2-1.5c-0.8-0.6-1.8-1.3-2.7-2c-0.4-0.3-0.8-0.6-1.2-1s-0.7-0.6-0.9-0.8
							c0.9,0.8-1-0.6-2.8-2c-0.9-0.7-1.7-1.4-2.2-1.7c-0.4-0.3-0.5-0.3,0.2,0.4c-2.2-1.9,0-0.3-1.6-1.7
							c-5.3-4.4-10.9-10.5-16.1-17.2c-0.1-0.1,0.7,1.1-0.5-0.3c0,0-0.1-0.3-0.4-0.6c-0.3-0.3-0.6-0.8-0.8-1.3
							c-0.6-1-1.2-1.9-1.2-1.9c-0.5-0.7-0.8-1-1.2-1.3c-0.2-0.2-0.4-0.4-0.6-0.8c-0.3-0.4-0.5-0.8-0.9-1.5c0.2,0.4,0.5,1-0.1,0.1
							c-4.4-7-8.4-14.6-11.5-22.6c-3.1-7.9-5.4-16.3-6.5-24.7c0.3,2.2,0,0.8-0.3-1c0.2,1.2-0.1,0-0.2,0.3c0,0,0-0.1-0.1-0.3
							c0-0.2-0.1-0.4-0.1-0.8c-0.1-0.6-0.1-1.5-0.3-2.4c-0.1-0.9-0.2-1.8-0.3-2.4c-0.1-0.3-0.1-0.6-0.1-0.8c0-0.2,0-0.3,0-0.3
							c-0.1-0.6-0.3-2.5-0.4-4.3c-0.1-0.9-0.1-1.8-0.1-2.5c0-0.7-0.1-1.2-0.1-1.4l0.1,2.2c-0.1-1.5-0.3-0.4-0.4,1
							c-0.1,1.3-0.1,3.1-0.3,2.9c0.1,0.8,0.2,1.8,0.3,2.9c0.1,1.1,0.2,2.2,0.3,3.5c0.1,0.6,0.1,1.3,0.2,1.9c0.1,0.3,0.1,0.6,0.1,1
							c0.1,0.3,0.1,0.6,0.2,1c0.3,1.3,0.5,2.7,0.8,4c0.1,1.2-0.3-1-0.3-0.3c0.3,1.3,0.8,3,1.4,6.1l-0.1-0.3c0.1,0.5,0.3,1,0.4,1.5
							c0.1,0.5,0.3,1,0.4,1.4c0.3,1,0.5,1.8,0.8,2.6c0.4,1.7,1,3.2,1.5,4.8c0.3,0.8,0.5,1.6,0.8,2.4c0.3,0.8,0.6,1.7,1,2.5
							c0.7,1.8,1.4,3.7,2.4,5.9l-0.2-0.7c0.8,1.9,1,2.4,1.3,3.3c1.2,2.1-2.4-5.4-1.3-3.5c0.2,0.7,0.7,1.9,1.3,3.3
							c0.6,1.4,1.5,3.1,2.3,4.7c0.2,0.4,0.4,0.8,0.6,1.2c0.2,0.4,0.4,0.8,0.6,1.2c0.4,0.8,0.8,1.5,1.2,2.1c0.7,1.3,1.2,2.3,1.4,2.7
							c1.8,2.7-0.4-0.9,1.4,1.9l0.4,0.8l0.6,0.6c0.6,0.9,1,1.6,1.3,2s0.4,0.8,0.4,0.8c-0.3-0.4-0.9-1.2-1.2-1.7
							c0.8,1.2,1.9,2.7,2.9,4.2c1,1.4,2,2.6,2.3,2.9c0,0-0.4-0.6-1-1.3c-0.3-0.3-0.4-0.6-0.6-0.8c-0.2-0.3-0.3-0.4-0.3-0.4
							c0.7,0.9,1.4,1.8,2.1,2.7c0.4,0.4,0.7,0.9,1.1,1.4c0.4,0.4,0.8,1,1.2,1.4c1.6,1.8,3.1,3.7,4.9,5.5c0.8,0.9,1.7,1.8,2.6,2.7
							c0.9,0.8,1.8,1.7,2.6,2.5c1.7,1.7,3.5,3.1,5.2,4.5l-0.4-0.5c0.6,0.5,1.2,1,1.7,1.3c0.5,0.4,0.9,0.7,1.3,1
							c0.7,0.6,1.2,1,1.8,1.4c0.6,0.4,1.1,0.9,1.9,1.5c0.8,0.6,1.9,1.3,3.3,2.4l-0.2-0.1c1.2,0.8,2.9,1.8,4.5,2.9
							c-1.6-0.9,2.8,2,0.8,0.8c0.4,0.3,0.7,0.4,1,0.6c0.3,0.2,0.6,0.3,0.9,0.4c0.5,0.3,1,0.5,1.3,0.7c0.6,0.3,1,0.5,1.2,0.6
							c0.3,0.1,0.4,0.2,0.8,0.4c0.4,0.2,1,0.5,2,1l0.9,0.6c0.8,0.3,1.2,0.5,1.8,0.8c0.6,0.3,1.5,0.7,3.1,1.4c-2.7-1.2,2,1.1-1.1-0.1
							c1.7,0.8,3.2,1.5,4.5,2.1c1.3,0.6,2.6,1,3.6,1.4c1.1,0.4,2,0.8,2.9,1.1c0.9,0.3,1.7,0.6,2.5,1c1.7,0.4,0.2-0.2-1.5-0.8
							c-1.7-0.6-3.6-1.3-2.7-1c-0.8-0.3-0.1-0.1,1.1,0.3c1.2,0.4,2.8,0.9,3.9,1.3c0.6,0.2,1.1,0.4,1.7,0.6c0.6,0.3,1.2,0.4,1.9,0.7
							c0.7,0.3,1.5,0.5,2.5,0.8c0.5,0.1,1,0.3,1.7,0.5c0.6,0.1,1.3,0.3,2,0.5c-0.6-0.1-0.6-0.1-1.2-0.3c1.1,0.3,2.2,0.5,3.3,0.8
							c0.6,0.1,1.2,0.3,1.8,0.4c0.6,0.1,1.3,0.3,2,0.4c1.6,0.1,3.6,0.6,4,0.4l-5.5-0.9c1.5,0.3,3.1,0.4,4.9,0.7
							c0.9,0.1,1.9,0.2,2.9,0.3c1,0.1,2.2,0.3,3.5,0.4c-0.4,0-2-0.1-3-0.3c0.8,0.1,1.5,0.2,2.2,0.3c0.7,0.1,1.5,0.2,2.2,0.3
							c-0.1,0.1-0.6,0.1-1.3,0c-0.7-0.1-1.7-0.2-2.7-0.3c-1-0.1-2.1-0.3-3.2-0.4c-1.1-0.2-2.1-0.3-2.9-0.4c0.8,0.2,2.4,0.4,3.6,0.6
							c1.2,0.1,1.9,0.2,1.1,0.3c1.2,0,2.7,0.2,4.4,0.4c1.7,0.2,3.6,0.3,5.7,0.4l-0.3,0.1c0.6,0.1,2,0,3.2,0.1l-2.2,0.1
							c3.3-0.1,6.5,0.4,9.7,0.1c-3.4,0.1-3.7,0.1-3.6,0c0.1-0.1,0.7-0.1-0.7-0.2c1,0,1.9-0.1,2.6-0.1c0.7,0,1.3,0,1.8,0
							c1,0,1.6,0.1,2.2,0.1c0.6,0.1,1.3,0.1,2.4,0s2.6-0.1,4.9-0.3c-1.3,0.1-4.7,0.3-2.7,0.1c0.9-0.1,1.9-0.1,2.8-0.2
							c1-0.1,1.8-0.2,2.3-0.2c6.1-0.8-1-0.1,1.6-0.4c2.1-0.1,2.9-0.5,5.6-1l0.1,0.1c0.8-0.1,1.5-0.3,2-0.4c0.5-0.1,0.9-0.2,1.2-0.3
							c0.6-0.1,0.8-0.3,1-0.3c0.3-0.2,0.6-0.3,3.7-1l-2.6,0.8c0,0,0.8-0.2,1.6-0.4c0.4-0.1,0.8-0.2,1.1-0.3c0.3-0.1,0.5-0.1,0.5-0.1
							s-0.1,0.1-0.3,0.2c-0.1,0.1-0.3,0.2-0.3,0.2c1.7-0.5,2.8-0.9,4-1.2c0.6-0.1,1.1-0.3,1.7-0.5c0.6-0.2,1.3-0.4,2.2-0.7
							c-0.8,0.1,0.3-0.4,3.3-1.4c2-0.6-1,0.6,3-1c-0.4,0.3-0.9,0.4-1.5,0.7c-0.3,0.1-0.6,0.3-1,0.4c-0.4,0.1-0.8,0.3-1.2,0.4
							c-0.2,0.1-0.9,0.4-1.1,0.5c2.2-0.6,5.4-2,6.8-2.6c-0.6,0.2-1.3,0.5-1.6,0.6c0,0,1.5-0.6,2.9-1.3c1.4-0.7,2.9-1.4,2.9-1.4
							c1-0.4,0.3,0-0.4,0.4c0.6-0.3,1.1-0.5,1.6-0.8c0.6-0.3,1.2-0.6,2-1c-0.4,0.3-0.2,0.4-2.6,1.6c0,0,0.3-0.2,0.8-0.4
							c0.5-0.3,1.2-0.6,1.9-1c1.3-0.7,2.7-1.5,2.7-1.5c0.2-0.1,0.9-0.4,1.5-0.6c0.6-0.3,1-0.5,0.7-0.3c1.5-0.8,3.3-1.9,5.1-3.1
							c0.9-0.6,1.9-1.3,2.8-1.9c1-0.6,1.9-1.2,2.8-1.9c0.2-0.1,0.5-0.4,1.3-1c0.8-0.6,1.7-1.2,2.6-1.7c0.8-0.6,1.6-1.2,2.4-1.9
							c0.8-0.6,1.7-1.3,2.5-2c0.8-0.8,1.7-1.5,2.6-2.4c0,0,0.6-0.4,1.2-0.8s1.2-0.9,1.2-0.9c2.8-2.7-2.9,2.4,1.7-2.1
							c1.7-1.6,2-1.9,2-1.9c0.1,0-0.1,0.3,0.5-0.3c0.8-0.9,1.8-2,2.9-3.4c1.2-1.3,2.5-2.9,4-4.5C443.9,430,443.1,430.8,442.3,431.8z
							 M466.4,390.7c-0.1,0.4-0.3,1.1-0.5,1.7c-0.3,0.6-0.4,1.2-0.6,1.5c0.1-0.5,0.3-1,0.4-1.5C465.9,391.9,466,391.4,466.4,390.7z
							 M468.9,318.9c0.3,0.6,0.4,1.7,0.6,2.9C469.4,321,469.2,320,468.9,318.9z M310.2,234.8C310.3,234.8,310.3,234.8,310.2,234.8
							C312.3,234.2,311.6,234.4,310.2,234.8z M306.2,236.3c-0.4,0.2-0.4,0.2-0.2,0.1c0.3-0.1,1.2-0.5,2.2-0.9
							C307.9,235.5,307.4,235.7,306.2,236.3z M320.8,468.4l0.8,0.3C319.8,468.2,320.3,468.4,320.8,468.4z"/>
						<path fill="#1D1D1D" d="M470.9,327c0,0.3,0,0.3,0,0.4C471,327.7,471,327.7,470.9,327z"/>
						<path fill="#1D1D1D" d="M420,451.7l-0.1,0.1c-0.1,0.1-0.1,0.1-0.1,0.1L420,451.7z"/>
						<path fill="#1D1D1D" d="M371.3,228.6c0.9,0.2,1.3,0.3,1.7,0.4C373,229,372.6,228.9,371.3,228.6z"/>
						<path fill="#1D1D1D" d="M286.2,246.4c0,0,0.1-0.1,0.4-0.3c0.2-0.1,0.5-0.3,0.8-0.5c0.6-0.3,1.2-0.7,1.2-0.7
							c-1.2,0.6-1.6,0.8-2.1,1.2C286.4,246.2,286.9,246,286.2,246.4z"/>
						<path fill="#1D1D1D" d="M266.8,260c-0.3,0.3-0.6,0.6-0.9,0.9h0.1C267.2,259.7,268,258.8,266.8,260z"/>
						<path fill="#1D1D1D" d="M283.8,247.4c-0.1,0-0.6,0.3-1.2,0.6c-0.3,0.2-0.6,0.4-1,0.6c-0.3,0.3-0.7,0.5-1.1,0.8
							c0.1-0.1,0.2-0.1,0.3-0.2c-0.2,0.3,0.1,0.1,0.7-0.4C282.1,248.5,282.9,248,283.8,247.4z"/>
						<path fill="#1D1D1D" d="M280.2,249.7c-0.5,0.3-1,0.7-1.5,1C278.6,251,279.3,250.3,280.2,249.7z"/>
						<path fill="#1D1D1D" d="M301.3,238.4c-0.8,0.3-0.4,0.4-1,0.6c-0.4,0.3,0.9-0.4,1.9-0.8c0.4-0.3,0.8-0.4,0.8-0.4
							C302.8,237.7,302.4,237.8,301.3,238.4z"/>
						<polygon fill="#1D1D1D" points="282.2,247.9 282.9,247.6 283.8,246.9 						"/>
						<path fill="#1D1D1D" d="M295.4,240.4l-2.7,1.3c0.1,0-0.3,0.2-0.7,0.4C293.6,241.3,295.5,240.4,295.4,240.4z"/>
						<path fill="#1D1D1D" d="M291.9,242.1c-0.9,0.4-1.7,1-2.1,1.2C290.3,243.2,291.2,242.5,291.9,242.1z"/>
						<path fill="#1D1D1D" d="M285.7,245.5c0,0,0.2-0.1,0.4-0.3c0.2-0.1,0.4-0.3,0.4-0.3l1.9-1.1c0,0-0.7,0.4-1.3,0.8
							C286.4,245.1,285.7,245.5,285.7,245.5z"/>
						<path fill="#1D1D1D" d="M326.5,229.9l3.3-0.6c0.3-0.1-0.6,0-1.8,0.3C327.2,229.7,326,229.9,326.5,229.9z"/>
						<path fill="#1D1D1D" d="M316.6,231.8c0.9-0.2,1-0.2,1.5-0.3l0.1-0.2L316.6,231.8z"/>
						<path fill="#1D1D1D" d="M326.1,229.4c0.3-0.1,4.8-1,0.6-0.3c-0.2,0.1-1.1,0.3-1.5,0.4c-0.3,0.1-0.4,0.1-0.3,0.1
							C324.9,229.6,325.3,229.5,326.1,229.4z"/>
						<polygon fill="#1D1D1D" points="376.3,230.2 375.4,230 375.5,230.4 						"/>
						<path fill="#1D1D1D" d="M417.5,246.7c-3.3-2.2-0.9-0.4-3.9-2.4c-0.4-0.2,0.2,0.2,0.8,0.6c0.6,0.4,1.2,0.8,0.8,0.6
							C417.3,246.7,418.4,247.4,417.5,246.7z"/>
						<path fill="#1D1D1D" d="M415.2,245.5c-0.3-0.2-0.7-0.4-1.1-0.6C414.8,245.3,415,245.4,415.2,245.5z"/>
						<path fill="#1D1D1D" d="M228.4,357c0,0,0-0.1,0-0.4c0-0.3,0-0.6,0-0.9c0-0.6,0-1.3,0-1.3l-0.1,1.7c0,0,0,0.3,0.1,0.4
							C228.4,356.8,228.4,357,228.4,357z"/>
						<path fill="#1D1D1D" d="M228,352.1l0.2-0.6l-0.3-1.5C228,350.6,228.1,351.7,228,352.1z"/>
						<path fill="#1D1D1D" d="M468.9,384v-0.2c-0.2,0.4-0.3,1-0.6,2.1L468.9,384z"/>
						<polygon fill="#1D1D1D" points="454.6,415.7 454.9,415.2 454.2,416 						"/>
						<path fill="#1D1D1D" d="M436.4,438.6c0.4-0.4,0.9-0.8,1.3-1.3c0.4-0.4,0.9-1,1.3-1.4C437.3,437.8,436,438.6,436.4,438.6z"/>
					</g>
				</g>
			</g>
		</g>
	</g>
	<g>
		<line fill="none" x1="350" y1="0" x2="350" y2="700"/>
		<g>
			<g>
				<g>
					<g>
						<path fill="#1D1D1D" d="M350.8,699.2c0,1,0.1,0.6,0.1,0.8C350.9,698.3,350.7,699.2,350.8,699.2z"/>
						<polygon fill="#1D1D1D" points="350.4,682.1 350.5,682.4 350.4,679.9 						"/>
						<path fill="#1D1D1D" d="M350.4,666.2c-0.3,1.5,0.1,5.8-0.1,8.6l-0.1,0.4l0.2,1.3C350.5,673.1,350.4,668.6,350.4,666.2z"/>
						<path fill="#1D1D1D" d="M351,657.7c-0.1,0.5-0.1-1.9,0,2c0-0.2,0-0.3,0-0.4C351,659,351,658.4,351,657.7z"/>
						<path fill="#1D1D1D" d="M351,659.3C351,660.9,351,658.2,351,659.3L351,659.3z"/>
						<path fill="#1D1D1D" d="M350.9,651.5l0.1,2.2c0.1-0.4,0.1-2.4,0.1-1.7C351,649.7,351,650.2,350.9,651.5z"/>
						<path fill="#1D1D1D" d="M350.8,649.4l0.1,1.2C350.8,650.4,350.8,650.1,350.8,649.4z"/>
						<path fill="#1D1D1D" d="M350.8,653l-0.1-2.4c-0.1,0.3-0.1,0.4,0,1.1C350.7,651.5,350.8,652,350.8,653z"/>
						<path fill="#1D1D1D" d="M350.8,654.3c-0.1,1.2-0.1,2.8-0.1,0.6C350.7,659.2,350.8,658.6,350.8,654.3z"/>
						<path fill="#1D1D1D" d="M350.3,665.3l-0.1,1.7l0.1,1.4C350.2,667.7,350.3,665.2,350.3,665.3z"/>
						<path fill="#1D1D1D" d="M351,637.7c-0.1-0.1-0.1,0.8-0.2,0.9l0.1,1.7C350.9,639.5,351,637.9,351,637.7z"/>
						<path fill="#1D1D1D" d="M350.8,638.6l-0.1-2.4C350.8,638.4,350.8,638.7,350.8,638.6z"/>
						<polygon fill="#1D1D1D" points="350.5,649 350.6,653 350.5,648.2 						"/>
						<polygon fill="#1D1D1D" points="351,628.4 351.2,629.8 351,627.3 						"/>
						<path fill="#1D1D1D" d="M351,622.2c0.1,1,0.1-1.4,0.2-0.3c0-1.7-0.1-3.1-0.2-4.4C351.1,618.8,351.1,620.3,351,622.2z"/>
						<path fill="#1D1D1D" d="M351,615.3c0,0.7,0.1,1.4,0.1,2.2C351,616.7,351,616,351,615.3z"/>
						<path fill="#1D1D1D" d="M350.8,632c0-0.2,0.1-0.6,0.1-1.9l-0.1,1C350.8,631.3,350.8,631.6,350.8,632z"/>
						<path fill="#1D1D1D" d="M350.8,631.1L350.8,631.1c0-1.1,0-1.8,0-2.1C350.8,629.2,350.8,629.9,350.8,631.1z"/>
						<path fill="#1D1D1D" d="M350.8,632.3c0-0.1,0-0.1,0-0.3C350.8,632.1,350.8,632.2,350.8,632.3z"/>
						<path fill="#1D1D1D" d="M350.6,642.6c-0.1-1.4-0.1-4.4-0.3-1.5C350.4,642.1,350.5,640.4,350.6,642.6z"/>
						<path fill="#1D1D1D" d="M350.6,633.4v2.6c0.1-0.1,0.1-0.5,0.1,0.2L350.6,633.4z"/>
						<polygon fill="#1D1D1D" points="350.6,632.2 350.6,633.4 350.6,632.5 						"/>
						<path fill="#1D1D1D" d="M350.8,619.8c-0.1-1.2-0.1-2.4-0.1-3.7c0,1.5-0.1,3-0.1,4.5C350.8,620.7,350.8,621.3,350.8,619.8z"/>
						<path fill="#1D1D1D" d="M350.8,625.3c0-0.1,0-0.2,0-0.3C350.8,625.1,350.8,625.3,350.8,625.3z"/>
						<path fill="#1D1D1D" d="M350.8,602.4c0,0.1,0,0.1,0,0.2c0,0,0,0,0,0.1V602.4z"/>
						<path fill="#1D1D1D" d="M350.7,620.7c0,1.1,0,1.8,0.1,2.4c0-0.8,0-1.7,0-2.7C350.7,620.4,350.7,620.3,350.7,620.7z"/>
						<path fill="#1D1D1D" d="M350.9,611.4c0,0.6-0.1,1.2-0.1,1.9C350.8,612.9,350.9,611.7,350.9,611.4z"/>
						<path fill="#1D1D1D" d="M350.8,624.6c0,0.1,0,0.1,0,0.2C350.8,624.4,350.8,624.5,350.8,624.6z"/>
						<path fill="#1D1D1D" d="M350.8,624.6c0-0.6-0.1-1-0.1-1.5c0,0.7,0,1.3,0.1,1.9C350.8,624.9,350.8,624.7,350.8,624.6z"/>
						<path fill="#1D1D1D" d="M349.9,598.2c0.1,0.2,0.3,3.1,0.1,5.7c0.1,2.5,0.5,0.9,0.8-1.3c-0.1-0.1-0.1-0.1-0.2-2.6
							c-0.1,0.9-0.2,5.7-0.3,3.5c-0.1-3.4,0.1-2.8,0.1-4.4c-0.1,1.4-0.3-4.3-0.4-3.6l0.1,3C349.9,598.5,349.9,597.4,349.9,598.2z"/>
						<path fill="#1D1D1D" d="M350.7,607.5v1.1c0-1.2,0.1-2,0.2-3.6c-0.1-1.7-0.1-2.1-0.1-2.2v5.2L350.7,607.5z"/>
						<path fill="#1D1D1D" d="M350.7,613.2c-0.1-0.8-0.2-3.4-0.3-1.8c0,3.1,0.1,2.2,0.2,4C350.5,610.5,350.6,616.9,350.7,613.2
							c0,1,0,1.9,0,2.7c0-0.9,0.1-1.8,0.1-2.6c0,0.1,0,0.1,0,0.1l0,0l0,0c0,0.2,0,0.3,0,0.1c0,0,0-0.1,0-0.1
							S350.8,613.4,350.7,613.2c0-1.5,0.1-0.3,0.1,0.3v0.1l0,0l-0.1-5C350.7,609.6,350.7,610.9,350.7,613.2z"/>
						<path fill="#1D1D1D" d="M350.1,638.4c0-0.1,0-0.1,0.1-0.2C350.1,637.9,350.1,637.8,350.1,638.4z"/>
						<path fill="#1D1D1D" d="M350.1,636.3c0,0.4,0.1,0.6,0.1,1.9c-0.1,1-0.1,0-0.1,0.1c0.1,0.7,0.1,2.5,0.2,0.3v-0.4
							c0.1-2,0.2-4.6,0.3-4.3C350.3,634.5,350.3,635,350.1,636.3z"/>
						<path fill="#1D1D1D" d="M350.4,624.6l-0.1-4.2l-0.1,2.1l0.1-0.1C350.3,624.9,350.3,624.4,350.4,624.6z"/>
						<polygon fill="#1D1D1D" points="350.8,601.9 351,602.4 350.8,600 						"/>
						<polygon fill="#1D1D1D" points="350.8,596.4 350.9,596.6 350.8,595.2 						"/>
						<path fill="#1D1D1D" d="M349.2,290.4l-0.1-1.2C349.2,289.8,349.2,290.2,349.2,290.4z"/>
						<path fill="#1D1D1D" d="M349.2,299.3l0.1,0.2C349.2,299.1,349.2,298.9,349.2,299.3z"/>
						<path fill="#1D1D1D" d="M350.8,463.2c0.1-1.8,0.3-3.8,0.1-3.6l-0.1,0.6C350.8,461.5,350.8,462.5,350.8,463.2z"/>
						<path fill="#1D1D1D" d="M349.9,372.1c0,0.2,0,0.3-0.1,0.5c0.1,0.4,0.1,0.8,0.1,1.2C350,373.3,350,372.7,349.9,372.1z"/>
						<path fill="#1D1D1D" d="M349.4,370.8l0.1-2.4C349.4,369,349.4,369.7,349.4,370.8z"/>
						<path fill="#1D1D1D" d="M349.1,241.9l-0.1-1.4C348.9,242.8,349,241.8,349.1,241.9z"/>
						<path fill="#1D1D1D" d="M350.8,540.9c0.1-1.5,0.1-2.7,0.1-3.8C350.8,538.9,350.6,540.4,350.8,540.9z"/>
						<path fill="#1D1D1D" d="M350.7,293.9c0-0.8-0.1-1.1-0.1-1C350.6,293.7,350.6,294.1,350.7,293.9z"/>
						<path fill="#1D1D1D" d="M350.8,532.6c0,0.3,0,0.5-0.1,0.8c0,1.2,0.1,2.2,0.1,3.6C350.9,535.7,351,534.1,350.8,532.6z"/>
						<path fill="#1D1D1D" d="M349.2,66.1c0-0.1,0-0.3,0-0.4C349.2,65.7,349.2,65.9,349.2,66.1z"/>
						<path fill="#1D1D1D" d="M350.6,14.9c0,0.5,0,1.3,0,2.1C350.6,16.6,350.6,16,350.6,14.9z"/>
						<path fill="#1D1D1D" d="M350.8,574.6C350.9,575.8,350.9,574.8,350.8,574.6L350.8,574.6z"/>
						<path fill="#1D1D1D" d="M350.3,580.2c0-0.3-0.1-0.4-0.1-0.4C350.3,579.9,350.3,580,350.3,580.2z"/>
						<path fill="#1D1D1D" d="M349.9,521.2c0-0.1,0-0.1,0-0.1C349.9,521.4,349.9,521.4,349.9,521.2z"/>
						<path fill="#1D1D1D" d="M350.8,576.3c0-0.4,0-1,0.1-1.5C350.8,575.1,350.8,575.6,350.8,576.3z"/>
						<path fill="#1D1D1D" d="M350.8,576.1c0,0.4,0,0.7,0,1C350.9,577.2,350.9,577.1,350.8,576.1z"/>
						<path fill="#1D1D1D" d="M350.8,573c0,0.6,0,1.3,0,1.9c0-0.3,0-0.3,0-0.3C350.8,574.3,350.8,573.8,350.8,573z"/>
						<path fill="#1D1D1D" d="M349.6,160.4c0-0.1,0-0.2,0-0.3C349.6,159,349.6,159.5,349.6,160.4z"/>
						<path fill="#1D1D1D" d="M349.4,433.3c0,0.1,0,0.1,0,0.1C349.4,433.4,349.4,433.3,349.4,433.3L349.4,433.3z"/>
						<path fill="#1D1D1D" d="M349.2,429.2c0.2,1.8,0.1,2.7,0.1,4.1l0.4-1.3L349.2,429.2z"/>
						<path fill="#1D1D1D" d="M349.2,269.2l-0.1,2.9c-0.2-3.5-0.1-6-0.3-3.3c0.4,0.4,0.1,11.3,0.4,11.7l-0.1,1.9c0-0.6,0-0.6,0-1.2
							c-0.2,3.7,0.3,2.7,0.3,7.5c-0.1,1.7-0.1,2.8-0.1,1.7l0.1,3.7c0,1.1-0.1,0.8-0.1-0.3l0.1,5.7v-0.1c0.1,0.8,0.2,2.6,0.2,3.5
							c-0.1,1.5-0.1-0.7-0.1-0.4l0.1,3.1c-0.1,1.3-0.2-1.3-0.2-3.5c-0.4,2.9,0.1,2.6-0.1,9l-0.1-2.9c-0.3,1.9-0.1,4.2-0.3,7.6
							c0.1-0.8,0.4-6.7,0.5-3.3c-0.1,1-0.1,2.2,0.1,4.1c-0.1,0-0.1,1.8-0.1,4.1l-0.2-0.1c0.1,2.4,0.2,2.2,0.3,3.6
							c0,2.7-0.2,3.3-0.3,3.9c-0.1,4.3,0.3-3,0.3,2.1c-0.1,3.6,0,6.1,0.1,10.5c-0.1,2.5-0.1-0.4-0.2,0.4l0.2,2.2
							c0,0.6-0.1,0.4-0.1,0.3c0.1,1.9,0.2,0.1,0.3,3.1c0.3,0.8-0.3,6.1-0.1,9.8c-0.1,0.9-0.1-0.4-0.2-0.2c0.2,5.1,0.1,4.3,0.3,8.4
							l-0.1,3.5c0.1-2.6,0.3,0.7,0.5,3.6c0.1-0.9,0.1-1.7,0.2-2.2l0.1,4.6c-0.1,0.6-0.1,0.1-0.2-0.6c0,0.3,0.1,0.6,0.1,0.8
							c-0.1,1.7-0.2,0.8-0.3-0.4c0.1-0.6,0.1-1.2,0.1-1.7c-0.1-1.2-0.3-2.2-0.4-2c0,0.3,0.1,0.9,0.1,1.5c-0.1-0.3-0.1-0.5-0.1-0.3
							c0,0.1,0,0.6,0.1,1.4l-0.3,1l0.1,0.3l-0.1,6.1c0.3,4.3,0.6,8.1,0.6,15c-0.2-1.7-0.3-0.4-0.4-0.4c0.2-1.9-0.1-5.3-0.1-8.9
							c0,1.9-0.1,1.5-0.1,1l0.2,6.3c-0.2-0.1-0.1,1.3-0.2,3c0.3-1.3,0.2,4.7,0.3,7.3c-0.1,0.2-0.2-0.4-0.2-3.6
							c-0.3,3.5,0.4,4.5,0.2,7.9c0-0.8,0-1.2-0.1-1.5c0.1,1.8,0,6.2-0.1,5.2v-0.8c-0.1,5.1,0,15.5,0.3,16.3c-0.1,0.1-0.3-0.6-0.4-1
							l0.9,9.1c-0.3-0.8-0.8,2.3-0.9-2c-0.1,1.2-0.1,2.7,0,5.3c0.1-0.8,0.3-2,0.4-1c-0.3,3.1-0.1,2.2-0.4,6c0.1-1.2,0.4,0.1,0.4,2.1
							c-0.1-0.3-0.4,0.2-0.4-0.6l0.4,4.9c-0.1-1.2-0.3-0.2-0.4,0.9c0.1-0.5,0,4.2,0,5.6l0.1-2c-0.1,5.5,0.5,5.4,0.5,10.9
							c-0.1-0.6-0.4-1.7-0.5,1.2c0.2,1.3,0.9,5.6,1,10.5l-0.1,1l0.1,3.7c-0.3-2.3-0.8-8.8-1.1-12.3c-0.1,2-0.1,0.6-0.1,3.6
							c-0.1,1.1-0.1-1.7-0.1-2.6l-0.1,7.2c0.2-0.3,0.2,5.5,0.4,5.2l-0.2-7.8c0.2-0.3,0.6,4.5,0.6,9.7c-0.1,1.3-0.4-1-0.4-0.9
							c0.1,0.6,0.1,4.9,0.1,5.3l-0.1-2.2c-0.1,2.8,0.3,4.7,0.1,8.1c0,1.2-0.3,3.5-0.1,3.7c0.3-1.9,1-2.3,1.2-1
							c0,0.4-0.3,6.2-0.4,7.5c-0.2,1.9-0.4-2.9-0.6-1.3c0.1,0.1,0.1,1.2,0.1,1.6c-0.1,1.2-0.2-0.5-0.1,2.2c0.2,0.4,0,5.5,0.2,1.3
							c0.1,2.6-0.1,2.8-0.1,5.9c0.1-1,0.4,2.7,0.5,5.4c-0.1-0.1-0.1,0.4-0.2,0.7c0,5.4-0.1,8.3-0.1,13.3c-0.1,0.4-0.1,2.9-0.2,1.9
							c0.1,0.7,0.1,1.4,0.1,2.9c-0.2,3,0-3.5-0.3-1.2c0.1,0.2,0.2,4,0.3,6.2c0.2-0.7,0.1-5.1-0.1-7.3c0.3,0,0.6,3.8,0.7,9.1
							c0.1,4.2-0.2,1.8-0.1,2.6c-0.1,7.9,0.4,6.7,0.3,13.2c-0.2,2.6-0.3,0.1-0.4,0.7c-0.1-3.4,0.1-5.2,0.1-7.5l-0.1,2.8
							c-0.1-1.1-0.1-3.3-0.1-4.6c-0.1,2.2,0,13.2-0.2,19.3c0.1,1.1,0.1,2.9,0.2,2v-1.9c0.1-1.8,0.2,3.6,0.3,1.2
							c0.1,2.6,0.3,5.4,0.2,9.1l-0.2,0.7c0.1-0.1,0.1-2.4,0.1-3.4c0.1,1.5-0.3,5.6,0,7.2l0.1-2.6c0.1,2.6,0.3,5.8,0.3,9
							c0.2-1.5,0-0.8,0.2-3c-0.3,2,0-8.2-0.3-5.1c0.3-2.4,0.1-4,0.3-7.1c-0.1,0.1-0.1,1.1-0.1-1.6c0-0.1-0.1-0.4-0.1-0.6
							c0-0.1,0-0.1,0-0.2c0,0.1,0,0.1,0,0.1c0-0.1,0-0.1,0,0.1c0,0.6-0.1,1.2-0.1,1.3c-0.1-1.3-0.1-5.6-0.2-7c0-1.6,0.1,0.6,0.1-0.2
							l-0.1-2.2c0.1-0.2,0.3-4.2,0.3-0.5v-3.4c0.1-2,0.1-4.7,0.1-6.5c0-1.6-0.1-4-0.1-2.6l-0.1-5.3l0.1-0.1c0-5.2-0.3-10.8,0-16.8
							c-0.1-1.8-0.1-3.6-0.1-6.5l0.1-0.6c-0.1-2.2,0.1-6.8,0-7.8c0.3-2.4,0.1-11,0.1-15l-0.2-0.1c0-2.7-0.1-5.4-0.1-8.8l-0.1,0.2
							c-0.1-2.9,0.1-7.5,0.1-12.2c0.1,0.3,0.1,1.5,0,2.3c0.3-5.6-0.3-11.7,0-16.8c-0.1-1.3-0.1-2.2,0-3.1c0,0.1,0,0.2,0,0.3
							c0-0.1,0-0.3,0-0.5c0-0.6,0.1-1.2,0.1-1.7c-0.1,0.5-0.1,1-0.1,1.5c0-1,0-2.4-0.1-3.9l0.1-0.6c0-0.1,0-0.2,0-0.3
							c0.1-1.4-0.1-1.2-0.2-0.4c0-0.7-0.1-1.4-0.1-1.9c0.3-1.2-0.1-3.8,0.2-5.3c-0.1-1-0.1-7.2-0.4-8c0.1-0.1,0.1-0.4,0.1,0.3
							c0-1.6,0.1-3.2,0-4.7l0.2-0.7l-0.3-3.5c0.1-2.1,0.2-3,0.3-0.9c-0.3-5.1-0.1-4.2-0.3-8.4l0.1,0.2c0-1.5-0.2-4-0.1-5
							c0.3-3.5,0.1-17.1,0.3-26c-0.4,1.7,0.2-4.2-0.1-4.5c0.1-0.5,0.1-1.7,0.2-0.3c-0.1-4.5,0.1-6.8-0.1-10c0.1-0.5,0.1,1,0.2,0.5
							c0-0.4-0.1-1.5,0-1.9c0.1-0.4,0.1,0.6,0.1,1.4c0-4.7-0.3-5.1-0.5-5.4c0.1-2.4,0.1-3.5-0.1-5.2c0.1-0.8,0.2-2.2,0.2,0.7
							c0-1.6,0.1-9.9-0.1-10c0.1-0.5,0-2.2,0-2.7c0-3.6,0-4,0-7.5l-0.1,1c-0.3-1.4-0.1-2.9-0.1-5.8v0.1c0.2-6.6-0.1-2.9,0.1-9.3
							l-0.1,0.4c-0.3-0.6,0.2-5.8,0.1-9.5l-0.1,1.3c-0.1-2,0.4-5.8,0.5-7.9c0-0.4,0.1,0.7,0.1,1.3c0.2-5.4-0.2-0.7-0.3-4.7
							c0.1-0.8,0.3,1,0.3-1.8c0.1-1.3-0.4-7.9-0.1-11.6c-0.1,0.8-0.2,1.7-0.3-0.3c0-2.9,0.3-7.8,0.1-10.4c0-0.4,0.1-0.5,0.1-0.5
							c-0.1-2.2-0.1-7.2-0.3-8.5c0.5-2-0.3-13.7,0.3-13.6v-6.8l0.1,0.2c0.1-4.3-0.1-5.9-0.2-7.4c0.1-1,0.1-0.3,0.1-0.2
							c0.1-6.3,0.1-7-0.2-12.3l0.1-0.6c-0.1-1.4,0.3-9.1,0.1-15.3c0,0.1,0.1,0.2,0.1,0.7c-0.2-7,0.4-16.7-0.1-19.2l-0.4-4.6
							c-0.1,5.9-0.3-0.9-0.3,1.5c-0.1-2.4,0.2-6.1,0.2-3.2v0.4c0.3,1.1,0.1-7.4,0.3-7.2c0-11.7,0.1-23.1,0.2-34.1l-0.3,1.3v-3.8
							c0.1-1,0.2-1.3,0.2,1.4c0.1-1.4-0.1-4.6-0.2-4.7c0.1-5.4,0.3,2.1,0.3,0.4v-2.2v0.5c-0.1-1.8-0.2-2-0.2-5.2
							c0.1-2.1,0.1-1.1,0.1-1.9c0,0,0-0.3,0-1.3v-4.8l-0.2,1.9c-0.1-2.1,0-4.5-0.2-2.3c0.3-3.3,0.1-18,0.2-20
							c-0.1-3-0.1-5.9-0.1-9.6c-0.1,0.9-0.3,1.5-0.2-1.7c0.4,1.2,0.2-5.8,0.5-8.3c-0.2,2.3-0.1-9-0.3-5.4c0.1-2.6,0.2-0.2,0.3-2.2
							c-0.2-6.3,0.1-13.8,0.1-21.6c-0.1-0.1-0.1,1.2-0.3-0.5l0.3-4.1c0-1.5-0.3-1.4-0.1-4.2c-0.1,0.4-0.1,1-0.1-0.1
							c0.3-15.2-0.3-31.1,0.3-46.5c-0.1,2.1-0.1,0.7-0.1-0.9c0,1-0.1,0-0.2,0.2l0.2-6.5c-0.2-1.2,0-6.9-0.2-7.6l0.1,2
							c-0.3-2.7-0.5,3.8-0.8,3.4c0.3,3.1-0.4,8.1,0,13c-0.1,1.1-0.1-1-0.2-0.3c0.1,1.3,0.1,2.8,0.1,5.6l-0.1-0.3
							c0.1,8-0.1,11.4-0.2,20.3l0.1-0.6c0,1.9-0.1,2.3-0.1,3.2c0.3,2.2,0-5.4,0.3-3.4c-0.3,2.6,0,13.6-0.4,15.3
							c0,2.9,0.2-0.9,0.2,2.1l-0.1,0.8l0.1,0.8c0,1.9-0.1,2.9-0.2,3c0-0.4,0-1.3,0-1.9c-0.1,2.5,0.1,7.1,0,7.9l0.1-2.8
							c0.1,8.1-0.1,17.9,0.1,25.7l0.1-0.6c0.1,5.9-0.1,4.8,0,11.3v-0.3c0.1,1.3,0.1,3.1,0.1,4.9c-0.1-1.7-0.2,3.1-0.3,1
							c0.1,6.5,0.1,3.2,0.4,7.5l-0.1,1c0.1,1.5,0.2,1.6,0.2,4.9c-0.1-2.7-0.2,2.1-0.3-0.9c-0.3,6.8,0.3,10.2-0.1,13.3
							c0.3,3.1,0.2-5.9,0.3-4.2c0.1-1.5,0.3,2.6,0.2,4.7c0,2.2-0.4,3.7-0.4,9.2c0-0.6,0-0.6,0-1.2c-0.1,2,0.1,4,0,6.6
							c0.2,1.4,0,3.3,0.3,3.7l-0.1-5.1c0.1,2.9,0.4,5.6,0.2,10.3c-0.1-0.4-0.1-1.8-0.1-2.7c-0.1,1.4,0.1,2.7,0,4.1
							c-0.3-0.4-0.1-6.1-0.3-9.2c-0.1,1.5,0.2,5.8-0.1,4.3c0.3,2.2-0.1,5.4,0.2,9.1l-0.1-0.3c0,0.6,0.1,1.8,0.1,2.9l-0.2-2
							c0.2,3-0.1,5.8-0.1,8.7c0-6.1,0.2-1.3,0.3-3.9c0.2,7.5-0.4,4.3-0.3,12.7c0-1.2,0.1-4.3,0.2-2.5c0,1.6-0.1,3.7-0.2,4.7
							c0,5.6,0.1-0.8,0.3,1.5c-0.2,1.9,0.1,2.7,0.1,5.2h-0.1c-0.1,6.3,0.3,1.7,0.2,7.4l-0.2-2.4l0.1,2.9l-0.2-0.6
							c0.1,3.2,0.1,4.2,0.1,7.4c0.1-0.7,0.3,0.4,0.3,3.2c-0.1,1.9-0.1-1.1-0.1,2.9c-0.1-0.9-0.2-1.9-0.1-3.6
							c-0.1-0.2-0.1-0.9-0.1-1.1c-0.1,2,0,5.2,0,6.6c0-0.6,0-1.2,0.1-1.5l0.2,5.8c-0.1,0.9-0.1,0.2-0.1-0.5c0,1.2,0.1,2,0.1,3.7
							c-0.1-0.4-0.3-0.3-0.3-2.7l0.1,5.5c-0.1,0.4-0.1,2.8-0.2,2.1c-0.1,3.1,0.3,7.5,0.1,11.5c0,0.2,0.1,0.6,0.1,1.5
							c0,3.8-0.2,7.2,0,11.6l-0.3,2.6c0.1,3.5,0.3-3.5,0.4,2.4c0.1,4.2-0.2,1.5-0.3,3c0.1,2,0.3,5.6,0.2,9.5
							C349.2,271.4,349.2,270.3,349.2,269.2z M349.3,312.5c-0.1-0.8-0.1-2.5-0.1-3.1C349.4,310.4,349.4,311.1,349.3,312.5z
							 M349.7,378.5c-0.1-0.6,0-1.6,0.1-2.7C349.7,376.5,349.7,377.4,349.7,378.5z M350.7,562C350.7,562,350.7,562,350.7,562
							C350.8,560,350.8,560.7,350.7,562z M350.6,565.9c0,0.4,0.1,0.4,0.1,0.2c-0.1-0.3-0.1-1.2,0-2.1
							C350.6,564.3,350.6,564.8,350.6,565.9z M350.6,148l-0.1,0.8C350.5,147.1,350.6,147.6,350.6,148z"/>
						<path fill="#1D1D1D" d="M349.4,371c0-0.3,0.1-0.3,0.1-0.4C349.5,370.3,349.5,370.3,349.4,371z"/>
						<path fill="#1D1D1D" d="M349.1,242.2c0-0.1,0-0.1,0-0.1c0-0.1,0-0.1,0-0.1V242.2z"/>
						<path fill="#1D1D1D" d="M349.4,505.6c0-0.8,0.1-1.3,0.1-1.5C349.4,504,349.4,504.4,349.4,505.6z"/>
						<path fill="#1D1D1D" d="M351,586.5l-0.1-2.5c0,1.2,0,1.7-0.1,2.2C350.9,586.3,350.9,585.7,351,586.5z"/>
						<path fill="#1D1D1D" d="M350,608.2c0,0.4,0,0.8,0,1.2l0.1-0.1C350.1,607.6,350,606.6,350,608.2z"/>
						<path fill="#1D1D1D" d="M350.4,588.8c-0.1,0.2-0.1,1.8-0.1,3.5c0-0.1,0-0.2,0-0.3C350.5,592.5,350.4,590.7,350.4,588.8z"/>
						<path fill="#1D1D1D" d="M350.4,592.8c0,0.5,0,1.1,0,1.6C350.4,594.6,350.4,593.7,350.4,592.8z"/>
						<path fill="#1D1D1D" d="M350.8,570.8c-0.1,0.8,0.2,0.5,0.1,1C351,572.8,350.6,566.3,350.8,570.8z"/>
						<polygon fill="#1D1D1D" points="350,590.2 350.1,589.6 350,588.6 						"/>
						<path fill="#1D1D1D" d="M350.1,576.5l-0.1,2.8c0-0.1,0.1,0.3,0.1,0.8C350.1,578.3,350.1,576.4,350.1,576.5z"/>
						<path fill="#1D1D1D" d="M350.1,580c0,0.9,0,1.7,0,2.2C350.1,581.8,350.1,580.7,350.1,580z"/>
						<polygon fill="#1D1D1D" points="349.9,586.4 350,585.6 350,583.6 						"/>
						<path fill="#1D1D1D" d="M350.1,546.5l-0.1-3.1c-0.1-0.3-0.1,0.5-0.1,1.7C350.1,545.8,350.1,546.9,350.1,546.5z"/>
						<path fill="#1D1D1D" d="M349.7,555.7c0.1-0.8,0.1-0.9,0.1-1.3l-0.2-0.1L349.7,555.7z"/>
						<path fill="#1D1D1D" d="M349.7,546.8c-0.1-0.3-0.1-4.4-0.1-0.6C349.6,546.5,349.6,549.6,349.7,546.8z"/>
						<polygon fill="#1D1D1D" points="349.9,500.9 349.9,501.7 350.3,501.6 						"/>
						<path fill="#1D1D1D" d="M349.1,460.5c-0.1,3.6,0.2,0.8,0.1,4.1c0.1,0.8,0.1-2.7,0.1-1.8C349.3,460.6,349.4,459.5,349.1,460.5z
							"/>
						<path fill="#1D1D1D" d="M349.4,462.8c0,0.3,0,0.7,0.1,1.1C349.4,463.3,349.4,463,349.4,462.8z"/>
						<polygon fill="#1D1D1D" points="350.8,6.4 350.8,4.1 350.7,5.6 						"/>
						<path fill="#1D1D1D" d="M350.5,1.9l0.2-0.6L350.6,0C350.6,0.5,350.6,1.5,350.5,1.9z"/>
						<path fill="#1D1D1D" d="M348.8,319l0.1,0.2c0.1-0.4,0.1-0.9,0.1-2L348.8,319z"/>
						<polygon fill="#1D1D1D" points="349,287.5 349,288 349.2,287 						"/>
						<path fill="#1D1D1D" d="M348.8,261.1c0,1.1,0.1,2.4,0,3.5C348.8,262.1,349,260.8,348.8,261.1z"/>
					</g>
				</g>
			</g>
		</g>
	</g>
	<g>
		<line fill="none" x1="700" y1="350" x2="0" y2="350"/>
		<g>
			<g>
				<g>
					<g>
						<path fill="#1D1D1D" d="M0.8,350.8c-1,0-0.6,0.1-0.8,0.1C1.7,350.9,0.8,350.7,0.8,350.8z"/>
						<polygon fill="#1D1D1D" points="17.9,350.4 17.6,350.5 20.1,350.4 						"/>
						<path fill="#1D1D1D" d="M33.8,350.4c-1.5-0.3-5.8,0.1-8.6-0.1l-0.4-0.1l-1.3,0.2C26.9,350.5,31.4,350.4,33.8,350.4z"/>
						<path fill="#1D1D1D" d="M42.3,351c-0.5-0.1,1.9-0.1-2,0c0.2,0,0.3,0,0.4,0C41,351,41.6,351,42.3,351z"/>
						<path fill="#1D1D1D" d="M40.7,351C39,351,41.8,351,40.7,351L40.7,351z"/>
						<path fill="#1D1D1D" d="M48.5,350.9l-2.2,0.1c0.4,0.1,2.4,0.1,1.7,0.1C50.3,351,49.7,351,48.5,350.9z"/>
						<path fill="#1D1D1D" d="M50.6,350.8l-1.2,0.1C49.6,350.8,49.9,350.8,50.6,350.8z"/>
						<path fill="#1D1D1D" d="M47,350.8l2.4-0.1c-0.3-0.1-0.4-0.1-1.1,0C48.5,350.7,48,350.8,47,350.8z"/>
						<path fill="#1D1D1D" d="M45.6,350.8c-1.2-0.1-2.8-0.1-0.6-0.1C40.7,350.7,41.4,350.8,45.6,350.8z"/>
						<path fill="#1D1D1D" d="M34.7,350.3l-1.7-0.1l-1.4,0.1C32.3,350.2,34.7,350.3,34.7,350.3z"/>
						<path fill="#1D1D1D" d="M62.3,351c0.1-0.1-0.8-0.1-0.9-0.2l-1.7,0.1C60.5,350.9,62.1,351,62.3,351z"/>
						<path fill="#1D1D1D" d="M61.3,350.8l2.4-0.1C61.6,350.8,61.2,350.8,61.3,350.8z"/>
						<polygon fill="#1D1D1D" points="51,350.5 46.9,350.6 51.7,350.5 						"/>
						<polygon fill="#1D1D1D" points="71.6,351 70.2,351.2 72.7,351 						"/>
						<path fill="#1D1D1D" d="M77.8,351c-1,0.1,1.4,0.1,0.3,0.2c1.7,0,3.1-0.1,4.4-0.2C81.1,351.1,79.7,351.1,77.8,351z"/>
						<path fill="#1D1D1D" d="M84.7,351c-0.7,0-1.4,0.1-2.2,0.1C83.2,351,84,351,84.7,351z"/>
						<path fill="#1D1D1D" d="M68,350.8c0.2,0,0.6,0.1,1.9,0.1l-1-0.1C68.6,350.8,68.3,350.8,68,350.8z"/>
						<path fill="#1D1D1D" d="M68.9,350.8L68.9,350.8c1.1,0,1.8,0,2.1,0C70.7,350.8,70.1,350.8,68.9,350.8z"/>
						<path fill="#1D1D1D" d="M67.7,350.8c0.1,0,0.1,0,0.3,0C67.8,350.8,67.8,350.8,67.7,350.8z"/>
						<path fill="#1D1D1D" d="M57.4,350.6c1.4-0.1,4.4-0.1,1.5-0.3C57.9,350.4,59.5,350.5,57.4,350.6z"/>
						<path fill="#1D1D1D" d="M66.5,350.6h-2.6c0.1,0.1,0.5,0.1-0.2,0.1L66.5,350.6z"/>
						<polygon fill="#1D1D1D" points="67.8,350.6 66.5,350.6 67.5,350.6 						"/>
						<path fill="#1D1D1D" d="M80.2,350.8c1.2-0.1,2.4-0.1,3.7-0.1c-1.5,0-3-0.1-4.5-0.1C79.3,350.8,78.6,350.8,80.2,350.8z"/>
						<path fill="#1D1D1D" d="M74.7,350.8c0.1,0,0.2,0,0.3,0C74.8,350.8,74.7,350.8,74.7,350.8z"/>
						<path fill="#1D1D1D" d="M97.6,350.8c-0.1,0-0.1,0-0.2,0c0,0,0,0-0.1,0H97.6z"/>
						<path fill="#1D1D1D" d="M79.3,350.7c-1.1,0-1.8,0-2.4,0.1c0.8,0,1.7,0,2.7,0C79.6,350.7,79.6,350.7,79.3,350.7z"/>
						<path fill="#1D1D1D" d="M88.5,350.9c-0.6,0-1.2-0.1-1.9-0.1C87.1,350.8,88.3,350.9,88.5,350.9z"/>
						<path fill="#1D1D1D" d="M75.4,350.8c-0.1,0-0.1,0-0.2,0C75.6,350.8,75.5,350.8,75.4,350.8z"/>
						<path fill="#1D1D1D" d="M75.4,350.8c0.6,0,1-0.1,1.5-0.1c-0.7,0-1.3,0-1.9,0.1C75.1,350.8,75.3,350.8,75.4,350.8z"/>
						<path fill="#1D1D1D" d="M101.8,349.9c-0.2,0.1-3.1,0.3-5.7,0.1c-2.5,0.1-0.9,0.5,1.3,0.8c0.1-0.1,0.1-0.1,2.6-0.2
							c-0.9-0.1-5.7-0.2-3.5-0.3c3.4-0.1,2.8,0.1,4.4,0.1c-1.4-0.1,4.3-0.3,3.6-0.4l-3,0.1C101.5,349.9,102.6,349.9,101.8,349.9z"/>
						<path fill="#1D1D1D" d="M92.5,350.7h-1.1c1.2,0,2,0.1,3.6,0.2c1.7-0.1,2.1-0.1,2.2-0.1h-5.2L92.5,350.7z"/>
						<path fill="#1D1D1D" d="M86.7,350.7c0.8-0.1,3.4-0.2,1.8-0.3c-3.1,0-2.2,0.1-4,0.2C89.5,350.5,83.1,350.6,86.7,350.7
							c-1,0-1.9,0-2.7,0c0.9,0,1.8,0.1,2.6,0.1c-0.1,0-0.1,0-0.1,0l0,0l0,0c-0.2,0-0.3,0-0.1,0c0,0,0.1,0,0.1,0
							C86.5,350.8,86.6,350.8,86.7,350.7c1.5,0,0.3,0.1-0.3,0.1h-0.1l0,0l5-0.1C90.4,350.7,89.1,350.7,86.7,350.7z"/>
						<path fill="#1D1D1D" d="M61.6,350.1c0.1,0,0.1,0,0.2,0.1C62.1,350.1,62.2,350.1,61.6,350.1z"/>
						<path fill="#1D1D1D" d="M63.6,350.1c-0.4,0-0.6,0.1-1.9,0.1c-1-0.1,0-0.1-0.1-0.1c-0.7,0.1-2.5,0.1-0.3,0.2h0.4
							c2,0.1,4.6,0.2,4.3,0.3C65.5,350.3,65,350.3,63.6,350.1z"/>
						<path fill="#1D1D1D" d="M75.3,350.4l4.2-0.1l-2.1-0.1l0.1,0.1C75.1,350.3,75.6,350.3,75.3,350.4z"/>
						<polygon fill="#1D1D1D" points="98.1,350.8 97.6,351 100,350.8 						"/>
						<polygon fill="#1D1D1D" points="103.5,350.8 103.3,350.9 104.8,350.8 						"/>
						<path fill="#1D1D1D" d="M409.5,349.2l1.2-0.1C410.2,349.2,409.8,349.2,409.5,349.2z"/>
						<path fill="#1D1D1D" d="M400.6,349.2l-0.2,0.1C400.9,349.2,401,349.2,400.6,349.2z"/>
						<path fill="#1D1D1D" d="M236.7,350.8c1.8,0.1,3.8,0.3,3.6,0.1l-0.6-0.1C238.5,350.8,237.5,350.8,236.7,350.8z"/>
						<path fill="#1D1D1D" d="M327.9,349.9c-0.2,0-0.3,0-0.5-0.1c-0.4,0.1-0.8,0.1-1.2,0.1C326.7,350,327.3,350,327.9,349.9z"/>
						<path fill="#1D1D1D" d="M329.2,349.4l2.4,0.1C331,349.4,330.2,349.4,329.2,349.4z"/>
						<path fill="#1D1D1D" d="M458.1,349.1l1.4-0.1C457.2,348.9,458.2,349,458.1,349.1z"/>
						<path fill="#1D1D1D" d="M159.1,350.8c1.5,0.1,2.7,0.1,3.8,0.1C161.1,350.8,159.6,350.6,159.1,350.8z"/>
						<path fill="#1D1D1D" d="M406.1,350.7c0.8,0,1.1-0.1,1-0.1C406.3,350.6,405.9,350.6,406.1,350.7z"/>
						<path fill="#1D1D1D" d="M167.4,350.8c-0.3,0-0.5,0-0.8-0.1c-1.2,0-2.2,0.1-3.6,0.1C164.3,350.9,165.9,351,167.4,350.8z"/>
						<path fill="#1D1D1D" d="M633.9,349.2c0.1,0,0.3,0,0.4,0C634.3,349.2,634.1,349.2,633.9,349.2z"/>
						<path fill="#1D1D1D" d="M685.1,350.6c-0.5,0-1.3,0-2.1,0C683.4,350.6,684,350.6,685.1,350.6z"/>
						<path fill="#1D1D1D" d="M125.4,350.8C124.2,350.9,125.2,350.9,125.4,350.8L125.4,350.8z"/>
						<path fill="#1D1D1D" d="M119.8,350.3c0.3,0,0.4-0.1,0.4-0.1C120.1,350.3,119.9,350.3,119.8,350.3z"/>
						<path fill="#1D1D1D" d="M178.8,349.9c0.1,0,0.1,0,0.1,0C178.6,349.9,178.6,349.9,178.8,349.9z"/>
						<path fill="#1D1D1D" d="M123.7,350.8c0.4,0,1,0,1.5,0.1C124.9,350.8,124.4,350.8,123.7,350.8z"/>
						<path fill="#1D1D1D" d="M123.8,350.8c-0.4,0-0.7,0-1,0C122.7,350.9,122.8,350.9,123.8,350.8z"/>
						<path fill="#1D1D1D" d="M127,350.8c-0.6,0-1.3,0-1.9,0c0.3,0,0.3,0,0.3,0C125.7,350.8,126.2,350.8,127,350.8z"/>
						<path fill="#1D1D1D" d="M539.6,349.6c0.1,0,0.2,0,0.3,0C541,349.6,540.5,349.6,539.6,349.6z"/>
						<path fill="#1D1D1D" d="M266.6,349.4c-0.1,0-0.1,0-0.1,0C266.6,349.4,266.6,349.4,266.6,349.4L266.6,349.4z"/>
						<path fill="#1D1D1D" d="M270.8,349.2c-1.8,0.2-2.7,0.1-4.1,0.1l1.3,0.4L270.8,349.2z"/>
						<path fill="#1D1D1D" d="M430.8,349.2l-2.9-0.1c3.5-0.2,6-0.1,3.3-0.3c-0.4,0.4-11.3,0.1-11.7,0.4l-1.9-0.1c0.6,0,0.6,0,1.2,0
							c-3.7-0.2-2.7,0.3-7.5,0.3c-1.7-0.1-2.8-0.1-1.7-0.1l-3.7,0.1c-1.1,0-0.8-0.1,0.3-0.1l-5.7,0.1h0.1c-0.8,0.1-2.6,0.2-3.5,0.2
							c-1.5-0.1,0.7-0.1,0.4-0.1l-3.1,0.1c-1.3-0.1,1.3-0.2,3.5-0.2c-2.9-0.4-2.6,0.1-9-0.1l2.9-0.1c-1.9-0.3-4.2-0.1-7.6-0.3
							c0.8,0.1,6.7,0.4,3.3,0.5c-1-0.1-2.2-0.1-4.1,0.1c0-0.1-1.8-0.1-4.1-0.1l0.1-0.2c-2.4,0.1-2.2,0.2-3.6,0.3
							c-2.7,0-3.3-0.2-3.9-0.3c-4.3-0.1,3,0.3-2.1,0.3c-3.6-0.1-6.1,0-10.5,0.1c-2.5-0.1,0.4-0.1-0.4-0.2l-2.2,0.2
							c-0.6,0-0.4-0.1-0.3-0.1c-1.9,0.1-0.1,0.2-3.1,0.3c-0.8,0.3-6.1-0.3-9.8-0.1c-0.9-0.1,0.4-0.1,0.2-0.2
							c-5.1,0.2-4.3,0.1-8.4,0.3l-3.5-0.1c2.6,0.1-0.7,0.3-3.6,0.5c0.9,0.1,1.7,0.1,2.2,0.2l-4.6,0.1c-0.6-0.1-0.1-0.1,0.6-0.2
							c-0.3,0-0.6,0.1-0.8,0.1c-1.7-0.1-0.8-0.2,0.4-0.3c0.6,0.1,1.2,0.1,1.7,0.1c1.2-0.1,2.2-0.3,2-0.4c-0.3,0-0.9,0.1-1.5,0.1
							c0.3-0.1,0.5-0.1,0.3-0.1c-0.1,0-0.6,0-1.4,0.1l-1-0.3l-0.3,0.1l-6.1-0.1c-4.3,0.3-8.1,0.6-15,0.6c1.7-0.2,0.4-0.3,0.4-0.4
							c1.9,0.2,5.3-0.1,8.9-0.1c-1.9,0-1.5-0.1-1-0.1l-6.3,0.2c0.1-0.2-1.3-0.1-3-0.2c1.3,0.3-4.7,0.2-7.3,0.3
							c-0.2-0.1,0.4-0.2,3.6-0.2c-3.5-0.3-4.5,0.4-7.9,0.2c0.8,0,1.2,0,1.5-0.1c-1.8,0.1-6.2,0-5.2-0.1h0.8
							c-5.1-0.1-15.5,0-16.3,0.3c-0.1-0.1,0.6-0.3,1-0.4l-9.1,0.9c0.8-0.3-2.3-0.8,2-0.9c-1.2-0.1-2.7-0.1-5.3,0
							c0.8,0.1,2,0.3,1,0.4c-3.1-0.3-2.2-0.1-6-0.4c1.2,0.1-0.1,0.4-2.1,0.4c0.3-0.1-0.2-0.4,0.6-0.4l-4.9,0.4
							c1.2-0.1,0.2-0.3-0.9-0.4c0.5,0.1-4.2,0-5.6,0l2,0.1c-5.5-0.1-5.4,0.5-10.9,0.5c0.6-0.1,1.7-0.4-1.2-0.5
							c-1.3,0.2-5.6,0.9-10.5,1l-1-0.1l-3.7,0.1c2.3-0.3,8.8-0.8,12.3-1.1c-2-0.1-0.6-0.1-3.6-0.1c-1.1-0.1,1.7-0.1,2.6-0.1
							l-7.2-0.1c0.3,0.2-5.5,0.2-5.2,0.4l7.8-0.2c0.3,0.2-4.5,0.6-9.7,0.6c-1.3-0.1,1-0.4,0.9-0.4c-0.6,0.1-4.9,0.1-5.3,0.1l2.2-0.1
							c-2.8-0.1-4.7,0.3-8.1,0.1c-1.2,0-3.5-0.3-3.7-0.1c1.9,0.3,2.3,1,1,1.2c-0.4,0-6.2-0.3-7.5-0.4c-1.9-0.2,2.9-0.4,1.3-0.6
							c-0.1,0.1-1.2,0.1-1.6,0.1c-1.2-0.1,0.5-0.2-2.2-0.1c-0.4,0.2-5.5,0-1.3,0.2c-2.6,0.1-2.8-0.1-5.9-0.1c1,0.1-2.7,0.4-5.4,0.5
							c0.1-0.1-0.4-0.1-0.7-0.2c-5.4,0-8.3-0.1-13.3-0.1c-0.4-0.1-2.9-0.1-1.9-0.2c-0.7,0.1-1.4,0.1-2.9,0.1c-3-0.2,3.5,0,1.2-0.3
							c-0.2,0.1-4,0.2-6.2,0.3c0.7,0.2,5.1,0.1,7.3-0.1c0,0.3-3.8,0.6-9.1,0.7c-4.2,0.1-1.8-0.2-2.6-0.1c-7.9-0.1-6.7,0.4-13.2,0.3
							c-2.6-0.2-0.1-0.3-0.7-0.4c3.4-0.1,5.2,0.1,7.5,0.1l-2.8-0.1c1.1-0.1,3.3-0.1,4.6-0.1c-2.2-0.1-13.2,0-19.3-0.2
							c-1.1,0.1-2.9,0.1-2,0.2h1.9c1.8,0.1-3.6,0.2-1.2,0.3c-2.6,0.1-5.4,0.3-9.1,0.2l-0.7-0.2c0.1,0.1,2.4,0.1,3.4,0.1
							c-1.5,0.1-5.6-0.3-7.2,0l2.6,0.1c-2.6,0.1-5.8,0.3-9,0.3c1.5,0.2,0.8,0,3,0.2c-2-0.3,8.2,0,5.1-0.3c2.4,0.3,4,0.1,7.1,0.3
							c-0.1-0.1-1.1-0.1,1.6-0.1c0.1,0,0.4-0.1,0.6-0.1c0.1,0,0.1,0,0.2,0c-0.1,0-0.1,0-0.1,0c0.1,0,0.1,0-0.1,0
							c-0.6,0-1.2-0.1-1.3-0.1c1.3-0.1,5.6-0.1,7-0.2c1.6,0-0.6,0.1,0.2,0.1l2.2-0.1c0.2,0.1,4.2,0.3,0.5,0.3h3.4
							c2,0.1,4.7,0.1,6.5,0.1c1.6,0,4-0.1,2.6-0.1l5.3-0.1l0.1,0.1c5.2,0,10.8-0.3,16.8,0c1.8-0.1,3.6-0.1,6.5-0.1l0.6,0.1
							c2.2-0.1,6.8,0.1,7.8,0c2.4,0.3,11,0.1,15,0.1l0.1-0.2c2.7,0,5.4-0.1,8.8-0.1l-0.2-0.1c2.9-0.1,7.5,0.1,12.2,0.1
							c-0.3,0.1-1.5,0.1-2.3,0c5.6,0.3,11.7-0.3,16.8,0c1.3-0.1,2.2-0.1,3.1,0c-0.1,0-0.2,0-0.3,0c0.1,0,0.3,0,0.5,0
							c0.6,0,1.2,0.1,1.7,0.1c-0.5-0.1-1-0.1-1.5-0.1c1,0,2.4,0,3.9-0.1l0.6,0.1c0.1,0,0.2,0,0.3,0c1.4,0.1,1.2-0.1,0.4-0.2
							c0.7,0,1.4-0.1,1.9-0.1c1.2,0.3,3.8-0.1,5.3,0.2c1-0.1,7.2-0.1,8-0.4c0.1,0.1,0.4,0.1-0.3,0.1c1.6,0,3.2,0.1,4.7,0l0.7,0.2
							l3.5-0.3c2.1,0.1,3,0.2,0.9,0.3c5.1-0.3,4.2-0.1,8.4-0.3l-0.2,0.1c1.5,0,4-0.2,5-0.1c3.5,0.3,17.1,0.1,26,0.3
							c-1.7-0.4,4.2,0.2,4.5-0.1c0.5,0.1,1.7,0.1,0.3,0.2c4.5-0.1,6.8,0.1,10-0.1c0.5,0.1-1,0.1-0.5,0.2c0.4,0,1.5-0.1,1.9,0
							c0.4,0.1-0.6,0.1-1.4,0.1c4.7,0,5.1-0.3,5.4-0.5c2.4,0.1,3.5,0.1,5.2-0.1c0.8,0.1,2.2,0.2-0.7,0.2c1.6,0,9.9,0.1,10-0.1
							c0.5,0.1,2.2,0,2.7,0c3.6,0,4,0,7.5,0l-1-0.1c1.4-0.3,2.9-0.1,5.8-0.1h-0.1c6.6,0.2,2.9-0.1,9.3,0.1l-0.4-0.1
							c0.6-0.3,5.8,0.2,9.5,0.1l-1.3-0.1c2-0.1,5.8,0.4,7.9,0.5c0.4,0-0.7,0.1-1.3,0.1c5.4,0.2,0.7-0.2,4.7-0.3
							c0.8,0.1-1,0.3,1.8,0.3c1.3,0.1,7.9-0.4,11.6-0.1c-0.8-0.1-1.7-0.2,0.3-0.3c2.9,0,7.8,0.3,10.4,0.1c0.4,0,0.5,0.1,0.5,0.1
							c2.2-0.1,7.2-0.1,8.5-0.3c2,0.5,13.7-0.3,13.6,0.3h6.8l-0.2,0.1c4.3,0.1,5.9-0.1,7.4-0.2c1,0.1,0.3,0.1,0.2,0.1
							c6.3,0.1,7,0.1,12.3-0.2l0.6,0.1c1.4-0.1,9.1,0.3,15.3,0.1c-0.1,0-0.2,0.1-0.7,0.1c7-0.2,16.7,0.4,19.2-0.1l4.6-0.1
							c-5.9-0.1,0.9-0.3-1.5-0.3c2.4-0.1,6.1,0.2,3.2,0.2H496c-1.1,0.3,7.4,0.1,7.2,0.3c11.7,0,23.1,0.1,34.1,0.2l-1.3-0.3h3.8
							c1,0.1,1.3,0.2-1.4,0.2c1.4,0.1,4.6-0.1,4.7-0.2c5.4,0.1-2.1,0.3-0.4,0.3h2.2h-0.5c1.8-0.1,2-0.2,5.2-0.2
							c2.1,0.1,1.1,0.1,1.9,0.1c0,0,0.3,0,1.3,0h4.8l-1.9-0.2c2.1-0.1,4.5,0,2.3-0.2c3.3,0.3,18,0.1,20,0.2c3-0.1,5.9-0.1,9.6-0.1
							c-0.9-0.1-1.5-0.3,1.7-0.2c-1.2,0.4,5.8,0.2,8.3,0.5c-2.3-0.2,9-0.1,5.4-0.3c2.6,0.1,0.2,0.2,2.2,0.3
							c6.3-0.2,13.8,0.1,21.6,0.1c0.1-0.1-1.2-0.1,0.5-0.3l4.1,0.3c1.5,0,1.4-0.3,4.2-0.1c-0.4-0.1-1-0.1,0.1-0.1
							c15.2,0.3,31.1-0.3,46.5,0.3c-2.1-0.1-0.7-0.1,0.9-0.1c-1,0,0-0.1-0.2-0.2l6.5,0.2c1.2-0.2,6.9,0,7.6-0.2l-2,0.1
							c2.7-0.3-3.8-0.5-3.4-0.8c-3.1,0.3-8.1-0.4-13,0c-1.1-0.1,1-0.1,0.3-0.2c-1.3,0.1-2.8,0.1-5.6,0.1l0.3-0.1
							c-8,0.1-11.4-0.1-20.3-0.2l0.6,0.1c-1.9,0-2.3-0.1-3.2-0.1c-2.2,0.3,5.4,0,3.4,0.3c-2.6-0.3-13.6,0-15.3-0.4
							c-2.9,0,0.9,0.2-2.1,0.2l-0.8-0.1l-0.8,0.1c-1.9,0-2.9-0.1-3-0.2c0.4,0,1.3,0,1.9,0c-2.5-0.1-7.1,0.1-7.9,0l2.8,0.1
							c-8.1,0.1-17.9-0.1-25.7,0.1l0.6,0.1c-5.9,0.1-4.8-0.1-11.3,0h0.3c-1.3,0.1-3.1,0.1-4.9,0.1c1.7-0.1-3.1-0.2-1-0.3
							c-6.5,0.1-3.2,0.1-7.5,0.4l-1-0.1c-1.5,0.1-1.6,0.2-4.9,0.2c2.7-0.1-2.1-0.2,0.9-0.3c-6.8-0.3-10.2,0.3-13.3-0.1
							c-3.1,0.3,5.9,0.2,4.2,0.3c1.5,0.1-2.6,0.3-4.7,0.2c-2.2,0-3.7-0.4-9.2-0.4c0.6,0,0.6,0,1.2,0c-2-0.1-4,0.1-6.6,0
							c-1.4,0.2-3.3,0-3.7,0.3l5.1-0.1c-2.9,0.1-5.6,0.4-10.3,0.2c0.4-0.1,1.8-0.1,2.7-0.1c-1.4-0.1-2.7,0.1-4.1,0
							c0.4-0.3,6.1-0.1,9.2-0.3c-1.5-0.1-5.8,0.2-4.3-0.1c-2.2,0.3-5.4-0.1-9.1,0.2l0.3-0.1c-0.6,0-1.8,0.1-2.9,0.1l2-0.2
							c-3,0.2-5.8-0.1-8.7-0.1c6.1,0,1.3,0.2,3.9,0.3c-7.5,0.2-4.3-0.4-12.7-0.3c1.2,0,4.3,0.1,2.5,0.2c-1.6,0-3.7-0.1-4.7-0.2
							c-5.6,0,0.8,0.1-1.5,0.3c-1.9-0.2-2.7,0.1-5.2,0.1v-0.1c-6.3-0.1-1.7,0.3-7.4,0.2l2.4-0.2l-2.9,0.1l0.6-0.2
							c-3.2,0.1-4.2,0.1-7.4,0.1c0.7,0.1-0.4,0.3-3.2,0.3c-1.9-0.1,1.1-0.1-2.9-0.1c0.9-0.1,1.9-0.2,3.6-0.1
							c0.2-0.1,0.9-0.1,1.1-0.1c-2-0.1-5.2,0-6.6,0c0.6,0,1.2,0,1.5,0.1l-5.8,0.2c-0.9-0.1-0.2-0.1,0.5-0.1c-1.2,0-2,0.1-3.7,0.1
							c0.4-0.1,0.3-0.3,2.7-0.3l-5.5,0.1c-0.4-0.1-2.8-0.1-2.1-0.2c-3.1-0.1-7.5,0.3-11.5,0.1c-0.2,0-0.6,0.1-1.5,0.1
							c-3.8,0-7.2-0.2-11.6,0l-2.6-0.3c-3.5,0.1,3.5,0.3-2.4,0.4c-4.2,0.1-1.5-0.2-3-0.3c-2,0.1-5.6,0.3-9.5,0.2
							C428.6,349.2,429.6,349.2,430.8,349.2z M387.5,349.3c0.8-0.1,2.5-0.1,3.1-0.1C389.6,349.4,388.9,349.4,387.5,349.3z
							 M321.5,349.7c0.6-0.1,1.6,0,2.7,0.1C323.5,349.7,322.6,349.7,321.5,349.7z M138,350.7C138,350.7,138,350.7,138,350.7
							C139.9,350.8,139.3,350.8,138,350.7z M134.1,350.6c-0.4,0-0.4,0.1-0.2,0.1c0.3-0.1,1.2-0.1,2.1,0
							C135.7,350.6,135.2,350.6,134.1,350.6z M551.9,350.6l-0.8-0.1C552.9,350.5,552.4,350.6,551.9,350.6z"/>
						<path fill="#1D1D1D" d="M329,349.4c0.3,0,0.3,0.1,0.4,0.1C329.7,349.5,329.7,349.5,329,349.4z"/>
						<path fill="#1D1D1D" d="M457.7,349.1c0.1,0,0.1,0,0.1,0c0.1,0,0.1,0,0.1,0H457.7z"/>
						<path fill="#1D1D1D" d="M194.4,349.4c0.8,0,1.3,0.1,1.5,0.1C195.9,349.4,195.6,349.4,194.4,349.4z"/>
						<path fill="#1D1D1D" d="M113.4,351l2.5-0.1c-1.2,0-1.7,0-2.2-0.1C113.7,350.9,114.3,350.9,113.4,351z"/>
						<path fill="#1D1D1D" d="M91.8,350c-0.4,0-0.8,0-1.2,0l0.1,0.1C92.3,350.1,93.4,350,91.8,350z"/>
						<path fill="#1D1D1D" d="M111.1,350.4c-0.2-0.1-1.8-0.1-3.5-0.1c0.1,0,0.2,0,0.3,0C107.4,350.5,109.3,350.4,111.1,350.4z"/>
						<path fill="#1D1D1D" d="M107.2,350.4c-0.5,0-1.1,0-1.6,0C105.4,350.4,106.3,350.4,107.2,350.4z"/>
						<path fill="#1D1D1D" d="M129.2,350.8c-0.8-0.1-0.5,0.2-1,0.1C127.2,351,133.7,350.6,129.2,350.8z"/>
						<polygon fill="#1D1D1D" points="109.7,350 110.4,350.1 111.3,350 						"/>
						<path fill="#1D1D1D" d="M123.5,350.1l-2.8-0.1c0.1,0-0.3,0.1-0.8,0.1C121.7,350.1,123.6,350.1,123.5,350.1z"/>
						<path fill="#1D1D1D" d="M119.9,350.1c-0.9,0-1.7,0-2.2,0C118.2,350.1,119.2,350.1,119.9,350.1z"/>
						<polygon fill="#1D1D1D" points="113.6,349.9 114.4,350 116.4,350 						"/>
						<path fill="#1D1D1D" d="M153.5,350.1l3.1-0.1c0.3-0.1-0.5-0.1-1.7-0.1C154.2,350.1,153.1,350.1,153.5,350.1z"/>
						<path fill="#1D1D1D" d="M144.3,349.7c0.8,0.1,0.9,0.1,1.3,0.1l0.1-0.2L144.3,349.7z"/>
						<path fill="#1D1D1D" d="M153.2,349.7c0.3-0.1,4.4-0.1,0.6-0.1C153.5,349.6,150.4,349.6,153.2,349.7z"/>
						<polygon fill="#1D1D1D" points="199,349.9 198.3,349.9 198.4,350.3 						"/>
						<path fill="#1D1D1D" d="M239.5,349.1c-3.6-0.1-0.8,0.2-4.1,0.1c-0.8,0.1,2.7,0.1,1.8,0.1C239.3,349.3,240.5,349.4,239.5,349.1
							z"/>
						<path fill="#1D1D1D" d="M237.1,349.4c-0.3,0-0.7,0-1.1,0.1C236.7,349.4,237,349.4,237.1,349.4z"/>
						<polygon fill="#1D1D1D" points="693.6,350.8 695.9,350.8 694.4,350.7 						"/>
						<path fill="#1D1D1D" d="M698,350.5l0.6,0.2l1.4-0.2C699.4,350.6,698.5,350.6,698,350.5z"/>
						<path fill="#1D1D1D" d="M381,348.8l-0.2,0.1c0.4,0.1,0.9,0.1,2,0.1L381,348.8z"/>
						<polygon fill="#1D1D1D" points="412.5,349 412,349 412.9,349.2 						"/>
						<path fill="#1D1D1D" d="M438.9,348.8c-1.1,0-2.4,0.1-3.5,0C437.8,348.8,439.2,349,438.9,348.8z"/>
					</g>
				</g>
			</g>
		</g>
	</g>
</g>
</svg>
