<?xml version="1.0" encoding="utf-8"?>
<!-- Generator: Adobe Illustrator 18.1.1, SVG Export Plug-In . SVG Version: 6.00 Build 0)  -->
<svg version="1.1" id="Layer_1" xmlns="http://www.w3.org/2000/svg" xmlns:xlink="http://www.w3.org/1999/xlink" x="0px" y="0px"
	 viewBox="0 0 724.8 114.1" enable-background="new 0 0 724.8 114.1" xml:space="preserve">
<path fill="#FBF5EA" d="M553,0c-29.6,0-54.6,25.3-54.6,55.3c0,34.1,23.2,58.8,55,58.8c30.1,0,54.5-26.4,54.5-58.8
	C608,24.8,583.3,0,553,0 M553.4,100.2c-25.4,0-34.7-26.5-34.7-44.3c0-16.2,9.3-41.9,34.2-41.9c23.9,0,34.7,24.2,34.7,41.3
	C587.7,77.6,575.9,100.2,553.4,100.2 M34.8,0c19.3,0,40,8.6,40,32.6c0,23.2-22.7,37.2-46.3,37.2C28.4,66,28.3,62,28.3,58
	c17.9-1.4,27.4-10,27.4-24.3c0-12.3-10-20.9-24.3-20.9H19.9c0,35.8,0.7,87.3,2.1,100.1c-7.7-1.5-14-1.6-21.9,0
	C1.9,97.3,3.1,14.7,0,0c0,0,14.5,0.5,17.7,0.5C21.5,0.1,30.9,0,34.8,0 M219.8,0.9c-5.6,21.9-29,85.2-40.3,112.1
	c7.4-1,15.2-0.8,18.8-0.2c3.8-12.1,7.8-26.4,9.6-31.8c11.7-0.8,25.5-0.8,39.4,0c4.2,11.3,6.7,19.3,10.5,31.7
	c7.2-0.7,14.5-0.6,22.3,0.1C269,85.9,243,16.7,238.9,0.8C233.2,1.5,226,1.5,219.8,0.9 M212.4,65.9c0,0,10.7-31.9,14.3-42.9
	c0,0,11.1,31.5,15.1,42.9C229.9,67.1,223.9,67.1,212.4,65.9 M119.1,98.7c11.8,0.5,39.9-1.2,39.9-1.2c0.1,12.1-0.7,15.7-0.7,15.7
	c-10.5-1.4-42.1-2.1-59.2,0c2.5-27.3,1.7-83.7,0.1-112.9c15.8,1.3,46,1.1,58.8,0v15.8c-11-1-28.4-2.1-38.4-1.8
	c0,0-0.4,26.1-0.1,32.8c17.8,1.3,30.9-0.8,36.5-1.2v15.7c0,0-20.7-2-36.4-0.8C119.1,71.4,119.1,87,119.1,98.7 M724.4,110.5
	c0.1,0.3,0.4,2.3,0.4,2.3c-4.9-0.7-12.3-0.9-17-0.1c-8.9-13.1-44-61.1-57.9-79c-0.5,26.2-0.8,65.9,0.8,78.9
	c-2.1,0.1-5.2-0.1-6.8-0.1c-4.7,0-6.8-0.2-11.1,0.3c2.3-13.6,2.9-97.1,0-111.8c6.7,0.1,12.3,0.2,14.1,0.1c1.6-0.1,2.7-0.3,2.7-0.3
	s37.8,50.6,57.5,77.1c0.2-10,1.1-60.3-0.8-77.3c2.7,0.4,5.9,1.3,9.2,1.3c3-0.1,6.2-0.8,9.2-1.3C722,21.9,721.1,94.5,724.4,110.5
	 M374.3,30.2c0,18.1-12.2,28.5-24,30.8c8.6,11,39.4,51.9,39.4,51.9c-7.8-1.2-19.2-1-25-0.3C355,97.3,338.3,73.5,332,65.8
	c-0.1-4.4-0.2-7.8-0.2-12.1c19.1,0.4,23.2-12.3,23.2-21.4c0-12-10.9-18.3-21.7-18.3h-9.4c-0.8,21.5,0.7,74.2,1.7,98.7
	c-7.5-0.8-15.7-0.6-21.7,0c2.5-18,2.1-99.8,0-112.3c0,0,11.8,0.9,16.9,0.6c4.6-0.3,8.9-0.5,14.4-0.5C347,0.5,374.3,3.4,374.3,30.2
	 M453.8,48.9c12.3,7.8,21.7,15.2,21.7,31.9c0,24.1-18.9,32.7-35.1,32.7c-13.3,0-27.5-7-34-12.1c2.4-4.8,5-9.8,6.9-16.7
	c7.3,8.1,18.4,13.9,26.1,13.9c10.1,0,16.2-5.5,16.2-14.8c0.4-6.9-4.6-11.9-10.9-17.1c-4.6-3.8-16.1-11.3-18.9-13.5
	c-9.1-7.4-14.7-13.6-14.7-25.5c0-15.8,14-27.7,32.6-27.7c9.5,0,18.4,2.8,29.3,10.1c-2.7,4-6.4,10.3-8.3,16
	c-4.4-5.9-11.1-12.2-20.4-12.2c-8.8,0-14.3,5.1-14.3,13.3c0,2.7,1.9,5.7,5.9,9.3C440,40,445.5,43.8,453.8,48.9"/>
</svg>
