<?xml version="1.0" encoding="utf-8"?>
<!-- Generator: Adobe Illustrator 18.1.1, SVG Export Plug-In . SVG Version: 6.00 Build 0)  -->
<svg version="1.1" id="Layer_1" xmlns="http://www.w3.org/2000/svg" xmlns:xlink="http://www.w3.org/1999/xlink" x="0px" y="0px"
	 viewBox="0 0 19 26" enable-background="new 0 0 19 26" xml:space="preserve">
<path fill="#D0EEE4" d="M13.3,6.8c0,0.2,0,0.3-0.1,0.5c-0.1,0.2-0.2,0.3-0.4,0.4c-0.2,0.1-0.3,0-0.4,0c-0.1-0.1-0.2-0.2-0.3-0.4
	c0-0.2,0-0.3,0.1-0.5c0.1-0.2,0.2-0.3,0.4-0.4c0.1-0.1,0.3,0,0.5,0C13.2,6.5,13.3,6.7,13.3,6.8z M18.8,13c0,5.1-4.2,9.3-9.3,9.3
	c-5.1,0-9.3-4.2-9.3-9.3s4.2-9.3,9.3-9.3C14.6,3.7,18.8,7.9,18.8,13z M5.5,8.5c0-0.1-0.1-0.2-0.2-0.3C5.2,8.1,5.1,8,5,8
	c-0.1,0-0.2,0-0.3,0c-0.1,0-0.2,0.1-0.4,0.2C4.1,8.4,4,8.5,4,8.5c-0.1,0-0.1,0-0.1,0c0,0-0.1-0.1-0.1-0.1c0-0.1,0.1-0.2,0.1-0.3
	C4,8,4.1,7.9,4.1,7.9c0.1,0,0.2,0,0.2,0.1l0.3-0.3C4.5,7.5,4.3,7.5,4.2,7.5C4,7.5,3.8,7.6,3.6,7.8C3.5,7.9,3.5,8.1,3.4,8.2
	c0,0.1,0,0.2,0,0.3c0,0.1,0.1,0.2,0.2,0.3C3.7,8.9,3.8,8.9,4,8.9c0.1,0,0.3-0.1,0.5-0.2c0.1-0.1,0.2-0.2,0.3-0.2
	c0.1,0,0.1-0.1,0.2-0.1c0,0,0.1,0,0.1,0.1c0.1,0.1,0.1,0.1,0.1,0.2c0,0.1,0,0.2-0.1,0.3C4.9,9.1,4.8,9.1,4.7,9.2
	c-0.1,0-0.2,0-0.3-0.1L4.2,9.4c0.2,0.1,0.4,0.2,0.6,0.2c0.2,0,0.4-0.1,0.5-0.3C5.4,9.1,5.5,9,5.5,8.8C5.5,8.7,5.6,8.6,5.5,8.5z
	 M7.2,7.7L7.1,7.4L6.1,8L5.8,7.5L6.7,7L6.5,6.7L5.6,7.2L5.4,6.8l1-0.6L6.1,5.9L4.8,6.7l1.1,1.8L7.2,7.7z M8.9,6.6l-0.4,0
	c0,0.2,0,0.3-0.1,0.4C8.3,7,8.3,7.1,8.2,7.1C8,7.2,7.9,7.1,7.8,7C7.6,7,7.5,6.8,7.5,6.5C7.4,6.3,7.4,6.1,7.5,6
	c0.1-0.1,0.2-0.2,0.3-0.2c0.1,0,0.2,0,0.3,0c0.1,0,0.2,0.1,0.2,0.2l0.4-0.2C8.6,5.6,8.5,5.5,8.4,5.5C8.2,5.3,8,5.3,7.8,5.4
	C7.5,5.4,7.3,5.6,7.2,5.8C7,6,7,6.3,7.1,6.7C7.2,7,7.3,7.2,7.5,7.4C7.7,7.5,8,7.5,8.2,7.5c0.2-0.1,0.4-0.1,0.5-0.3
	C8.9,7,8.9,6.9,8.9,6.6z M10.2,5.6l0.6,0l0-0.4L9.2,5.2l0,0.4l0.6,0L9.7,7.3l0.4,0L10.2,5.6z M11.2,7.5l0.5-2l-0.4-0.1l-0.5,2
	L11.2,7.5z M13,8.1c0.3-0.1,0.5-0.3,0.6-0.6c0.2-0.3,0.2-0.6,0.1-0.8c-0.1-0.3-0.2-0.5-0.5-0.6C13.1,6.1,12.9,6,12.8,6
	c-0.1,0-0.2,0-0.3,0c-0.1,0-0.2,0.1-0.3,0.2c-0.1,0.1-0.2,0.2-0.3,0.4c-0.2,0.3-0.2,0.6-0.1,0.8c0.1,0.3,0.2,0.5,0.5,0.6
	C12.5,8.2,12.7,8.2,13,8.1z M15.8,8.4l-0.3-0.3l-1,0.9L15,7.5l-0.3-0.3l-1.5,1.4l0.3,0.3l1-0.9L14,9.5l0.3,0.3L15.8,8.4z"/>
</svg>
