<?xml version="1.0" encoding="utf-8"?>
<!-- Generator: Adobe Illustrator 18.1.1, SVG Export Plug-In . SVG Version: 6.00 Build 0)  -->
<svg version="1.1" id="Layer_1" xmlns="http://www.w3.org/2000/svg" xmlns:xlink="http://www.w3.org/1999/xlink" x="0px" y="0px"
	 viewBox="-113 -112.9 245 245" enable-background="new -113 -112.9 245 245" xml:space="preserve">
<path fill="#00458D" d="M61.6-71.5c0.4,2-0.1,4.4-1.7,7.1c-1.6,2.8-3.4,4.5-5.4,5.2c-2,0.7-4,0.5-5.9-0.6c-1.9-1.1-3.1-2.7-3.6-4.8
	c-0.5-2.1,0.1-4.5,1.6-7.2c1.6-2.7,3.3-4.5,5.3-5.1c2-0.7,4-0.5,6,0.7C59.9-75.1,61.1-73.5,61.6-71.5z M132,9.6
	c0,67.7-54.8,122.5-122.5,122.5S-113,77.2-113,9.6S-58.2-112.9,9.5-112.9S132-58.1,132,9.6z M-43-50.1c-0.4-1.6-1.3-2.9-2.4-3.9
	c-1.3-1.2-2.6-1.8-4-2.1c-1.4-0.2-2.7-0.1-4.1,0.4c-1.4,0.5-3.2,1.6-5.4,3.2c-2.3,1.6-3.8,2.5-4.7,2.6c-0.7,0.1-1.3-0.1-1.8-0.5
	c-0.5-0.5-0.8-1.1-0.7-1.8c0.1-1.1,0.7-2.3,1.8-3.5c1-1.2,2-1.8,3-2c1-0.2,2.1,0.1,3.3,0.9l3.5-4.3c-1.9-1.6-4.1-2.3-6.3-2
	c-2.3,0.3-4.6,1.7-6.9,4.3c-1.4,1.6-2.4,3.1-2.9,4.7c-0.5,1.5-0.6,3-0.2,4.4c0.4,1.4,1.1,2.6,2.1,3.5c1.6,1.4,3.6,2,5.8,1.8
	c1.6-0.2,3.7-1.1,6.2-2.9c2-1.3,3.2-2.2,3.8-2.5c0.9-0.5,1.6-0.7,2.2-0.7c0.6,0,1.1,0.2,1.6,0.7c0.8,0.7,1.1,1.6,1.1,2.8
	c0,1.2-0.6,2.4-1.8,3.8c-1.1,1.3-2.3,2-3.6,2.2c-1.3,0.2-2.7-0.2-4.3-1.2L-61-38c2.5,1.8,5,2.5,7.4,2.2c2.4-0.3,4.8-1.8,7.1-4.4
	c1.6-1.8,2.7-3.5,3.2-5.1S-42.6-48.5-43-50.1z M-19.9-60.6l-2.4-4l-13.1,7.9l-3.8-6.4l11.8-7.1l-2.4-4l-11.8,7.1l-3.1-5.2l12.7-7.6
	l-2.4-4l-17.4,10.5l14.1,23.5L-19.9-60.6z M2.4-74.7l-5.6-0.5c0,2.1-0.4,3.7-1.2,4.8c-0.8,1.1-2,1.9-3.4,2.2
	c-1.9,0.4-3.7,0.1-5.2-1.1c-1.5-1.2-2.7-3.4-3.5-6.8c-0.7-3.2-0.6-5.6,0.3-7.3c0.9-1.7,2.4-2.8,4.3-3.2c1.4-0.3,2.7-0.2,3.9,0.4
	c1.2,0.6,2.1,1.5,2.7,2.8l5.1-2.5c-1.1-2-2.4-3.4-3.9-4.3c-2.5-1.5-5.4-1.8-8.6-1.1c-3.7,0.9-6.5,2.8-8.2,5.8S-23-78.8-22-74.3
	c1,4.2,2.9,7.3,5.7,9.2c2.8,1.9,6,2.4,9.6,1.6c2.9-0.7,5.1-1.9,6.6-3.7C1.4-69.1,2.3-71.6,2.4-74.7z M19.9-88l8.1,0.6l0.4-4.6
	L6.6-93.7l-0.4,4.6l8.1,0.6l-1.7,22.7l5.5,0.4L19.9-88z M32.8-62.1l7.5-26.4L34.9-90l-7.5,26.4L32.8-62.1z M56.6-54.1
	c3.3-1,6.1-3.4,8.2-7.3c2.2-3.9,2.9-7.5,2-10.9c-0.9-3.4-3.1-6.1-6.6-8c-1.9-1.1-3.8-1.8-5.7-2c-1.4-0.2-2.8,0-4.3,0.4
	c-1.5,0.4-2.8,1.1-4.1,2c-1.7,1.2-3.2,3.1-4.5,5.5c-2.1,3.8-2.8,7.4-1.9,10.7c0.9,3.3,3.1,6,6.6,8C49.8-53.6,53.2-53.1,56.6-54.1z
	 M94.1-49.8l-3.4-3.9l-13.8,12l6.4-20.5l-3.5-4.1l-20.7,18l3.4,3.9L76-56L69.7-36l3.7,4.2L94.1-49.8z"/>
</svg>
