<?xml version="1.0" encoding="utf-8"?>
<!-- Generator: Adobe Illustrator 18.1.1, SVG Export Plug-In . SVG Version: 6.00 Build 0)  -->
<svg version="1.1" id="Layer_1" xmlns="http://www.w3.org/2000/svg" xmlns:xlink="http://www.w3.org/1999/xlink" x="0px" y="0px"
	 viewBox="0 0 140 160" enable-background="new 0 0 140 160" xml:space="preserve">
<g>
	<g>
		<linearGradient id="SVGID_1_" gradientUnits="userSpaceOnUse" x1="88.9484" y1="74.8813" x2="93.5161" y2="103.5054">
			<stop  offset="0" style="stop-color:#F7F7F8"/>
			<stop  offset="0.2141" style="stop-color:#F1F2F3"/>
			<stop  offset="0.494" style="stop-color:#E1E3E6"/>
			<stop  offset="0.8088" style="stop-color:#C6CCD1"/>
			<stop  offset="1" style="stop-color:#B2BAC1"/>
		</linearGradient>
		<path fill="url(#SVGID_1_)" d="M81,89.5c4.7,0.1,7,1.1,6,2.6c-0.3,0.4-0.7,0.9-1.3,1.5l3.4,1c1-0.7,1.9-1.4,2.8-2.2
			c1.9-1.7,4.7-2.9,9.7-3l-0.3-0.4l-20.4,0L81,89.5z"/>
		<linearGradient id="SVGID_2_" gradientUnits="userSpaceOnUse" x1="72.4938" y1="77.5054" x2="77.0619" y2="106.1319">
			<stop  offset="0" style="stop-color:#F7F7F8"/>
			<stop  offset="0.2141" style="stop-color:#F1F2F3"/>
			<stop  offset="0.494" style="stop-color:#E1E3E6"/>
			<stop  offset="0.8088" style="stop-color:#C6CCD1"/>
			<stop  offset="1" style="stop-color:#B2BAC1"/>
		</linearGradient>
		<path fill="url(#SVGID_2_)" d="M118,98.3c-4.1,1.3-12.7,2.8-18.4,1.1c-5.2-1.6-21.7-6.6-34-10.4c2.5-0.4,4.9-0.8,6.8-1.2
			c10.8-2.3,10.1-4.4,4.3-5.8c-3.1-0.7-7.1-1.2-11-1.1c-4.2,0-7.9,0.4-13.1,1.2l-22.8,3.7l0.8,0.3c4.4-0.7,7.7-0.7,10.5,0.2
			l47.5,16.3c5.6,1.9,5.1,3.5,0.5,5.4l1.6,0.4l29-9.6L118,98.3z M48,83.6c1-0.2,2.1-0.4,3.1-0.6c6.5-1.1,12.4-0.9,17.3,0.4
			c5.6,1.5,5.7,3-0.9,4.3c-1.1,0.2-2.5,0.4-4,0.7C54.7,85.7,48,83.6,48,83.6z"/>
		<linearGradient id="SVGID_3_" gradientUnits="userSpaceOnUse" x1="43.238" y1="82.1734" x2="47.8062" y2="110.8007">
			<stop  offset="0" style="stop-color:#F7F7F8"/>
			<stop  offset="0.2141" style="stop-color:#F1F2F3"/>
			<stop  offset="0.494" style="stop-color:#E1E3E6"/>
			<stop  offset="0.8088" style="stop-color:#C6CCD1"/>
			<stop  offset="1" style="stop-color:#B2BAC1"/>
		</linearGradient>
		<path fill="url(#SVGID_3_)" d="M63.1,103.7c-8.9,2.3-23.3,2.5-32.2-2.1c-8.4-4.3-4.2-7,3.5-8.5c8.2-1.6,16.9-0.8,20.3,0.4l1.5-0.3
			l-9.7-3.4L45.2,90c0.9,0.6-0.9,0.9-5.6,1.5c-3.6,0.4-7,1-8.6,1.3c-13.7,2.6-19.5,7.4-13.2,11.6c8.3,5.5,29.4,5,44.3,1.4
			c6.2-1.5,12-3.6,15.1-5.1l-4.4-1.5C71.3,101.1,67.3,102.6,63.1,103.7z"/>
	</g>
	<path fill="#002856" d="M115.3,85.9c-4.8,3.9-8.9,3.9-13-1.2C98.3,79.7,83.9,62,71,46.1c2.9-1.8,5.7-3.9,8-5.9
		c11.5-9.6,15.8-21.8,7.1-32.4c-4-4.9-9.3-7.4-14.8-7.2c-5.8,0.2-10.9,2.4-17.6,7.9L27.1,29.9l1.3,1.6c4.8-3.9,8.9-3.9,13,1.2
		L91,93.9c4.1,5.1,3.3,9.1-1.5,12.9l1.3,1.6l25.8-20.9L115.3,85.9z M52,14.6c8.3-6.8,16.3-5.8,22.7,2.1c6.8,8.4,6.6,16.6-1.5,23.2
		c-1.3,1.1-2.9,2.1-4.7,3.2c-11-13.5-20.2-25-20.2-25C49.6,16.8,50.8,15.6,52,14.6z"/>
	<g>
		<path fill="#00AEEF" d="M88.4,46.4l0,1.8c5.2,0.3,7.3,4.9,5.4,11.2c-0.5,1.8-1.2,3.7-2.1,5.7l3,3.8c1.4-2.6,2.7-5.3,4-8.2
			c3.2-6.8,7.1-12.2,12.8-12.5l0-1.8L88.4,46.4z"/>
		<path fill="#002856" d="M68.3,96.4c-7.3,6-19.5,6-29.2-5.9c-10.6-13.1-8.6-22.6-1.7-28.2c7.8-6.3,17.5-3.3,21.4,1.5l1.5-1.2
			L48.6,48.3l-1.3,1.1c1.3,2.8-0.6,4.1-5.4,6.3c-3.6,1.7-6.9,4-8.4,5.2c-11.9,9.7-13,25.5-4.3,37.1c9.9,13,26.3,12,38,3.6
			c5.3-3.8,10.4-9.3,13.5-13.7L77,83.2C75.3,88.9,72,93.4,68.3,96.4z"/>
	</g>
	<path fill="#002856" d="M36.6,158.2c-0.3-0.2-0.8-0.8-1.4-1.8l-1.2-2.2c-0.6-1.1-1.2-2-2.3-2.3c0.6-0.1,1.3-0.4,1.7-0.7
		c0.5-0.4,0.8-0.8,1.1-1.3c0.2-0.5,0.3-1,0.3-1.6c0-0.4-0.1-0.9-0.2-1.3c-0.1-0.5-0.4-0.9-0.7-1.3c-0.3-0.4-0.8-0.7-1.4-1
		c-0.6-0.3-1.3-0.4-2.1-0.4l-5.4,0v0.6c0.4,0,0.9,0,1.2,0.3c0.2,0.2,0.4,0.5,0.4,1.1v11c0,0.4-0.1,0.6-0.2,0.8
		c-0.1,0.2-0.3,0.3-0.5,0.4c-0.2,0.1-0.4,0.1-0.7,0.1l-0.1,0l-0.1,0v0.5h5v-0.5l-0.2,0c-1-0.1-1.4-0.4-1.4-1.4v-5.1
		c0.3,0,0.7,0,0.9,0.1c0.6,0.1,1,0.2,1.7,0.9c0.3,0.3,0.7,1,1.1,1.6c0,0,1.1,2,1.6,2.8c0.4,0.8,0.8,1.3,1.2,1.7h2.9v-0.5l-0.2,0
		C37.2,158.6,36.9,158.4,36.6,158.2z M31.3,151c-0.5,0.2-1.2,0.4-2.1,0.4h-0.9l0-6.2c0.2,0,0.6-0.1,0.9-0.1c0.9,0,1.6,0.2,2.1,0.5
		c0.5,0.3,0.9,0.8,1.1,1.3c0.2,0.5,0.3,1,0.3,1.6c0,0.6-0.1,1.2-0.3,1.6C32.2,150.4,31.8,150.7,31.3,151z"/>
	<path fill="#002856" d="M91.1,158.2c-0.3-0.2-0.8-0.8-1.4-1.8l-1.2-2.2c-0.6-1.1-1.2-2-2.3-2.3c0.6-0.1,1.3-0.4,1.7-0.7
		c0.5-0.4,0.8-0.8,1.1-1.3c0.2-0.5,0.3-1,0.3-1.6c0-0.4-0.1-0.9-0.2-1.3c-0.1-0.5-0.4-0.9-0.7-1.3c-0.3-0.4-0.8-0.7-1.4-1
		c-0.6-0.3-1.3-0.4-2.1-0.4l-5.4,0v0.6c0.4,0,0.9,0,1.2,0.3c0.2,0.2,0.4,0.5,0.4,1.1v11c0,0.4-0.1,0.6-0.2,0.8
		c-0.1,0.2-0.3,0.3-0.5,0.4c-0.2,0.1-0.4,0.1-0.7,0.1l-0.1,0l-0.1,0v0.5h5v-0.5l-0.2,0c-1-0.1-1.4-0.4-1.4-1.4v-5.1
		c0.3,0,0.7,0,0.9,0.1c0.6,0.1,1,0.2,1.7,0.9c0.3,0.3,0.7,1,1.1,1.6c0,0,1.1,2,1.6,2.8c0.4,0.8,0.8,1.3,1.2,1.7h2.9v-0.5l-0.2,0
		C91.7,158.6,91.4,158.4,91.1,158.2z M85.8,151c-0.5,0.2-1.2,0.4-2.1,0.4h-0.9l0-6.2c0.2,0,0.6-0.1,0.9-0.1c0.9,0,1.6,0.2,2.1,0.5
		c0.5,0.3,0.9,0.8,1.1,1.3c0.2,0.5,0.3,1,0.3,1.6c0,0.6-0.1,1.2-0.3,1.6C86.7,150.4,86.3,150.7,85.8,151z"/>
	<path fill="#002856" d="M11,148.4c0-0.5-0.1-1.1-0.3-1.6c-0.2-0.5-0.5-0.9-0.9-1.3c-0.4-0.4-1-0.7-1.6-0.9
		c-0.6-0.2-1.4-0.3-2.3-0.3l-5,0v0.5c0.5,0,0.9,0.1,1.1,0.3c0.3,0.2,0.4,0.6,0.4,1.2v11c0,0.5-0.1,0.9-0.4,1.1
		c-0.3,0.2-0.6,0.3-1,0.3l-0.1,0H0.9v0.5h5v-0.5l-0.2,0c-1-0.1-1.4-0.4-1.4-1.4v-4.8c0.4,0.1,1.2,0.1,1.6,0.1c0.9,0,1.6-0.1,2.3-0.3
		c0.7-0.2,1.1-0.5,1.6-0.9c0.4-0.4,0.7-0.8,0.9-1.3C10.9,149.5,11,149,11,148.4z M8,151.1c-0.6,0.5-1.3,0.7-2.2,0.7
		c-0.4,0-0.9,0-1.5-0.1v-6.5c0.4-0.1,1-0.1,1.4-0.1c1.1,0,1.9,0.3,2.5,0.9c0.5,0.7,0.8,1.5,0.8,2.6C9,149.8,8.6,150.6,8,151.1z"/>
	<path fill="#002856" d="M139.1,148.4c0-0.5-0.1-1.1-0.3-1.6c-0.2-0.5-0.5-0.9-0.9-1.3c-0.4-0.4-1-0.7-1.6-0.9
		c-0.6-0.2-1.4-0.3-2.3-0.3l-5,0v0.5c0.5,0,0.9,0.1,1.1,0.3c0.3,0.2,0.4,0.6,0.4,1.2v11c0,0.5-0.1,0.9-0.4,1.1
		c-0.3,0.2-0.6,0.3-1,0.3l-0.1,0H129v0.5h5v-0.5l-0.2,0c-1-0.1-1.4-0.4-1.4-1.4v-4.8c0.4,0.1,1.2,0.1,1.6,0.1c0.9,0,1.6-0.1,2.3-0.3
		c0.7-0.2,1.1-0.5,1.6-0.9c0.4-0.4,0.7-0.8,0.9-1.3C139,149.5,139.1,149,139.1,148.4z M136.1,151.1c-0.6,0.5-1.3,0.7-2.2,0.7
		c-0.4,0-0.9,0-1.5-0.1v-6.5c0.4-0.1,1-0.1,1.4-0.1c1.1,0,1.9,0.3,2.5,0.9c0.5,0.7,0.8,1.5,0.8,2.6
		C137,149.8,136.7,150.6,136.1,151.1z"/>
	<path fill="#002856" d="M22.7,158c-0.2-0.3-0.4-0.7-0.6-1.4l-4.4-12.5h-1.3l-4.1,12.6c-0.2,0.6-0.5,1.1-0.7,1.4
		c-0.3,0.3-0.6,0.4-1,0.5l-0.1,0l-0.1,0v0.5h3.8v-0.5h-0.2c-0.4,0-0.6-0.1-0.7-0.2c-0.1-0.1-0.3-0.3-0.3-0.7c0-0.3,0.1-0.6,0.2-1.1
		l1.1-3.4H19c0,0,1.3,3.8,1.3,3.9c0.3,0.8,0.2,1.2-0.1,1.4c-0.2,0.1-0.6,0.1-1,0.1H19v0.5h5.1v-0.5l-0.2,0
		C23.3,158.6,23,158.3,22.7,158z M14.6,152.3l2-6.2l2.1,6.2L14.6,152.3z"/>
	<path fill="#002856" d="M113.5,144.8h0.2c0.5,0,0.8,0.1,1,0.4c0.2,0.3,0.3,0.6,0.3,1l0,4.7h-6.7v-4.7c0-0.4,0.1-0.8,0.3-1
		c0.2-0.2,0.5-0.4,1.1-0.4h0.2v-0.5h-5v0.5h0.2c1,0,1.3,0.4,1.4,1.4l0,11c0,0.5-0.1,0.8-0.3,1c-0.2,0.2-0.5,0.4-1,0.4h-0.2v0.5h5
		v-0.5h-0.2c-0.4,0-0.8-0.1-1-0.4c-0.2-0.2-0.4-0.6-0.4-1v-5.5h6.7l0,5.5c0,0.5-0.1,0.8-0.4,1c-0.2,0.2-0.6,0.3-1,0.3h-0.2v0.5h5
		v-0.5h-0.2c-1,0-1.3-0.4-1.4-1.4v-11c0-0.4,0.1-0.8,0.3-1c0.2-0.2,0.5-0.4,1-0.4h0.1h0.1v-0.5h-5V144.8z"/>
	<path fill="#002856" d="M121.3,144.8h0.2c0.4,0,0.7,0.1,1,0.3c0.2,0.2,0.4,0.5,0.4,1.1l0,11c0,0.5-0.1,0.9-0.4,1.1
		c-0.3,0.2-0.6,0.3-1,0.3h-0.2v0.5h5v-0.5h-0.2c-0.4,0-0.7-0.1-1-0.3c-0.3-0.2-0.4-0.5-0.4-1.1l0-11c0-0.5,0.1-0.9,0.4-1.1
		c0.3-0.2,0.6-0.3,1-0.3h0.2v-0.5h-5V144.8z"/>
	<path fill="#002856" d="M97,150.1c-1.3-0.7-1.9-1.6-1.9-2.6c0-1.4,1-2.6,2.9-2.6c0.9,0,1.6,0.2,2.1,0.7c0.5,0.5,0.9,1.1,1,1.9h0.5
		V144h-0.5l0,0.1c-0.1,0.3-0.3,0.3-0.7,0.2c-0.8-0.2-1.6-0.3-2.3-0.3c-2.9,0-4.7,2-4.7,4c0,1.2,0.5,2.2,1.3,2.9
		c0.9,0.7,2.2,1.3,3,1.7c2.5,1.2,3.2,2,3.2,3.5c0,1.6-1.4,2.6-3,2.6c-1,0-1.9-0.3-2.6-0.8c-0.7-0.5-1.2-1.3-1.4-2.3l0-0.1l0-0.1
		h-0.5v4h0.5c0.1-0.6,0.3-0.9,0.7-0.7c0.6,0.2,1,0.4,1.5,0.5c0.5,0.1,1.2,0.2,1.8,0.2h0c1,0,1.9-0.2,2.7-0.6
		c0.7-0.4,1.3-0.9,1.6-1.5c0.3-0.6,0.5-1.3,0.5-1.9c0-1.2-0.5-2.2-1.4-3C100,151.5,99,151.2,97,150.1z"/>
	<path fill="#002856" d="M36.9,144.3v3.5h0.5l0-0.2c0.1-1,0.3-1.6,0.7-1.9c0.4-0.3,1-0.4,1.7-0.4l2,0l0,12c0,0.5-0.1,0.9-0.4,1.1
		c-0.3,0.2-0.6,0.3-1,0.3l-0.1,0l-0.1,0v0.5h5v-0.5l-0.2,0c-1-0.1-1.4-0.4-1.4-1.4v-12h2c0.7,0,1.2,0.1,1.7,0.4
		c0.4,0.3,0.7,0.9,0.7,1.9l0,0.1l0,0.1h0.5v-3.5H36.9z"/>
	<path fill="#002856" d="M60.5,144.8L60.5,144.8l0.2,0c0.5,0,0.8,0.1,1,0.3c0.2,0.2,0.3,0.4,0.4,0.7c0.1,0.3,0.1,0.8,0.1,1.5v8.7
		l-8.8-11.8h-2.9v0.5c0.5,0,0.8,0.1,1.2,0.4c0.2,0.2,0.2,0.2,0.7,0.9v9.8c0,0.8,0,1.4-0.1,1.8c-0.1,0.4-0.2,0.6-0.4,0.7
		c-0.2,0.1-0.5,0.2-0.9,0.2l-0.1,0l-0.1,0v0.5h4v-0.5l-0.2,0c-0.6,0-0.9-0.2-1.1-0.5c-0.1-0.1-0.2-0.4-0.2-0.7
		c-0.1-0.3-0.1-0.9-0.1-1.6v-8.7l9.3,12.4H63v-12.9v0c0-0.5,0.1-0.9,0.2-1.1c0.1-0.3,0.2-0.4,0.4-0.5c0.2-0.1,0.5-0.2,0.8-0.2l0.1,0
		l0.1,0v-0.5h-4V144.8z"/>
	<path fill="#002856" d="M76.3,156.6c-0.1,0.4-0.3,0.7-0.5,0.9c-0.2,0.2-0.4,0.4-0.7,0.6c-0.3,0.1-0.7,0.2-1.2,0.2h-2.5
		c-0.5,0-0.8-0.1-0.9-0.3c-0.1-0.3-0.2-0.6-0.2-0.9v-5h3c0.2,0,0.5,0,0.7,0.1c0.1,0,0.2,0,0.4,0.1c0.1,0,0.3,0.2,0.4,0.3
		c0.1,0.2,0.2,0.4,0.3,0.8l0,0.1l0,0.1h0.5v-3.7h-0.5l0,0.2c-0.1,0.6-0.3,0.9-0.6,1c-0.4,0.2-0.8,0.2-1.3,0.2l-2.9,0v-6.2l3.2,0
		c1.6,0,2.2,0.5,2.3,1.6v0.2h0.5v-2.7h-9.4v0.5h0.4c0.5,0,0.7,0.1,0.9,0.4c0.2,0.3,0.3,0.6,0.3,1.1v10.9c0,0.5-0.1,0.9-0.4,1.1
		c-0.3,0.2-0.5,0.3-0.8,0.3h-0.4v0.5h9.4l0.6-2.6h-0.5L76.3,156.6z"/>
	<polygon fill="#00AEEF" points="2.2,140 2.2,138 34.8,138 34.8,140 2.2,140 	"/>
	<path fill="#002856" d="M124.9,123.1v3.8h0.6l0-0.2c0.1-1.1,0.4-1.8,0.8-2.1c0.5-0.3,1.1-0.5,1.8-0.5l2.6,0l0,13.2
		c0,0.6-0.2,1-0.4,1.2c-0.3,0.2-0.6,0.4-1.1,0.4l-0.1,0l-0.1,0v0.6h5.5v-0.6l-0.2,0c-1.1-0.1-1.5-0.5-1.5-1.5v-13.2l2.6,0
		c0.7,0,1.4,0.2,1.9,0.5c0.4,0.3,0.7,0.9,0.8,2.1l0,0.1l0,0.1h0.6v-3.8H124.9z"/>
	<path fill="#002856" d="M118.4,123.7L118.4,123.7l0.2,0c0.5,0,0.9,0.1,1.1,0.3c0.2,0.2,0.4,0.5,0.4,0.8c0.1,0.4,0.1,0.9,0.1,1.7
		v9.6l-10.3-13h-3.2v0.6c0.5,0,0.9,0.1,1.2,0.4c0.3,0.2,0.4,0.3,0.8,1v10.8c0,0.9-0.1,1.6-0.2,2c-0.1,0.4-0.3,0.7-0.4,0.8
		c-0.2,0.1-0.5,0.2-0.9,0.3l-0.1,0l-0.1,0v0.6h4.4v-0.6l-0.2,0c-0.6,0-1-0.2-1.2-0.5c-0.1-0.1-0.2-0.4-0.2-0.8
		c-0.1-0.4-0.1-1-0.1-1.8v-9.6l10.9,13.7h0.6v-14.2v0c0-0.6,0.1-1,0.2-1.2c0.1-0.3,0.3-0.4,0.4-0.5c0.2-0.1,0.5-0.2,0.9-0.2l0.1,0
		l0.1,0v-0.6h-4.4V123.7z"/>
	<path fill="#002856" d="M103.7,136.6c-0.1,0.4-0.3,0.7-0.5,1c-0.2,0.3-0.5,0.5-0.8,0.6c-0.3,0.1-0.8,0.2-1.3,0.2h-3.2
		c-0.6,0-0.8-0.2-1-0.4c-0.2-0.3-0.2-0.6-0.2-1v-5.5h3.7c0.3,0,0.5,0,0.8,0.1c0.1,0,0.3,0,0.4,0.1c0.1,0.1,0.3,0.2,0.5,0.4
		c0.1,0.2,0.3,0.5,0.3,0.8l0,0.1l0,0.1h0.5v-4h-0.6l0,0.2c-0.1,0.6-0.3,1-0.7,1.1c-0.4,0.2-0.9,0.3-1.5,0.3l-3.5,0V124l3.9,0
		c1.8,0,2.5,0.6,2.5,1.8v0.2h0.6v-2.9H93v0.6h0.4c0.5,0,0.8,0.2,1,0.4c0.2,0.3,0.3,0.7,0.3,1.2v12c0,0.6-0.2,1-0.4,1.2
		c-0.3,0.3-0.6,0.4-1,0.4H93v0.6h10.7l0.6-2.9h-0.6L103.7,136.6z"/>
	<path fill="#002856" d="M1.1,123.1v2.9h0.5l0-0.2c0.1-0.8,0.3-1.3,0.6-1.5c0.3-0.2,0.8-0.3,1.3-0.3l1.7,0v9.7
		c0,0.4-0.1,0.7-0.3,0.8c-0.2,0.2-0.5,0.3-0.8,0.3l-0.1,0l-0.1,0v0.5h4.2v-0.5l-0.2,0c-0.8-0.1-1.1-0.3-1.1-1.1v-9.7l1.7,0
		c0.5,0,1,0.1,1.3,0.3c0.3,0.2,0.5,0.7,0.6,1.5l0,0.1l0,0.1H11v-2.9H1.1z"/>
	<path fill="#002856" d="M16.6,134.7h-0.2c-0.4,0-0.6-0.1-0.8-0.3c-0.2-0.2-0.3-0.4-0.3-0.8v-4.4h5.9l0,4.4c0,0.4-0.1,0.6-0.3,0.8
		c-0.2,0.2-0.4,0.3-0.8,0.3h-0.2v0.5h4.2v-0.5h-0.2c-0.8,0-1-0.3-1.1-1.1v-8.9c0-0.4,0.1-0.6,0.3-0.8c0.2-0.2,0.4-0.3,0.8-0.3h0.2
		v-0.5h-4.2v0.5h0.2c0.4,0,0.7,0.1,0.8,0.3c0.2,0.2,0.3,0.5,0.3,0.8v3.7h-5.9l0-3.7c0-0.4,0.1-0.6,0.3-0.8c0.2-0.2,0.4-0.3,0.8-0.3
		h0.2v-0.5h-4.2v0.5h0.2c0.8,0,1,0.3,1.1,1.1v8.9c0,0.4-0.1,0.6-0.3,0.8c-0.2,0.2-0.4,0.3-0.8,0.3h-0.2v0.5h4.2V134.7z"/>
	<path fill="#002856" d="M34.7,133h-0.5l0,0.1l0,0.1c-0.1,0.3-0.2,0.5-0.4,0.7c-0.1,0.2-0.3,0.3-0.6,0.4c-0.2,0.1-0.6,0.2-1,0.2
		h-2.8c-0.4,0-0.3-0.1-0.4-0.2c-0.1-0.2-0.2-0.4-0.2-0.7v-4h2.8c0.2,0,0.4,0,0.6,0c0.1,0,0.2,0,0.3,0.1c0.1,0,0.2,0.1,0.3,0.3
		c0.1,0.1,0.2,0.3,0.2,0.6l0,0.1l0,0.1h0.5v-3.1h-0.5l0,0.2c-0.1,0.5-0.2,0.7-0.5,0.8c-0.3,0.1-0.7,0.2-1.1,0.2h-2.7v-5h3
		c1.3,0,1.8,0.4,1.8,1.3v0.2h0.5v-2.3H26v0.5h0.4c0.4,0,0.6,0.1,0.7,0.3c0.1,0.2,0.2,0.5,0.2,0.8v8.9c0,0.4-0.1,0.7-0.3,0.8
		c-0.2,0.2-0.4,0.3-0.6,0.3H26v0.5h8.2L34.7,133z"/>
	<path fill="#002856" d="M48,139.8c2.1,0,4.5-0.9,5.8-2.3v-1.2c-1.5,1.6-3.6,2.5-5.7,2.5c-3.6,0-6.1-2.9-6.1-7.5
		c0-4.4,2.3-7.7,6-7.7c2.6,0,4.5,1.4,5,3.5h0.6l0-4.2h-0.5l0,0.2v0c-0.1,0.3-0.2,0.4-0.5,0.4c-0.1,0-0.3,0-0.5-0.1L51,123
		c-1-0.3-1.9-0.4-2.8-0.4c0,0,0,0,0,0c-5.5,0-8.4,4.2-8.4,8.8C39.8,136,43,139.8,48,139.8z"/>
	<path fill="#002856" d="M90.9,132.9L90.9,132.9l0.1-0.6h-5.6v0.6l0.1,0l0.1,0c0.6,0.1,1,0.2,1.3,0.4c0.2,0.2,0.4,0.5,0.4,1.2
		c0,0,0,0,0,0l0,2.9c0,0.4-0.1,0.7-0.2,0.9c-0.1,0.2-0.3,0.3-0.7,0.5c-0.4,0.1-1.1,0.2-2.1,0.2c0,0,0,0,0,0c-4.6,0-6.9-2.7-6.9-8
		c0-4.7,2.5-7.5,6.4-7.5c1.2,0,2.4,0.2,3.3,0.8c0.9,0.6,1.5,1.3,1.7,2.3l0,0.1l0,0.1h0.5v-4.1h-0.5l-0.1,0.1
		c-0.2,0.3-0.3,0.4-0.6,0.4c-0.1,0-0.4,0-0.8-0.1c-1-0.2-1.7-0.4-2.2-0.4c-0.5-0.1-1.2-0.1-1.7-0.1c-5.2,0-8.5,3.8-8.5,8.7
		c0,5.3,3.6,8.6,9.2,8.6c1.6,0,3.8-0.3,5.2-0.7v-4.6c0-0.4,0-0.7,0.1-0.9c0.1-0.2,0.2-0.4,0.4-0.5C90,133,90.3,132.9,90.9,132.9
		L90.9,132.9z"/>
	<path fill="#002856" d="M64.2,122.6c-4.8,0-8.3,3.7-8.3,8.6c0,5,3.5,8.6,8.3,8.6c4.8,0,8.3-3.7,8.3-8.6
		C72.5,126.3,69,122.6,64.2,122.6z M64.2,138.9c-3.5,0-5.9-3.1-5.9-7.7c0-4.6,2.4-7.7,5.9-7.7c3.5,0,5.9,3.1,5.9,7.7
		C70.2,135.8,67.8,138.9,64.2,138.9z"/>
</g>
</svg>
