<?xml version="1.0" encoding="utf-8"?>
<!-- Generator: Adobe Illustrator 18.1.1, SVG Export Plug-In . SVG Version: 6.00 Build 0)  -->
<svg version="1.1" id="Layer_1" xmlns="http://www.w3.org/2000/svg" xmlns:xlink="http://www.w3.org/1999/xlink" x="0px" y="0px"
	 viewBox="0 0 160 160" enable-background="new 0 0 160 160" xml:space="preserve">
<g>
	<defs>
		<rect id="SVGID_1_" x="-0.4" width="156.8" height="159.9"/>
	</defs>
	<clipPath id="SVGID_2_">
		<use xlink:href="#SVGID_1_"  overflow="visible"/>
	</clipPath>
	<circle clip-path="url(#SVGID_2_)" fill="#FFFFFF" cx="-0.4" cy="0" r="152.6"/>
</g>
<g>
	<g>
		<linearGradient id="SVGID_3_" gradientUnits="userSpaceOnUse" x1="71.3749" y1="53.4816" x2="73.8637" y2="69.0783">
			<stop  offset="0" style="stop-color:#F7F7F8"/>
			<stop  offset="0.2141" style="stop-color:#F1F2F3"/>
			<stop  offset="0.494" style="stop-color:#E1E3E6"/>
			<stop  offset="0.8088" style="stop-color:#C6CCD1"/>
			<stop  offset="1" style="stop-color:#B2BAC1"/>
		</linearGradient>
		<path fill="url(#SVGID_3_)" d="M67.1,61.4c2.5,0,3.8,0.6,3.3,1.4c-0.2,0.2-0.4,0.5-0.7,0.8l1.9,0.6c0.5-0.4,1-0.8,1.5-1.2
			c1.1-0.9,2.6-1.6,5.3-1.6l-0.2-0.2l-11.1,0L67.1,61.4z"/>
		<linearGradient id="SVGID_4_" gradientUnits="userSpaceOnUse" x1="62.4091" y1="54.9114" x2="64.8981" y2="70.5094">
			<stop  offset="0" style="stop-color:#F7F7F8"/>
			<stop  offset="0.2141" style="stop-color:#F1F2F3"/>
			<stop  offset="0.494" style="stop-color:#E1E3E6"/>
			<stop  offset="0.8088" style="stop-color:#C6CCD1"/>
			<stop  offset="1" style="stop-color:#B2BAC1"/>
		</linearGradient>
		<path fill="url(#SVGID_4_)" d="M87.2,66.2c-2.3,0.7-6.9,1.5-10,0.6c-2.9-0.9-11.8-3.6-18.5-5.6c1.4-0.2,2.7-0.5,3.7-0.7
			c5.9-1.3,5.5-2.4,2.3-3.2c-1.7-0.4-3.8-0.6-6-0.6c-2.3,0-4.3,0.2-7.1,0.7l-12.4,2l0.4,0.2c2.4-0.4,4.2-0.4,5.7,0.1l25.9,8.9
			c3.1,1.1,2.8,1.9,0.3,3l0.9,0.2l15.8-5.2L87.2,66.2z M49.1,58.2c0.6-0.1,1.1-0.2,1.7-0.3c3.6-0.6,6.8-0.5,9.5,0.2
			c3,0.8,3.1,1.6-0.5,2.3c-0.6,0.1-1.3,0.2-2.2,0.4C52.7,59.4,49.1,58.2,49.1,58.2z"/>
		<linearGradient id="SVGID_5_" gradientUnits="userSpaceOnUse" x1="46.4682" y1="57.4549" x2="48.9573" y2="73.0534">
			<stop  offset="0" style="stop-color:#F7F7F8"/>
			<stop  offset="0.2141" style="stop-color:#F1F2F3"/>
			<stop  offset="0.494" style="stop-color:#E1E3E6"/>
			<stop  offset="0.8088" style="stop-color:#C6CCD1"/>
			<stop  offset="1" style="stop-color:#B2BAC1"/>
		</linearGradient>
		<path fill="url(#SVGID_5_)" d="M57.3,69.2c-4.9,1.3-12.7,1.3-17.6-1.1c-4.6-2.3-2.3-3.8,1.9-4.6c4.5-0.9,9.2-0.4,11.1,0.2l0.8-0.2
			l-5.3-1.9l-0.7,0.1c0.5,0.3-0.5,0.5-3,0.8c-1.9,0.2-3.8,0.5-4.7,0.7c-7.5,1.4-10.6,4.1-7.2,6.3c4.5,3,16,2.7,24.2,0.8
			c3.4-0.8,6.5-1.9,8.2-2.8l-2.4-0.8C61.7,67.8,59.6,68.6,57.3,69.2z"/>
	</g>
	<path fill="#002856" d="M85.7,59.5c-2.6,2.1-4.8,2.1-7.1-0.7c-2.2-2.7-10.1-12.4-17.1-21.1c1.6-1,3.1-2.1,4.4-3.2
		c6.3-5.2,8.6-11.9,3.9-17.7c-2.2-2.7-5.1-4.1-8.1-3.9c-3.2,0.1-5.9,1.3-9.6,4.3L37.7,29l0.7,0.9c2.6-2.1,4.8-2.1,7.1,0.7l27,33.3
		c2.2,2.8,1.8,4.9-0.8,7l0.7,0.9l14-11.4L85.7,59.5z M51.3,20.6c4.5-3.7,8.9-3.2,12.4,1.2c3.7,4.6,3.6,9.1-0.8,12.6
		c-0.7,0.6-1.6,1.2-2.6,1.7c-6-7.4-11-13.6-11-13.6C49.9,21.8,50.6,21.2,51.3,20.6z"/>
	<g>
		<path fill="#00AEEF" d="M71.1,38l0,1c2.9,0.2,4,2.7,3,6.1c-0.3,1-0.7,2-1.1,3.1l1.7,2c0.7-1.4,1.5-2.9,2.2-4.4
			c1.7-3.7,3.9-6.6,7-6.8l0-1L71.1,38z"/>
		<path fill="#002856" d="M60.1,65.2c-4,3.2-10.7,3.3-15.9-3.2c-5.8-7.1-4.7-12.3-0.9-15.4c4.3-3.5,9.6-1.8,11.7,0.8l0.8-0.7
			L49.4,39l-0.7,0.6c0.7,1.5-0.3,2.2-2.9,3.4c-2,0.9-3.7,2.2-4.6,2.9c-6.5,5.3-7.1,13.9-2.3,20.2c5.4,7.1,14.3,6.5,20.7,2
			c2.9-2.1,5.7-5.1,7.4-7.5L64.9,58C64,61.1,62.1,63.6,60.1,65.2z"/>
	</g>
	<path fill="#002856" d="M42.8,98.9c-0.2-0.1-0.4-0.5-0.7-1l-0.7-1.2c-0.3-0.6-0.6-1.1-1.3-1.3c0.3,0,0.7-0.2,0.9-0.4
		c0.3-0.2,0.5-0.4,0.6-0.7c0.1-0.3,0.2-0.6,0.2-0.9c0-0.2,0-0.5-0.1-0.7c-0.1-0.2-0.2-0.5-0.4-0.7c-0.2-0.2-0.4-0.4-0.8-0.5
		c-0.3-0.1-0.7-0.2-1.2-0.2l-2.9,0v0.3c0.2,0,0.5,0,0.6,0.2c0.1,0.1,0.2,0.3,0.2,0.6v6c0,0.2,0,0.4-0.1,0.5C37.2,98.9,37.1,99,37,99
		c-0.1,0-0.2,0.1-0.4,0.1l0,0l0,0v0.3h2.7v-0.3l-0.1,0c-0.5,0-0.7-0.2-0.8-0.8v-2.8c0.1,0,0.4,0,0.5,0c0.3,0,0.6,0.1,0.9,0.5
		c0.2,0.2,0.4,0.6,0.6,0.9c0,0,0.6,1.1,0.9,1.5c0.2,0.4,0.4,0.7,0.7,0.9h1.6v-0.3l-0.1,0C43.2,99.1,43,99,42.8,98.9z M39.9,94.9
		c-0.3,0.1-0.7,0.2-1.1,0.2h-0.5l0-3.4c0.1,0,0.4,0,0.5,0c0.5,0,0.9,0.1,1.1,0.3c0.3,0.2,0.5,0.4,0.6,0.7c0.1,0.3,0.2,0.6,0.2,0.9
		c0,0.4-0.1,0.6-0.2,0.9C40.4,94.6,40.2,94.8,39.9,94.9z"/>
	<path fill="#002856" d="M72.5,98.9c-0.2-0.1-0.4-0.5-0.7-1l-0.7-1.2c-0.3-0.6-0.6-1.1-1.3-1.3c0.4,0,0.7-0.2,0.9-0.4
		c0.3-0.2,0.5-0.4,0.6-0.7c0.1-0.3,0.2-0.6,0.2-0.9c0-0.2,0-0.5-0.1-0.7c-0.1-0.2-0.2-0.5-0.4-0.7c-0.2-0.2-0.4-0.4-0.7-0.5
		c-0.3-0.1-0.7-0.2-1.2-0.2l-2.9,0v0.3c0.2,0,0.5,0,0.6,0.2c0.1,0.1,0.2,0.3,0.2,0.6v6c0,0.2,0,0.4-0.1,0.5
		c-0.1,0.1-0.2,0.2-0.3,0.2c-0.1,0-0.2,0.1-0.4,0.1l0,0l0,0v0.3h2.7v-0.3l-0.1,0c-0.5,0-0.7-0.2-0.8-0.8v-2.8c0.1,0,0.4,0,0.5,0
		c0.3,0,0.6,0.1,0.9,0.5c0.2,0.2,0.4,0.6,0.6,0.9c0,0,0.6,1.1,0.9,1.5c0.2,0.4,0.4,0.7,0.7,0.9h1.6v-0.3l-0.1,0
		C72.9,99.1,72.7,99,72.5,98.9z M69.6,94.9c-0.3,0.1-0.7,0.2-1.1,0.2h-0.5l0-3.4c0.1,0,0.4,0,0.5,0c0.5,0,0.9,0.1,1.1,0.3
		c0.3,0.2,0.5,0.4,0.6,0.7c0.1,0.3,0.2,0.6,0.2,0.9c0,0.4-0.1,0.6-0.2,0.9C70.1,94.6,69.9,94.8,69.6,94.9z"/>
	<path fill="#002856" d="M28.9,93.6c0-0.3-0.1-0.6-0.2-0.8c-0.1-0.3-0.3-0.5-0.5-0.7c-0.2-0.2-0.5-0.4-0.9-0.5
		c-0.3-0.1-0.8-0.2-1.3-0.2l-2.7,0v0.3c0.3,0,0.5,0.1,0.6,0.1c0.2,0.1,0.2,0.3,0.2,0.6v6c0,0.3-0.1,0.5-0.2,0.6
		c-0.1,0.1-0.3,0.2-0.5,0.2l0,0h-0.1v0.3h2.7v-0.3l-0.1,0c-0.5,0-0.7-0.2-0.8-0.8v-2.6c0.2,0,0.6,0.1,0.8,0.1c0.5,0,0.9,0,1.2-0.2
		c0.4-0.1,0.6-0.3,0.9-0.5c0.2-0.2,0.4-0.4,0.5-0.7C28.9,94.1,28.9,93.8,28.9,93.6z M27.3,95c-0.3,0.3-0.7,0.4-1.2,0.4
		c-0.2,0-0.5,0-0.8-0.1v-3.5c0.2,0,0.5-0.1,0.8-0.1c0.6,0,1.1,0.2,1.4,0.5c0.3,0.4,0.4,0.8,0.4,1.4C27.8,94.3,27.6,94.7,27.3,95z"/>
	<path fill="#002856" d="M98.7,93.6c0-0.3-0.1-0.6-0.2-0.8c-0.1-0.3-0.3-0.5-0.5-0.7c-0.2-0.2-0.5-0.4-0.9-0.5
		c-0.3-0.1-0.8-0.2-1.3-0.2l-2.7,0v0.3c0.3,0,0.5,0.1,0.6,0.1c0.2,0.1,0.2,0.3,0.2,0.6v6c0,0.3-0.1,0.5-0.2,0.6
		c-0.1,0.1-0.3,0.2-0.5,0.2l0,0h-0.1v0.3h2.7v-0.3l-0.1,0c-0.5,0-0.7-0.2-0.8-0.8v-2.6c0.2,0,0.6,0.1,0.8,0.1c0.5,0,0.9,0,1.2-0.2
		c0.4-0.1,0.6-0.3,0.9-0.5c0.2-0.2,0.4-0.4,0.5-0.7C98.6,94.1,98.7,93.8,98.7,93.6z M97.1,95c-0.3,0.3-0.7,0.4-1.2,0.4
		c-0.2,0-0.5,0-0.8-0.1v-3.5c0.2,0,0.5-0.1,0.8-0.1c0.6,0,1.1,0.2,1.4,0.5c0.3,0.4,0.4,0.8,0.4,1.4C97.6,94.3,97.4,94.7,97.1,95z"/>
	<path fill="#002856" d="M35.3,98.8c-0.1-0.1-0.2-0.4-0.3-0.7l-2.4-6.8h-0.7l-2.3,6.9c-0.1,0.4-0.2,0.6-0.4,0.8
		c-0.1,0.2-0.3,0.2-0.6,0.3l0,0l0,0v0.3h2.1v-0.3h-0.1c-0.2,0-0.3,0-0.4-0.1C30,99,30,98.9,30,98.7c0-0.1,0-0.3,0.1-0.6l0.6-1.9h2.6
		c0,0,0.7,2.1,0.7,2.1c0.1,0.4,0.1,0.6-0.1,0.7c-0.1,0.1-0.3,0.1-0.6,0.1h-0.1v0.3H36v-0.3l-0.1,0C35.6,99.1,35.4,99,35.3,98.8z
		 M30.9,95.7l1.1-3.4l1.2,3.4L30.9,95.7z"/>
	<path fill="#002856" d="M84.7,91.6h0.1c0.3,0,0.5,0.1,0.6,0.2c0.1,0.1,0.2,0.3,0.2,0.6l0,2.5h-3.7v-2.5c0-0.2,0.1-0.4,0.2-0.6
		c0.1-0.1,0.3-0.2,0.6-0.2h0.1v-0.3h-2.7v0.3h0.1c0.5,0,0.7,0.2,0.7,0.8l0,6c0,0.3-0.1,0.4-0.2,0.6c-0.1,0.1-0.3,0.2-0.6,0.2h-0.1
		v0.3h2.7v-0.3h-0.1c-0.2,0-0.4-0.1-0.6-0.2c-0.1-0.1-0.2-0.3-0.2-0.6v-3h3.7l0,3c0,0.3-0.1,0.4-0.2,0.6c-0.1,0.1-0.3,0.2-0.6,0.2
		h-0.1v0.3h2.7v-0.3h-0.1c-0.5,0-0.7-0.2-0.7-0.8v-6c0-0.2,0.1-0.4,0.2-0.6c0.1-0.1,0.3-0.2,0.6-0.2h0.1h0.1v-0.3h-2.7V91.6z"/>
	<path fill="#002856" d="M89,91.6h0.1c0.2,0,0.4,0.1,0.5,0.2c0.1,0.1,0.2,0.3,0.2,0.6l0,6c0,0.3-0.1,0.5-0.2,0.6
		c-0.1,0.1-0.3,0.2-0.5,0.2H89v0.3h2.7v-0.3h-0.1c-0.2,0-0.4-0.1-0.5-0.2c-0.1-0.1-0.2-0.3-0.2-0.6l0-6c0-0.3,0.1-0.5,0.2-0.6
		c0.1-0.1,0.3-0.2,0.5-0.2h0.1v-0.3H89V91.6z"/>
	<path fill="#002856" d="M75.8,94.4c-0.7-0.4-1.1-0.9-1.1-1.4c0-0.8,0.6-1.4,1.6-1.4c0.5,0,0.9,0.1,1.2,0.4c0.3,0.2,0.5,0.6,0.5,1
		h0.3v-1.9H78l0,0.1c-0.1,0.2-0.2,0.2-0.4,0.1c-0.4-0.1-0.9-0.2-1.3-0.2c-1.6,0-2.5,1.1-2.5,2.2c0,0.6,0.3,1.2,0.7,1.6
		c0.5,0.4,1.2,0.7,1.6,0.9c1.4,0.7,1.7,1.1,1.7,1.9c0,0.9-0.8,1.4-1.6,1.4c-0.6,0-1-0.1-1.4-0.4c-0.4-0.3-0.6-0.7-0.8-1.3l0,0l0,0
		h-0.3v2.2H74c0.1-0.4,0.2-0.5,0.4-0.4c0.3,0.1,0.5,0.2,0.8,0.3c0.3,0.1,0.6,0.1,1,0.1h0c0.6,0,1.1-0.1,1.4-0.3
		c0.4-0.2,0.7-0.5,0.9-0.8c0.2-0.3,0.3-0.7,0.3-1c0-0.6-0.3-1.2-0.8-1.6C77.4,95.2,76.9,95.1,75.8,94.4z"/>
	<path fill="#002856" d="M43,91.3v1.9h0.3l0-0.1c0-0.6,0.2-0.9,0.4-1c0.2-0.2,0.5-0.2,0.9-0.2l1.1,0l0,6.5c0,0.3-0.1,0.5-0.2,0.6
		c-0.1,0.1-0.3,0.2-0.5,0.2l-0.1,0l0,0v0.3h2.7v-0.3l-0.1,0c-0.5,0-0.7-0.2-0.8-0.8v-6.5h1.1c0.4,0,0.7,0.1,0.9,0.2
		c0.2,0.1,0.4,0.5,0.4,1l0,0.1l0,0.1h0.3v-1.9H43z"/>
	<path fill="#002856" d="M55.9,91.6L55.9,91.6L55.9,91.6c0.4,0,0.5,0.1,0.6,0.2c0.1,0.1,0.2,0.2,0.2,0.4c0,0.2,0,0.5,0,0.8v4.8
		L52,91.3h-1.6v0.3c0.3,0,0.5,0.1,0.6,0.2c0.1,0.1,0.1,0.1,0.4,0.5v5.3c0,0.4,0,0.8-0.1,1c0,0.2-0.1,0.3-0.2,0.4
		c-0.1,0.1-0.3,0.1-0.5,0.1l0,0l0,0v0.3h2.2v-0.3l-0.1,0c-0.3,0-0.5-0.1-0.6-0.3c0-0.1-0.1-0.2-0.1-0.4c0-0.2,0-0.5,0-0.9v-4.7
		l5.1,6.7h0.3v-7c0,0,0,0,0,0c0-0.3,0-0.5,0.1-0.6c0.1-0.1,0.1-0.2,0.2-0.3c0.1,0,0.3-0.1,0.4-0.1l0,0l0,0v-0.3h-2.2V91.6z"/>
	<path fill="#002856" d="M64.5,98c-0.1,0.2-0.2,0.4-0.3,0.5c-0.1,0.1-0.2,0.2-0.4,0.3c-0.2,0.1-0.4,0.1-0.7,0.1h-1.4
		c-0.3,0-0.4-0.1-0.5-0.2c-0.1-0.1-0.1-0.3-0.1-0.5v-2.7h1.6c0.1,0,0.3,0,0.4,0c0.1,0,0.1,0,0.2,0c0.1,0,0.1,0.1,0.2,0.2
		c0.1,0.1,0.1,0.2,0.2,0.4l0,0l0,0h0.3v-2h-0.3l0,0.1c0,0.3-0.1,0.5-0.3,0.6c-0.2,0.1-0.5,0.1-0.7,0.1l-1.6,0v-3.4l1.8,0
		c0.9,0,1.2,0.3,1.2,0.9v0.1h0.3v-1.4h-5.1v0.3h0.2c0.3,0,0.4,0.1,0.5,0.2c0.1,0.2,0.1,0.4,0.1,0.6v5.9c0,0.3-0.1,0.5-0.2,0.6
		c-0.1,0.1-0.3,0.2-0.4,0.2h-0.2v0.3h5.1l0.3-1.4L64.5,98L64.5,98z"/>
	<polygon fill="#00AEEF" points="24.1,89 24.1,87.8 41.9,87.8 41.9,89 24.1,89 	"/>
	<path fill="#002856" d="M91,79.7v2.1h0.3l0-0.1c0-0.6,0.2-1,0.4-1.1c0.3-0.2,0.6-0.3,1-0.3l1.4,0l0,7.2c0,0.3-0.1,0.5-0.2,0.6
		c-0.2,0.1-0.4,0.2-0.6,0.2l-0.1,0l-0.1,0v0.3h3v-0.3l-0.1,0c-0.6,0-0.8-0.3-0.8-0.8v-7.2l1.4,0c0.4,0,0.7,0.1,1,0.3
		c0.2,0.2,0.4,0.5,0.4,1.1l0,0.1l0,0.1h0.3v-2.1H91z"/>
	<path fill="#002856" d="M87.4,80.1L87.4,80.1l0.1,0c0.3,0,0.5,0.1,0.6,0.2c0.1,0.1,0.2,0.2,0.2,0.4c0,0.2,0,0.5,0,0.9v5.2l-5.6-7.1
		h-1.7V80c0.3,0,0.5,0.1,0.7,0.2c0.1,0.1,0.2,0.2,0.5,0.5v5.9c0,0.5,0,0.9-0.1,1.1c-0.1,0.2-0.1,0.4-0.2,0.4
		c-0.1,0.1-0.3,0.1-0.5,0.1l-0.1,0l-0.1,0v0.3h2.4v-0.3l-0.1,0c-0.3,0-0.6-0.1-0.7-0.3c-0.1-0.1-0.1-0.2-0.1-0.4
		c0-0.2-0.1-0.5-0.1-1v-5.2l5.9,7.5h0.3v-7.7c0,0,0,0,0,0c0-0.3,0-0.5,0.1-0.7c0.1-0.2,0.1-0.2,0.2-0.3c0.1-0.1,0.3-0.1,0.5-0.1l0,0
		l0,0v-0.3h-2.4V80.1z"/>
	<path fill="#002856" d="M79.4,87.1c-0.1,0.2-0.2,0.4-0.3,0.6c-0.1,0.1-0.2,0.3-0.4,0.3c-0.2,0.1-0.4,0.1-0.7,0.1h-1.7
		c-0.3,0-0.4-0.1-0.5-0.2c-0.1-0.1-0.1-0.3-0.1-0.5v-3h2c0.1,0,0.3,0,0.4,0c0.1,0,0.1,0,0.2,0.1c0.1,0,0.2,0.1,0.2,0.2
		c0.1,0.1,0.1,0.3,0.2,0.5l0,0l0,0H79v-2.2h-0.3l0,0.1c0,0.3-0.2,0.5-0.4,0.6c-0.2,0.1-0.5,0.1-0.8,0.1l-1.9,0v-3.7l2.1,0
		c1,0,1.3,0.3,1.4,1v0.1h0.3v-1.6h-5.9v0.3h0.2c0.3,0,0.4,0.1,0.5,0.2c0.1,0.2,0.2,0.4,0.2,0.6v6.5c0,0.3-0.1,0.5-0.2,0.6
		c-0.2,0.1-0.3,0.2-0.5,0.2h-0.2v0.3h5.8l0.4-1.6L79.4,87.1L79.4,87.1z"/>
	<path fill="#002856" d="M23.5,79.7v1.6h0.3l0-0.1c0-0.4,0.2-0.7,0.3-0.8c0.2-0.1,0.4-0.2,0.7-0.2l0.9,0v5.3c0,0.2-0.1,0.4-0.2,0.5
		c-0.1,0.1-0.2,0.1-0.4,0.1l-0.1,0l-0.1,0v0.3h2.3v-0.3l-0.1,0c-0.4,0-0.6-0.2-0.6-0.6v-5.3l0.9,0c0.3,0,0.5,0.1,0.7,0.2
		c0.2,0.1,0.3,0.4,0.3,0.8l0,0.1l0,0.1h0.3v-1.6H23.5z"/>
	<path fill="#002856" d="M31.9,86.1h-0.1c-0.2,0-0.3-0.1-0.4-0.2c-0.1-0.1-0.2-0.2-0.2-0.4v-2.4h3.2l0,2.4c0,0.2-0.1,0.3-0.2,0.4
		c-0.1,0.1-0.2,0.1-0.4,0.1h-0.1v0.3H36v-0.3h-0.1c-0.4,0-0.6-0.2-0.6-0.6v-4.9c0-0.2,0-0.3,0.1-0.4c0.1-0.1,0.2-0.2,0.4-0.2H36
		v-0.3h-2.3V80h0.1c0.2,0,0.4,0.1,0.4,0.2c0.1,0.1,0.1,0.3,0.1,0.4v2h-3.2l0-2c0-0.2,0-0.3,0.1-0.4c0.1-0.1,0.2-0.2,0.4-0.2h0.1
		v-0.3h-2.3V80h0.1c0.4,0,0.6,0.2,0.6,0.6v4.9c0,0.2-0.1,0.3-0.1,0.4c-0.1,0.1-0.2,0.2-0.4,0.2h-0.1v0.3h2.3V86.1z"/>
	<path fill="#002856" d="M41.8,85.2h-0.3l0,0l0,0c-0.1,0.2-0.1,0.3-0.2,0.4c-0.1,0.1-0.2,0.2-0.3,0.2c-0.1,0.1-0.3,0.1-0.5,0.1H39
		c-0.2,0-0.2-0.1-0.2-0.1c-0.1-0.1-0.1-0.2-0.1-0.4v-2.2h1.5c0.1,0,0.2,0,0.3,0c0.1,0,0.1,0,0.2,0c0,0,0.1,0.1,0.2,0.1
		c0.1,0.1,0.1,0.2,0.1,0.3l0,0l0,0h0.3v-1.7H41l0,0.1c0,0.3-0.1,0.4-0.2,0.4c-0.2,0.1-0.4,0.1-0.6,0.1h-1.5v-2.7h1.6
		c0.7,0,1,0.2,1,0.7V81h0.3v-1.2h-4.5V80h0.2c0.2,0,0.3,0.1,0.4,0.2c0.1,0.1,0.1,0.3,0.1,0.5v4.8c0,0.2-0.1,0.4-0.2,0.5
		c-0.1,0.1-0.2,0.1-0.3,0.1h-0.2v0.3h4.5L41.8,85.2z"/>
	<path fill="#002856" d="M49.1,88.9c1.2,0,2.5-0.5,3.2-1.3V87c-0.8,0.9-1.9,1.3-3.1,1.3c-2,0-3.3-1.6-3.3-4.1c0-2.4,1.2-4.2,3.3-4.2
		c1.4,0,2.4,0.8,2.7,1.9h0.3l0-2.3h-0.3l0,0.1v0c0,0.1-0.1,0.2-0.3,0.2c-0.1,0-0.2,0-0.3,0l-0.6-0.2c-0.6-0.2-1-0.2-1.5-0.2
		c0,0,0,0,0,0c-3,0-4.6,2.3-4.6,4.8C44.6,86.8,46.3,88.9,49.1,88.9z"/>
	<path fill="#002856" d="M72.4,85.1L72.4,85.1l0-0.3h-3.1v0.3l0,0l0,0c0.3,0,0.5,0.1,0.7,0.2c0.1,0.1,0.2,0.3,0.2,0.7c0,0,0,0,0,0
		l0,1.6c0,0.2,0,0.4-0.1,0.5c0,0.1-0.2,0.2-0.4,0.3c-0.2,0.1-0.6,0.1-1.1,0.1c0,0,0,0,0,0c-2.5,0-3.8-1.5-3.8-4.3
		c0-2.5,1.3-4.1,3.5-4.1c0.7,0,1.3,0.1,1.8,0.4c0.5,0.3,0.8,0.7,0.9,1.3l0,0l0,0h0.3v-2.2h-0.3l0,0.1c-0.1,0.2-0.2,0.2-0.3,0.2
		c-0.1,0-0.2,0-0.4-0.1c-0.6-0.1-0.9-0.2-1.2-0.2c-0.3,0-0.7-0.1-0.9-0.1c-2.9,0-4.6,2.1-4.6,4.7c0,2.9,1.9,4.7,5,4.7
		c0.9,0,2.1-0.1,2.8-0.4V86c0-0.2,0-0.4,0.1-0.5c0-0.1,0.1-0.2,0.2-0.3C71.9,85.2,72.1,85.1,72.4,85.1L72.4,85.1z"/>
	<path fill="#002856" d="M57.9,79.5c-2.6,0-4.5,2-4.5,4.7c0,2.7,1.9,4.7,4.5,4.7c2.6,0,4.5-2,4.5-4.7C62.4,81.5,60.5,79.5,57.9,79.5
		z M57.9,88.4c-1.9,0-3.2-1.7-3.2-4.2c0-2.5,1.3-4.2,3.2-4.2c1.9,0,3.2,1.7,3.2,4.2C61.1,86.7,59.8,88.4,57.9,88.4z"/>
</g>
</svg>
