<?xml version="1.0" encoding="utf-8"?>
<!-- Generator: Adobe Illustrator 18.1.1, SVG Export Plug-In . SVG Version: 6.00 Build 0)  -->
<svg version="1.1" id="Layer_1" xmlns="http://www.w3.org/2000/svg" xmlns:xlink="http://www.w3.org/1999/xlink" x="0px" y="0px"
	 viewBox="0 0 15 15" enable-background="new 0 0 15 15" xml:space="preserve">
<g>
	<path fill="#FFFFFF" d="M3.4,14.6c-0.5-1.2-1-2.4-1.6-3.6C1.5,10.2,0.9,9.5,0,9.1c0.6-0.6,1.1-1.2,1.9-1.3c0.3-0.1,0.6,0,0.8,0.2
		c0.7,0.6,0.9,1.4,1.3,2.1c0.1,0.2,0.2,0.4,0.3,0.6C7,6.5,10.3,3,14.6,0.4C14.7,0.6,14.9,0.8,15,1c-0.3,0.2-0.5,0.4-0.8,0.6
		c-2.3,2-4.1,4.2-5.8,6.7c-1,1.5-1.8,3-2.7,4.5c-0.1,0.1-0.1,0.2-0.2,0.2C4.8,13.6,4.1,14.1,3.4,14.6z"/>
</g>
</svg>
