<?xml version="1.0" encoding="utf-8"?>
<!-- Generator: Adobe Illustrator 18.1.1, SVG Export Plug-In . SVG Version: 6.00 Build 0)  -->
<svg version="1.1" id="Layer_1" xmlns="http://www.w3.org/2000/svg" xmlns:xlink="http://www.w3.org/1999/xlink" x="0px" y="0px"
	 viewBox="0 0 100 96.4" enable-background="new 0 0 100 96.4" xml:space="preserve">
<g>
	<path fill="#FFFFFF" d="M18.3,25.9L42.6,5.6v85.1L18.2,70.1L0,67.3V27.7L18.3,25.9z M22,34.9L9.3,36.1v23.3l12.9,2l11.2,9.4V25.4
		L22,34.9z M66.5,48.5c0,10.3-2.8,20-7.6,28.4l-7.6-5.4c3.8-6.8,6-14.6,6-22.9c0-8.6-2.3-16.6-6.3-23.6l7.6-5.4
		C63.6,28,66.5,37.9,66.5,48.5z M83.2,48.5c0,13.9-3.9,27-10.7,38.1l-7.6-5.4c5.7-9.6,9-20.8,9-32.7c0-12.2-3.4-23.6-9.4-33.3
		l7.6-5.4C79.2,21.1,83.2,34.3,83.2,48.5z M100,48.5c0,17.6-5.1,34-13.9,47.9L78.6,91c7.7-12.3,12.2-27,12.2-42.5
		c0-15.9-4.6-30.7-12.5-43.1L85.8,0C94.7,14,100,30.6,100,48.5z"/>
</g>
</svg>
